<?xml version="1.0" standalone="no"?>
<!DOCTYPE svg PUBLIC "-//W3C//DTD SVG 1.1//EN" "http://www.w3.org/Graphics/SVG/1.1/DTD/svg11.dtd" >
<svg xmlns="http://www.w3.org/2000/svg" xmlns:xlink="http://www.w3.org/1999/xlink" version="1.1">
<metadata>
Created by FontForge 20170910 at Mon Apr 23 15:31:40 2012
 By Jimmy Wärting
Copyright (c) 2012 by TypeTogether. All rights reserved.
</metadata>
<defs>
<font id="AdelleSans-Light" horiz-adv-x="570" >
  <font-face 
    font-family="Adelle Sans Lt"
    font-weight="300"
    font-stretch="normal"
    units-per-em="1000"
    panose-1="2 0 5 3 0 0 0 2 0 4"
    ascent="755"
    descent="-245"
    x-height="511"
    cap-height="724"
    bbox="-147 -291 1136 1066"
    underline-thickness="50"
    underline-position="-100"
    stemh="59"
    stemv="69"
    unicode-range="U+0020-FB06"
  />
<missing-glyph horiz-adv-x="500" 
 />
    <glyph glyph-name="ij" unicode="ij" horiz-adv-x="481" 
d="M157 511v-511h-67v511h67zM179 688c0 -34 -20 -53 -54 -53s-54 19 -54 53s20 53 54 53s54 -19 54 -53zM268 -223c-24 0 -69 6 -86 16l9 55c22 -8 50 -14 73 -14c43 0 68 23 68 83v594h67v-590c0 -99 -44 -144 -131 -144zM422 688c0 -34 -20 -53 -54 -53s-54 19 -54 53
s20 53 54 53s54 -19 54 -53z" />
    <glyph glyph-name="ff" unicode="ff" horiz-adv-x="614" 
d="M321 748l-3 -54c-20 7 -49 13 -73 13c-47 0 -80 -21 -80 -93v-103h236v93c0 106 47 160 138 160c37 0 68 -8 85 -16l-3 -54c-20 7 -49 13 -73 13c-47 0 -80 -21 -80 -93v-103h145v-56h-145v-455h-67v455h-236v-455h-67v455h-78v56h78v93c0 106 47 160 138 160
c37 0 68 -8 85 -16z" />
    <glyph glyph-name="fi" unicode="fi" horiz-adv-x="553" 
d="M468 511v-511h-67v455h-236v-455h-67v455h-78v56h78v93c0 106 47 160 138 160c37 0 68 -8 85 -16l-3 -54c-20 7 -49 13 -73 13c-47 0 -80 -21 -80 -93v-103h303zM490 678c0 -34 -20 -53 -54 -53s-54 19 -54 53s20 53 54 53s54 -19 54 -53z" />
    <glyph glyph-name="fl" unicode="fl" horiz-adv-x="553" 
d="M468 755v-755h-67v755h67zM321 748l-3 -54c-20 7 -49 13 -73 13c-47 0 -80 -21 -80 -93v-103h145v-56h-145v-455h-67v455h-78v56h78v93c0 106 47 160 138 160c37 0 68 -8 85 -16z" />
    <glyph glyph-name="f_k" unicode="fk" horiz-adv-x="829" 
d="M468 755v-491l240 247h78l-180 -185l193 -326h-73l-168 278l-90 -92v-186h-67v755h67zM321 748l-3 -54c-20 7 -49 13 -73 13c-47 0 -80 -21 -80 -93v-103h145v-56h-145v-455h-67v455h-78v56h78v93c0 106 47 160 138 160c37 0 68 -8 85 -16z" />
    <glyph glyph-name="f_b" unicode="fb" horiz-adv-x="888" 
d="M401 0v755h66v-304c47 39 102 70 181 70c107 0 185 -66 185 -253c0 -199 -100 -280 -216 -280c-60 0 -114 28 -152 56v0l-5 -44h-59zM468 390v-284c25 -19 81 -61 149 -61c109 0 148 93 148 226c0 140 -43 195 -134 195c-65 0 -130 -42 -163 -76zM321 748l-3 -54
c-20 7 -49 13 -73 13c-47 0 -80 -21 -80 -93v-103h145v-56h-145v-455h-67v455h-78v56h78v93c0 106 47 160 138 160c37 0 68 -8 85 -16z" />
    <glyph glyph-name="f_h" unicode="fh" horiz-adv-x="893" 
d="M811 345v-345h-67v338c0 78 -27 124 -106 124c-67 0 -139 -45 -170 -73v-389h-67v755h67v-307c55 41 117 73 188 73c109 0 155 -61 155 -176zM321 748l-3 -54c-20 7 -49 13 -73 13c-47 0 -80 -21 -80 -93v-103h145v-56h-145v-455h-67v455h-78v56h78v93
c0 106 47 160 138 160c37 0 68 -8 85 -16z" />
    <glyph glyph-name="f_t" unicode="ft" horiz-adv-x="665" 
d="M638 69l15 -49c-25 -17 -75 -32 -116 -32c-91 0 -136 41 -136 137v330h-236v-455h-67v455h-78v56h78v93c0 106 47 160 138 160c37 0 68 -8 85 -16l-3 -54c-20 7 -49 13 -73 13c-47 0 -80 -21 -80 -93v-103h236v147l67 10v-157h143v-56h-143v-321c0 -58 12 -91 79 -91
c31 0 69 13 91 26z" />
    <glyph glyph-name="f_j" unicode="fj" horiz-adv-x="550" 
d="M337 -223c-24 0 -69 6 -86 16l9 55c22 -8 50 -14 73 -14c43 0 68 23 68 83v538h-236v-455h-67v455h-78v56h78v93c0 106 47 160 138 160c37 0 68 -8 85 -16l-3 -54c-20 7 -49 13 -73 13c-47 0 -80 -21 -80 -93v-103h303v-590c0 -99 -44 -144 -131 -144zM491 688
c0 -34 -20 -53 -54 -53s-54 19 -54 53s20 53 54 53s54 -19 54 -53z" />
    <glyph glyph-name="f_f_j" unicode="ffj" horiz-adv-x="852" 
d="M640 -223c-24 0 -69 6 -86 16l9 55c22 -8 50 -14 73 -14c43 0 68 23 68 83v538h-236v-455h-67v455h-236v-455h-67v455h-78v56h78v93c0 106 47 160 138 160c37 0 68 -8 85 -16l-3 -54c-20 7 -49 13 -73 13c-47 0 -80 -21 -80 -93v-103h236v93c0 106 47 160 138 160
c37 0 68 -8 85 -16l-3 -54c-20 7 -49 13 -73 13c-47 0 -80 -21 -80 -93v-103h303v-590c0 -99 -44 -144 -131 -144zM794 688c0 -34 -20 -53 -54 -53s-54 19 -54 53s20 53 54 53s54 -19 54 -53z" />
    <glyph glyph-name="ffi" unicode="ffi" horiz-adv-x="856" 
d="M771 511v-511h-67v455h-236v-455h-67v455h-236v-455h-67v455h-78v56h78v93c0 106 47 160 138 160c37 0 68 -8 85 -16l-3 -54c-20 7 -49 13 -73 13c-47 0 -80 -21 -80 -93v-103h236v93c0 106 47 160 138 160c37 0 68 -8 85 -16l-3 -54c-20 7 -49 13 -73 13
c-47 0 -80 -21 -80 -93v-103h303zM793 678c0 -34 -20 -53 -54 -53s-54 19 -54 53s20 53 54 53s54 -19 54 -53z" />
    <glyph glyph-name="ffl" unicode="ffl" horiz-adv-x="856" 
d="M624 748l-3 -54c-20 7 -49 13 -73 13c-47 0 -80 -21 -80 -93v-103h145v-56h-145v-455h-67v455h-236v-455h-67v455h-78v56h78v93c0 106 47 160 138 160c37 0 68 -8 85 -16l-3 -54c-20 7 -49 13 -73 13c-47 0 -80 -21 -80 -93v-103h236v93c0 106 47 160 138 160
c37 0 68 -8 85 -16zM771 755v-755h-67v755h67z" />
    <glyph glyph-name="f_f_k" unicode="ffk" horiz-adv-x="1132" 
d="M321 748l-3 -54c-20 7 -49 13 -73 13c-47 0 -80 -21 -80 -93v-103h236v93c0 106 47 160 138 160c37 0 68 -8 85 -16l-3 -54c-20 7 -49 13 -73 13c-47 0 -80 -21 -80 -93v-103h145v-56h-145v-455h-67v455h-236v-455h-67v455h-78v56h78v93c0 106 47 160 138 160
c37 0 68 -8 85 -16zM771 755v-491l240 247h78l-180 -185l193 -326h-73l-168 278l-90 -92v-186h-67v755h67z" />
    <glyph glyph-name="f_f_b" unicode="ffb" horiz-adv-x="1191" 
d="M704 0v755h66v-304c47 39 102 70 181 70c107 0 185 -66 185 -253c0 -199 -100 -280 -216 -280c-60 0 -114 28 -152 56l-5 -44h-59zM321 748l-3 -54c-20 7 -49 13 -73 13c-47 0 -80 -21 -80 -93v-103h236v93c0 106 47 160 138 160c37 0 68 -8 85 -16l-3 -54
c-20 7 -49 13 -73 13c-47 0 -80 -21 -80 -93v-103h145v-56h-145v-455h-67v455h-236v-455h-67v455h-78v56h78v93c0 106 47 160 138 160c37 0 68 -8 85 -16zM771 390v-284c25 -19 81 -61 149 -61c109 0 148 93 148 226c0 140 -43 195 -134 195c-65 0 -130 -42 -163 -76z" />
    <glyph glyph-name="f_f_h" unicode="ffh" horiz-adv-x="1196" 
d="M321 748l-3 -54c-20 7 -49 13 -73 13c-47 0 -80 -21 -80 -93v-103h236v93c0 106 47 160 138 160c37 0 68 -8 85 -16l-3 -54c-20 7 -49 13 -73 13c-47 0 -80 -21 -80 -93v-103h145v-56h-145v-455h-67v455h-236v-455h-67v455h-78v56h78v93c0 106 47 160 138 160
c37 0 68 -8 85 -16zM1114 345v-345h-67v338c0 78 -27 124 -106 124c-67 0 -139 -45 -170 -73v-389h-67v755h67v-307c55 41 117 73 188 73c109 0 155 -61 155 -176z" />
    <glyph glyph-name="f_f_t" unicode="fft" horiz-adv-x="967" 
d="M623 748l-3 -54c-20 7 -49 13 -73 13c-47 0 -80 -21 -80 -93v-103h236v147l67 10v-157h143v-56h-143v-321c0 -58 12 -91 79 -91c31 0 69 13 91 26l15 -49c-25 -17 -75 -32 -116 -32c-91 0 -136 41 -136 137v330h-236v-455h-67v455h-235v-455h-67v455h-78v56h78v93
c0 106 47 160 138 160c37 0 68 -8 85 -16l-3 -54c-20 7 -49 13 -73 13c-47 0 -80 -21 -80 -93v-103h235v93c0 106 47 160 138 160c37 0 68 -8 85 -16z" />
    <glyph glyph-name="f_iacute" unicode="f&#xed;" horiz-adv-x="553" 
d="M468 511v-511h-67v455h-236v-455h-67v455h-78v56h78v93c0 106 47 160 138 160c37 0 68 -8 85 -16l-3 -54c-20 7 -49 13 -73 13c-47 0 -80 -21 -80 -93v-103h303zM574 749l-142 -177l-52 13l106 164h88z" />
    <glyph glyph-name="t_t" unicode="tt" horiz-adv-x="665" 
d="M638 69l15 -49c-25 -17 -75 -32 -116 -32c-91 0 -136 41 -136 137v330h-232v-321c0 -58 12 -91 79 -91c31 0 69 13 91 26l15 -49c-25 -17 -75 -32 -116 -32c-91 0 -136 41 -136 137v330h-80v56h80v147l67 10v-157h232v147l67 10v-157h143v-56h-143v-321
c0 -58 12 -91 79 -91c31 0 69 13 91 26z" />
    <glyph glyph-name=".notdef" horiz-adv-x="500" 
 />
    <glyph glyph-name=".null" horiz-adv-x="0" 
 />
    <glyph glyph-name="CR" horiz-adv-x="500" 
 />
    <glyph glyph-name="space" unicode=" " horiz-adv-x="230" 
 />
    <glyph glyph-name="uni00A0" unicode="&#xa0;" horiz-adv-x="230" 
 />
    <glyph glyph-name="quotesingle" unicode="'" horiz-adv-x="202" 
d="M137 465h-72v259h72v-259z" />
    <glyph glyph-name="quotedbl" unicode="&#x22;" horiz-adv-x="360" 
d="M137 465h-72v259h72v-259zM295 465h-72v259h72v-259z" />
    <glyph glyph-name="numbersign" unicode="#" horiz-adv-x="607" 
d="M389 0h-59l22 146h-135l-22 -146h-59l21 146h-121l13 52h117l25 162h-121l12 53h117l19 130h60l-20 -130h133l19 130h60l-20 -130h121l-11 -53h-118l-23 -162h119l-11 -52h-116zM360 198l23 162h-133l-25 -162h135z" />
    <glyph glyph-name="ampersand" unicode="&#x26;" horiz-adv-x="681" 
d="M465 563c0 -81 -44 -127 -192 -196c41 -71 128 -185 185 -244c40 52 56 127 59 213h60c-2 -92 -23 -186 -77 -253c31 -26 62 -43 96 -43c16 0 32 4 49 12l16 -46c-19 -13 -47 -18 -68 -18c-55 0 -93 22 -134 55c-44 -34 -103 -55 -180 -55c-126 0 -216 79 -216 194
c0 98 49 154 131 200c-20 37 -32 75 -37 114c-2 13 -3 26 -3 40c0 88 69 161 170 161c12 0 24 -1 37 -3c51 -9 104 -41 104 -131zM285 45c55 0 98 13 132 37c-91 89 -156 186 -199 258c-40 -23 -70 -52 -83 -99c-4 -16 -6 -33 -6 -53c0 -72 49 -143 156 -143zM220 540
c0 -42 10 -84 31 -129l41 18c77 33 111 76 111 131c0 43 -28 79 -84 79c-58 0 -99 -34 -99 -99z" />
    <glyph glyph-name="asterisk" unicode="*" horiz-adv-x="469" 
d="M251 755l17 -145l133 34l10 -30l-124 -62l82 -126l-25 -19l-110 104l-108 -106l-25 20l81 126l-126 62l11 30l135 -33l19 145h30z" />
    <glyph glyph-name="comma" unicode="," horiz-adv-x="208" 
d="M22 -117l53 210h79l-79 -218z" />
    <glyph glyph-name="hyphen" unicode="-" horiz-adv-x="317" 
d="M291 262h-271v67h271v-67z" />
    <glyph glyph-name="period" unicode="." horiz-adv-x="216" 
d="M166 45c0 -38 -21 -57 -58 -57s-58 19 -58 57s21 57 58 57s58 -19 58 -57z" />
    <glyph glyph-name="colon" unicode=":" horiz-adv-x="216" 
d="M166 439c0 -38 -21 -57 -58 -57s-58 19 -58 57s21 57 58 57s58 -19 58 -57zM166 45c0 -38 -21 -57 -58 -57s-58 19 -58 57s21 57 58 57s58 -19 58 -57z" />
    <glyph glyph-name="semicolon" unicode=";" horiz-adv-x="208" 
d="M11 -117l53 210h79l-79 -218zM176 439c0 -38 -21 -57 -58 -57s-58 19 -58 57s21 57 58 57s58 -19 58 -57z" />
    <glyph glyph-name="question" unicode="?" horiz-adv-x="493" 
d="M208 182h-63v177c113 10 215 44 215 171c0 110 -62 136 -137 136c-71 0 -128 -21 -150 -119l-60 12c15 78 68 165 214 165c108 0 201 -45 201 -188c0 -144 -100 -202 -220 -224v-130zM233 45c0 -38 -21 -57 -58 -57s-58 19 -58 57s21 57 58 57s58 -19 58 -57z" />
    <glyph glyph-name="exclam" unicode="!" horiz-adv-x="256" 
d="M151 183h-45l-17 541h77zM187 45c0 -38 -21 -57 -58 -57s-58 19 -58 57s21 57 58 57s58 -19 58 -57z" />
    <glyph glyph-name="exclamdown" unicode="&#xa1;" horiz-adv-x="256" 
d="M115 326h45l17 -541h-77zM79 464c0 38 21 57 58 57s58 -19 58 -57s-21 -57 -58 -57s-58 19 -58 57z" />
    <glyph glyph-name="questiondown" unicode="&#xbf;" horiz-adv-x="457" 
d="M262 327h63v-177c-113 -10 -215 -44 -215 -171c0 -110 62 -136 137 -136c71 0 128 21 150 119l60 -12c-15 -78 -68 -165 -214 -165c-108 0 -201 45 -201 188c0 144 100 202 220 224v130zM237 464c0 38 21 57 58 57s58 -19 58 -57s-21 -57 -58 -57s-58 19 -58 57z" />
    <glyph glyph-name="at" unicode="@" horiz-adv-x="837" 
d="M642 -41l38 -42c-59 -59 -155 -85 -255 -85c-211 0 -375 120 -375 359c0 228 156 377 386 377c198 0 351 -104 351 -318c0 -175 -68 -252 -168 -252c-54 0 -93 23 -109 56c-25 -34 -68 -62 -123 -62c-113 0 -148 85 -148 186c0 126 67 219 173 219c38 0 69 -13 94 -36
l4 30h55v-250c0 -53 1 -93 57 -93c54 0 100 53 100 187c0 196 -109 277 -292 277c-192 0 -313 -131 -313 -319c0 -210 137 -304 316 -304c89 0 164 27 209 70zM503 119v190c-22 19 -47 34 -86 34c-61 0 -111 -48 -111 -163c0 -77 22 -134 88 -134c48 0 88 30 109 73z" />
    <glyph glyph-name="A" unicode="A" horiz-adv-x="678" 
d="M291 724h92l250 -724h-74l-78 233h-292l-78 -233h-66zM462 292l-126 377v0l-127 -377h253z" />
    <glyph glyph-name="B" unicode="B" horiz-adv-x="634" 
d="M318 0h-213v724h238c171 0 217 -78 217 -177c0 -104 -69 -154 -151 -170v-2c120 -16 175 -81 175 -180c0 -148 -109 -195 -266 -195zM171 59h142c113 0 201 17 201 138c0 130 -108 144 -234 144h-109v-282zM171 399h124c82 0 195 26 195 141c0 118 -69 126 -215 126h-104
v-267z" />
    <glyph glyph-name="C" unicode="C" horiz-adv-x="691" 
d="M367 -12c-223 0 -312 148 -312 361c0 251 134 388 332 388c148 0 250 -74 263 -236l-63 -6c-17 117 -71 184 -200 184c-163 0 -264 -110 -264 -322c0 -221 93 -313 249 -313c121 0 187 51 213 164l59 -13c-27 -154 -152 -207 -277 -207z" />
    <glyph glyph-name="D" unicode="D" horiz-adv-x="729" 
d="M298 0h-193v724h210c251 0 359 -135 359 -351c0 -222 -117 -373 -376 -373zM172 58h131c197 0 301 110 301 300c0 239 -112 308 -295 308h-137v-608z" />
    <glyph glyph-name="E" unicode="E" horiz-adv-x="572" 
d="M172 338v-280h352v-58h-419v724h409v-58h-342v-269h320v-59h-320z" />
    <glyph glyph-name="F" unicode="F" horiz-adv-x="545" 
d="M172 325v-325h-67v724h409v-58h-342v-282h317v-59h-317z" />
    <glyph glyph-name="G" unicode="G" horiz-adv-x="735" 
d="M598 0l-11 102c-24 -61 -116 -114 -222 -114c-218 0 -310 150 -310 366c0 251 131 383 334 383c149 0 248 -67 261 -236l-63 -7c-14 136 -84 186 -201 186c-163 0 -263 -117 -263 -320c0 -249 115 -317 253 -317c142 0 211 106 211 198v75h-217v59h278v-375h-50z" />
    <glyph glyph-name="H" unicode="H" horiz-adv-x="726" 
d="M621 724v-724h-67v343h-382v-343h-67v724h67v-322h382v322h67z" />
    <glyph glyph-name="I" unicode="I" horiz-adv-x="277" 
d="M172 724v-724h-67v724h67z" />
    <glyph glyph-name="J" unicode="J" horiz-adv-x="487" 
d="M325 171v553h67v-551c0 -144 -75 -185 -189 -185c-115 0 -168 52 -173 154l64 11c8 -66 26 -108 113 -108c65 0 118 16 118 126z" />
    <glyph glyph-name="K" unicode="K" horiz-adv-x="632" 
d="M172 724v-371l343 371h79l-293 -315l314 -409h-79l-280 361l-84 -90v-271h-67v724h67z" />
    <glyph glyph-name="L" unicode="L" horiz-adv-x="545" 
d="M172 724v-666h332v-58h-399v724h67z" />
    <glyph glyph-name="M" unicode="M" horiz-adv-x="890" 
d="M785 724v-724h-64v652v0l-238 -652h-79l-236 653v0v-653h-63v724h104l237 -657v0l237 657h102z" />
    <glyph glyph-name="N" unicode="N" horiz-adv-x="745" 
d="M640 0h-85l-386 652v-652h-64v724h96l376 -643v643h63v-724z" />
    <glyph glyph-name="O" unicode="O" horiz-adv-x="759" 
d="M375 -12c-218 0 -320 158 -320 375c0 216 119 374 334 374c213 0 315 -158 315 -359c0 -236 -114 -390 -329 -390zM379 47c149 0 256 106 256 321c0 200 -100 310 -248 310c-150 0 -262 -111 -262 -315c0 -205 104 -316 254 -316z" />
    <glyph glyph-name="P" unicode="P" horiz-adv-x="614" 
d="M171 276v-276h-66v724h221c185 0 241 -98 241 -213c0 -171 -105 -235 -274 -235h-122zM171 335h120c115 0 206 25 206 174c0 132 -75 157 -236 157h-90v-331z" />
    <glyph glyph-name="Q" unicode="Q" horiz-adv-x="759" 
d="M375 -12c-218 0 -320 158 -320 375c0 216 119 374 334 374c213 0 315 -158 315 -359c0 -129 -34 -233 -100 -301l92 -100l-42 -38l-94 100c-50 -33 -111 -51 -185 -51zM379 47c52 0 99 13 138 39l-136 150l44 40l136 -151v0c46 53 74 134 74 243c0 200 -100 310 -248 310
c-150 0 -262 -111 -262 -315c0 -205 104 -316 254 -316z" />
    <glyph glyph-name="R" unicode="R" horiz-adv-x="633" 
d="M425 329l183 -329h-73l-174 312h-190v-312h-66v724h234c180 0 232 -98 232 -194c0 -109 -58 -174 -146 -201zM171 370h157c105 0 173 36 173 159c0 112 -75 137 -188 137h-142v-296z" />
    <glyph glyph-name="S" unicode="S" horiz-adv-x="591" 
d="M307 677c-125 0 -168 -57 -168 -129c0 -209 400 -96 400 -355c0 -148 -117 -205 -247 -205c-160 0 -236 70 -257 201l67 10c19 -81 59 -153 190 -153c83 0 176 29 176 138c0 220 -400 88 -400 361c0 117 99 192 236 192c126 0 214 -54 231 -201l-64 -8
c-14 70 -42 149 -164 149z" />
    <glyph glyph-name="T" unicode="T" horiz-adv-x="538" 
d="M303 0h-67v666h-221v58h508v-58h-220v-666z" />
    <glyph glyph-name="U" unicode="U" horiz-adv-x="716" 
d="M359 47c122 0 190 47 190 191v486h67v-489c0 -166 -94 -247 -263 -247c-180 0 -253 88 -253 248v488h67v-484c0 -143 73 -193 192 -193z" />
    <glyph glyph-name="V" unicode="V" horiz-adv-x="604" 
d="M355 0h-92l-248 724h74l221 -665v0l211 665h68z" />
    <glyph glyph-name="W" unicode="W" horiz-adv-x="858" 
d="M686 0h-85l-169 640v0l-174 -640h-78l-160 724h71l132 -644v0l172 644h77l171 -654v0l129 654h66z" />
    <glyph glyph-name="X" unicode="X" horiz-adv-x="614" 
d="M571 724l-228 -351l251 -373h-75l-217 323l-208 -323h-74l240 368l-228 356h75l194 -306l198 306h72z" />
    <glyph glyph-name="Y" unicode="Y" horiz-adv-x="550" 
d="M313 287v-287h-67v284l-246 440h74l207 -373v0l201 373h68z" />
    <glyph glyph-name="Z" unicode="Z" horiz-adv-x="586" 
d="M524 674l-404 -616h421v-58h-504v48l404 618h-392v58h475v-50z" />
    <glyph glyph-name="a" unicode="a" horiz-adv-x="535" 
d="M442 346v-264c0 -28 5 -40 31 -40c9 0 18 2 31 6l4 -43c-20 -10 -38 -14 -61 -14c-47 0 -64 29 -66 64c-38 -40 -98 -67 -170 -67c-130 0 -151 89 -151 138c0 145 132 172 248 172c29 0 47 -1 67 -2v51c0 78 -22 120 -111 120c-81 0 -109 -32 -120 -92l-63 11
c16 95 78 135 187 135c122 0 174 -48 174 -175zM376 112v130c-16 2 -34 3 -63 3c-70 0 -183 -5 -183 -109c0 -50 18 -94 97 -94c59 0 117 33 149 70z" />
    <glyph glyph-name="b" unicode="b" horiz-adv-x="577" 
d="M149 0h-59v755h66v-304c47 39 102 70 181 70c107 0 185 -66 185 -253c0 -199 -100 -280 -216 -280c-60 0 -114 28 -152 56v0zM157 390v-284c25 -19 81 -61 149 -61c109 0 148 93 148 226c0 140 -43 195 -134 195c-65 0 -130 -42 -163 -76z" />
    <glyph glyph-name="c" unicode="c" horiz-adv-x="536" 
d="M285 -12c-168 0 -230 110 -230 264c0 179 90 269 242 269c101 0 180 -57 186 -171l-67 -9c-9 82 -47 122 -125 122c-80 0 -166 -44 -166 -202c0 -168 82 -213 164 -213c74 0 121 32 135 113l63 -13c-17 -114 -107 -160 -202 -160z" />
    <glyph glyph-name="d" unicode="d" horiz-adv-x="572" 
d="M487 755v-755h-57l-6 57v0c-47 -39 -100 -69 -176 -69c-115 0 -193 74 -193 261c0 199 100 272 216 272c60 0 111 -20 149 -48v282h67zM420 119v292c-25 19 -81 53 -149 53c-109 0 -148 -85 -148 -218c0 -140 43 -203 141 -203c62 0 121 38 156 76z" />
    <glyph glyph-name="e" unicode="e" horiz-adv-x="546" 
d="M285 -12c-178 0 -230 126 -230 267c0 187 108 266 237 266c140 0 197 -95 197 -217c-1 -20 -2 -41 -5 -62h-358c4 -153 75 -194 164 -194c80 0 113 33 129 97l63 -12c-22 -101 -103 -145 -197 -145zM127 296h292c2 105 -38 167 -133 167c-78 0 -154 -48 -159 -167z" />
    <glyph glyph-name="f" unicode="f" horiz-adv-x="311" 
d="M321 748l-3 -54c-20 7 -49 13 -73 13c-47 0 -80 -21 -80 -93v-103h145v-56h-145v-455h-67v455h-78v56h78v93c0 106 47 160 138 160c37 0 68 -8 85 -16z" />
    <glyph glyph-name="g" unicode="g" horiz-adv-x="549" 
d="M267 521c65 0 119 -14 154 -54c13 31 38 61 74 61c15 0 29 -2 43 -7v-60c-32 1 -76 -5 -101 -13c23 -26 36 -68 36 -109c0 -116 -89 -183 -201 -183c-33 0 -69 5 -93 14c-17 -15 -39 -34 -39 -58c0 -23 12 -38 74 -41l142 -8c104 -6 163 -33 163 -132
c0 -125 -139 -157 -259 -157c-192 0 -223 73 -223 129c0 63 47 101 83 126v0c-30 9 -50 31 -50 65c0 41 30 68 63 94c-35 18 -61 54 -72 99c-4 15 -6 30 -6 47c0 114 85 187 212 187zM406 338c0 87 -50 128 -136 128c-80 0 -145 -37 -145 -126c0 -74 42 -127 143 -127
c84 0 138 48 138 125zM449 -67c0 38 -19 66 -95 70l-182 10c-38 -27 -66 -57 -66 -98c0 -44 30 -83 165 -83c121 0 178 37 178 101z" />
    <glyph glyph-name="h" unicode="h" horiz-adv-x="582" 
d="M500 345v-345h-67v338c0 78 -27 124 -106 124c-67 0 -139 -45 -170 -73v-389h-67v755h67v-307c55 41 117 73 188 73c109 0 155 -61 155 -176z" />
    <glyph glyph-name="i" unicode="i" horiz-adv-x="242" 
d="M157 511v-511h-67v511h67zM179 688c0 -34 -20 -53 -54 -53s-54 19 -54 53s20 53 54 53s54 -19 54 -53z" />
    <glyph glyph-name="j" unicode="j" horiz-adv-x="239" 
d="M26 -223c-24 0 -69 6 -86 16l9 55c22 -8 50 -14 73 -14c43 0 68 23 68 83v594h67v-590c0 -99 -44 -144 -131 -144zM180 688c0 -34 -20 -53 -54 -53s-54 19 -54 53s20 53 54 53s54 -19 54 -53z" />
    <glyph glyph-name="j.calt" horiz-adv-x="239" 
d="M38 -223c-24 0 -47 5 -58 9l6 52c15 -4 29 -6 41 -6c41 0 63 23 63 85v594h67v-590c0 -99 -44 -144 -119 -144zM180 688c0 -34 -20 -53 -54 -53s-54 19 -54 53s20 53 54 53s54 -19 54 -53z" />
    <glyph glyph-name="k" unicode="k" horiz-adv-x="518" 
d="M157 755v-491l240 247h78l-180 -185l193 -326h-73l-168 278l-90 -92v-186h-67v755h67z" />
    <glyph glyph-name="l" unicode="l" horiz-adv-x="242" 
d="M157 755v-755h-67v755h67z" />
    <glyph glyph-name="m" unicode="m" horiz-adv-x="871" 
d="M157 389v-389h-67v511h59l4 -64c55 41 111 74 182 74c70 0 109 -26 127 -75c55 41 114 75 185 75c109 0 142 -61 142 -176v-345h-67v338c0 78 -13 124 -89 124c-58 0 -125 -40 -159 -68c2 -15 3 -32 3 -49v-345h-67v338c0 78 -13 124 -89 124c-61 0 -133 -45 -164 -73z
" />
    <glyph glyph-name="n" unicode="n" horiz-adv-x="582" 
d="M500 345v-345h-67v338c0 78 -27 124 -106 124c-67 0 -139 -45 -170 -73v-389h-67v511h59l4 -64c55 41 121 74 192 74c109 0 155 -61 155 -176z" />
    <glyph glyph-name="o" unicode="o" horiz-adv-x="574" 
d="M285 -12c-173 0 -230 115 -230 265c0 166 86 268 243 268c156 0 221 -103 221 -255c0 -168 -67 -278 -234 -278zM290 45c98 0 159 60 159 215c0 152 -57 203 -155 203c-101 0 -170 -62 -170 -206c0 -143 55 -212 166 -212z" />
    <glyph glyph-name="p" unicode="p" horiz-adv-x="577" 
d="M90 -212v723h59l4 -62c47 39 105 72 184 72c107 0 185 -66 185 -253c0 -199 -100 -280 -216 -280c-60 0 -113 28 -151 56v-256h-65zM157 390v-284c25 -19 81 -61 149 -61c109 0 148 93 148 226c0 140 -43 195 -134 195c-65 0 -130 -42 -163 -76z" />
    <glyph glyph-name="q" unicode="q" horiz-adv-x="569" 
d="M487 511v-723h-64v269c-47 -39 -99 -69 -175 -69c-115 0 -193 74 -193 261c0 199 100 272 216 272c60 0 111 -26 149 -54l5 44h62zM420 119v286c-25 19 -81 59 -149 59c-109 0 -148 -85 -148 -218c0 -140 43 -203 141 -203c62 0 121 39 156 76z" />
    <glyph glyph-name="r" unicode="r" horiz-adv-x="352" 
d="M341 521v-70c-63 11 -142 -18 -184 -59v-392h-67v511h55l6 -71c49 66 104 82 174 81h16z" />
    <glyph glyph-name="s" unicode="s" horiz-adv-x="481" 
d="M245 521c123 0 167 -61 179 -154l-66 -8c-12 67 -31 105 -115 105c-89 0 -110 -39 -110 -83c0 -60 45 -74 122 -93c94 -23 178 -43 178 -154c0 -88 -66 -146 -189 -146c-112 0 -183 43 -198 155l64 11c14 -61 38 -108 137 -108c67 0 118 20 118 85c0 60 -42 72 -116 91
c-85 22 -185 35 -185 152c0 99 85 147 181 147z" />
    <glyph glyph-name="t" unicode="t" horiz-adv-x="366" 
d="M339 69l15 -49c-25 -17 -75 -32 -116 -32c-91 0 -136 41 -136 137v330h-80v56h80v147l67 10v-157h143v-56h-143v-321c0 -58 12 -91 79 -91c31 0 69 13 91 26z" />
    <glyph glyph-name="u" unicode="u" horiz-adv-x="582" 
d="M89 166v345h67v-338c0 -78 24 -124 103 -124c67 0 139 45 170 73v389h67v-511h-59l-4 64c-55 -41 -121 -74 -192 -74c-109 0 -152 61 -152 176z" />
    <glyph glyph-name="v" unicode="v" horiz-adv-x="492" 
d="M286 0h-75l-201 511h73l167 -445v0l165 445h67z" />
    <glyph glyph-name="w" unicode="w" horiz-adv-x="737" 
d="M254 0h-80l-164 511h69l136 -443v0l121 443h73l119 -441v0l135 441h64l-161 -511h-81l-115 436v0z" />
    <glyph glyph-name="x" unicode="x" horiz-adv-x="476" 
d="M446 511l-175 -243l185 -268h-74l-149 221l-141 -221h-72l174 267l-172 244h73l138 -199l144 199h69z" />
    <glyph glyph-name="y" unicode="y" horiz-adv-x="469" 
d="M201 -4l-188 515h72l150 -432v0l156 432h68c-63 -168 -140 -370 -206 -541c-54 -146 -91 -193 -180 -193c-37 0 -73 10 -92 18l10 52c16 -5 55 -15 84 -15c48 0 89 35 126 164z" />
    <glyph glyph-name="z" unicode="z" horiz-adv-x="456" 
d="M419 463l-309 -407h319v-56h-397v47l308 408h-303v56h382v-48z" />
    <glyph glyph-name="bracketleft" unicode="[" horiz-adv-x="253" 
d="M213 -143h-145v867h145v-44l-83 -8v-761l83 -9v-45z" />
    <glyph glyph-name="bracketright" unicode="]" horiz-adv-x="253" 
d="M185 -143h-145v45l83 9v761l-83 8v44h145v-867z" />
    <glyph glyph-name="parenleft" unicode="(" horiz-adv-x="299" 
d="M268 -153l-67 1c-71 111 -142 252 -142 432c0 179 77 335 151 444h69c-96 -154 -152 -294 -152 -443c0 -177 60 -302 141 -434z" />
    <glyph glyph-name="parenright" unicode=")" horiz-adv-x="299" 
d="M98 -152l-67 -1c81 132 141 257 141 434c0 149 -56 289 -152 443h69c74 -109 151 -265 151 -444c0 -180 -71 -321 -142 -432z" />
    <glyph glyph-name="braceleft" unicode="{" horiz-adv-x="293" 
d="M263 -92v-53h-45c-94 0 -130 44 -130 109c0 66 13 145 13 205c0 71 -33 92 -79 92h-17v55h15c51 0 81 27 81 92c0 60 -13 165 -13 220c0 72 44 109 129 109h46v-56h-45c-47 -1 -64 -19 -64 -57c0 -59 12 -150 12 -218c0 -81 -35 -103 -70 -117c35 -14 70 -37 70 -118
c0 -68 -12 -142 -12 -196c0 -42 17 -67 77 -67h32z" />
    <glyph glyph-name="braceright" unicode="}" horiz-adv-x="293" 
d="M30 684v53h45c94 0 130 -44 130 -109c0 -66 -13 -145 -13 -205c0 -71 33 -92 79 -92h17v-55h-15c-51 0 -81 -27 -81 -92c0 -60 13 -165 13 -220c0 -72 -44 -109 -129 -109h-46v56h45c47 1 64 19 64 57c0 59 -12 150 -12 218c0 81 35 103 70 117c-35 14 -70 37 -70 118
c0 68 12 142 12 196c0 42 -17 67 -77 67h-32z" />
    <glyph glyph-name="backslash" unicode="\" horiz-adv-x="353" 
d="M347 -92h-61l-280 847h60z" />
    <glyph glyph-name="slash" unicode="/" horiz-adv-x="353" 
d="M67 -92h-61l281 847h60z" />
    <glyph glyph-name="brokenbar" unicode="&#xa6;" horiz-adv-x="280" 
d="M170 -143h-60v388h60v-388zM170 410h-60v345h60v-345z" />
    <glyph glyph-name="bar" unicode="|" horiz-adv-x="280" 
d="M170 -143h-60v898h60v-898z" />
    <glyph glyph-name="asciicircum" unicode="^" horiz-adv-x="526" 
d="M496 299h-68l-168 303l-165 -303h-65l197 365h69z" />
    <glyph glyph-name="underscore" unicode="_" horiz-adv-x="500" 
d="M500 -181h-500v52h500v-52z" />
    <glyph glyph-name="asciitilde" unicode="~" horiz-adv-x="484" 
d="M122 406c62 0 187 -47 232 -47c26 0 41 7 41 55l47 -2c10 -82 -35 -112 -82 -112c-60 0 -188 47 -235 47c-21 0 -39 -11 -37 -57l-46 2c-10 82 36 114 80 114z" />
    <glyph glyph-name="zero" unicode="0" horiz-adv-x="553" 
d="M274 -12c-196 0 -229 169 -229 371c0 203 43 378 239 378c195 0 224 -175 224 -364c0 -214 -39 -385 -234 -385zM277 44c140 0 162 141 162 322c0 177 -17 312 -157 312c-141 0 -168 -136 -168 -322c0 -168 22 -312 163 -312z" />
    <glyph glyph-name="one" unicode="1" horiz-adv-x="401" 
d="M271 0h-65v624c-35 -21 -123 -35 -156 -35l-7 51c95 8 152 31 197 84h31v-724z" />
    <glyph glyph-name="two" unicode="2" horiz-adv-x="515" 
d="M263 737c110 0 190 -52 190 -177c0 -113 -63 -197 -158 -310l-159 -192v0h327v-58h-403v52l175 217c105 129 149 187 149 287c0 90 -51 125 -128 125c-106 0 -131 -59 -144 -131l-60 12c20 126 99 175 211 175z" />
    <glyph glyph-name="three" unicode="3" horiz-adv-x="535" 
d="M44 148l65 12c12 -64 33 -114 139 -114c80 0 151 45 151 157c0 115 -69 152 -166 152h-62v58h46c107 0 172 60 172 146c0 66 -30 120 -126 120c-94 0 -120 -40 -139 -109l-62 14c23 114 105 153 209 153c123 0 186 -70 186 -169c0 -115 -80 -163 -143 -177v-2
c94 -15 155 -71 155 -186c0 -127 -86 -215 -223 -215c-113 0 -189 49 -202 160z" />
    <glyph glyph-name="four" unicode="4" horiz-adv-x="535" 
d="M423 0h-65v186h-338v49l318 489h86v-481h87v-57h-88v-186zM91 243h268v415z" />
    <glyph glyph-name="five" unicode="5" horiz-adv-x="534" 
d="M74 363l28 361h332v-58h-276l-22 -256c34 27 78 49 142 49c96 0 200 -47 200 -221c0 -144 -84 -250 -235 -250c-100 0 -191 48 -209 161l65 16c13 -57 42 -117 145 -117c78 0 161 50 161 189c0 114 -61 163 -146 163c-54 0 -99 -22 -138 -59z" />
    <glyph glyph-name="six" unicode="6" horiz-adv-x="560" 
d="M499 589l-60 -16c-21 87 -64 107 -121 107c-151 0 -184 -202 -186 -331c34 42 108 91 187 91c132 0 190 -91 190 -208c0 -152 -84 -244 -218 -244c-184 0 -224 165 -224 348c0 159 45 401 259 401c84 0 152 -40 173 -148zM136 286c6 -112 25 -243 158 -243
c82 0 148 56 148 183c0 103 -45 156 -126 156c-75 0 -141 -48 -180 -96z" />
    <glyph glyph-name="seven" unicode="7" horiz-adv-x="505" 
d="M183 0h-72l302 666h-376v58h448v-50z" />
    <glyph glyph-name="eight" unicode="8" horiz-adv-x="528" 
d="M326 375c81 -35 164 -77 164 -196c0 -112 -89 -191 -228 -191c-155 0 -220 80 -220 184c0 106 76 159 160 196c-75 31 -137 98 -137 183c0 123 94 186 214 186c123 0 200 -61 200 -165c0 -89 -66 -154 -153 -197zM260 342c-92 -40 -151 -80 -151 -168
c0 -73 45 -131 156 -131c116 0 159 72 159 137c0 102 -94 136 -164 162zM269 398c81 40 144 99 144 173c0 70 -46 113 -140 113c-88 0 -142 -48 -142 -124c0 -84 70 -136 138 -162z" />
    <glyph glyph-name="nine" unicode="9" horiz-adv-x="560" 
d="M53 139l62 16c21 -87 70 -112 138 -112c140 0 176 151 180 324c-34 -42 -109 -91 -188 -91c-132 0 -190 95 -190 217c0 152 84 244 218 244c184 0 224 -165 224 -348c0 -199 -41 -401 -250 -401c-97 0 -173 43 -194 151zM428 430c-6 112 -25 252 -158 252
c-82 0 -148 -56 -148 -188c0 -103 44 -160 131 -160c69 0 134 45 175 96z" />
    <glyph glyph-name="dollar" unicode="$" horiz-adv-x="521" 
d="M239 -80v87c-107 4 -186 47 -202 187l63 14c17 -95 46 -140 139 -146v269c-88 24 -177 53 -177 188c0 118 77 179 177 189v84h56v-83c97 -8 154 -62 170 -174l-64 -11c-13 65 -36 114 -106 125v-269c99 -26 176 -67 176 -188c0 -106 -66 -172 -176 -184v-88h-56zM130 524
c0 -62 22 -102 109 -130v255c-87 -10 -109 -70 -109 -125zM402 191c0 76 -48 104 -107 124v-251c62 10 107 48 107 127z" />
    <glyph glyph-name="Euro" unicode="&#x20ac;" horiz-adv-x="599" 
d="M369 257h-213c17 -139 76 -211 196 -211c93 0 143 40 164 139l58 -15c-21 -135 -125 -182 -227 -182c-123 0 -236 56 -260 269h-70l9 52h57c-1 13 -1 26 -1 40c0 16 0 32 1 47h-51l9 52h47c27 223 150 289 277 289c120 0 203 -64 214 -207l-64 -6
c-14 109 -51 154 -153 154c-137 0 -191 -96 -206 -230h238l-10 -52h-232c-1 -15 -1 -29 -1 -44s0 -29 1 -43h227z" />
    <glyph glyph-name="cent" unicode="&#xa2;" horiz-adv-x="507" 
d="M252 695h55v-99c86 -6 151 -59 156 -158l-62 -9c-7 70 -37 102 -94 108v-376c60 7 88 37 102 101l58 -12c-15 -95 -82 -139 -160 -148v-102h-55v102c-129 12 -187 110 -187 245c0 149 75 232 187 247v101zM135 355c0 -96 27 -179 117 -193v373
c-63 -11 -117 -56 -117 -180z" />
    <glyph glyph-name="sterling" unicode="&#xa3;" horiz-adv-x="548" 
d="M25 60h53c59 54 88 110 88 169c0 32 -9 65 -26 98h-107v56h82c-18 33 -47 86 -47 152c0 119 93 202 219 202c121 0 189 -52 203 -182l-61 -6c-11 88 -43 130 -141 130c-87 0 -153 -45 -153 -138c0 -63 29 -120 47 -158h238v-56h-214c15 -34 22 -67 22 -99
c0 -62 -27 -119 -77 -168h197c75 0 101 32 115 113l62 -13c-15 -114 -74 -160 -178 -160h-322v60z" />
    <glyph glyph-name="yen" unicode="&#xa5;" horiz-adv-x="512" 
d="M430 247h-135v-247h-67v247h-135v53h135v71h-135v53h102l-168 300h75l161 -295l155 295h69l-162 -300h105v-53h-135v-71h135v-53z" />
    <glyph glyph-name="florin" unicode="&#x192;" horiz-adv-x="518" 
d="M540 641l-60 -24c-15 39 -37 63 -77 63c-44 0 -77 -21 -91 -93l-27 -143h145l-11 -56h-145l-66 -322c-22 -106 -70 -148 -155 -148c-61 0 -116 27 -138 96l60 24c15 -39 37 -63 82 -63c42 0 72 20 86 93l64 320h-78l11 56h78l29 145c22 106 73 148 158 148
c61 0 110 -27 135 -96z" />
    <glyph glyph-name="afii61352" unicode="&#x2116;" horiz-adv-x="1061" 
d="M587 0h-85l-326 652v-652h-64v724h96l316 -643v643h63v-724zM686 281v57h283v-57h-283zM822 388c-113 0 -159 72 -159 173s53 170 165 170s156 -69 156 -165c0 -108 -50 -178 -162 -178zM824 437c65 0 99 40 99 124c0 81 -31 119 -96 119c-66 0 -104 -38 -104 -119
c0 -82 35 -124 101 -124z" />
    <glyph glyph-name="zero.osf" horiz-adv-x="603" 
d="M299 -12c-196 0 -244 146 -244 294c0 153 62 299 254 299c188 0 239 -136 239 -285c0 -155 -54 -308 -249 -308zM302 44c130 0 177 105 177 245c0 137 -42 233 -172 233c-131 0 -183 -97 -183 -246c0 -129 47 -232 178 -232z" />
    <glyph glyph-name="one.osf" horiz-adv-x="393" 
d="M271 0h-65v472c-33 -22 -121 -34 -154 -34l-7 51c92 7 150 30 195 83h31v-572z" />
    <glyph glyph-name="two.osf" horiz-adv-x="515" 
d="M265 581c108 0 181 -52 181 -166c0 -106 -62 -168 -170 -252l-128 -105v0h307v-58h-393v52l149 127c116 98 169 143 169 232c0 80 -44 114 -120 114c-108 0 -133 -59 -146 -131l-60 12c20 126 99 175 211 175z" />
    <glyph glyph-name="three.osf" horiz-adv-x="506" 
d="M28 77l65 12c12 -64 33 -114 139 -114c71 0 139 27 139 126c0 90 -60 129 -146 129h-70v56h46c98 0 165 60 165 135c0 51 -23 102 -119 102c-94 0 -120 -40 -139 -109l-62 14c23 114 103 153 205 153c117 0 183 -60 183 -154c0 -96 -67 -140 -136 -161v-2
c87 -14 143 -63 143 -164c0 -113 -78 -183 -211 -183c-113 0 -189 49 -202 160z" />
    <glyph glyph-name="four.osf" horiz-adv-x="524" 
d="M412 -67h-65v151h-328v49l308 439h86v-431h87v-57h-88v-151zM90 141h258v365z" />
    <glyph glyph-name="five.osf" horiz-adv-x="518" 
d="M68 237l23 329h332v-59h-274l-21 -223c34 25 80 49 144 49c96 0 186 -57 186 -195c0 -122 -71 -221 -218 -221c-100 0 -191 48 -209 161l65 16c13 -57 42 -117 145 -117c75 0 146 38 146 159c0 84 -49 138 -134 138c-54 0 -99 -22 -138 -59z" />
    <glyph glyph-name="six.osf" horiz-adv-x="540" 
d="M487 498l-60 -16c-7 29 -16 50 -28 66c-24 32 -57 41 -99 41c-145 0 -173 -149 -175 -281c34 42 103 92 182 92c125 0 181 -91 181 -196c0 -127 -75 -216 -215 -216c-178 0 -213 166 -213 324c0 134 40 334 249 334c89 0 157 -40 178 -148zM129 246
c2 -67 20 -203 153 -203c82 0 139 49 139 155c0 91 -43 144 -123 144c-69 0 -128 -45 -169 -96z" />
    <glyph glyph-name="seven.osf" horiz-adv-x="498" 
d="M170 -67h-72l300 574h-358v59h428v-54z" />
    <glyph glyph-name="eight.osf" horiz-adv-x="514" 
d="M317 335c81 -35 159 -78 159 -178c0 -112 -93 -169 -223 -169c-141 0 -215 60 -215 159c0 93 62 140 155 181c-75 31 -136 80 -136 159c0 101 90 159 213 159s193 -56 193 -145c0 -79 -53 -122 -146 -166zM251 302c-92 -40 -146 -79 -146 -152c0 -69 55 -107 151 -107
c107 0 154 50 154 115c0 81 -89 118 -159 144zM260 358c81 40 139 78 139 142c0 57 -41 93 -135 93c-90 0 -143 -35 -143 -104c0 -71 71 -105 139 -131z" />
    <glyph glyph-name="nine.osf" horiz-adv-x="550" 
d="M55 65l60 16c21 -85 75 -108 134 -108c156 0 171 153 173 285c-34 -48 -104 -87 -181 -87c-124 0 -181 95 -181 200c0 127 76 216 213 216c176 0 214 -166 214 -324c0 -148 -34 -346 -243 -346c-90 0 -168 40 -189 148zM418 323c-2 67 -23 209 -154 209
c-82 0 -137 -49 -137 -155c0 -91 41 -150 121 -150c69 0 129 39 170 96z" />
    <glyph glyph-name="dollar.osf" horiz-adv-x="521" 
d="M234 -45v46c-105 4 -181 42 -197 167l62 13c17 -86 44 -121 135 -126v232c-103 25 -171 62 -171 167s74 159 172 168v75h55v-74c95 -7 150 -55 166 -155l-63 -10c-14 71 -48 100 -103 107v-227c90 -21 170 -56 170 -163c0 -94 -58 -161 -170 -172v-83h-55v35h-1zM128 462
c0 -55 29 -88 106 -111v214c-69 -7 -106 -48 -106 -103zM392 169c0 57 -33 86 -102 105v-217c69 9 102 52 102 112z" />
    <glyph glyph-name="Euro.osf" horiz-adv-x="589" 
d="M17 217l9 52h57c-1 13 -1 26 -1 40s0 28 1 42h-51l10 52h48c27 151 122 242 262 242c121 0 206 -64 217 -207l-62 -6c-14 103 -48 153 -158 153c-86 0 -168 -41 -191 -182h220l-9 -52h-217c-1 -13 -1 -26 -1 -39c0 -15 0 -29 1 -43h211l-9 -52h-196
c18 -109 72 -171 184 -171c95 0 143 40 164 139l58 -15c-21 -135 -124 -182 -227 -182c-160 0 -229 99 -249 229h-71z" />
    <glyph glyph-name="cent.osf" horiz-adv-x="489" 
d="M247 628h55v-99c86 -6 151 -59 156 -158l-62 -9c-7 70 -37 102 -94 108v-376c60 7 88 37 102 101l58 -12c-15 -95 -82 -139 -160 -148v-102h-55v102c-129 12 -187 110 -187 245c0 149 75 232 187 247v101zM130 288c0 -96 27 -179 117 -193v373
c-63 -11 -117 -56 -117 -180z" />
    <glyph glyph-name="sterling.osf" horiz-adv-x="548" 
d="M25 60h53c41 42 69 84 69 143c0 27 -6 51 -15 72h-109v56h81c-18 33 -34 68 -34 119c0 116 91 195 217 195c121 0 189 -52 203 -182l-61 -6c-11 88 -43 130 -141 130c-87 0 -151 -41 -151 -134c0 -46 18 -84 36 -122h237v-56h-213c8 -21 13 -44 13 -68
c0 -57 -19 -100 -61 -147h199c75 0 101 32 115 113l62 -13c-15 -114 -74 -160 -178 -160h-322v60z" />
    <glyph glyph-name="yen.osf" horiz-adv-x="512" 
d="M430 179h-135v-179h-67v179h-135v53h135v65h-135v53h102l-168 282h75l161 -277l155 277h69l-162 -282h105v-53h-135v-65h135v-53z" />
    <glyph glyph-name="florin.osf" horiz-adv-x="482" 
d="M504 549l-60 -24c-15 39 -37 63 -77 63c-44 0 -77 -21 -91 -93l-23 -118h145l-11 -56h-145l-51 -255c-22 -106 -70 -148 -155 -148c-61 0 -116 27 -138 96l60 24c15 -39 37 -63 82 -63c42 0 72 20 86 93l49 253h-78l11 56h78l25 120c22 106 73 148 158 148
c61 0 110 -27 135 -96z" />
    <glyph glyph-name="afii61352.osf" horiz-adv-x="1017" 
d="M574 0h-84l-324 539v-539h-67v626h97l312 -529v529h66v-626zM795 283c-113 0 -159 72 -159 173s53 170 165 170s156 -69 156 -165c0 -108 -50 -178 -162 -178zM797 327c65 0 99 42 99 129c0 85 -31 124 -96 124c-66 0 -104 -39 -104 -124s35 -129 101 -129zM643 183v55
h308v-55h-308z" />
    <glyph glyph-name="percent.osf" horiz-adv-x="856" 
d="M206 257c-117 0 -156 85 -156 176c0 109 57 187 164 187c110 0 155 -70 155 -174c0 -111 -56 -189 -163 -189zM271 -17h-66c47 80 94 159 141 239c78 133 157 266 236 399h65c-47 -80 -94 -159 -141 -239c-78 -133 -157 -266 -235 -399zM643 -12c-117 0 -156 85 -156 176
c0 109 57 187 164 187c110 0 155 -70 155 -174c0 -111 -56 -189 -163 -189zM646 40c75 0 95 58 95 133c0 67 -18 125 -92 125c-76 0 -97 -70 -97 -129c0 -70 19 -129 94 -129zM209 309c75 0 95 58 95 133c0 50 -10 96 -46 115c-12 6 -28 10 -46 10c-76 0 -97 -70 -97 -129
c0 -53 11 -99 48 -119c12 -7 27 -10 46 -10z" />
    <glyph glyph-name="perthousand.osf" horiz-adv-x="1059" 
d="M187 295c-104 0 -137 74 -137 158c0 97 49 167 144 167c98 0 137 -64 137 -158c0 -100 -49 -167 -144 -167zM212 -17h-66c47 80 94 159 141 239c78 133 157 266 236 399h65c-47 -80 -94 -159 -141 -239c-78 -133 -157 -266 -235 -399zM190 345c63 0 80 51 80 114
c0 44 -9 84 -39 101c-10 6 -23 9 -38 9c-64 0 -81 -62 -81 -113c0 -44 8 -85 39 -102c10 -6 23 -9 39 -9zM542 -12c-104 0 -137 74 -137 158c0 97 49 167 144 167c98 0 137 -64 137 -158c0 -100 -49 -167 -144 -167zM545 38c63 0 80 51 80 114c0 59 -15 110 -77 110
c-64 0 -81 -62 -81 -113c0 -59 15 -111 78 -111zM865 -12c-104 0 -137 74 -137 158c0 97 49 167 144 167c98 0 137 -64 137 -158c0 -100 -49 -167 -144 -167zM868 38c63 0 80 51 80 114c0 59 -15 110 -77 110c-64 0 -81 -62 -81 -113c0 -59 15 -111 78 -111z" />
    <glyph glyph-name="zero.slash" 
d="M282 -12c-196 0 -229 169 -229 371c0 203 43 378 239 378c195 0 224 -175 224 -364c0 -214 -39 -385 -234 -385zM122 356c0 -115 10 -219 62 -273l153 589c-14 4 -30 6 -47 6c-141 0 -168 -136 -168 -322zM285 44c140 0 162 141 162 322c0 120 -8 220 -57 273l-154 -588
c15 -5 31 -7 49 -7z" />
    <glyph glyph-name="zero.tf" 
d="M274 -12c-196 0 -229 169 -229 371c0 203 43 378 239 378c195 0 224 -175 224 -364c0 -214 -39 -385 -234 -385zM277 44c140 0 162 141 162 322c0 177 -17 312 -157 312c-141 0 -168 -136 -168 -322c0 -168 22 -312 163 -312z" />
    <glyph glyph-name="one.tf" 
d="M137 0v55h140v569c-35 -21 -123 -35 -156 -35l-7 51c95 8 152 31 197 84h31v-669h130v-55h-335z" />
    <glyph glyph-name="two.tf" 
d="M278 737c110 0 190 -52 190 -177c0 -113 -63 -197 -158 -310l-159 -192v0h327v-58h-403v52l175 217c105 129 149 187 149 287c0 90 -51 125 -128 125c-106 0 -131 -59 -144 -131l-60 12c20 126 99 175 211 175z" />
    <glyph glyph-name="three.tf" 
d="M48 148l65 12c12 -64 33 -114 139 -114c80 0 151 45 151 157c0 115 -69 152 -166 152h-62v58h46c107 0 172 60 172 146c0 66 -30 120 -126 120c-94 0 -120 -40 -139 -109l-62 14c23 114 105 153 209 153c123 0 186 -70 186 -169c0 -115 -80 -163 -143 -177v-2
c94 -15 155 -71 155 -186c0 -127 -86 -215 -223 -215c-113 0 -189 49 -202 160z" />
    <glyph glyph-name="four.tf" 
d="M436 0h-65v186h-338v49l318 489h86v-481h87v-57h-88v-186zM104 243h268v415z" />
    <glyph glyph-name="five.tf" 
d="M86 363l28 361h332v-58h-276l-22 -256c34 27 78 49 142 49c96 0 200 -47 200 -221c0 -144 -84 -250 -235 -250c-100 0 -191 48 -209 161l65 16c13 -57 42 -117 145 -117c78 0 161 50 161 189c0 114 -61 163 -146 163c-54 0 -99 -22 -138 -59z" />
    <glyph glyph-name="six.tf" 
d="M489 589l-60 -16c-21 87 -64 107 -121 107c-151 0 -184 -202 -186 -331c34 42 108 91 187 91c132 0 190 -91 190 -208c0 -152 -84 -244 -218 -244c-184 0 -224 165 -224 348c0 159 45 401 259 401c84 0 152 -40 173 -148zM126 286c6 -112 25 -243 158 -243
c82 0 148 56 148 183c0 103 -45 156 -126 156c-75 0 -141 -48 -180 -96z" />
    <glyph glyph-name="seven.tf" 
d="M203 0h-72l302 666h-376v58h448v-50z" />
    <glyph glyph-name="eight.tf" 
d="M333 375c81 -35 164 -77 164 -196c0 -112 -89 -191 -228 -191c-155 0 -220 80 -220 184c0 106 76 159 160 196c-75 31 -137 98 -137 183c0 123 94 186 214 186c123 0 200 -61 200 -165c0 -89 -66 -154 -153 -197zM267 342c-92 -40 -151 -80 -151 -168
c0 -73 45 -131 156 -131c116 0 159 72 159 137c0 102 -94 136 -164 162zM276 398c81 40 144 99 144 173c0 70 -46 113 -140 113c-88 0 -142 -48 -142 -124c0 -84 70 -136 138 -162z" />
    <glyph glyph-name="nine.tf" 
d="M50 139l62 16c21 -87 70 -112 138 -112c140 0 176 151 180 324c-34 -42 -109 -91 -188 -91c-132 0 -190 95 -190 217c0 152 84 244 218 244c184 0 224 -165 224 -348c0 -199 -41 -401 -250 -401c-97 0 -173 43 -194 151zM425 430c-6 112 -25 252 -158 252
c-82 0 -148 -56 -148 -188c0 -103 44 -160 131 -160c69 0 134 45 175 96z" />
    <glyph glyph-name="dollar.tf" 
d="M262 -80v87c-107 4 -186 47 -202 187l63 14c17 -95 46 -140 139 -146v269c-88 24 -177 53 -177 188c0 118 77 179 177 189v84h56v-83c97 -8 154 -62 170 -174l-64 -11c-13 65 -36 114 -106 125v-269c99 -26 176 -67 176 -188c0 -106 -66 -172 -176 -184v-88h-56zM153 524
c0 -62 22 -102 109 -130v255c-87 -10 -109 -70 -109 -125zM425 191c0 76 -48 104 -107 124v-251c62 10 107 48 107 127z" />
    <glyph glyph-name="Euro.tf" 
d="M342 257h-213c17 -139 76 -211 196 -211c93 0 143 40 164 139l58 -15c-21 -135 -125 -182 -227 -182c-123 0 -236 56 -260 269h-70l9 52h57c-1 13 -1 26 -1 40c0 16 0 32 1 47h-51l9 52h47c27 223 150 289 277 289c120 0 203 -64 214 -207l-64 -6
c-14 109 -51 154 -153 154c-137 0 -191 -96 -206 -230h238l-10 -52h-232c-1 -15 -1 -29 -1 -44s0 -29 1 -43h227z" />
    <glyph glyph-name="cent.tf" 
d="M270 695h55v-99c86 -6 151 -59 156 -158l-62 -9c-7 70 -37 102 -94 108v-376c60 7 88 37 102 101l58 -12c-15 -95 -82 -139 -160 -148v-102h-55v102c-129 12 -187 110 -187 245c0 149 75 232 187 247v101zM153 355c0 -96 27 -179 117 -193v373
c-63 -11 -117 -56 -117 -180z" />
    <glyph glyph-name="sterling.tf" 
d="M35 60h53c59 54 88 110 88 169c0 32 -9 65 -26 98h-107v56h82c-18 33 -47 86 -47 152c0 119 93 202 219 202c121 0 189 -52 203 -182l-61 -6c-11 88 -43 130 -141 130c-87 0 -153 -45 -153 -138c0 -63 29 -120 47 -158h238v-56h-214c15 -34 22 -67 22 -99
c0 -62 -27 -119 -77 -168h197c75 0 101 32 115 113l62 -13c-15 -114 -74 -160 -178 -160h-322v60z" />
    <glyph glyph-name="yen.tf" 
d="M452 247h-135v-247h-67v247h-135v53h135v71h-135v53h102l-168 300h75l161 -295l155 295h69l-162 -300h105v-53h-135v-71h135v-53z" />
    <glyph glyph-name="florin.tf" 
d="M574 641l-60 -24c-15 39 -37 63 -77 63c-44 0 -77 -21 -91 -93l-27 -143h145l-11 -56h-145l-66 -322c-22 -106 -70 -148 -155 -148c-61 0 -116 27 -138 96l60 24c15 -39 37 -63 82 -63c42 0 72 20 86 93l64 320h-78l11 56h78l29 145c22 106 73 148 158 148
c61 0 110 -27 135 -96z" />
    <glyph glyph-name="zeroslash.tosf" 
d="M282 -12c-196 0 -234 146 -234 294c0 153 52 299 244 299c188 0 229 -136 229 -285c0 -155 -44 -308 -239 -308zM117 276c0 -88 17 -164 70 -204l151 444c-16 4 -31 6 -48 6c-131 0 -173 -97 -173 -246zM285 44c130 0 167 105 167 245c0 88 -14 163 -61 202l-151 -443
c14 -3 29 -4 45 -4z" />
    <glyph glyph-name="zero.tosf" unicode="&#xf81e;" 
d="M282 -12c-196 0 -244 146 -244 294c0 153 62 299 254 299c188 0 239 -136 239 -285c0 -155 -54 -308 -249 -308zM285 44c130 0 177 105 177 245c0 137 -42 233 -172 233c-131 0 -183 -97 -183 -246c0 -129 47 -232 178 -232z" />
    <glyph glyph-name="one.tosf" unicode="&#xf81f;" 
d="M133 0v55h150v417c-33 -22 -121 -34 -154 -34l-7 51c92 7 150 30 195 83h31v-517h130v-55h-345z" />
    <glyph glyph-name="two.tosf" unicode="&#xf820;" 
d="M296 581c108 0 181 -52 181 -166c0 -106 -62 -168 -170 -252l-128 -105v0h307v-58h-393v52l149 127c116 98 169 143 169 232c0 80 -44 114 -120 114c-108 0 -133 -59 -146 -131l-60 12c20 126 99 175 211 175z" />
    <glyph glyph-name="three.tosf" unicode="&#xf821;" 
d="M75 77l65 12c12 -64 33 -114 139 -114c71 0 139 27 139 126c0 90 -60 129 -146 129h-70v56h46c98 0 165 60 165 135c0 51 -23 102 -119 102c-94 0 -120 -40 -139 -109l-62 14c23 114 103 153 205 153c117 0 183 -60 183 -154c0 -96 -67 -140 -136 -161v-2
c87 -14 143 -63 143 -164c0 -113 -78 -183 -211 -183c-113 0 -189 49 -202 160z" />
    <glyph glyph-name="four.tosf" unicode="&#xf822;" 
d="M445 -67h-65v151h-328v49l308 439h86v-431h87v-57h-88v-151zM123 141h258v365z" />
    <glyph glyph-name="five.tosf" unicode="&#xf823;" 
d="M116 237l23 329h332v-59h-274l-21 -223c34 25 80 49 144 49c96 0 186 -57 186 -195c0 -122 -71 -221 -218 -221c-100 0 -191 48 -209 161l65 16c13 -57 42 -117 145 -117c75 0 146 38 146 159c0 84 -49 138 -134 138c-54 0 -99 -22 -138 -59z" />
    <glyph glyph-name="six.tosf" unicode="&#xf824;" 
d="M512 498l-60 -16c-7 29 -16 50 -28 66c-24 32 -57 41 -99 41c-145 0 -173 -149 -175 -281c34 42 103 92 182 92c125 0 181 -91 181 -196c0 -127 -75 -216 -215 -216c-178 0 -213 166 -213 324c0 134 40 334 249 334c89 0 157 -40 178 -148zM154 246
c2 -67 20 -203 153 -203c82 0 139 49 139 155c0 91 -43 144 -123 144c-69 0 -128 -45 -169 -96z" />
    <glyph glyph-name="seven.tosf" unicode="&#xf825;" 
d="M211 -67h-72l300 574h-358v59h428v-54z" />
    <glyph glyph-name="eight.tosf" unicode="&#xf826;" 
d="M348 335c81 -35 159 -78 159 -178c0 -112 -93 -169 -223 -169c-141 0 -215 60 -215 159c0 93 62 140 155 181c-75 31 -136 80 -136 159c0 101 90 159 213 159s193 -56 193 -145c0 -79 -53 -122 -146 -166zM282 302c-92 -40 -146 -79 -146 -152c0 -69 55 -107 151 -107
c107 0 154 50 154 115c0 81 -89 118 -159 144zM291 358c81 40 139 78 139 142c0 57 -41 93 -135 93c-90 0 -143 -35 -143 -104c0 -71 71 -105 139 -131z" />
    <glyph glyph-name="nine.tosf" unicode="&#xf827;" 
d="M59 65l60 16c21 -85 75 -108 134 -108c156 0 171 153 173 285c-34 -48 -104 -87 -181 -87c-124 0 -181 95 -181 200c0 127 76 216 213 216c176 0 214 -166 214 -324c0 -148 -34 -346 -243 -346c-90 0 -168 40 -189 148zM422 323c-2 67 -23 209 -154 209
c-82 0 -137 -49 -137 -155c0 -91 41 -150 121 -150c69 0 129 39 170 96z" />
    <glyph glyph-name="dollar.tosf" 
d="M253 -45v46c-105 4 -181 42 -197 167l62 13c17 -86 44 -121 135 -126v232c-103 25 -171 62 -171 167s74 159 172 168v75h55v-74c95 -7 150 -55 166 -155l-63 -10c-14 71 -48 100 -103 107v-227c90 -21 170 -56 170 -163c0 -94 -58 -161 -170 -172v-83h-55v35h-1zM147 462
c0 -55 29 -88 106 -111v214c-69 -7 -106 -48 -106 -103zM411 169c0 57 -33 86 -102 105v-217c69 9 102 52 102 112z" />
    <glyph glyph-name="Euro.tosf" 
d="M-10 217l9 52h57c-1 13 -1 27 -1 42c0 14 0 27 1 40h-51l10 52h47c27 153 125 242 263 242c121 0 206 -64 217 -207l-62 -6c-14 103 -48 153 -158 153c-100 0 -170 -54 -191 -182h220l-9 -52h-217c-1 -13 -1 -26 -1 -39c0 -15 0 -29 1 -43h211l-9 -52h-197
c17 -107 70 -171 185 -171c95 0 143 40 164 139l58 -15c-21 -135 -124 -182 -227 -182c-142 0 -225 79 -248 229h-72z" />
    <glyph glyph-name="cent.tosf" 
d="M281 628h55v-99c86 -6 151 -59 156 -158l-62 -9c-7 70 -37 102 -94 108v-376c60 7 88 37 102 101l58 -12c-15 -95 -82 -139 -160 -148v-102h-55v102c-129 12 -187 110 -187 245c0 149 75 232 187 247v101zM164 288c0 -96 27 -179 117 -193v373
c-63 -11 -117 -56 -117 -180z" />
    <glyph glyph-name="sterling.tosf" 
d="M45 60h53c41 42 69 84 69 143c0 27 -6 51 -15 72h-109v56h81c-18 33 -34 68 -34 119c0 116 91 195 217 195c121 0 189 -52 203 -182l-61 -6c-11 88 -43 130 -141 130c-87 0 -151 -41 -151 -134c0 -46 18 -84 36 -122h237v-56h-213c8 -21 13 -44 13 -68
c0 -57 -19 -100 -61 -147h199c75 0 101 32 115 113l62 -13c-15 -114 -74 -160 -178 -160h-322v60z" />
    <glyph glyph-name="yen.tosf" 
d="M470 179h-135v-179h-67v179h-135v53h135v65h-135v53h102l-168 282h75l161 -277l155 277h69l-162 -282h105v-53h-135v-65h135v-53z" />
    <glyph glyph-name="florin.tosf" 
d="M584 549l-60 -24c-15 39 -37 63 -77 63c-44 0 -77 -21 -91 -93l-23 -118h145l-11 -56h-145l-51 -255c-22 -106 -70 -148 -155 -148c-61 0 -116 27 -138 96l60 24c15 -39 37 -63 82 -63c42 0 72 20 86 93l49 253h-78l11 56h78l25 120c22 106 73 148 158 148
c61 0 110 -27 135 -96z" />
    <glyph glyph-name="currency" unicode="&#xa4;" 
d="M563 57l-50 -48l-93 91c-35 -26 -80 -41 -136 -41c-60 0 -106 16 -140 43c-30 -30 -71 -72 -92 -93l-46 47l95 95c-23 37 -33 83 -33 131c0 43 12 86 35 123l-94 93l50 49l90 -90c36 29 84 47 142 47s106 -16 141 -44l86 86l46 -47l-89 -90c21 -35 32 -77 32 -123
c0 -49 -13 -96 -39 -135zM289 119c94 0 142 72 142 163c0 99 -48 160 -145 160c-94 0 -142 -67 -142 -160c0 -91 43 -163 145 -163z" />
    <glyph glyph-name="section" unicode="&#xa7;" horiz-adv-x="540" 
d="M50 254c0 56 36 112 96 149c-36 27 -61 66 -61 130c0 118 92 176 205 176c121 0 194 -66 200 -179l-67 -9c-9 80 -46 130 -135 130c-91 0 -134 -48 -134 -111c0 -188 346 -79 346 -299c0 -56 -37 -113 -96 -150c36 -26 61 -66 61 -129c0 -118 -92 -176 -205 -176
c-121 0 -194 66 -200 179l67 9c9 -80 46 -130 137 -130c89 0 132 48 132 116c0 186 -346 74 -346 294zM117 259c0 -100 131 -99 233 -139c50 32 83 69 83 116c0 100 -132 99 -233 139c-51 -33 -83 -70 -83 -116z" />
    <glyph glyph-name="copyright" unicode="&#xa9;" horiz-adv-x="759" 
d="M710 319c0 -198 -135 -331 -331 -331c-219 0 -330 138 -330 317c0 207 148 330 332 330c204 0 329 -124 329 -316zM381 37c170 0 274 105 274 276c0 178 -114 273 -274 273c-158 0 -275 -103 -275 -280c0 -167 103 -269 275 -269zM485 255l50 -8
c-14 -104 -92 -127 -151 -127c-129 0 -181 83 -181 195c0 113 64 194 182 194c77 0 140 -33 145 -126l-54 -8c-5 59 -31 85 -92 85c-62 0 -118 -39 -118 -147c0 -78 37 -144 115 -144c67 0 91 27 104 86z" />
    <glyph glyph-name="registered" unicode="&#xae;" horiz-adv-x="447" 
d="M407 480c0 -109 -75 -183 -184 -183c-121 0 -183 76 -183 176c0 114 82 184 184 184c113 0 183 -70 183 -177zM368 477c0 94 -61 144 -144 144c-81 0 -144 -54 -144 -147c0 -88 55 -141 144 -141s144 55 144 144zM260 471l51 -87h-38l-45 76h-28v-76h-36v191h66
c52 0 64 -26 64 -54c0 -26 -13 -41 -34 -50zM200 488h13c25 0 44 5 44 32c0 22 -14 27 -37 27h-20v-59z" />
    <glyph glyph-name="trademark" unicode="&#x2122;" horiz-adv-x="823" 
d="M758 348h-48v280l-114 -280h-40l-112 281v-281h-49v376h63l120 -302l123 302h57v-376zM205 677v-329h-52v329h-133v47h319v-47h-134z" />
    <glyph glyph-name="ordfeminine" unicode="&#xaa;" horiz-adv-x="370" 
d="M306 505v-160c0 -18 4 -25 21 -25c6 0 12 1 20 3l3 -37c-13 -7 -30 -10 -46 -10c-34 0 -48 17 -50 42c-24 -26 -63 -44 -111 -44c-85 0 -100 57 -100 89c0 89 81 109 163 111c17 0 29 -1 42 -1v30c0 41 -12 67 -68 67c-47 0 -65 -18 -72 -55l-51 9c10 62 51 93 128 93
c84 0 121 -30 121 -112zM249 362v68c-9 1 -20 1 -36 1c-47 -1 -110 -2 -110 -61c0 -24 11 -50 58 -50c35 0 69 22 88 42z" />
    <glyph glyph-name="ordmasculine" unicode="&#xba;" horiz-adv-x="392" 
d="M194 274c-117 0 -156 74 -156 171c0 106 57 172 165 172c107 0 151 -67 151 -164c0 -108 -46 -179 -160 -179zM197 323c59 0 96 36 96 126c0 87 -34 119 -93 119c-61 0 -101 -38 -101 -121s31 -124 98 -124z" />
    <glyph glyph-name="guillemotleft" unicode="&#xab;" horiz-adv-x="424" 
d="M369 103h-66l-88 157l89 148h66l-83 -146zM219 103h-66l-88 157l89 148h66l-83 -146z" />
    <glyph glyph-name="guillemotright" unicode="&#xbb;" horiz-adv-x="424" 
d="M206 408h66l88 -155l-89 -150h-66l83 148zM56 408h66l88 -155l-89 -150h-66l83 148z" />
    <glyph glyph-name="guilsinglleft" unicode="&#x2039;" horiz-adv-x="278" 
d="M219 103h-66l-88 157l89 148h66l-83 -146z" />
    <glyph glyph-name="guilsinglright" unicode="&#x203a;" horiz-adv-x="278" 
d="M56 408h66l88 -155l-89 -150h-66l83 148z" />
    <glyph glyph-name="quoteleft" unicode="&#x2018;" horiz-adv-x="177" 
d="M169 767l-53 -210h-79l79 218z" />
    <glyph glyph-name="quoteright" unicode="&#x2019;" horiz-adv-x="177" 
d="M33 563l53 210h79l-79 -218z" />
    <glyph glyph-name="quotesinglbase" unicode="&#x201a;" horiz-adv-x="166" 
d="M15 -126l53 210h79l-79 -218z" />
    <glyph glyph-name="quotedblleft" unicode="&#x201c;" horiz-adv-x="320" 
d="M169 767l-53 -210h-79l79 218zM312 767l-53 -210h-79l79 218z" />
    <glyph glyph-name="quotedblright" unicode="&#x201d;" horiz-adv-x="320" 
d="M28 563l53 210h79l-79 -218zM171 563l53 210h79l-79 -218z" />
    <glyph glyph-name="quotedblbase" unicode="&#x201e;" horiz-adv-x="309" 
d="M157 -126l53 210h79l-79 -218zM15 -126l53 210h79l-79 -218z" />
    <glyph glyph-name="dagger" unicode="&#x2020;" horiz-adv-x="391" 
d="M371 496l-150 7l12 -586h-75l11 587l-149 -8v63l149 -9l-8 174h69l-9 -173l150 8v-63z" />
    <glyph glyph-name="daggerdbl" unicode="&#x2021;" horiz-adv-x="411" 
d="M381 496l-150 7l1 -366l149 8v-63l-149 9l8 -174h-69l9 173l-150 -8v63l150 -7l-1 366l-149 -8v63l149 -9l-8 174h69l-9 -173l150 8v-63z" />
    <glyph glyph-name="bullet" unicode="&#x2022;" horiz-adv-x="365" 
d="M314 280c0 -86 -48 -129 -132 -129c-83 0 -131 43 -131 129s48 129 131 129c84 0 132 -43 132 -129z" />
    <glyph glyph-name="periodcentered" unicode="&#xb7;" horiz-adv-x="176" 
d="M146 302c0 -38 -21 -57 -58 -57s-58 19 -58 57s21 57 58 57s58 -19 58 -57z" />
    <glyph glyph-name="ellipsis" unicode="&#x2026;" horiz-adv-x="582" 
d="M166 45c0 -38 -21 -57 -58 -57s-58 19 -58 57s21 57 58 57s58 -19 58 -57zM532 45c0 -38 -21 -57 -58 -57s-58 19 -58 57s21 57 58 57s58 -19 58 -57zM349 45c0 -38 -21 -57 -58 -57s-58 19 -58 57s21 57 58 57s58 -19 58 -57z" />
    <glyph glyph-name="paragraph" unicode="&#xb6;" horiz-adv-x="547" 
d="M448 724l1 -857h-67v801h-89v-801h-67v384c-125 12 -206 96 -206 228c0 179 127 245 275 245h153z" />
    <glyph glyph-name="uni00AD" unicode="&#xad;" horiz-adv-x="311" 
d="M291 262h-271v67h271v-67z" />
    <glyph glyph-name="endash" unicode="&#x2013;" horiz-adv-x="500" 
d="M499 255h-499v54h499v-54z" />
    <glyph glyph-name="emdash" unicode="&#x2014;" horiz-adv-x="1000" 
d="M999 255h-999v54h999v-54z" />
    <glyph glyph-name="hyphen.case" horiz-adv-x="317" 
d="M291 325h-271v67h271v-67z" />
    <glyph glyph-name="Agrave" unicode="&#xc0;" horiz-adv-x="678" 
d="M291 724h92l250 -724h-74l-78 233h-292l-78 -233h-66zM462 292l-126 377v0l-127 -377h253zM334 767l-137 145h89l102 -132z" />
    <glyph glyph-name="Aacute" unicode="&#xc1;" horiz-adv-x="678" 
d="M291 724h92l250 -724h-74l-78 233h-292l-78 -233h-66zM462 292l-126 377v0l-127 -377h253zM485 912l-137 -145l-54 13l102 132h89z" />
    <glyph glyph-name="Acircumflex" unicode="&#xc2;" horiz-adv-x="678" 
d="M291 724h92l250 -724h-74l-78 233h-292l-78 -233h-66zM462 292l-126 377v0l-127 -377h253zM424 769l-90 81l-88 -83l-57 10l120 122h54l120 -122z" />
    <glyph glyph-name="Atilde" unicode="&#xc3;" horiz-adv-x="678" 
d="M291 724h92l250 -724h-74l-78 233h-292l-78 -233h-66zM462 292l-126 377v0l-127 -377h253zM260 892c62 0 107 -47 152 -47c26 0 41 7 41 55l47 -2c10 -82 -34 -112 -82 -112c-60 0 -108 47 -155 47c-21 0 -39 -11 -37 -57l-46 2c-10 83 36 114 80 114z" />
    <glyph glyph-name="Adieresis" unicode="&#xc4;" horiz-adv-x="678" 
d="M291 724h92l250 -724h-74l-78 233h-292l-78 -233h-66zM462 292l-126 377v0l-127 -377h253zM289 833c0 -32 -21 -51 -52 -51c-32 0 -53 19 -53 51c0 31 21 51 53 51c31 0 52 -20 52 -51zM488 833c0 -32 -21 -51 -52 -51c-32 0 -53 19 -53 51c0 31 21 51 53 51
c31 0 52 -20 52 -51z" />
    <glyph glyph-name="Aring" unicode="&#xc5;" horiz-adv-x="678" 
d="M440 806c0 -44 -20 -76 -55 -90l248 -716h-74l-78 233h-292l-78 -233h-66l243 715c-34 14 -55 44 -55 86c0 68 48 101 103 101c57 0 104 -29 104 -96zM462 292l-126 377l-127 -377h253zM336 752c34 0 51 22 51 54c0 33 -18 50 -51 50c-30 0 -52 -18 -52 -53
c0 -32 18 -51 52 -51z" />
    <glyph glyph-name="Aringacute" unicode="&#x1fa;" horiz-adv-x="678" 
d="M440 806c0 -44 -20 -76 -55 -90l248 -716h-74l-78 233h-292l-78 -233h-66l243 715c-34 14 -55 44 -55 86c0 68 48 101 103 101c57 0 104 -29 104 -96zM462 292l-126 377l-127 -377h253zM444 1066l-137 -145l-54 13l102 132h89zM336 752c34 0 51 22 51 54
c0 33 -18 50 -51 50c-30 0 -52 -18 -52 -53c0 -32 18 -51 52 -51z" />
    <glyph glyph-name="AE" unicode="&#xc6;" horiz-adv-x="997" 
d="M597 332v-276h352v-56h-420v330h-229l-187 -330h-68l410 724h484v-56h-342v-279h320v-57h-320zM529 387v281h-40l-157 -281h197z" />
    <glyph glyph-name="AEacute" unicode="&#x1fc;" horiz-adv-x="997" 
d="M597 332v-276h352v-56h-420v330h-229l-187 -330h-68l410 724h484v-56h-342v-279h320v-57h-320zM529 387v281h-40l-157 -281h197zM823 912l-137 -145l-54 13l102 132h89z" />
    <glyph glyph-name="Ccedilla" unicode="&#xc7;" horiz-adv-x="691" 
d="M288 -203l15 43c11 -7 33 -17 56 -17c33 0 49 22 49 48c0 33 -19 49 -76 50l9 68c-204 11 -286 155 -286 360c0 251 134 388 332 388c148 0 250 -74 263 -236l-63 -6c-17 117 -71 184 -200 184c-163 0 -264 -110 -264 -322c0 -221 93 -313 249 -313c121 0 187 51 213 164
l59 -13c-25 -143 -134 -198 -250 -206l-4 -33c40 -8 76 -29 76 -86c0 -56 -44 -94 -101 -94c-39 0 -64 12 -77 21z" />
    <glyph glyph-name="Egrave" unicode="&#xc8;" horiz-adv-x="572" 
d="M172 338v-280h352v-58h-419v724h409v-58h-342v-269h320v-59h-320zM341 767l-137 145h89l102 -132z" />
    <glyph glyph-name="Eacute" unicode="&#xc9;" horiz-adv-x="572" 
d="M172 338v-280h352v-58h-419v724h409v-58h-342v-269h320v-59h-320zM433 912l-137 -145l-54 13l102 132h89z" />
    <glyph glyph-name="Ecircumflex" unicode="&#xca;" horiz-adv-x="572" 
d="M172 338v-280h352v-58h-419v724h409v-58h-342v-269h320v-59h-320zM398 769l-90 81l-88 -83l-57 10l120 122h54l120 -122z" />
    <glyph glyph-name="Edieresis" unicode="&#xcb;" horiz-adv-x="572" 
d="M172 338v-280h352v-58h-419v724h409v-58h-342v-269h320v-59h-320zM263 833c0 -32 -21 -51 -52 -51c-32 0 -53 19 -53 51c0 31 21 51 53 51c31 0 52 -20 52 -51zM462 833c0 -32 -21 -51 -52 -51c-32 0 -53 19 -53 51c0 31 21 51 53 51c31 0 52 -20 52 -51z" />
    <glyph glyph-name="Igrave" unicode="&#xcc;" horiz-adv-x="277" 
d="M172 724v-724h-67v724h67zM128 767l-137 145h89l102 -132z" />
    <glyph glyph-name="Iacute" unicode="&#xcd;" horiz-adv-x="277" 
d="M172 724v-724h-67v724h67zM292 912l-137 -145l-54 13l102 132h89z" />
    <glyph glyph-name="Icircumflex" unicode="&#xce;" horiz-adv-x="277" 
d="M172 724v-724h-67v724h67zM226 769l-90 81l-88 -83l-57 10l120 122h54l120 -122z" />
    <glyph glyph-name="Idieresis" unicode="&#xcf;" horiz-adv-x="277" 
d="M172 724v-724h-67v724h67zM91 833c0 -32 -21 -51 -52 -51c-32 0 -53 19 -53 51c0 31 21 51 53 51c31 0 52 -20 52 -51zM290 833c0 -32 -21 -51 -52 -51c-32 0 -53 19 -53 51c0 31 21 51 53 51c31 0 52 -20 52 -51z" />
    <glyph glyph-name="Eth" unicode="&#xd0;" horiz-adv-x="744" 
d="M313 0h-193v342h-86v56h86v326h210c251 0 359 -135 359 -351c0 -222 -117 -373 -376 -373zM187 58h131c197 0 301 110 301 300c0 239 -112 308 -295 308h-137v-268h235v-56h-235v-284z" />
    <glyph glyph-name="Ntilde" unicode="&#xd1;" horiz-adv-x="745" 
d="M640 0h-85l-386 652v-652h-64v724h96l376 -643v643h63v-724zM304 892c62 0 107 -47 152 -47c26 0 41 7 41 55l47 -2c10 -82 -34 -112 -82 -112c-60 0 -108 47 -155 47c-21 0 -39 -11 -37 -57l-46 2c-10 83 36 114 80 114z" />
    <glyph glyph-name="Ograve" unicode="&#xd2;" horiz-adv-x="759" 
d="M375 -12c-218 0 -320 158 -320 375c0 216 119 374 334 374c213 0 315 -158 315 -359c0 -236 -114 -390 -329 -390zM379 47c149 0 256 106 256 321c0 200 -100 310 -248 310c-150 0 -262 -111 -262 -315c0 -205 104 -316 254 -316zM419 767l-137 145h89l102 -132z" />
    <glyph glyph-name="Oacute" unicode="&#xd3;" horiz-adv-x="759" 
d="M375 -12c-218 0 -320 158 -320 375c0 216 119 374 334 374c213 0 315 -158 315 -359c0 -236 -114 -390 -329 -390zM379 47c149 0 256 106 256 321c0 200 -100 310 -248 310c-150 0 -262 -111 -262 -315c0 -205 104 -316 254 -316zM496 912l-137 -145l-54 13l102 132h89z
" />
    <glyph glyph-name="Ocircumflex" unicode="&#xd4;" horiz-adv-x="759" 
d="M375 -12c-218 0 -320 158 -320 375c0 216 119 374 334 374c213 0 315 -158 315 -359c0 -236 -114 -390 -329 -390zM379 47c149 0 256 106 256 321c0 200 -100 310 -248 310c-150 0 -262 -111 -262 -315c0 -205 104 -316 254 -316zM476 769l-90 81l-88 -83l-57 10l120 122
h54l120 -122z" />
    <glyph glyph-name="Otilde" unicode="&#xd5;" horiz-adv-x="759" 
d="M375 -12c-218 0 -320 158 -320 375c0 216 119 374 334 374c213 0 315 -158 315 -359c0 -236 -114 -390 -329 -390zM379 47c149 0 256 106 256 321c0 200 -100 310 -248 310c-150 0 -262 -111 -262 -315c0 -205 104 -316 254 -316zM312 892c62 0 107 -47 152 -47
c26 0 41 7 41 55l47 -2c10 -82 -34 -112 -82 -112c-60 0 -108 47 -155 47c-21 0 -39 -11 -37 -57l-46 2c-10 83 36 114 80 114z" />
    <glyph glyph-name="Odieresis" unicode="&#xd6;" horiz-adv-x="759" 
d="M375 -12c-218 0 -320 158 -320 375c0 216 119 374 334 374c213 0 315 -158 315 -359c0 -236 -114 -390 -329 -390zM379 47c149 0 256 106 256 321c0 200 -100 310 -248 310c-150 0 -262 -111 -262 -315c0 -205 104 -316 254 -316zM341 833c0 -32 -21 -51 -52 -51
c-32 0 -53 19 -53 51c0 31 21 51 53 51c31 0 52 -20 52 -51zM540 833c0 -32 -21 -51 -52 -51c-32 0 -53 19 -53 51c0 31 21 51 53 51c31 0 52 -20 52 -51z" />
    <glyph glyph-name="Oslash" unicode="&#xd8;" horiz-adv-x="759" 
d="M375 -12c-40 0 -76 5 -108 15l-31 -74h-68l41 99c-105 60 -154 183 -154 335c0 216 119 374 334 374c40 0 77 -6 109 -17l31 73h67l-41 -98c100 -60 149 -179 149 -317c0 -236 -114 -390 -329 -390zM125 363c0 -130 41 -223 110 -273l239 573c-26 10 -56 15 -87 15
c-150 0 -262 -111 -262 -315zM379 47c149 0 256 106 256 321c0 125 -40 215 -106 265l-238 -572c27 -9 56 -14 88 -14z" />
    <glyph glyph-name="Oslashacute" unicode="&#x1fe;" horiz-adv-x="759" 
d="M496 912l-137 -145l-54 13l102 132h89zM375 -12c-40 0 -76 5 -108 15l-31 -74h-68l41 99c-105 60 -154 183 -154 335c0 216 119 374 334 374c40 0 77 -6 109 -17l31 73h67l-41 -98c100 -60 149 -179 149 -317c0 -236 -114 -390 -329 -390zM125 363
c0 -130 41 -223 110 -273l239 573c-26 10 -56 15 -87 15c-150 0 -262 -111 -262 -315zM379 47c149 0 256 106 256 321c0 125 -40 215 -106 265l-238 -572c27 -9 56 -14 88 -14z" />
    <glyph glyph-name="Ugrave" unicode="&#xd9;" horiz-adv-x="716" 
d="M359 47c122 0 190 47 190 191v486h67v-489c0 -166 -94 -247 -263 -247c-180 0 -253 88 -253 248v488h67v-484c0 -143 73 -193 192 -193zM389 767l-137 145h89l102 -132z" />
    <glyph glyph-name="Uacute" unicode="&#xda;" horiz-adv-x="716" 
d="M359 47c122 0 190 47 190 191v486h67v-489c0 -166 -94 -247 -263 -247c-180 0 -253 88 -253 248v488h67v-484c0 -143 73 -193 192 -193zM500 912l-137 -145l-54 13l102 132h89z" />
    <glyph glyph-name="Ucircumflex" unicode="&#xdb;" horiz-adv-x="716" 
d="M359 47c122 0 190 47 190 191v486h67v-489c0 -166 -94 -247 -263 -247c-180 0 -253 88 -253 248v488h67v-484c0 -143 73 -193 192 -193zM456 769l-90 81l-88 -83l-57 10l120 122h54l120 -122z" />
    <glyph glyph-name="Udieresis" unicode="&#xdc;" horiz-adv-x="716" 
d="M359 47c122 0 190 47 190 191v486h67v-489c0 -166 -94 -247 -263 -247c-180 0 -253 88 -253 248v488h67v-484c0 -143 73 -193 192 -193zM317 833c0 -32 -21 -51 -52 -51c-32 0 -53 19 -53 51c0 31 21 51 53 51c31 0 52 -20 52 -51zM516 833c0 -32 -21 -51 -52 -51
c-32 0 -53 19 -53 51c0 31 21 51 53 51c31 0 52 -20 52 -51z" />
    <glyph glyph-name="Yacute" unicode="&#xdd;" horiz-adv-x="550" 
d="M313 287v-287h-67v284l-246 440h74l207 -373v0l201 373h68zM389 912l-137 -145l-54 13l102 132h89z" />
    <glyph glyph-name="Thorn" unicode="&#xde;" horiz-adv-x="614" 
d="M171 159v-159h-66v724h66v-127h155c185 0 241 -98 241 -208c0 -164 -105 -230 -274 -230h-122zM171 218h120c115 0 206 29 206 169c0 127 -75 152 -236 152h-90v-321z" />
    <glyph glyph-name="germandbls" unicode="&#xdf;" horiz-adv-x="657" 
d="M157 538v-538h-67v549c0 157 95 218 229 218c144 0 215 -65 215 -177c0 -91 -51 -139 -117 -167v-3c111 -19 190 -74 190 -211c0 -131 -77 -220 -204 -220c-95 0 -169 44 -185 154l64 11c14 -61 39 -107 123 -107c82 0 132 52 132 155c0 137 -92 178 -204 178h-42v56h15
c120 0 160 74 160 139c0 97 -57 135 -148 135c-102 0 -161 -36 -161 -172z" />
    <glyph glyph-name="agrave" unicode="&#xe0;" horiz-adv-x="535" 
d="M442 346v-264c0 -28 5 -40 31 -40c9 0 18 2 31 6l4 -43c-20 -10 -38 -14 -61 -14c-47 0 -64 29 -66 64c-38 -40 -98 -67 -170 -67c-130 0 -151 89 -151 138c0 145 132 172 248 172c29 0 47 -1 67 -2v51c0 78 -22 120 -111 120c-81 0 -109 -32 -120 -92l-63 11
c16 95 78 135 187 135c122 0 174 -48 174 -175zM376 112v130c-16 2 -34 3 -63 3c-70 0 -183 -5 -183 -109c0 -50 18 -94 97 -94c59 0 117 33 149 70zM299 572l-142 177h88l106 -164z" />
    <glyph glyph-name="aacute" unicode="&#xe1;" horiz-adv-x="535" 
d="M442 346v-264c0 -28 5 -40 31 -40c9 0 18 2 31 6l4 -43c-20 -10 -38 -14 -61 -14c-47 0 -64 29 -66 64c-38 -40 -98 -67 -170 -67c-130 0 -151 89 -151 138c0 145 132 172 248 172c29 0 47 -1 67 -2v51c0 78 -22 120 -111 120c-81 0 -109 -32 -120 -92l-63 11
c16 95 78 135 187 135c122 0 174 -48 174 -175zM376 112v130c-16 2 -34 3 -63 3c-70 0 -183 -5 -183 -109c0 -50 18 -94 97 -94c59 0 117 33 149 70zM383 749l-142 -177l-52 13l106 164h88z" />
    <glyph glyph-name="acircumflex" unicode="&#xe2;" horiz-adv-x="535" 
d="M442 346v-264c0 -28 5 -40 31 -40c9 0 18 2 31 6l4 -43c-20 -10 -38 -14 -61 -14c-47 0 -64 29 -66 64c-38 -40 -98 -67 -170 -67c-130 0 -151 89 -151 138c0 145 132 172 248 172c29 0 47 -1 67 -2v51c0 78 -22 120 -111 120c-81 0 -109 -32 -120 -92l-63 11
c16 95 78 135 187 135c122 0 174 -48 174 -175zM376 112v130c-16 2 -34 3 -63 3c-70 0 -183 -5 -183 -109c0 -50 18 -94 97 -94c59 0 117 33 149 70zM420 584l-56 -6l-96 122l-92 -124l-55 8l114 165h67z" />
    <glyph glyph-name="atilde" unicode="&#xe3;" horiz-adv-x="535" 
d="M442 346v-264c0 -28 5 -40 31 -40c9 0 18 2 31 6l4 -43c-20 -10 -38 -14 -61 -14c-47 0 -64 29 -66 64c-38 -40 -98 -67 -170 -67c-130 0 -151 89 -151 138c0 145 132 172 248 172c29 0 47 -1 67 -2v51c0 78 -22 120 -111 120c-81 0 -109 -32 -120 -92l-63 11
c16 95 78 135 187 135c122 0 174 -48 174 -175zM376 112v130c-16 2 -34 3 -63 3c-70 0 -183 -5 -183 -109c0 -50 18 -94 97 -94c59 0 117 33 149 70zM191 708c62 0 107 -47 152 -47c26 0 41 7 41 55l47 -2c10 -82 -35 -112 -82 -112c-60 0 -108 47 -155 47
c-21 0 -39 -11 -37 -57l-46 2c-10 82 36 114 80 114z" />
    <glyph glyph-name="adieresis" unicode="&#xe4;" horiz-adv-x="535" 
d="M442 346v-264c0 -28 5 -40 31 -40c9 0 18 2 31 6l4 -43c-20 -10 -38 -14 -61 -14c-47 0 -64 29 -66 64c-38 -40 -98 -67 -170 -67c-130 0 -151 89 -151 138c0 145 132 172 248 172c29 0 47 -1 67 -2v51c0 78 -22 120 -111 120c-81 0 -109 -32 -120 -92l-63 11
c16 95 78 135 187 135c122 0 174 -48 174 -175zM376 112v130c-16 2 -34 3 -63 3c-70 0 -183 -5 -183 -109c0 -50 18 -94 97 -94c59 0 117 33 149 70zM220 668c0 -32 -21 -51 -52 -51c-32 0 -53 19 -53 51c0 31 21 51 53 51c31 0 52 -20 52 -51zM419 668
c0 -32 -21 -51 -52 -51c-32 0 -53 19 -53 51c0 31 21 51 53 51c31 0 52 -20 52 -51z" />
    <glyph glyph-name="aring" unicode="&#xe5;" horiz-adv-x="535" 
d="M442 346v-264c0 -28 5 -40 31 -40c9 0 18 2 31 6l4 -43c-20 -10 -38 -14 -61 -14c-47 0 -64 29 -66 64c-38 -40 -98 -67 -170 -67c-130 0 -151 89 -151 138c0 145 132 172 248 172c29 0 47 -1 67 -2v51c0 78 -22 120 -111 120c-81 0 -109 -32 -120 -92l-63 11
c16 95 78 135 187 135c122 0 174 -48 174 -175zM376 112v130c-16 2 -34 3 -63 3c-70 0 -183 -5 -183 -109c0 -50 18 -94 97 -94c59 0 117 33 149 70zM372 674c0 -62 -40 -99 -104 -99c-62 0 -103 35 -103 94c0 68 48 101 103 101c57 0 104 -29 104 -96zM268 620
c34 0 51 22 51 54c0 33 -18 50 -51 50c-30 0 -52 -18 -52 -53c0 -32 18 -51 52 -51z" />
    <glyph glyph-name="aringacute" unicode="&#x1fb;" horiz-adv-x="535" 
d="M442 346v-264c0 -28 5 -40 31 -40c9 0 18 2 31 6l4 -43c-20 -10 -38 -14 -61 -14c-47 0 -64 29 -66 64c-38 -40 -98 -67 -170 -67c-130 0 -151 89 -151 138c0 145 132 172 248 172c29 0 47 -1 67 -2v51c0 78 -22 120 -111 120c-81 0 -109 -32 -120 -92l-63 11
c16 95 78 135 187 135c122 0 174 -48 174 -175zM376 112v130c-16 2 -34 3 -63 3c-70 0 -183 -5 -183 -109c0 -50 18 -94 97 -94c59 0 117 33 149 70zM372 663c0 -62 -40 -99 -104 -99c-62 0 -103 35 -103 94c0 68 48 101 103 101c57 0 104 -29 104 -96zM268 609
c34 0 51 22 51 54c0 33 -18 50 -51 50c-30 0 -52 -18 -52 -53c0 -32 18 -51 52 -51zM382 934l-137 -145l-54 13l102 132h89z" />
    <glyph glyph-name="ae" unicode="&#xe6;" horiz-adv-x="867" 
d="M606 -12c-90 0 -147 31 -181 81c-59 -56 -136 -81 -209 -81c-130 0 -151 89 -151 138c0 139 122 172 246 172c22 0 48 -1 69 -2v62c0 67 -25 109 -114 109c-77 0 -108 -30 -119 -90l-61 11c16 95 78 133 187 133c90 0 133 -29 154 -93c44 65 110 93 186 93
c140 0 197 -94 197 -216c0 -20 -2 -42 -5 -63h-358c4 -153 75 -194 164 -194c80 0 113 33 129 97l63 -12c-22 -101 -103 -145 -197 -145zM232 42c62 0 124 28 168 77c-13 37 -19 79 -20 124c-19 1 -46 2 -70 2c-86 0 -175 -16 -175 -110c0 -49 16 -93 97 -93zM448 296h292
c2 105 -38 167 -133 167c-78 0 -154 -48 -159 -167z" />
    <glyph glyph-name="aeacute" unicode="&#x1fd;" horiz-adv-x="862" 
d="M601 -12c-90 0 -147 31 -181 81c-59 -56 -136 -81 -209 -81c-130 0 -151 89 -151 138c0 139 122 172 246 172c22 0 48 -1 69 -2v62c0 67 -25 109 -114 109c-77 0 -108 -30 -119 -90l-61 11c16 95 78 133 187 133c90 0 133 -29 154 -93c44 65 110 93 186 93
c140 0 197 -94 197 -216c0 -20 -2 -42 -5 -63h-358c4 -153 75 -194 164 -194c80 0 113 33 129 97l63 -12c-22 -101 -103 -145 -197 -145zM227 42c62 0 124 28 168 77c-13 37 -19 79 -20 124c-19 1 -46 2 -70 2c-86 0 -175 -16 -175 -110c0 -49 16 -93 97 -93zM443 296h292
c2 105 -38 167 -133 167c-78 0 -154 -48 -159 -167zM576 749l-142 -177l-52 13l106 164h88z" />
    <glyph glyph-name="ccedilla" unicode="&#xe7;" horiz-adv-x="536" 
d="M200 -203l15 43c11 -7 33 -17 56 -17c33 0 49 22 49 48c0 33 -19 49 -76 50l9 69c-144 12 -198 118 -198 262c0 179 90 269 242 269c101 0 180 -57 186 -171l-67 -9c-9 82 -47 122 -125 122c-80 0 -166 -44 -166 -202c0 -168 82 -213 164 -213c74 0 121 32 135 113
l63 -13c-16 -106 -94 -152 -181 -159l-4 -33c40 -8 76 -29 76 -86c0 -56 -44 -94 -101 -94c-39 0 -64 12 -77 21z" />
    <glyph glyph-name="egrave" unicode="&#xe8;" horiz-adv-x="546" 
d="M285 -12c-178 0 -230 126 -230 267c0 187 108 266 237 266c140 0 197 -95 197 -217c-1 -20 -2 -41 -5 -62h-358c4 -153 75 -194 164 -194c80 0 113 33 129 97l63 -12c-22 -101 -103 -145 -197 -145zM127 296h292c2 105 -38 167 -133 167c-78 0 -154 -48 -159 -167z
M316 572l-142 177h88l106 -164z" />
    <glyph glyph-name="eacute" unicode="&#xe9;" horiz-adv-x="546" 
d="M285 -12c-178 0 -230 126 -230 267c0 187 108 266 237 266c140 0 197 -95 197 -217c-1 -20 -2 -41 -5 -62h-358c4 -153 75 -194 164 -194c80 0 113 33 129 97l63 -12c-22 -101 -103 -145 -197 -145zM127 296h292c2 105 -38 167 -133 167c-78 0 -154 -48 -159 -167z
M400 749l-142 -177l-52 13l106 164h88z" />
    <glyph glyph-name="ecircumflex" unicode="&#xea;" horiz-adv-x="546" 
d="M285 -12c-178 0 -230 126 -230 267c0 187 108 266 237 266c140 0 197 -95 197 -217c-1 -20 -2 -41 -5 -62h-358c4 -153 75 -194 164 -194c80 0 113 33 129 97l63 -12c-22 -101 -103 -145 -197 -145zM127 296h292c2 105 -38 167 -133 167c-78 0 -154 -48 -159 -167z
M437 584l-56 -6l-96 122l-92 -124l-55 8l114 165h67z" />
    <glyph glyph-name="edieresis" unicode="&#xeb;" horiz-adv-x="546" 
d="M285 -12c-178 0 -230 126 -230 267c0 187 108 266 237 266c140 0 197 -95 197 -217c-1 -20 -2 -41 -5 -62h-358c4 -153 75 -194 164 -194c80 0 113 33 129 97l63 -12c-22 -101 -103 -145 -197 -145zM127 296h292c2 105 -38 167 -133 167c-78 0 -154 -48 -159 -167z
M237 668c0 -32 -21 -51 -52 -51c-32 0 -53 19 -53 51c0 31 21 51 53 51c31 0 52 -20 52 -51zM436 668c0 -32 -21 -51 -52 -51c-32 0 -53 19 -53 51c0 31 21 51 53 51c31 0 52 -20 52 -51z" />
    <glyph glyph-name="igrave" unicode="&#xec;" horiz-adv-x="242" 
d="M157 511v-511h-67v511h67zM112 572l-142 177h88l106 -164z" />
    <glyph glyph-name="iacute" unicode="&#xed;" horiz-adv-x="242" 
d="M157 511v-511h-67v511h67zM283 749l-142 -177l-52 13l106 164h88z" />
    <glyph glyph-name="icircumflex" unicode="&#xee;" horiz-adv-x="242" 
d="M157 511v-511h-67v511h67zM275 584l-56 -6l-96 122l-92 -124l-55 8l114 165h67z" />
    <glyph glyph-name="idieresis" unicode="&#xef;" horiz-adv-x="242" 
d="M157 511v-511h-67v511h67zM75 668c0 -32 -21 -51 -52 -51c-32 0 -53 19 -53 51c0 31 21 51 53 51c31 0 52 -20 52 -51zM274 668c0 -32 -21 -51 -52 -51c-32 0 -53 19 -53 51c0 31 21 51 53 51c31 0 52 -20 52 -51z" />
    <glyph glyph-name="eth" unicode="&#xf0;" horiz-adv-x="572" 
d="M229 566l-28 47l91 49c-39 25 -88 42 -146 49l22 51c75 -8 136 -31 185 -67l102 55l28 -48l-85 -46c79 -84 114 -206 114 -345c0 -141 -36 -323 -235 -323c-152 0 -224 106 -224 251c0 152 79 262 225 262c56 0 112 -16 151 -46l2 1c-17 66 -45 124 -92 169zM122 246
c0 -91 33 -203 157 -203c138 0 169 139 169 266c0 23 -1 45 -3 67c-27 35 -88 66 -158 66c-109 0 -165 -77 -165 -196z" />
    <glyph glyph-name="ntilde" unicode="&#xf1;" horiz-adv-x="582" 
d="M500 345v-345h-67v338c0 78 -27 124 -106 124c-67 0 -139 -45 -170 -73v-389h-67v511h59l4 -64c55 41 121 74 192 74c109 0 155 -61 155 -176zM212 708c62 0 107 -47 152 -47c26 0 41 7 41 55l47 -2c10 -82 -35 -112 -82 -112c-60 0 -108 47 -155 47
c-21 0 -39 -11 -37 -57l-46 2c-10 82 36 114 80 114z" />
    <glyph glyph-name="ograve" unicode="&#xf2;" horiz-adv-x="574" 
d="M285 -12c-173 0 -230 115 -230 265c0 166 86 268 243 268c156 0 221 -103 221 -255c0 -168 -67 -278 -234 -278zM290 45c98 0 159 60 159 215c0 152 -57 203 -155 203c-101 0 -170 -62 -170 -206c0 -143 55 -212 166 -212zM328 572l-142 177h88l106 -164z" />
    <glyph glyph-name="oacute" unicode="&#xf3;" horiz-adv-x="574" 
d="M285 -12c-173 0 -230 115 -230 265c0 166 86 268 243 268c156 0 221 -103 221 -255c0 -168 -67 -278 -234 -278zM290 45c98 0 159 60 159 215c0 152 -57 203 -155 203c-101 0 -170 -62 -170 -206c0 -143 55 -212 166 -212zM412 749l-142 -177l-52 13l106 164h88z" />
    <glyph glyph-name="ocircumflex" unicode="&#xf4;" horiz-adv-x="574" 
d="M285 -12c-173 0 -230 115 -230 265c0 166 86 268 243 268c156 0 221 -103 221 -255c0 -168 -67 -278 -234 -278zM290 45c98 0 159 60 159 215c0 152 -57 203 -155 203c-101 0 -170 -62 -170 -206c0 -143 55 -212 166 -212zM449 584l-56 -6l-96 122l-92 -124l-55 8
l114 165h67z" />
    <glyph glyph-name="otilde" unicode="&#xf5;" horiz-adv-x="574" 
d="M285 -12c-173 0 -230 115 -230 265c0 166 86 268 243 268c156 0 221 -103 221 -255c0 -168 -67 -278 -234 -278zM290 45c98 0 159 60 159 215c0 152 -57 203 -155 203c-101 0 -170 -62 -170 -206c0 -143 55 -212 166 -212zM220 708c62 0 107 -47 152 -47c26 0 41 7 41 55
l47 -2c10 -82 -35 -112 -82 -112c-60 0 -108 47 -155 47c-21 0 -39 -11 -37 -57l-46 2c-10 82 36 114 80 114z" />
    <glyph glyph-name="odieresis" unicode="&#xf6;" horiz-adv-x="574" 
d="M285 -12c-173 0 -230 115 -230 265c0 166 86 268 243 268c156 0 221 -103 221 -255c0 -168 -67 -278 -234 -278zM290 45c98 0 159 60 159 215c0 152 -57 203 -155 203c-101 0 -170 -62 -170 -206c0 -143 55 -212 166 -212zM249 668c0 -32 -21 -51 -52 -51
c-32 0 -53 19 -53 51c0 31 21 51 53 51c31 0 52 -20 52 -51zM448 668c0 -32 -21 -51 -52 -51c-32 0 -53 19 -53 51c0 31 21 51 53 51c31 0 52 -20 52 -51z" />
    <glyph glyph-name="oslash" unicode="&#xf8;" horiz-adv-x="574" 
d="M285 -12c-31 0 -57 4 -81 10l-31 -70h-67l43 95c-69 45 -94 130 -94 230c0 166 86 268 243 268c27 0 51 -3 72 -9l34 74h66l-45 -98c65 -42 94 -121 94 -222c0 -168 -67 -278 -234 -278zM290 45c98 0 159 60 159 215c0 84 -18 138 -50 168l-170 -375c18 -5 38 -8 61 -8z
M124 257c0 -81 17 -138 53 -173l168 373c-15 4 -33 6 -51 6c-101 0 -170 -62 -170 -206z" />
    <glyph glyph-name="oslashacute" unicode="&#x1ff;" horiz-adv-x="574" 
d="M412 749l-142 -177l-52 13l106 164h88zM285 -12c-31 0 -57 4 -81 10l-31 -70h-67l43 95c-69 45 -94 130 -94 230c0 166 86 268 243 268c27 0 51 -3 72 -9l34 74h66l-45 -98c65 -42 94 -121 94 -222c0 -168 -67 -278 -234 -278zM290 45c98 0 159 60 159 215
c0 84 -18 138 -50 168l-170 -375c18 -5 38 -8 61 -8zM124 257c0 -81 17 -138 53 -173l168 373c-15 4 -33 6 -51 6c-101 0 -170 -62 -170 -206z" />
    <glyph glyph-name="ugrave" unicode="&#xf9;" horiz-adv-x="582" 
d="M89 166v345h67v-338c0 -78 24 -124 103 -124c67 0 139 45 170 73v389h67v-511h-59l-4 64c-55 -41 -121 -74 -192 -74c-109 0 -152 61 -152 176zM314 572l-142 177h88l106 -164z" />
    <glyph glyph-name="uacute" unicode="&#xfa;" horiz-adv-x="582" 
d="M89 166v345h67v-338c0 -78 24 -124 103 -124c67 0 139 45 170 73v389h67v-511h-59l-4 64c-55 -41 -121 -74 -192 -74c-109 0 -152 61 -152 176zM412 749l-142 -177l-52 13l106 164h88z" />
    <glyph glyph-name="ucircumflex" unicode="&#xfb;" horiz-adv-x="582" 
d="M89 166v345h67v-338c0 -78 24 -124 103 -124c67 0 139 45 170 73v389h67v-511h-59l-4 64c-55 -41 -121 -74 -192 -74c-109 0 -152 61 -152 176zM444 584l-56 -6l-96 122l-92 -124l-55 8l114 165h67z" />
    <glyph glyph-name="udieresis" unicode="&#xfc;" horiz-adv-x="582" 
d="M89 166v345h67v-338c0 -78 24 -124 103 -124c67 0 139 45 170 73v389h67v-511h-59l-4 64c-55 -41 -121 -74 -192 -74c-109 0 -152 61 -152 176zM239 668c0 -32 -21 -51 -52 -51c-32 0 -53 19 -53 51c0 31 21 51 53 51c31 0 52 -20 52 -51zM438 668c0 -32 -21 -51 -52 -51
c-32 0 -53 19 -53 51c0 31 21 51 53 51c31 0 52 -20 52 -51z" />
    <glyph glyph-name="yacute" unicode="&#xfd;" horiz-adv-x="469" 
d="M201 -4l-188 515h72l150 -432v0l156 432h68c-63 -168 -140 -370 -206 -541c-54 -146 -91 -193 -180 -193c-37 0 -73 10 -92 18l10 52c16 -5 55 -15 84 -15c48 0 89 35 126 164zM363 749l-142 -177l-52 13l106 164h88z" />
    <glyph glyph-name="thorn" unicode="&#xfe;" horiz-adv-x="577" 
d="M157 -212h-67v967h66v-304c47 39 102 70 181 70c107 0 185 -66 185 -253c0 -199 -100 -280 -216 -280c-60 0 -112 27 -149 54v0v-254zM157 390v-284c25 -19 81 -61 149 -61c109 0 148 93 148 226c0 140 -43 195 -134 195c-65 0 -130 -42 -163 -76z" />
    <glyph glyph-name="ydieresis" unicode="&#xff;" horiz-adv-x="469" 
d="M201 -4l-188 515h72l150 -432v0l156 432h68c-63 -168 -140 -370 -206 -541c-54 -146 -91 -193 -180 -193c-37 0 -73 10 -92 18l10 52c16 -5 55 -15 84 -15c48 0 89 35 126 164zM187 668c0 -32 -21 -51 -52 -51c-32 0 -53 19 -53 51c0 31 21 51 53 51c31 0 52 -20 52 -51z
M386 668c0 -32 -21 -51 -52 -51c-32 0 -53 19 -53 51c0 31 21 51 53 51c31 0 52 -20 52 -51z" />
    <glyph glyph-name="Amacron" unicode="&#x100;" horiz-adv-x="678" 
d="M291 724h92l250 -724h-74l-78 233h-292l-78 -233h-66zM462 292l-126 377v0l-127 -377h253zM487 797h-303v57h303v-57z" />
    <glyph glyph-name="amacron" unicode="&#x101;" horiz-adv-x="535" 
d="M442 346v-264c0 -28 5 -40 31 -40c9 0 18 2 31 6l4 -43c-20 -10 -38 -14 -61 -14c-47 0 -64 29 -66 64c-38 -40 -98 -67 -170 -67c-130 0 -151 89 -151 138c0 145 132 172 248 172c29 0 47 -1 67 -2v51c0 78 -22 120 -111 120c-81 0 -109 -32 -120 -92l-63 11
c16 95 78 135 187 135c122 0 174 -48 174 -175zM376 112v130c-16 2 -34 3 -63 3c-70 0 -183 -5 -183 -109c0 -50 18 -94 97 -94c59 0 117 33 149 70zM410 636h-283v57h283v-57z" />
    <glyph glyph-name="Abreve" unicode="&#x102;" horiz-adv-x="678" 
d="M291 724h92l250 -724h-74l-78 233h-292l-78 -233h-66zM462 292l-126 377v0l-127 -377h253zM338 833c48 0 79 18 89 74l54 -5c-9 -75 -57 -120 -145 -120c-84 0 -126 40 -134 119l54 6c10 -56 35 -74 82 -74z" />
    <glyph glyph-name="abreve" unicode="&#x103;" horiz-adv-x="535" 
d="M442 346v-264c0 -28 5 -40 31 -40c9 0 18 2 31 6l4 -43c-20 -10 -38 -14 -61 -14c-47 0 -64 29 -66 64c-38 -40 -98 -67 -170 -67c-130 0 -151 89 -151 138c0 145 132 172 248 172c29 0 47 -1 67 -2v51c0 78 -22 120 -111 120c-81 0 -109 -32 -120 -92l-63 11
c16 95 78 135 187 135c122 0 174 -48 174 -175zM376 112v130c-16 2 -34 3 -63 3c-70 0 -183 -5 -183 -109c0 -50 18 -94 97 -94c59 0 117 33 149 70zM360 730l53 -5c0 -93 -49 -152 -147 -152c-92 0 -137 49 -139 150l54 7c5 -81 32 -106 87 -106c57 0 89 25 92 106z" />
    <glyph glyph-name="Aogonek" unicode="&#x104;" horiz-adv-x="678" 
d="M291 724h92l250 -724c-56 -44 -92 -78 -92 -127c0 -25 14 -41 40 -41c23 0 41 12 57 39l41 -22c-22 -49 -69 -71 -110 -71c-53 0 -93 30 -93 84c0 61 43 106 83 138l-78 233h-292l-78 -233h-66zM462 292l-126 377l-127 -377h253z" />
    <glyph glyph-name="aogonek" unicode="&#x105;" horiz-adv-x="535" 
d="M496 -129l41 -22c-22 -49 -69 -71 -110 -71c-53 0 -93 30 -93 84c0 59 40 103 79 136c-22 10 -31 32 -32 57c-38 -40 -98 -67 -170 -67c-130 0 -151 89 -151 138c0 145 132 172 248 172c29 0 47 -1 67 -2v51c0 78 -22 120 -111 120c-81 0 -109 -32 -120 -92l-63 11
c16 95 78 135 187 135c122 0 174 -48 174 -175v-264c0 -28 5 -40 31 -40c9 0 18 2 31 6l4 -43c-56 -23 -109 -82 -109 -132c0 -25 14 -41 40 -41c23 0 41 12 57 39zM376 112v130c-16 2 -34 3 -63 3c-70 0 -183 -5 -183 -109c0 -50 18 -94 97 -94c59 0 117 33 149 70z" />
    <glyph glyph-name="Cacute" unicode="&#x106;" horiz-adv-x="691" 
d="M367 -12c-223 0 -312 148 -312 361c0 251 134 388 332 388c148 0 250 -74 263 -236l-63 -6c-17 117 -71 184 -200 184c-163 0 -264 -110 -264 -322c0 -221 93 -313 249 -313c121 0 187 51 213 164l59 -13c-27 -154 -152 -207 -277 -207zM489 912l-137 -145l-54 13
l102 132h89z" />
    <glyph glyph-name="cacute" unicode="&#x107;" horiz-adv-x="536" 
d="M285 -12c-168 0 -230 110 -230 264c0 179 90 269 242 269c101 0 180 -57 186 -171l-67 -9c-9 82 -47 122 -125 122c-80 0 -166 -44 -166 -202c0 -168 82 -213 164 -213c74 0 121 32 135 113l63 -13c-17 -114 -107 -160 -202 -160zM402 749l-142 -177l-52 13l106 164h88z
" />
    <glyph glyph-name="Ccircumflex" unicode="&#x108;" horiz-adv-x="691" 
d="M367 -12c-223 0 -312 148 -312 361c0 251 134 388 332 388c148 0 250 -74 263 -236l-63 -6c-17 117 -71 184 -200 184c-163 0 -264 -110 -264 -322c0 -221 93 -313 249 -313c121 0 187 51 213 164l59 -13c-27 -154 -152 -207 -277 -207zM469 769l-90 81l-88 -83l-57 10
l120 122h54l120 -122z" />
    <glyph glyph-name="ccircumflex" unicode="&#x109;" horiz-adv-x="536" 
d="M285 -12c-168 0 -230 110 -230 264c0 179 90 269 242 269c101 0 180 -57 186 -171l-67 -9c-9 82 -47 122 -125 122c-80 0 -166 -44 -166 -202c0 -168 82 -213 164 -213c74 0 121 32 135 113l63 -13c-17 -114 -107 -160 -202 -160zM439 584l-56 -6l-96 122l-92 -124l-55 8
l114 165h67z" />
    <glyph glyph-name="Cdotaccent" unicode="&#x10a;" horiz-adv-x="691" 
d="M367 -12c-223 0 -312 148 -312 361c0 251 134 388 332 388c148 0 250 -74 263 -236l-63 -6c-17 117 -71 184 -200 184c-163 0 -264 -110 -264 -322c0 -221 93 -313 249 -313c121 0 187 51 213 164l59 -13c-27 -154 -152 -207 -277 -207zM435 835c0 -34 -20 -53 -54 -53
s-54 19 -54 53s20 53 54 53s54 -19 54 -53z" />
    <glyph glyph-name="cdotaccent" unicode="&#x10b;" horiz-adv-x="536" 
d="M285 -12c-168 0 -230 110 -230 264c0 179 90 269 242 269c101 0 180 -57 186 -171l-67 -9c-9 82 -47 122 -125 122c-80 0 -166 -44 -166 -202c0 -168 82 -213 164 -213c74 0 121 32 135 113l63 -13c-17 -114 -107 -160 -202 -160zM336 678c0 -34 -20 -53 -54 -53
s-54 19 -54 53s20 53 54 53s54 -19 54 -53z" />
    <glyph glyph-name="Ccaron" unicode="&#x10c;" horiz-adv-x="691" 
d="M367 -12c-223 0 -312 148 -312 361c0 251 134 388 332 388c148 0 250 -74 263 -236l-63 -6c-17 117 -71 184 -200 184c-163 0 -264 -110 -264 -322c0 -221 93 -313 249 -313c121 0 187 51 213 164l59 -13c-27 -154 -152 -207 -277 -207zM292 901l90 -81l88 83l57 -10
l-120 -122h-54l-120 122z" />
    <glyph glyph-name="ccaron" unicode="&#x10d;" horiz-adv-x="536" 
d="M285 -12c-168 0 -230 110 -230 264c0 179 90 269 242 269c101 0 180 -57 186 -171l-67 -9c-9 82 -47 122 -125 122c-80 0 -166 -44 -166 -202c0 -168 82 -213 164 -213c74 0 121 32 135 113l63 -13c-17 -114 -107 -160 -202 -160zM125 737l60 6l92 -122l94 124l53 -8
l-114 -165h-67z" />
    <glyph glyph-name="Dcaron" unicode="&#x10e;" horiz-adv-x="729" 
d="M298 0h-193v724h210c251 0 359 -135 359 -351c0 -222 -117 -373 -376 -373zM172 58h131c197 0 301 110 301 300c0 239 -112 308 -295 308h-137v-608zM251 901l90 -81l88 83l57 -10l-120 -122h-54l-120 122z" />
    <glyph glyph-name="dcaron" unicode="&#x10f;" horiz-adv-x="602" 
d="M487 755v-755h-57l-6 57v0c-47 -39 -100 -69 -176 -69c-115 0 -193 74 -193 261c0 199 100 272 216 272c60 0 111 -20 149 -48v282h67zM420 119v292c-25 19 -81 53 -149 53c-109 0 -148 -85 -148 -218c0 -140 43 -203 141 -203c62 0 121 38 156 76zM544 565l33 190h77
l-60 -198z" />
    <glyph glyph-name="Dcroat" unicode="&#x110;" horiz-adv-x="744" 
d="M313 0h-193v342h-86v56h86v326h210c251 0 359 -135 359 -351c0 -222 -117 -373 -376 -373zM187 58h131c197 0 301 110 301 300c0 239 -112 308 -295 308h-137v-268h235v-56h-235v-284z" />
    <glyph glyph-name="dcroat" unicode="&#x111;" horiz-adv-x="572" 
d="M487 755v-123h70v-56h-70v-576h-57l-6 57c-47 -39 -100 -69 -176 -69c-115 0 -193 71 -193 251c0 192 100 262 216 262c60 0 111 -20 149 -48v123h-194v56h194v123h67zM420 119v272c-25 18 -81 53 -149 53c-109 0 -148 -81 -148 -208c0 -133 43 -193 141 -193
c62 0 121 38 156 76z" />
    <glyph glyph-name="Emacron" unicode="&#x112;" horiz-adv-x="572" 
d="M172 338v-280h352v-58h-419v724h409v-58h-342v-269h320v-59h-320zM461 797h-303v57h303v-57z" />
    <glyph glyph-name="emacron" unicode="&#x113;" horiz-adv-x="546" 
d="M285 -12c-178 0 -230 126 -230 267c0 187 108 266 237 266c140 0 197 -95 197 -217c-1 -20 -2 -41 -5 -62h-358c4 -153 75 -194 164 -194c80 0 113 33 129 97l63 -12c-22 -101 -103 -145 -197 -145zM127 296h292c2 105 -38 167 -133 167c-78 0 -154 -48 -159 -167z
M427 636h-283v57h283v-57z" />
    <glyph glyph-name="Ebreve" unicode="&#x114;" horiz-adv-x="572" 
d="M172 338v-280h352v-58h-419v724h409v-58h-342v-269h320v-59h-320zM312 833c48 0 79 18 89 74l54 -5c-9 -75 -57 -120 -145 -120c-84 0 -126 40 -134 119l54 6c10 -56 35 -74 82 -74z" />
    <glyph glyph-name="ebreve" unicode="&#x115;" horiz-adv-x="546" 
d="M285 -12c-178 0 -230 126 -230 267c0 187 108 266 237 266c140 0 197 -95 197 -217c-1 -20 -2 -41 -5 -62h-358c4 -153 75 -194 164 -194c80 0 113 33 129 97l63 -12c-22 -101 -103 -145 -197 -145zM127 296h292c2 105 -38 167 -133 167c-78 0 -154 -48 -159 -167z
M377 730l53 -5c0 -93 -49 -152 -147 -152c-92 0 -137 49 -139 150l54 7c5 -81 32 -106 87 -106c57 0 89 25 92 106z" />
    <glyph glyph-name="Edotaccent" unicode="&#x116;" horiz-adv-x="572" 
d="M172 338v-280h352v-58h-419v724h409v-58h-342v-269h320v-59h-320zM364 835c0 -34 -20 -53 -54 -53s-54 19 -54 53s20 53 54 53s54 -19 54 -53z" />
    <glyph glyph-name="edotaccent" unicode="&#x117;" horiz-adv-x="546" 
d="M285 -12c-178 0 -230 126 -230 267c0 187 108 266 237 266c140 0 197 -95 197 -217c-1 -20 -2 -41 -5 -62h-358c4 -153 75 -194 164 -194c80 0 113 33 129 97l63 -12c-22 -101 -103 -145 -197 -145zM127 296h292c2 105 -38 167 -133 167c-78 0 -154 -48 -159 -167z
M339 678c0 -34 -20 -53 -54 -53s-54 19 -54 53s20 53 54 53s54 -19 54 -53z" />
    <glyph glyph-name="Eogonek" unicode="&#x118;" horiz-adv-x="572" 
d="M500 -129l41 -22c-22 -49 -69 -71 -110 -71c-53 0 -93 30 -93 84c0 60 43 105 82 138h-315v724h409v-58h-342v-269h320v-59h-320v-280h352v-58h-36c-49 -44 -85 -78 -85 -127c0 -25 14 -41 40 -41c23 0 41 12 57 39z" />
    <glyph glyph-name="eogonek" unicode="&#x119;" horiz-adv-x="546" 
d="M389 -129l41 -22c-22 -49 -69 -71 -110 -71c-53 0 -93 30 -93 84c0 53 33 95 68 126h-10c-178 0 -230 126 -230 267c0 187 108 266 237 266c140 0 197 -95 197 -217c-1 -20 -2 -41 -5 -62h-358c4 -153 75 -194 164 -194c80 0 113 33 129 97l63 -12
c-14 -62 -46 -96 -89 -125c-60 -40 -101 -83 -101 -135c0 -25 14 -41 40 -41c23 0 41 12 57 39zM127 296h292c2 105 -38 167 -133 167c-78 0 -154 -48 -159 -167z" />
    <glyph glyph-name="Ecaron" unicode="&#x11a;" horiz-adv-x="572" 
d="M172 338v-280h352v-58h-419v724h409v-58h-342v-269h320v-59h-320zM221 901l90 -81l88 83l57 -10l-120 -122h-54l-120 122z" />
    <glyph glyph-name="ecaron" unicode="&#x11b;" horiz-adv-x="546" 
d="M285 -12c-178 0 -230 126 -230 267c0 187 108 266 237 266c140 0 197 -95 197 -217c-1 -20 -2 -41 -5 -62h-358c4 -153 75 -194 164 -194c80 0 113 33 129 97l63 -12c-22 -101 -103 -145 -197 -145zM127 296h292c2 105 -38 167 -133 167c-78 0 -154 -48 -159 -167z
M134 737l60 6l92 -122l94 124l53 -8l-114 -165h-67z" />
    <glyph glyph-name="Gcircumflex" unicode="&#x11c;" horiz-adv-x="735" 
d="M598 0l-11 102c-24 -61 -116 -114 -222 -114c-218 0 -310 150 -310 366c0 251 131 383 334 383c149 0 248 -67 261 -236l-63 -7c-14 136 -84 186 -201 186c-163 0 -263 -117 -263 -320c0 -249 115 -317 253 -317c142 0 211 106 211 198v75h-217v59h278v-375h-50zM467 769
l-90 81l-88 -83l-57 10l120 122h54l120 -122z" />
    <glyph glyph-name="gcircumflex" unicode="&#x11d;" horiz-adv-x="549" 
d="M267 521c65 0 119 -14 154 -54c13 31 38 61 74 61c15 0 29 -2 43 -7v-60c-32 1 -76 -5 -101 -13c23 -26 36 -68 36 -109c0 -116 -89 -183 -201 -183c-33 0 -69 5 -93 14c-17 -15 -39 -34 -39 -58c0 -23 12 -38 74 -41l142 -8c104 -6 163 -33 163 -132
c0 -125 -139 -157 -259 -157c-192 0 -223 73 -223 129c0 63 47 101 83 126v0c-30 9 -50 31 -50 65c0 41 30 68 63 94c-35 18 -61 54 -72 99c-4 15 -6 30 -6 47c0 114 85 187 212 187zM406 338c0 87 -50 128 -136 128c-80 0 -145 -37 -145 -126c0 -74 42 -127 143 -127
c84 0 138 48 138 125zM449 -67c0 38 -19 66 -95 70l-182 10c-38 -27 -66 -57 -66 -98c0 -44 30 -83 165 -83c121 0 178 37 178 101zM423 584l-56 -6l-96 122l-92 -124l-55 8l114 165h67z" />
    <glyph glyph-name="Gbreve" unicode="&#x11e;" horiz-adv-x="735" 
d="M598 0l-11 102c-24 -61 -116 -114 -222 -114c-218 0 -310 150 -310 366c0 251 131 383 334 383c149 0 248 -67 261 -236l-63 -7c-14 136 -84 186 -201 186c-163 0 -263 -117 -263 -320c0 -249 115 -317 253 -317c142 0 211 106 211 198v75h-217v59h278v-375h-50zM381 833
c48 0 79 18 89 74l54 -5c-9 -75 -57 -120 -145 -120c-84 0 -126 40 -134 119l54 6c10 -56 35 -74 82 -74z" />
    <glyph glyph-name="gbreve" unicode="&#x11f;" horiz-adv-x="549" 
d="M267 521c65 0 119 -14 154 -54c13 31 38 61 74 61c15 0 29 -2 43 -7v-60c-32 1 -76 -5 -101 -13c23 -26 36 -68 36 -109c0 -116 -89 -183 -201 -183c-33 0 -69 5 -93 14c-17 -15 -39 -34 -39 -58c0 -23 12 -38 74 -41l142 -8c104 -6 163 -33 163 -132
c0 -125 -139 -157 -259 -157c-192 0 -223 73 -223 129c0 63 47 101 83 126v0c-30 9 -50 31 -50 65c0 41 30 68 63 94c-35 18 -61 54 -72 99c-4 15 -6 30 -6 47c0 114 85 187 212 187zM406 338c0 87 -50 128 -136 128c-80 0 -145 -37 -145 -126c0 -74 42 -127 143 -127
c84 0 138 48 138 125zM449 -67c0 38 -19 66 -95 70l-182 10c-38 -27 -66 -57 -66 -98c0 -44 30 -83 165 -83c121 0 178 37 178 101zM354 730l53 -5c0 -93 -49 -152 -147 -152c-92 0 -137 49 -139 150l54 7c5 -81 32 -106 87 -106c57 0 89 25 92 106z" />
    <glyph glyph-name="Gdotaccent" unicode="&#x120;" horiz-adv-x="735" 
d="M598 0l-11 102c-24 -61 -116 -114 -222 -114c-218 0 -310 150 -310 366c0 251 131 383 334 383c149 0 248 -67 261 -236l-63 -7c-14 136 -84 186 -201 186c-163 0 -263 -117 -263 -320c0 -249 115 -317 253 -317c142 0 211 106 211 198v75h-217v59h278v-375h-50zM433 835
c0 -34 -20 -53 -54 -53s-54 19 -54 53s20 53 54 53s54 -19 54 -53z" />
    <glyph glyph-name="gdotaccent" unicode="&#x121;" horiz-adv-x="549" 
d="M267 521c65 0 119 -14 154 -54c13 31 38 61 74 61c15 0 29 -2 43 -7v-60c-32 1 -76 -5 -101 -13c23 -26 36 -68 36 -109c0 -116 -89 -183 -201 -183c-33 0 -69 5 -93 14c-17 -15 -39 -34 -39 -58c0 -23 12 -38 74 -41l142 -8c104 -6 163 -33 163 -132
c0 -125 -139 -157 -259 -157c-192 0 -223 73 -223 129c0 63 47 101 83 126v0c-30 9 -50 31 -50 65c0 41 30 68 63 94c-35 18 -61 54 -72 99c-4 15 -6 30 -6 47c0 114 85 187 212 187zM406 338c0 87 -50 128 -136 128c-80 0 -145 -37 -145 -126c0 -74 42 -127 143 -127
c84 0 138 48 138 125zM449 -67c0 38 -19 66 -95 70l-182 10c-38 -27 -66 -57 -66 -98c0 -44 30 -83 165 -83c121 0 178 37 178 101zM319 678c0 -34 -20 -53 -54 -53s-54 19 -54 53s20 53 54 53s54 -19 54 -53z" />
    <glyph glyph-name="Gcommaaccent" unicode="&#x122;" horiz-adv-x="735" 
d="M598 0l-11 102c-24 -61 -116 -114 -222 -114c-218 0 -310 150 -310 366c0 251 131 383 334 383c149 0 248 -67 261 -236l-63 -7c-14 136 -84 186 -201 186c-163 0 -263 -117 -263 -320c0 -249 115 -317 253 -317c142 0 211 106 211 198v75h-217v59h278v-375h-50z
M310 -220l36 151h79l-62 -159z" />
    <glyph glyph-name="gcommaaccent" unicode="&#x123;" horiz-adv-x="549" 
d="M267 521c65 0 119 -14 154 -54c13 31 38 61 74 61c15 0 29 -2 43 -7v-60c-32 1 -76 -5 -101 -13c23 -26 36 -68 36 -109c0 -116 -89 -183 -201 -183c-33 0 -69 5 -93 14c-17 -15 -39 -34 -39 -58c0 -23 12 -38 74 -41l142 -8c104 -6 163 -33 163 -132
c0 -125 -139 -157 -259 -157c-192 0 -223 73 -223 129c0 63 47 101 83 126v0c-30 9 -50 31 -50 65c0 41 30 68 63 94c-35 18 -61 54 -72 99c-4 15 -6 30 -6 47c0 114 85 187 212 187zM406 338c0 87 -50 128 -136 128c-80 0 -145 -37 -145 -126c0 -74 42 -127 143 -127
c84 0 138 48 138 125zM449 -67c0 38 -19 66 -95 70l-182 10c-38 -27 -66 -57 -66 -98c0 -44 30 -83 165 -83c121 0 178 37 178 101zM332 721l-36 -151h-79l62 159z" />
    <glyph glyph-name="Hcircumflex" unicode="&#x124;" horiz-adv-x="726" 
d="M621 724v-724h-67v343h-382v-343h-67v724h67v-322h382v322h67zM451 769l-90 81l-88 -83l-57 10l120 122h54l120 -122z" />
    <glyph glyph-name="hcircumflex" unicode="&#x125;" horiz-adv-x="582" 
d="M500 345v-345h-67v338c0 78 -27 124 -106 124c-67 0 -139 -45 -170 -73v-389h-67v755h67v-307c55 41 117 73 188 73c109 0 155 -61 155 -176zM215 792l-90 81l-88 -83l-57 10l120 122h54l120 -122z" />
    <glyph glyph-name="Hbar" unicode="&#x126;" horiz-adv-x="726" 
d="M621 724v-139h83v-57h-83v-528h-67v343h-382v-343h-67v528h-83v57h83v139h67v-139h382v139h67zM172 402h382v126h-382v-126z" />
    <glyph glyph-name="hbar" unicode="&#x127;" horiz-adv-x="582" 
d="M500 325v-325h-67v318c0 78 -27 124 -106 124c-67 0 -139 -45 -170 -73v-369h-67v576h-70v56h70v123h67v-123h194v-56h-194v-148c55 41 117 73 188 73c109 0 155 -61 155 -176z" />
    <glyph glyph-name="Itilde" unicode="&#x128;" horiz-adv-x="277" 
d="M172 724v-724h-67v724h67zM62 892c62 0 107 -47 152 -47c26 0 41 7 41 55l47 -2c10 -82 -34 -112 -82 -112c-60 0 -108 47 -155 47c-21 0 -39 -11 -37 -57l-46 2c-10 83 36 114 80 114z" />
    <glyph glyph-name="itilde" unicode="&#x129;" horiz-adv-x="242" 
d="M157 511v-511h-67v511h67zM46 708c62 0 107 -47 152 -47c26 0 41 7 41 55l47 -2c10 -82 -35 -112 -82 -112c-60 0 -108 47 -155 47c-21 0 -39 -11 -37 -57l-46 2c-10 82 36 114 80 114z" />
    <glyph glyph-name="Imacron" unicode="&#x12a;" horiz-adv-x="277" 
d="M172 724v-724h-67v724h67zM289 797h-303v57h303v-57z" />
    <glyph glyph-name="imacron" unicode="&#x12b;" horiz-adv-x="242" 
d="M157 511v-511h-67v511h67zM265 636h-283v57h283v-57z" />
    <glyph glyph-name="Ibreve" unicode="&#x12c;" horiz-adv-x="277" 
d="M172 724v-724h-67v724h67zM140 833c48 0 79 18 89 74l54 -5c-9 -75 -57 -120 -145 -120c-84 0 -126 40 -134 119l54 6c10 -56 35 -74 82 -74z" />
    <glyph glyph-name="ibreve" unicode="&#x12d;" horiz-adv-x="242" 
d="M157 511v-511h-67v511h67zM215 730l53 -5c0 -93 -49 -152 -147 -152c-92 0 -137 49 -139 150l54 7c5 -81 32 -106 87 -106c57 0 89 25 92 106z" />
    <glyph glyph-name="Iogonek" unicode="&#x12e;" horiz-adv-x="277" 
d="M172 724v-724c-49 -45 -86 -78 -86 -127c0 -25 14 -41 40 -41c23 0 41 12 57 39l41 -22c-22 -49 -69 -71 -110 -71c-53 0 -93 30 -93 84c0 61 44 107 84 139v723h67z" />
    <glyph glyph-name="iogonek" unicode="&#x12f;" horiz-adv-x="242" 
d="M157 511v-511c-49 -45 -86 -78 -86 -127c0 -25 14 -41 40 -41c23 0 41 12 57 39l41 -22c-22 -49 -69 -71 -110 -71c-53 0 -93 30 -93 84c0 61 44 107 84 139v510h67zM179 688c0 -34 -20 -53 -54 -53s-54 19 -54 53s20 53 54 53s54 -19 54 -53z" />
    <glyph glyph-name="Idotaccent" unicode="&#x130;" horiz-adv-x="277" 
d="M172 724v-724h-67v724h67zM192 835c0 -34 -20 -53 -54 -53s-54 19 -54 53s20 53 54 53s54 -19 54 -53z" />
    <glyph glyph-name="idotaccent" horiz-adv-x="242" 
d="M157 511v-511h-67v511h67zM179 688c0 -34 -20 -53 -54 -53s-54 19 -54 53s20 53 54 53s54 -19 54 -53z" />
    <glyph glyph-name="dotlessi" unicode="&#x131;" horiz-adv-x="242" 
d="M157 511v-511h-67v511h67z" />
    <glyph glyph-name="IJ" unicode="&#x132;" horiz-adv-x="764" 
d="M172 724v-724h-67v724h67zM602 171v553h67v-551c0 -144 -75 -185 -189 -185c-115 0 -168 52 -173 154l64 11c8 -66 26 -108 113 -108c65 0 118 16 118 126z" />
    <glyph glyph-name="Jcircumflex" unicode="&#x134;" horiz-adv-x="487" 
d="M325 171v553h67v-551c0 -144 -75 -185 -189 -185c-115 0 -168 52 -173 154l64 11c8 -66 26 -108 113 -108c65 0 118 16 118 126zM446 769l-90 81l-88 -83l-57 10l120 122h54l120 -122z" />
    <glyph glyph-name="jcircumflex" unicode="&#x135;" horiz-adv-x="239" 
d="M26 -223c-24 0 -69 6 -86 16l9 55c22 -8 50 -14 73 -14c43 0 68 23 68 83v594h67v-590c0 -99 -44 -144 -131 -144zM272 584l-56 -6l-96 122l-92 -124l-55 8l114 165h67z" />
    <glyph glyph-name="jcircumflex.calt" horiz-adv-x="239" 
d="M38 -223c-24 0 -47 5 -58 9l6 52c15 -4 29 -6 41 -6c41 0 63 23 63 85v594h67v-590c0 -99 -44 -144 -119 -144zM274 584l-56 -6l-96 122l-92 -124l-55 8l114 165h67z" />
    <glyph glyph-name="Kcommaaccent" unicode="&#x136;" horiz-adv-x="632" 
d="M172 724v-371l343 371h79l-293 -315l314 -409h-79l-280 361l-84 -90v-271h-67v724h67zM266 -220l36 151h79l-62 -159z" />
    <glyph glyph-name="kcommaaccent" unicode="&#x137;" horiz-adv-x="518" 
d="M157 755v-491l240 247h78l-180 -185l193 -326h-73l-168 278l-90 -92v-186h-67v755h67zM204 -220l36 151h79l-62 -159z" />
    <glyph glyph-name="kgreenlandic" unicode="&#x138;" horiz-adv-x="518" 
d="M157 511v-247l240 247h78l-180 -185l193 -326h-73l-168 278l-90 -92v-186h-67v511h67z" />
    <glyph glyph-name="Lacute" unicode="&#x139;" horiz-adv-x="545" 
d="M172 724v-666h332v-58h-399v724h67zM261 912l-137 -145l-54 13l102 132h89z" />
    <glyph glyph-name="lacute" unicode="&#x13a;" horiz-adv-x="242" 
d="M157 755v-755h-67v755h67zM231 934l-137 -145l-54 13l102 132h89z" />
    <glyph glyph-name="Lcommaaccent" unicode="&#x13b;" horiz-adv-x="545" 
d="M172 724v-666h332v-58h-399v724h67zM247 -220l36 151h79l-62 -159z" />
    <glyph glyph-name="lcommaaccent" unicode="&#x13c;" horiz-adv-x="242" 
d="M157 755v-755h-67v755h67zM62 -220l36 151h79l-62 -159z" />
    <glyph glyph-name="Lcaron" unicode="&#x13d;" horiz-adv-x="545" 
d="M172 724v-666h332v-58h-399v724h67zM278 534l33 190h77l-60 -198z" />
    <glyph glyph-name="lcaron" unicode="&#x13e;" horiz-adv-x="272" 
d="M157 755v-755h-67v755h67zM214 565l33 190h77l-60 -198z" />
    <glyph glyph-name="Ldot" unicode="&#x13f;" horiz-adv-x="545" 
d="M172 724v-666h332v-58h-399v724h67zM471 395c0 -34 -20 -53 -54 -53s-54 19 -54 53s20 53 54 53s54 -19 54 -53z" />
    <glyph glyph-name="ldot" unicode="&#x140;" horiz-adv-x="284" 
d="M157 755v-755h-67v755h67zM317 396c0 -34 -20 -53 -54 -53s-54 19 -54 53s20 53 54 53s54 -19 54 -53z" />
    <glyph glyph-name="Lslash" unicode="&#x141;" horiz-adv-x="545" 
d="M172 724v-345l251 105v-59l-251 -104v-263h332v-58h-399v293l-94 -39v58l94 39v373h67z" />
    <glyph glyph-name="lslash" unicode="&#x142;" horiz-adv-x="253" 
d="M159 755v-314l94 46v-61l-94 -45v-381h-67v351l-87 -42v61l87 42v343h67z" />
    <glyph glyph-name="Nacute" unicode="&#x143;" horiz-adv-x="745" 
d="M640 0h-85l-386 652v-652h-64v724h96l376 -643v643h63v-724zM512 912l-137 -145l-54 13l102 132h89z" />
    <glyph glyph-name="nacute" unicode="&#x144;" horiz-adv-x="582" 
d="M500 345v-345h-67v338c0 78 -27 124 -106 124c-67 0 -139 -45 -170 -73v-389h-67v511h59l4 -64c55 41 121 74 192 74c109 0 155 -61 155 -176zM404 749l-142 -177l-52 13l106 164h88z" />
    <glyph glyph-name="Ncommaaccent" unicode="&#x145;" horiz-adv-x="745" 
d="M640 0h-85l-386 652v-652h-64v724h96l376 -643v643h63v-724zM307 -220l36 151h79l-62 -159z" />
    <glyph glyph-name="ncommaaccent" unicode="&#x146;" horiz-adv-x="582" 
d="M500 345v-345h-67v338c0 78 -27 124 -106 124c-67 0 -139 -45 -170 -73v-389h-67v511h59l4 -64c55 41 121 74 192 74c109 0 155 -61 155 -176zM228 -220l36 151h79l-62 -159z" />
    <glyph glyph-name="Ncaron" unicode="&#x147;" horiz-adv-x="745" 
d="M640 0h-85l-386 652v-652h-64v724h96l376 -643v643h63v-724zM290 901l90 -81l88 83l57 -10l-120 -122h-54l-120 122z" />
    <glyph glyph-name="ncaron" unicode="&#x148;" horiz-adv-x="582" 
d="M500 345v-345h-67v338c0 78 -27 124 -106 124c-67 0 -139 -45 -170 -73v-389h-67v511h59l4 -64c55 41 121 74 192 74c109 0 155 -61 155 -176zM128 737l60 6l92 -122l94 124l53 -8l-114 -165h-67z" />
    <glyph glyph-name="napostrophe" unicode="&#x149;" horiz-adv-x="582" 
d="M500 345v-345h-67v338c0 78 -27 124 -106 124c-67 0 -139 -45 -170 -73v-389h-67v511h59l4 -64c55 41 121 74 192 74c109 0 155 -61 155 -176zM-19 511l36 151h79l-62 -159z" />
    <glyph glyph-name="Eng" unicode="&#x14a;" horiz-adv-x="745" 
d="M504 -223c-42 0 -98 12 -115 22l13 54c22 -8 61 -19 98 -19c43 0 73 23 73 83v67l-404 668v-652h-64v724h96l376 -622v622h63v-803c0 -99 -54 -144 -136 -144z" />
    <glyph glyph-name="eng" unicode="&#x14b;" horiz-adv-x="582" 
d="M369 -223c-24 0 -69 6 -86 16l9 55c22 -8 50 -14 73 -14c43 0 68 23 68 83v421c0 78 -27 124 -106 124c-67 0 -139 -45 -170 -73v-389h-67v511h59l4 -64c55 41 121 74 192 74c109 0 155 -61 155 -176v-424c0 -99 -44 -144 -131 -144z" />
    <glyph glyph-name="Omacron" unicode="&#x14c;" horiz-adv-x="759" 
d="M375 -12c-218 0 -320 158 -320 375c0 216 119 374 334 374c213 0 315 -158 315 -359c0 -236 -114 -390 -329 -390zM379 47c149 0 256 106 256 321c0 200 -100 310 -248 310c-150 0 -262 -111 -262 -315c0 -205 104 -316 254 -316zM539 797h-303v57h303v-57z" />
    <glyph glyph-name="omacron" unicode="&#x14d;" horiz-adv-x="574" 
d="M285 -12c-173 0 -230 115 -230 265c0 166 86 268 243 268c156 0 221 -103 221 -255c0 -168 -67 -278 -234 -278zM290 45c98 0 159 60 159 215c0 152 -57 203 -155 203c-101 0 -170 -62 -170 -206c0 -143 55 -212 166 -212zM439 636h-283v57h283v-57z" />
    <glyph glyph-name="Obreve" unicode="&#x14e;" horiz-adv-x="759" 
d="M375 -12c-218 0 -320 158 -320 375c0 216 119 374 334 374c213 0 315 -158 315 -359c0 -236 -114 -390 -329 -390zM379 47c149 0 256 106 256 321c0 200 -100 310 -248 310c-150 0 -262 -111 -262 -315c0 -205 104 -316 254 -316zM390 833c48 0 79 18 89 74l54 -5
c-9 -75 -57 -120 -145 -120c-84 0 -126 40 -134 119l54 6c10 -56 35 -74 82 -74z" />
    <glyph glyph-name="obreve" unicode="&#x14f;" horiz-adv-x="574" 
d="M285 -12c-173 0 -230 115 -230 265c0 166 86 268 243 268c156 0 221 -103 221 -255c0 -168 -67 -278 -234 -278zM290 45c98 0 159 60 159 215c0 152 -57 203 -155 203c-101 0 -170 -62 -170 -206c0 -143 55 -212 166 -212zM389 730l53 -5c0 -93 -49 -152 -147 -152
c-92 0 -137 49 -139 150l54 7c5 -81 32 -106 87 -106c57 0 89 25 92 106z" />
    <glyph glyph-name="Ohungarumlaut" unicode="&#x150;" horiz-adv-x="759" 
d="M375 -12c-218 0 -320 158 -320 375c0 216 119 374 334 374c213 0 315 -158 315 -359c0 -236 -114 -390 -329 -390zM379 47c149 0 256 106 256 321c0 200 -100 310 -248 310c-150 0 -262 -111 -262 -315c0 -205 104 -316 254 -316zM448 912l-107 -145l-54 13l72 132h89z
M595 916l-137 -149l-54 13l102 136h89z" />
    <glyph glyph-name="ohungarumlaut" unicode="&#x151;" horiz-adv-x="574" 
d="M285 -12c-173 0 -230 115 -230 265c0 166 86 268 243 268c156 0 221 -103 221 -255c0 -168 -67 -278 -234 -278zM290 45c98 0 159 60 159 215c0 152 -57 203 -155 203c-101 0 -170 -62 -170 -206c0 -143 55 -212 166 -212zM369 748l-121 -176l-52 13l85 163h88zM512 749
l-142 -177l-52 13l106 164h88z" />
    <glyph glyph-name="OE" unicode="&#x152;" horiz-adv-x="1097" 
d="M697 338v-282h352v-56h-411v129c-52 -90 -139 -141 -263 -141c-218 0 -320 158 -320 375c0 216 119 374 334 374c119 0 200 -50 249 -129v116h401v-56h-342v-274h320v-56h-320zM379 47c149 0 256 106 256 321c0 200 -100 310 -248 310c-150 0 -262 -111 -262 -315
c0 -205 104 -316 254 -316z" />
    <glyph glyph-name="oe" unicode="&#x153;" horiz-adv-x="935" 
d="M679 48c80 0 113 33 129 97l63 -12c-22 -101 -103 -145 -197 -145c-106 0 -164 44 -194 109c-33 -69 -94 -109 -195 -109c-173 0 -230 115 -230 265c0 166 86 268 243 268c98 0 156 -41 187 -109c40 75 112 109 196 109c140 0 197 -94 197 -216c0 -20 -2 -42 -5 -63h-358
c4 -153 75 -194 164 -194zM290 45c98 0 159 60 159 215c0 152 -57 203 -155 203c-101 0 -170 -62 -170 -206c0 -143 55 -212 166 -212zM516 296h292c2 105 -38 167 -133 167c-78 0 -154 -48 -159 -167z" />
    <glyph glyph-name="Racute" unicode="&#x154;" horiz-adv-x="633" 
d="M425 329l183 -329h-73l-174 312h-190v-312h-66v724h234c180 0 232 -98 232 -194c0 -109 -58 -174 -146 -201zM171 370h157c105 0 173 36 173 159c0 112 -75 137 -188 137h-142v-296zM427 912l-137 -145l-54 13l102 132h89z" />
    <glyph glyph-name="racute" unicode="&#x155;" horiz-adv-x="352" 
d="M341 521v-70c-63 11 -142 -18 -184 -59v-392h-67v511h55l6 -71c49 66 104 82 174 81h16zM330 749l-142 -177l-52 13l106 164h88z" />
    <glyph glyph-name="Rcommaaccent" unicode="&#x156;" horiz-adv-x="633" 
d="M425 329l183 -329h-73l-174 312h-190v-312h-66v724h234c180 0 232 -98 232 -194c0 -109 -58 -174 -146 -201zM171 370h157c105 0 173 36 173 159c0 112 -75 137 -188 137h-142v-296zM272 -220l36 151h79l-62 -159z" />
    <glyph glyph-name="rcommaaccent" unicode="&#x157;" horiz-adv-x="352" 
d="M341 521v-70c-63 11 -142 -18 -184 -59v-392h-67v511h55l6 -71c49 66 104 82 174 81h16zM62 -220l36 151h79l-62 -159z" />
    <glyph glyph-name="Rcaron" unicode="&#x158;" horiz-adv-x="633" 
d="M425 329l183 -329h-73l-174 312h-190v-312h-66v724h234c180 0 232 -98 232 -194c0 -109 -58 -174 -146 -201zM171 370h157c105 0 173 36 173 159c0 112 -75 137 -188 137h-142v-296zM222 901l90 -81l88 83l57 -10l-120 -122h-54l-120 122z" />
    <glyph glyph-name="rcaron" unicode="&#x159;" horiz-adv-x="352" 
d="M341 521v-70c-63 11 -142 -18 -184 -59v-392h-67v511h55l6 -71c49 66 104 82 174 81h16zM64 737l60 6l92 -122l94 124l53 -8l-114 -165h-67z" />
    <glyph glyph-name="Sacute" unicode="&#x15a;" horiz-adv-x="591" 
d="M307 677c-125 0 -168 -57 -168 -129c0 -209 400 -96 400 -355c0 -148 -117 -205 -247 -205c-160 0 -236 70 -257 201l67 10c19 -81 59 -153 190 -153c83 0 176 29 176 138c0 220 -400 88 -400 361c0 117 99 192 236 192c126 0 214 -54 231 -201l-64 -8
c-14 70 -42 149 -164 149zM411 912l-137 -145l-54 13l102 132h89z" />
    <glyph glyph-name="sacute" unicode="&#x15b;" horiz-adv-x="481" 
d="M245 521c123 0 167 -61 179 -154l-66 -8c-12 67 -31 105 -115 105c-89 0 -110 -39 -110 -83c0 -60 45 -74 122 -93c94 -23 178 -43 178 -154c0 -88 -66 -146 -189 -146c-112 0 -183 43 -198 155l64 11c14 -61 38 -108 137 -108c67 0 118 20 118 85c0 60 -42 72 -116 91
c-85 22 -185 35 -185 152c0 99 85 147 181 147zM359 749l-142 -177l-52 13l106 164h88z" />
    <glyph glyph-name="Scircumflex" unicode="&#x15c;" horiz-adv-x="591" 
d="M307 677c-125 0 -168 -57 -168 -129c0 -209 400 -96 400 -355c0 -148 -117 -205 -247 -205c-160 0 -236 70 -257 201l67 10c19 -81 59 -153 190 -153c83 0 176 29 176 138c0 220 -400 88 -400 361c0 117 99 192 236 192c126 0 214 -54 231 -201l-64 -8
c-14 70 -42 149 -164 149zM391 769l-90 81l-88 -83l-57 10l120 122h54l120 -122z" />
    <glyph glyph-name="scircumflex" unicode="&#x15d;" horiz-adv-x="481" 
d="M245 521c123 0 167 -61 179 -154l-66 -8c-12 67 -31 105 -115 105c-89 0 -110 -39 -110 -83c0 -60 45 -74 122 -93c94 -23 178 -43 178 -154c0 -88 -66 -146 -189 -146c-112 0 -183 43 -198 155l64 11c14 -61 38 -108 137 -108c67 0 118 20 118 85c0 60 -42 72 -116 91
c-85 22 -185 35 -185 152c0 99 85 147 181 147zM396 584l-56 -6l-96 122l-92 -124l-55 8l114 165h67z" />
    <glyph glyph-name="Scedilla" unicode="&#x15e;" horiz-adv-x="591" 
d="M208 -203l15 43c11 -7 33 -17 56 -17c33 0 49 22 49 48c0 33 -19 49 -76 50l9 68c-139 9 -207 77 -226 200l67 10c19 -81 59 -153 190 -153c83 0 176 29 176 138c0 220 -400 88 -400 361c0 117 99 192 236 192c126 0 214 -54 231 -201l-64 -8c-14 70 -42 149 -164 149
c-125 0 -168 -57 -168 -129c0 -209 400 -96 400 -355c0 -140 -104 -198 -225 -204l-4 -33c40 -8 76 -29 76 -86c0 -56 -44 -94 -101 -94c-39 0 -64 12 -77 21z" />
    <glyph glyph-name="scedilla" unicode="&#x15f;" horiz-adv-x="481" 
d="M158 -203l15 43c11 -7 33 -17 56 -17c33 0 49 22 49 48c0 33 -19 49 -76 50l9 69c-93 8 -152 52 -165 153l64 11c14 -61 38 -108 137 -108c67 0 118 20 118 85c0 60 -42 72 -116 91c-85 22 -185 35 -185 152c0 99 85 147 181 147c123 0 167 -61 179 -154l-66 -8
c-12 67 -31 105 -115 105c-89 0 -110 -39 -110 -83c0 -60 45 -74 122 -93c94 -23 178 -43 178 -154c0 -83 -59 -139 -169 -145l-4 -33c40 -8 76 -29 76 -86c0 -56 -44 -94 -101 -94c-39 0 -64 12 -77 21z" />
    <glyph glyph-name="Scaron" unicode="&#x160;" horiz-adv-x="591" 
d="M307 677c-125 0 -168 -57 -168 -129c0 -209 400 -96 400 -355c0 -148 -117 -205 -247 -205c-160 0 -236 70 -257 201l67 10c19 -81 59 -153 190 -153c83 0 176 29 176 138c0 220 -400 88 -400 361c0 117 99 192 236 192c126 0 214 -54 231 -201l-64 -8
c-14 70 -42 149 -164 149zM214 901l90 -81l88 83l57 -10l-120 -122h-54l-120 122z" />
    <glyph glyph-name="scaron" unicode="&#x161;" horiz-adv-x="481" 
d="M245 521c123 0 167 -61 179 -154l-66 -8c-12 67 -31 105 -115 105c-89 0 -110 -39 -110 -83c0 -60 45 -74 122 -93c94 -23 178 -43 178 -154c0 -88 -66 -146 -189 -146c-112 0 -183 43 -198 155l64 11c14 -61 38 -108 137 -108c67 0 118 20 118 85c0 60 -42 72 -116 91
c-85 22 -185 35 -185 152c0 99 85 147 181 147zM93 737l60 6l92 -122l94 124l53 -8l-114 -165h-67z" />
    <glyph glyph-name="Scommaaccent" unicode="&#x218;" horiz-adv-x="591" 
d="M307 677c-125 0 -168 -57 -168 -129c0 -209 400 -96 400 -355c0 -148 -117 -205 -247 -205c-160 0 -236 70 -257 201l67 10c19 -81 59 -153 190 -153c83 0 176 29 176 138c0 220 -400 88 -400 361c0 117 99 192 236 192c126 0 214 -54 231 -201l-64 -8
c-14 70 -42 149 -164 149zM234 -220l36 151h79l-62 -159z" />
    <glyph glyph-name="scommaaccent" unicode="&#x219;" horiz-adv-x="481" 
d="M245 521c123 0 167 -61 179 -154l-66 -8c-12 67 -31 105 -115 105c-89 0 -110 -39 -110 -83c0 -60 45 -74 122 -93c94 -23 178 -43 178 -154c0 -88 -66 -146 -189 -146c-112 0 -183 43 -198 155l64 11c14 -61 38 -108 137 -108c67 0 118 20 118 85c0 60 -42 72 -116 91
c-85 22 -185 35 -185 152c0 99 85 147 181 147zM181 -220l36 151h79l-62 -159z" />
    <glyph glyph-name="uni0162" unicode="&#x162;" horiz-adv-x="538" 
d="M187 -203l15 43c11 -7 33 -17 56 -17c33 0 49 22 49 48c0 33 -19 49 -76 50l11 79h-6v666h-221v58h508v-58h-220v-666h-8l-6 -44c40 -8 76 -29 76 -86c0 -56 -44 -94 -101 -94c-39 0 -64 12 -77 21z" />
    <glyph glyph-name="uni0163" unicode="&#x163;" horiz-adv-x="366" 
d="M130 -203l15 43c11 -7 33 -17 56 -17c33 0 49 22 49 48c0 33 -19 49 -76 50l10 74c-55 14 -82 55 -82 130v330h-80v56h80v147l67 10v-157h143v-56h-143v-321c0 -58 12 -91 79 -91c31 0 69 13 91 26l15 -49c-25 -17 -75 -32 -116 -32h-2l-4 -32c40 -8 76 -29 76 -86
c0 -56 -44 -94 -101 -94c-39 0 -64 12 -77 21z" />
    <glyph glyph-name="Tcaron" unicode="&#x164;" horiz-adv-x="538" 
d="M303 0h-67v666h-221v58h508v-58h-220v-666zM180 901l90 -81l88 83l57 -10l-120 -122h-54l-120 122z" />
    <glyph glyph-name="tcaron" unicode="&#x165;" horiz-adv-x="366" 
d="M339 69l15 -49c-25 -17 -75 -32 -116 -32c-91 0 -136 41 -136 137v330h-80v56h80v147l67 10v-157h143v-56h-143v-321c0 -58 12 -91 79 -91c31 0 69 13 91 26zM228 565l33 190h77l-60 -198z" />
    <glyph glyph-name="Tbar" unicode="&#x166;" horiz-adv-x="538" 
d="M92 341v57h144v268h-221v58h508v-58h-220v-268h143v-57h-143v-341h-67v341h-144z" />
    <glyph glyph-name="tbar" unicode="&#x167;" horiz-adv-x="366" 
d="M339 69l15 -49c-25 -17 -75 -32 -116 -32c-91 0 -136 41 -136 137v119h-80v56h80v155h-80v56h80v147l67 10v-157h143v-56h-143v-155h143v-56h-143v-110c0 -58 12 -91 79 -91c31 0 69 13 91 26z" />
    <glyph glyph-name="uni021A" unicode="&#x21a;" horiz-adv-x="538" 
d="M303 0h-67v666h-221v58h508v-58h-220v-666zM203 -220l36 151h79l-62 -159z" />
    <glyph glyph-name="uni021B" unicode="&#x21b;" horiz-adv-x="366" 
d="M339 69l15 -49c-25 -17 -75 -32 -116 -32c-91 0 -136 41 -136 137v330h-80v56h80v147l67 10v-157h143v-56h-143v-321c0 -58 12 -91 79 -91c31 0 69 13 91 26zM151 -220l36 151h79l-62 -159z" />
    <glyph glyph-name="Utilde" unicode="&#x168;" horiz-adv-x="716" 
d="M359 47c122 0 190 47 190 191v486h67v-489c0 -166 -94 -247 -263 -247c-180 0 -253 88 -253 248v488h67v-484c0 -143 73 -193 192 -193zM282 892c62 0 107 -47 152 -47c26 0 41 7 41 55l47 -2c10 -82 -34 -112 -82 -112c-60 0 -108 47 -155 47c-21 0 -39 -11 -37 -57
l-46 2c-10 83 36 114 80 114z" />
    <glyph glyph-name="utilde" unicode="&#x169;" horiz-adv-x="582" 
d="M89 166v345h67v-338c0 -78 24 -124 103 -124c67 0 139 45 170 73v389h67v-511h-59l-4 64c-55 -41 -121 -74 -192 -74c-109 0 -152 61 -152 176zM215 708c62 0 107 -47 152 -47c26 0 41 7 41 55l47 -2c10 -82 -35 -112 -82 -112c-60 0 -108 47 -155 47
c-21 0 -39 -11 -37 -57l-46 2c-10 82 36 114 80 114z" />
    <glyph glyph-name="Umacron" unicode="&#x16a;" horiz-adv-x="716" 
d="M359 47c122 0 190 47 190 191v486h67v-489c0 -166 -94 -247 -263 -247c-180 0 -253 88 -253 248v488h67v-484c0 -143 73 -193 192 -193zM519 797h-303v57h303v-57z" />
    <glyph glyph-name="umacron" unicode="&#x16b;" horiz-adv-x="582" 
d="M89 166v345h67v-338c0 -78 24 -124 103 -124c67 0 139 45 170 73v389h67v-511h-59l-4 64c-55 -41 -121 -74 -192 -74c-109 0 -152 61 -152 176zM434 636h-283v57h283v-57z" />
    <glyph glyph-name="Ubreve" unicode="&#x16c;" horiz-adv-x="716" 
d="M359 47c122 0 190 47 190 191v486h67v-489c0 -166 -94 -247 -263 -247c-180 0 -253 88 -253 248v488h67v-484c0 -143 73 -193 192 -193zM360 833c48 0 79 18 89 74l54 -5c-9 -75 -57 -120 -145 -120c-84 0 -126 40 -134 119l54 6c10 -56 35 -74 82 -74z" />
    <glyph glyph-name="ubreve" unicode="&#x16d;" horiz-adv-x="582" 
d="M89 166v345h67v-338c0 -78 24 -124 103 -124c67 0 139 45 170 73v389h67v-511h-59l-4 64c-55 -41 -121 -74 -192 -74c-109 0 -152 61 -152 176zM384 730l53 -5c0 -93 -49 -152 -147 -152c-92 0 -137 49 -139 150l54 7c5 -81 32 -106 87 -106c57 0 89 25 92 106z" />
    <glyph glyph-name="Uring" unicode="&#x16e;" horiz-adv-x="716" 
d="M359 47c122 0 190 47 190 191v486h67v-489c0 -166 -94 -247 -263 -247c-180 0 -253 88 -253 248v488h67v-484c0 -143 73 -193 192 -193zM462 832c0 -62 -40 -99 -104 -99c-62 0 -103 35 -103 94c0 68 48 101 103 101c57 0 104 -29 104 -96zM358 778c34 0 51 22 51 54
c0 33 -18 50 -51 50c-30 0 -52 -18 -52 -53c0 -32 18 -51 52 -51z" />
    <glyph glyph-name="uring" unicode="&#x16f;" horiz-adv-x="582" 
d="M89 166v345h67v-338c0 -78 24 -124 103 -124c67 0 139 45 170 73v389h67v-511h-59l-4 64c-55 -41 -121 -74 -192 -74c-109 0 -152 61 -152 176zM396 674c0 -62 -40 -99 -104 -99c-62 0 -103 35 -103 94c0 68 48 101 103 101c57 0 104 -29 104 -96zM292 620
c34 0 51 22 51 54c0 33 -18 50 -51 50c-30 0 -52 -18 -52 -53c0 -32 18 -51 52 -51z" />
    <glyph glyph-name="Uhungarumlaut" unicode="&#x170;" horiz-adv-x="716" 
d="M359 47c122 0 190 47 190 191v486h67v-489c0 -166 -94 -247 -263 -247c-180 0 -253 88 -253 248v488h67v-484c0 -143 73 -193 192 -193zM418 912l-107 -145l-54 13l72 132h89zM565 916l-137 -149l-54 13l102 136h89z" />
    <glyph glyph-name="uhungarumlaut" unicode="&#x171;" horiz-adv-x="582" 
d="M89 166v345h67v-338c0 -78 24 -124 103 -124c67 0 139 45 170 73v389h67v-511h-59l-4 64c-55 -41 -121 -74 -192 -74c-109 0 -152 61 -152 176zM364 748l-121 -176l-52 13l85 163h88zM507 749l-142 -177l-52 13l106 164h88z" />
    <glyph glyph-name="Uogonek" unicode="&#x172;" horiz-adv-x="716" 
d="M484 -129l41 -22c-22 -49 -69 -71 -110 -71c-53 0 -93 30 -93 84s34 96 70 128c-13 -1 -26 -2 -39 -2c-180 0 -253 88 -253 248v488h67v-484c0 -143 73 -193 192 -193c122 0 190 47 190 191v486h67v-489c0 -118 -47 -180 -126 -230c-61 -38 -103 -80 -103 -132
c0 -25 14 -41 40 -41c23 0 41 12 57 39z" />
    <glyph glyph-name="uogonek" unicode="&#x173;" horiz-adv-x="582" 
d="M499 -129l41 -22c-22 -49 -69 -71 -110 -71c-53 0 -93 30 -93 84c0 69 57 114 99 147l-3 55c-55 -41 -121 -74 -192 -74c-109 0 -152 61 -152 176v345h67v-338c0 -78 24 -124 103 -124c67 0 139 45 170 73v389h67v-511c-53 -43 -94 -75 -94 -127c0 -25 14 -41 40 -41
c23 0 41 12 57 39z" />
    <glyph glyph-name="Wcircumflex" unicode="&#x174;" horiz-adv-x="858" 
d="M686 0h-85l-169 640v0l-174 -640h-78l-160 724h71l132 -644v0l172 644h77l171 -654v0l129 654h66zM521 769l-90 81l-88 -83l-57 10l120 122h54l120 -122z" />
    <glyph glyph-name="wcircumflex" unicode="&#x175;" horiz-adv-x="737" 
d="M254 0h-80l-164 511h69l136 -443v0l121 443h73l119 -441v0l135 441h64l-161 -511h-81l-115 436v0zM525 584l-56 -6l-96 122l-92 -124l-55 8l114 165h67z" />
    <glyph glyph-name="Wgrave" unicode="&#x1e80;" horiz-adv-x="858" 
d="M686 0h-85l-169 640v0l-174 -640h-78l-160 724h71l132 -644v0l172 644h77l171 -654v0l129 654h66zM464 767l-137 145h89l102 -132z" />
    <glyph glyph-name="wgrave" unicode="&#x1e81;" horiz-adv-x="737" 
d="M254 0h-80l-164 511h69l136 -443v0l121 443h73l119 -441v0l135 441h64l-161 -511h-81l-115 436v0zM404 572l-142 177h88l106 -164z" />
    <glyph glyph-name="Wacute" unicode="&#x1e82;" horiz-adv-x="858" 
d="M686 0h-85l-169 640v0l-174 -640h-78l-160 724h71l132 -644v0l172 644h77l171 -654v0l129 654h66zM541 912l-137 -145l-54 13l102 132h89z" />
    <glyph glyph-name="wacute" unicode="&#x1e83;" horiz-adv-x="737" 
d="M254 0h-80l-164 511h69l136 -443v0l121 443h73l119 -441v0l135 441h64l-161 -511h-81l-115 436v0zM488 749l-142 -177l-52 13l106 164h88z" />
    <glyph glyph-name="Wdieresis" unicode="&#x1e84;" horiz-adv-x="858" 
d="M686 0h-85l-169 640v0l-174 -640h-78l-160 724h71l132 -644v0l172 644h77l171 -654v0l129 654h66zM386 833c0 -32 -21 -51 -52 -51c-32 0 -53 19 -53 51c0 31 21 51 53 51c31 0 52 -20 52 -51zM585 833c0 -32 -21 -51 -52 -51c-32 0 -53 19 -53 51c0 31 21 51 53 51
c31 0 52 -20 52 -51z" />
    <glyph glyph-name="wdieresis" unicode="&#x1e85;" horiz-adv-x="737" 
d="M254 0h-80l-164 511h69l136 -443v0l121 443h73l119 -441v0l135 441h64l-161 -511h-81l-115 436v0zM325 668c0 -32 -21 -51 -52 -51c-32 0 -53 19 -53 51c0 31 21 51 53 51c31 0 52 -20 52 -51zM524 668c0 -32 -21 -51 -52 -51c-32 0 -53 19 -53 51c0 31 21 51 53 51
c31 0 52 -20 52 -51z" />
    <glyph glyph-name="Ygrave" unicode="&#x1ef2;" horiz-adv-x="550" 
d="M313 287v-287h-67v284l-246 440h74l207 -373v0l201 373h68zM300 767l-137 145h89l102 -132z" />
    <glyph glyph-name="ygrave" unicode="&#x1ef3;" horiz-adv-x="469" 
d="M201 -4l-188 515h72l150 -432v0l156 432h68c-63 -168 -140 -370 -206 -541c-54 -146 -91 -193 -180 -193c-37 0 -73 10 -92 18l10 52c16 -5 55 -15 84 -15c48 0 89 35 126 164zM254 572l-142 177h88l106 -164z" />
    <glyph glyph-name="Ycircumflex" unicode="&#x176;" horiz-adv-x="550" 
d="M313 287v-287h-67v284l-246 440h74l207 -373v0l201 373h68zM363 769l-90 81l-88 -83l-57 10l120 122h54l120 -122z" />
    <glyph glyph-name="ycircumflex" unicode="&#x177;" horiz-adv-x="469" 
d="M201 -4l-188 515h72l150 -432v0l156 432h68c-63 -168 -140 -370 -206 -541c-54 -146 -91 -193 -180 -193c-37 0 -73 10 -92 18l10 52c16 -5 55 -15 84 -15c48 0 89 35 126 164zM387 584l-56 -6l-96 122l-92 -124l-55 8l114 165h67z" />
    <glyph glyph-name="Ydieresis" unicode="&#x178;" horiz-adv-x="550" 
d="M313 287v-287h-67v284l-246 440h74l207 -373v0l201 373h68zM228 833c0 -32 -21 -51 -52 -51c-32 0 -53 19 -53 51c0 31 21 51 53 51c31 0 52 -20 52 -51zM427 833c0 -32 -21 -51 -52 -51c-32 0 -53 19 -53 51c0 31 21 51 53 51c31 0 52 -20 52 -51z" />
    <glyph glyph-name="Zacute" unicode="&#x179;" horiz-adv-x="586" 
d="M524 674l-404 -616h421v-58h-504v48l404 618h-392v58h475v-50zM389 912l-137 -145l-54 13l102 132h89z" />
    <glyph glyph-name="zacute" unicode="&#x17a;" horiz-adv-x="456" 
d="M419 463l-309 -407h319v-56h-397v47l308 408h-303v56h382v-48zM358 749l-142 -177l-52 13l106 164h88z" />
    <glyph glyph-name="Zdotaccent" unicode="&#x17b;" horiz-adv-x="586" 
d="M524 674l-404 -616h421v-58h-504v48l404 618h-392v58h475v-50zM335 835c0 -34 -20 -53 -54 -53s-54 19 -54 53s20 53 54 53s54 -19 54 -53z" />
    <glyph glyph-name="zdotaccent" unicode="&#x17c;" horiz-adv-x="456" 
d="M419 463l-309 -407h319v-56h-397v47l308 408h-303v56h382v-48zM284 678c0 -34 -20 -53 -54 -53s-54 19 -54 53s20 53 54 53s54 -19 54 -53z" />
    <glyph glyph-name="Zcaron" unicode="&#x17d;" horiz-adv-x="586" 
d="M524 674l-404 -616h421v-58h-504v48l404 618h-392v58h475v-50zM192 901l90 -81l88 83l57 -10l-120 -122h-54l-120 122z" />
    <glyph glyph-name="zcaron" unicode="&#x17e;" horiz-adv-x="456" 
d="M419 463l-309 -407h319v-56h-397v47l308 408h-303v56h382v-48zM79 737l60 6l92 -122l94 124l53 -8l-114 -165h-67z" />
    <glyph glyph-name="longs" unicode="&#x17f;" horiz-adv-x="282" 
d="M313 748l-3 -54c-20 7 -49 13 -73 13c-47 0 -80 -21 -80 -93v-614h-67v604c0 106 47 160 138 160c37 0 68 -8 85 -16z" />
    <glyph glyph-name="dotlessj" unicode="&#x237;" horiz-adv-x="239" 
d="M26 -223c-24 0 -69 6 -86 16l9 55c22 -8 50 -14 73 -14c43 0 68 23 68 83v594h67v-590c0 -99 -44 -144 -131 -144z" />
    <glyph glyph-name="s_t" unicode="&#xfb06;" horiz-adv-x="817" 
d="M790 69l15 -49c-25 -17 -75 -32 -116 -32c-114 0 -136 55 -136 186v484l67 10v-157h143v-56h-143v-321c0 -56 12 -91 79 -91c31 0 69 13 91 26zM245 521c123 0 167 -61 179 -154l-66 -8c-12 67 -31 105 -115 105c-89 0 -110 -39 -110 -83c0 -134 300 -52 300 -247
c0 -88 -66 -146 -189 -146c-112 0 -183 43 -198 155l64 11c14 -61 38 -108 137 -108c67 0 118 20 118 85c0 137 -301 45 -301 243c0 99 85 147 181 147z" />
    <glyph glyph-name="s_p" horiz-adv-x="1038" 
d="M551 -212v723h59l4 -62c47 39 105 72 184 72c107 0 185 -66 185 -253c0 -199 -100 -280 -216 -280c-60 0 -113 28 -151 56v-256h-65zM618 390v-284c25 -19 81 -61 149 -61c109 0 148 93 148 226c0 140 -43 195 -134 195c-65 0 -130 -42 -163 -76zM245 521
c123 0 167 -61 179 -154l-66 -8c-12 67 -31 105 -115 105c-89 0 -110 -39 -110 -83c0 -60 45 -74 122 -93c94 -23 178 -43 178 -154c0 -88 -66 -146 -189 -146c-112 0 -183 43 -198 155l64 11c14 -61 38 -108 137 -108c67 0 118 20 118 85c0 60 -42 72 -116 91
c-85 22 -185 35 -185 152c0 99 85 147 181 147z" />
    <glyph glyph-name="c_t" horiz-adv-x="871" 
d="M285 -12c-168 0 -230 110 -230 264c0 179 90 269 242 269c101 0 180 -57 186 -171l-67 -9c-9 82 -47 122 -125 122c-80 0 -166 -44 -166 -202c0 -168 82 -213 164 -213c74 0 121 32 135 113l63 -13c-17 -114 -107 -160 -202 -160zM844 69l15 -49
c-25 -17 -75 -32 -116 -32c-91 0 -136 41 -136 137v533l67 10v-157h143v-56h-143v-321c0 -58 12 -91 79 -91c31 0 69 13 91 26z" />
    <glyph glyph-name="c_h" horiz-adv-x="1098" 
d="M285 -12c-168 0 -230 110 -230 264c0 179 90 269 242 269c101 0 180 -57 186 -171l-67 -9c-9 82 -47 122 -125 122c-80 0 -166 -44 -166 -202c0 -168 82 -213 164 -213c74 0 121 32 135 113l63 -13c-17 -114 -107 -160 -202 -160zM1016 345v-345h-67v338
c0 78 -27 124 -106 124c-67 0 -139 -45 -170 -73v-389h-67v755h67v-307c55 41 117 73 188 73c109 0 155 -61 155 -176z" />
    <glyph glyph-name="c_k" horiz-adv-x="1034" 
d="M285 -12c-168 0 -230 110 -230 264c0 179 90 269 242 269c101 0 180 -57 186 -171l-67 -9c-9 82 -47 122 -125 122c-80 0 -166 -44 -166 -202c0 -168 82 -213 164 -213c74 0 121 32 135 113l63 -13c-17 -114 -107 -160 -202 -160zM673 755v-491l240 247h78l-180 -185
l193 -326h-73l-168 278l-90 -92v-186h-67v755h67z" />
    <glyph glyph-name="T_h" horiz-adv-x="1036" 
d="M954 345v-345h-67v338c0 78 -27 124 -106 124c-67 0 -139 -45 -170 -73v-389h-67v666h-241v-666h-67v666h-221v58h529v31h67v-307c55 41 117 73 188 73c109 0 155 -61 155 -176z" />
    <glyph glyph-name="a.smcp" unicode="&#xf605;" horiz-adv-x="534" 
d="M220 550h89l196 -550h-74l-58 167h-219l-57 -167h-67zM356 223l-92 270v0l-93 -270h185z" />
    <glyph glyph-name="b.smcp" unicode="&#xf606;" horiz-adv-x="500" 
d="M252 0h-175v550h194c133 0 170 -59 170 -134c0 -78 -53 -116 -116 -129v-2c93 -12 135 -61 135 -136c0 -113 -86 -149 -208 -149zM143 54h101c83 0 146 13 146 98c0 92 -77 102 -167 102h-80v-200zM143 307h86c62 0 143 18 143 100c0 84 -52 89 -154 89h-75v-189z" />
    <glyph glyph-name="c.smcp" unicode="&#xf607;" horiz-adv-x="540" 
d="M287 -9c-177 0 -247 111 -247 275c0 187 103 294 262 294c118 0 199 -56 209 -183l-62 -6c-12 87 -53 134 -147 134c-120 0 -194 -79 -194 -233c0 -160 68 -227 183 -227c91 0 138 39 157 119l59 -12c-21 -120 -122 -161 -220 -161z" />
    <glyph glyph-name="d.smcp" unicode="&#xf608;" horiz-adv-x="573" 
d="M235 0h-158v550h171c196 0 280 -102 280 -267c0 -168 -91 -283 -293 -283zM144 55h93c148 0 222 81 222 218c0 172 -80 222 -217 222h-98v-440z" />
    <glyph glyph-name="e.smcp" unicode="&#xf609;" horiz-adv-x="454" 
d="M144 250v-194h270v-56h-337v550h328v-56h-261v-188h244v-56h-244z" />
    <glyph glyph-name="f.smcp" unicode="&#xf60a;" horiz-adv-x="427" 
d="M144 240v-240h-67v550h327v-56h-260v-198h241v-56h-241z" />
    <glyph glyph-name="g.smcp" unicode="&#xf60b;" horiz-adv-x="581" 
d="M462 0l-10 75c-20 -47 -91 -84 -171 -84c-170 0 -241 114 -241 277c0 188 100 292 263 292c118 0 198 -51 208 -182l-63 -6c-9 93 -58 133 -147 133c-121 0 -192 -85 -192 -231c0 -176 79 -230 185 -230c103 0 154 72 154 138v50h-155v53h218v-285h-49z" />
    <glyph glyph-name="h.smcp" unicode="&#xf60c;" horiz-adv-x="568" 
d="M491 550v-550h-67v253h-280v-253h-67v550h67v-240h280v240h67z" />
    <glyph glyph-name="i.smcp" unicode="&#xf60d;" horiz-adv-x="221" 
d="M144 550v-550h-67v550h67z" />
    <glyph glyph-name="j.smcp" unicode="&#xf60e;" horiz-adv-x="387" 
d="M251 134v416h67v-413c0 -110 -60 -146 -154 -146c-91 0 -139 38 -143 125l64 10c6 -49 18 -80 82 -80c47 0 84 13 84 88z" />
    <glyph glyph-name="k.smcp" unicode="&#xf60f;" horiz-adv-x="500" 
d="M144 550v-272l257 272h76l-224 -237l236 -313h-79l-203 264l-63 -66v-198h-67v550h67z" />
    <glyph glyph-name="l.smcp" unicode="&#xf610;" horiz-adv-x="429" 
d="M144 550v-493h255v-57h-322v550h67z" />
    <glyph glyph-name="m.smcp" unicode="&#xf611;" horiz-adv-x="699" 
d="M622 550v-550h-63v481h-1l-174 -481h-72l-172 482h-1v-482h-62v550h102l171 -477h1l170 477h101z" />
    <glyph glyph-name="n.smcp" unicode="&#xf612;" horiz-adv-x="582" 
d="M505 0h-82l-283 471v-471h-63v550h90l276 -466v466h62v-550z" />
    <glyph glyph-name="o.smcp" unicode="&#xf613;" horiz-adv-x="592" 
d="M293 -9c-174 0 -253 119 -253 284c0 164 93 285 264 285c170 0 248 -121 248 -274c0 -179 -88 -295 -259 -295zM296 47c109 0 187 74 187 232c0 147 -72 225 -181 225c-111 0 -192 -79 -192 -228c0 -151 75 -229 186 -229z" />
    <glyph glyph-name="p.smcp" unicode="&#xf614;" horiz-adv-x="480" 
d="M143 203v-203h-66v550h181c145 0 188 -76 188 -164c0 -130 -80 -183 -215 -183h-88zM143 259h84c84 0 150 18 150 124c0 95 -56 112 -169 112h-65v-236z" />
    <glyph glyph-name="q.smcp" unicode="&#xf615;" horiz-adv-x="592" 
d="M293 -9c-173 0 -253 119 -253 284c0 164 93 285 264 285c170 0 248 -121 248 -274c0 -95 -25 -171 -75 -223l70 -74l-40 -36l-72 75c-38 -24 -86 -37 -142 -37zM296 46c36 0 70 9 99 26l-103 109l41 38l101 -112c31 40 50 97 50 172c0 147 -73 225 -182 225
c-111 0 -192 -79 -192 -228c0 -151 76 -230 186 -230z" />
    <glyph glyph-name="r.smcp" unicode="&#xf616;" horiz-adv-x="504" 
d="M340 248l139 -248h-72l-131 231h-133v-231h-66v550h191c140 0 182 -74 182 -149c0 -82 -44 -131 -110 -153zM143 286h110c76 0 127 25 127 112c0 78 -53 97 -136 97h-101v-209z" />
    <glyph glyph-name="s.smcp" unicode="&#xf617;" horiz-adv-x="472" 
d="M242 505c-89 0 -121 -39 -121 -90c0 -153 308 -64 308 -264c0 -115 -94 -160 -198 -160c-119 0 -189 47 -204 157l65 9c13 -59 42 -112 140 -112c61 0 128 21 128 97c0 156 -308 60 -308 268c0 93 80 150 189 150c98 0 172 -38 184 -154l-63 -8c-9 53 -31 107 -120 107z
" />
    <glyph glyph-name="t.smcp" unicode="&#xf618;" horiz-adv-x="430" 
d="M249 0h-67v494h-171v56h408v-56h-170v-494z" />
    <glyph glyph-name="u.smcp" unicode="&#xf619;" horiz-adv-x="557" 
d="M279 49c92 0 139 36 139 141v360h67v-367c0 -131 -77 -192 -210 -192c-144 0 -203 67 -203 193v366h67v-358c0 -104 50 -143 140 -143z" />
    <glyph glyph-name="v.smcp" unicode="&#xf61a;" horiz-adv-x="481" 
d="M291 0h-91l-191 550h75l163 -489h1l156 489h68z" />
    <glyph glyph-name="w.smcp" unicode="&#xf61b;" horiz-adv-x="700" 
d="M561 0h-85l-123 462h-1l-126 -462h-82l-124 550h71l97 -474h1l127 474h75l127 -481h1l94 481h67z" />
    <glyph glyph-name="x.smcp" unicode="&#xf61c;" horiz-adv-x="485" 
d="M457 550l-177 -268l193 -282h-76l-159 231l-153 -231h-73l186 279l-177 271h75l144 -222l146 222h71z" />
    <glyph glyph-name="y.smcp" unicode="&#xf61d;" horiz-adv-x="438" 
d="M257 216v-216h-67v214l-193 336h74l153 -272h1l149 272h67z" />
    <glyph glyph-name="z.smcp" unicode="&#xf61e;" horiz-adv-x="457" 
d="M413 501l-304 -445h316v-56h-398v47l305 447h-296v56h377v-49z" />
    <glyph glyph-name="thorn.smcp" horiz-adv-x="480" 
d="M143 128v-128h-66v550h66v-85h115c145 0 188 -76 188 -159c0 -124 -80 -178 -215 -178h-88zM143 184h84c84 0 150 19 150 119c0 87 -56 107 -169 107h-65v-226z" />
    <glyph glyph-name="agrave.smcp" horiz-adv-x="534" 
d="M220 550h89l196 -550h-74l-58 167h-219l-57 -167h-67zM356 223l-92 270v0l-93 -270h185zM256 607l-142 177h88l106 -164z" />
    <glyph glyph-name="aacute.smcp" horiz-adv-x="534" 
d="M220 550h89l196 -550h-74l-58 167h-219l-57 -167h-67zM356 223l-92 270v0l-93 -270h185zM423 784l-142 -177l-52 13l106 164h88z" />
    <glyph glyph-name="acircumflex.smcp" horiz-adv-x="534" 
d="M220 550h89l196 -550h-74l-58 167h-219l-57 -167h-67zM356 223l-92 270v0l-93 -270h185zM416 619l-56 -6l-96 122l-92 -124l-55 8l114 165h67z" />
    <glyph glyph-name="atilde.smcp" horiz-adv-x="534" 
d="M220 550h89l196 -550h-74l-58 167h-219l-57 -167h-67zM356 223l-92 270v0l-93 -270h185zM187 743c62 0 107 -47 152 -47c26 0 41 7 41 55l47 -2c10 -82 -35 -112 -82 -112c-60 0 -108 47 -155 47c-21 0 -39 -11 -37 -57l-46 2c-10 82 36 114 80 114z" />
    <glyph glyph-name="adieresis.smcp" horiz-adv-x="534" 
d="M220 550h89l196 -550h-74l-58 167h-219l-57 -167h-67zM356 223l-92 270v0l-93 -270h185zM216 703c0 -32 -21 -51 -52 -51c-32 0 -53 19 -53 51c0 31 21 51 53 51c31 0 52 -20 52 -51zM415 703c0 -32 -21 -51 -52 -51c-32 0 -53 19 -53 51c0 31 21 51 53 51
c31 0 52 -20 52 -51z" />
    <glyph glyph-name="aring.smcp" horiz-adv-x="534" 
d="M356 619c0 -37 -16 -65 -44 -78l193 -541h-74l-58 167h-219l-57 -167h-67l187 540c-28 13 -44 39 -44 75c0 60 42 89 91 89c50 0 92 -26 92 -85zM356 223l-92 270l-93 -270h185zM264 571c30 0 45 20 45 48c0 29 -16 44 -45 44c-27 0 -46 -16 -46 -47c0 -28 16 -45 46 -45
z" />
    <glyph glyph-name="aringacute.smcp" horiz-adv-x="534" 
d="M356 619c0 -37 -16 -65 -44 -78l193 -541h-74l-58 167h-219l-57 -167h-67l187 540c-28 13 -44 39 -44 75c0 60 42 89 91 89c50 0 92 -26 92 -85zM356 223l-92 270l-93 -270h185zM368 887l-137 -145l-54 13l102 132h89zM264 571c30 0 45 20 45 48c0 29 -16 44 -45 44
c-27 0 -46 -16 -46 -47c0 -28 16 -45 46 -45z" />
    <glyph glyph-name="ccedilla.smcp" horiz-adv-x="540" 
d="M203 -203l15 43c11 -7 33 -17 56 -17c33 0 49 22 49 48c0 33 -19 49 -76 50l10 72c-155 11 -217 118 -217 273c0 187 103 294 262 294c118 0 199 -56 209 -183l-62 -6c-12 87 -53 134 -147 134c-120 0 -194 -79 -194 -233c0 -160 68 -227 183 -227c91 0 138 39 157 119
l59 -12c-20 -111 -107 -154 -197 -160l-5 -36c40 -8 76 -29 76 -86c0 -56 -44 -94 -101 -94c-39 0 -64 12 -77 21z" />
    <glyph glyph-name="egrave.smcp" horiz-adv-x="454" 
d="M144 250v-194h270v-56h-337v550h328v-56h-261v-188h244v-56h-244zM258 607l-142 177h88l106 -164z" />
    <glyph glyph-name="eacute.smcp" horiz-adv-x="454" 
d="M144 250v-194h270v-56h-337v550h328v-56h-261v-188h244v-56h-244zM375 784l-142 -177l-52 13l106 164h88z" />
    <glyph glyph-name="ecircumflex.smcp" horiz-adv-x="454" 
d="M144 250v-194h270v-56h-337v550h328v-56h-261v-188h244v-56h-244zM397 619l-56 -6l-96 122l-92 -124l-55 8l114 165h67z" />
    <glyph glyph-name="edieresis.smcp" horiz-adv-x="454" 
d="M144 250v-194h270v-56h-337v550h328v-56h-261v-188h244v-56h-244zM197 703c0 -32 -21 -51 -52 -51c-32 0 -53 19 -53 51c0 31 21 51 53 51c31 0 52 -20 52 -51zM396 703c0 -32 -21 -51 -52 -51c-32 0 -53 19 -53 51c0 31 21 51 53 51c31 0 52 -20 52 -51z" />
    <glyph glyph-name="igrave.smcp" horiz-adv-x="221" 
d="M144 550v-550h-67v550h67zM95 607l-142 177h88l106 -164z" />
    <glyph glyph-name="iacute.smcp" horiz-adv-x="221" 
d="M144 550v-550h-67v550h67zM270 784l-142 -177l-52 13l106 164h88z" />
    <glyph glyph-name="icircumflex.smcp" horiz-adv-x="221" 
d="M144 550v-550h-67v550h67zM262 619l-56 -6l-96 122l-92 -124l-55 8l114 165h67z" />
    <glyph glyph-name="idieresis.smcp" horiz-adv-x="221" 
d="M144 550v-550h-67v550h67zM62 703c0 -32 -21 -51 -52 -51c-32 0 -53 19 -53 51c0 31 21 51 53 51c31 0 52 -20 52 -51zM261 703c0 -32 -21 -51 -52 -51c-32 0 -53 19 -53 51c0 31 21 51 53 51c31 0 52 -20 52 -51z" />
    <glyph glyph-name="eth.smcp" horiz-adv-x="586" 
d="M248 0h-158v256h-59v53h59v241h171c196 0 280 -102 280 -267c0 -168 -91 -283 -293 -283zM157 55h93c148 0 222 81 222 218c0 172 -80 222 -217 222h-98v-186h169v-53h-169v-201z" />
    <glyph glyph-name="ntilde.smcp" horiz-adv-x="582" 
d="M505 0h-82l-283 471v-471h-63v550h90l276 -466v466h62v-550zM210 743c62 0 107 -47 152 -47c26 0 41 7 41 55l47 -2c10 -82 -35 -112 -82 -112c-60 0 -108 47 -155 47c-21 0 -39 -11 -37 -57l-46 2c-10 82 36 114 80 114z" />
    <glyph glyph-name="ograve.smcp" horiz-adv-x="592" 
d="M293 -9c-174 0 -253 119 -253 284c0 164 93 285 264 285c170 0 248 -121 248 -274c0 -179 -88 -295 -259 -295zM296 47c109 0 187 74 187 232c0 147 -72 225 -181 225c-111 0 -192 -79 -192 -228c0 -151 75 -229 186 -229zM318 607l-142 177h88l106 -164z" />
    <glyph glyph-name="oacute.smcp" horiz-adv-x="592" 
d="M293 -9c-174 0 -253 119 -253 284c0 164 93 285 264 285c170 0 248 -121 248 -274c0 -179 -88 -295 -259 -295zM296 47c109 0 187 74 187 232c0 147 -72 225 -181 225c-111 0 -192 -79 -192 -228c0 -151 75 -229 186 -229zM442 784l-142 -177l-52 13l106 164h88z" />
    <glyph glyph-name="ocircumflex.smcp" horiz-adv-x="592" 
d="M293 -9c-174 0 -253 119 -253 284c0 164 93 285 264 285c170 0 248 -121 248 -274c0 -179 -88 -295 -259 -295zM296 47c109 0 187 74 187 232c0 147 -72 225 -181 225c-111 0 -192 -79 -192 -228c0 -151 75 -229 186 -229zM453 619l-56 -6l-96 122l-92 -124l-55 8
l114 165h67z" />
    <glyph glyph-name="otilde.smcp" horiz-adv-x="592" 
d="M293 -9c-174 0 -253 119 -253 284c0 164 93 285 264 285c170 0 248 -121 248 -274c0 -179 -88 -295 -259 -295zM296 47c109 0 187 74 187 232c0 147 -72 225 -181 225c-111 0 -192 -79 -192 -228c0 -151 75 -229 186 -229zM224 743c62 0 107 -47 152 -47c26 0 41 7 41 55
l47 -2c10 -82 -35 -112 -82 -112c-60 0 -108 47 -155 47c-21 0 -39 -11 -37 -57l-46 2c-10 82 36 114 80 114z" />
    <glyph glyph-name="odieresis.smcp" horiz-adv-x="592" 
d="M293 -9c-174 0 -253 119 -253 284c0 164 93 285 264 285c170 0 248 -121 248 -274c0 -179 -88 -295 -259 -295zM296 47c109 0 187 74 187 232c0 147 -72 225 -181 225c-111 0 -192 -79 -192 -228c0 -151 75 -229 186 -229zM253 703c0 -32 -21 -51 -52 -51
c-32 0 -53 19 -53 51c0 31 21 51 53 51c31 0 52 -20 52 -51zM452 703c0 -32 -21 -51 -52 -51c-32 0 -53 19 -53 51c0 31 21 51 53 51c31 0 52 -20 52 -51z" />
    <glyph glyph-name="oslash.smcp" horiz-adv-x="592" 
d="M293 -9c-36 0 -68 5 -96 14l-36 -72h-64l49 97c-72 48 -106 136 -106 245c0 164 93 285 264 285c39 0 73 -7 103 -19l38 75h63l-52 -102c65 -49 96 -132 96 -228c0 -179 -88 -295 -259 -295zM110 276c0 -87 24 -149 66 -187l203 399c-23 10 -49 16 -77 16
c-111 0 -192 -79 -192 -228zM296 47c109 0 187 74 187 232c0 79 -21 138 -57 176l-201 -396c21 -8 45 -12 71 -12z" />
    <glyph glyph-name="oslashacute.smcp" horiz-adv-x="592" 
d="M457 784l-142 -177l-52 13l106 164h88zM293 -9c-36 0 -68 5 -96 14l-36 -72h-64l49 97c-72 48 -106 136 -106 245c0 164 93 285 264 285c39 0 73 -7 103 -19l38 75h63l-52 -102c65 -49 96 -132 96 -228c0 -179 -88 -295 -259 -295zM110 276c0 -87 24 -149 66 -187
l203 399c-23 10 -49 16 -77 16c-111 0 -192 -79 -192 -228zM296 47c109 0 187 74 187 232c0 79 -21 138 -57 176l-201 -396c21 -8 45 -12 71 -12z" />
    <glyph glyph-name="ugrave.smcp" horiz-adv-x="557" 
d="M279 49c92 0 139 36 139 141v360h67v-367c0 -131 -77 -192 -210 -192c-144 0 -203 67 -203 193v366h67v-358c0 -104 50 -143 140 -143zM291 607l-142 177h88l106 -164z" />
    <glyph glyph-name="uacute.smcp" horiz-adv-x="557" 
d="M279 49c92 0 139 36 139 141v360h67v-367c0 -131 -77 -192 -210 -192c-144 0 -203 67 -203 193v366h67v-358c0 -104 50 -143 140 -143zM419 784l-142 -177l-52 13l106 164h88z" />
    <glyph glyph-name="ucircumflex.smcp" horiz-adv-x="557" 
d="M279 49c92 0 139 36 139 141v360h67v-367c0 -131 -77 -192 -210 -192c-144 0 -203 67 -203 193v366h67v-358c0 -104 50 -143 140 -143zM430 619l-56 -6l-96 122l-92 -124l-55 8l114 165h67z" />
    <glyph glyph-name="udieresis.smcp" horiz-adv-x="557" 
d="M279 49c92 0 139 36 139 141v360h67v-367c0 -131 -77 -192 -210 -192c-144 0 -203 67 -203 193v366h67v-358c0 -104 50 -143 140 -143zM230 703c0 -32 -21 -51 -52 -51c-32 0 -53 19 -53 51c0 31 21 51 53 51c31 0 52 -20 52 -51zM429 703c0 -32 -21 -51 -52 -51
c-32 0 -53 19 -53 51c0 31 21 51 53 51c31 0 52 -20 52 -51z" />
    <glyph glyph-name="yacute.smcp" horiz-adv-x="438" 
d="M257 216v-216h-67v214l-193 336h74l153 -272h1l149 272h67zM369 784l-142 -177l-52 13l106 164h88z" />
    <glyph glyph-name="ydieresis.smcp" horiz-adv-x="438" 
d="M257 216v-216h-67v214l-193 336h74l153 -272h1l149 272h67zM176 703c0 -32 -21 -51 -52 -51c-32 0 -53 19 -53 51c0 31 21 51 53 51c31 0 52 -20 52 -51zM375 703c0 -32 -21 -51 -52 -51c-32 0 -53 19 -53 51c0 31 21 51 53 51c31 0 52 -20 52 -51z" />
    <glyph glyph-name="amacron.smcp" horiz-adv-x="534" 
d="M220 550h89l196 -550h-74l-58 167h-219l-57 -167h-67zM356 223l-92 270v0l-93 -270h185zM406 671h-283v57h283v-57z" />
    <glyph glyph-name="abreve.smcp" horiz-adv-x="534" 
d="M220 550h89l196 -550h-74l-58 167h-219l-57 -167h-67zM356 223l-92 270v0l-93 -270h185zM356 765l53 -5c0 -93 -49 -152 -147 -152c-92 0 -137 49 -139 150l54 7c5 -81 32 -106 87 -106c57 0 89 25 92 106z" />
    <glyph glyph-name="aogonek.smcp" horiz-adv-x="534" 
d="M220 550h89l196 -550c-55 -45 -92 -77 -92 -127c0 -25 14 -41 40 -41c23 0 41 12 57 39l41 -22c-22 -49 -69 -71 -110 -71c-53 0 -93 30 -93 84c0 61 43 106 83 138l-58 167h-219l-57 -167h-67zM356 223l-92 270l-93 -270h185z" />
    <glyph glyph-name="cacute.smcp" horiz-adv-x="540" 
d="M287 -9c-177 0 -247 111 -247 275c0 187 103 294 262 294c118 0 199 -56 209 -183l-62 -6c-12 87 -53 134 -147 134c-120 0 -194 -79 -194 -233c0 -160 68 -227 183 -227c91 0 138 39 157 119l59 -12c-21 -120 -122 -161 -220 -161zM411 784l-142 -177l-52 13l106 164h88
z" />
    <glyph glyph-name="ccircumflex.smcp" horiz-adv-x="540" 
d="M287 -9c-177 0 -247 111 -247 275c0 187 103 294 262 294c118 0 199 -56 209 -183l-62 -6c-12 87 -53 134 -147 134c-120 0 -194 -79 -194 -233c0 -160 68 -227 183 -227c91 0 138 39 157 119l59 -12c-21 -120 -122 -161 -220 -161zM448 619l-56 -6l-96 122l-92 -124
l-55 8l114 165h67z" />
    <glyph glyph-name="cdotaccent.smcp" horiz-adv-x="540" 
d="M287 -9c-177 0 -247 111 -247 275c0 187 103 294 262 294c118 0 199 -56 209 -183l-62 -6c-12 87 -53 134 -147 134c-120 0 -194 -79 -194 -233c0 -160 68 -227 183 -227c91 0 138 39 157 119l59 -12c-21 -120 -122 -161 -220 -161zM350 713c0 -34 -20 -53 -54 -53
s-54 19 -54 53s20 53 54 53s54 -19 54 -53z" />
    <glyph glyph-name="ccaron.smcp" horiz-adv-x="540" 
d="M287 -9c-177 0 -247 111 -247 275c0 187 103 294 262 294c118 0 199 -56 209 -183l-62 -6c-12 87 -53 134 -147 134c-120 0 -194 -79 -194 -233c0 -160 68 -227 183 -227c91 0 138 39 157 119l59 -12c-21 -120 -122 -161 -220 -161zM145 772l60 6l92 -122l94 124l53 -8
l-114 -165h-67z" />
    <glyph glyph-name="dcaron.smcp" horiz-adv-x="573" 
d="M235 0h-158v550h171c196 0 280 -102 280 -267c0 -168 -91 -283 -293 -283zM144 55h93c148 0 222 81 222 218c0 172 -80 222 -217 222h-98v-440zM104 772l60 6l92 -122l94 124l53 -8l-114 -165h-67z" />
    <glyph glyph-name="dcroat.smcp" horiz-adv-x="586" 
d="M248 0h-158v256h-59v53h59v241h171c196 0 280 -102 280 -267c0 -168 -91 -283 -293 -283zM157 55h93c148 0 222 81 222 218c0 172 -80 222 -217 222h-98v-186h169v-53h-169v-201z" />
    <glyph glyph-name="emacron.smcp" horiz-adv-x="454" 
d="M144 250v-194h270v-56h-337v550h328v-56h-261v-188h244v-56h-244zM387 671h-283v57h283v-57z" />
    <glyph glyph-name="ebreve.smcp" horiz-adv-x="454" 
d="M144 250v-194h270v-56h-337v550h328v-56h-261v-188h244v-56h-244zM337 765l53 -5c0 -93 -49 -152 -147 -152c-92 0 -137 49 -139 150l54 7c5 -81 32 -106 87 -106c57 0 89 25 92 106z" />
    <glyph glyph-name="edotaccent.smcp" horiz-adv-x="454" 
d="M144 250v-194h270v-56h-337v550h328v-56h-261v-188h244v-56h-244zM299 713c0 -34 -20 -53 -54 -53s-54 19 -54 53s20 53 54 53s54 -19 54 -53z" />
    <glyph glyph-name="eogonek.smcp" horiz-adv-x="454" 
d="M376 -129l41 -22c-22 -49 -69 -71 -110 -71c-53 0 -93 30 -93 84c0 60 43 105 82 138h-219v550h328v-56h-261v-188h244v-56h-244v-194h270v-56h-50c-49 -44 -85 -78 -85 -127c0 -25 14 -41 40 -41c23 0 41 12 57 39z" />
    <glyph glyph-name="ecaron.smcp" horiz-adv-x="454" 
d="M144 250v-194h270v-56h-337v550h328v-56h-261v-188h244v-56h-244zM94 772l60 6l92 -122l94 124l53 -8l-114 -165h-67z" />
    <glyph glyph-name="gcircumflex.smcp" horiz-adv-x="581" 
d="M462 0l-10 75c-20 -47 -91 -84 -171 -84c-170 0 -241 114 -241 277c0 188 100 292 263 292c118 0 198 -51 208 -182l-63 -6c-9 93 -58 133 -147 133c-121 0 -192 -85 -192 -231c0 -176 79 -230 185 -230c103 0 154 72 154 138v50h-155v53h218v-285h-49zM447 619l-56 -6
l-96 122l-92 -124l-55 8l114 165h67z" />
    <glyph glyph-name="gbreve.smcp" horiz-adv-x="581" 
d="M462 0l-10 75c-20 -47 -91 -84 -171 -84c-170 0 -241 114 -241 277c0 188 100 292 263 292c118 0 198 -51 208 -182l-63 -6c-9 93 -58 133 -147 133c-121 0 -192 -85 -192 -231c0 -176 79 -230 185 -230c103 0 154 72 154 138v50h-155v53h218v-285h-49zM387 765l53 -5
c0 -93 -49 -152 -147 -152c-92 0 -137 49 -139 150l54 7c5 -81 32 -106 87 -106c57 0 89 25 92 106z" />
    <glyph glyph-name="gdotaccent.smcp" horiz-adv-x="581" 
d="M462 0l-10 75c-20 -47 -91 -84 -171 -84c-170 0 -241 114 -241 277c0 188 100 292 263 292c118 0 198 -51 208 -182l-63 -6c-9 93 -58 133 -147 133c-121 0 -192 -85 -192 -231c0 -176 79 -230 185 -230c103 0 154 72 154 138v50h-155v53h218v-285h-49zM349 713
c0 -34 -20 -53 -54 -53s-54 19 -54 53s20 53 54 53s54 -19 54 -53z" />
    <glyph glyph-name="gcommaaccent.smcp" horiz-adv-x="581" 
d="M462 0l-10 75c-20 -47 -91 -84 -171 -84c-170 0 -241 114 -241 277c0 188 100 292 263 292c118 0 198 -51 208 -182l-63 -6c-9 93 -58 133 -147 133c-121 0 -192 -85 -192 -231c0 -176 79 -230 185 -230c103 0 154 72 154 138v50h-155v53h218v-285h-49zM232 -220l36 151
h79l-62 -159z" />
    <glyph glyph-name="hcircumflex.smcp" horiz-adv-x="568" 
d="M491 550v-550h-67v253h-280v-253h-67v550h67v-240h280v240h67zM436 619l-56 -6l-96 122l-92 -124l-55 8l114 165h67z" />
    <glyph glyph-name="hbar.smcp" horiz-adv-x="594" 
d="M504 550v-96h57v-51h-57v-403h-67v253h-280v-253h-67v403h-57v51h57v96h67v-96h280v96h67zM157 310h280v93h-280v-93z" />
    <glyph glyph-name="itilde.smcp" horiz-adv-x="221" 
d="M144 550v-550h-67v550h67zM33 743c62 0 107 -47 152 -47c26 0 41 7 41 55l47 -2c10 -82 -35 -112 -82 -112c-60 0 -108 47 -155 47c-21 0 -39 -11 -37 -57l-46 2c-10 82 36 114 80 114z" />
    <glyph glyph-name="imacron.smcp" horiz-adv-x="221" 
d="M144 550v-550h-67v550h67zM252 671h-283v57h283v-57z" />
    <glyph glyph-name="ibreve.smcp" horiz-adv-x="221" 
d="M144 550v-550h-67v550h67zM202 765l53 -5c0 -93 -49 -152 -147 -152c-92 0 -137 49 -139 150l54 7c5 -81 32 -106 87 -106c57 0 89 25 92 106z" />
    <glyph glyph-name="iogonek.smcp" horiz-adv-x="221" 
d="M144 550v-550c-49 -45 -86 -77 -86 -127c0 -25 14 -41 40 -41c23 0 41 12 57 39l41 -22c-22 -49 -69 -71 -110 -71c-53 0 -93 30 -93 84c0 62 44 107 84 140v548h67z" />
    <glyph glyph-name="idotaccent.smcp" horiz-adv-x="221" 
d="M144 550v-550h-67v550h67zM164 713c0 -34 -20 -53 -54 -53s-54 19 -54 53s20 53 54 53s54 -19 54 -53z" />
    <glyph glyph-name="dotlessi.smcp" horiz-adv-x="221" 
d="M144 550v-550h-67v550h67z" />
    <glyph glyph-name="jcircumflex.smcp" horiz-adv-x="387" 
d="M251 134v416h67v-413c0 -110 -60 -146 -154 -146c-91 0 -139 38 -143 125l64 10c6 -49 18 -80 82 -80c47 0 84 13 84 88zM436 619l-56 -6l-96 122l-92 -124l-55 8l114 165h67z" />
    <glyph glyph-name="kcommaaccent.smcp" horiz-adv-x="500" 
d="M144 550v-272l257 272h76l-224 -237l236 -313h-79l-203 264l-63 -66v-198h-67v550h67zM195 -220l36 151h79l-62 -159z" />
    <glyph glyph-name="kgreenlandic.smcp" horiz-adv-x="500" 
d="M144 550v-272l257 272h76l-224 -237l236 -313h-79l-203 264l-63 -66v-198h-67v550h67z" />
    <glyph glyph-name="lacute.smcp" horiz-adv-x="429" 
d="M144 550v-493h255v-57h-322v550h67zM268 784l-142 -177l-52 13l106 164h88z" />
    <glyph glyph-name="lcommaaccent.smcp" horiz-adv-x="429" 
d="M144 550v-493h255v-57h-322v550h67zM172 -220l36 151h79l-62 -159z" />
    <glyph glyph-name="lcaron.smcp" horiz-adv-x="429" 
d="M144 550v-493h255v-57h-322v550h67zM231 360l33 190h77l-60 -198z" />
    <glyph glyph-name="ldot.smcp" horiz-adv-x="429" 
d="M144 550v-493h255v-57h-322v550h67zM391 317c0 -34 -20 -53 -54 -53s-54 19 -54 53s20 53 54 53s54 -19 54 -53z" />
    <glyph glyph-name="nacute.smcp" horiz-adv-x="582" 
d="M505 0h-82l-283 471v-471h-63v550h90l276 -466v466h62v-550zM440 784l-142 -177l-52 13l106 164h88z" />
    <glyph glyph-name="ncommaaccent.smcp" horiz-adv-x="582" 
d="M505 0h-82l-283 471v-471h-63v550h90l276 -466v466h62v-550zM217 -220l36 151h79l-62 -159z" />
    <glyph glyph-name="ncaron.smcp" horiz-adv-x="582" 
d="M505 0h-82l-283 471v-471h-63v550h90l276 -466v466h62v-550zM136 772l60 6l92 -122l94 124l53 -8l-114 -165h-67z" />
    <glyph glyph-name="napostrophe.smcp" horiz-adv-x="613" 
d="M536 0h-82l-283 471v-471h-63v550h90l276 -466v466h62v-550zM-9 537l36 151h79l-62 -159z" />
    <glyph glyph-name="eng.smcp" horiz-adv-x="582" 
d="M369 -223c-42 0 -98 12 -115 22l13 54c22 -8 61 -19 98 -19c43 0 73 23 73 83v77l-298 477v-471h-63v550h90l276 -446v446h62v-629c0 -99 -54 -144 -136 -144z" />
    <glyph glyph-name="omacron.smcp" horiz-adv-x="592" 
d="M293 -9c-174 0 -253 119 -253 284c0 164 93 285 264 285c170 0 248 -121 248 -274c0 -179 -88 -295 -259 -295zM296 47c109 0 187 74 187 232c0 147 -72 225 -181 225c-111 0 -192 -79 -192 -228c0 -151 75 -229 186 -229zM443 671h-283v57h283v-57z" />
    <glyph glyph-name="obreve.smcp" horiz-adv-x="592" 
d="M293 -9c-174 0 -253 119 -253 284c0 164 93 285 264 285c170 0 248 -121 248 -274c0 -179 -88 -295 -259 -295zM296 47c109 0 187 74 187 232c0 147 -72 225 -181 225c-111 0 -192 -79 -192 -228c0 -151 75 -229 186 -229zM393 765l53 -5c0 -93 -49 -152 -147 -152
c-92 0 -137 49 -139 150l54 7c5 -81 32 -106 87 -106c57 0 89 25 92 106z" />
    <glyph glyph-name="ohungarumlaut.smcp" horiz-adv-x="592" 
d="M293 -9c-174 0 -253 119 -253 284c0 164 93 285 264 285c170 0 248 -121 248 -274c0 -179 -88 -295 -259 -295zM296 47c109 0 187 74 187 232c0 147 -72 225 -181 225c-111 0 -192 -79 -192 -228c0 -151 75 -229 186 -229zM373 783l-121 -176l-52 13l85 163h88zM516 784
l-142 -177l-52 13l106 164h88z" />
    <glyph glyph-name="racute.smcp" horiz-adv-x="504" 
d="M340 248l139 -248h-72l-131 231h-133v-231h-66v550h191c140 0 182 -74 182 -149c0 -82 -44 -131 -110 -153zM143 286h110c76 0 127 25 127 112c0 78 -53 97 -136 97h-101v-209zM364 784l-142 -177l-52 13l106 164h88z" />
    <glyph glyph-name="rcommaaccent.smcp" horiz-adv-x="504" 
d="M340 248l139 -248h-72l-131 231h-133v-231h-66v550h191c140 0 182 -74 182 -149c0 -82 -44 -131 -110 -153zM143 286h110c76 0 127 25 127 112c0 78 -53 97 -136 97h-101v-209zM197 -220l36 151h79l-62 -159z" />
    <glyph glyph-name="rcaron.smcp" horiz-adv-x="504" 
d="M340 248l139 -248h-72l-131 231h-133v-231h-66v550h191c140 0 182 -74 182 -149c0 -82 -44 -131 -110 -153zM143 286h110c76 0 127 25 127 112c0 78 -53 97 -136 97h-101v-209zM98 772l60 6l92 -122l94 124l53 -8l-114 -165h-67z" />
    <glyph glyph-name="sacute.smcp" horiz-adv-x="472" 
d="M242 505c-89 0 -121 -39 -121 -90c0 -153 308 -64 308 -264c0 -115 -94 -160 -198 -160c-119 0 -189 47 -204 157l65 9c13 -59 42 -112 140 -112c61 0 128 21 128 97c0 156 -308 60 -308 268c0 93 80 150 189 150c98 0 172 -38 184 -154l-63 -8c-9 53 -31 107 -120 107z
M354 784l-142 -177l-52 13l106 164h88z" />
    <glyph glyph-name="scircumflex.smcp" horiz-adv-x="472" 
d="M242 505c-89 0 -121 -39 -121 -90c0 -153 308 -64 308 -264c0 -115 -94 -160 -198 -160c-119 0 -189 47 -204 157l65 9c13 -59 42 -112 140 -112c61 0 128 21 128 97c0 156 -308 60 -308 268c0 93 80 150 189 150c98 0 172 -38 184 -154l-63 -8c-9 53 -31 107 -120 107z
M391 619l-56 -6l-96 122l-92 -124l-55 8l114 165h67z" />
    <glyph glyph-name="scedilla.smcp" horiz-adv-x="472" 
d="M150 -203l15 43c11 -7 33 -17 56 -17c33 0 49 22 49 48c0 33 -19 49 -76 50l10 71c-103 7 -163 54 -177 156l65 9c13 -59 42 -112 140 -112c61 0 128 21 128 97c0 156 -308 60 -308 268c0 93 80 150 189 150c98 0 172 -38 184 -154l-63 -8c-9 53 -31 107 -120 107
s-121 -39 -121 -90c0 -153 308 -64 308 -264c0 -106 -79 -152 -172 -159l-5 -36c40 -8 76 -29 76 -86c0 -56 -44 -94 -101 -94c-39 0 -64 12 -77 21z" />
    <glyph glyph-name="tcaron.smcp" horiz-adv-x="430" 
d="M249 0h-67v494h-171v56h408v-56h-170v-494zM64 772l60 6l92 -122l94 124l53 -8l-114 -165h-67z" />
    <glyph glyph-name="tbar.smcp" horiz-adv-x="430" 
d="M62 240v51h120v203h-171v56h408v-56h-170v-203h114v-51h-114v-240h-67v240h-120z" />
    <glyph glyph-name="utilde.smcp" horiz-adv-x="557" 
d="M279 49c92 0 139 36 139 141v360h67v-367c0 -131 -77 -192 -210 -192c-144 0 -203 67 -203 193v366h67v-358c0 -104 50 -143 140 -143zM201 743c62 0 107 -47 152 -47c26 0 41 7 41 55l47 -2c10 -82 -35 -112 -82 -112c-60 0 -108 47 -155 47c-21 0 -39 -11 -37 -57
l-46 2c-10 82 36 114 80 114z" />
    <glyph glyph-name="umacron.smcp" horiz-adv-x="557" 
d="M279 49c92 0 139 36 139 141v360h67v-367c0 -131 -77 -192 -210 -192c-144 0 -203 67 -203 193v366h67v-358c0 -104 50 -143 140 -143zM420 671h-283v57h283v-57z" />
    <glyph glyph-name="ubreve.smcp" horiz-adv-x="557" 
d="M279 49c92 0 139 36 139 141v360h67v-367c0 -131 -77 -192 -210 -192c-144 0 -203 67 -203 193v366h67v-358c0 -104 50 -143 140 -143zM370 765l53 -5c0 -93 -49 -152 -147 -152c-92 0 -137 49 -139 150l54 7c5 -81 32 -106 87 -106c57 0 89 25 92 106z" />
    <glyph glyph-name="uring.smcp" horiz-adv-x="557" 
d="M279 49c92 0 139 36 139 141v360h67v-367c0 -131 -77 -192 -210 -192c-144 0 -203 67 -203 193v366h67v-358c0 -104 50 -143 140 -143zM382 709c0 -62 -40 -99 -104 -99c-62 0 -103 35 -103 94c0 68 48 101 103 101c57 0 104 -29 104 -96zM278 655c34 0 51 22 51 54
c0 33 -18 50 -51 50c-30 0 -52 -18 -52 -53c0 -32 18 -51 52 -51z" />
    <glyph glyph-name="uhungarumlaut.smcp" horiz-adv-x="557" 
d="M279 49c92 0 139 36 139 141v360h67v-367c0 -131 -77 -192 -210 -192c-144 0 -203 67 -203 193v366h67v-358c0 -104 50 -143 140 -143zM350 783l-121 -176l-52 13l85 163h88zM493 784l-142 -177l-52 13l106 164h88z" />
    <glyph glyph-name="uogonek.smcp" horiz-adv-x="557" 
d="M411 -129l41 -22c-22 -49 -69 -71 -110 -71c-53 0 -93 30 -93 84c0 57 38 100 75 132c-16 -2 -32 -3 -49 -3c-144 0 -203 67 -203 193v366h67v-358c0 -104 50 -143 140 -143c92 0 139 36 139 141v360h67v-367c0 -72 -24 -121 -63 -154c-55 -46 -108 -104 -108 -156
c0 -25 14 -41 40 -41c23 0 41 12 57 39z" />
    <glyph glyph-name="wcircumflex.smcp" horiz-adv-x="700" 
d="M561 0h-85l-123 462h-1l-126 -462h-82l-124 550h71l97 -474h1l127 474h75l127 -481h1l94 481h67zM502 619l-56 -6l-96 122l-92 -124l-55 8l114 165h67z" />
    <glyph glyph-name="ycircumflex.smcp" horiz-adv-x="438" 
d="M257 216v-216h-67v214l-193 336h74l153 -272h1l149 272h67zM371 619l-56 -6l-96 122l-92 -124l-55 8l114 165h67z" />
    <glyph glyph-name="zacute.smcp" horiz-adv-x="457" 
d="M413 501l-304 -445h316v-56h-398v47l305 447h-296v56h377v-49zM356 784l-142 -177l-52 13l106 164h88z" />
    <glyph glyph-name="zdotaccent.smcp" horiz-adv-x="457" 
d="M413 501l-304 -445h316v-56h-398v47l305 447h-296v56h377v-49zM276 713c0 -34 -20 -53 -54 -53s-54 19 -54 53s20 53 54 53s54 -19 54 -53z" />
    <glyph glyph-name="scommaaccent.smcp" horiz-adv-x="472" 
d="M242 505c-89 0 -121 -39 -121 -90c0 -153 308 -64 308 -264c0 -115 -94 -160 -198 -160c-119 0 -189 47 -204 157l65 9c13 -59 42 -112 140 -112c61 0 128 21 128 97c0 156 -308 60 -308 268c0 93 80 150 189 150c98 0 172 -38 184 -154l-63 -8c-9 53 -31 107 -120 107z
M173 -220l36 151h79l-62 -159z" />
    <glyph glyph-name="uni021B.smcp" horiz-adv-x="430" 
d="M249 0h-67v494h-171v56h408v-56h-170v-494zM147 -220l36 151h79l-62 -159z" />
    <glyph glyph-name="wgrave.smcp" horiz-adv-x="700" 
d="M561 0h-85l-123 462h-1l-126 -462h-82l-124 550h71l97 -474h1l127 474h75l127 -481h1l94 481h67zM383 607l-142 177h88l106 -164z" />
    <glyph glyph-name="wacute.smcp" horiz-adv-x="700" 
d="M561 0h-85l-123 462h-1l-126 -462h-82l-124 550h71l97 -474h1l127 474h75l127 -481h1l94 481h67zM486 784l-142 -177l-52 13l106 164h88z" />
    <glyph glyph-name="wdieresis.smcp" horiz-adv-x="700" 
d="M561 0h-85l-123 462h-1l-126 -462h-82l-124 550h71l97 -474h1l127 474h75l127 -481h1l94 481h67zM304 703c0 -32 -21 -51 -52 -51c-32 0 -53 19 -53 51c0 31 21 51 53 51c31 0 52 -20 52 -51zM503 703c0 -32 -21 -51 -52 -51c-32 0 -53 19 -53 51c0 31 21 51 53 51
c31 0 52 -20 52 -51z" />
    <glyph glyph-name="ygrave.smcp" horiz-adv-x="438" 
d="M257 216v-216h-67v214l-193 336h74l153 -272h1l149 272h67zM233 607l-142 177h88l106 -164z" />
    <glyph glyph-name="uni0163.smcp" horiz-adv-x="430" 
d="M134 -203l15 43c11 -7 33 -17 56 -17c33 0 49 22 49 48c0 33 -19 49 -76 50l11 79h-7v494h-171v56h408v-56h-170v-494h-7l-6 -44c40 -8 76 -29 76 -86c0 -56 -44 -94 -101 -94c-39 0 -64 12 -77 21z" />
    <glyph glyph-name="lslash.smcp" horiz-adv-x="429" 
d="M144 550v-245l169 68v-56l-169 -68v-192h255v-57h-322v223l-72 -29v56l72 29v271h67z" />
    <glyph glyph-name="scaron.smcp" horiz-adv-x="472" 
d="M242 505c-89 0 -121 -39 -121 -90c0 -153 308 -64 308 -264c0 -115 -94 -160 -198 -160c-119 0 -189 47 -204 157l65 9c13 -59 42 -112 140 -112c61 0 128 21 128 97c0 156 -308 60 -308 268c0 93 80 150 189 150c98 0 172 -38 184 -154l-63 -8c-9 53 -31 107 -120 107z
M85 772l60 6l92 -122l94 124l53 -8l-114 -165h-67z" />
    <glyph glyph-name="zcaron.smcp" horiz-adv-x="457" 
d="M413 501l-304 -445h316v-56h-398v47l305 447h-296v56h377v-49zM69 772l60 6l92 -122l94 124l53 -8l-114 -165h-67z" />
    <glyph glyph-name="oe.smcp" horiz-adv-x="857" 
d="M817 0h-329v87c-40 -61 -106 -96 -195 -96c-174 0 -253 119 -253 284c0 164 93 285 263 285c88 0 147 -34 185 -88v78h320v-56h-261v-188h244v-56h-244v-194h270v-56zM296 47c109 0 187 74 187 230c0 149 -71 227 -181 227c-111 0 -192 -79 -192 -228
c0 -151 75 -229 186 -229z" />
    <glyph glyph-name="ae.smcp" horiz-adv-x="778" 
d="M468 243v-188h270v-55h-337v243h-170l-138 -243h-68l310 550h394v-56h-261v-196h244v-55h-244zM401 298v198h-31l-112 -198h143z" />
    <glyph glyph-name="aeacute.smcp" horiz-adv-x="778" 
d="M468 243v-188h270v-55h-337v243h-170l-138 -243h-68l310 550h394v-56h-261v-196h244v-55h-244zM401 298v198h-31l-112 -198h143zM650 784l-142 -177l-52 13l106 164h88z" />
    <glyph glyph-name="germandbls.smcp" unicode="&#xf637;" horiz-adv-x="928" 
d="M242 505c-89 0 -121 -39 -121 -90c0 -153 308 -64 308 -264c0 -115 -94 -160 -198 -160c-119 0 -189 47 -204 157l65 9c13 -59 42 -112 140 -112c61 0 128 21 128 97c0 156 -308 60 -308 268c0 93 80 150 189 150c98 0 172 -38 184 -154l-63 -8c-9 53 -31 107 -120 107z
M698 505c-89 0 -121 -39 -121 -90c0 -153 308 -64 308 -264c0 -115 -94 -160 -198 -160c-119 0 -189 47 -204 157l65 9c13 -59 42 -112 140 -112c61 0 128 21 128 97c0 156 -308 60 -308 268c0 93 80 150 189 150c98 0 172 -38 184 -154l-63 -8c-9 53 -31 107 -120 107z" />
    <glyph glyph-name="question.smcp" horiz-adv-x="398" 
d="M184 141h-65v139c89 9 164 35 164 130c0 73 -44 95 -97 95c-54 0 -93 -21 -109 -91l-62 12c12 68 59 134 175 134c86 0 164 -38 164 -148c0 -108 -74 -157 -170 -175v-96zM201 39c0 -33 -18 -48 -51 -48s-50 16 -50 47c0 32 17 48 50 48s51 -17 51 -47z" />
    <glyph glyph-name="exclam.smcp" horiz-adv-x="221" 
d="M135 142h-49l-14 408h75zM161 38c0 -31 -18 -47 -50 -47c-33 0 -51 16 -51 47c0 32 18 48 51 48c32 0 50 -16 50 -48z" />
    <glyph glyph-name="questiondown.smcp" horiz-adv-x="398" 
d="M214 410h65v-139c-89 -9 -164 -35 -164 -130c0 -73 44 -95 97 -95c54 0 93 21 109 91l62 -12c-12 -68 -59 -134 -175 -134c-86 0 -164 38 -164 148c0 108 74 157 170 175v96zM197 512c0 33 18 48 51 48s50 -16 50 -47c0 -32 -17 -48 -50 -48s-51 17 -51 47z" />
    <glyph glyph-name="exclamdown.smcp" horiz-adv-x="221" 
d="M86 409h49l14 -408h-75zM60 513c0 31 18 47 50 47c33 0 51 -16 51 -47c0 -32 -18 -48 -51 -48c-32 0 -50 16 -50 48z" />
    <glyph glyph-name="ordmasculine.smcp" horiz-adv-x="392" 
d="M194 245c-117 0 -156 74 -156 171c0 106 57 172 165 172c107 0 151 -67 151 -164c0 -108 -46 -179 -160 -179zM197 294c59 0 96 36 96 126c0 87 -34 119 -93 119c-61 0 -101 -38 -101 -121s31 -124 98 -124z" />
    <glyph glyph-name="ordfeminine.smcp" horiz-adv-x="370" 
d="M306 476v-160c0 -18 4 -25 21 -25c6 0 12 1 20 3l3 -37c-13 -7 -30 -10 -46 -10c-34 0 -48 17 -50 42c-24 -26 -63 -44 -111 -44c-85 0 -100 57 -100 89c0 89 81 109 163 111c17 0 29 -1 42 -1v30c0 41 -12 67 -68 67c-47 0 -65 -18 -72 -55l-51 9c10 62 51 93 128 93
c84 0 121 -30 121 -112zM249 333v68c-9 1 -20 1 -36 1c-47 -1 -110 -2 -110 -61c0 -24 11 -50 58 -50c35 0 69 22 88 42z" />
    <glyph glyph-name="at.smcp" horiz-adv-x="655" 
d="M506 61l29 -41c-44 -39 -116 -58 -191 -58c-172 0 -303 94 -303 285c0 188 125 313 313 313c160 0 280 -90 280 -270c0 -128 -61 -189 -141 -189c-43 0 -74 18 -87 43c-21 -28 -52 -46 -96 -46c-82 0 -116 65 -116 144c0 102 55 176 137 176c30 0 53 -10 72 -27l4 22h49
v-204c0 -31 -1 -64 38 -64c48 0 80 48 80 141c0 150 -85 223 -219 223c-168 0 -252 -113 -252 -259c0 -164 105 -235 243 -235c70 0 124 19 160 46zM400 193v156c-15 12 -36 23 -61 23c-48 0 -84 -37 -84 -125c0 -59 17 -103 66 -103c34 0 62 20 79 49z" />
    <glyph glyph-name="copyright.smcp" horiz-adv-x="759" 
d="M710 289c0 -198 -135 -331 -331 -331c-219 0 -330 138 -330 317c0 207 148 330 332 330c204 0 329 -124 329 -316zM381 7c170 0 274 105 274 276c0 178 -114 273 -274 273c-158 0 -275 -103 -275 -280c0 -167 103 -269 275 -269zM485 225l50 -8
c-14 -104 -92 -127 -151 -127c-129 0 -181 83 -181 195c0 113 64 194 182 194c77 0 140 -33 145 -126l-54 -8c-5 59 -31 85 -92 85c-62 0 -118 -39 -118 -147c0 -78 37 -144 115 -144c67 0 91 27 104 86z" />
    <glyph glyph-name="ampersand.smcp" horiz-adv-x="552" 
d="M386 456c0 -58 -33 -96 -147 -147c31 -60 92 -148 135 -201c28 47 39 109 41 181h59c-1 -78 -16 -156 -58 -217c23 -17 46 -29 71 -29c12 0 24 3 36 8l13 -46c-16 -10 -38 -13 -56 -13c-43 0 -74 15 -107 40c-33 -24 -82 -41 -140 -41c-117 0 -188 67 -188 168
c0 77 43 128 115 164c-16 28 -30 67 -30 106c0 68 44 131 138 131c66 0 118 -32 118 -104zM241 43c33 0 67 8 91 24c-67 71 -115 152 -149 215c-44 -24 -71 -62 -71 -117c0 -77 51 -122 129 -122zM194 438c0 -25 8 -57 24 -89l28 12c56 24 80 54 80 91c0 33 -19 57 -62 57
c-40 0 -70 -23 -70 -71z" />
    <glyph glyph-name="parenleft.smcp" horiz-adv-x="259" 
d="M232 -70h-67c-56 84 -112 192 -112 329c0 136 59 252 119 337h69c-74 -112 -119 -217 -119 -336c0 -136 48 -232 110 -330z" />
    <glyph glyph-name="parenright.smcp" horiz-adv-x="259" 
d="M94 -70h-67c62 98 110 194 110 330c0 119 -45 224 -119 336h69c60 -85 119 -201 119 -337c0 -137 -56 -245 -112 -329z" />
    <glyph glyph-name="bracketleft.smcp" horiz-adv-x="216" 
d="M186 -79h-126v693h126v-41l-64 -5v-599l64 -6v-42z" />
    <glyph glyph-name="bracketright.smcp" horiz-adv-x="216" 
d="M156 -79h-126v42l64 6v599l-64 5v41h126v-693z" />
    <glyph glyph-name="braceleft.smcp" horiz-adv-x="249" 
d="M224 -34v-48h-41c-75 0 -102 30 -102 92c0 34 10 124 10 160c0 54 -22 70 -59 70h-14v48h13c39 0 60 18 60 72c0 35 -10 134 -10 166c0 62 32 90 102 90h41v-50h-31c-36 0 -48 -12 -48 -47c0 -33 10 -123 10 -164c0 -63 -25 -78 -57 -91c34 -13 57 -28 57 -91
c0 -40 -10 -124 -10 -155c0 -35 11 -52 56 -52h23z" />
    <glyph glyph-name="braceright.smcp" horiz-adv-x="249" 
d="M25 -82v48h23c45 0 56 17 56 52c0 31 -10 115 -10 155c0 63 23 78 57 91c-32 13 -57 28 -57 91c0 41 10 131 10 164c0 35 -12 47 -48 47h-31v50h41c70 0 102 -28 102 -90c0 -32 -10 -131 -10 -166c0 -54 21 -72 60 -72h13v-48h-14c-37 0 -59 -16 -59 -70
c0 -36 10 -126 10 -160c0 -62 -27 -92 -102 -92h-41z" />
    <glyph glyph-name="quoteleft.smcp" horiz-adv-x="191" 
d="M161 585l-47 -193h-79l73 201z" />
    <glyph glyph-name="quoteright.smcp" horiz-adv-x="191" 
d="M40 397l47 193h79l-73 -201z" />
    <glyph glyph-name="quotedblleft.smcp" horiz-adv-x="333" 
d="M303 585l-47 -193h-79l73 201zM161 585l-47 -193h-79l73 201z" />
    <glyph glyph-name="quotedblright.smcp" horiz-adv-x="333" 
d="M40 397l47 193h79l-73 -201zM182 397l47 193h79l-73 -201z" />
    <glyph glyph-name="asterisk.smcp" horiz-adv-x="469" 
d="M251 634l17 -145l133 34l10 -30l-124 -62l82 -126l-25 -19l-110 104l-108 -106l-25 20l81 126l-126 62l11 30l135 -33l19 145h30z" />
    <glyph glyph-name="hyphen.smcp" horiz-adv-x="323" 
d="M297 238h-271v67h271v-67z" />
    <glyph glyph-name="endash.smcp" horiz-adv-x="500" 
d="M499 245h-499v54h499v-54z" />
    <glyph glyph-name="emdash.smcp" horiz-adv-x="1000" 
d="M999 245h-999v54h999v-54z" />
    <glyph glyph-name="slash.smcp" horiz-adv-x="331" 
d="M93 -35h-61l202 610h60z" />
    <glyph glyph-name="backslash.smcp" horiz-adv-x="333" 
d="M299 -35h-61l-201 610h60z" />
    <glyph glyph-name="zero.smcp" horiz-adv-x="470" 
d="M233 -10c-162 0 -192 132 -192 283c0 146 41 287 200 287c160 0 188 -140 188 -277c0 -160 -36 -293 -196 -293zM235 45c107 0 125 103 125 233c0 120 -14 225 -121 225c-108 0 -129 -106 -129 -232c0 -120 17 -226 125 -226z" />
    <glyph glyph-name="one.smcp" horiz-adv-x="352" 
d="M237 0h-65v459c-28 -17 -100 -28 -127 -28l-6 51c77 6 126 25 163 67h35v-549z" />
    <glyph glyph-name="two.smcp" horiz-adv-x="441" 
d="M223 560c96 0 160 -47 160 -133c0 -75 -51 -145 -131 -234l-122 -136v-1h263v-56h-338v52l141 163c79 92 120 140 120 204c0 58 -37 88 -97 88c-79 0 -102 -42 -113 -97l-58 11c16 102 88 139 175 139z" />
    <glyph glyph-name="three.smcp" horiz-adv-x="459" 
d="M40 122l62 11c8 -46 28 -89 104 -89c72 0 123 38 123 114c0 78 -53 108 -130 108h-52v51h38c85 0 136 45 136 108c0 44 -24 82 -99 82c-72 0 -93 -35 -108 -89l-59 13c19 94 90 130 174 130c103 0 158 -56 158 -129c0 -80 -64 -122 -116 -133v-2c75 -12 126 -59 126 -139
c0 -97 -73 -168 -189 -168c-87 0 -157 39 -168 132z" />
    <glyph glyph-name="four.smcp" horiz-adv-x="444" 
d="M352 0h-64v133h-270v48l252 368h83v-361h71v-55h-72v-133zM85 188h204v299z" />
    <glyph glyph-name="five.smcp" horiz-adv-x="453" 
d="M64 272l20 277h281v-56h-228l-15 -180c27 21 63 40 116 40c80 0 163 -45 163 -166c0 -113 -72 -197 -196 -197c-84 0 -160 39 -175 133l62 14c10 -46 34 -91 114 -91c61 0 125 40 125 139c0 75 -48 113 -108 113c-48 0 -84 -18 -114 -46z" />
    <glyph glyph-name="six.smcp" horiz-adv-x="480" 
d="M419 441l-59 -16c-14 65 -47 82 -89 82c-120 0 -144 -133 -146 -241c31 34 82 71 152 71c99 0 150 -71 150 -166c0 -109 -70 -181 -183 -181c-149 0 -183 124 -183 255c0 134 36 315 213 315c71 0 127 -30 145 -119zM129 213c4 -74 17 -171 118 -171c67 0 113 42 113 128
c0 73 -35 114 -97 114c-58 0 -101 -33 -134 -71z" />
    <glyph glyph-name="seven.smcp" horiz-adv-x="416" 
d="M160 0h-71l241 493h-297v56h367v-49z" />
    <glyph glyph-name="eight.smcp" horiz-adv-x="445" 
d="M280 289c62 -27 130 -60 130 -146c0 -90 -74 -152 -195 -152c-122 0 -180 63 -180 140c0 79 64 123 132 152c-70 33 -113 74 -113 139c0 88 78 139 182 139c97 0 164 -46 164 -123c0 -66 -51 -114 -120 -149zM217 256c-68 -31 -118 -62 -118 -119c0 -50 39 -94 120 -94
c88 0 126 52 126 99c0 70 -82 97 -128 114zM228 312c60 29 112 74 112 123c0 44 -42 74 -110 74c-67 0 -113 -30 -113 -82c0 -53 47 -85 111 -115z" />
    <glyph glyph-name="nine.smcp" horiz-adv-x="476" 
d="M51 114l60 16c16 -67 52 -88 106 -88c108 0 136 99 139 230c-28 -32 -85 -66 -148 -66c-106 0 -155 66 -155 166c0 118 71 188 181 188c152 0 185 -124 185 -265c0 -151 -32 -305 -207 -305c-81 0 -143 34 -161 124zM351 330c-5 80 -17 177 -120 177
c-64 0 -112 -42 -112 -133c0 -78 33 -115 100 -115c53 0 100 33 132 71z" />
    <glyph glyph-name="dollar.smcp" horiz-adv-x="416" 
d="M178 -65v66c-79 4 -141 37 -153 144l61 12c10 -62 32 -98 92 -104v198c-58 16 -134 45 -134 145c0 90 58 137 134 149v63h59v-61c74 -6 122 -46 133 -134l-62 -10c-9 46 -26 80 -73 89v-190c59 -16 141 -47 141 -151c0 -84 -55 -139 -141 -150v-66h-57zM309 144
c0 55 -33 77 -74 91v-180c46 10 74 39 74 89zM111 404c0 -48 25 -70 67 -85v172c-52 -11 -67 -50 -67 -87z" />
    <glyph glyph-name="Euro.smcp" horiz-adv-x="485" 
d="M38 358h46c25 150 113 202 214 202c97 0 163 -48 171 -162l-61 -6c-10 78 -37 112 -109 112c-94 0 -135 -58 -149 -146h178l-9 -51h-174c-1 -12 -1 -25 -1 -37v-19h170l-9 -51h-157c12 -103 55 -153 142 -153c69 0 104 30 119 101l57 -13c-17 -109 -100 -144 -184 -144
c-101 0 -185 50 -202 209h-65l9 51h53v14c0 14 0 28 1 42h-49z" />
    <glyph glyph-name="cent.smcp" horiz-adv-x="401" 
d="M192 560h55v-76c68 -7 117 -48 122 -125l-62 -9c-5 49 -23 72 -61 78v-293c37 6 58 28 68 73l58 -10c-12 -73 -64 -111 -126 -119v-79h-55v79c-100 12 -145 94 -145 202c0 120 58 186 146 201v78zM113 285c0 -73 19 -131 78 -147v288c-42 -9 -78 -43 -78 -141z" />
    <glyph glyph-name="sterling.smcp" horiz-adv-x="448" 
d="M35 54h42c43 39 66 79 66 122c0 23 -7 46 -19 70h-82v52h61c-13 23 -35 62 -35 111c0 90 72 151 181 151c89 0 147 -41 158 -139l-60 -8c-7 58 -30 94 -100 94c-67 0 -112 -32 -112 -96c0 -44 21 -85 35 -113h179v-52h-159c10 -23 15 -46 15 -68c0 -46 -20 -88 -58 -124
h139c60 0 80 25 90 85l59 -12c-11 -90 -58 -127 -147 -127h-253v54z" />
    <glyph glyph-name="yen.smcp" horiz-adv-x="409" 
d="M346 149h-104v-149h-67v149h-104v52h104v57h-104v51h77l-130 241h73l119 -228l115 228h67l-125 -241h79v-51h-104v-57h104v-52z" />
    <glyph glyph-name="florin.smcp" horiz-adv-x="414" 
d="M170 338l21 104c17 82 58 118 131 118c55 0 93 -26 112 -79l-56 -20c-11 29 -26 48 -57 48c-33 0 -57 -16 -66 -66l-20 -105h111l-10 -49h-110l-63 -312c-17 -82 -55 -117 -128 -117c-55 0 -99 26 -115 79l57 21c11 -29 26 -48 60 -48c32 0 52 15 62 66l62 311h-63l9 49
h63z" />
    <glyph glyph-name="afii61352.smcp" horiz-adv-x="812" 
d="M539 204v50h215v-50h-215zM643 292c-86 0 -121 55 -121 131c0 75 46 129 125 129c81 0 118 -52 118 -125c0 -82 -38 -135 -122 -135zM644 337c43 0 66 30 66 86c0 54 -20 84 -64 84s-69 -30 -69 -84c0 -55 23 -86 67 -86zM460 0h-82l-233 471v-471h-63v550h90l226 -466
v466h62v-550z" />
    <glyph glyph-name="percent.smcp" horiz-adv-x="721" 
d="M175 206c-97 0 -129 67 -129 140c0 88 46 150 136 150c92 0 129 -56 129 -139c0 -89 -47 -151 -136 -151zM236 -14h-63l309 511h63zM178 252c57 0 73 42 73 102c0 53 -14 95 -71 95s-74 -51 -74 -98c0 -56 15 -99 72 -99zM539 -10c-97 0 -129 68 -129 141
c0 88 46 150 136 150c92 0 129 -56 129 -139c0 -90 -47 -152 -136 -152zM542 36c57 0 73 43 73 102c0 53 -14 96 -71 96s-74 -51 -74 -98c0 -56 15 -100 72 -100z" />
    <glyph glyph-name="perthousand.smcp" horiz-adv-x="1019" 
d="M175 206c-97 0 -129 67 -129 140c0 88 46 150 136 150c92 0 129 -56 129 -139c0 -89 -47 -151 -136 -151zM236 -14h-63l309 511h63zM178 252c57 0 73 42 73 102c0 53 -14 95 -71 95s-74 -51 -74 -98c0 -56 15 -99 72 -99zM539 -10c-97 0 -129 68 -129 141
c0 88 46 150 136 150c92 0 129 -56 129 -139c0 -90 -47 -152 -136 -152zM542 36c57 0 73 43 73 102c0 53 -14 96 -71 96s-74 -51 -74 -98c0 -56 15 -100 72 -100zM837 -10c-97 0 -129 68 -129 141c0 88 46 150 136 150c92 0 129 -56 129 -139c0 -90 -47 -152 -136 -152z
M840 36c57 0 73 43 73 102c0 53 -14 96 -71 96s-74 -51 -74 -98c0 -56 15 -100 72 -100z" />
    <glyph glyph-name="thinspace" unicode="&#x2009;" horiz-adv-x="125" 
 />
    <glyph glyph-name="circumflex" unicode="&#x2c6;" horiz-adv-x="500" 
d="M401 584l-56 -6l-96 122l-92 -124l-55 8l114 165h67z" />
    <glyph glyph-name="caron" unicode="&#x2c7;" horiz-adv-x="500" 
d="M99 737l60 6l92 -122l94 124l53 -8l-114 -165h-67z" />
    <glyph glyph-name="uni02C9" unicode="&#x2c9;" horiz-adv-x="500" 
d="M391 626h-283v57h283v-57z" />
    <glyph glyph-name="breve" unicode="&#x2d8;" horiz-adv-x="500" 
d="M342 730l53 -5c0 -93 -49 -152 -147 -152c-92 0 -137 49 -139 150l54 7c5 -81 32 -106 87 -106c57 0 89 25 92 106z" />
    <glyph glyph-name="dieresis" unicode="&#xa8;" horiz-adv-x="500" 
d="M202 668c0 -32 -21 -51 -52 -51c-32 0 -53 19 -53 51c0 31 21 51 53 51c31 0 52 -20 52 -51zM401 668c0 -32 -21 -51 -52 -51c-32 0 -53 19 -53 51c0 31 21 51 53 51c31 0 52 -20 52 -51z" />
    <glyph glyph-name="macron" unicode="&#xaf;" horiz-adv-x="500" 
d="M391 636h-283v57h283v-57z" />
    <glyph glyph-name="degree" unicode="&#xb0;" horiz-adv-x="300" 
d="M165 577c37 0 56 24 56 63c0 40 -20 61 -56 61c-35 0 -58 -21 -58 -65c0 -37 20 -59 58 -59zM274 640c0 -69 -42 -110 -109 -110c-68 0 -111 40 -111 106c0 73 49 112 111 112c63 0 109 -37 109 -108z" />
    <glyph glyph-name="acute" unicode="&#xb4;" horiz-adv-x="500" 
d="M365 749l-142 -177l-52 13l106 164h88z" />
    <glyph glyph-name="grave" unicode="`" horiz-adv-x="500" 
d="M281 572l-142 177h88l106 -164z" />
    <glyph glyph-name="cedilla" unicode="&#xb8;" horiz-adv-x="500" 
d="M137 -203l15 43c11 -7 33 -17 56 -17c33 0 49 22 49 48c0 33 -19 49 -76 50l15 109l52 -8l-9 -66c40 -8 76 -29 76 -86c0 -56 -44 -94 -101 -94c-39 0 -64 12 -77 21z" />
    <glyph glyph-name="dotaccent" unicode="&#x2d9;" horiz-adv-x="500" 
d="M304 678c0 -34 -20 -53 -54 -53s-54 19 -54 53s20 53 54 53s54 -19 54 -53z" />
    <glyph glyph-name="ring" unicode="&#x2da;" horiz-adv-x="500" 
d="M354 674c0 -62 -40 -99 -104 -99c-62 0 -103 35 -103 94c0 68 48 101 103 101c57 0 104 -29 104 -96zM250 620c34 0 51 22 51 54c0 33 -18 50 -51 50c-30 0 -52 -18 -52 -53c0 -32 18 -51 52 -51z" />
    <glyph glyph-name="ogonek" unicode="&#x2db;" horiz-adv-x="500" 
d="M323 -129l41 -22c-22 -49 -69 -71 -110 -71c-53 0 -93 30 -93 84c0 74 65 125 108 159l51 -13c-53 -49 -94 -83 -94 -135c0 -25 14 -41 40 -41c23 0 41 12 57 39z" />
    <glyph glyph-name="tilde" unicode="&#x2dc;" horiz-adv-x="500" 
d="M173 708c62 0 107 -47 152 -47c26 0 41 7 41 55l47 -2c10 -82 -35 -112 -82 -112c-60 0 -108 47 -155 47c-21 0 -39 -11 -37 -57l-46 2c-10 82 36 114 80 114z" />
    <glyph glyph-name="hungarumlaut" unicode="&#x2dd;" horiz-adv-x="500" 
d="M322 748l-121 -176l-52 13l85 163h88zM465 749l-142 -177l-52 13l106 164h88z" />
    <glyph glyph-name="perthousand" unicode="&#x2030;" horiz-adv-x="989" 
d="M187 412c-104 0 -137 74 -137 158c0 97 49 167 144 167c98 0 137 -64 137 -158c0 -100 -49 -167 -144 -167zM142 -17h-66l439 741h65zM190 462c63 0 80 51 80 114c0 59 -15 110 -77 110c-64 0 -81 -62 -81 -113c0 -59 15 -111 78 -111zM472 -12c-104 0 -137 74 -137 158
c0 97 49 167 144 167c98 0 137 -64 137 -158c0 -100 -49 -167 -144 -167zM475 38c63 0 80 51 80 114c0 59 -15 110 -77 110c-64 0 -81 -62 -81 -113c0 -59 15 -111 78 -111zM795 -12c-104 0 -137 74 -137 158c0 97 49 167 144 167c98 0 137 -64 137 -158
c0 -100 -49 -167 -144 -167zM798 38c63 0 80 51 80 114c0 59 -15 110 -77 110c-64 0 -81 -62 -81 -113c0 -59 15 -111 78 -111z" />
    <glyph glyph-name="percent" unicode="%" horiz-adv-x="789" 
d="M206 374c-117 0 -156 85 -156 176c0 109 57 187 164 187c110 0 155 -70 155 -174c0 -111 -56 -189 -163 -189zM138 -17c65 110 130 219 195 329c81 137 163 275 244 412h65c-65 -110 -130 -219 -195 -329c-81 -137 -162 -275 -243 -412h-66zM576 -12
c-117 0 -156 85 -156 176c0 109 57 187 164 187c110 0 155 -70 155 -174c0 -111 -56 -189 -163 -189zM579 40c75 0 95 58 95 133c0 67 -18 125 -92 125c-76 0 -97 -70 -97 -129c0 -70 19 -129 94 -129zM209 426c75 0 95 58 95 133c0 50 -10 96 -46 115c-12 6 -28 10 -46 10
c-76 0 -97 -70 -97 -129c0 -53 11 -99 48 -119c12 -7 27 -10 46 -10z" />
    <glyph glyph-name="fraction" unicode="&#x2044;" horiz-adv-x="134" 
d="M-83 -12h-64l356 736h63z" />
    <glyph glyph-name="zerosuperior" unicode="&#x2070;" horiz-adv-x="397" 
d="M197 342c-125 0 -152 95 -152 227c0 133 34 230 158 230s149 -97 149 -223c0 -139 -31 -234 -155 -234zM199 394c73 0 87 67 87 178c0 109 -11 173 -85 173s-90 -64 -90 -177c0 -106 13 -174 88 -174z" />
    <glyph glyph-name="onesuperior" unicode="&#xb9;" horiz-adv-x="279" 
d="M198 347h-63v362c-21 -12 -77 -20 -98 -20l-4 49c58 4 98 19 127 51h38v-442z" />
    <glyph glyph-name="twosuperior" unicode="&#xb2;" horiz-adv-x="345" 
d="M178 799c77 0 126 -36 126 -111c0 -69 -39 -115 -105 -190l-85 -93v-1h197v-55h-269v52l105 121c63 73 93 109 93 164c0 44 -26 62 -69 62c-56 0 -73 -31 -80 -74l-54 10c12 81 67 115 141 115z" />
    <glyph glyph-name="threesuperior" unicode="&#xb3;" horiz-adv-x="361" 
d="M29 447l58 11c7 -39 21 -65 78 -65c45 0 83 23 83 82c0 61 -36 80 -92 80h-41v49h29c62 0 98 34 98 82c0 35 -16 61 -68 61s-68 -22 -78 -61l-56 11c15 75 72 102 140 102c82 0 125 -42 125 -105c0 -65 -48 -96 -88 -107v-1c59 -11 96 -45 96 -113
c0 -79 -59 -131 -148 -131c-72 0 -127 31 -136 105z" />
    <glyph glyph-name="foursuperior" unicode="&#x2074;" horiz-adv-x="368" 
d="M291 349h-62v107h-209v45l193 290h78v-284h53v-51h-53v-107zM80 507h150v226z" />
    <glyph glyph-name="fivesuperior" unicode="&#x2075;" horiz-adv-x="366" 
d="M61 564l17 227h221v-53h-172l-12 -127l-1 -11c21 16 48 30 89 30c63 0 124 -33 124 -135c0 -92 -60 -153 -155 -153c-67 0 -127 29 -138 104l57 13c7 -35 26 -66 82 -66c44 0 88 28 88 100c0 63 -34 86 -79 86c-31 0 -57 -13 -79 -33z" />
    <glyph glyph-name="sixsuperior" unicode="&#x2076;" horiz-adv-x="381" 
d="M337 702l-56 -15c-10 49 -34 62 -67 62c-80 0 -102 -95 -103 -178c21 23 63 47 110 47c79 0 121 -50 121 -126c0 -98 -59 -150 -146 -150c-118 0 -146 98 -146 214c0 99 31 243 170 243c56 0 102 -26 117 -97zM114 524c4 -66 14 -132 86 -132c46 0 78 30 78 95
c0 55 -21 83 -69 83c-36 0 -75 -24 -95 -46z" />
    <glyph glyph-name="sevensuperior" unicode="&#x2077;" horiz-adv-x="331" 
d="M127 349h-67l184 389h-222v53h289v-47z" />
    <glyph glyph-name="eightsuperior" unicode="&#x2078;" horiz-adv-x="363" 
d="M236 583c52 -23 97 -49 97 -120c0 -69 -59 -121 -154 -121c-101 0 -147 48 -147 113c0 63 42 96 95 118c-47 19 -80 58 -80 109c0 77 63 117 143 117c83 0 134 -38 134 -102c0 -51 -35 -87 -88 -114zM172 551c-49 -22 -78 -46 -78 -91c0 -41 26 -68 87 -68s87 33 87 70
c0 53 -51 73 -96 89zM190 603c42 21 73 52 73 91c0 37 -26 57 -75 57c-48 0 -77 -23 -77 -61c0 -43 37 -70 79 -87z" />
    <glyph glyph-name="ninesuperior" unicode="&#x2079;" horiz-adv-x="386" 
d="M43 442l57 15c11 -48 35 -66 75 -66c75 0 100 71 102 171c-21 -23 -64 -44 -111 -44c-79 0 -121 52 -121 131c0 97 60 150 146 150c118 0 146 -99 146 -215s-26 -242 -164 -242c-64 0 -116 28 -130 100zM273 613c-4 66 -14 137 -86 137c-46 0 -78 -31 -78 -98
c0 -55 23 -86 71 -86c36 0 70 21 93 47z" />
    <glyph glyph-name="parenleftsuperior" unicode="&#x207d;" horiz-adv-x="241" 
d="M215 276h-65c-46 66 -91 154 -91 264c0 109 47 201 97 271h65c-58 -88 -96 -171 -96 -270c0 -110 40 -188 90 -265z" />
    <glyph glyph-name="parenrightsuperior" unicode="&#x207e;" horiz-adv-x="299" 
d="M94 276h-65c50 77 90 155 90 265c0 99 -38 182 -96 270h65c50 -70 97 -162 97 -271c0 -110 -45 -198 -91 -264z" />
    <glyph glyph-name="hyphensuperior" horiz-adv-x="217" 
d="M191 506h-171v56h171v-56z" />
    <glyph glyph-name="commasuperior" horiz-adv-x="181" 
d="M22 276l36 139h69l-54 -145z" />
    <glyph glyph-name="periodsuperior" horiz-adv-x="190" 
d="M140 384c0 -28 -15 -42 -45 -42s-45 14 -45 42s15 43 45 43s45 -15 45 -43z" />
    <glyph glyph-name="minussuperior" unicode="&#x207b;" horiz-adv-x="435" 
d="M337 544h-238v53h238v-53z" />
    <glyph glyph-name="plussuperior" unicode="&#x207a;" horiz-adv-x="435" 
d="M245 446h-56v93h-91v53h91v90h56v-90h91v-53h-91v-93z" />
    <glyph glyph-name="equalsuperior" unicode="&#x207c;" horiz-adv-x="438" 
d="M338 471h-237v54h237v-54zM338 572h-237v55h237v-55z" />
    <glyph glyph-name="a.sup" horiz-adv-x="370" 
d="M306 573v-160c0 -18 4 -25 21 -25c6 0 12 1 20 3l3 -37c-13 -7 -30 -10 -46 -10c-34 0 -48 17 -50 42c-24 -26 -63 -44 -111 -44c-85 0 -100 57 -100 89c0 89 81 109 163 111c17 0 29 -1 42 -1v30c0 41 -12 67 -68 67c-47 0 -65 -18 -72 -55l-51 9c10 62 51 93 128 93
c84 0 121 -30 121 -112zM249 430v68c-9 1 -20 1 -36 1c-47 -1 -110 -2 -110 -61c0 -24 11 -50 58 -50c35 0 69 22 88 42z" />
    <glyph glyph-name="b.sup" horiz-adv-x="393" 
d="M110 350h-51v483h58v-189c30 25 65 41 115 41c70 0 123 -42 123 -163c0 -128 -64 -180 -142 -180c-41 0 -75 18 -99 37h-1zM117 596v-165c11 -11 47 -41 92 -41c62 0 86 52 86 133c0 80 -25 116 -81 116c-38 0 -77 -23 -97 -43z" />
    <glyph glyph-name="c.sup" horiz-adv-x="365" 
d="M193 342c-111 0 -155 71 -155 169c0 115 61 174 163 174c74 0 124 -42 129 -117l-56 -8c-5 50 -27 75 -76 75c-48 0 -99 -22 -99 -117c0 -99 47 -125 98 -125c46 0 75 21 83 70l52 -10c-11 -76 -71 -111 -139 -111z" />
    <glyph glyph-name="d.sup" horiz-adv-x="390" 
d="M334 833v-483h-49l-5 36v0c-29 -25 -64 -44 -112 -44c-78 0 -130 48 -130 168c0 129 68 175 143 175c40 0 72 -12 96 -30v178h57zM276 436v172c-16 12 -48 30 -87 30c-67 0 -91 -51 -91 -129c0 -82 26 -121 84 -121c38 0 72 23 94 48z" />
    <glyph glyph-name="e.sup" horiz-adv-x="371" 
d="M194 342c-120 0 -156 82 -156 172c0 120 72 171 159 171c96 0 135 -61 135 -143c0 -12 -1 -30 -3 -43h-229c4 -86 43 -106 95 -106c51 0 72 24 81 62l52 -11c-14 -64 -67 -102 -134 -102zM101 543h170c2 63 -23 97 -78 97c-45 0 -88 -28 -92 -97z" />
    <glyph glyph-name="f.sup" horiz-adv-x="225" 
d="M228 828l-3 -47c-13 5 -32 9 -47 9c-32 0 -53 -12 -53 -58v-53h94v-47h-94v-282h-59v282h-50v47h50v54c0 71 36 106 100 106c28 0 50 -5 62 -11z" />
    <glyph glyph-name="g.sup" horiz-adv-x="374" 
d="M182 685c42 0 76 -8 99 -30c10 23 28 42 53 42c10 0 20 -2 30 -5v-45c-21 1 -49 -3 -67 -8c17 -18 25 -44 25 -71c0 -74 -59 -118 -137 -118c-22 0 -41 2 -57 8c-10 -9 -23 -19 -23 -33c0 -13 11 -20 41 -23l95 -8c70 -6 110 -20 110 -85c0 -80 -88 -104 -173 -104
c-127 0 -152 43 -152 82c0 38 27 62 54 75v1c-23 6 -34 22 -34 45c0 28 21 46 44 64c-34 18 -51 55 -51 93c0 75 58 120 143 120zM264 569c0 50 -30 71 -81 71c-49 0 -84 -21 -84 -72c0 -44 24 -70 84 -70c51 0 81 26 81 71zM292 304c0 22 -11 35 -58 39l-110 8
c-22 -15 -39 -31 -39 -54c0 -27 22 -45 100 -45c71 0 107 16 107 52z" />
    <glyph glyph-name="h.sup" horiz-adv-x="394" 
d="M340 573v-223h-58v215c0 46 -17 72 -64 72c-40 0 -82 -25 -100 -41v-246h-59v483h58v-190c34 25 73 42 120 42c72 0 103 -38 103 -112z" />
    <glyph glyph-name="i.sup" horiz-adv-x="174" 
d="M117 679v-329h-58v329h58zM131 784c0 -25 -16 -40 -42 -40c-27 0 -42 15 -42 40c0 26 15 41 42 41c26 0 42 -15 42 -41z" />
    <glyph glyph-name="j.sup" horiz-adv-x="173" 
d="M22 207c-21 0 -51 6 -63 13l6 46c14 -6 33 -10 50 -10c27 0 44 13 44 52v371h59v-373c0 -69 -35 -99 -96 -99zM132 790c0 -26 -16 -41 -42 -41c-27 0 -42 15 -42 41c0 25 15 40 42 40c26 0 42 -15 42 -40z" />
    <glyph glyph-name="k.sup" horiz-adv-x="360" 
d="M118 833v-304l146 150h67l-117 -119l126 -210h-64l-106 171l-52 -51v-120h-59v483h59z" />
    <glyph glyph-name="l.sup" horiz-adv-x="174" 
d="M118 833v-483h-59v483h59z" />
    <glyph glyph-name="m.sup" horiz-adv-x="582" 
d="M118 596v-246h-59v329h51l3 -38c34 25 70 44 116 44c45 0 72 -14 85 -45c33 25 71 45 118 45c71 0 96 -38 96 -112v-223h-59v216c0 45 -8 71 -53 71c-33 0 -73 -22 -93 -38c1 -10 2 -22 2 -33v-216h-59v216c0 45 -8 71 -53 71c-35 0 -77 -24 -95 -41z" />
    <glyph glyph-name="n.sup" horiz-adv-x="394" 
d="M340 573v-223h-58v215c0 46 -17 72 -64 72c-40 0 -82 -25 -100 -41v-246h-59v329h52l3 -38c34 26 76 44 122 44c73 0 104 -38 104 -112z" />
    <glyph glyph-name="o.sup" horiz-adv-x="392" 
d="M194 342c-117 0 -156 74 -156 171c0 106 57 172 165 172c107 0 151 -67 151 -164c0 -108 -46 -179 -160 -179zM197 391c59 0 96 36 96 126c0 87 -34 119 -93 119c-61 0 -101 -38 -101 -121s31 -124 98 -124z" />
    <glyph glyph-name="p.sup" horiz-adv-x="393" 
d="M59 214v465h51l3 -37c31 26 70 43 118 43c71 0 124 -42 124 -163c0 -128 -65 -180 -142 -180c-40 0 -73 17 -97 35v-163h-57zM117 596v-167c14 -13 49 -39 92 -39c62 0 86 53 86 133c0 83 -26 116 -81 116c-38 0 -77 -23 -97 -43z" />
    <glyph glyph-name="q.sup" horiz-adv-x="389" 
d="M334 679v-465h-56v170c-29 -25 -63 -42 -111 -42c-77 0 -129 48 -129 168c0 129 68 175 143 175c40 0 73 -15 97 -35l5 29h51zM276 432v172c-16 12 -49 34 -88 34c-66 0 -90 -51 -90 -129c0 -81 26 -120 82 -120c40 0 75 23 96 43z" />
    <glyph glyph-name="r.sup" horiz-adv-x="250" 
d="M238 685v-58c-42 6 -92 -10 -120 -36v-241h-59v329h49l5 -48c30 40 65 55 113 54h12z" />
    <glyph glyph-name="s.sup" horiz-adv-x="330" 
d="M168 685c81 0 113 -37 123 -96l-52 -10c-8 39 -21 62 -72 62c-52 0 -66 -22 -66 -47c0 -35 30 -43 78 -54c61 -13 118 -26 118 -99c0 -62 -49 -99 -131 -99c-78 0 -125 29 -135 96l52 13c9 -35 25 -64 85 -64c42 0 71 12 71 48c0 35 -27 42 -74 53
c-55 14 -122 23 -122 99c0 66 58 98 125 98z" />
    <glyph glyph-name="t.sup" horiz-adv-x="259" 
d="M236 406l11 -42c-16 -11 -51 -22 -83 -22c-63 0 -95 28 -95 93v197h-52v47h52v95l59 8v-103h94v-47h-94v-187c0 -35 8 -55 49 -55c20 0 45 8 59 16z" />
    <glyph glyph-name="u.sup" horiz-adv-x="394" 
d="M58 456v223h59v-215c0 -46 14 -72 61 -72c40 0 77 23 100 46v241h59v-329h-51l-4 40c-33 -26 -76 -47 -122 -47c-72 0 -102 39 -102 113z" />
    <glyph glyph-name="v.sup" horiz-adv-x="342" 
d="M205 350h-66l-130 329h64l100 -273h1l100 273h59z" />
    <glyph glyph-name="w.sup" horiz-adv-x="509" 
d="M185 350h-70l-106 329h60l82 -271h1l75 271h61l74 -269v0l82 269h56l-105 -329h-69l-71 263v0z" />
    <glyph glyph-name="x.sup" horiz-adv-x="334" 
d="M312 679l-114 -158l120 -171h-64l-90 131l-87 -131h-60l114 170l-114 159h64l85 -121l88 121h58z" />
    <glyph glyph-name="y.sup" horiz-adv-x="329" 
d="M136 346l-125 333h63l91 -265h1l94 265h60c-42 -111 -93 -240 -135 -349c-36 -92 -60 -123 -123 -123c-25 0 -51 7 -64 12l7 45c12 -3 37 -9 55 -9c27 0 47 13 66 64z" />
    <glyph glyph-name="z.sup" horiz-adv-x="313" 
d="M283 637l-191 -239h199v-48h-266v42l192 240h-189v47h255v-42z" />
    <glyph glyph-name="zeroinferior" unicode="&#x2080;" horiz-adv-x="397" 
d="M197 -154c-125 0 -152 95 -152 227c0 133 34 230 158 230s149 -97 149 -223c0 -139 -31 -234 -155 -234zM199 -102c73 0 87 67 87 178c0 109 -11 173 -85 173s-90 -64 -90 -177c0 -106 13 -174 88 -174z" />
    <glyph glyph-name="oneinferior" unicode="&#x2081;" horiz-adv-x="279" 
d="M198 -149h-63v362c-21 -12 -77 -20 -98 -20l-4 49c58 4 98 19 127 51h38v-442z" />
    <glyph glyph-name="twoinferior" unicode="&#x2082;" horiz-adv-x="345" 
d="M178 303c77 0 126 -36 126 -111c0 -69 -39 -115 -105 -190l-85 -93v-1h197v-55h-269v52l105 121c63 73 93 109 93 164c0 44 -26 62 -69 62c-56 0 -73 -31 -80 -74l-54 10c12 81 67 115 141 115z" />
    <glyph glyph-name="threeinferior" unicode="&#x2083;" horiz-adv-x="361" 
d="M29 -49l58 11c7 -39 21 -65 78 -65c45 0 83 23 83 82c0 61 -36 80 -92 80h-41v49h29c62 0 98 34 98 82c0 35 -16 61 -68 61s-68 -22 -78 -61l-56 11c15 75 72 102 140 102c82 0 125 -42 125 -105c0 -65 -48 -96 -88 -107v-1c59 -11 96 -45 96 -113
c0 -79 -59 -131 -148 -131c-72 0 -127 31 -136 105z" />
    <glyph glyph-name="fourinferior" unicode="&#x2084;" horiz-adv-x="368" 
d="M291 -147h-62v107h-209v45l193 290h78v-284h53v-51h-53v-107zM80 11h150v226z" />
    <glyph glyph-name="fiveinferior" unicode="&#x2085;" horiz-adv-x="366" 
d="M61 68l17 227h221v-53h-172l-12 -127l-1 -11c21 16 48 30 89 30c63 0 124 -33 124 -135c0 -92 -60 -153 -155 -153c-67 0 -127 29 -138 104l57 13c7 -35 26 -66 82 -66c44 0 88 28 88 100c0 63 -34 86 -79 86c-31 0 -57 -13 -79 -33z" />
    <glyph glyph-name="sixinferior" unicode="&#x2086;" horiz-adv-x="381" 
d="M337 206l-56 -15c-10 49 -34 62 -67 62c-80 0 -102 -95 -103 -178c21 23 63 47 110 47c79 0 121 -50 121 -126c0 -98 -59 -150 -146 -150c-118 0 -146 98 -146 214c0 99 31 243 170 243c56 0 102 -26 117 -97zM114 28c4 -66 14 -132 86 -132c46 0 78 30 78 95
c0 55 -21 83 -69 83c-36 0 -75 -24 -95 -46z" />
    <glyph glyph-name="seveninferior" unicode="&#x2087;" horiz-adv-x="331" 
d="M127 -147h-67l184 389h-222v53h289v-47z" />
    <glyph glyph-name="eightinferior" unicode="&#x2088;" horiz-adv-x="363" 
d="M236 87c52 -23 97 -49 97 -120c0 -69 -59 -121 -154 -121c-101 0 -147 48 -147 113c0 63 42 96 95 118c-47 19 -80 58 -80 109c0 77 63 117 143 117c83 0 134 -38 134 -102c0 -51 -35 -87 -88 -114zM172 55c-49 -22 -78 -46 -78 -91c0 -41 26 -68 87 -68s87 33 87 70
c0 53 -51 73 -96 89zM190 107c42 21 73 52 73 91c0 37 -26 57 -75 57c-48 0 -77 -23 -77 -61c0 -43 37 -70 79 -87z" />
    <glyph glyph-name="nineinferior" unicode="&#x2089;" horiz-adv-x="386" 
d="M43 -54l57 15c11 -48 35 -66 75 -66c75 0 100 71 102 171c-21 -23 -64 -44 -111 -44c-79 0 -121 52 -121 131c0 97 60 150 146 150c118 0 146 -99 146 -215s-26 -242 -164 -242c-64 0 -116 28 -130 100zM273 117c-4 66 -14 137 -86 137c-46 0 -78 -31 -78 -98
c0 -55 23 -86 71 -86c36 0 70 21 93 47z" />
    <glyph glyph-name="parenleftinferior" unicode="&#x208d;" horiz-adv-x="241" 
d="M215 -220h-65c-46 66 -91 154 -91 264c0 109 47 201 97 271h65c-58 -88 -96 -171 -96 -270c0 -110 40 -188 90 -265z" />
    <glyph glyph-name="parenrightinferior" unicode="&#x208e;" horiz-adv-x="299" 
d="M94 -220h-65c50 77 90 155 90 265c0 99 -38 182 -96 270h65c50 -70 97 -162 97 -271c0 -110 -45 -198 -91 -264z" />
    <glyph glyph-name="hypheninferior" horiz-adv-x="217" 
d="M191 10h-171v56h171v-56z" />
    <glyph glyph-name="commainferior" horiz-adv-x="181" 
d="M22 -220l36 139h69l-54 -145z" />
    <glyph glyph-name="periodinferior" horiz-adv-x="190" 
d="M140 -112c0 -28 -15 -42 -45 -42s-45 14 -45 42s15 43 45 43s45 -15 45 -43z" />
    <glyph glyph-name="minusinferior" horiz-adv-x="435" 
d="M337 48h-238v53h238v-53z" />
    <glyph glyph-name="plusinferior" horiz-adv-x="435" 
d="M245 -50h-56v93h-91v53h91v90h56v-90h91v-53h-91v-93z" />
    <glyph glyph-name="equalinferior" horiz-adv-x="438" 
d="M338 -25h-237v54h237v-54zM338 76h-237v55h237v-55z" />
    <glyph glyph-name="a.sinf" horiz-adv-x="370" 
d="M306 77v-160c0 -18 4 -25 21 -25c6 0 12 1 20 3l3 -37c-13 -7 -30 -10 -46 -10c-34 0 -48 17 -50 42c-24 -26 -63 -44 -111 -44c-85 0 -100 57 -100 89c0 89 81 109 163 111c17 0 29 -1 42 -1v30c0 41 -12 67 -68 67c-47 0 -65 -18 -72 -55l-51 9c10 62 51 93 128 93
c84 0 121 -30 121 -112zM249 -66v68c-9 1 -20 1 -36 1c-47 -1 -110 -2 -110 -61c0 -24 11 -50 58 -50c35 0 69 22 88 42z" />
    <glyph glyph-name="b.sinf" horiz-adv-x="393" 
d="M110 -146h-51v483h58v-189c30 25 65 41 115 41c70 0 123 -42 123 -163c0 -128 -64 -180 -142 -180c-41 0 -75 18 -99 37h-1zM117 100v-165c11 -11 47 -41 92 -41c62 0 86 52 86 133c0 80 -25 116 -81 116c-38 0 -77 -23 -97 -43z" />
    <glyph glyph-name="c.sinf" horiz-adv-x="365" 
d="M193 -154c-111 0 -155 71 -155 169c0 115 61 174 163 174c74 0 124 -42 129 -117l-56 -8c-5 50 -27 75 -76 75c-48 0 -99 -22 -99 -117c0 -99 47 -125 98 -125c46 0 75 21 83 70l52 -10c-11 -76 -71 -111 -139 -111z" />
    <glyph glyph-name="d.sinf" horiz-adv-x="390" 
d="M334 337v-483h-49l-5 36v0c-29 -25 -64 -44 -112 -44c-78 0 -130 48 -130 168c0 129 68 175 143 175c40 0 72 -12 96 -30v178h57zM276 -60v172c-16 12 -48 30 -87 30c-67 0 -91 -51 -91 -129c0 -82 26 -121 84 -121c38 0 72 23 94 48z" />
    <glyph glyph-name="e.sinf" horiz-adv-x="371" 
d="M194 -154c-120 0 -156 82 -156 172c0 120 72 171 159 171c96 0 135 -61 135 -143c0 -12 -1 -30 -3 -43h-229c4 -86 43 -106 95 -106c51 0 72 24 81 62l52 -11c-14 -64 -67 -102 -134 -102zM101 47h170c2 63 -23 97 -78 97c-45 0 -88 -28 -92 -97z" />
    <glyph glyph-name="f.sinf" horiz-adv-x="225" 
d="M228 332l-3 -47c-13 5 -32 9 -47 9c-32 0 -53 -12 -53 -58v-53h94v-47h-94v-282h-59v282h-50v47h50v54c0 71 36 106 100 106c28 0 50 -5 62 -11z" />
    <glyph glyph-name="g.sinf" horiz-adv-x="374" 
d="M182 189c42 0 76 -8 99 -30c10 23 28 42 53 42c10 0 20 -2 30 -5v-45c-21 1 -49 -3 -67 -8c17 -18 25 -44 25 -71c0 -74 -59 -118 -137 -118c-22 0 -41 2 -57 8c-10 -9 -23 -19 -23 -33c0 -13 11 -20 41 -23l95 -8c70 -6 110 -20 110 -85c0 -80 -88 -104 -173 -104
c-127 0 -152 43 -152 82c0 38 27 62 54 75v1c-23 6 -34 22 -34 45c0 28 21 46 44 64c-34 18 -51 55 -51 93c0 75 58 120 143 120zM264 73c0 50 -30 71 -81 71c-49 0 -84 -21 -84 -72c0 -44 24 -70 84 -70c51 0 81 26 81 71zM292 -192c0 22 -11 35 -58 39l-110 8
c-22 -15 -39 -31 -39 -54c0 -27 22 -45 100 -45c71 0 107 16 107 52z" />
    <glyph glyph-name="h.sinf" horiz-adv-x="394" 
d="M340 77v-223h-58v215c0 46 -17 72 -64 72c-40 0 -82 -25 -100 -41v-246h-59v483h58v-190c34 25 73 42 120 42c72 0 103 -38 103 -112z" />
    <glyph glyph-name="i.sinf" horiz-adv-x="174" 
d="M117 183v-329h-58v329h58zM131 288c0 -25 -16 -40 -42 -40c-27 0 -42 15 -42 40c0 26 15 41 42 41c26 0 42 -15 42 -41z" />
    <glyph glyph-name="j.sinf" horiz-adv-x="173" 
d="M22 -289c-21 0 -51 6 -63 13l6 46c14 -6 33 -10 50 -10c27 0 44 13 44 52v371h59v-373c0 -69 -35 -99 -96 -99zM132 294c0 -26 -16 -41 -42 -41c-27 0 -42 15 -42 41c0 25 15 40 42 40c26 0 42 -15 42 -40z" />
    <glyph glyph-name="k.sinf" horiz-adv-x="360" 
d="M118 337v-304l146 150h67l-117 -119l126 -210h-64l-106 171l-52 -51v-120h-59v483h59z" />
    <glyph glyph-name="l.sinf" horiz-adv-x="174" 
d="M118 337v-483h-59v483h59z" />
    <glyph glyph-name="m.sinf" horiz-adv-x="582" 
d="M118 100v-246h-59v329h51l3 -38c34 25 70 44 116 44c45 0 72 -14 85 -45c33 25 71 45 118 45c71 0 96 -38 96 -112v-223h-59v216c0 45 -8 71 -53 71c-33 0 -73 -22 -93 -38c1 -10 2 -22 2 -33v-216h-59v216c0 45 -8 71 -53 71c-35 0 -77 -24 -95 -41z" />
    <glyph glyph-name="n.sinf" horiz-adv-x="394" 
d="M340 77v-223h-58v215c0 46 -17 72 -64 72c-40 0 -82 -25 -100 -41v-246h-59v329h52l3 -38c34 26 76 44 122 44c73 0 104 -38 104 -112z" />
    <glyph glyph-name="o.sinf" horiz-adv-x="392" 
d="M194 -154c-117 0 -156 74 -156 171c0 106 57 172 165 172c107 0 151 -67 151 -164c0 -108 -46 -179 -160 -179zM197 -105c59 0 96 36 96 126c0 87 -34 119 -93 119c-61 0 -101 -38 -101 -121s31 -124 98 -124z" />
    <glyph glyph-name="p.sinf" horiz-adv-x="393" 
d="M59 -282v465h51l3 -37c31 26 70 43 118 43c71 0 124 -42 124 -163c0 -128 -65 -180 -142 -180c-40 0 -73 17 -97 35v-163h-57zM117 100v-167c14 -13 49 -39 92 -39c62 0 86 53 86 133c0 83 -26 116 -81 116c-38 0 -77 -23 -97 -43z" />
    <glyph glyph-name="q.sinf" horiz-adv-x="389" 
d="M334 183v-465h-56v170c-29 -25 -63 -42 -111 -42c-77 0 -129 48 -129 168c0 129 68 175 143 175c40 0 73 -15 97 -35l5 29h51zM276 -64v172c-16 12 -49 34 -88 34c-66 0 -90 -51 -90 -129c0 -81 26 -120 82 -120c40 0 75 23 96 43z" />
    <glyph glyph-name="r.sinf" horiz-adv-x="250" 
d="M238 189v-58c-42 6 -92 -10 -120 -36v-241h-59v329h49l5 -48c30 40 65 55 113 54h12z" />
    <glyph glyph-name="s.sinf" horiz-adv-x="330" 
d="M168 189c81 0 113 -37 123 -96l-52 -10c-8 39 -21 62 -72 62c-52 0 -66 -22 -66 -47c0 -35 30 -43 78 -54c61 -13 118 -26 118 -99c0 -62 -49 -99 -131 -99c-78 0 -125 29 -135 96l52 13c9 -35 25 -64 85 -64c42 0 71 12 71 48c0 35 -27 42 -74 53
c-55 14 -122 23 -122 99c0 66 58 98 125 98z" />
    <glyph glyph-name="t.sinf" horiz-adv-x="259" 
d="M236 -90l11 -42c-16 -11 -51 -22 -83 -22c-63 0 -95 28 -95 93v197h-52v47h52v95l59 8v-103h94v-47h-94v-187c0 -35 8 -55 49 -55c20 0 45 8 59 16z" />
    <glyph glyph-name="u.sinf" horiz-adv-x="394" 
d="M58 -40v223h59v-215c0 -46 14 -72 61 -72c40 0 77 23 100 46v241h59v-329h-51l-4 40c-33 -26 -76 -47 -122 -47c-72 0 -102 39 -102 113z" />
    <glyph glyph-name="v.sinf" horiz-adv-x="342" 
d="M205 -146h-66l-130 329h64l100 -273h1l100 273h59z" />
    <glyph glyph-name="w.sinf" horiz-adv-x="509" 
d="M185 -146h-70l-106 329h60l82 -271h1l75 271h61l74 -269v0l82 269h56l-105 -329h-69l-71 263v0z" />
    <glyph glyph-name="x.sinf" horiz-adv-x="334" 
d="M312 183l-114 -158l120 -171h-64l-90 131l-87 -131h-60l114 170l-114 159h64l85 -121l88 121h58z" />
    <glyph glyph-name="y.sinf" horiz-adv-x="329" 
d="M136 -150l-125 333h63l91 -265h1l94 265h60c-42 -111 -93 -240 -135 -349c-36 -92 -60 -123 -123 -123c-25 0 -51 7 -64 12l7 45c12 -3 37 -9 55 -9c27 0 47 13 66 64z" />
    <glyph glyph-name="z.sinf" horiz-adv-x="313" 
d="M283 141l-191 -239h199v-48h-266v42l192 240h-189v47h255v-42z" />
    <glyph glyph-name="zero.num" horiz-adv-x="397" 
d="M197 274c-125 0 -152 95 -152 227c0 133 34 230 158 230s149 -97 149 -223c0 -139 -31 -234 -155 -234zM199 326c73 0 87 67 87 178c0 109 -11 173 -85 173s-90 -64 -90 -177c0 -106 13 -174 88 -174z" />
    <glyph glyph-name="one.num" horiz-adv-x="279" 
d="M198 279h-63v362c-21 -12 -77 -20 -98 -20l-4 49c58 4 98 19 127 51h38v-442z" />
    <glyph glyph-name="two.num" horiz-adv-x="345" 
d="M178 731c77 0 126 -36 126 -111c0 -69 -39 -115 -105 -190l-85 -93v-1h197v-55h-269v52l105 121c63 73 93 109 93 164c0 44 -26 62 -69 62c-56 0 -73 -31 -80 -74l-54 10c12 81 67 115 141 115z" />
    <glyph glyph-name="three.num" horiz-adv-x="361" 
d="M29 379l58 11c7 -39 21 -65 78 -65c45 0 83 23 83 82c0 61 -36 80 -92 80h-41v49h29c62 0 98 34 98 82c0 35 -16 61 -68 61s-68 -22 -78 -61l-56 11c15 75 72 102 140 102c82 0 125 -42 125 -105c0 -65 -48 -96 -88 -107v-1c59 -11 96 -45 96 -113
c0 -79 -59 -131 -148 -131c-72 0 -127 31 -136 105z" />
    <glyph glyph-name="four.num" horiz-adv-x="368" 
d="M291 281h-62v107h-209v45l193 290h78v-284h53v-51h-53v-107zM80 439h150v226z" />
    <glyph glyph-name="five.num" horiz-adv-x="366" 
d="M61 496l17 227h221v-53h-172l-12 -127l-1 -11c21 16 48 30 89 30c63 0 124 -33 124 -135c0 -92 -60 -153 -155 -153c-67 0 -127 29 -138 104l57 13c7 -35 26 -66 82 -66c44 0 88 28 88 100c0 63 -34 86 -79 86c-31 0 -57 -13 -79 -33z" />
    <glyph glyph-name="six.num" horiz-adv-x="381" 
d="M337 634l-56 -15c-10 49 -34 62 -67 62c-80 0 -102 -95 -103 -178c21 23 63 47 110 47c79 0 121 -50 121 -126c0 -98 -59 -150 -146 -150c-118 0 -146 98 -146 214c0 99 31 243 170 243c56 0 102 -26 117 -97zM114 456c4 -66 14 -132 86 -132c46 0 78 30 78 95
c0 55 -21 83 -69 83c-36 0 -75 -24 -95 -46z" />
    <glyph glyph-name="seven.num" horiz-adv-x="331" 
d="M127 281h-67l184 389h-222v53h289v-47z" />
    <glyph glyph-name="eight.num" horiz-adv-x="363" 
d="M236 515c52 -23 97 -49 97 -120c0 -69 -59 -121 -154 -121c-101 0 -147 48 -147 113c0 63 42 96 95 118c-47 19 -80 58 -80 109c0 77 63 117 143 117c83 0 134 -38 134 -102c0 -51 -35 -87 -88 -114zM172 483c-49 -22 -78 -46 -78 -91c0 -41 26 -68 87 -68s87 33 87 70
c0 53 -51 73 -96 89zM190 535c42 21 73 52 73 91c0 37 -26 57 -75 57c-48 0 -77 -23 -77 -61c0 -43 37 -70 79 -87z" />
    <glyph glyph-name="nine.num" horiz-adv-x="386" 
d="M43 374l57 15c11 -48 35 -66 75 -66c75 0 100 71 102 171c-21 -23 -64 -44 -111 -44c-79 0 -121 52 -121 131c0 97 60 150 146 150c118 0 146 -99 146 -215s-26 -242 -164 -242c-64 0 -116 28 -130 100zM273 545c-4 66 -14 137 -86 137c-46 0 -78 -31 -78 -98
c0 -55 23 -86 71 -86c36 0 70 21 93 47z" />
    <glyph glyph-name="parenleft.ordn" horiz-adv-x="241" 
d="M215 208h-65c-46 66 -91 154 -91 264c0 109 47 201 97 271h65c-58 -88 -96 -171 -96 -270c0 -110 40 -188 90 -265z" />
    <glyph glyph-name="parenright.ordn" horiz-adv-x="299" 
d="M94 208h-65c50 77 90 155 90 265c0 99 -38 182 -96 270h65c50 -70 97 -162 97 -271c0 -110 -45 -198 -91 -264z" />
    <glyph glyph-name="hyphen.ordn" horiz-adv-x="217" 
d="M191 438h-171v56h171v-56z" />
    <glyph glyph-name="comma.ordn" horiz-adv-x="181" 
d="M22 208l36 139h69l-54 -145z" />
    <glyph glyph-name="period.ordn" horiz-adv-x="190" 
d="M140 316c0 -28 -15 -42 -45 -42s-45 14 -45 42s15 43 45 43s45 -15 45 -43z" />
    <glyph glyph-name="minus.ordn" horiz-adv-x="435" 
d="M337 476h-238v53h238v-53z" />
    <glyph glyph-name="plus.ordn" horiz-adv-x="435" 
d="M245 378h-56v93h-91v53h91v90h56v-90h91v-53h-91v-93z" />
    <glyph glyph-name="equal.ordn" horiz-adv-x="438" 
d="M338 403h-237v54h237v-54zM338 504h-237v55h237v-55z" />
    <glyph glyph-name="a.ordn" horiz-adv-x="370" 
d="M306 505v-160c0 -18 4 -25 21 -25c6 0 12 1 20 3l3 -37c-13 -7 -30 -10 -46 -10c-34 0 -48 17 -50 42c-24 -26 -63 -44 -111 -44c-85 0 -100 57 -100 89c0 89 81 109 163 111c17 0 29 -1 42 -1v30c0 41 -12 67 -68 67c-47 0 -65 -18 -72 -55l-51 9c10 62 51 93 128 93
c84 0 121 -30 121 -112zM249 362v68c-9 1 -20 1 -36 1c-47 -1 -110 -2 -110 -61c0 -24 11 -50 58 -50c35 0 69 22 88 42z" />
    <glyph glyph-name="b.ordn" horiz-adv-x="393" 
d="M110 282h-51v483h58v-189c30 25 65 41 115 41c70 0 123 -42 123 -163c0 -128 -64 -180 -142 -180c-41 0 -75 18 -99 37h-1zM117 528v-165c11 -11 47 -41 92 -41c62 0 86 52 86 133c0 80 -25 116 -81 116c-38 0 -77 -23 -97 -43z" />
    <glyph glyph-name="c.ordn" horiz-adv-x="365" 
d="M193 274c-111 0 -155 71 -155 169c0 115 61 174 163 174c74 0 124 -42 129 -117l-56 -8c-5 50 -27 75 -76 75c-48 0 -99 -22 -99 -117c0 -99 47 -125 98 -125c46 0 75 21 83 70l52 -10c-11 -76 -71 -111 -139 -111z" />
    <glyph glyph-name="d.ordn" horiz-adv-x="390" 
d="M334 765v-483h-49l-5 36v0c-29 -25 -64 -44 -112 -44c-78 0 -130 48 -130 168c0 129 68 175 143 175c40 0 72 -12 96 -30v178h57zM276 368v172c-16 12 -48 30 -87 30c-67 0 -91 -51 -91 -129c0 -82 26 -121 84 -121c38 0 72 23 94 48z" />
    <glyph glyph-name="e.ordn" horiz-adv-x="371" 
d="M194 274c-120 0 -156 82 -156 172c0 120 72 171 159 171c96 0 135 -61 135 -143c0 -12 -1 -30 -3 -43h-229c4 -86 43 -106 95 -106c51 0 72 24 81 62l52 -11c-14 -64 -67 -102 -134 -102zM101 475h170c2 63 -23 97 -78 97c-45 0 -88 -28 -92 -97z" />
    <glyph glyph-name="f.ordn" horiz-adv-x="225" 
d="M228 760l-3 -47c-13 5 -32 9 -47 9c-32 0 -53 -12 -53 -58v-53h94v-47h-94v-282h-59v282h-50v47h50v54c0 71 36 106 100 106c28 0 50 -5 62 -11z" />
    <glyph glyph-name="g.ordn" horiz-adv-x="374" 
d="M182 617c42 0 76 -8 99 -30c10 23 28 42 53 42c10 0 20 -2 30 -5v-45c-21 1 -49 -3 -67 -8c17 -18 25 -44 25 -71c0 -74 -59 -118 -137 -118c-22 0 -41 2 -57 8c-10 -9 -23 -19 -23 -33c0 -13 11 -20 41 -23l95 -8c70 -6 110 -20 110 -85c0 -80 -88 -104 -173 -104
c-127 0 -152 43 -152 82c0 38 27 62 54 75v1c-23 6 -34 22 -34 45c0 28 21 46 44 64c-34 18 -51 55 -51 93c0 75 58 120 143 120zM264 501c0 50 -30 71 -81 71c-49 0 -84 -21 -84 -72c0 -44 24 -70 84 -70c51 0 81 26 81 71zM292 236c0 22 -11 35 -58 39l-110 8
c-22 -15 -39 -31 -39 -54c0 -27 22 -45 100 -45c71 0 107 16 107 52z" />
    <glyph glyph-name="h.ordn" horiz-adv-x="394" 
d="M340 505v-223h-58v215c0 46 -17 72 -64 72c-40 0 -82 -25 -100 -41v-246h-59v483h58v-190c34 25 73 42 120 42c72 0 103 -38 103 -112z" />
    <glyph glyph-name="i.ordn" horiz-adv-x="174" 
d="M117 611v-329h-58v329h58zM131 716c0 -25 -16 -40 -42 -40c-27 0 -42 15 -42 40c0 26 15 41 42 41c26 0 42 -15 42 -41z" />
    <glyph glyph-name="j.ordn" horiz-adv-x="173" 
d="M22 139c-21 0 -51 6 -63 13l6 46c14 -6 33 -10 50 -10c27 0 44 13 44 52v371h59v-373c0 -69 -35 -99 -96 -99zM132 722c0 -26 -16 -41 -42 -41c-27 0 -42 15 -42 41c0 25 15 40 42 40c26 0 42 -15 42 -40z" />
    <glyph glyph-name="k.ordn" horiz-adv-x="360" 
d="M118 765v-304l146 150h67l-117 -119l126 -210h-64l-106 171l-52 -51v-120h-59v483h59z" />
    <glyph glyph-name="l.ordn" horiz-adv-x="174" 
d="M118 765v-483h-59v483h59z" />
    <glyph glyph-name="m.ordn" horiz-adv-x="582" 
d="M118 528v-246h-59v329h51l3 -38c34 25 70 44 116 44c45 0 72 -14 85 -45c33 25 71 45 118 45c71 0 96 -38 96 -112v-223h-59v216c0 45 -8 71 -53 71c-33 0 -73 -22 -93 -38c1 -10 2 -22 2 -33v-216h-59v216c0 45 -8 71 -53 71c-35 0 -77 -24 -95 -41z" />
    <glyph glyph-name="n.ordn" horiz-adv-x="394" 
d="M340 505v-223h-58v215c0 46 -17 72 -64 72c-40 0 -82 -25 -100 -41v-246h-59v329h52l3 -38c34 26 76 44 122 44c73 0 104 -38 104 -112z" />
    <glyph glyph-name="o.ordn" horiz-adv-x="392" 
d="M194 274c-117 0 -156 74 -156 171c0 106 57 172 165 172c107 0 151 -67 151 -164c0 -108 -46 -179 -160 -179zM197 323c59 0 96 36 96 126c0 87 -34 119 -93 119c-61 0 -101 -38 -101 -121s31 -124 98 -124z" />
    <glyph glyph-name="p.ordn" horiz-adv-x="393" 
d="M59 146v465h51l3 -37c31 26 70 43 118 43c71 0 124 -42 124 -163c0 -128 -65 -180 -142 -180c-40 0 -73 17 -97 35v-163h-57zM117 528v-167c14 -13 49 -39 92 -39c62 0 86 53 86 133c0 83 -26 116 -81 116c-38 0 -77 -23 -97 -43z" />
    <glyph glyph-name="q.ordn" horiz-adv-x="389" 
d="M334 611v-465h-56v170c-29 -25 -63 -42 -111 -42c-77 0 -129 48 -129 168c0 129 68 175 143 175c40 0 73 -15 97 -35l5 29h51zM276 364v172c-16 12 -49 34 -88 34c-66 0 -90 -51 -90 -129c0 -81 26 -120 82 -120c40 0 75 23 96 43z" />
    <glyph glyph-name="r.ordn" horiz-adv-x="250" 
d="M238 617v-58c-42 6 -92 -10 -120 -36v-241h-59v329h49l5 -48c30 40 65 55 113 54h12z" />
    <glyph glyph-name="s.ordn" horiz-adv-x="330" 
d="M168 617c81 0 113 -37 123 -96l-52 -10c-8 39 -21 62 -72 62c-52 0 -66 -22 -66 -47c0 -35 30 -43 78 -54c61 -13 118 -26 118 -99c0 -62 -49 -99 -131 -99c-78 0 -125 29 -135 96l52 13c9 -35 25 -64 85 -64c42 0 71 12 71 48c0 35 -27 42 -74 53
c-55 14 -122 23 -122 99c0 66 58 98 125 98z" />
    <glyph glyph-name="t.ordn" horiz-adv-x="259" 
d="M236 338l11 -42c-16 -11 -51 -22 -83 -22c-63 0 -95 28 -95 93v197h-52v47h52v95l59 8v-103h94v-47h-94v-187c0 -35 8 -55 49 -55c20 0 45 8 59 16z" />
    <glyph glyph-name="u.ordn" horiz-adv-x="394" 
d="M58 388v223h59v-215c0 -46 14 -72 61 -72c40 0 77 23 100 46v241h59v-329h-51l-4 40c-33 -26 -76 -47 -122 -47c-72 0 -102 39 -102 113z" />
    <glyph glyph-name="v.ordn" horiz-adv-x="342" 
d="M205 282h-66l-130 329h64l100 -273h1l100 273h59z" />
    <glyph glyph-name="w.ordn" horiz-adv-x="509" 
d="M185 282h-70l-106 329h60l82 -271h1l75 271h61l74 -269v0l82 269h56l-105 -329h-69l-71 263v0z" />
    <glyph glyph-name="x.ordn" horiz-adv-x="334" 
d="M312 611l-114 -158l120 -171h-64l-90 131l-87 -131h-60l114 170l-114 159h64l85 -121l88 121h58z" />
    <glyph glyph-name="y.ordn" horiz-adv-x="329" 
d="M136 278l-125 333h63l91 -265h1l94 265h60c-42 -111 -93 -240 -135 -349c-36 -92 -60 -123 -123 -123c-25 0 -51 7 -64 12l7 45c12 -3 37 -9 55 -9c27 0 47 13 66 64z" />
    <glyph glyph-name="z.ordn" horiz-adv-x="313" 
d="M283 569l-191 -239h199v-48h-266v42l192 240h-189v47h255v-42z" />
    <glyph glyph-name="zero.denom" horiz-adv-x="397" 
d="M197 -7c-125 0 -152 95 -152 227c0 133 34 230 158 230s149 -97 149 -223c0 -139 -31 -234 -155 -234zM199 45c73 0 87 67 87 178c0 109 -11 173 -85 173s-90 -64 -90 -177c0 -106 13 -174 88 -174z" />
    <glyph glyph-name="one.denom" horiz-adv-x="279" 
d="M198 -2h-63v362c-21 -12 -77 -20 -98 -20l-4 49c58 4 98 19 127 51h38v-442z" />
    <glyph glyph-name="two.denom" horiz-adv-x="345" 
d="M178 450c77 0 126 -36 126 -111c0 -69 -39 -115 -105 -190l-85 -93v-1h197v-55h-269v52l105 121c63 73 93 109 93 164c0 44 -26 62 -69 62c-56 0 -73 -31 -80 -74l-54 10c12 81 67 115 141 115z" />
    <glyph glyph-name="three.denom" horiz-adv-x="361" 
d="M29 98l58 11c7 -39 21 -65 78 -65c45 0 83 23 83 82c0 61 -36 80 -92 80h-41v49h29c62 0 98 34 98 82c0 35 -16 61 -68 61s-68 -22 -78 -61l-56 11c15 75 72 102 140 102c82 0 125 -42 125 -105c0 -65 -48 -96 -88 -107v-1c59 -11 96 -45 96 -113
c0 -79 -59 -131 -148 -131c-72 0 -127 31 -136 105z" />
    <glyph glyph-name="four.denom" horiz-adv-x="368" 
d="M291 0h-62v107h-209v45l193 290h78v-284h53v-51h-53v-107zM80 158h150v226z" />
    <glyph glyph-name="five.denom" horiz-adv-x="366" 
d="M61 215l17 227h221v-53h-172l-12 -127l-1 -11c21 16 48 30 89 30c63 0 124 -33 124 -135c0 -92 -60 -153 -155 -153c-67 0 -127 29 -138 104l57 13c7 -35 26 -66 82 -66c44 0 88 28 88 100c0 63 -34 86 -79 86c-31 0 -57 -13 -79 -33z" />
    <glyph glyph-name="six.denom" horiz-adv-x="381" 
d="M337 353l-56 -15c-10 49 -34 62 -67 62c-80 0 -102 -95 -103 -178c21 23 63 47 110 47c79 0 121 -50 121 -126c0 -98 -59 -150 -146 -150c-118 0 -146 98 -146 214c0 99 31 243 170 243c56 0 102 -26 117 -97zM114 175c4 -66 14 -132 86 -132c46 0 78 30 78 95
c0 55 -21 83 -69 83c-36 0 -75 -24 -95 -46z" />
    <glyph glyph-name="seven.denom" horiz-adv-x="331" 
d="M127 0h-67l184 389h-222v53h289v-47z" />
    <glyph glyph-name="eight.denom" horiz-adv-x="363" 
d="M236 234c52 -23 97 -49 97 -120c0 -69 -59 -121 -154 -121c-101 0 -147 48 -147 113c0 63 42 96 95 118c-47 19 -80 58 -80 109c0 77 63 117 143 117c83 0 134 -38 134 -102c0 -51 -35 -87 -88 -114zM172 202c-49 -22 -78 -46 -78 -91c0 -41 26 -68 87 -68s87 33 87 70
c0 53 -51 73 -96 89zM190 254c42 21 73 52 73 91c0 37 -26 57 -75 57c-48 0 -77 -23 -77 -61c0 -43 37 -70 79 -87z" />
    <glyph glyph-name="nine.denom" horiz-adv-x="386" 
d="M43 93l57 15c11 -48 35 -66 75 -66c75 0 100 71 102 171c-21 -23 -64 -44 -111 -44c-79 0 -121 52 -121 131c0 97 60 150 146 150c118 0 146 -99 146 -215s-26 -242 -164 -242c-64 0 -116 28 -130 100zM273 264c-4 66 -14 137 -86 137c-46 0 -78 -31 -78 -98
c0 -55 23 -86 71 -86c36 0 70 21 93 47z" />
    <glyph glyph-name="onehalf" unicode="&#xbd;" horiz-adv-x="855" 
d="M229 279h-63v362c-21 -12 -77 -20 -98 -20l-4 49c58 4 98 19 127 51h38v-442zM246 -12h-64l356 736h63zM649 450c77 0 126 -36 126 -111c0 -69 -39 -115 -105 -190l-85 -93v-1h197v-55h-269v52l105 121c63 73 93 109 93 164c0 44 -26 62 -69 62c-56 0 -73 -31 -80 -74
l-54 10c12 81 67 115 141 115z" />
    <glyph glyph-name="onethird" unicode="&#x2153;" horiz-adv-x="855" 
d="M219 279h-63v362c-21 -12 -77 -20 -98 -20l-4 49c58 4 98 19 127 51h38v-442zM255 -12h-64l356 736h63zM514 98l58 11c7 -39 21 -65 78 -65c45 0 83 23 83 82c0 61 -36 80 -92 80h-41v49h29c62 0 98 34 98 82c0 35 -16 61 -68 61s-68 -22 -78 -61l-56 11
c15 75 72 102 140 102c82 0 125 -42 125 -105c0 -65 -48 -96 -88 -107v-1c59 -11 96 -45 96 -113c0 -79 -59 -131 -148 -131c-72 0 -127 31 -136 105z" />
    <glyph glyph-name="twothirds" unicode="&#x2154;" horiz-adv-x="855" 
d="M289 -12h-64l356 736h63zM534 98l58 11c7 -39 21 -65 78 -65c45 0 83 23 83 82c0 61 -36 80 -92 80h-41v49h29c62 0 98 34 98 82c0 35 -16 61 -68 61s-68 -22 -78 -61l-56 11c15 75 72 102 140 102c82 0 125 -42 125 -105c0 -65 -48 -96 -88 -107v-1
c59 -11 96 -45 96 -113c0 -79 -59 -131 -148 -131c-72 0 -127 31 -136 105zM170 731c77 0 126 -36 126 -111c0 -69 -39 -115 -105 -190l-85 -93v-1h197v-55h-269v52l105 121c63 73 93 109 93 164c0 44 -26 62 -69 62c-56 0 -73 -31 -80 -74l-54 10c12 81 67 115 141 115z
" />
    <glyph glyph-name="onequarter" unicode="&#xbc;" horiz-adv-x="855" 
d="M219 279h-63v362c-21 -12 -77 -20 -98 -20l-4 49c58 4 98 19 127 51h38v-442zM262 -12h-64l356 736h63zM739 0h-62v107h-209v45l193 290h78v-284h53v-51h-53v-107zM528 158h150v226z" />
    </font>
</defs>
</svg>
