<?xml version="1.0" standalone="no"?>
<!DOCTYPE svg PUBLIC "-//W3C//DTD SVG 1.1//EN" "http://www.w3.org/Graphics/SVG/1.1/DTD/svg11.dtd" >
<svg xmlns="http://www.w3.org/2000/svg" xmlns:xlink="http://www.w3.org/1999/xlink" version="1.1">
<metadata>
Created by FontForge 20170910 at Wed Nov 23 01:43:59 2011
 By Jimmy Wärting
Copyright (c) Mark Simonson, 2010. All rights reserved.
</metadata>
<defs>
<font id="ProximaNovaSoft-Regular" horiz-adv-x="1171" >
  <font-face 
    font-family="Proxima Nova Soft"
    font-weight="400"
    font-stretch="normal"
    units-per-em="2048"
    panose-1="2 0 5 6 3 0 0 2 0 4"
    ascent="1587"
    descent="-461"
    x-height="989"
    cap-height="1378"
    bbox="-197 -401.005 2165 1817"
    underline-thickness="40"
    underline-position="-271"
    unicode-range="U+0020-FB04"
  />
<missing-glyph horiz-adv-x="1038" 
d="M160 -123v1602q0 25 17.5 43t43.5 18h596q25 0 43.5 -18.5t18.5 -42.5v-1602q0 -27 -18.5 -44t-43.5 -17h-596q-27 0 -44 17t-17 44zM223 -123h590v1602h-590v-1602z" />
    <glyph glyph-name=".notdef" horiz-adv-x="1038" 
d="M160 -123v1602q0 25 17.5 43t43.5 18h596q25 0 43.5 -18.5t18.5 -42.5v-1602q0 -27 -18.5 -44t-43.5 -17h-596q-27 0 -44 17t-17 44zM223 -123h590v1602h-590v-1602z" />
    <glyph glyph-name=".null" horiz-adv-x="0" 
 />
    <glyph glyph-name="nonmarkingreturn" horiz-adv-x="682" 
 />
    <glyph glyph-name="space" unicode=" " horiz-adv-x="528" 
 />
    <glyph glyph-name="exclam" unicode="!" horiz-adv-x="471" 
d="M123 92q0 47 32.5 80t80 33t80 -33t32.5 -80q0 -45 -33.5 -78.5t-79 -33.5t-79 33.5t-33.5 78.5zM141 1284q-2 39 27 66.5t70 27.5q39 0 66.5 -27.5t25.5 -66.5l-29 -852q-2 -27 -20.5 -44t-47.5 -17q-27 0 -44 17.5t-19 43.5z" />
    <glyph glyph-name="quotedbl" unicode="&#x22;" horiz-adv-x="702" 
d="M111 1292q0 39 26.5 66.5t65.5 27.5t66.5 -27.5t27.5 -66.5q0 -53 -51 -426q-4 -35 -45 -35q-14 0 -25.5 10.5t-13.5 24.5q-51 373 -51 426zM408 1292q0 39 27.5 66.5t66.5 27.5t65.5 -27.5t26.5 -66.5q0 -53 -51 -426q-4 -35 -45 -35q-14 0 -25.5 10.5t-13.5 24.5
q-51 373 -51 426z" />
    <glyph glyph-name="numbersign" unicode="#" horiz-adv-x="1208" 
d="M57 428q0 20 16.5 35.5t37.5 15.5h188l135 408h-160q-23 0 -37 15.5t-14 39.5q0 20 15.5 35.5t35.5 15.5h197l115 346q12 39 57 39q25 0 42 -17.5t17 -39.5q0 -12 -2 -18l-102 -310h225l115 346q12 39 55 39q27 0 43.5 -16t16.5 -41q0 -10 -2 -16l-105 -312h158
q23 0 37 -15t14 -40q0 -20 -14.5 -35.5t-36.5 -15.5h-193l-137 -408h166q20 0 35.5 -16.5t15.5 -38.5q0 -20 -15 -36.5t-36 -16.5h-203l-114 -344q-14 -41 -58 -41q-25 0 -42 17t-17 40q0 6 4 18l104 310h-227l-115 -344q-14 -41 -57 -41q-27 0 -44 17t-17 42q0 6 4 18
l104 308h-151q-23 0 -38.5 16t-15.5 41zM424 479h225l135 408h-225z" />
    <glyph glyph-name="dollar" unicode="$" horiz-adv-x="1214" 
d="M104 207q0 33 23 59.5t55 26.5q27 0 49 -19q143 -125 324 -145v500q-78 20 -126 36.5t-111.5 48t-100.5 68.5t-62.5 94.5t-25.5 131.5q0 158 119 262t307 114v142q0 25 18.5 42t47.5 17q25 0 42 -17.5t17 -41.5v-144q215 -20 356 -143q27 -20 27 -59q0 -35 -23.5 -59.5
t-56.5 -24.5q-29 0 -49 18q-111 94 -254 113v-445q96 -27 159.5 -52t134 -71.5t105.5 -117t35 -164.5q0 -156 -106.5 -269.5t-327.5 -130.5v-135q0 -25 -17.5 -42t-41.5 -17q-29 0 -47.5 17.5t-18.5 41.5v135q-254 14 -424 168q-27 25 -27 62zM305 1018q0 -78 63.5 -122
t186.5 -81v418q-111 -8 -180.5 -66.5t-69.5 -148.5zM680 129q133 14 195.5 82t62.5 151q0 92 -66.5 143.5t-191.5 88.5v-465z" />
    <glyph glyph-name="percent" unicode="%" horiz-adv-x="1497" 
d="M63 1047q0 145 92.5 242t235.5 97q145 0 238.5 -97t93.5 -242q0 -143 -93 -238.5t-238.5 -95.5t-237 95.5t-91.5 238.5zM186 1047q0 -98 57.5 -165t147.5 -67t149.5 66.5t59.5 165.5q0 102 -58.5 168.5t-150.5 66.5q-90 0 -147.5 -66.5t-57.5 -168.5zM293 33q0 14 8 24
l829 1301q14 20 39 20q18 0 33 -15t15 -34q0 -14 -7 -22l-831 -1301q-14 -20 -37 -20q-18 0 -33.5 13.5t-15.5 33.5zM776 309q0 145 92.5 242.5t235.5 97.5q145 0 237.5 -97t92.5 -243q0 -143 -92.5 -238.5t-238 -95.5t-236.5 95.5t-91 238.5zM897 309q0 -98 58.5 -164.5
t148.5 -66.5t149.5 66.5t59.5 164.5q0 102 -58.5 169t-150.5 67t-149.5 -67t-57.5 -169z" />
    <glyph glyph-name="ampersand" unicode="&#x26;" horiz-adv-x="1312" 
d="M74 356q0 145 79.5 237.5t221.5 168.5q-104 178 -105 307q0 135 99.5 226t244.5 91q137 0 223.5 -70.5t86.5 -197.5q0 -74 -27 -132t-86 -106.5t-103 -75t-133 -71.5q123 -168 320 -377q70 102 129 258q16 43 66 43q29 0 49 -21.5t20 -47.5q0 -16 -6 -29
q-80 -184 -164 -301q25 -27 73 -71t72.5 -73.5t24.5 -52.5q0 -29 -21.5 -51t-54.5 -22q-14 0 -34.5 11t-43 30.5t-40 37t-41 43t-31.5 33.5q-168 -168 -393 -168q-186 0 -306 99.5t-120 281.5zM240 367q0 -123 80.5 -194t193.5 -71q152 0 287 136q-152 160 -217.5 236.5
t-143.5 187.5q-96 -59 -148 -128t-52 -167zM430 1067q0 -96 82 -236q133 66 201.5 127.5t68.5 153.5q0 74 -45 114t-116 40q-80 0 -135.5 -56.5t-55.5 -142.5z" />
    <glyph glyph-name="quotesingle" unicode="'" horiz-adv-x="407" 
d="M111 1292q0 39 26.5 66.5t65.5 27.5t66.5 -27.5t27.5 -66.5q0 -53 -51 -426q-4 -35 -45 -35q-14 0 -25.5 10.5t-13.5 24.5q-51 373 -51 426z" />
    <glyph glyph-name="parenleft" unicode="(" horiz-adv-x="507" 
d="M90 498q0 487 262 866q16 27 49 27q27 0 44.5 -17.5t17.5 -42.5q0 -16 -4 -24q-201 -406 -201 -809q0 -406 199 -803q6 -12 6 -25q0 -23 -18.5 -43t-45.5 -20q-31 0 -49 24q-260 386 -260 867z" />
    <glyph glyph-name="parenright" unicode=")" horiz-adv-x="507" 
d="M43 1329q0 23 17.5 42.5t43.5 19.5q33 0 52 -27q262 -379 262 -866q0 -481 -260 -867q-18 -25 -49 -24q-27 0 -45.5 18.5t-18.5 42.5q0 14 6 27q199 397 199 803q0 403 -201 809q-6 8 -6 22z" />
    <glyph glyph-name="asterisk" unicode="*" horiz-adv-x="696" 
d="M74 961q0 27 22 38l183 93l-183 92q-23 12 -22 39q0 20 13 32.5t32 12.5q12 0 20 -6l172 -111l-8 203q0 45 47 45q18 0 31.5 -13.5t11.5 -31.5l-10 -203l172 109q10 6 23 6q16 0 30.5 -12.5t14.5 -32.5q0 -27 -23 -37l-182 -92l180 -93q23 -10 23 -38q0 -18 -12.5 -32
t-33.5 -14q-14 0 -22 7l-170 110l10 -203q2 -18 -12 -31.5t-35 -13.5q-43 0 -43 45l8 203l-172 -110q-8 -6 -20 -7q-16 0 -30.5 14t-14.5 32z" />
    <glyph glyph-name="plus" unicode="+" horiz-adv-x="1021" 
d="M47 692q0 20 15.5 35.5t35.5 15.5h355v381q0 23 17 39.5t44 16.5q23 0 39 -16.5t16 -39.5v-381h355q23 0 37 -15t14 -36q0 -25 -14.5 -40t-36.5 -15h-355v-391q0 -25 -16 -41.5t-43 -16.5q-25 0 -41 16.5t-16 41.5v391h-355q-23 0 -37 15t-14 40z" />
    <glyph glyph-name="comma" unicode="," horiz-adv-x="471" 
d="M123 94q0 45 31.5 78t76.5 33q53 0 91 -42t38 -114q0 -80 -40.5 -159.5t-104.5 -133.5q-14 -10 -27 -10q-18 0 -34.5 13.5t-16.5 33.5q0 23 17 39q88 80 96 162q-8 -4 -29 -4q-43 0 -70.5 29.5t-27.5 74.5z" />
    <glyph glyph-name="hyphen" unicode="-" horiz-adv-x="614" 
d="M49 498q0 27 18.5 46t47.5 19h385q29 0 47 -19.5t18 -45.5q0 -31 -18.5 -50.5t-46.5 -19.5h-385q-29 0 -47.5 19.5t-18.5 50.5z" />
    <glyph glyph-name="period" unicode="." horiz-adv-x="471" 
d="M123 92q0 47 32.5 80t80 33t80 -33t32.5 -80t-32.5 -79.5t-80 -32.5t-80 32.5t-32.5 79.5z" />
    <glyph glyph-name="slash" unicode="/" horiz-adv-x="606" 
d="M14 -6q0 6 4 18l461 1381q14 37 53 37q25 0 41.5 -17.5t16.5 -40.5q0 -12 -2 -18l-461 -1381q-14 -37 -53 -36q-25 0 -42.5 17t-17.5 40z" />
    <glyph glyph-name="zero" unicode="0" horiz-adv-x="1253" 
d="M104 682q0 131 30 252t90.5 224.5t164 165.5t238.5 62q133 0 237.5 -62t165 -165.5t90 -224.5t29.5 -252t-29.5 -252t-90 -225.5t-165 -167t-237.5 -62.5q-135 0 -238.5 62.5t-164 167t-90.5 225.5t-30 252zM279 682q0 -147 30.5 -266t112.5 -204t205 -85t204.5 85
t112.5 204t31 266t-31 266t-112.5 203t-204.5 84t-205 -84t-112.5 -203t-30.5 -266z" />
    <glyph glyph-name="one" unicode="1" horiz-adv-x="694" 
d="M61 1003.5q0 30.5 21 51.5l289 295q25 27 67 26q39 0 68 -26.5t29 -65.5v-1212q0 -35 -25 -59.5t-61 -24.5q-35 0 -59.5 24.5t-24.5 59.5v1069l-181 -191q-20 -20 -49 -20t-51.5 21.5t-22.5 52z" />
    <glyph glyph-name="two" unicode="2" horiz-adv-x="1204" 
d="M92 82q0 39 31 63q397 307 571 492.5t174 347.5q0 123 -84 186.5t-200 63.5q-199 0 -330 -127q-20 -20 -49 -21q-31 0 -54.5 23t-23.5 53q0 33 20 54q170 170 437 169q186 0 322 -104t136 -297q0 -190 -163.5 -379.5t-499.5 -453.5h608q31 0 52.5 -21.5t21.5 -52.5
q0 -33 -21.5 -55.5t-52.5 -22.5h-817q-31 0 -54.5 23.5t-23.5 58.5z" />
    <glyph glyph-name="three" unicode="3" horiz-adv-x="1140" 
d="M76 205q0 31 20.5 55.5t50.5 24.5q27 0 52 -21q137 -137 342 -137q150 0 234.5 68.5t84.5 187.5q0 123 -91 182.5t-249 59.5h-27h-31q-7 0 -26.5 2t-28 7t-20.5 13t-16 22.5t-4 32.5q0 31 21.5 52.5t51.5 21.5q86 0 149.5 8.5t124 31t92.5 69.5t32 116q0 109 -87 171.5
t-219 62.5q-180 0 -321 -125q-18 -18 -45 -18t-50.5 21.5t-23.5 51.5q0 33 23 52q176 170 430 169q203 0 333 -97t130 -267q0 -135 -90.5 -216t-204.5 -101q113 -10 214 -98.5t101 -237.5q0 -174 -131 -284t-352 -110q-283 0 -449 181q-20 20 -20 49z" />
    <glyph glyph-name="four" unicode="4" horiz-adv-x="1142" 
d="M53 438q0 29 17 56l546 821q43 63 123 63q57 0 101.5 -43t44.5 -100v-739h133q29 0 50.5 -21.5t21.5 -54.5q0 -31 -21.5 -52.5t-50.5 -21.5h-133v-274q0 -35 -24.5 -59.5t-61.5 -24.5q-35 0 -59.5 24.5t-24.5 59.5v274h-578q-33 0 -58.5 25.5t-25.5 66.5zM236 496h479
v712z" />
    <glyph glyph-name="five" unicode="5" horiz-adv-x="1208" 
d="M154 201q0 29 21.5 54.5t51.5 25.5q33 0 54 -21q133 -133 335 -133q139 0 227.5 84t88.5 209q0 133 -87 214t-227 81q-164 0 -282 -99q-33 -27 -70 -26.5t-62.5 24t-25.5 60.5v569q0 51 36 87t87 36h651q31 0 52.5 -22.5t21.5 -55.5q0 -31 -21.5 -52.5t-52.5 -21.5h-604
v-475q123 123 320 123q180 0 307 -117.5t127 -318.5q0 -205 -137.5 -328t-348.5 -123q-281 0 -442 172q-20 21 -20 54z" />
    <glyph glyph-name="six" unicode="6" horiz-adv-x="1210" 
d="M104 680q0 193 57.5 348.5t185.5 256.5t312 101q211 0 349 -131q20 -20 20 -50.5t-22.5 -53.5t-53 -23t-51.5 19q-98 88 -242 88q-127 0 -216 -80t-129 -197.5t-40 -259.5q0 -35 2 -53q51 82 159 147.5t229 65.5q195 0 320.5 -113.5t125.5 -322.5q0 -186 -131 -316.5
t-348 -130.5q-137 0 -241.5 57.5t-165 157t-90.5 223.5t-30 267zM281 506q14 -152 98 -265.5t246 -113.5q147 0 230 89t83 200q0 143 -88 219t-227 76q-100 0 -192.5 -56.5t-149.5 -148.5z" />
    <glyph glyph-name="seven" unicode="7" horiz-adv-x="1054" 
d="M51 1292q0 31 21.5 52.5t52.5 21.5h801q29 0 54.5 -22.5t25.5 -57.5q0 -16 -7 -29l-546 -1220q-23 -49 -78 -49q-37 0 -62.5 25.5t-25.5 58.5q0 12 8 32l504 1110h-674q-31 0 -52.5 22.5t-21.5 55.5z" />
    <glyph glyph-name="eight" unicode="8" horiz-adv-x="1189" 
d="M106 346q0 129 93.5 223.5t232.5 135.5q-131 37 -217 119.5t-86 207.5q0 172 139.5 263t327.5 91t328.5 -91t140.5 -263q0 -125 -86 -208t-219 -119q139 -41 232 -135.5t93 -223.5q0 -168 -140 -269.5t-349 -101.5t-349.5 100.5t-140.5 270.5zM276 365q0 -106 93.5 -172
t226.5 -66q131 0 224 65.5t93 172.5q0 82 -64.5 144t-131 88t-121.5 32q-55 -6 -121.5 -32t-132.5 -88t-66 -144zM299 1010q0 -57 33 -103.5t86 -72t95 -39t83 -21.5q41 6 83 20.5t95 40t86 71.5t33 104q0 102 -85 163.5t-212 61.5q-129 0 -213 -61.5t-84 -163.5z" />
    <glyph glyph-name="nine" unicode="9" horiz-adv-x="1210" 
d="M100 942q0 186 131 316.5t349 130.5q137 0 241.5 -57.5t165 -157t90 -223.5t29.5 -267q0 -193 -57.5 -348.5t-185.5 -257t-312 -101.5q-211 0 -348 132q-23 18 -23 51q0 31 23.5 53.5t54.5 22.5q29 0 51 -19q98 -88 242 -88q127 0 216 80t129 197.5t40 259.5q0 35 -2 53
q-51 -82 -158.5 -147.5t-228.5 -65.5q-195 0 -321 113.5t-126 322.5zM272 948q0 -143 88.5 -219t227.5 -76q100 0 192 56.5t150 148.5q-14 152 -98 265.5t-246 113.5q-147 0 -230.5 -89t-83.5 -200z" />
    <glyph glyph-name="colon" unicode=":" horiz-adv-x="471" 
d="M123 92q0 47 32.5 80t80 33t80 -33t32.5 -80t-32.5 -79.5t-80 -32.5t-80 32.5t-32.5 79.5zM123 891q0 47 32.5 80t80 33t80 -33t32.5 -80t-32.5 -80t-80 -33t-80 33t-32.5 80z" />
    <glyph glyph-name="semicolon" unicode=";" horiz-adv-x="471" 
d="M123 98q0 45 31.5 78t76.5 33q53 0 91 -42t38 -114q0 -80 -40.5 -159.5t-104.5 -133.5q-14 -10 -27 -10q-18 0 -34.5 13.5t-16.5 33.5q0 23 17 39q88 80 96 162q-8 -4 -29 -4q-43 0 -70.5 29.5t-27.5 74.5zM123 891q0 47 32.5 80t80 33t80 -33t32.5 -80q0 -45 -33.5 -79
t-79 -34t-79 34t-33.5 79z" />
    <glyph glyph-name="less" unicode="&#x3c;" horiz-adv-x="1021" 
d="M47 688q0 45 41 66l803 399q8 4 24 4q23 0 41.5 -16.5t18.5 -40.5q0 -35 -33 -51l-752 -365l754 -362q31 -14 31 -50q0 -27 -19.5 -43t-40.5 -16q-10 0 -22 6l-805 397q-41 21 -41 72z" />
    <glyph glyph-name="equal" unicode="=" horiz-adv-x="1021" 
d="M47 487q0 20 15.5 36t35.5 16h826q23 0 37 -15.5t14 -36.5q0 -25 -14.5 -40t-36.5 -15h-826q-23 0 -37 15t-14 40zM47 885q0 20 16.5 35.5t36.5 15.5h824q20 0 35.5 -15.5t15.5 -35.5q0 -25 -15.5 -41.5t-35.5 -16.5h-824q-23 0 -38 16.5t-15 41.5z" />
    <glyph glyph-name="greater" unicode="&#x3e;" horiz-adv-x="1021" 
d="M45 272q0 35 31 50l753 362l-751 365q-33 16 -33 49q0 25 17.5 42t41.5 17q16 0 25 -4l803 -399q41 -20 41 -66q0 -51 -41 -72l-805 -397q-12 -6 -25 -6q-20 0 -38.5 17t-18.5 42z" />
    <glyph glyph-name="question" unicode="?" horiz-adv-x="946" 
d="M55 1169q0 33 21 54q160 164 405 163q182 0 292 -91t110 -226q0 -104 -62.5 -185t-136.5 -124t-136.5 -102.5t-62.5 -125.5q0 -14 13.5 -44.5t13.5 -47.5q0 -27 -18.5 -47t-47.5 -20q-53 0 -81.5 62.5t-28.5 109.5q0 61 27.5 112.5t68.5 84t89 68.5t89 66.5t69 73.5
t28 94q0 82 -62.5 136.5t-179.5 54.5q-170 0 -287 -121q-18 -20 -49 -20q-29 0 -51.5 22t-22.5 53zM346 92q0 47 34 80t79 33t78.5 -33t33.5 -80t-33.5 -79.5t-78.5 -32.5t-79 32.5t-34 79.5z" />
    <glyph glyph-name="at" unicode="@" horiz-adv-x="1603" 
d="M72 500q0 328 244.5 567.5t568.5 239.5q285 0 465 -187.5t180 -462.5q0 -227 -106.5 -355t-247.5 -128q-82 0 -132.5 49t-54.5 123q-59 -76 -145 -124t-180 -48q-141 0 -227.5 92t-86.5 242q0 209 147.5 361.5t333.5 152.5q94 0 163 -45t100 -115l18 90q10 51 66 52
q31 0 50 -18.5t19 -45.5q0 -2 -1 -7t-1 -7l-102 -492q-4 -25 -4 -43q0 -51 27.5 -78.5t68.5 -27.5q78 0 149.5 92t71.5 280q0 254 -160.5 417t-418.5 163q-295 0 -515.5 -222t-220.5 -511q0 -248 167 -414t421 -166q195 0 367 107q8 4 14 4q12 0 23.5 -9.5t11.5 -23.5
q0 -18 -12 -25q-193 -121 -412 -120q-279 0 -464 185.5t-185 457.5zM496 516q0 -100 56 -163.5t153 -63.5q178 0 305 184l59 283q-20 59 -74.5 105t-136.5 46q-150 0 -256 -119.5t-106 -271.5z" />
    <glyph glyph-name="A" unicode="A" horiz-adv-x="1347" 
d="M57 78q0 16 6 33l472 1175q16 41 54 66.5t85 25.5q45 0 82 -25.5t53 -66.5l475 -1175q6 -16 6 -33q0 -33 -26.5 -61.5t-65.5 -28.5q-59 0 -82 55l-102 260h-680l-103 -260q-23 -55 -81 -55q-39 0 -66 26.5t-27 63.5zM383 455h580l-289 735z" />
    <glyph glyph-name="B" unicode="B" horiz-adv-x="1288" 
d="M160 123v1120q0 51 35.5 87t87.5 36h485q176 0 279.5 -96t103.5 -252q0 -123 -69.5 -208t-170.5 -105q109 -16 188 -114.5t79 -221.5q0 -166 -105.5 -267.5t-290.5 -101.5h-499q-51 0 -87 36t-36 87zM330 152h418q119 0 186 63.5t67 171.5q0 100 -66.5 168t-186.5 68
h-418v-471zM330 774h409q113 0 174.5 61.5t61.5 158t-62.5 158.5t-173.5 62h-409v-440z" />
    <glyph glyph-name="C" unicode="C" horiz-adv-x="1384" 
d="M104 682q0 311 202 509t501 198q276 0 457 -195q23 -27 22.5 -59.5t-24 -57t-56.5 -24.5q-37 0 -57 26q-59 72 -152.5 115t-189.5 43q-225 0 -375.5 -156.5t-150.5 -398.5t150.5 -398.5t375.5 -156.5q209 0 342 156q23 27 57.5 26.5t57 -26t22.5 -58.5q0 -31 -22 -57
q-186 -193 -457 -193q-299 0 -501 198t-202 509z" />
    <glyph glyph-name="D" unicode="D" horiz-adv-x="1433" 
d="M160 123v1120q0 51 35.5 87t87.5 36h344q313 0 506.5 -194.5t193.5 -489.5q0 -297 -193.5 -489.5t-506.5 -192.5h-344q-51 0 -87 36t-36 87zM330 152h297q242 0 383 151.5t141 378.5q0 229 -139.5 380.5t-384.5 151.5h-297v-1062z" />
    <glyph glyph-name="E" unicode="E" horiz-adv-x="1165" 
d="M160 123v1120q0 51 35.5 87t87.5 36h710q31 0 52.5 -22.5t21.5 -55.5q0 -31 -21.5 -52.5t-52.5 -21.5h-663v-440h649q31 0 52.5 -22.5t21.5 -55.5q0 -31 -21.5 -52t-52.5 -21h-649v-471h663q31 0 52.5 -21.5t21.5 -52.5q0 -33 -21.5 -55.5t-52.5 -22.5h-710q-51 0 -87 36
t-36 87z" />
    <glyph glyph-name="F" unicode="F" horiz-adv-x="1126" 
d="M160 72v1171q0 51 35.5 87t87.5 36h710q31 0 52.5 -22.5t21.5 -55.5q0 -31 -21.5 -52.5t-52.5 -21.5h-663v-440h649q31 0 52.5 -22.5t21.5 -55.5q0 -31 -21.5 -52t-52.5 -21h-649v-551q0 -35 -24.5 -59.5t-61.5 -24.5q-35 0 -59.5 24.5t-24.5 59.5z" />
    <glyph glyph-name="G" unicode="G" horiz-adv-x="1460" 
d="M104 682q0 313 203 510t500 197q283 0 469 -187q23 -20 22 -57q0 -35 -22.5 -57.5t-54.5 -22.5q-31 0 -56 25q-63 70 -159.5 108.5t-198.5 38.5q-225 0 -375.5 -156.5t-150.5 -398.5t150.5 -399.5t375.5 -157.5q113 0 210 44t157 103v279h-408q-31 0 -52.5 22.5
t-21.5 55.5q0 31 21.5 52t52.5 21h455q51 0 86.5 -35.5t35.5 -86.5v-271q0 -100 -84.5 -179t-205.5 -118t-246 -39q-297 0 -500 198t-203 511z" />
    <glyph glyph-name="H" unicode="H" horiz-adv-x="1458" 
d="M160 72v1224q0 35 24.5 58.5t63.5 23.5q35 0 58.5 -23.5t23.5 -58.5v-518h798v518q0 35 25 58.5t64 23.5q33 0 57 -23.5t24 -58.5v-1224q0 -35 -24.5 -59.5t-61.5 -24.5q-35 0 -59.5 24.5t-24.5 59.5v555h-798v-555q0 -35 -24.5 -59.5t-61.5 -24.5q-35 0 -59.5 24.5
t-24.5 59.5z" />
    <glyph glyph-name="I" unicode="I" horiz-adv-x="489" 
d="M160 72v1224q0 35 24.5 58.5t63.5 23.5q35 0 58.5 -23.5t23.5 -58.5v-1224q0 -35 -24.5 -59.5t-61.5 -24.5q-35 0 -59.5 24.5t-24.5 59.5z" />
    <glyph glyph-name="J" unicode="J" horiz-adv-x="972" 
d="M39 145.5q0 30.5 22.5 55t53.5 24.5q29 0 47 -16q92 -82 207 -82q125 0 199.5 79t74.5 208v882q0 35 24.5 58.5t63.5 23.5q35 0 58.5 -23.5t23.5 -58.5v-884q0 -213 -121 -325t-313 -112q-190 0 -316 117q-24 23 -24 53.5z" />
    <glyph glyph-name="K" unicode="K" horiz-adv-x="1230" 
d="M160 72v1224q0 35 24.5 58.5t63.5 23.5q35 0 58.5 -23.5t23.5 -58.5v-637l590 691q25 27 59.5 26.5t59 -24t24.5 -56.5q0 -29 -19 -47l-466 -532l518 -600q18 -23 18 -49q0 -31 -23.5 -56.5t-58.5 -25.5q-37 0 -61 28l-504 600l-137 -155v-387q0 -35 -24.5 -59.5
t-61.5 -24.5q-35 0 -59.5 24.5t-24.5 59.5z" />
    <glyph glyph-name="L" unicode="L" horiz-adv-x="1044" 
d="M160 123v1173q0 35 24.5 58.5t63.5 23.5q35 0 58.5 -23.5t23.5 -58.5v-1144h573q31 0 52.5 -21.5t21.5 -52.5q0 -33 -21.5 -55.5t-52.5 -22.5h-620q-51 0 -87 36t-36 87z" />
    <glyph glyph-name="M" unicode="M" horiz-adv-x="1656" 
d="M160 72v1167q0 55 42 96t99 41q43 0 81 -23.5t54 -62.5l391 -952l394 952q37 86 135 86q57 0 99 -41t42 -96v-1167q0 -35 -24.5 -59.5t-61.5 -24.5q-35 0 -59.5 24.5t-24.5 59.5v1052l-459 -1110q-10 -27 -43 -26q-29 0 -39 26l-456 1110v-1052q0 -35 -24.5 -59.5
t-61.5 -24.5q-35 0 -59.5 24.5t-24.5 59.5z" />
    <glyph glyph-name="N" unicode="N" horiz-adv-x="1449" 
d="M160 72v1204q0 41 30.5 71.5t77.5 30.5q57 0 90 -45l762 -1034v997q0 35 24.5 58.5t63.5 23.5q33 0 57.5 -23.5t24.5 -58.5v-1212q0 -39 -28.5 -67.5t-73.5 -28.5q-53 0 -84 43l-774 1059v-1018q0 -35 -24.5 -59.5t-61.5 -24.5q-35 0 -59.5 24.5t-24.5 59.5z" />
    <glyph glyph-name="O" unicode="O" horiz-adv-x="1566" 
d="M104 682q0 305 188.5 506t489.5 201q299 0 488.5 -201t189.5 -506t-189.5 -506t-488.5 -201q-301 0 -489.5 201t-188.5 506zM281 682q0 -242 137 -398.5t364 -156.5q225 0 363.5 156.5t138.5 398.5q0 244 -138 399.5t-364 155.5q-227 0 -364 -155.5t-137 -399.5z" />
    <glyph glyph-name="P" unicode="P" horiz-adv-x="1202" 
d="M160 72v1171q0 51 35.5 87t87.5 36h426q199 0 313.5 -119t114.5 -293t-116 -292.5t-312 -118.5h-379v-471q0 -35 -24.5 -59.5t-61.5 -24.5q-35 0 -59.5 24.5t-24.5 59.5zM330 694h358q121 0 197 73t76 187.5t-76 187t-197 72.5h-358v-520z" />
    <glyph glyph-name="Q" unicode="Q" horiz-adv-x="1566" 
d="M104 682q0 305 188.5 506t489.5 201q299 0 488.5 -201t189.5 -506t-188 -504l86 -92q18 -20 18 -49q0 -31 -23.5 -55.5t-56.5 -24.5q-35 0 -55 25l-90 96q-160 -102 -369 -103q-301 0 -489.5 201t-188.5 506zM281 682q0 -242 137 -398.5t364 -156.5q145 0 260 70
l-151 163q-20 20 -21 50q0 31 24 55t56.5 24t55.5 -24l153 -166q125 154 125 383q0 244 -138 399.5t-364 155.5q-227 0 -364 -155.5t-137 -399.5z" />
    <glyph glyph-name="R" unicode="R" horiz-adv-x="1245" 
d="M160 72v1171q0 51 35.5 87t87.5 36h426q190 0 309 -112.5t119 -299.5q0 -176 -102.5 -280.5t-252.5 -116.5l293 -444q12 -23 12 -43q0 -33 -24.5 -57.5t-58.5 -24.5q-43 0 -68 37l-334 518h-272v-471q0 -35 -24.5 -59.5t-61.5 -24.5q-35 0 -59.5 24.5t-24.5 59.5z
M330 692h358q121 0 197 74t76 188.5t-76 187t-197 72.5h-358v-522z" />
    <glyph glyph-name="S" unicode="S" horiz-adv-x="1200" 
d="M96 207q0 33 22.5 59.5t57.5 26.5q31 0 49 -17q168 -150 383 -149q166 0 244 70.5t78 164.5q0 72 -45 121t-116 77t-158 50.5t-173 50t-156.5 66.5t-115.5 110.5t-45 170.5q0 168 133 273t336 105q264 0 438 -145q29 -25 29 -61q0 -31 -23.5 -56.5t-56.5 -25.5
q-27 0 -49 18q-145 119 -350 119q-123 0 -202 -60.5t-79 -156.5q0 -72 60.5 -119t149.5 -69.5t194.5 -56.5t194.5 -71.5t149.5 -121.5t60.5 -203q0 -168 -124 -285t-380 -117q-285 0 -479 170q-27 25 -27 62z" />
    <glyph glyph-name="T" unicode="T" horiz-adv-x="1167" 
d="M53 1292q0 31 21.5 52.5t52.5 21.5h913q31 0 52.5 -22.5t21.5 -55.5q0 -31 -21.5 -52.5t-52.5 -21.5h-372v-1142q0 -35 -25 -59.5t-61 -24.5q-35 0 -59.5 24.5t-24.5 59.5v1142h-371q-31 0 -52.5 22.5t-21.5 55.5z" />
    <glyph glyph-name="U" unicode="U" horiz-adv-x="1433" 
d="M160 530v766q0 35 24.5 58.5t63.5 23.5q35 0 58.5 -23.5t23.5 -58.5v-761q0 -190 100 -299t286.5 -109t287 108.5t100.5 299.5v761q0 35 24.5 58.5t63.5 23.5q33 0 57.5 -23.5t24.5 -58.5v-764q0 -260 -142.5 -408.5t-415 -148.5t-414.5 148.5t-142 406.5z" />
    <glyph glyph-name="V" unicode="V" horiz-adv-x="1347" 
d="M57 1288q0 33 27 61.5t66 28.5q59 0 81 -55l443 -1137l442 1137q20 55 82 55q39 0 65.5 -26.5t26.5 -63.5q0 -18 -6 -33l-473 -1175q-16 -41 -54 -66.5t-81 -25.5h-4q-45 0 -83 25.5t-54 66.5l-472 1175q-6 15 -6 33z" />
    <glyph glyph-name="W" unicode="W" horiz-adv-x="1808" 
d="M53 1292q0 35 24.5 60.5t63.5 25.5q31 0 56.5 -18.5t33.5 -48.5l289 -1084l299 1088q18 63 86 63q66 0 84 -63l299 -1088l287 1084q8 29 32.5 47t55.5 18q39 0 64.5 -24.5t25.5 -59.5q0 -8 -4 -24l-340 -1196q-10 -37 -43 -60.5t-72 -23.5h-2q-39 0 -68.5 23.5
t-39.5 60.5l-281 1030l-282 -1030q-25 -84 -113 -84h-2q-41 0 -69.5 22.5t-39.5 59.5l-340 1198q-4 16 -4 24z" />
    <glyph glyph-name="X" unicode="X" horiz-adv-x="1335" 
d="M98 68q0 31 17 49l442 583l-412 549q-16 23 -16 47q0 31 23.5 56.5t58.5 25.5q39 0 65 -32l392 -527l391 529q23 31 61 30q33 0 58.5 -23.5t25.5 -58.5q0 -27 -14 -47l-412 -547l443 -585q14 -20 14 -47q0 -35 -24.5 -59.5t-57.5 -24.5q-39 0 -61 30l-424 566l-426 -566
q-20 -31 -62 -30q-35 0 -58.5 23.5t-23.5 58.5z" />
    <glyph glyph-name="Y" unicode="Y" horiz-adv-x="1282" 
d="M82 1296q0 31 22.5 56.5t59.5 25.5q45 0 69 -35l408 -612l408 612q23 33 65 33q35 0 59.5 -23.5t24.5 -56.5q0 -25 -12 -43l-459 -675v-506q0 -35 -24.5 -59.5t-61.5 -24.5q-35 0 -59.5 24.5t-24.5 59.5v506l-461 675q-14 20 -14 43z" />
    <glyph glyph-name="Z" unicode="Z" horiz-adv-x="1198" 
d="M86 1292q0 31 21.5 52.5t52.5 21.5h848q33 0 59.5 -26.5t26.5 -67.5q0 -33 -19 -58l-760 -1062h721q31 0 52.5 -21.5t21.5 -52.5q0 -33 -21.5 -55.5t-52.5 -22.5h-862q-33 0 -59.5 26.5t-26.5 67.5q0 33 18 58l760 1062h-706q-31 0 -52.5 22.5t-21.5 55.5z" />
    <glyph glyph-name="bracketleft" unicode="[" horiz-adv-x="497" 
d="M82 -266v1532q0 51 36 87t87 36h217q23 0 38 -16.5t15 -41.5q0 -23 -15.5 -39t-37.5 -16h-221v-1552h221q23 0 38 -16.5t15 -39.5q0 -25 -15.5 -41t-37.5 -16h-217q-51 0 -87 36t-36 87z" />
    <glyph glyph-name="backslash" unicode="\" horiz-adv-x="606" 
d="M14 1370q0 23 17.5 41.5t42.5 18.5q39 0 53 -37l461 -1381q2 -6 2 -18q0 -23 -16.5 -41.5t-41.5 -18.5q-39 0 -53 39l-461 1381q-4 12 -4 16z" />
    <glyph glyph-name="bracketright" unicode="]" horiz-adv-x="497" 
d="M23 -332q0 23 16 39.5t39 16.5h219v1552h-219q-23 0 -39 16.5t-16 42.5q0 23 16 38.5t39 15.5h215q51 0 87 -36t36 -87v-1532q0 -51 -36 -87t-87 -36h-215q-23 0 -39 16t-16 41z" />
    <glyph glyph-name="asciicircum" unicode="^" horiz-adv-x="884" 
d="M68 727q0 12 6 25l295 581q25 45 77 45q47 0 72 -45l293 -581q6 -12 6 -27q0 -20 -16.5 -38.5t-40.5 -18.5q-35 0 -47 28l-271 557l-268 -557q-12 -29 -47 -28q-25 0 -42 18t-17 41z" />
    <glyph glyph-name="underscore" unicode="_" horiz-adv-x="1155" 
d="M-18 -137q0 23 16 39t39 16h1083q23 0 38.5 -16.5t15.5 -38.5q0 -25 -15.5 -41.5t-38.5 -16.5h-1083q-23 0 -39 16.5t-16 41.5z" />
    <glyph glyph-name="grave" unicode="`" horiz-adv-x="462" 
d="M74 1393q0 20 16 35.5t37 15.5q23 0 37 -14l242 -234q10 -14 10 -27q0 -16 -11.5 -29.5t-29.5 -13.5q-12 0 -27 11l-258 221q-16 12 -16 35z" />
    <glyph glyph-name="a" unicode="a" horiz-adv-x="1079" 
d="M98 303q0 156 103.5 241t242.5 85q211 0 328 -135v178q0 98 -69.5 153.5t-180.5 55.5q-145 0 -258 -95q-20 -16 -43 -16q-27 0 -47 17.5t-20 44t20 45.5q152 137 369 137q170 0 276.5 -82t106.5 -252v-617q0 -31 -22.5 -53t-55.5 -22t-54.5 23.5t-21.5 56.5v45
q-125 -137 -328 -138q-137 0 -241.5 88t-104.5 240zM256 301q0 -94 68.5 -154.5t175.5 -60.5q184 0 272 123v186q-88 123 -272 123q-106 0 -175 -60.5t-69 -156.5z" />
    <glyph glyph-name="b" unicode="b" horiz-adv-x="1177" 
d="M154 63v1242q0 29 23.5 51t55.5 22q29 0 51.5 -22.5t22.5 -50.5v-465q129 174 334 174q195 0 317.5 -142.5t122.5 -377.5q0 -238 -121.5 -378.5t-318.5 -140.5q-207 0 -334 172v-84q0 -31 -22.5 -53t-55.5 -22q-31 0 -53 22t-22 53zM307 268q41 -66 124 -110.5t171 -44.5
q147 0 233.5 106.5t86.5 274.5t-86 275.5t-234 107.5q-88 0 -171 -46.5t-124 -113.5v-449z" />
    <glyph glyph-name="c" unicode="c" horiz-adv-x="1013" 
d="M96 495.5q0 223.5 137.5 371t356.5 147.5q201 0 325 -129q16 -20 17 -43q0 -27 -20.5 -48.5t-49.5 -21.5q-31 0 -53 23q-84 82 -211 82q-156 0 -249 -106.5t-93 -274.5t93 -275.5t249 -107.5q125 0 211 84q23 18 51.5 18t50 -19.5t21.5 -48.5q0 -27 -17 -43
q-125 -129 -325 -129q-219 0 -356.5 148.5t-137.5 372z" />
    <glyph glyph-name="d" unicode="d" horiz-adv-x="1177" 
d="M96 494q0 236 122 378t319 142q205 0 333 -174v465q0 29 24 51t56 22q29 0 51.5 -22.5t22.5 -50.5v-1242q0 -31 -22.5 -53t-55.5 -22q-31 0 -53.5 22.5t-22.5 52.5v84q-127 -172 -333 -172q-197 0 -319 140.5t-122 378.5zM256 494q0 -168 86 -274.5t231 -106.5
q90 0 172 45t125 110v449q-43 68 -125.5 114t-171.5 46q-145 0 -231 -107.5t-86 -275.5z" />
    <glyph glyph-name="e" unicode="e" horiz-adv-x="1153" 
d="M96 496q0 217 139.5 367.5t348.5 150.5q180 0 300 -103.5t158 -279.5q14 -72 15 -103q0 -35 -24.5 -59.5t-59.5 -24.5h-715q10 -145 106.5 -243.5t249.5 -98.5q150 0 267 93q16 10 34 10q23 0 42.5 -18.5t19.5 -45.5q0 -72 -132 -119t-245 -47q-221 0 -362.5 145
t-141.5 376zM258 557h649q-2 127 -86 228.5t-239 101.5q-147 0 -232.5 -100.5t-91.5 -229.5z" />
    <glyph glyph-name="f" unicode="f" horiz-adv-x="579" 
d="M20 924q0 27 18.5 46t47.5 19h111v76q0 152 76.5 236.5t209.5 84.5q68 0 132.5 -23.5t64.5 -70.5q0 -25 -18.5 -43t-43.5 -18q-14 0 -52 14.5t-60 14.5q-76 0 -116 -50.5t-40 -144.5v-76h148q29 0 47 -19.5t18 -49.5q0 -27 -19.5 -46.5t-45.5 -19.5h-148v-791
q0 -31 -22.5 -53t-55.5 -22q-31 0 -53 22.5t-22 52.5v791h-111q-29 0 -47.5 19.5t-18.5 50.5z" />
    <glyph glyph-name="g" unicode="g" horiz-adv-x="1175" 
d="M96 499.5q0 235.5 122 375t319 139.5q203 0 331 -174v88q0 29 23.5 51t56.5 22q29 0 51.5 -22.5t22.5 -50.5v-899q0 -227 -133 -328.5t-338 -101.5q-231 0 -371 118q-23 18 -22 52q0 27 20.5 46t47 19t42.5 -14q104 -94 283 -94q137 0 227 72.5t90 224.5v141
q-55 -78 -143 -127t-188 -49q-197 0 -319 138t-122 373.5zM256 500q0 -166 86 -271.5t231 -105.5q88 0 171 47t124 115v432q-41 68 -122.5 114t-172.5 46q-147 0 -232 -104.5t-85 -272.5z" />
    <glyph glyph-name="h" unicode="h" horiz-adv-x="1130" 
d="M154 63v1242q0 29 23.5 51t55.5 22q29 0 51.5 -22.5t22.5 -50.5v-459q57 68 153.5 118t201.5 50q315 0 315 -316v-635q0 -31 -22.5 -53t-55.5 -22q-31 0 -53.5 22.5t-22.5 52.5v588q0 123 -57 174.5t-166 51.5q-84 0 -165 -45.5t-128 -108.5v-660q0 -31 -22.5 -53
t-55.5 -22q-31 0 -53 22t-22 53z" />
    <glyph glyph-name="i" unicode="i" horiz-adv-x="460" 
d="M127 1233q0 43 30.5 73.5t71.5 30.5q43 0 74 -30.5t31 -73.5t-31 -73t-74 -30q-41 0 -71.5 30t-30.5 73zM154 63v865q0 29 23.5 51t55.5 22q29 0 51.5 -22.5t22.5 -50.5v-865q0 -31 -22.5 -53t-55.5 -22q-31 0 -53 22t-22 53z" />
    <glyph glyph-name="j" unicode="j" horiz-adv-x="460" 
d="M-197 -303q0 25 20.5 43t45.5 18q14 0 55 -16t70 -16q74 0 117 44t43 134v1024q0 29 23.5 51t55.5 22q29 0 51.5 -22.5t22.5 -50.5v-1024q0 -145 -75.5 -225t-217.5 -80q-80 0 -145.5 25.5t-65.5 72.5zM127 1233q0 43 30.5 73.5t71.5 30.5q43 0 74 -30.5t31 -73.5
t-31 -73t-74 -30q-41 0 -71.5 30t-30.5 73z" />
    <glyph glyph-name="k" unicode="k" horiz-adv-x="1052" 
d="M154 63v1242q0 29 23.5 51t55.5 22q29 0 51.5 -22.5t22.5 -50.5v-842l512 520q20 20 47 21q29 0 50.5 -23t21.5 -51q0 -27 -18 -45l-336 -344l350 -432q16 -20 16 -46q0 -29 -21.5 -53t-54.5 -24q-37 0 -59 28l-344 430l-164 -161v-220q0 -31 -22.5 -53t-55.5 -22
q-31 0 -53 22t-22 53z" />
    <glyph glyph-name="l" unicode="l" horiz-adv-x="460" 
d="M154 63v1242q0 29 23.5 51t55.5 22q29 0 51.5 -22.5t22.5 -50.5v-1242q0 -31 -22.5 -53t-55.5 -22q-31 0 -53 22t-22 53z" />
    <glyph glyph-name="m" unicode="m" horiz-adv-x="1654" 
d="M154 63v865q0 29 23.5 51t55.5 22q29 0 51.5 -22.5t22.5 -50.5v-82q37 57 129 112.5t191 55.5q109 0 176 -51.5t90 -133.5q45 74 137 129.5t195 55.5q276 0 276 -299v-652q0 -31 -22.5 -53t-55.5 -22q-31 0 -53 22.5t-22 52.5v609q0 205 -183 205q-74 0 -147.5 -45.5
t-114.5 -106.5v-662q0 -31 -22.5 -53t-55.5 -22q-31 0 -53 22.5t-22 52.5v609q0 205 -183 205q-72 0 -144.5 -45.5t-115.5 -108.5v-660q0 -31 -22.5 -53t-55.5 -22q-31 0 -53 22t-22 53z" />
    <glyph glyph-name="n" unicode="n" horiz-adv-x="1128" 
d="M154 63v865q0 29 23.5 51t55.5 22q29 0 51.5 -22.5t22.5 -50.5v-82q57 68 153.5 118t198.5 50q315 0 316 -320v-631q0 -31 -22.5 -53t-55.5 -22q-31 0 -53.5 22.5t-22.5 52.5v584q0 125 -57 177.5t-164 52.5q-86 0 -167 -45.5t-126 -108.5v-660q0 -31 -22.5 -53
t-55.5 -22q-31 0 -53 22t-22 53z" />
    <glyph glyph-name="o" unicode="o" 
d="M96 495.5q0 221.5 134.5 370t355.5 148.5t355 -148.5t134 -370t-134 -371t-355 -149.5t-355.5 149.5t-134.5 371zM256 496q0 -160 89 -271.5t240.5 -111.5t239.5 111.5t88 271t-88 270.5t-239.5 111t-240.5 -111.5t-89 -269.5z" />
    <glyph glyph-name="p" unicode="p" 
d="M154 -315v1243q0 29 23.5 51t55.5 22q29 0 51.5 -22.5t22.5 -50.5v-86q55 78 143.5 125t190.5 47q197 0 318.5 -140.5t121.5 -378t-121.5 -379t-318.5 -141.5q-209 0 -334 175v-465q0 -29 -22.5 -51.5t-55.5 -22.5q-31 0 -53 22.5t-22 51.5zM307 272q41 -68 124 -113.5
t171 -45.5q145 0 231.5 107.5t86.5 275.5t-86 274.5t-232 106.5q-88 0 -171 -46.5t-124 -111.5v-447z" />
    <glyph glyph-name="q" unicode="q" 
d="M90 495.5q0 237.5 122 378t318 140.5q102 0 190.5 -47t141.5 -125v86q0 29 23.5 51t56.5 22q29 0 51.5 -22.5t22.5 -50.5v-1243q0 -29 -22.5 -51.5t-55.5 -22.5q-31 0 -53.5 22.5t-22.5 51.5v465q-125 -174 -332 -175q-197 0 -318.5 141.5t-121.5 379zM252 496
q0 -168 85 -275.5t230 -107.5q90 0 173 46t122 113v447q-39 66 -122 112t-173 46q-145 0 -230 -106.5t-85 -274.5z" />
    <glyph glyph-name="r" unicode="r" horiz-adv-x="675" 
d="M154 63v865q0 29 23.5 51t55.5 22q29 0 51.5 -22.5t22.5 -50.5v-99q135 176 273 177q29 0 49 -20.5t20 -51.5q0 -35 -23.5 -58.5t-56.5 -25.5q-170 -10 -262 -150v-637q0 -31 -22.5 -53t-55.5 -22h-2q-31 2 -52 23t-21 52z" />
    <glyph glyph-name="s" unicode="s" horiz-adv-x="952" 
d="M76 150q0 27 20.5 46t48.5 19q25 0 45 -14q125 -100 283 -101q111 0 172.5 47.5t61.5 122.5q0 66 -63.5 104t-153 57.5t-179.5 45t-153.5 88t-63.5 164.5q0 121 99.5 203t269.5 82q201 0 336 -117q20 -18 20 -45t-18.5 -44t-43 -17t-40.5 14q-109 84 -254 84
q-100 0 -159.5 -44t-59.5 -112q0 -59 63.5 -93t152.5 -53.5t179 -46t153.5 -93t63.5 -173.5q0 -131 -102.5 -215t-286.5 -84q-225 0 -369 127q-22 19 -22 48z" />
    <glyph glyph-name="t" unicode="t" horiz-adv-x="602" 
d="M8 924q0 27 18.5 46t47.5 19h110v209q0 29 23.5 51.5t56.5 22.5q29 0 51.5 -22.5t22.5 -51.5v-209h147q29 0 47.5 -19.5t18.5 -49.5q0 -27 -19.5 -46.5t-46.5 -19.5h-147v-614q0 -57 25.5 -92t74.5 -35q14 0 42 7t40 7q27 0 46.5 -18.5t19.5 -45.5q0 -45 -53.5 -66.5
t-129.5 -21.5q-109 0 -164 59.5t-55 172.5v647h-110q-29 0 -47.5 19.5t-18.5 50.5z" />
    <glyph glyph-name="u" unicode="u" horiz-adv-x="1128" 
d="M154 291v637q0 29 23.5 51t55.5 22q29 0 51.5 -22.5t22.5 -50.5v-590q0 -123 56.5 -174t164.5 -51q86 0 167 43t126 106v666q0 29 23.5 51t56.5 22q29 0 51.5 -22.5t22.5 -50.5v-865q0 -31 -22.5 -53t-55.5 -22q-31 0 -53.5 22.5t-22.5 52.5v76q-61 -70 -154.5 -117
t-197.5 -47q-315 1 -315 316z" />
    <glyph glyph-name="v" unicode="v" horiz-adv-x="1003" 
d="M37 926q0 31 22.5 53t55.5 22q53 0 71 -47l316 -776l313 776q20 47 72 47q33 0 56.5 -22.5t23.5 -52.5q0 -14 -6 -27l-349 -840q-31 -72 -112 -71h-2q-76 0 -107 71l-348 840q-6 13 -6 27z" />
    <glyph glyph-name="w" unicode="w" horiz-adv-x="1503" 
d="M47 928q0 27 21.5 50t52.5 23q59 0 76 -51l229 -749l246 743q20 57 82 57q57 0 77 -57l246 -743l230 749q16 51 73 51q33 0 54.5 -21.5t21.5 -51.5q0 -8 -4 -21l-272 -852q-10 -31 -36 -49t-59 -18h-2q-33 0 -57.5 19.5t-34.5 47.5l-239 740l-240 -740q-10 -29 -36.5 -48
t-59.5 -19h-2q-70 0 -90 67l-273 852q-4 13 -4 21z" />
    <glyph glyph-name="x" unicode="x" horiz-adv-x="995" 
d="M84 57q0 25 14 41l305 410l-284 381q-14 20 -15 39q0 27 20.5 50t53.5 23q35 0 55 -26l265 -363l262 361q18 29 55 28q29 0 51.5 -21.5t22.5 -49.5q0 -27 -15 -43l-282 -379l307 -410q12 -18 12 -41q0 -27 -20.5 -49t-50.5 -22q-37 0 -56 28l-286 392l-287 -392
q-23 -29 -55 -28q-29 0 -50.5 21t-21.5 50z" />
    <glyph glyph-name="y" unicode="y" horiz-adv-x="1003" 
d="M37 926q0 31 22.5 53t55.5 22q53 0 71 -47l316 -776l313 776q20 47 72 47q33 0 56.5 -22.5t23.5 -52.5q0 -14 -6 -27l-459 -1100q-84 -201 -291 -200q-121 0 -121 69q0 31 20.5 50.5t47.5 19.5q10 0 26.5 -1t24.5 -1h7q91 0 138 104l66 150l-377 909q-6 13 -6 27z" />
    <glyph glyph-name="z" unicode="z" horiz-adv-x="966" 
d="M94 924q0 27 18.5 46t47.5 19h635q27 0 47 -21.5t20 -54.5q0 -27 -16 -49l-543 -731h506q27 0 45 -18.5t18 -44.5q0 -31 -18 -50.5t-45 -19.5h-643q-29 0 -49.5 22.5t-20.5 55.5q0 25 19 51l536 725h-491q-29 0 -47.5 19.5t-18.5 50.5z" />
    <glyph glyph-name="braceleft" unicode="{" horiz-adv-x="532" 
d="M-2 502q0 39 49 53q70 20 70 137v420q0 123 76.5 200t179.5 77h84q23 0 38 -16.5t15 -41.5q0 -23 -15.5 -39t-37.5 -16h-84q-55 0 -95 -46t-40 -118v-432q0 -139 -95 -180q94 -41 95 -181v-432q0 -70 39.5 -116.5t95.5 -46.5h84q23 0 38 -16.5t15 -39.5q0 -25 -15.5 -41
t-37.5 -16h-84q-102 0 -179 76.5t-77 197.5v422q0 117 -70 137q-49 15 -49 58z" />
    <glyph glyph-name="bar" unicode="|" horiz-adv-x="432" 
d="M160 2v1364q0 23 16.5 38t42.5 15q23 0 38 -15t15 -38v-1364q0 -23 -16 -39t-41 -16q-23 0 -39 16t-16 39z" />
    <glyph glyph-name="braceright" unicode="}" horiz-adv-x="532" 
d="M23 -332q0 23 16 39.5t39 16.5h82q55 0 95 47t40 116v432q0 139 94 181q-94 41 -94 180v432q0 72 -40 118t-95 46h-82q-23 0 -39 16.5t-16 42.5q0 23 16 38.5t39 15.5h82q102 0 179 -77t77 -200v-420q0 -117 69 -137q49 -14 49.5 -55t-49.5 -56q-70 -20 -69 -137v-422
q0 -121 -77 -197.5t-179 -76.5h-82q-23 0 -39 16t-16 41z" />
    <glyph glyph-name="asciitilde" unicode="~" horiz-adv-x="1030" 
d="M61 934q14 127 41 215t87.5 151.5t148.5 63.5q72 0 120 -40t71.5 -98.5t42 -115.5t47 -97t71.5 -40q125 0 162 338q4 47 57 47q25 0 41.5 -18.5t16.5 -43.5q-47 -430 -277 -430q-72 0 -119 40t-70.5 97.5t-43 115t-48 97t-71.5 39.5q-121 0 -162 -335q-6 -47 -57 -48
q-58 1 -58 62z" />
    <glyph glyph-name="uni00A0" unicode="&#xa0;" horiz-adv-x="528" 
 />
    <glyph glyph-name="exclamdown" unicode="&#xa1;" horiz-adv-x="471" 
d="M123 897q0 45 33.5 79t79 34t79 -34t33.5 -79q-2 -47 -34.5 -80t-77.5 -33q-47 0 -80 34t-33 79zM143 -297l27 854q2 27 20.5 44t47.5 17q27 0 44 -17t19 -44l29 -854q2 -37 -27 -64.5t-63 -27.5q-41 0 -70 27.5t-27 64.5z" />
    <glyph glyph-name="cent" unicode="&#xa2;" horiz-adv-x="1013" 
d="M96 496q0 201 116 343t304 169v104q0 23 18.5 40t45.5 17q23 0 40 -17t17 -40v-100q168 -14 278 -127q16 -20 17 -43q0 -29 -21.5 -49.5t-50.5 -20.5t-51 23q-70 68 -172 79v-759q96 8 172 82q23 18 51 18q27 0 49.5 -18.5t22.5 -47t-17 -45.5q-113 -113 -278 -127v-137
q0 -23 -17.5 -40t-39.5 -17q-27 0 -45.5 17.5t-18.5 39.5v142q-188 25 -304 167t-116 347zM256 496q0 -143 69.5 -246t190.5 -129v745q-121 -27 -190.5 -128t-69.5 -242z" />
    <glyph glyph-name="sterling" unicode="&#xa3;" horiz-adv-x="1060" 
d="M27 606q0 20 15 36.5t38 16.5h176q-53 61 -77.5 94t-52.5 99t-28 131q0 168 135.5 285.5t323.5 117.5q252 0 383 -176q12 -18 12 -41q0 -31 -23.5 -52t-56.5 -21q-43 0 -71 34q-94 113 -228 113q-121 0 -206.5 -71.5t-85.5 -190.5q0 -53 18 -102.5t35.5 -76t58.5 -76.5
t53 -67h267q23 0 38 -16t15 -41q0 -20 -16.5 -36.5t-36.5 -16.5h-209q14 -47 14 -88q0 -160 -156 -271q51 18 107 19q68 0 157 -42t146 -42q43 0 102.5 23.5t75.5 23.5q31 0 57.5 -21.5t26.5 -52.5q0 -55 -87 -90t-183 -35t-194.5 47.5t-172 47.5t-192.5 -58q-16 -6 -31 -6
q-29 0 -48.5 18.5t-19.5 49.5q0 47 37 65q223 119 224 289q0 61 -31 123h-256q-23 0 -38 16t-15 41z" />
    <glyph glyph-name="currency" unicode="&#xa4;" horiz-adv-x="1224" 
d="M82 1144.5q0 26.5 19.5 47t48.5 20.5q27 0 47 -20l114 -115q127 94 301 94q176 0 299 -94l115 115q18 18 43 18q27 0 48.5 -19.5t21.5 -47.5q0 -27 -19 -45l-114 -115q96 -129 96 -301q0 -170 -94 -303l112 -111q18 -18 18.5 -42.5t-20 -46t-47.5 -21.5t-45 18l-113 109
q-127 -94 -301 -95q-176 0 -305 97l-108 -111q-18 -18 -45 -18t-48.5 19.5t-21.5 46t18 44.5l113 113q-92 131 -92 301q0 176 94 301l-115 115q-20 20 -20 46.5zM281 682q0 -145 89 -248.5t242.5 -103.5t242.5 103.5t89 248.5t-89 246.5t-242.5 101.5t-242.5 -102.5
t-89 -245.5z" />
    <glyph glyph-name="yen" unicode="&#xa5;" horiz-adv-x="1282" 
d="M33 307q0 20 16.5 35.5t36.5 15.5h471v220h-473q-23 0 -37 15t-14 40q0 23 14 37t37 14h399l-387 569q-14 16 -14 43q0 31 22.5 56.5t59.5 25.5q45 0 69 -35l408 -612l408 612q23 33 65 33q35 0 59.5 -23.5t24.5 -56.5q0 -25 -12 -43l-387 -569h401q23 0 37 -15.5
t14 -39.5q0 -23 -15 -37t-36 -14h-473v-220h473q20 0 35.5 -16t15.5 -39q0 -20 -15 -36.5t-36 -16.5h-473v-178q0 -35 -23.5 -59.5t-58.5 -24.5q-37 0 -62.5 23.5t-25.5 60.5v178h-471q-23 0 -38 16t-15 41z" />
    <glyph glyph-name="brokenbar" unicode="&#xa6;" horiz-adv-x="432" 
d="M160 14v539q0 23 16.5 38t42.5 15q23 0 38 -16.5t15 -36.5v-539q0 -23 -16 -39t-41 -16q-23 0 -39 16t-16 39zM160 815v539q0 23 16.5 38t42.5 15q23 0 38 -15.5t15 -37.5v-539q0 -23 -16 -39t-41 -16q-23 0 -39 16t-16 39z" />
    <glyph glyph-name="section" unicode="&#xa7;" horiz-adv-x="958" 
d="M82 8q0 27 17.5 45.5t43.5 18.5q20 0 37 -13q129 -113 287 -112q109 0 174.5 47t65.5 131q0 70 -63.5 109.5t-153 61t-179.5 47.5t-153.5 88.5t-63.5 162.5q0 102 66.5 168.5t169.5 93.5q-236 74 -236 252q0 119 99.5 198.5t269.5 79.5q127 0 240.5 -49t113.5 -108
q0 -25 -15.5 -43.5t-39.5 -18.5q-16 0 -33 13q-106 92 -262 92q-98 0 -160.5 -45t-62.5 -119q0 -63 63.5 -99t152.5 -54.5t179 -45t153.5 -92t63.5 -172.5q0 -178 -188 -262q188 -72 188 -248q0 -141 -106.5 -221t-282.5 -80q-209 0 -363 127q-22 16 -22 47zM244 610
q0 -33 18.5 -60.5t39 -44t69.5 -33.5t74.5 -24.5t89.5 -23.5q170 74 170 201q0 80 -62.5 120.5t-169.5 67.5q-127 -33 -178 -82t-51 -121z" />
    <glyph glyph-name="dieresis" unicode="&#xa8;" horiz-adv-x="557" 
d="M-29 1237q0 39 29 66.5t67.5 27.5t66.5 -27.5t28 -66.5t-28 -67.5t-66.5 -28.5t-67.5 27.5t-29 68.5zM393 1237q0 39 29 66.5t67.5 27.5t67.5 -27.5t29 -66.5t-29 -67.5t-67.5 -28.5t-67.5 28.5t-29 67.5z" />
    <glyph glyph-name="copyright" unicode="&#xa9;" horiz-adv-x="1593" 
d="M90 684q0 293 207 500t500 207t499.5 -207t206.5 -500t-206.5 -500t-499.5 -207t-500 208t-207 499zM154 684q0 -266 188 -454.5t454.5 -188.5t455 188.5t188.5 454.5t-188.5 454.5t-455 188.5t-454.5 -188.5t-188 -454.5zM375 686q0 186 124 311t302 125q176 0 284 -121
q8 -8 8.5 -22t-10 -25.5t-25 -11.5t-22.5 12q-90 100 -235 101q-143 0 -246.5 -103.5t-103.5 -265.5q0 -158 104 -264.5t246 -106.5q143 0 233 103q10 10 25 10q12 0 24.5 -11t12.5 -26q0 -16 -9 -24q-115 -119 -286 -119q-178 0 -302 126t-124 312z" />
    <glyph glyph-name="ordfeminine" unicode="&#xaa;" horiz-adv-x="774" 
d="M84 864q0 100 68.5 155.5t160.5 55.5q137 0 219 -86v113q0 61 -47 97t-114 36q-96 0 -172 -64q-12 -12 -30.5 -12t-33 13.5t-14.5 32t14 30.5q104 92 250 92q117 0 190.5 -55t73.5 -172v-387q0 -25 -16.5 -41.5t-42.5 -16.5q-25 0 -41.5 16.5t-16.5 41.5v26
q-82 -88 -219 -88q-90 0 -159.5 57.5t-69.5 155.5zM203 864q0 -61 44 -98t111 -37q117 0 174 78v115q-57 78 -174 77q-68 0 -111.5 -38t-43.5 -97z" />
    <glyph glyph-name="guillemotleft" unicode="&#xab;" horiz-adv-x="899" 
d="M109 496q0 53 34 92l242 266q16 18 41 18q20 0 39.5 -16t19.5 -38.5t-14 -37.5l-256 -282l256 -289q14 -18 14 -35q0 -23 -17 -41t-42 -18t-41 18l-242 273q-34 39 -34 90zM403 497.5q0 55.5 35 92.5l240 264q14 18 41 18q23 0 41 -16t18 -41q0 -20 -12 -35l-256 -282
l256 -289q14 -18 14 -35q0 -23 -17.5 -41t-42 -18t-40.5 18l-242 273q-35 36 -35 91.5z" />
    <glyph glyph-name="logicalnot" unicode="&#xac;" horiz-adv-x="1032" 
d="M47 885q0 20 16.5 35.5t36.5 15.5h740q51 0 87 -36t36 -87v-338q0 -23 -16.5 -39t-41.5 -16q-23 0 -39 16.5t-16 38.5v352h-750q-23 0 -38 16.5t-15 41.5z" />
    <glyph glyph-name="uni00AD" unicode="&#xad;" horiz-adv-x="614" 
d="M61 494q0 31 17.5 50t48.5 19h360q29 0 47.5 -19.5t18.5 -45.5q0 -29 -18.5 -49.5t-47.5 -20.5h-360q-29 0 -47.5 19.5t-18.5 46.5z" />
    <glyph glyph-name="registered" unicode="&#xae;" horiz-adv-x="1011" 
d="M72 952.5q0 180.5 127 307t307 126.5q182 0 308 -125.5t126 -308.5q0 -180 -127 -307t-307 -127t-307 127t-127 307.5zM129 952.5q0 -155.5 110.5 -266.5t266.5 -111t265.5 111t109.5 266.5t-109.5 265t-265.5 109.5q-158 0 -267.5 -109.5t-109.5 -265zM340 721v424
q0 23 16.5 39t38.5 16h148q66 0 111.5 -42t45.5 -109q0 -72 -46 -110t-81 -38l105 -156q6 -8 6 -16q0 -12 -11 -24.5t-26 -12.5q-16 0 -26 15l-125 192h-90v-178q0 -31 -35 -31q-12 0 -21.5 9.5t-9.5 21.5zM406 958h137q33 0 61.5 27t28.5 64q0 39 -27.5 66.5t-62.5 27.5
h-137v-185z" />
    <glyph glyph-name="macron" unicode="&#xaf;" horiz-adv-x="743" 
d="M0 1223q0 20 13.5 33.5t33.5 13.5h649q20 0 33.5 -13.5t13.5 -33.5q0 -23 -13 -37.5t-34 -14.5h-649q-20 0 -33.5 14.5t-13.5 37.5z" />
    <glyph glyph-name="degree" unicode="&#xb0;" horiz-adv-x="593" 
d="M47 1137q0 102 73 175.5t175 73.5q104 0 178 -73.5t74 -175.5q0 -104 -74 -177t-178 -73q-102 0 -175 73t-73 177zM147 1137q0 -63 43 -107.5t105 -44.5q63 0 108.5 44t45.5 108q0 61 -45.5 106t-108.5 45q-61 0 -104.5 -45t-43.5 -106z" />
    <glyph glyph-name="plusminus" unicode="&#xb1;" horiz-adv-x="1021" 
d="M47 55q0 23 15.5 37t35.5 14h826q23 0 37 -14t14 -37q0 -25 -14.5 -40t-36.5 -15h-826q-23 0 -37 15t-14 40zM47 719q0 23 15.5 37t35.5 14h355v381q0 23 17 39t44 16q23 0 39 -16t16 -39v-381h355q23 0 37 -14.5t14 -36.5q0 -25 -14.5 -40t-36.5 -15h-355v-394
q0 -25 -16 -41t-43 -16q-25 0 -41 16.5t-16 40.5v394h-355q-23 0 -37 15t-14 40z" />
    <glyph glyph-name="uni00B2" unicode="&#xb2;" horiz-adv-x="794" 
d="M90 909q0 35 35 60q233 168 339.5 276.5t106.5 198.5q0 74 -51 111.5t-123 37.5q-115 0 -204 -75q-16 -12 -33 -13q-20 0 -35.5 14.5t-15.5 36.5q0 25 16 39q111 98 276 99q123 0 208 -62.5t85 -179.5q0 -115 -102.5 -228.5t-308.5 -260.5h381q18 0 32.5 -14.5
t14.5 -33.5q0 -23 -14.5 -38t-32.5 -15h-529q-18 0 -31.5 13.5t-13.5 33.5z" />
    <glyph glyph-name="uni00B3" unicode="&#xb3;" horiz-adv-x="794" 
d="M92 987q0 20 15.5 37.5t37.5 17.5q18 0 31 -12q92 -82 213 -82q88 0 139.5 39t51.5 105q0 141 -213 141h-31q-18 0 -34.5 12t-16.5 37q0 23 16 36t35 13h29q201 0 200 131q0 61 -52 96t-130 35q-117 0 -199 -75q-10 -10 -28.5 -10.5t-35 14t-16.5 34.5q0 23 17 35
q109 102 272 103q131 0 213 -59.5t82 -159.5q0 -82 -55 -130.5t-127 -60.5q70 -6 133 -57t63 -142q0 -106 -83.5 -171.5t-225.5 -65.5q-100 0 -200.5 43t-100.5 96z" />
    <glyph glyph-name="acute" unicode="&#xb4;" horiz-adv-x="462" 
d="M47 1169q0 16 10 27l242 234q14 14 37 14q18 0 35.5 -15.5t17.5 -35.5q0 -23 -16 -35l-258 -221q-14 -10 -25 -11q-16 0 -29.5 12.5t-13.5 30.5z" />
    <glyph glyph-name="uni00B5" unicode="&#xb5;" horiz-adv-x="1157" 
d="M154 -315v1243q0 29 23.5 51t55.5 22q29 0 51.5 -22.5t22.5 -50.5v-590q0 -229 225 -229q84 0 164 45t125 108v666q0 29 23.5 51t56.5 22q29 0 51.5 -22.5t22.5 -50.5v-697q0 -57 23.5 -84.5t52 -30.5t52 -19.5t23.5 -53.5q0 -27 -16 -46.5t-51 -19.5q-92 0 -151.5 37
t-80.5 138q-55 -76 -139 -126.5t-174 -50.5q-154 0 -207 99v-389q0 -29 -22.5 -51.5t-55.5 -22.5q-31 0 -53 22.5t-22 51.5z" />
    <glyph glyph-name="paragraph" unicode="&#xb6;" horiz-adv-x="919" 
d="M55 1013.5q0 145.5 103.5 249t249.5 103.5h280q35 0 60.5 -25.5t25.5 -60.5v-1454q0 -16 -13 -29.5t-34 -13.5q-18 0 -31.5 13.5t-13.5 29.5v1448h-182v-1448q0 -16 -13.5 -29.5t-33.5 -13.5q-18 0 -31.5 13.5t-13.5 29.5v836q-145 0 -249 103t-104 248.5z" />
    <glyph glyph-name="periodcentered" unicode="&#xb7;" horiz-adv-x="471" 
d="M123 500q0 45 32.5 78.5t80 33.5t80 -33.5t32.5 -78.5t-33.5 -78t-79 -33t-79 33t-33.5 78z" />
    <glyph glyph-name="cedilla" unicode="&#xb8;" horiz-adv-x="419" 
d="M2 -307q0 16 13.5 28.5t29.5 12.5q10 0 16 -4q63 -41 142 -41q51 0 88 23.5t37 62.5q0 72 -76 71q-18 0 -50 -16t-46 -16q-18 0 -30.5 13t-12.5 32q0 10 2 14l41 109q14 41 59 41q14 2 23.5 -7.5t9.5 -21.5q0 -8 -2 -12l-37 -95q33 23 76 23q59 0 97 -38t38 -99
q0 -74 -61.5 -119t-151.5 -45q-72 0 -138.5 22.5t-66.5 61.5z" />
    <glyph glyph-name="uni00B9" unicode="&#xb9;" horiz-adv-x="481" 
d="M41 1448q0 20 14 35l172 174q37 37 74 37q25 0 41 -15.5t16 -36.5v-733q0 -25 -18 -42t-45 -17q-25 0 -42 17.5t-17 41.5v613l-109 -113q-16 -16 -35 -16q-20 0 -35.5 16t-15.5 39z" />
    <glyph glyph-name="ordmasculine" unicode="&#xba;" horiz-adv-x="829" 
d="M82 989.5q0 143.5 91 240.5t241 97q152 0 243 -97t91 -240.5t-91.5 -241t-242.5 -97.5q-150 0 -241 97.5t-91 241zM205 989q0 -104 56 -171.5t153 -67.5q98 0 155.5 67.5t57.5 171.5q0 102 -57.5 169t-155.5 67q-96 0 -152.5 -67t-56.5 -169z" />
    <glyph glyph-name="guillemotright" unicode="&#xbb;" horiz-adv-x="899" 
d="M119 172q0 23 14 37l256 289l-256 282q-14 18 -14 35q0 23 17.5 40t42 17t42.5 -18l240 -264q35 -37 35 -92q0 -51 -35 -92l-242 -273q-14 -18 -41 -18q-23 0 -41 16t-18 41zM414 172q0 23 14 37l256 289l-256 282q-14 14 -14 35t16 39t41 18t43 -18l242 -266
q35 -41 35 -92q0 -49 -35 -90l-242 -273q-14 -18 -41 -18q-23 0 -41 16t-18 41z" />
    <glyph glyph-name="onequarter" unicode="&#xbc;" horiz-adv-x="1576" 
d="M41 1133q0 20 14 34l172 174q37 37 74 37q25 0 41 -15t16 -36v-733q0 -25 -18 -42t-45 -17q-25 0 -42 17t-17 42v612l-109 -112q-16 -16 -35 -17q-20 0 -35.5 16.5t-15.5 39.5zM248 31q0 12 8 22l838 1313q14 20 39 20q23 0 36 -15t13 -34q0 -12 -8 -24l-838 -1311
q-16 -20 -39 -20q-20 0 -34.5 14.5t-14.5 34.5zM848 252q0 18 31 67l303 453q39 59 112 59q39 0 63.5 -23.5t24.5 -57.5v-445h84q18 0 32.5 -14.5t14.5 -32.5q0 -23 -14 -38t-33 -15h-84v-158q0 -25 -17 -42t-44 -17q-25 0 -42 17.5t-17 41.5v158h-371q-16 0 -29.5 13.5
t-13.5 33.5zM983 305h279v406z" />
    <glyph glyph-name="onehalf" unicode="&#xbd;" horiz-adv-x="1652" 
d="M41 1133q0 20 14 34l172 174q37 37 74 37q25 0 41 -15t16 -36v-733q0 -25 -18 -42t-45 -17q-25 0 -42 17t-17 42v612l-109 -112q-16 -16 -35 -17q-20 0 -35.5 16.5t-15.5 39.5zM248 31q0 12 8 22l838 1313q14 20 39 20q23 0 36 -15t13 -34q0 -12 -8 -24l-838 -1311
q-16 -20 -39 -20q-20 0 -34.5 14.5t-14.5 34.5zM946 47q0 35 35 59q233 168 339.5 277t106.5 199q0 74 -51 111.5t-123 37.5q-115 0 -204 -76q-16 -12 -33 -12q-20 0 -35.5 14.5t-15.5 36.5q0 61 104.5 99t187.5 38q123 0 208 -62t85 -179q0 -115 -102 -228.5t-309 -261.5
h381q18 0 32.5 -14t14.5 -33q0 -23 -14.5 -38t-32.5 -15h-529q-18 0 -31.5 13.5t-13.5 33.5z" />
    <glyph glyph-name="threequarters" unicode="&#xbe;" horiz-adv-x="1798" 
d="M92 672q0 20 15.5 37.5t37.5 17.5q18 0 31 -12q92 -82 213 -82q88 0 139.5 39t51.5 104q0 141 -213 142h-31q-18 0 -34.5 12t-16.5 37q0 23 16 36t35 13h29q201 0 200 131q0 61 -52 96t-130 35q-117 0 -199 -76q-10 -10 -28.5 -10t-35 14.5t-16.5 34.5q0 55 101.5 96
t187.5 41q131 0 213 -59t82 -160q0 -82 -55 -130t-127 -60q70 -6 133 -57.5t63 -141.5q0 -106 -83.5 -172t-225.5 -66q-100 0 -200.5 43.5t-100.5 96.5zM469 31q0 12 8 22l838 1313q14 20 39 20q23 0 36 -15t13 -34q0 -12 -8 -24l-838 -1311q-16 -20 -39 -20
q-20 0 -34.5 14.5t-14.5 34.5zM1071 252q0 18 31 67l303 453q39 59 113 59q39 0 63.5 -23.5t24.5 -57.5v-445h84q18 0 32.5 -14.5t14.5 -32.5q0 -23 -14.5 -38t-32.5 -15h-84v-158q0 -25 -17.5 -42t-44.5 -17q-25 0 -42 17.5t-17 41.5v158h-371q-16 0 -29.5 13.5t-13.5 33.5
zM1206 305h279v406z" />
    <glyph glyph-name="questiondown" unicode="&#xbf;" horiz-adv-x="806" 
d="M63 -84q0 104 62.5 185t136.5 124t136.5 102.5t62.5 125.5q0 14 -14.5 44.5t-14.5 47.5q0 27 18.5 47t49.5 20q51 0 80.5 -63.5t29.5 -108.5q0 -61 -27.5 -112.5t-68.5 -84t-89 -68.5t-89 -66.5t-68.5 -73.5t-27.5 -94q0 -82 62.5 -136.5t178.5 -54.5q68 0 136.5 35
t121 70.5t78.5 35.5q29 0 51.5 -22.5t22.5 -52.5q0 -90 -148.5 -153.5t-277.5 -63.5q-182 0 -292 91t-110 226zM375 895q0 47 33.5 81t78.5 34t79 -34t34 -81q0 -45 -34 -78t-79 -33t-78.5 33t-33.5 78z" />
    <glyph glyph-name="Agrave" unicode="&#xc0;" horiz-adv-x="1347" 
d="M57 78q0 16 6 33l472 1175q16 41 54 66.5t85 25.5q45 0 82 -25.5t53 -66.5l475 -1175q6 -16 6 -33q0 -33 -26.5 -61.5t-65.5 -28.5q-59 0 -82 55l-102 260h-680l-103 -260q-23 -55 -81 -55q-39 0 -66 26.5t-27 63.5zM383 455h580l-289 735zM401 1735q0 20 16.5 35.5
t37.5 15.5q23 0 37 -14l241 -234q10 -14 10 -27q0 -16 -11 -29.5t-30 -13.5q-12 0 -26 11l-258 221q-17 12 -17 35z" />
    <glyph glyph-name="Aacute" unicode="&#xc1;" horiz-adv-x="1347" 
d="M57 78q0 16 6 33l472 1175q16 41 54 66.5t85 25.5q45 0 82 -25.5t53 -66.5l475 -1175q6 -16 6 -33q0 -33 -26.5 -61.5t-65.5 -28.5q-59 0 -82 55l-102 260h-680l-103 -260q-23 -55 -81 -55q-39 0 -66 26.5t-27 63.5zM383 455h580l-289 735zM604 1511q0 16 10 27l242 234
q14 14 37 14q18 0 35.5 -15.5t17.5 -35.5q0 -23 -16 -35l-258 -221q-14 -10 -25 -11q-16 0 -29.5 12.5t-13.5 30.5z" />
    <glyph glyph-name="Acircumflex" unicode="&#xc2;" horiz-adv-x="1347" 
d="M57 78q0 16 6 33l472 1175q16 41 54 66.5t85 25.5q45 0 82 -25.5t53 -66.5l475 -1175q6 -16 6 -33q0 -33 -26.5 -61.5t-65.5 -28.5q-59 0 -82 55l-102 260h-680l-103 -260q-23 -55 -81 -55q-39 0 -66 26.5t-27 63.5zM383 455h580l-289 735zM432 1509q0 6 8 23l133 203
q33 53 103 53q61 0 98 -53l139 -203q6 -8 7 -23q0 -16 -12.5 -29.5t-33 -13.5t-32.5 17l-168 215l-162 -213q-12 -16 -35 -17q-18 0 -31.5 11.5t-13.5 29.5z" />
    <glyph glyph-name="Atilde" unicode="&#xc3;" horiz-adv-x="1347" 
d="M57 78q0 16 6 33l472 1175q16 41 54 66.5t85 25.5q45 0 82 -25.5t53 -66.5l475 -1175q6 -16 6 -33q0 -33 -26.5 -61.5t-65.5 -28.5q-59 0 -82 55l-102 260h-680l-103 -260q-23 -55 -81 -55q-39 0 -66 26.5t-27 63.5zM356 1528q0 102 57.5 168.5t139.5 66.5q49 0 87 -29.5
t57.5 -64.5t47 -64.5t60.5 -29.5q82 0 96 131q4 45 51 45q41 0 41 -43q-10 -106 -60 -168.5t-136 -62.5q-51 0 -89 29.5t-56.5 64.5t-46 64.5t-60.5 29.5q-82 0 -96 -131q-4 -45 -52 -45q-18 0 -29.5 11.5t-11.5 27.5zM383 455h580l-289 735z" />
    <glyph glyph-name="Adieresis" unicode="&#xc4;" horiz-adv-x="1347" 
d="M57 78q0 16 6 33l472 1175q16 41 54 66.5t85 25.5q45 0 82 -25.5t53 -66.5l475 -1175q6 -16 6 -33q0 -33 -26.5 -61.5t-65.5 -28.5q-59 0 -82 55l-102 260h-680l-103 -260q-23 -55 -81 -55q-39 0 -66 26.5t-27 63.5zM369 1579q0 39 28.5 66.5t67.5 27.5t66.5 -27.5
t27.5 -66.5t-27.5 -67.5t-66.5 -28.5t-67.5 28.5t-28.5 67.5zM383 455h580l-289 735zM791 1579q0 39 28.5 66.5t67.5 27.5t67.5 -27.5t28.5 -66.5t-28.5 -67.5t-67.5 -28.5t-67.5 28.5t-28.5 67.5z" />
    <glyph glyph-name="Aring" unicode="&#xc5;" horiz-adv-x="1347" 
d="M57 78q0 16 6 33l472 1175q16 41 54 66.5t85 25.5q45 0 82 -25.5t53 -66.5l475 -1175q6 -16 6 -33q0 -33 -26.5 -61.5t-65.5 -28.5q-59 0 -82 55l-102 260h-680l-103 -260q-23 -55 -81 -55q-39 0 -66 26.5t-27 63.5zM383 455h580l-289 735zM473 1614q0 84 59.5 143.5
t141.5 59.5t141 -59.5t59 -143.5q0 -82 -58 -141.5t-142 -59.5t-142.5 59.5t-58.5 141.5zM555 1614q0 -49 35 -85t84 -36t84 36t35 85q0 51 -34 86t-85 35q-49 0 -84 -35t-35 -86z" />
    <glyph glyph-name="AE" unicode="&#xc6;" horiz-adv-x="1939" 
d="M76 78q0 20 12 43l713 1141q29 47 81 75.5t107 28.5h778q31 0 52.5 -22.5t21.5 -55.5q0 -31 -21.5 -52.5t-52.5 -21.5h-663v-440h649q31 0 52.5 -22.5t21.5 -55.5q0 -31 -21.5 -52t-52.5 -21h-649v-471h663q31 0 52.5 -21.5t21.5 -52.5q0 -33 -21.5 -55.5t-52.5 -22.5
h-710q-51 0 -87 36t-36 87v180h-539l-166 -272q-20 -37 -67 -37q-35 0 -60.5 24.5t-25.5 59.5zM479 455h455v735z" />
    <glyph glyph-name="Ccedilla" unicode="&#xc7;" horiz-adv-x="1384" 
d="M104 682q0 311 202 509t501 198q276 0 457 -195q23 -27 22.5 -59.5t-24 -57t-56.5 -24.5q-37 0 -57 26q-59 72 -152.5 115t-189.5 43q-225 0 -375.5 -156.5t-150.5 -398.5t150.5 -398.5t375.5 -156.5q209 0 342 156q23 27 57 26q33 0 56.5 -24.5t23.5 -59.5
q0 -31 -22 -57q-174 -184 -437 -193l-30 -79q33 23 75 22q59 0 97.5 -38t38.5 -99q0 -74 -61.5 -119t-151.5 -45q-72 0 -138.5 22.5t-66.5 61.5q0 16 13 28.5t30 12.5q10 0 16 -4q63 -41 142 -41q51 0 87.5 23.5t36.5 62.5q0 72 -75 72q-18 0 -49 -16.5t-46 -16.5
q-18 0 -31.5 13t-13.5 32q0 10 2 14l35 99q-274 23 -453.5 216t-179.5 486z" />
    <glyph glyph-name="Egrave" unicode="&#xc8;" horiz-adv-x="1165" 
d="M160 123v1120q0 51 35.5 87t87.5 36h710q31 0 52.5 -22.5t21.5 -55.5q0 -31 -21.5 -52.5t-52.5 -21.5h-663v-440h649q31 0 52.5 -22.5t21.5 -55.5q0 -31 -21.5 -52t-52.5 -21h-649v-471h663q31 0 52.5 -21.5t21.5 -52.5q0 -33 -21.5 -55.5t-52.5 -22.5h-710q-51 0 -87 36
t-36 87zM334 1735q0 20 16.5 35.5t36.5 15.5q23 0 37 -14l242 -234q10 -14 10 -27q0 -16 -11.5 -29.5t-29.5 -13.5q-12 0 -27 11l-258 221q-16 12 -16 35z" />
    <glyph glyph-name="Eacute" unicode="&#xc9;" horiz-adv-x="1165" 
d="M160 123v1120q0 51 35.5 87t87.5 36h710q31 0 52.5 -22.5t21.5 -55.5q0 -31 -21.5 -52.5t-52.5 -21.5h-663v-440h649q31 0 52.5 -22.5t21.5 -55.5q0 -31 -21.5 -52t-52.5 -21h-649v-471h663q31 0 52.5 -21.5t21.5 -52.5q0 -33 -21.5 -55.5t-52.5 -22.5h-710q-51 0 -87 36
t-36 87zM537 1511q0 16 10 27l241 234q14 14 37 14q18 0 36 -15.5t18 -35.5q0 -23 -17 -35l-258 -221q-14 -10 -24 -11q-16 0 -29.5 12.5t-13.5 30.5z" />
    <glyph glyph-name="Ecircumflex" unicode="&#xca;" horiz-adv-x="1165" 
d="M160 123v1120q0 51 35.5 87t87.5 36h710q31 0 52.5 -22.5t21.5 -55.5q0 -31 -21.5 -52.5t-52.5 -21.5h-663v-440h649q31 0 52.5 -22.5t21.5 -55.5q0 -31 -21.5 -52t-52.5 -21h-649v-471h663q31 0 52.5 -21.5t21.5 -52.5q0 -33 -21.5 -55.5t-52.5 -22.5h-710q-51 0 -87 36
t-36 87zM360 1509q0 6 9 23l133 203q33 53 102 53q61 0 98 -53l140 -203q6 -8 6 -23q0 -16 -12.5 -29.5t-33 -13.5t-32.5 17l-168 215l-162 -213q-12 -16 -34 -17q-18 0 -32 11.5t-14 29.5z" />
    <glyph glyph-name="Edieresis" unicode="&#xcb;" horiz-adv-x="1165" 
d="M160 123v1120q0 51 35.5 87t87.5 36h710q31 0 52.5 -22.5t21.5 -55.5q0 -31 -21.5 -52.5t-52.5 -21.5h-663v-440h649q31 0 52.5 -22.5t21.5 -55.5q0 -31 -21.5 -52t-52.5 -21h-649v-471h663q31 0 52.5 -21.5t21.5 -52.5q0 -33 -21.5 -55.5t-52.5 -22.5h-710q-51 0 -87 36
t-36 87zM299 1579q0 39 28.5 66.5t67.5 27.5t66.5 -27.5t27.5 -66.5t-27.5 -67.5t-66.5 -28.5t-67.5 28.5t-28.5 67.5zM721 1579q0 39 28.5 66.5t67.5 27.5t67.5 -27.5t28.5 -66.5t-28.5 -67.5t-67.5 -28.5t-67.5 28.5t-28.5 67.5z" />
    <glyph glyph-name="Igrave" unicode="&#xcc;" horiz-adv-x="489" 
d="M-27 1735q0 20 16.5 35.5t37.5 15.5q23 0 36 -14l242 -234q10 -14 10 -27q0 -16 -11 -29.5t-30 -13.5q-12 0 -26 11l-258 221q-17 12 -17 35zM160 72v1224q0 35 24.5 58.5t63.5 23.5q35 0 58.5 -23.5t23.5 -58.5v-1224q0 -35 -24.5 -59.5t-61.5 -24.5q-35 0 -59.5 24.5
t-24.5 59.5z" />
    <glyph glyph-name="Iacute" unicode="&#xcd;" horiz-adv-x="489" 
d="M160 72v1224q0 35 24.5 58.5t63.5 23.5q35 0 58.5 -23.5t23.5 -58.5v-1224q0 -35 -24.5 -59.5t-61.5 -24.5q-35 0 -59.5 24.5t-24.5 59.5zM176 1511q0 16 10 27l242 234q14 14 37 14q18 0 35.5 -15.5t17.5 -35.5q0 -23 -16 -35l-258 -221q-14 -10 -25 -11
q-16 0 -29.5 12.5t-13.5 30.5z" />
    <glyph glyph-name="Icircumflex" unicode="&#xce;" horiz-adv-x="489" 
d="M4 1509q0 6 8 23l133 203q33 53 103 53q61 0 98 -53l139 -203q6 -8 7 -23q0 -16 -12.5 -29.5t-33 -13.5t-32.5 17l-168 215l-162 -213q-12 -16 -35 -17q-18 0 -31.5 11.5t-13.5 29.5zM160 72v1224q0 35 24.5 58.5t63.5 23.5q35 0 58.5 -23.5t23.5 -58.5v-1224
q0 -35 -24.5 -59.5t-61.5 -24.5q-35 0 -59.5 24.5t-24.5 59.5z" />
    <glyph glyph-name="Idieresis" unicode="&#xcf;" horiz-adv-x="489" 
d="M-59 1579q0 39 28.5 66.5t67.5 27.5t66.5 -27.5t27.5 -66.5t-27.5 -67.5t-66.5 -28.5q-41 0 -68.5 28.5t-27.5 67.5zM160 72v1224q0 35 24.5 58.5t63.5 23.5q35 0 58.5 -23.5t23.5 -58.5v-1224q0 -35 -24.5 -59.5t-61.5 -24.5q-35 0 -59.5 24.5t-24.5 59.5zM362 1579
q0 39 29 66.5t68 27.5t67.5 -27.5t28.5 -66.5t-28.5 -67.5t-67.5 -28.5t-68 28.5t-29 67.5z" />
    <glyph glyph-name="Eth" unicode="&#xd0;" horiz-adv-x="1490" 
d="M8 678q0 25 17.5 42t44.5 17h147v506q0 51 36 87t87 36h344q313 0 506.5 -194.5t193.5 -489.5q0 -297 -193.5 -489.5t-506.5 -192.5h-344q-51 0 -87 36t-36 87v489h-147q-27 0 -44.5 18.5t-17.5 47.5zM387 152h297q242 0 383 151.5t141 378.5q0 229 -139 380.5
t-385 151.5h-297v-477h299q25 0 42 -18.5t17 -45t-17 -44t-42 -17.5h-299v-460z" />
    <glyph glyph-name="Ntilde" unicode="&#xd1;" horiz-adv-x="1449" 
d="M160 72v1204q0 41 30.5 71.5t77.5 30.5q57 0 90 -45l762 -1034v997q0 35 24.5 58.5t63.5 23.5q33 0 57.5 -23.5t24.5 -58.5v-1212q0 -39 -28.5 -67.5t-73.5 -28.5q-53 0 -84 43l-774 1059v-1018q0 -35 -24.5 -59.5t-61.5 -24.5q-35 0 -59.5 24.5t-24.5 59.5zM403 1528
q0 102 57.5 168.5t139.5 66.5q49 0 87 -29.5t57.5 -64.5t47 -64.5t60.5 -29.5q82 0 96 131q4 45 51 45q41 0 41 -43q-10 -106 -60 -168.5t-136 -62.5q-51 0 -89 29.5t-56.5 64.5t-46 64.5t-60.5 29.5q-82 0 -96 -131q-4 -45 -52 -45q-18 0 -29.5 11.5t-11.5 27.5z" />
    <glyph glyph-name="Ograve" unicode="&#xd2;" horiz-adv-x="1566" 
d="M104 682q0 305 188.5 506t489.5 201q299 0 488.5 -201t189.5 -506t-189.5 -506t-488.5 -201q-301 0 -489.5 201t-188.5 506zM281 682q0 -242 137 -398.5t364 -156.5q225 0 363.5 156.5t138.5 398.5q0 244 -138 399.5t-364 155.5q-227 0 -364 -155.5t-137 -399.5z
M512 1735q0 20 16.5 35.5t36.5 15.5q23 0 37 -14l242 -234q10 -14 10 -27q0 -16 -11.5 -29.5t-29.5 -13.5q-12 0 -27 11l-258 221q-16 12 -16 35z" />
    <glyph glyph-name="Oacute" unicode="&#xd3;" horiz-adv-x="1566" 
d="M104 682q0 305 188.5 506t489.5 201q299 0 488.5 -201t189.5 -506t-189.5 -506t-488.5 -201q-301 0 -489.5 201t-188.5 506zM281 682q0 -242 137 -398.5t364 -156.5q225 0 363.5 156.5t138.5 398.5q0 244 -138 399.5t-364 155.5q-227 0 -364 -155.5t-137 -399.5z
M715 1511q0 16 10 27l242 234q14 14 37 14q18 0 35.5 -15.5t17.5 -35.5q0 -23 -17 -35l-258 -221q-14 -10 -24 -11q-16 0 -29.5 12.5t-13.5 30.5z" />
    <glyph glyph-name="Ocircumflex" unicode="&#xd4;" horiz-adv-x="1566" 
d="M104 682q0 305 188.5 506t489.5 201q299 0 488.5 -201t189.5 -506t-189.5 -506t-488.5 -201q-301 0 -489.5 201t-188.5 506zM281 682q0 -242 137 -398.5t364 -156.5q225 0 363.5 156.5t138.5 398.5q0 244 -138 399.5t-364 155.5q-227 0 -364 -155.5t-137 -399.5z
M543 1509q0 6 8 23l133 203q33 53 102 53q61 0 99 -53l139 -203q6 -8 6 -23q0 -16 -12 -29.5t-32.5 -13.5t-33.5 17l-168 215l-161 -213q-12 -16 -35 -17q-18 0 -31.5 11.5t-13.5 29.5z" />
    <glyph glyph-name="Otilde" unicode="&#xd5;" horiz-adv-x="1566" 
d="M104 682q0 305 188.5 506t489.5 201q299 0 488.5 -201t189.5 -506t-189.5 -506t-488.5 -201q-301 0 -489.5 201t-188.5 506zM281 682q0 -242 137 -398.5t364 -156.5q225 0 363.5 156.5t138.5 398.5q0 244 -138 399.5t-364 155.5q-227 0 -364 -155.5t-137 -399.5z
M465 1528q0 102 57.5 168.5t139.5 66.5q49 0 86.5 -29.5t57 -64.5t47.5 -64.5t60 -29.5q82 0 97 131q4 45 51 45q41 0 41 -43q-10 -106 -60.5 -168.5t-136.5 -62.5q-51 0 -89 29.5t-56.5 64.5t-46 64.5t-60.5 29.5q-82 0 -96 -131q-4 -45 -51 -45q-18 0 -29.5 11.5
t-11.5 27.5z" />
    <glyph glyph-name="Odieresis" unicode="&#xd6;" horiz-adv-x="1566" 
d="M104 682q0 305 188.5 506t489.5 201q299 0 488.5 -201t189.5 -506t-189.5 -506t-488.5 -201q-301 0 -489.5 201t-188.5 506zM281 682q0 -242 137 -398.5t364 -156.5q225 0 363.5 156.5t138.5 398.5q0 244 -138 399.5t-364 155.5q-227 0 -364 -155.5t-137 -399.5z
M475 1579q0 39 28.5 66.5t67.5 27.5t67 -27.5t28 -66.5t-28 -67.5t-67 -28.5t-67.5 28.5t-28.5 67.5zM897 1579q0 39 28.5 66.5t67.5 27.5t68 -27.5t29 -66.5t-29 -67.5t-68 -28.5t-67.5 28.5t-28.5 67.5z" />
    <glyph glyph-name="multiply" unicode="&#xd7;" horiz-adv-x="1021" 
d="M152 379q0 20 16 37l266 268l-266 266q-16 16 -16 37t15 38t40 17q23 0 37 -14l266 -268l268 268q14 14 35 14t38 -16t17 -38.5t-14 -37.5l-266 -266l266 -268q14 -14 14 -37t-17 -39t-36 -16q-20 0 -37 16l-268 268l-266 -268q-16 -16 -37 -16t-38 16t-17 39z" />
    <glyph glyph-name="Oslash" unicode="&#xd8;" horiz-adv-x="1566" 
d="M104 682q0 305 188.5 506t489.5 201q188 0 342 -86l39 57q16 23 45 22q23 0 40.5 -15t17.5 -38q0 -20 -9 -31l-40 -59q117 -96 180 -240.5t63 -316.5q0 -305 -189.5 -506t-488.5 -201q-199 0 -354 93l-43 -64q-14 -20 -43 -20q-25 0 -42 15t-17 38q0 14 10 29l45 67
q-234 201 -234 549zM281 682q0 -258 149 -412l606 901q-115 66 -254 66q-227 0 -364 -155.5t-137 -399.5zM516 199q113 -72 266 -72q225 0 363.5 156.5t138.5 398.5q0 266 -160 420z" />
    <glyph glyph-name="Ugrave" unicode="&#xd9;" horiz-adv-x="1433" 
d="M160 530v766q0 35 24.5 58.5t63.5 23.5q35 0 58.5 -23.5t23.5 -58.5v-761q0 -190 100 -299t286.5 -109t287 108.5t100.5 299.5v761q0 35 24.5 58.5t63.5 23.5q33 0 57.5 -23.5t24.5 -58.5v-764q0 -260 -142.5 -408.5t-415 -148.5t-414.5 148.5t-142 406.5zM444 1735
q0 20 16.5 35.5t37.5 15.5q23 0 37 -14l241 -234q10 -14 10 -27q0 -16 -11 -29.5t-30 -13.5q-12 0 -26 11l-258 221q-17 12 -17 35z" />
    <glyph glyph-name="Uacute" unicode="&#xda;" horiz-adv-x="1433" 
d="M160 530v766q0 35 24.5 58.5t63.5 23.5q35 0 58.5 -23.5t23.5 -58.5v-761q0 -190 100 -299t286.5 -109t287 108.5t100.5 299.5v761q0 35 24.5 58.5t63.5 23.5q33 0 57.5 -23.5t24.5 -58.5v-764q0 -260 -142.5 -408.5t-415 -148.5t-414.5 148.5t-142 406.5zM647 1511
q0 16 10 27l242 234q14 14 37 14q18 0 35.5 -15.5t17.5 -35.5q0 -23 -16 -35l-258 -221q-14 -10 -25 -11q-16 0 -29.5 12.5t-13.5 30.5z" />
    <glyph glyph-name="Ucircumflex" unicode="&#xdb;" horiz-adv-x="1433" 
d="M160 530v766q0 35 24.5 58.5t63.5 23.5q35 0 58.5 -23.5t23.5 -58.5v-761q0 -190 100 -299t286.5 -109t287 108.5t100.5 299.5v761q0 35 24.5 58.5t63.5 23.5q33 0 57.5 -23.5t24.5 -58.5v-764q0 -260 -142.5 -408.5t-415 -148.5t-414.5 148.5t-142 406.5zM477 1509
q0 6 8 23l133 203q33 53 103 53q61 0 98 -53l139 -203q6 -8 7 -23q0 -16 -12.5 -29.5t-33 -13.5t-32.5 17l-168 215l-162 -213q-12 -16 -35 -17q-18 0 -31.5 11.5t-13.5 29.5z" />
    <glyph glyph-name="Udieresis" unicode="&#xdc;" horiz-adv-x="1433" 
d="M160 530v766q0 35 24.5 58.5t63.5 23.5q35 0 58.5 -23.5t23.5 -58.5v-761q0 -190 100 -299t286.5 -109t287 108.5t100.5 299.5v761q0 35 24.5 58.5t63.5 23.5q33 0 57.5 -23.5t24.5 -58.5v-764q0 -260 -142.5 -408.5t-415 -148.5t-414.5 148.5t-142 406.5zM412 1579
q0 39 28.5 66.5t67.5 27.5t66.5 -27.5t27.5 -66.5t-27.5 -67.5t-66.5 -28.5q-41 0 -68.5 28.5t-27.5 67.5zM834 1579q0 39 28.5 66.5t67.5 27.5t67.5 -27.5t28.5 -66.5t-28.5 -67.5t-67.5 -28.5t-67.5 28.5t-28.5 67.5z" />
    <glyph glyph-name="Yacute" unicode="&#xdd;" horiz-adv-x="1282" 
d="M82 1296q0 31 22.5 56.5t59.5 25.5q45 0 69 -35l408 -612l408 612q23 33 65 33q35 0 59.5 -23.5t24.5 -56.5q0 -25 -12 -43l-459 -675v-506q0 -35 -24.5 -59.5t-61.5 -24.5q-35 0 -59.5 24.5t-24.5 59.5v506l-461 675q-14 20 -14 43zM571 1511q0 16 11 27l241 234
q14 14 37 14q18 0 35.5 -15.5t17.5 -35.5q0 -23 -16 -35l-258 -221q-14 -10 -25 -11q-16 0 -29.5 12.5t-13.5 30.5z" />
    <glyph glyph-name="Thorn" unicode="&#xde;" horiz-adv-x="1202" 
d="M160 84v1200q0 35 24.5 58.5t63.5 23.5q35 0 58.5 -23.5t23.5 -58.5v-162h379q199 0 313.5 -118.5t114.5 -294.5q0 -174 -116 -292t-312 -118h-379v-215q0 -35 -24.5 -59.5t-61.5 -24.5q-35 0 -59.5 24.5t-24.5 59.5zM330 451h358q121 0 197 71.5t76 186t-76 188.5
t-197 74h-358v-520z" />
    <glyph glyph-name="germandbls" unicode="&#xdf;" horiz-adv-x="1222" 
d="M154 63v959q0 154 107.5 259t283.5 105q147 0 252.5 -70.5t105.5 -187.5q0 -76 -48 -133t-105.5 -86.5t-105.5 -76t-48 -101.5q0 -57 60.5 -91t146.5 -52.5t173 -45t147.5 -93t60.5 -173.5q0 -127 -99.5 -214t-281.5 -87q-209 0 -344 125q-23 23 -23 52q0 27 17.5 47
t42.5 20q18 0 39 -16q109 -102 268 -103q111 0 171 50.5t60 121.5q0 66 -60.5 104t-146.5 58.5t-173 46t-147.5 88t-60.5 160.5q0 76 47.5 135.5t102.5 90t102 71.5t47 84q0 66 -61 102.5t-141 36.5q-100 0 -168 -62.5t-68 -164.5v-959q0 -31 -22.5 -53t-55.5 -22
q-31 0 -53 22t-22 53z" />
    <glyph glyph-name="agrave" unicode="&#xe0;" horiz-adv-x="1079" 
d="M98 303q0 156 103.5 241t242.5 85q211 0 328 -135v178q0 98 -69.5 153.5t-180.5 55.5q-145 0 -258 -95q-20 -16 -43 -16q-27 0 -47 17.5t-20 44t20 45.5q152 137 369 137q170 0 276.5 -82t106.5 -252v-617q0 -31 -22.5 -53t-55.5 -22t-54.5 23.5t-21.5 56.5v45
q-125 -137 -328 -138q-137 0 -241.5 88t-104.5 240zM256 301q0 -94 68.5 -154.5t175.5 -60.5q184 0 272 123v186q-88 123 -272 123q-106 0 -175 -60.5t-69 -156.5zM270 1393q0 20 16.5 35.5t37.5 15.5q23 0 36 -14l242 -234q10 -14 10 -27q0 -16 -11 -29.5t-30 -13.5
q-12 0 -26 11l-258 221q-17 12 -17 35z" />
    <glyph glyph-name="aacute" unicode="&#xe1;" horiz-adv-x="1079" 
d="M98 303q0 156 103.5 241t242.5 85q211 0 328 -135v178q0 98 -69.5 153.5t-180.5 55.5q-145 0 -258 -95q-20 -16 -43 -16q-27 0 -47 17.5t-20 44t20 45.5q152 137 369 137q170 0 276.5 -82t106.5 -252v-617q0 -31 -22.5 -53t-55.5 -22t-54.5 23.5t-21.5 56.5v45
q-125 -137 -328 -138q-137 0 -241.5 88t-104.5 240zM256 301q0 -94 68.5 -154.5t175.5 -60.5q184 0 272 123v186q-88 123 -272 123q-106 0 -175 -60.5t-69 -156.5zM473 1169q0 16 10 27l242 234q14 14 37 14q18 0 35.5 -15.5t17.5 -35.5q0 -23 -16 -35l-258 -221
q-14 -10 -25 -11q-16 0 -29.5 12.5t-13.5 30.5z" />
    <glyph glyph-name="acircumflex" unicode="&#xe2;" horiz-adv-x="1079" 
d="M98 303q0 156 103.5 241t242.5 85q211 0 328 -135v178q0 98 -69.5 153.5t-180.5 55.5q-145 0 -258 -95q-20 -16 -43 -16q-27 0 -47 17.5t-20 44t20 45.5q152 137 369 137q170 0 276.5 -82t106.5 -252v-617q0 -31 -22.5 -53t-55.5 -22t-54.5 23.5t-21.5 56.5v45
q-125 -137 -328 -138q-137 0 -241.5 88t-104.5 240zM256 301q0 -94 68.5 -154.5t175.5 -60.5q184 0 272 123v186q-88 123 -272 123q-106 0 -175 -60.5t-69 -156.5zM299 1167q0 6 8 23l133 203q33 53 103 53q61 0 98 -53l139 -203q6 -10 6 -23q0 -16 -12 -29.5t-32.5 -13.5
t-32.5 17l-168 215l-162 -213q-12 -16 -35 -17q-18 0 -31.5 11.5t-13.5 29.5z" />
    <glyph glyph-name="atilde" unicode="&#xe3;" horiz-adv-x="1079" 
d="M98 303q0 156 103.5 241t242.5 85q211 0 328 -135v178q0 98 -69.5 153.5t-180.5 55.5q-145 0 -258 -95q-20 -16 -43 -16q-27 0 -47 17.5t-20 44t20 45.5q152 137 369 137q170 0 276.5 -82t106.5 -252v-617q0 -31 -22.5 -53t-55.5 -22t-54.5 23.5t-21.5 56.5v45
q-125 -137 -328 -138q-137 0 -241.5 88t-104.5 240zM225 1186q0 102 57.5 168.5t139.5 66.5q49 0 87 -29.5t57.5 -64.5t47 -64.5t60.5 -29.5q82 0 96 131q4 45 51 45q41 0 41 -43q-10 -106 -60 -168.5t-136 -62.5q-51 0 -89 29.5t-56.5 64.5t-46.5 64.5t-60 29.5
q-82 0 -97 -131q-4 -45 -51 -45q-18 0 -29.5 11.5t-11.5 27.5zM256 301q0 -94 68.5 -154.5t175.5 -60.5q184 0 272 123v186q-88 123 -272 123q-106 0 -175 -60.5t-69 -156.5z" />
    <glyph glyph-name="adieresis" unicode="&#xe4;" horiz-adv-x="1079" 
d="M98 303q0 156 103.5 241t242.5 85q211 0 328 -135v178q0 98 -69.5 153.5t-180.5 55.5q-145 0 -258 -95q-20 -16 -43 -16q-27 0 -47 17.5t-20 44t20 45.5q152 137 369 137q170 0 276.5 -82t106.5 -252v-617q0 -31 -22.5 -53t-55.5 -22t-54.5 23.5t-21.5 56.5v45
q-125 -137 -328 -138q-137 0 -241.5 88t-104.5 240zM236 1237q0 39 28.5 66.5t67.5 27.5t66.5 -27.5t27.5 -66.5t-27.5 -67.5t-66.5 -28.5q-41 0 -68.5 27.5t-27.5 68.5zM256 301q0 -94 68.5 -154.5t175.5 -60.5q184 0 272 123v186q-88 123 -272 123q-106 0 -175 -60.5
t-69 -156.5zM657 1237q0 39 29 66.5t68 27.5t67.5 -27.5t28.5 -66.5t-28.5 -67.5t-67.5 -28.5t-68 28.5t-29 67.5z" />
    <glyph glyph-name="aring" unicode="&#xe5;" horiz-adv-x="1079" 
d="M98 303q0 156 103.5 241t242.5 85q211 0 328 -135v178q0 98 -69.5 153.5t-180.5 55.5q-145 0 -258 -95q-20 -16 -43 -16q-27 0 -47 17.5t-20 44t20 45.5q152 137 369 137q170 0 276.5 -82t106.5 -252v-617q0 -31 -22.5 -53t-55.5 -22t-54.5 23.5t-21.5 56.5v45
q-125 -137 -328 -138q-137 0 -241.5 88t-104.5 240zM256 301q0 -94 68.5 -154.5t175.5 -60.5q184 0 272 123v186q-88 123 -272 123q-106 0 -175 -60.5t-69 -156.5zM342 1313q0 84 59.5 143.5t141.5 59.5t141 -59.5t59 -143.5t-58 -142.5t-142 -58.5t-142.5 58.5t-58.5 142.5
zM424 1313q0 -49 35 -85t84 -36t84 36t35 85q0 51 -34 86t-85 35q-49 0 -84 -35t-35 -86z" />
    <glyph glyph-name="ae" unicode="&#xe6;" horiz-adv-x="1820" 
d="M98 303.5q0 153.5 105.5 239.5t259.5 86q229 0 358 -131v176q0 96 -74.5 151.5t-197.5 55.5q-166 0 -285 -97q-16 -14 -40.5 -14t-46 18.5t-21.5 45t20 45.5q160 135 391 135q131 0 227.5 -53.5t123.5 -161.5q123 215 366 215q168 0 280.5 -102.5t147.5 -280.5
q12 -66 12 -103q0 -35 -24.5 -59.5t-59.5 -24.5h-665q10 -145 98 -241.5t232 -96.5q135 0 239 82q16 14 43 14.5t46.5 -17t19.5 -44.5q0 -25 -21 -45q-145 -121 -334 -121q-279 0 -395 238q-53 -106 -162.5 -172t-244.5 -66q-168 0 -283 87.5t-115 241zM256 311
q0 -92 73.5 -148.5t194.5 -56.5q127 0 212 80t85 183v24q-106 125 -297 125q-121 0 -194.5 -56.5t-73.5 -150.5zM975 557h600q-2 129 -78 229.5t-223 100.5q-135 0 -214 -101.5t-85 -228.5z" />
    <glyph glyph-name="ccedilla" unicode="&#xe7;" horiz-adv-x="1013" 
d="M96 496q0 223 137.5 370.5t356.5 147.5q201 0 325 -129q16 -20 17 -43q0 -27 -20.5 -48.5t-49.5 -21.5q-31 0 -53 23q-84 82 -211 82q-156 0 -249 -106.5t-93 -274.5t93 -275.5t249 -107.5q125 0 211 84q23 18 51.5 18t50 -18.5t21.5 -47t-17 -45.5q-109 -117 -288 -127
l-33 -86q33 23 76 23q59 0 97 -38t38 -99q0 -74 -61.5 -119t-151.5 -45q-72 0 -138.5 22.5t-66.5 61.5q0 16 13.5 28.5t29.5 12.5q10 0 16 -4q63 -41 142 -41q51 0 88 23.5t37 62.5q0 72 -76 71q-18 0 -49 -16t-45 -16q-18 0 -31.5 13t-13.5 32q0 10 2 14l37 103
q-197 18 -319 161.5t-122 354.5z" />
    <glyph glyph-name="egrave" unicode="&#xe8;" horiz-adv-x="1153" 
d="M96 496q0 217 139.5 367.5t348.5 150.5q180 0 300 -103.5t158 -279.5q14 -72 15 -103q0 -35 -24.5 -59.5t-59.5 -24.5h-715q10 -145 106.5 -243.5t249.5 -98.5q150 0 267 93q16 10 34 10q23 0 42.5 -18.5t19.5 -45.5q0 -72 -132 -119t-245 -47q-221 0 -362.5 145
t-141.5 376zM258 557h649q-2 127 -86 228.5t-239 101.5q-147 0 -232.5 -100.5t-91.5 -229.5zM311 1393q0 20 16.5 35.5t37.5 15.5q23 0 36 -14l242 -234q10 -14 10 -27q0 -16 -11 -29.5t-30 -13.5q-12 0 -26 11l-258 221q-17 12 -17 35z" />
    <glyph glyph-name="eacute" unicode="&#xe9;" horiz-adv-x="1153" 
d="M96 496q0 217 139.5 367.5t348.5 150.5q180 0 300 -103.5t158 -279.5q14 -72 15 -103q0 -35 -24.5 -59.5t-59.5 -24.5h-715q10 -145 106.5 -243.5t249.5 -98.5q150 0 267 93q16 10 34 10q23 0 42.5 -18.5t19.5 -45.5q0 -72 -132 -119t-245 -47q-221 0 -362.5 145
t-141.5 376zM258 557h649q-2 127 -86 228.5t-239 101.5q-147 0 -232.5 -100.5t-91.5 -229.5zM514 1169q0 16 10 27l242 234q14 14 37 14q18 0 35.5 -15.5t17.5 -35.5q0 -23 -16 -35l-258 -221q-14 -10 -25 -11q-16 0 -29.5 12.5t-13.5 30.5z" />
    <glyph glyph-name="ecircumflex" unicode="&#xea;" horiz-adv-x="1153" 
d="M96 496q0 217 139.5 367.5t348.5 150.5q180 0 300 -103.5t158 -279.5q14 -72 15 -103q0 -35 -24.5 -59.5t-59.5 -24.5h-715q10 -145 106.5 -243.5t249.5 -98.5q150 0 267 93q16 10 34 10q23 0 42.5 -18.5t19.5 -45.5q0 -72 -132 -119t-245 -47q-221 0 -362.5 145
t-141.5 376zM258 557h649q-2 127 -86 228.5t-239 101.5q-147 0 -232.5 -100.5t-91.5 -229.5zM342 1167q0 6 8 23l133 203q33 53 103 53q61 0 98 -53l139 -203q6 -10 6 -23q0 -16 -12 -29.5t-32.5 -13.5t-32.5 17l-168 215l-162 -213q-12 -16 -35 -17q-18 0 -31.5 11.5
t-13.5 29.5z" />
    <glyph glyph-name="edieresis" unicode="&#xeb;" horiz-adv-x="1153" 
d="M96 496q0 217 139.5 367.5t348.5 150.5q180 0 300 -103.5t158 -279.5q14 -72 15 -103q0 -35 -24.5 -59.5t-59.5 -24.5h-715q10 -145 106.5 -243.5t249.5 -98.5q150 0 267 93q16 10 34 10q23 0 42.5 -18.5t19.5 -45.5q0 -72 -132 -119t-245 -47q-221 0 -362.5 145
t-141.5 376zM258 557h649q-2 127 -86 228.5t-239 101.5q-147 0 -232.5 -100.5t-91.5 -229.5zM279 1237q0 39 28.5 66.5t67.5 27.5t66.5 -27.5t27.5 -66.5t-27.5 -67.5t-66.5 -28.5t-67.5 27.5t-28.5 68.5zM700 1237q0 39 29 66.5t68 27.5t67.5 -27.5t28.5 -66.5t-28.5 -67.5
t-67.5 -28.5t-68 28.5t-29 67.5z" />
    <glyph glyph-name="igrave" unicode="&#xec;" horiz-adv-x="460" 
d="M-41 1393q0 20 16.5 35.5t36.5 15.5q23 0 37 -14l242 -234q10 -14 10 -27q0 -16 -11 -29.5t-30 -13.5q-12 0 -27 11l-258 221q-16 12 -16 35zM154 63v865q0 29 23.5 51t55.5 22q29 0 51.5 -22.5t22.5 -50.5v-865q0 -31 -22.5 -53t-55.5 -22q-31 0 -53 22t-22 53z" />
    <glyph glyph-name="iacute" unicode="&#xed;" horiz-adv-x="460" 
d="M154 63v865q0 29 23.5 51t55.5 22q29 0 51.5 -22.5t22.5 -50.5v-865q0 -31 -22.5 -53t-55.5 -22q-31 0 -53 22t-22 53zM162 1169q0 16 10 27l242 234q14 14 37 14q18 0 35.5 -15.5t17.5 -35.5q0 -23 -17 -35l-258 -221q-14 -10 -24 -11q-16 0 -29.5 12.5t-13.5 30.5z" />
    <glyph glyph-name="icircumflex" unicode="&#xee;" horiz-adv-x="460" 
d="M-12 1167q0 6 8 23l133 203q33 53 102 53q61 0 99 -53l139 -203q6 -10 6 -23q0 -16 -12 -29.5t-32.5 -13.5t-33.5 17l-168 215l-161 -213q-12 -16 -35 -17q-18 0 -31.5 11.5t-13.5 29.5zM154 63v865q0 29 23.5 51t55.5 22q29 0 51.5 -22.5t22.5 -50.5v-865
q0 -31 -22.5 -53t-55.5 -22q-31 0 -53 22t-22 53z" />
    <glyph glyph-name="idieresis" unicode="&#xef;" horiz-adv-x="460" 
d="M-74 1237q0 39 29 66.5t67.5 27.5t66.5 -27.5t28 -66.5t-28 -67.5t-66.5 -28.5t-67.5 27.5t-29 68.5zM154 63v865q0 29 23.5 51t55.5 22q29 0 51.5 -22.5t22.5 -50.5v-865q0 -31 -22.5 -53t-55.5 -22q-31 0 -53 22t-22 53zM348 1237q0 39 29 66.5t67.5 27.5t67.5 -27.5
t29 -66.5t-29 -67.5t-67.5 -28.5t-67.5 28.5t-29 67.5z" />
    <glyph glyph-name="eth" unicode="&#xf0;" 
d="M96 479q0 217 127 359.5t323.5 142.5t323.5 -182q-100 180 -327 348l-252 -111q-12 -4 -19 -4q-16 0 -30.5 13.5t-14.5 35.5q0 29 27 41l201 88q-4 2 -20.5 12.5t-25 14.5t-22.5 14.5t-22.5 17.5t-17.5 18t-13 21.5t-4 22.5q0 33 23.5 55.5t54.5 22.5q41 0 206 -129
l183 80q8 4 16 4q16 0 29.5 -12.5t13.5 -32.5q0 -31 -25 -43l-137 -59q381 -324 381 -711q0 -233 -133 -382t-356 -149q-219 0 -354.5 143.5t-135.5 360.5zM256 479q0 -154 89 -260t240.5 -106t239.5 106.5t88 259.5q0 152 -88 258.5t-239.5 106.5t-240.5 -106.5t-89 -258.5
z" />
    <glyph glyph-name="ntilde" unicode="&#xf1;" horiz-adv-x="1128" 
d="M154 63v865q0 29 23.5 51t55.5 22q29 0 51.5 -22.5t22.5 -50.5v-82q57 68 153.5 118t198.5 50q315 0 316 -320v-631q0 -31 -22.5 -53t-55.5 -22q-31 0 -53.5 22.5t-22.5 52.5v584q0 125 -57 177.5t-164 52.5q-86 0 -167 -45.5t-126 -108.5v-660q0 -31 -22.5 -53
t-55.5 -22q-31 0 -53 22t-22 53zM248 1186q0 102 57 168.5t139 66.5q49 0 87 -29.5t57.5 -64.5t47.5 -64.5t60 -29.5q82 0 97 131q4 45 51 45q41 0 41 -43q-10 -106 -60.5 -168.5t-136.5 -62.5q-51 0 -89 29.5t-56.5 64.5t-46 64.5t-60.5 29.5q-82 0 -96 -131
q-4 -45 -51 -45q-18 0 -29.5 11.5t-11.5 27.5z" />
    <glyph glyph-name="ograve" unicode="&#xf2;" 
d="M96 495.5q0 221.5 134.5 370t355.5 148.5t355 -148.5t134 -370t-134 -371t-355 -149.5t-355.5 149.5t-134.5 371zM256 496q0 -160 89 -271.5t240.5 -111.5t239.5 111.5t88 271t-88 270.5t-239.5 111t-240.5 -111.5t-89 -269.5zM313 1393q0 20 16.5 35.5t37.5 15.5
q23 0 36 -14l242 -234q10 -14 10 -27q0 -16 -11 -29.5t-30 -13.5q-12 0 -26 11l-258 221q-17 12 -17 35z" />
    <glyph glyph-name="oacute" unicode="&#xf3;" 
d="M96 495.5q0 221.5 134.5 370t355.5 148.5t355 -148.5t134 -370t-134 -371t-355 -149.5t-355.5 149.5t-134.5 371zM256 496q0 -160 89 -271.5t240.5 -111.5t239.5 111.5t88 271t-88 270.5t-239.5 111t-240.5 -111.5t-89 -269.5zM516 1169q0 16 10 27l242 234q14 14 37 14
q18 0 35.5 -15.5t17.5 -35.5q0 -23 -16 -35l-258 -221q-14 -10 -25 -11q-16 0 -29.5 12.5t-13.5 30.5z" />
    <glyph glyph-name="ocircumflex" unicode="&#xf4;" 
d="M96 495.5q0 221.5 134.5 370t355.5 148.5t355 -148.5t134 -370t-134 -371t-355 -149.5t-355.5 149.5t-134.5 371zM256 496q0 -160 89 -271.5t240.5 -111.5t239.5 111.5t88 271t-88 270.5t-239.5 111t-240.5 -111.5t-89 -269.5zM342 1167q0 6 8 23l133 203q33 53 103 53
q61 0 98 -53l139 -203q6 -10 6 -23q0 -16 -12 -29.5t-32.5 -13.5t-32.5 17l-168 215l-162 -213q-12 -16 -35 -17q-18 0 -31.5 11.5t-13.5 29.5z" />
    <glyph glyph-name="otilde" unicode="&#xf5;" 
d="M96 495.5q0 221.5 134.5 370t355.5 148.5t355 -148.5t134 -370t-134 -371t-355 -149.5t-355.5 149.5t-134.5 371zM256 496q0 -160 89 -271.5t240.5 -111.5t239.5 111.5t88 271t-88 270.5t-239.5 111t-240.5 -111.5t-89 -269.5zM268 1186q0 102 57.5 168.5t139.5 66.5
q49 0 87 -29.5t57.5 -64.5t47 -64.5t60.5 -29.5q82 0 96 131q4 45 51 45q41 0 41 -43q-10 -106 -60 -168.5t-136 -62.5q-51 0 -89 29.5t-56.5 64.5t-46.5 64.5t-60 29.5q-82 0 -97 -131q-4 -45 -51 -45q-18 0 -29.5 11.5t-11.5 27.5z" />
    <glyph glyph-name="odieresis" unicode="&#xf6;" 
d="M96 495.5q0 221.5 134.5 370t355.5 148.5t355 -148.5t134 -370t-134 -371t-355 -149.5t-355.5 149.5t-134.5 371zM256 496q0 -160 89 -271.5t240.5 -111.5t239.5 111.5t88 271t-88 270.5t-239.5 111t-240.5 -111.5t-89 -269.5zM279 1237q0 39 28.5 66.5t67.5 27.5
t66.5 -27.5t27.5 -66.5t-27.5 -67.5t-66.5 -28.5t-67.5 27.5t-28.5 68.5zM700 1237q0 39 29 66.5t68 27.5t67.5 -27.5t28.5 -66.5t-28.5 -67.5t-67.5 -28.5t-68 28.5t-29 67.5z" />
    <glyph glyph-name="divide" unicode="&#xf7;" horiz-adv-x="1046" 
d="M59 692q0 20 15.5 35.5t36.5 15.5h825q23 0 37 -15t14 -36q0 -25 -14.5 -40t-36.5 -15h-825q-23 0 -37.5 15t-14.5 40zM430 295q0 39 26.5 66.5t65.5 27.5t67.5 -27.5t28.5 -66.5t-28.5 -66.5t-67.5 -27.5t-65.5 27.5t-26.5 66.5zM430 1077q0 39 26.5 66.5t65.5 27.5
q41 0 68.5 -27.5t27.5 -66.5t-28.5 -66.5t-67.5 -27.5t-65.5 27.5t-26.5 66.5z" />
    <glyph glyph-name="oslash" unicode="&#xf8;" 
d="M96 496q0 221 134.5 369.5t355.5 148.5q162 0 280 -84l56 69q8 14 28 15q18 0 31.5 -12.5t13.5 -30.5q0 -16 -8 -27l-55 -72q143 -147 143 -376q0 -221 -134 -371t-355 -150q-170 0 -291 93l-64 -78q-10 -14 -28.5 -14.5t-31.5 12t-13 30.5q0 16 8 25l63 82
q-133 146 -133 371zM256 496q0 -143 70 -248l448 567q-78 61 -188 62q-152 0 -241 -111.5t-89 -269.5zM385 182q86 -70 201 -69q152 0 239.5 111.5t87.5 271.5q0 150 -77 256z" />
    <glyph glyph-name="ugrave" unicode="&#xf9;" horiz-adv-x="1128" 
d="M154 291v637q0 29 23.5 51t55.5 22q29 0 51.5 -22.5t22.5 -50.5v-590q0 -123 56.5 -174t164.5 -51q86 0 167 43t126 106v666q0 29 23.5 51t56.5 22q29 0 51.5 -22.5t22.5 -50.5v-865q0 -31 -22.5 -53t-55.5 -22q-31 0 -53.5 22.5t-22.5 52.5v76q-61 -70 -154.5 -117
t-197.5 -47q-315 1 -315 316zM291 1393q0 20 16.5 35.5t36.5 15.5q23 0 37 -14l242 -234q10 -14 10 -27q0 -16 -11.5 -29.5t-29.5 -13.5q-12 0 -27 11l-258 221q-16 12 -16 35z" />
    <glyph glyph-name="uacute" unicode="&#xfa;" horiz-adv-x="1128" 
d="M154 291v637q0 29 23.5 51t55.5 22q29 0 51.5 -22.5t22.5 -50.5v-590q0 -123 56.5 -174t164.5 -51q86 0 167 43t126 106v666q0 29 23.5 51t56.5 22q29 0 51.5 -22.5t22.5 -50.5v-865q0 -31 -22.5 -53t-55.5 -22q-31 0 -53.5 22.5t-22.5 52.5v76q-61 -70 -154.5 -117
t-197.5 -47q-315 1 -315 316zM494 1169q0 16 10 27l241 234q14 14 37 14q18 0 36 -15.5t18 -35.5q0 -23 -17 -35l-258 -221q-14 -10 -24 -11q-16 0 -29.5 12.5t-13.5 30.5z" />
    <glyph glyph-name="ucircumflex" unicode="&#xfb;" horiz-adv-x="1128" 
d="M154 291v637q0 29 23.5 51t55.5 22q29 0 51.5 -22.5t22.5 -50.5v-590q0 -123 56.5 -174t164.5 -51q86 0 167 43t126 106v666q0 29 23.5 51t56.5 22q29 0 51.5 -22.5t22.5 -50.5v-865q0 -31 -22.5 -53t-55.5 -22q-31 0 -53.5 22.5t-22.5 52.5v76q-61 -70 -154.5 -117
t-197.5 -47q-315 1 -315 316zM319 1167q0 6 9 23l133 203q33 53 102 53q61 0 99 -53l139 -203q6 -10 6 -23q0 -16 -12.5 -29.5t-33 -13.5t-32.5 17l-168 215l-162 -213q-12 -16 -34 -17q-18 0 -32 11.5t-14 29.5z" />
    <glyph glyph-name="udieresis" unicode="&#xfc;" horiz-adv-x="1128" 
d="M154 291v637q0 29 23.5 51t55.5 22q29 0 51.5 -22.5t22.5 -50.5v-590q0 -123 56.5 -174t164.5 -51q86 0 167 43t126 106v666q0 29 23.5 51t56.5 22q29 0 51.5 -22.5t22.5 -50.5v-865q0 -31 -22.5 -53t-55.5 -22q-31 0 -53.5 22.5t-22.5 52.5v76q-61 -70 -154.5 -117
t-197.5 -47q-315 1 -315 316zM260 1237q0 39 28.5 66.5t67.5 27.5t67 -27.5t28 -66.5t-28 -67.5t-67 -28.5q-41 0 -68.5 27.5t-27.5 68.5zM682 1237q0 39 28.5 66.5t67.5 27.5t67.5 -27.5t28.5 -66.5t-28.5 -67.5t-67.5 -28.5t-67.5 28.5t-28.5 67.5z" />
    <glyph glyph-name="yacute" unicode="&#xfd;" horiz-adv-x="1003" 
d="M37 926q0 31 22.5 53t55.5 22q53 0 71 -47l316 -776l313 776q20 47 72 47q33 0 56.5 -22.5t23.5 -52.5q0 -14 -6 -27l-459 -1100q-84 -201 -291 -200q-121 0 -121 69q0 31 20.5 50.5t47.5 19.5q10 0 26.5 -1t24.5 -1q96 -4 145 104l66 150l-377 909q-6 13 -6 27z
M432 1169q0 16 10 27l242 234q14 14 37 14q18 0 35.5 -15.5t17.5 -35.5q0 -23 -16 -35l-258 -221q-14 -10 -25 -11q-16 0 -29.5 12.5t-13.5 30.5z" />
    <glyph glyph-name="thorn" unicode="&#xfe;" 
d="M154 -303v1595q0 29 23.5 51.5t55.5 22.5q29 0 51.5 -22.5t22.5 -51.5v-450q55 78 143.5 125t190.5 47q197 0 318.5 -140.5t121.5 -378t-121.5 -379t-318.5 -141.5q-209 0 -334 175v-453q0 -29 -22.5 -51.5t-55.5 -22.5q-31 0 -53 22.5t-22 51.5zM307 272
q41 -68 124 -113.5t171 -45.5q145 0 231.5 107.5t86.5 275.5t-86 274.5t-232 106.5q-88 0 -171 -46.5t-124 -111.5v-447z" />
    <glyph glyph-name="ydieresis" unicode="&#xff;" horiz-adv-x="1003" 
d="M37 926q0 31 22.5 53t55.5 22q53 0 71 -47l316 -776l313 776q20 47 72 47q33 0 56.5 -22.5t23.5 -52.5q0 -14 -6 -27l-459 -1100q-84 -201 -291 -200q-121 0 -121 69q0 31 20.5 50.5t47.5 19.5q10 0 26.5 -1t24.5 -1q96 -4 145 104l66 150l-377 909q-6 13 -6 27z
M195 1237q0 39 28.5 66.5t67.5 27.5t66.5 -27.5t27.5 -66.5t-27.5 -67.5t-66.5 -28.5q-41 0 -68.5 27.5t-27.5 68.5zM616 1237q0 39 29 66.5t68 27.5t67.5 -27.5t28.5 -66.5t-28.5 -67.5t-67.5 -28.5t-68 28.5t-29 67.5z" />
    <glyph glyph-name="OE" unicode="&#x152;" horiz-adv-x="2263" 
d="M104 682q0 305 184.5 504.5t479.5 199.5q150 0 282 -69.5t205 -198.5q-23 248 123 248h713q31 0 52.5 -22.5t21.5 -55.5q0 -31 -21.5 -52.5t-52.5 -21.5h-666v-440h652q31 0 52 -22.5t21 -55.5q0 -31 -21.5 -52t-51.5 -21h-652v-471h666q31 0 52.5 -21.5t21.5 -52.5
q0 -33 -21.5 -55.5t-52.5 -22.5h-713q-145 0 -123 246q-74 -129 -205.5 -200t-281.5 -71q-295 0 -479.5 201t-184.5 506zM281 682q0 -244 138 -399.5t367 -155.5q162 0 286 85t183 245v450q-59 160 -183 244t-286 84q-229 0 -367 -154.5t-138 -398.5z" />
    <glyph glyph-name="oe" unicode="&#x153;" horiz-adv-x="1970" 
d="M96 495.5q0 221.5 134.5 370t355.5 148.5q86 0 159.5 -29t121.5 -75t78 -89t50 -90q45 106 146.5 194.5t259.5 88.5q178 0 298 -102.5t161 -280.5q12 -66 12 -103q0 -35 -24.5 -59.5t-59.5 -24.5h-711q10 -145 105.5 -243.5t249.5 -98.5q152 0 268 93q16 10 35 10
q23 0 42 -18.5t19 -45.5q0 -33 -22 -49q-147 -117 -355 -117q-170 0 -272.5 85t-153.5 198q-127 -283 -407 -283q-221 0 -355.5 149.5t-134.5 371zM256 495.5q0 -161.5 90 -273t239.5 -111.5t238.5 110.5t89 274.5q0 162 -89 271.5t-238.5 109.5t-239.5 -110t-90 -271.5z
M1075 557h651q-4 127 -88 228.5t-239 101.5q-147 0 -232.5 -100.5t-91.5 -229.5z" />
    <glyph glyph-name="Ydieresis" unicode="&#x178;" horiz-adv-x="1282" 
d="M82 1296q0 31 22.5 56.5t59.5 25.5q45 0 69 -35l408 -612l408 612q23 33 65 33q35 0 59.5 -23.5t24.5 -56.5q0 -25 -12 -43l-459 -675v-506q0 -35 -24.5 -59.5t-61.5 -24.5q-35 0 -59.5 24.5t-24.5 59.5v506l-461 675q-14 20 -14 43zM338 1579q0 39 28.5 66.5t67.5 27.5
t66.5 -27.5t27.5 -66.5t-27.5 -67.5t-66.5 -28.5q-41 0 -68.5 28.5t-27.5 67.5zM760 1579q0 39 28.5 66.5t67.5 27.5t67.5 -27.5t28.5 -66.5t-28.5 -67.5t-67.5 -28.5t-67.5 28.5t-28.5 67.5z" />
    <glyph glyph-name="circumflex" unicode="&#x2c6;" horiz-adv-x="542" 
d="M27 1167q0 6 8 23l133 203q33 53 102 53q61 0 99 -53l139 -203q6 -10 6 -23q0 -16 -12.5 -29.5t-32.5 -13.5t-33 17l-168 215l-162 -213q-12 -16 -34 -17q-18 0 -31.5 11.5t-13.5 29.5z" />
    <glyph glyph-name="tilde" unicode="&#x2dc;" horiz-adv-x="641" 
d="M2 1186q0 102 57.5 168.5t139.5 66.5q49 0 87 -29.5t57 -64.5t47 -64.5t61 -29.5q82 0 96 131q4 45 51 45q41 0 41 -43q-10 -106 -60.5 -168.5t-136.5 -62.5q-51 0 -89 29.5t-56 64.5t-46 64.5t-61 29.5q-82 0 -96 -131q-4 -45 -51 -45q-18 0 -29.5 11.5t-11.5 27.5z" />
    <glyph glyph-name="uni2000" unicode="&#x2000;" horiz-adv-x="907" 
 />
    <glyph glyph-name="uni2001" unicode="&#x2001;" horiz-adv-x="1816" 
 />
    <glyph glyph-name="uni2002" unicode="&#x2002;" horiz-adv-x="907" 
 />
    <glyph glyph-name="uni2003" unicode="&#x2003;" horiz-adv-x="1816" 
 />
    <glyph glyph-name="uni2004" unicode="&#x2004;" horiz-adv-x="604" 
 />
    <glyph glyph-name="uni2005" unicode="&#x2005;" horiz-adv-x="452" 
 />
    <glyph glyph-name="uni2006" unicode="&#x2006;" horiz-adv-x="301" 
 />
    <glyph glyph-name="uni2007" unicode="&#x2007;" horiz-adv-x="301" 
 />
    <glyph glyph-name="uni2008" unicode="&#x2008;" horiz-adv-x="225" 
 />
    <glyph glyph-name="uni2009" unicode="&#x2009;" horiz-adv-x="362" 
 />
    <glyph glyph-name="uni200A" unicode="&#x200a;" horiz-adv-x="100" 
 />
    <glyph glyph-name="uni2010" unicode="&#x2010;" horiz-adv-x="614" 
d="M49 498q0 27 18.5 46t47.5 19h385q29 0 47 -19.5t18 -45.5q0 -31 -18.5 -50.5t-46.5 -19.5h-385q-29 0 -47.5 19.5t-18.5 50.5z" />
    <glyph glyph-name="uni2011" unicode="&#x2011;" horiz-adv-x="614" 
d="M49 498q0 27 18.5 46t47.5 19h385q29 0 47 -19.5t18 -45.5q0 -31 -18.5 -50.5t-46.5 -19.5h-385q-29 0 -47.5 19.5t-18.5 50.5z" />
    <glyph glyph-name="figuredash" unicode="&#x2012;" horiz-adv-x="614" 
d="M49 498q0 27 18.5 46t47.5 19h385q29 0 47 -19.5t18 -45.5q0 -31 -18.5 -50.5t-46.5 -19.5h-385q-29 0 -47.5 19.5t-18.5 50.5z" />
    <glyph glyph-name="endash" unicode="&#x2013;" horiz-adv-x="1214" 
d="M49 498q0 27 18.5 46t47.5 19h985q27 0 46 -19.5t19 -45.5q0 -31 -18.5 -50.5t-46.5 -19.5h-985q-29 0 -47.5 19.5t-18.5 50.5z" />
    <glyph glyph-name="emdash" unicode="&#x2014;" horiz-adv-x="1705" 
d="M49 498q0 27 18.5 46t47.5 19h1476q27 0 46.5 -19.5t19.5 -45.5q0 -31 -18.5 -50.5t-47.5 -19.5h-1476q-29 0 -47.5 19.5t-18.5 50.5z" />
    <glyph glyph-name="quoteleft" unicode="&#x2018;" horiz-adv-x="471" 
d="M96 1079q0 80 41 160t105 133q14 10 26 10q18 0 34.5 -14t16.5 -34.5t-16 -37.5q-88 -80 -96 -161q8 4 29 4q43 0 70.5 -30t27.5 -75t-32 -77.5t-77 -32.5q-53 0 -91 41.5t-38 113.5z" />
    <glyph glyph-name="quoteright" unicode="&#x2019;" horiz-adv-x="471" 
d="M123 1276q0 45 31.5 77.5t76.5 32.5q53 0 91 -41.5t38 -113.5q0 -80 -40.5 -160t-104.5 -133q-14 -10 -27 -10q-18 0 -34.5 13t-16.5 34q0 23 17 39q88 80 96 162q-8 -4 -29 -5q-43 0 -70.5 30t-27.5 75z" />
    <glyph glyph-name="quotesinglbase" unicode="&#x201a;" horiz-adv-x="471" 
d="M123 94q0 45 31.5 78t76.5 33q53 0 91 -42t38 -114q0 -80 -40.5 -159.5t-104.5 -133.5q-14 -10 -27 -10q-18 0 -34.5 13.5t-16.5 33.5q0 23 17 39q88 80 96 162q-8 -4 -29 -4q-43 0 -70.5 29.5t-27.5 74.5z" />
    <glyph glyph-name="quotedblleft" unicode="&#x201c;" horiz-adv-x="798" 
d="M109 1079q0 80 40.5 160t104.5 133q14 10 27 10q18 0 34.5 -14t16.5 -34.5t-17 -37.5q-88 -80 -96 -161q8 4 29 4q43 0 70.5 -30t27.5 -75t-31.5 -77.5t-76.5 -32.5q-53 0 -91 41.5t-38 113.5zM436 1079q0 80 41 160t105 133q14 10 26 10q18 0 34.5 -14t16.5 -34.5
t-16 -37.5q-88 -80 -96 -161q8 4 28 4q43 0 71 -30t28 -75t-32 -77.5t-77 -32.5q-53 0 -91 41.5t-38 113.5z" />
    <glyph glyph-name="quotedblright" unicode="&#x201d;" horiz-adv-x="798" 
d="M123 1276q0 45 31.5 77.5t76.5 32.5q53 0 91 -41.5t38 -113.5q0 -80 -40.5 -160t-104.5 -133q-14 -10 -27 -10q-18 0 -34.5 13t-16.5 34q0 23 17 39q88 80 96 162q-8 -4 -29 -5q-43 0 -70.5 30t-27.5 75zM451 1276q0 45 31.5 77.5t76.5 32.5q53 0 91 -41.5t38 -113.5
q0 -80 -41 -160t-104 -133q-14 -10 -27 -10q-18 0 -34.5 13t-16.5 34q0 23 16 39q88 80 97 162q-8 -4 -29 -5q-43 0 -70.5 30t-27.5 75z" />
    <glyph glyph-name="quotedblbase" unicode="&#x201e;" horiz-adv-x="798" 
d="M123 94q0 45 31.5 78t76.5 33q53 0 91 -42t38 -114q0 -80 -40.5 -159.5t-104.5 -133.5q-14 -10 -27 -10q-18 0 -34.5 13.5t-16.5 33.5q0 23 17 39q88 80 96 162q-8 -4 -29 -4q-43 0 -70.5 29.5t-27.5 74.5zM451 94q0 45 31.5 78t76.5 33q53 0 91 -42t38 -114
q0 -80 -41 -159.5t-104 -133.5q-14 -10 -27 -10q-18 0 -34.5 13.5t-16.5 33.5q0 23 16 39q88 80 97 162q-8 -4 -29 -4q-43 0 -70.5 29.5t-27.5 74.5z" />
    <glyph glyph-name="bullet" unicode="&#x2022;" horiz-adv-x="733" 
d="M147 496q0 90 66 155.5t156 65.5t155.5 -65.5t65.5 -155.5t-65.5 -155t-155.5 -65t-156 65t-66 155z" />
    <glyph glyph-name="ellipsis" unicode="&#x2026;" horiz-adv-x="1413" 
d="M123 92q0 47 32.5 80t78 33t79 -33t33.5 -80q0 -45 -33.5 -78.5t-79 -33.5t-78 33.5t-32.5 78.5zM594 92q0 47 32.5 80t78.5 33q47 0 80.5 -34t33.5 -79t-34.5 -78.5t-80 -33.5t-78 33.5t-32.5 78.5zM1065 92q0 47 32.5 80t80 33t80 -33t32.5 -80q0 -45 -33.5 -78.5
t-78.5 -33.5t-79 33.5t-34 78.5z" />
    <glyph glyph-name="uni202F" unicode="&#x202f;" horiz-adv-x="362" 
 />
    <glyph glyph-name="guilsinglleft" unicode="&#x2039;" horiz-adv-x="604" 
d="M109 496q0 53 34 92l242 266q16 18 41 18q20 0 39.5 -16t19.5 -38.5t-14 -37.5l-256 -282l256 -289q14 -18 14 -35q0 -23 -17 -41t-42 -18t-41 18l-242 273q-34 39 -34 90z" />
    <glyph glyph-name="guilsinglright" unicode="&#x203a;" horiz-adv-x="604" 
d="M119 172q0 23 14 37l256 289l-256 282q-14 14 -14 35t16.5 39t41 18t42.5 -18l242 -266q35 -41 35 -92q0 -49 -35 -90l-242 -273q-14 -18 -41 -18q-23 0 -41 16t-18 41z" />
    <glyph glyph-name="uni205F" unicode="&#x205f;" horiz-adv-x="452" 
 />
    <glyph glyph-name="Euro" unicode="&#x20ac;" horiz-adv-x="1423" 
d="M51 541q0 20 15.5 35.5t35.5 15.5h50q-4 57 -4.5 90t4.5 94h-50q-23 0 -37 15.5t-14 39.5q0 20 15.5 36t35.5 16h70q61 229 246.5 367.5t431.5 138.5q276 0 457 -195q23 -27 22.5 -59.5t-24 -57t-56.5 -24.5q-37 0 -57 26q-59 72 -152.5 115t-189.5 43q-174 0 -307 -96.5
t-189 -257.5h582q23 0 37 -15.5t14 -40.5q0 -20 -14.5 -35.5t-36.5 -15.5h-606q-6 -47 -6 -94t6 -90h606q23 0 37 -15.5t14 -39.5q0 -20 -14.5 -36t-36.5 -16h-582q53 -164 187.5 -261t308.5 -97q209 0 342 156q23 27 57 26q33 0 56.5 -24.5t23.5 -59.5q0 -31 -22 -57
q-186 -193 -457 -193q-248 0 -433.5 138.5t-244.5 371.5h-70q-23 0 -37 15.5t-14 40.5z" />
    <glyph glyph-name="trademark" unicode="&#x2122;" horiz-adv-x="929" 
d="M23 1341q0 10 7 17.5t17 7.5h287q10 0 17 -7t7 -18q0 -29 -24 -28h-115v-383q0 -27 -31 -27q-27 0 -26 27v383h-115q-24 -1 -24 28zM420 930v395q0 18 14.5 33.5t36.5 15.5q33 0 45 -28l123 -308l123 308q10 29 43 28q23 0 38 -14t15 -35v-395q0 -27 -31 -27
q-27 0 -26 27v358l-144 -344q-6 -12 -18 -12t-18 14l-144 342v-358q0 -27 -31 -27q-26 0 -26 27z" />
    <glyph glyph-name="uniE000" unicode="&#xe000;" horiz-adv-x="1000" 
d="M0 1000h1000v-1000h-1000v1000z" />
    <glyph glyph-name="uniFB01" unicode="&#xfb01;" horiz-adv-x="1042" 
d="M20 920q0 31 17.5 50t48.5 19h111v76q0 152 77.5 236.5t208.5 84.5q145 0 146 -69q0 -68 -56 -68q-6 0 -28.5 5.5t-38.5 5.5q-76 0 -116 -50.5t-40 -144.5v-76h148q27 0 46 -19.5t19 -45.5q0 -29 -18.5 -49.5t-46.5 -20.5h-148v-791q0 -31 -22.5 -53t-51.5 -22
q-33 0 -56 21.5t-23 53.5v791h-111q-29 0 -47.5 19.5t-18.5 46.5zM707 1233q0 43 30.5 73.5t71.5 30.5q43 0 73.5 -30.5t30.5 -73.5t-30.5 -73t-73.5 -30q-41 0 -71.5 30t-30.5 73zM733 63v865q0 29 23.5 51t56.5 22q29 0 51.5 -22.5t22.5 -50.5v-865q0 -31 -22.5 -53
t-55.5 -22q-31 0 -53.5 22t-22.5 53z" />
    <glyph glyph-name="uniFB02" unicode="&#xfb02;" horiz-adv-x="1042" 
d="M20 920q0 31 17.5 50t48.5 19h111v76q0 152 77.5 236.5t208.5 84.5q145 0 146 -69q0 -68 -56 -68q-6 0 -28.5 5.5t-38.5 5.5q-76 0 -116 -50.5t-40 -144.5v-76h148q27 0 46 -19.5t19 -45.5q0 -29 -18.5 -49.5t-46.5 -20.5h-148v-791q0 -31 -22.5 -53t-51.5 -22
q-33 0 -56 21.5t-23 53.5v791h-111q-29 0 -47.5 19.5t-18.5 46.5zM733 63v1242q0 29 23.5 51t56.5 22q29 0 51.5 -22.5t22.5 -50.5v-1242q0 -31 -22.5 -53t-55.5 -22q-31 0 -53.5 22t-22.5 53z" />
    <glyph glyph-name="uniFB03" unicode="&#xfb03;" horiz-adv-x="1619" 
d="M1286 1233q0 43 30.5 73.5t71.5 30.5q43 0 74 -30.5t31 -73.5t-31 -73t-74 -30q-41 0 -71.5 30t-30.5 73zM1313 63v865q0 29 23.5 51t55.5 22q29 0 51.5 -22.5t22.5 -50.5v-865q0 -31 -22.5 -53t-55.5 -22q-31 0 -53 22t-22 53zM600 924q0 27 18.5 46t47.5 19h111v76
q0 152 76.5 236.5t209.5 84.5q68 0 132.5 -23.5t64.5 -70.5q0 -25 -18.5 -43t-43.5 -18q-14 0 -52 14.5t-60 14.5q-76 0 -116 -50.5t-40 -144.5v-76h148q29 0 47 -19.5t18 -49.5q0 -27 -19.5 -46.5t-45.5 -19.5h-148v-791q0 -31 -22.5 -53t-55.5 -22q-31 0 -53 22.5
t-22 52.5v791h-111q-29 0 -47.5 19.5t-18.5 50.5zM20 924q0 27 18.5 46t47.5 19h111v76q0 152 76.5 236.5t209.5 84.5q68 0 132.5 -23.5t64.5 -70.5q0 -25 -18.5 -43t-43.5 -18q-14 0 -52 14.5t-60 14.5q-76 0 -116 -50.5t-40 -144.5v-76h148q29 0 47 -19.5t18 -49.5
q0 -27 -19.5 -46.5t-45.5 -19.5h-148v-791q0 -31 -22.5 -53t-55.5 -22q-31 0 -53 22.5t-22 52.5v791h-111q-29 0 -47.5 19.5t-18.5 50.5z" />
    <glyph glyph-name="uniFB04" unicode="&#xfb04;" horiz-adv-x="1619" 
d="M1313 63v1242q0 29 23.5 51t55.5 22q29 0 51.5 -22.5t22.5 -50.5v-1242q0 -31 -22.5 -53t-55.5 -22q-31 0 -53 22t-22 53zM600 924q0 27 18.5 46t47.5 19h111v76q0 152 76.5 236.5t209.5 84.5q68 0 132.5 -23.5t64.5 -70.5q0 -25 -18.5 -43t-43.5 -18q-14 0 -52 14.5
t-60 14.5q-76 0 -116 -50.5t-40 -144.5v-76h148q29 0 47 -19.5t18 -49.5q0 -27 -19.5 -46.5t-45.5 -19.5h-148v-791q0 -31 -22.5 -53t-55.5 -22q-31 0 -53 22.5t-22 52.5v791h-111q-29 0 -47.5 19.5t-18.5 50.5zM20 924q0 27 18.5 46t47.5 19h111v76q0 152 76.5 236.5
t209.5 84.5q68 0 132.5 -23.5t64.5 -70.5q0 -25 -18.5 -43t-43.5 -18q-14 0 -52 14.5t-60 14.5q-76 0 -116 -50.5t-40 -144.5v-76h148q29 0 47 -19.5t18 -49.5q0 -27 -19.5 -46.5t-45.5 -19.5h-148v-791q0 -31 -22.5 -53t-55.5 -22q-31 0 -53 22.5t-22 52.5v791h-111
q-29 0 -47.5 19.5t-18.5 50.5z" />
    </font>
</defs>
</svg>
