<?xml version="1.0" standalone="no"?>
<!DOCTYPE svg PUBLIC "-//W3C//DTD SVG 1.1//EN" "http://www.w3.org/Graphics/SVG/1.1/DTD/svg11.dtd" >
<svg xmlns="http://www.w3.org/2000/svg" xmlns:xlink="http://www.w3.org/1999/xlink" version="1.1">
<metadata>
Created by FontForge 20170910 at Mon Apr 23 15:31:52 2012
 By Jimmy Wärting
Copyright (c) 2012 by TypeTogether. All rights reserved.
</metadata>
<defs>
<font id="AdelleSans-SemiBold" horiz-adv-x="570" >
  <font-face 
    font-family="Adelle Sans Sb"
    font-weight="600"
    font-stretch="normal"
    units-per-em="1000"
    panose-1="2 0 5 3 0 0 0 2 0 4"
    ascent="755"
    descent="-245"
    x-height="517"
    cap-height="724"
    bbox="-155 -292 1196 1082"
    underline-thickness="50"
    underline-position="-100"
    stemh="102"
    stemv="115"
    unicode-range="U+0020-FB06"
  />
<missing-glyph horiz-adv-x="500" 
 />
    <glyph glyph-name="ij" unicode="ij" horiz-adv-x="512" 
d="M188 517v-517h-115v517h115zM206 680c0 -49 -27 -76 -75 -76c-47 0 -75 27 -75 76c0 48 28 75 75 75c48 0 75 -27 75 -75zM282 -223c-41 0 -88 11 -107 23l10 88c20 -8 50 -17 78 -17c39 0 67 19 67 80v566h115v-573c0 -118 -63 -167 -163 -167zM464 685
c0 -48 -28 -76 -75 -76c-48 0 -75 28 -75 76c0 49 27 76 75 76c47 0 75 -27 75 -76z" />
    <glyph glyph-name="ff" unicode="ff" horiz-adv-x="663" 
d="M347 747l-5 -83c-21 7 -47 12 -68 12c-45 0 -73 -20 -73 -85v-74h205v74c0 119 64 174 169 174c47 0 85 -10 102 -18l-5 -83c-20 7 -47 13 -71 13c-47 0 -80 -17 -80 -89v-71h141v-85h-141v-432h-115v432h-205v-432h-115v432h-74v85h74v74c0 119 60 174 162 174
c43 0 82 -10 99 -18z" />
    <glyph glyph-name="fi" unicode="fi" horiz-adv-x="591" 
d="M522 517v-517h-115v432h-206v-432h-115v432h-74v85h74v74c0 119 60 174 162 174c38 0 67 -7 87 -14l-4 -86c-19 6 -38 10 -60 10c-42 0 -70 -19 -70 -84v-74h321zM540 684c0 -48 -28 -76 -75 -76s-75 28 -75 76s28 75 75 75s75 -27 75 -75z" />
    <glyph glyph-name="fl" unicode="fl" horiz-adv-x="591" 
d="M347 747l-5 -83c-21 7 -47 12 -68 12c-45 0 -73 -20 -73 -85v-74h133v-85h-133v-432h-115v432h-74v85h74v74c0 119 60 174 162 174c43 0 82 -10 99 -18zM522 755v-755h-115v755h115z" />
    <glyph glyph-name="f_k" unicode="fk" horiz-adv-x="879" 
d="M347 747l-5 -83c-21 7 -47 12 -68 12c-45 0 -73 -20 -73 -85v-74h133v-85h-133v-432h-115v432h-74v85h74v74c0 119 60 174 162 174c43 0 82 -10 99 -18zM522 755v-447l201 209h129l-176 -186l189 -331h-127l-149 255l-67 -67v-188h-115v755h115z" />
    <glyph glyph-name="f_b" unicode="fb" horiz-adv-x="920" 
d="M347 747l-5 -83c-21 7 -47 12 -68 12c-45 0 -73 -20 -73 -85v-74h133v-85h-133v-432h-115v432h-74v85h74v74c0 119 60 174 162 174c43 0 82 -10 99 -18zM504 0h-98v755h113v-288c44 40 97 61 167 61c106 0 189 -68 189 -257c0 -202 -95 -283 -216 -283
c-63 0 -112 25 -146 56l-2 -1zM521 379v-251c21 -16 65 -44 116 -44c84 0 119 67 119 185c0 107 -31 165 -111 165c-48 0 -98 -30 -124 -55z" />
    <glyph glyph-name="f_h" unicode="fh" horiz-adv-x="918" 
d="M347 747l-5 -83c-21 7 -47 12 -68 12c-45 0 -73 -20 -73 -85v-74h133v-85h-133v-432h-115v432h-74v85h74v74c0 119 60 174 162 174c43 0 82 -10 99 -18zM853 352v-352h-115v333c0 65 -24 99 -85 99c-52 0 -106 -32 -131 -55v-377h-115v755h114v-289c45 36 101 62 173 62
c111 0 159 -59 159 -176z" />
    <glyph glyph-name="f_t" unicode="ft" horiz-adv-x="707" 
d="M679 107l18 -83c-25 -17 -82 -36 -137 -36c-101 0 -153 46 -153 156v288h-206v-432h-115v432h-74v85h74v74c0 119 60 174 162 174c43 0 82 -10 99 -18l-5 -83c-21 7 -47 12 -68 12c-45 0 -73 -20 -73 -85v-74h206v151l115 16v-167h140v-85h-140v-271c0 -51 12 -78 69 -78
c30 0 67 12 88 24z" />
    <glyph glyph-name="f_j" unicode="fj" horiz-adv-x="588" 
d="M359 -223c-41 0 -89 11 -107 23l10 89c20 -8 50 -17 78 -17c39 0 67 19 67 80v480h-206v-432h-115v432h-74v85h74v74c0 119 60 174 162 174c38 0 72 -7 91 -15l-4 -86c-19 6 -42 11 -64 11c-42 0 -70 -19 -70 -84v-74h321v-573c0 -118 -63 -167 -163 -167zM541 690
c0 -49 -28 -76 -76 -76c-47 0 -74 27 -74 76c0 48 27 75 74 75c48 0 76 -27 76 -75z" />
    <glyph glyph-name="f_f_j" unicode="ffj" horiz-adv-x="909" 
d="M679 -223c-41 0 -89 11 -107 23l10 89c20 -8 50 -17 78 -17c39 0 67 19 67 80v480h-206v-432h-115v432h-205v-432h-115v432h-74v85h74v74c0 119 60 174 162 174c43 0 82 -10 99 -18l-5 -83c-21 7 -47 12 -68 12c-45 0 -73 -20 -73 -85v-74h205v74c0 119 60 174 162 174
c38 0 72 -7 91 -15l-4 -86c-19 6 -42 11 -64 11c-42 0 -70 -19 -70 -84v-74h321v-573c0 -118 -63 -167 -163 -167zM861 690c0 -49 -28 -76 -76 -76c-47 0 -74 27 -74 76c0 48 27 75 74 75c48 0 76 -27 76 -75z" />
    <glyph glyph-name="ffi" unicode="ffi" horiz-adv-x="912" 
d="M843 517v-517h-115v432h-206v-432h-115v432h-206v-432h-115v432h-74v85h74v74c0 119 60 174 162 174c43 0 82 -10 99 -18l-5 -83c-21 7 -47 12 -68 12c-45 0 -73 -20 -73 -85v-74h206v74c0 119 60 174 162 174c38 0 67 -7 87 -14l-4 -86c-19 6 -38 10 -60 10
c-42 0 -70 -19 -70 -84v-74h321zM861 684c0 -48 -28 -76 -75 -76s-75 28 -75 76s28 75 75 75s75 -27 75 -75z" />
    <glyph glyph-name="ffl" unicode="ffl" horiz-adv-x="912" 
d="M668 747l-5 -83c-21 7 -47 12 -68 12c-45 0 -73 -20 -73 -85v-74h133v-85h-133v-432h-115v432h-206v-432h-115v432h-74v85h74v74c0 119 60 174 162 174c43 0 82 -10 99 -18l-5 -83c-21 7 -47 12 -68 12c-45 0 -73 -20 -73 -85v-74h206v74c0 119 60 174 162 174
c43 0 82 -10 99 -18zM843 755v-755h-115v755h115z" />
    <glyph glyph-name="f_f_k" unicode="ffk" horiz-adv-x="1200" 
d="M668 747l-5 -83c-21 7 -47 12 -68 12c-45 0 -73 -20 -73 -85v-74h133v-85h-133v-432h-115v432h-206v-432h-115v432h-74v85h74v74c0 119 60 174 162 174c43 0 82 -10 99 -18l-5 -83c-21 7 -47 12 -68 12c-45 0 -73 -20 -73 -85v-74h206v74c0 119 60 174 162 174
c43 0 82 -10 99 -18zM843 755v-447l201 209h129l-176 -186l189 -331h-127l-149 255l-67 -67v-188h-115v755h115z" />
    <glyph glyph-name="f_f_b" unicode="ffb" horiz-adv-x="1242" 
d="M825 0h-98v755h113v-288c44 40 97 61 167 61c106 0 189 -68 189 -257c0 -202 -95 -283 -216 -283c-63 0 -112 25 -146 56l-2 -1zM668 747l-5 -83c-21 7 -47 12 -68 12c-45 0 -73 -20 -73 -85v-74h133v-85h-133v-432h-115v432h-206v-432h-115v432h-74v85h74v74
c0 119 60 174 162 174c43 0 82 -10 99 -18l-5 -83c-21 7 -47 12 -68 12c-45 0 -73 -20 -73 -85v-74h206v74c0 119 60 174 162 174c43 0 82 -10 99 -18zM842 379v-251c21 -16 65 -44 116 -44c84 0 119 67 119 185c0 107 -31 165 -111 165c-48 0 -98 -30 -124 -55z" />
    <glyph glyph-name="f_f_h" unicode="ffh" horiz-adv-x="1239" 
d="M668 747l-5 -83c-21 7 -47 12 -68 12c-45 0 -73 -20 -73 -85v-74h133v-85h-133v-432h-115v432h-206v-432h-115v432h-74v85h74v74c0 119 60 174 162 174c43 0 82 -10 99 -18l-5 -83c-21 7 -47 12 -68 12c-45 0 -73 -20 -73 -85v-74h206v74c0 119 60 174 162 174
c43 0 82 -10 99 -18zM1174 352v-352h-115v333c0 65 -24 99 -85 99c-52 0 -106 -32 -131 -55v-377h-115v755h114v-289c45 36 101 62 173 62c111 0 159 -59 159 -176z" />
    <glyph glyph-name="f_f_t" unicode="fft" horiz-adv-x="1027" 
d="M668 747l-5 -83c-21 7 -47 12 -68 12c-45 0 -73 -20 -73 -85v-74h206v151l115 16v-167h140v-85h-140v-271c0 -51 12 -78 69 -78c30 0 67 12 88 24l18 -83c-25 -17 -82 -36 -137 -36c-101 0 -153 46 -153 156v288h-206v-432h-115v432h-206v-432h-115v432h-74v85h74v74
c0 119 60 174 162 174c43 0 82 -10 99 -18l-5 -83c-21 7 -47 12 -68 12c-45 0 -73 -20 -73 -85v-74h206v74c0 119 60 174 162 174c43 0 82 -10 99 -18z" />
    <glyph glyph-name="f_iacute" unicode="f&#xed;" horiz-adv-x="591" 
d="M522 517v-517h-115v432h-206v-432h-115v432h-74v85h74v74c0 119 60 174 162 174c38 0 72 -7 91 -15l-4 -86c-19 6 -42 11 -64 11c-42 0 -70 -19 -70 -84v-74h321zM625 746l-138 -174l-80 10l88 164h130z" />
    <glyph glyph-name="t_t" unicode="tt" horiz-adv-x="713" 
d="M685 107l19 -83c-26 -17 -82 -36 -137 -36c-102 0 -154 49 -154 159v285h-206v-271c0 -51 10 -79 67 -79c25 0 56 10 78 21l20 -83c-27 -16 -77 -32 -126 -32c-102 0 -154 46 -154 156v288h-79v85h79v151l115 16v-167h206v151l115 16v-167h140v-85h-140v-271
c0 -51 13 -78 69 -78c31 0 67 12 88 24z" />
    <glyph glyph-name=".notdef" horiz-adv-x="500" 
 />
    <glyph glyph-name=".null" horiz-adv-x="0" 
 />
    <glyph glyph-name="CR" horiz-adv-x="500" 
 />
    <glyph glyph-name="space" unicode=" " horiz-adv-x="198" 
 />
    <glyph glyph-name="uni00A0" unicode="&#xa0;" horiz-adv-x="198" 
 />
    <glyph glyph-name="quotesingle" unicode="'" horiz-adv-x="218" 
d="M163 465h-108v259h108v-259z" />
    <glyph glyph-name="quotedbl" unicode="&#x22;" horiz-adv-x="392" 
d="M337 465h-108v259h108v-259zM163 465h-108v259h108v-259z" />
    <glyph glyph-name="numbersign" unicode="#" horiz-adv-x="607" 
d="M397 0h-85l22 142h-108l-21 -142h-85l21 142h-109l18 83h104l21 131h-109l17 84h104l19 133h85l-20 -133h106l20 133h85l-20 -133h110l-16 -84h-106l-19 -131h108l-16 -83h-105zM346 225l19 131h-106l-20 -131h107z" />
    <glyph glyph-name="ampersand" unicode="&#x26;" horiz-adv-x="717" 
d="M508 560c0 -60 -29 -127 -154 -181l-28 -11c43 -66 94 -129 155 -195c30 46 40 108 42 176h102c0 -81 -19 -167 -71 -235c26 -19 53 -31 83 -31c13 0 27 3 42 9l16 -86c-23 -11 -52 -16 -76 -16c-56 0 -100 19 -144 51c-42 -32 -106 -53 -190 -53
c-148 0 -237 86 -237 201c0 97 48 157 140 200c-26 46 -37 88 -37 135c0 104 82 176 196 176c76 0 161 -31 161 -140zM305 75c39 0 72 8 99 24c-67 62 -125 137 -177 219c-36 -23 -62 -56 -62 -117c0 -66 44 -126 140 -126zM263 540c0 -35 10 -68 28 -106c1 1 27 12 28 12
c63 28 90 62 90 108c0 36 -22 64 -68 64c-45 0 -78 -27 -78 -78z" />
    <glyph glyph-name="asterisk" unicode="*" horiz-adv-x="473" 
d="M262 755l19 -131l120 30l17 -55l-114 -57l76 -116l-44 -34l-102 96l-101 -99l-44 36l75 116l-116 57l17 55l121 -27l22 129h54z" />
    <glyph glyph-name="comma" unicode="," horiz-adv-x="229" 
d="M12 -122l58 238h124l-90 -248z" />
    <glyph glyph-name="hyphen" unicode="-" horiz-adv-x="315" 
d="M291 242h-271v103h271v-103z" />
    <glyph glyph-name="period" unicode="." horiz-adv-x="244" 
d="M200 63c0 -49 -26 -75 -78 -75s-78 25 -78 75s26 76 78 76c51 0 78 -26 78 -76z" />
    <glyph glyph-name="colon" unicode=":" horiz-adv-x="244" 
d="M200 63c0 -49 -26 -75 -78 -75s-78 25 -78 75s26 76 78 76c51 0 78 -26 78 -76zM200 428c0 -49 -26 -75 -78 -75s-78 25 -78 75s26 76 78 76c51 0 78 -26 78 -76z" />
    <glyph glyph-name="semicolon" unicode=";" horiz-adv-x="256" 
d="M13 -122l58 238h124l-90 -248zM224 428c0 -49 -26 -75 -78 -75s-78 25 -78 75s26 76 78 76c51 0 78 -26 78 -76z" />
    <glyph glyph-name="question" unicode="?" horiz-adv-x="524" 
d="M270 191h-112v180c103 9 205 40 205 151c0 78 -46 107 -109 107c-65 0 -108 -28 -124 -110l-109 18c15 107 89 193 240 193c116 0 223 -49 223 -203c0 -134 -87 -202 -214 -229v-107zM288 58c0 -45 -26 -70 -76 -70s-76 23 -76 70s26 71 76 71s76 -24 76 -71z" />
    <glyph glyph-name="exclam" unicode="!" horiz-adv-x="276" 
d="M184 191h-91l-18 533h126zM214 58c0 -45 -26 -70 -75 -70c-51 0 -76 23 -76 70s25 71 76 71c49 0 75 -24 75 -71z" />
    <glyph glyph-name="exclamdown" unicode="&#xa1;" horiz-adv-x="276" 
d="M98 324h91l18 -533h-126zM68 457c0 45 26 70 75 70c51 0 76 -23 76 -70s-25 -71 -76 -71c-49 0 -75 24 -75 71z" />
    <glyph glyph-name="questiondown" unicode="&#xbf;" horiz-adv-x="502" 
d="M243 324h112v-180c-103 -9 -205 -40 -205 -151c0 -78 46 -107 109 -107c65 0 108 28 124 110l109 -18c-15 -107 -89 -193 -240 -193c-116 0 -223 49 -223 203c0 134 87 202 214 229v107zM225 457c0 45 26 70 76 70s76 -23 76 -70s-26 -71 -76 -71s-76 24 -76 71z" />
    <glyph glyph-name="at" unicode="@" horiz-adv-x="847" 
d="M630 -52l33 -68c-52 -41 -136 -63 -235 -63c-214 0 -384 121 -384 370c0 232 161 390 401 390c207 0 358 -117 358 -327c0 -178 -75 -256 -182 -256c-57 0 -100 24 -116 55c-27 -36 -67 -57 -116 -57c-103 0 -146 80 -146 186c0 125 64 219 169 219c38 0 68 -14 89 -35
l7 29h70v-257c0 -41 4 -71 49 -71c59 0 89 79 89 176c0 168 -92 260 -277 260c-206 0 -306 -145 -306 -308c0 -207 129 -296 305 -296c78 0 144 20 192 53zM496 116v186c-17 15 -40 27 -70 27c-54 0 -96 -42 -96 -142c0 -72 19 -125 78 -125c37 0 67 21 88 54z" />
    <glyph glyph-name="A" unicode="A" horiz-adv-x="696" 
d="M268 724h149l254 -724h-128l-68 198h-263l-66 -198h-119zM448 296l-105 320h-2l-106 -320h213z" />
    <glyph glyph-name="B" unicode="B" horiz-adv-x="631" 
d="M329 0h-242v724h266c171 0 219 -78 219 -177c0 -100 -67 -151 -144 -169v-3c118 -14 171 -78 171 -177c0 -148 -113 -198 -270 -198zM203 94h107c96 0 166 17 166 112c0 90 -66 115 -148 115h-125v-227zM203 416h86c76 0 166 18 166 114c0 86 -52 100 -139 100h-113v-214
z" />
    <glyph glyph-name="C" unicode="C" horiz-adv-x="693" 
d="M370 -12c-233 0 -325 145 -325 364c0 238 127 385 342 385c156 0 265 -79 276 -253l-108 -10c-12 109 -61 162 -169 162c-137 0 -221 -87 -221 -276c0 -196 76 -273 211 -273c108 0 158 52 179 144l104 -20c-25 -164 -161 -223 -289 -223z" />
    <glyph glyph-name="D" unicode="D" horiz-adv-x="726" 
d="M305 0h-218v724h235c251 0 359 -135 359 -351c0 -222 -117 -373 -376 -373zM204 95h100c179 0 257 100 257 267c0 205 -88 267 -248 267h-109v-534z" />
    <glyph glyph-name="E" unicode="E" horiz-adv-x="578" 
d="M204 315v-217h336v-98h-453v724h438v-98h-321v-214h301v-97h-301z" />
    <glyph glyph-name="F" unicode="F" horiz-adv-x="550" 
d="M204 302v-302h-117v724h436v-98h-319v-226h295v-98h-295z" />
    <glyph glyph-name="G" unicode="G" horiz-adv-x="737" 
d="M581 0l-14 94c-28 -63 -117 -106 -214 -106c-217 0 -308 151 -308 364c0 241 125 385 344 385c154 0 262 -70 275 -247l-109 -12c-10 102 -59 160 -169 160c-143 0 -220 -101 -220 -275c0 -205 81 -277 213 -277c116 0 175 76 175 155v47h-169v88h282v-376h-86z" />
    <glyph glyph-name="H" unicode="H" horiz-adv-x="730" 
d="M643 724v-724h-117v316h-322v-316h-117v724h117v-305h322v305h117z" />
    <glyph glyph-name="I" unicode="I" horiz-adv-x="291" 
d="M204 724v-724h-117v724h117z" />
    <glyph glyph-name="J" unicode="J" horiz-adv-x="511" 
d="M315 187v537h117v-534c0 -143 -81 -202 -211 -202c-120 0 -194 51 -200 183l113 18c6 -63 19 -104 90 -104c54 0 91 19 91 102z" />
    <glyph glyph-name="K" unicode="K" horiz-adv-x="655" 
d="M204 724v-338l307 338h127l-276 -307l283 -417h-137l-228 327l-76 -82v-245h-117v724h117z" />
    <glyph glyph-name="L" unicode="L" horiz-adv-x="558" 
d="M204 724v-625h320v-99h-437v724h117z" />
    <glyph glyph-name="M" unicode="M" horiz-adv-x="904" 
d="M817 724v-724h-109v602h-3l-199 -602h-114l-195 604h-2v-604h-108v724h176l189 -582h3l188 582h174z" />
    <glyph glyph-name="N" unicode="N" horiz-adv-x="745" 
d="M658 0h-138l-325 569v-569h-108v724h147l317 -566v566h107v-724z" />
    <glyph glyph-name="O" unicode="O" horiz-adv-x="760" 
d="M375 -12c-230 0 -330 156 -330 372s119 377 345 377s325 -161 325 -362c0 -235 -113 -387 -340 -387zM380 88c126 0 215 82 215 277c0 184 -81 270 -208 270c-130 0 -221 -88 -221 -273c0 -188 85 -274 214 -274z" />
    <glyph glyph-name="P" unicode="P" horiz-adv-x="618" 
d="M203 253v-253h-116v724h252c185 0 241 -105 241 -220c0 -173 -100 -251 -280 -251h-97zM203 350h87c94 0 169 22 169 146c0 99 -56 132 -156 132h-100v-278z" />
    <glyph glyph-name="Q" unicode="Q" horiz-adv-x="760" 
d="M375 -12c-227 0 -330 156 -330 372s119 377 345 377s325 -161 325 -362c0 -120 -29 -214 -91 -283l87 -92l-67 -62l-91 96c-45 -30 -107 -46 -178 -46zM380 83c38 0 76 7 107 25l-124 135l67 63l120 -132c31 49 47 111 47 191c0 184 -83 270 -210 270
c-130 0 -221 -88 -221 -273c0 -188 86 -279 214 -279z" />
    <glyph glyph-name="R" unicode="R" horiz-adv-x="639" 
d="M451 321l173 -321h-127l-156 291h-138v-291h-116v724h262c180 0 236 -98 236 -200c0 -108 -54 -172 -134 -203zM203 385h113c85 0 148 28 148 131c0 86 -56 112 -151 112h-110v-243z" />
    <glyph glyph-name="S" unicode="S" horiz-adv-x="599" 
d="M306 642c-95 0 -134 -40 -134 -98c0 -175 387 -75 387 -337c0 -157 -126 -219 -264 -219c-143 0 -254 51 -270 215l108 16c16 -74 47 -138 164 -138c72 0 145 24 145 110c0 183 -387 65 -387 339c0 131 109 207 252 207c127 0 232 -47 246 -208l-108 -13
c-10 69 -38 126 -139 126z" />
    <glyph glyph-name="T" unicode="T" horiz-adv-x="571" 
d="M345 0h-117v626h-217v98h549v-98h-215v-626z" />
    <glyph glyph-name="U" unicode="U" horiz-adv-x="711" 
d="M357 86c111 0 157 47 157 176v462h117v-474c0 -181 -107 -262 -280 -262c-191 0 -271 88 -271 265v471h117v-459c0 -126 48 -179 160 -179z" />
    <glyph glyph-name="V" unicode="V" horiz-adv-x="637" 
d="M403 0h-158l-240 724h131l190 -611h3l184 611h119z" />
    <glyph glyph-name="W" unicode="W" horiz-adv-x="919" 
d="M752 0h-149l-140 557h-2l-141 -557h-149l-158 724h123l115 -594h2l147 594h127l150 -599h2l109 599h117z" />
    <glyph glyph-name="X" unicode="X" horiz-adv-x="635" 
d="M610 724l-226 -355l243 -369h-134l-183 275l-175 -275h-127l236 366l-224 358h130l168 -270l170 270h122z" />
    <glyph glyph-name="Y" unicode="Y" horiz-adv-x="582" 
d="M355 279l1 -279h-118v277l-248 447h128l180 -336h2l174 336h118z" />
    <glyph glyph-name="Z" unicode="Z" horiz-adv-x="589" 
d="M538 637l-365 -539h380v-98h-522v84l369 542h-359v98h497v-87z" />
    <glyph glyph-name="a" unicode="a" horiz-adv-x="550" 
d="M466 348v-239c0 -28 5 -40 31 -40c9 0 18 2 31 6l4 -68c-20 -10 -53 -17 -81 -17c-54 0 -78 21 -87 61c-35 -38 -92 -63 -164 -63c-130 0 -153 88 -153 139c0 134 114 178 253 178c24 0 39 -1 53 -2v39c0 63 -14 99 -90 99c-63 0 -84 -26 -95 -80l-101 18
c16 97 78 149 205 149c132 0 194 -51 194 -180zM354 122v102c-10 1 -22 2 -48 2c-58 0 -142 -7 -142 -83c0 -36 16 -69 77 -69c47 0 90 24 113 48z" />
    <glyph glyph-name="b" unicode="b" horiz-adv-x="586" 
d="M170 0h-98v755h113v-288c44 40 97 61 167 61c106 0 189 -68 189 -257c0 -202 -95 -283 -216 -283c-63 0 -112 25 -146 56l-2 -1zM187 379v-251c21 -16 65 -44 116 -44c84 0 119 67 119 185c0 107 -31 165 -111 165c-48 0 -98 -30 -124 -55z" />
    <glyph glyph-name="c" unicode="c" horiz-adv-x="541" 
d="M285 -12c-171 0 -242 110 -242 264c0 179 94 276 256 276c114 0 195 -67 204 -189l-106 -15c-8 68 -36 112 -103 112s-131 -34 -131 -171c0 -140 56 -183 128 -183c64 0 102 31 114 103l100 -20c-17 -124 -109 -177 -220 -177z" />
    <glyph glyph-name="d" unicode="d" horiz-adv-x="583" 
d="M514 755v-755h-96l-8 52h-2c-41 -39 -92 -64 -163 -64c-119 0 -200 75 -200 262c0 205 106 278 218 278c59 0 104 -15 139 -45v272h112zM399 134v260c-22 17 -63 40 -112 40c-90 0 -123 -75 -123 -183c0 -112 35 -170 118 -170c44 0 89 24 117 53z" />
    <glyph glyph-name="e" unicode="e" horiz-adv-x="547" 
d="M287 -12c-186 0 -244 128 -244 270c0 187 112 270 247 270c150 0 212 -95 212 -229c0 -21 -1 -45 -3 -69h-335c3 -109 55 -148 130 -148c66 0 94 31 106 84l98 -24c-20 -98 -99 -154 -211 -154zM166 310h217c0 88 -31 127 -100 127c-58 0 -112 -35 -117 -127z" />
    <glyph glyph-name="f" unicode="f" horiz-adv-x="342" 
d="M356 747l-4 -83c-20 7 -47 13 -71 13c-47 0 -80 -17 -80 -89v-71h141v-85h-141v-432h-115v432h-74v85h74v74c0 119 64 174 168 174c47 0 85 -10 102 -18z" />
    <glyph glyph-name="g" unicode="g" horiz-adv-x="555" 
d="M271 528c60 0 110 -11 145 -41c18 42 48 71 86 71c17 0 26 -1 41 -6v-85c-32 2 -63 -2 -90 -10c27 -31 40 -72 40 -114c0 -117 -93 -185 -218 -185c-34 0 -61 2 -88 10c-13 -10 -25 -24 -25 -39c0 -18 9 -31 53 -34l147 -9c108 -7 172 -40 172 -135
c0 -135 -130 -177 -268 -177c-192 0 -240 64 -240 129c0 54 38 88 86 104v3c-38 13 -61 38 -61 78c0 47 35 77 73 106c-46 26 -76 77 -76 143c0 112 84 191 223 191zM385 342c0 65 -42 97 -111 97c-65 0 -114 -28 -114 -95c0 -60 33 -97 113 -97c66 0 112 36 112 95z
M416 -72c0 32 -15 50 -78 53l-159 8c-27 -19 -42 -39 -42 -67c0 -42 43 -61 140 -61c90 0 139 20 139 67z" />
    <glyph glyph-name="h" unicode="h" horiz-adv-x="583" 
d="M517 352v-352h-115v333c0 65 -24 99 -85 99c-52 0 -106 -32 -131 -55v-377h-115v755h114v-289c45 36 101 62 173 62c111 0 159 -59 159 -176z" />
    <glyph glyph-name="i" unicode="i" horiz-adv-x="257" 
d="M188 517v-517h-115v517h115zM206 680c0 -49 -27 -76 -75 -76c-47 0 -75 27 -75 76c0 48 28 75 75 75c48 0 75 -27 75 -75z" />
    <glyph glyph-name="j" unicode="j" horiz-adv-x="255" 
d="M25 -223c-41 0 -88 11 -107 23l10 88c20 -8 50 -17 78 -17c39 0 67 19 67 80v566h115v-573c0 -118 -63 -167 -163 -167zM207 685c0 -48 -28 -76 -75 -76c-48 0 -75 28 -75 76c0 49 27 76 75 76c47 0 75 -27 75 -76z" />
    <glyph glyph-name="j.calt" horiz-adv-x="255" 
d="M45 -223c-20 0 -50 5 -62 10l8 90c14 -3 25 -5 35 -5c34 0 47 20 47 74v571h115v-573c0 -118 -54 -167 -143 -167zM207 685c0 -48 -28 -76 -75 -76c-48 0 -75 28 -75 76c0 49 27 76 75 76c47 0 75 -27 75 -76z" />
    <glyph glyph-name="k" unicode="k" horiz-adv-x="544" 
d="M187 755v-447l201 209h129l-176 -186l189 -331h-126l-149 255l-68 -67v-188h-115v755h115z" />
    <glyph glyph-name="l" unicode="l" horiz-adv-x="257" 
d="M188 755v-755h-115v755h115z" />
    <glyph glyph-name="m" unicode="m" horiz-adv-x="861" 
d="M186 380v-380h-115v517h99l4 -53c47 37 101 64 169 64c66 0 108 -19 130 -67c45 39 103 67 173 67c106 0 150 -59 150 -175v-353h-115v336c0 61 -15 96 -72 96c-41 0 -92 -27 -117 -50c1 -8 1 -18 1 -27v-355h-115v336c0 61 -14 96 -71 96c-43 0 -96 -29 -121 -52z" />
    <glyph glyph-name="n" unicode="n" horiz-adv-x="583" 
d="M517 352v-352h-115v333c0 65 -24 99 -85 99c-52 0 -106 -32 -131 -55v-377h-115v517h102l5 -54c46 37 108 65 179 65c112 0 160 -59 160 -176z" />
    <glyph glyph-name="o" unicode="o" horiz-adv-x="582" 
d="M287 -12c-182 0 -244 114 -244 268c0 166 86 272 257 272s239 -107 239 -260c0 -170 -74 -280 -252 -280zM293 77c79 0 126 52 126 185c0 129 -42 173 -123 173c-82 0 -133 -49 -133 -175s40 -183 130 -183z" />
    <glyph glyph-name="p" unicode="p" horiz-adv-x="585" 
d="M72 -212v729h99l6 -55c46 43 105 66 173 66c109 0 191 -68 191 -257c0 -204 -98 -283 -214 -283c-62 0 -108 21 -144 50v-250h-111zM186 379v-251c20 -16 66 -46 116 -46c87 0 119 73 119 187c0 119 -36 165 -109 165c-49 0 -98 -29 -126 -55z" />
    <glyph glyph-name="q" unicode="q" horiz-adv-x="581" 
d="M514 517v-729h-110v261c-42 -38 -91 -61 -161 -61c-118 0 -198 75 -198 263c0 204 107 277 218 277c59 0 109 -19 144 -53l9 42h98zM399 134v257c-22 18 -65 43 -113 43c-89 0 -122 -73 -122 -181c0 -110 33 -172 118 -172c44 0 89 25 117 53z" />
    <glyph glyph-name="r" unicode="r" horiz-adv-x="376" 
d="M367 527v-115c-65 8 -138 -15 -181 -53v-359h-115v517h97l9 -77c41 58 93 88 169 88c6 0 14 -1 21 -1z" />
    <glyph glyph-name="s" unicode="s" horiz-adv-x="493" 
d="M252 528c120 0 176 -57 196 -147l-100 -26c-12 51 -31 87 -98 87c-63 0 -89 -27 -89 -61c0 -48 44 -62 112 -74c89 -16 184 -37 184 -155c0 -107 -86 -164 -213 -164c-124 0 -195 50 -211 146l98 32c13 -49 34 -92 117 -92c57 0 97 18 97 62c0 52 -42 61 -108 74
c-84 17 -184 35 -184 158c0 108 91 160 199 160z" />
    <glyph glyph-name="t" unicode="t" horiz-adv-x="392" 
d="M364 106l19 -82c-26 -17 -82 -36 -137 -36c-102 0 -154 46 -154 156v288h-79v85h79v151l115 16v-167h140v-85h-140v-272c0 -51 13 -78 69 -78c31 0 67 12 88 24z" />
    <glyph glyph-name="u" unicode="u" horiz-adv-x="580" 
d="M70 164v353h115v-333c0 -65 20 -98 81 -98c51 0 105 31 130 54v377h115v-517h-100l-8 57c-45 -41 -106 -68 -177 -68c-108 0 -156 59 -156 175z" />
    <glyph glyph-name="v" unicode="v" horiz-adv-x="517" 
d="M326 0h-133l-191 517h125l135 -404h2l134 404h117z" />
    <glyph glyph-name="w" unicode="w" horiz-adv-x="781" 
d="M297 0h-137l-158 517h116l113 -398h1l104 398h116l104 -396h1l110 396h112l-158 -517h-132l-97 379h-2z" />
    <glyph glyph-name="x" unicode="x" horiz-adv-x="508" 
d="M488 517l-171 -251l179 -266h-124l-125 185l-119 -185h-114l172 264l-173 253h125l117 -177l121 177h112z" />
    <glyph glyph-name="y" unicode="y" horiz-adv-x="502" 
d="M197 -8l-194 525h124l127 -388h1l127 388h118c-69 -190 -149 -405 -216 -583c-42 -114 -88 -157 -180 -157c-39 0 -83 10 -104 20l11 86c22 -8 56 -16 81 -16c35 0 63 18 84 71z" />
    <glyph glyph-name="z" unicode="z" horiz-adv-x="462" 
d="M426 434l-267 -340h279v-94h-409v82l269 345h-265v90h393v-83z" />
    <glyph glyph-name="bracketleft" unicode="[" horiz-adv-x="290" 
d="M252 -143h-191v867h191v-81h-81v-705h81v-81z" />
    <glyph glyph-name="bracketright" unicode="]" horiz-adv-x="290" 
d="M229 -143h-191v81h81v705h-81v81h191v-867z" />
    <glyph glyph-name="parenleft" unicode="(" horiz-adv-x="335" 
d="M313 -153l-119 1c-72 107 -145 252 -145 432c0 179 74 327 156 444h118c-90 -138 -153 -274 -153 -442c0 -181 66 -310 143 -435z" />
    <glyph glyph-name="parenright" unicode=")" horiz-adv-x="335" 
d="M143 -152l-119 -1c77 125 143 254 143 435c0 168 -63 304 -153 442h118c82 -117 156 -265 156 -444c0 -180 -73 -325 -145 -432z" />
    <glyph glyph-name="braceleft" unicode="{" horiz-adv-x="318" 
d="M286 -64v-81h-62c-100 0 -145 43 -145 122c0 62 14 129 14 196c0 57 -25 81 -70 81h-20v76h19c48 0 71 27 71 80c0 68 -14 150 -14 205c0 83 50 122 144 122h63v-83h-31c-42 0 -55 -18 -55 -51c0 -59 14 -136 14 -200c0 -72 -33 -94 -78 -111c45 -17 78 -40 78 -112
c0 -64 -14 -131 -14 -187c0 -35 13 -57 63 -57h23z" />
    <glyph glyph-name="braceright" unicode="}" horiz-adv-x="318" 
d="M32 656v81h62c100 0 145 -43 145 -122c0 -62 -14 -129 -14 -196c0 -57 25 -81 70 -81h20v-76h-19c-48 0 -71 -27 -71 -80c0 -68 14 -150 14 -205c0 -83 -50 -122 -144 -122h-63v83h31c42 0 55 18 55 51c0 59 -14 136 -14 200c0 72 33 94 78 111c-45 17 -78 40 -78 112
c0 64 14 131 14 187c0 35 -13 57 -63 57h-23z" />
    <glyph glyph-name="backslash" unicode="\" horiz-adv-x="406" 
d="M399 -92h-105l-280 847h104z" />
    <glyph glyph-name="slash" unicode="/" horiz-adv-x="404" 
d="M113 -92h-105l281 847h104z" />
    <glyph glyph-name="brokenbar" unicode="&#xa6;" horiz-adv-x="280" 
d="M192 -143h-104v388h104v-388zM192 414h-104v341h104v-341z" />
    <glyph glyph-name="bar" unicode="|" horiz-adv-x="280" 
d="M192 -143h-104v898h104v-898z" />
    <glyph glyph-name="asciicircum" unicode="^" horiz-adv-x="616" 
d="M566 299h-112l-148 264l-145 -264h-109l197 365h117z" />
    <glyph glyph-name="underscore" unicode="_" horiz-adv-x="500" 
d="M500 -181h-500v86h500v-86z" />
    <glyph glyph-name="asciitilde" unicode="~" horiz-adv-x="550" 
d="M153 432c64 0 193 -45 238 -45c24 0 35 9 35 48l67 -3c10 -82 -27 -132 -91 -132c-65 0 -197 45 -241 45c-22 0 -36 -11 -33 -52l-70 3c-10 86 31 136 95 136z" />
    <glyph glyph-name="zero" unicode="0" horiz-adv-x="571" 
d="M283 -12c-198 0 -246 149 -246 374c0 224 58 375 256 375s241 -152 241 -365c0 -234 -53 -384 -251 -384zM286 80c107 0 127 102 127 286c0 176 -16 275 -123 275s-132 -100 -132 -281c0 -175 20 -280 128 -280z" />
    <glyph glyph-name="one" unicode="1" horiz-adv-x="424" 
d="M312 0h-114v579c-34 -19 -122 -32 -155 -32l-7 93c92 8 157 32 204 84h72v-724z" />
    <glyph glyph-name="two" unicode="2" horiz-adv-x="531" 
d="M271 737c129 0 206 -62 206 -183c0 -107 -55 -180 -157 -296l-138 -158v-2h305v-98h-436v96l163 194c97 115 147 175 147 260c0 65 -37 93 -101 93c-83 0 -107 -47 -118 -116l-102 18c18 136 113 192 231 192z" />
    <glyph glyph-name="three" unicode="3" horiz-adv-x="546" 
d="M31 165l104 20c10 -63 34 -103 118 -103c67 0 123 36 123 127c0 92 -53 124 -138 124h-67v91h46c95 0 149 49 149 125c0 55 -24 95 -101 95c-76 0 -101 -34 -116 -97l-100 21c24 127 118 169 228 169c132 0 203 -67 203 -173c0 -103 -74 -155 -138 -174v-3
c95 -19 152 -74 152 -183c0 -131 -97 -216 -242 -216c-116 0 -206 50 -221 177z" />
    <glyph glyph-name="four" unicode="4" 
d="M465 0h-111v172h-330v83l300 469h142v-457h84v-95h-85v-172zM131 267h224v349z" />
    <glyph glyph-name="five" unicode="5" horiz-adv-x="549" 
d="M68 346l28 378h360v-98h-274l-20 -214c33 27 77 48 141 48c102 0 196 -56 196 -221c0 -152 -99 -251 -251 -251c-107 0 -205 49 -223 177l103 21c10 -57 39 -104 122 -104c67 0 132 44 132 153c0 99 -53 131 -118 131c-47 0 -87 -22 -119 -53z" />
    <glyph glyph-name="six" unicode="6" 
d="M522 577l-102 -29c-16 76 -50 97 -101 97c-112 0 -151 -142 -153 -272c34 35 98 70 170 70c122 0 193 -78 193 -208c0 -163 -98 -247 -235 -247c-193 0 -239 160 -239 353c0 164 51 396 275 396c91 0 167 -38 192 -160zM172 287c4 -98 20 -208 125 -208
c70 0 115 50 115 147c0 84 -33 125 -105 125c-50 0 -102 -31 -135 -64z" />
    <glyph glyph-name="seven" unicode="7" horiz-adv-x="520" 
d="M210 0h-122l288 626h-343v98h464v-87z" />
    <glyph glyph-name="eight" unicode="8" horiz-adv-x="551" 
d="M376 385c86 -40 146 -87 146 -195c0 -113 -96 -202 -252 -202c-168 0 -239 85 -239 187c0 95 53 156 145 197c-79 36 -120 97 -120 172c0 123 97 193 233 193c139 0 217 -65 217 -167c0 -85 -50 -140 -130 -185zM256 326c-63 -32 -111 -70 -111 -141
c0 -61 36 -107 128 -107c91 0 130 53 130 109c0 82 -78 113 -147 139zM291 426c61 33 101 79 101 136c0 56 -34 90 -107 90c-68 0 -112 -36 -112 -93c0 -65 51 -104 118 -133z" />
    <glyph glyph-name="nine" unicode="9" 
d="M40 153l102 30c16 -75 54 -104 117 -104c108 0 148 123 150 265c-34 -35 -100 -66 -172 -66c-122 0 -192 80 -192 214c0 161 99 245 236 245c190 0 237 -160 237 -353c0 -186 -43 -396 -266 -396c-104 0 -190 43 -212 165zM401 433c-5 107 -21 212 -126 212
c-69 0 -114 -48 -114 -147c0 -85 32 -131 104 -131c51 0 101 29 136 66z" />
    <glyph glyph-name="dollar" unicode="$" horiz-adv-x="537" 
d="M384 508c-9 53 -26 90 -72 103v-211c99 -26 187 -65 187 -197c0 -118 -72 -185 -182 -201v-83h-89v83c-97 9 -189 56 -204 197l102 19c13 -76 36 -118 109 -127v216c-92 25 -187 62 -187 200c0 114 83 181 181 199v86h88v-85c94 -10 160 -65 172 -185zM387 188
c0 55 -32 80 -75 97v-190c45 11 75 40 75 93zM161 523c0 -48 22 -78 74 -100v189c-53 -12 -74 -48 -74 -89z" />
    <glyph glyph-name="Euro" unicode="&#x20ac;" horiz-adv-x="625" 
d="M361 -12c-139 0 -235 70 -263 245h-90l16 84h66c-1 11 -1 23 -1 35c0 14 0 27 1 40h-56l16 84h49c32 181 138 261 278 261c128 0 219 -62 228 -225l-102 -11c-11 101 -43 139 -127 139c-98 0 -145 -62 -163 -164h217l-16 -84h-209v-34c0 -14 0 -28 1 -41h198l-16 -84
h-173c19 -100 66 -148 153 -148c83 0 119 41 136 125l97 -19c-21 -155 -137 -203 -240 -203z" />
    <glyph glyph-name="cent" unicode="&#xa2;" horiz-adv-x="524" 
d="M244 705h84v-102c87 -13 154 -72 161 -171l-103 -15c-6 52 -23 82 -58 93v-309c37 10 56 38 66 89l96 -18c-14 -97 -79 -151 -162 -164v-108h-84v108c-123 19 -191 114 -191 242c0 143 77 229 191 251v104zM171 362c0 -83 18 -140 73 -159v304c-42 -15 -73 -55 -73 -145z
" />
    <glyph glyph-name="sterling" unicode="&#xa3;" horiz-adv-x="574" 
d="M20 93h58c51 46 75 90 75 144c0 26 -7 54 -21 81h-101v88h72c-16 30 -42 76 -42 134c0 116 94 197 236 197c128 0 203 -54 221 -188l-103 -16c-10 68 -33 113 -118 113c-72 0 -119 -32 -119 -103c0 -51 26 -100 44 -137h212v-88h-185c10 -25 16 -51 16 -76
c0 -55 -20 -103 -68 -149h143c80 0 104 34 117 109l98 -18c-13 -125 -77 -184 -207 -184h-328v93z" />
    <glyph glyph-name="yen" unicode="&#xa5;" horiz-adv-x="548" 
d="M531 724l-159 -296h95v-84h-131v-83h131v-84h-131v-177h-115v177h-131v84h131v83h-131v84h91l-163 296h125l137 -262h2l132 262h117z" />
    <glyph glyph-name="florin" unicode="&#x192;" horiz-adv-x="552" 
d="M571 621l-94 -34c-12 37 -27 65 -65 65c-40 0 -63 -20 -74 -76l-25 -130h138l-14 -80h-137l-75 -381c-22 -114 -73 -165 -183 -165c-85 0 -136 45 -156 115l94 35c12 -37 28 -64 69 -64c38 0 59 18 70 75l74 385h-86l14 80h87l25 126c22 113 73 165 184 165
c85 0 132 -45 154 -116z" />
    <glyph glyph-name="afii61352" unicode="&#x2116;" horiz-adv-x="1079" 
d="M605 0h-137l-272 565v-565h-108v724h147l264 -562v562h106v-724zM693 258v79h310v-79h-310zM843 378c-123 0 -173 74 -173 176c0 106 58 176 180 176s170 -71 170 -170c0 -110 -55 -182 -177 -182zM846 448c49 0 77 28 77 108c0 76 -26 103 -75 103
c-50 0 -82 -26 -82 -103c0 -78 29 -108 80 -108z" />
    <glyph glyph-name="zero.osf" horiz-adv-x="615" 
d="M304 -12c-198 0 -258 131 -258 299c0 170 77 301 269 301c194 0 254 -126 254 -291c0 -175 -68 -309 -265 -309zM308 82c100 0 140 72 140 209c0 134 -36 202 -136 202c-101 0 -145 -70 -145 -210c0 -131 38 -201 141 -201z" />
    <glyph glyph-name="one.osf" horiz-adv-x="421" 
d="M316 0h-114v431c-33 -20 -121 -32 -154 -32l-7 93c90 7 156 31 203 83h72v-575z" />
    <glyph glyph-name="two.osf" horiz-adv-x="528" 
d="M272 588c123 0 198 -62 198 -170c0 -102 -51 -154 -157 -235l-108 -83v-2h274v-98h-422v91l142 119c113 94 157 132 157 202c0 60 -35 85 -94 85c-83 0 -103 -46 -115 -113l-101 20c22 139 112 184 226 184z" />
    <glyph glyph-name="three.osf" horiz-adv-x="527" 
d="M22 93l103 20c10 -63 35 -103 119 -103c62 0 117 27 117 101s-48 99 -127 99h-72v90h48c88 0 142 45 142 110c0 45 -19 85 -96 85c-76 0 -101 -35 -116 -98l-100 21c24 127 117 170 225 170c129 0 202 -58 202 -162c0 -92 -67 -138 -131 -157v-3c85 -13 142 -62 142 -158
c0 -124 -96 -191 -236 -191c-113 0 -205 49 -220 176z" />
    <glyph glyph-name="four.osf" horiz-adv-x="556" 
d="M452 -67h-111v140h-318v83l288 419h142v-407h84v-95h-85v-140zM131 168h211v302z" />
    <glyph glyph-name="five.osf" horiz-adv-x="540" 
d="M64 231l23 341h360v-100h-273l-18 -175c32 24 78 47 142 47c102 0 188 -63 188 -202c0 -134 -91 -225 -238 -225c-110 0 -207 49 -225 175l103 21c10 -55 38 -101 121 -101c65 0 122 33 122 127c0 78 -45 112 -110 112c-48 0 -86 -20 -119 -54z" />
    <glyph glyph-name="six.osf" horiz-adv-x="564" 
d="M516 495l-100 -27c-16 68 -47 94 -104 94c-107 0 -144 -109 -144 -226c37 38 99 67 169 67c114 0 184 -74 184 -195c0 -145 -96 -220 -232 -220c-186 0 -231 153 -231 326c0 148 50 338 263 338c102 0 171 -45 195 -157zM175 249c0 -64 16 -173 122 -173
c69 0 111 46 111 125c0 75 -32 114 -98 114c-52 0 -109 -34 -135 -66z" />
    <glyph glyph-name="seven.osf" horiz-adv-x="520" 
d="M209 -67h-122l284 539h-332v100h452v-90z" />
    <glyph glyph-name="eight.osf" horiz-adv-x="542" 
d="M367 344c84 -36 143 -79 143 -176c0 -113 -103 -180 -247 -180c-153 0 -233 65 -233 164c0 88 50 139 137 177c-76 33 -115 78 -115 152c0 106 99 171 233 171c132 0 205 -60 205 -150c0 -78 -46 -119 -123 -158zM249 285c-69 -32 -108 -65 -108 -124
c0 -54 44 -85 125 -85c86 0 125 37 125 89c0 65 -73 94 -142 120zM287 381c53 32 96 63 96 114c0 47 -32 74 -104 74c-65 0 -110 -26 -110 -82c0 -55 58 -83 118 -106z" />
    <glyph glyph-name="nine.osf" horiz-adv-x="572" 
d="M54 78l101 25c16 -66 55 -95 113 -95c117 0 142 119 143 224c-37 -41 -100 -63 -169 -63c-114 0 -184 78 -184 199c0 145 96 223 230 223c183 0 232 -153 232 -324c0 -165 -45 -350 -259 -350c-108 0 -188 52 -207 161zM404 323c-2 69 -19 179 -123 179
c-70 0 -110 -46 -110 -124c0 -76 32 -121 97 -121c53 0 108 31 136 66z" />
    <glyph glyph-name="dollar.osf" horiz-adv-x="530" 
d="M371 451c-9 56 -30 85 -70 95v-184c89 -22 180 -56 180 -174c0 -105 -69 -169 -177 -184v-85h-88v85c-93 9 -173 51 -185 178l97 16c13 -66 30 -105 96 -115v192c-96 24 -172 61 -172 176c0 102 74 159 169 175v82h87v-80c88 -10 151 -58 162 -164zM374 173
c0 43 -27 66 -73 82v-170c49 11 73 43 73 88zM157 468c0 -41 22 -65 67 -83v161c-44 -10 -67 -40 -67 -78z" />
    <glyph glyph-name="Euro.osf" horiz-adv-x="623" 
d="M43 412h55c28 147 121 240 274 240c123 0 219 -61 228 -217l-104 -10c-10 92 -40 133 -129 133c-71 0 -133 -37 -154 -146h210l-14 -76h-204v-17c0 -13 0 -26 1 -38h196l-14 -76h-172c20 -82 66 -122 146 -122c81 0 117 38 134 119l101 -19c-21 -147 -135 -195 -239 -195
c-162 0 -236 87 -259 217h-91l14 76h68v55h-61z" />
    <glyph glyph-name="cent.osf" horiz-adv-x="512" 
d="M242 632h84v-102c87 -13 154 -72 161 -171l-103 -15c-6 52 -23 82 -58 93v-309c37 10 56 38 66 89l96 -18c-14 -97 -79 -151 -162 -164v-108h-84v108c-123 19 -191 114 -191 242c0 143 77 229 191 251v104zM169 289c0 -83 18 -140 73 -159v304c-42 -15 -73 -55 -73 -145z
" />
    <glyph glyph-name="sterling.osf" horiz-adv-x="578" 
d="M29 93h57c34 35 55 69 55 120c0 21 -5 41 -12 59h-102v85h71c-13 27 -27 56 -27 103c0 111 91 192 233 192c128 0 201 -51 220 -184l-101 -20c-10 69 -33 114 -121 114c-68 0 -119 -29 -119 -103c0 -39 15 -72 30 -102h215v-85h-190c6 -17 10 -36 10 -55
c0 -51 -16 -87 -51 -124h146c80 0 104 29 116 104l98 -18c-12 -125 -76 -179 -206 -179h-322v93z" />
    <glyph glyph-name="yen.osf" horiz-adv-x="544" 
d="M334 291v-67h131v-77h-131v-147h-115v147h-131v77h131v67h-131v77h93l-165 264h125l137 -230h2l132 230h117l-161 -264h97v-77h-131z" />
    <glyph glyph-name="florin.osf" horiz-adv-x="530" 
d="M558 536l-94 -35c-11 38 -27 66 -65 66c-40 0 -63 -20 -74 -76l-20 -108h137l-14 -80h-137l-52 -269c-22 -114 -72 -165 -185 -165c-83 0 -134 45 -154 115l94 35c12 -37 28 -64 69 -64c38 0 59 18 70 75l52 273h-86l13 80h87l21 103c22 113 74 166 184 166
c85 0 132 -46 154 -116z" />
    <glyph glyph-name="afii61352.osf" horiz-adv-x="1017" 
d="M567 0h-136l-233 462v-462h-110v626h148l223 -464v464h108v-626zM797 276c-124 0 -173 73 -173 175c0 106 58 176 179 176c123 0 170 -70 170 -169c0 -111 -54 -182 -176 -182zM799 352c50 0 78 28 78 101s-26 99 -75 99c-50 0 -82 -26 -82 -99c0 -72 29 -101 79 -101z
M637 160v77h325v-77h-325z" />
    <glyph glyph-name="percent.osf" horiz-adv-x="874" 
d="M184 258c-123 0 -163 82 -163 176c0 112 56 187 171 187s161 -69 161 -174c0 -113 -57 -189 -169 -189zM187 331c56 0 74 42 74 112c0 64 -16 104 -72 104s-75 -46 -75 -107c0 -67 17 -109 73 -109zM665 -12c-123 0 -163 82 -163 176c0 112 56 187 171 187
s161 -69 161 -174c0 -113 -57 -189 -169 -189zM668 61c56 0 74 42 74 112c0 64 -16 104 -72 104s-75 -46 -75 -107c0 -67 17 -109 73 -109zM286 -17h-104l377 640h103z" />
    <glyph glyph-name="perthousand.osf" horiz-adv-x="1098" 
d="M185 295c-108 0 -145 68 -145 158c0 104 53 167 152 167c102 0 145 -61 145 -158c0 -103 -53 -167 -152 -167zM188 364c47 0 63 36 63 96c0 56 -15 90 -61 90c-47 0 -63 -39 -63 -92c0 -58 14 -94 61 -94zM575 -12c-108 0 -145 68 -145 158c0 104 53 167 152 167
c102 0 145 -61 145 -158c0 -103 -53 -167 -152 -167zM578 57c47 0 63 36 63 96c0 56 -15 90 -61 90c-47 0 -63 -39 -63 -92c0 -58 14 -94 61 -94zM906 -12c-108 0 -145 68 -145 158c0 104 53 167 152 167c102 0 145 -61 145 -158c0 -103 -53 -167 -152 -167zM909 57
c47 0 63 35 63 96c0 57 -15 90 -61 90c-47 0 -63 -40 -63 -92c0 -58 14 -94 61 -94zM245 -17h-104l377 640h103z" />
    <glyph glyph-name="zero.slash" 
d="M282 -12c-198 0 -244 149 -244 374c0 224 56 375 254 375s239 -152 239 -365c0 -234 -51 -384 -249 -384zM285 82c107 0 125 104 125 284c0 88 -4 156 -21 203l-142 -482c11 -3 24 -5 38 -5zM159 360c0 -85 4 -154 22 -202l140 477c-10 3 -21 4 -32 4
c-107 0 -130 -98 -130 -279z" />
    <glyph glyph-name="zero.tf" 
d="M283 -12c-198 0 -244 149 -244 374c0 224 56 375 254 375s239 -152 239 -365c0 -234 -51 -384 -249 -384zM286 82c107 0 125 104 125 284c0 175 -14 273 -121 273s-130 -98 -130 -279c0 -171 18 -278 126 -278z" />
    <glyph glyph-name="one.tf" 
d="M113 0v98h142v481c-34 -19 -122 -32 -155 -32l-7 93c92 8 157 32 204 84h72v-626h126v-98h-382z" />
    <glyph glyph-name="two.tf" 
d="M283 737c129 0 206 -62 206 -183c0 -107 -55 -180 -157 -296l-138 -158v-2h305v-98h-436v96l163 194c97 115 147 175 147 260c0 65 -37 93 -101 93c-83 0 -107 -47 -118 -116l-102 18c18 136 113 192 231 192z" />
    <glyph glyph-name="three.tf" 
d="M41 165l104 20c10 -63 34 -103 118 -103c67 0 123 36 123 127c0 92 -53 124 -138 124h-67v91h46c95 0 149 49 149 125c0 55 -24 95 -101 95c-76 0 -101 -34 -116 -97l-100 21c24 127 118 169 228 169c132 0 203 -67 203 -173c0 -103 -74 -155 -138 -174v-3
c95 -19 152 -74 152 -183c0 -131 -97 -216 -242 -216c-116 0 -206 50 -221 177z" />
    <glyph glyph-name="four.tf" 
d="M454 0h-112v172h-318v83l288 469h142v-457h80v-95h-80v-172zM127 267h216v351z" />
    <glyph glyph-name="five.tf" 
d="M81 346l28 378h360v-98h-274l-20 -214c33 27 77 48 141 48c102 0 196 -56 196 -221c0 -152 -99 -251 -251 -251c-107 0 -205 49 -223 177l103 21c10 -57 39 -104 122 -104c67 0 132 44 132 153c0 99 -53 131 -118 131c-47 0 -87 -22 -119 -53z" />
    <glyph glyph-name="six.tf" 
d="M512 577l-102 -29c-16 76 -50 97 -101 97c-112 0 -151 -142 -153 -272c34 35 98 70 170 70c122 0 193 -78 193 -208c0 -163 -98 -247 -235 -247c-193 0 -239 160 -239 353c0 164 51 396 275 396c91 0 167 -38 192 -160zM162 287c4 -98 20 -208 125 -208
c70 0 115 50 115 147c0 84 -33 125 -105 125c-50 0 -102 -31 -135 -64z" />
    <glyph glyph-name="seven.tf" 
d="M233 0h-122l288 626h-343v98h464v-87z" />
    <glyph glyph-name="eight.tf" 
d="M377 385c86 -40 146 -87 146 -195c0 -113 -96 -202 -252 -202c-168 0 -239 85 -239 187c0 95 53 156 145 197c-79 36 -120 97 -120 172c0 123 97 193 233 193c139 0 217 -65 217 -167c0 -85 -50 -140 -130 -185zM257 326c-63 -32 -111 -70 -111 -141
c0 -61 36 -107 128 -107c91 0 130 53 130 109c0 82 -78 113 -147 139zM292 426c61 33 101 79 101 136c0 56 -34 90 -107 90c-68 0 -112 -36 -112 -93c0 -65 51 -104 118 -133z" />
    <glyph glyph-name="nine.tf" 
d="M38 153l102 30c16 -75 54 -104 117 -104c108 0 148 123 150 265c-34 -35 -100 -66 -172 -66c-122 0 -192 80 -192 214c0 161 99 245 236 245c190 0 237 -160 237 -353c0 -186 -43 -396 -266 -396c-104 0 -190 43 -212 165zM399 433c-5 107 -21 212 -126 212
c-69 0 -114 -48 -114 -147c0 -85 32 -131 104 -131c51 0 101 29 136 66z" />
    <glyph glyph-name="dollar.tf" 
d="M400 508c-9 53 -26 90 -72 103v-211c99 -26 187 -65 187 -197c0 -118 -72 -185 -182 -201v-83h-89v83c-97 9 -189 56 -204 197l102 19c13 -76 36 -118 109 -127v216c-92 25 -187 62 -187 200c0 114 83 181 181 199v86h88v-85c94 -10 160 -65 172 -185zM403 188
c0 55 -32 80 -75 97v-190c45 11 75 40 75 93zM177 523c0 -48 22 -78 74 -100v189c-53 -12 -74 -48 -74 -89z" />
    <glyph glyph-name="Euro.tf" 
d="M313 -12c-139 0 -228 70 -254 245h-82l16 84h58v35c0 14 0 27 1 40h-54l16 84h46c31 181 133 261 269 261c128 0 219 -62 228 -225l-102 -11c-11 101 -43 139 -123 139c-101 0 -143 -62 -158 -164h208l-16 -84h-199v-75h189l-16 -84h-165c17 -100 60 -148 145 -148
c83 0 119 41 136 125l97 -19c-21 -155 -137 -203 -240 -203z" />
    <glyph glyph-name="cent.tf" 
d="M256 705h84v-102c87 -13 154 -72 161 -171l-103 -15c-6 52 -23 82 -58 93v-309c37 10 56 38 66 89l96 -18c-14 -97 -79 -151 -162 -164v-108h-84v108c-123 19 -191 114 -191 242c0 143 77 229 191 251v104zM183 362c0 -83 18 -140 73 -159v304c-42 -15 -73 -55 -73 -145z
" />
    <glyph glyph-name="sterling.tf" 
d="M20 93h58c51 46 75 90 75 144c0 26 -7 54 -21 81h-101v88h72c-16 30 -42 76 -42 134c0 116 94 197 236 197c128 0 203 -54 221 -188l-103 -16c-10 68 -33 113 -118 113c-72 0 -119 -32 -119 -103c0 -51 26 -100 44 -137h212v-88h-185c10 -25 16 -51 16 -76
c0 -55 -20 -103 -68 -149h143c80 0 104 34 117 109l98 -18c-13 -125 -77 -184 -207 -184h-328v93z" />
    <glyph glyph-name="yen.tf" 
d="M537 724l-159 -296h95v-84h-131v-83h131v-84h-131v-177h-115v177h-131v84h131v83h-131v84h91l-163 296h125l137 -262h2l132 262h117z" />
    <glyph glyph-name="florin.tf" 
d="M583 621l-94 -34c-12 37 -27 65 -65 65c-40 0 -63 -20 -74 -76l-25 -130h138l-14 -80h-137l-75 -381c-22 -114 -73 -165 -183 -165c-85 0 -136 45 -156 115l94 35c12 -37 28 -64 69 -64c38 0 59 18 70 75l74 385h-86l14 80h87l25 126c22 113 73 165 184 165
c85 0 132 -45 154 -116z" />
    <glyph glyph-name="zeroslash.tosf" 
d="M280 -12c-198 0 -251 135 -251 299c0 170 67 301 263 301c194 0 248 -126 248 -291c0 -175 -62 -309 -260 -309zM150 283c0 -80 13 -137 47 -170l115 374c-7 1 -15 2 -23 2c-99 0 -139 -69 -139 -206zM285 83c98 0 134 74 134 208c0 71 -10 124 -35 157l-112 -365h13z
" />
    <glyph glyph-name="zero.tosf" 
d="M280 -12c-198 0 -251 135 -251 299c0 170 67 301 263 301c194 0 248 -126 248 -291c0 -175 -62 -309 -260 -309zM285 83c98 0 134 74 134 208c0 130 -32 198 -130 198c-99 0 -139 -69 -139 -206c0 -129 35 -200 135 -200z" />
    <glyph glyph-name="one.tosf" 
d="M119 0v98h142v333c-33 -20 -121 -32 -154 -32l-7 93c90 7 156 31 203 83h72v-477h121v-98h-377z" />
    <glyph glyph-name="two.tosf" 
d="M295 588c123 0 198 -62 198 -170c0 -102 -51 -154 -157 -235l-108 -83v-2h274v-98h-422v91l142 119c113 94 157 132 157 202c0 60 -35 85 -94 85c-83 0 -103 -46 -115 -113l-101 20c22 139 112 184 226 184z" />
    <glyph glyph-name="three.tosf" 
d="M50 93l103 20c10 -63 35 -103 119 -103c62 0 117 27 117 101s-48 99 -127 99h-72v90h48c88 0 142 45 142 110c0 45 -19 85 -96 85c-76 0 -101 -35 -116 -98l-100 21c24 127 117 170 225 170c129 0 202 -58 202 -162c0 -92 -67 -138 -131 -157v-3c85 -13 142 -62 142 -158
c0 -124 -96 -191 -236 -191c-113 0 -205 49 -220 176z" />
    <glyph glyph-name="four.tosf" 
d="M461 -67h-112v140h-310v83l280 419h142v-407h80v-95h-80v-140zM142 168h208v303z" />
    <glyph glyph-name="five.tosf" 
d="M96 231l23 341h360v-100h-273l-18 -175c32 24 78 47 142 47c102 0 188 -63 188 -202c0 -134 -91 -225 -238 -225c-110 0 -207 49 -225 175l103 21c10 -55 38 -101 121 -101c65 0 122 33 122 127c0 78 -45 112 -110 112c-48 0 -86 -20 -119 -54z" />
    <glyph glyph-name="six.tosf" 
d="M521 495l-100 -27c-16 68 -47 94 -104 94c-107 0 -144 -109 -144 -226c37 38 99 67 169 67c114 0 184 -74 184 -195c0 -145 -96 -220 -232 -220c-186 0 -231 153 -231 326c0 148 50 338 263 338c102 0 171 -45 195 -157zM180 249c0 -64 16 -173 122 -173
c69 0 111 46 111 125c0 75 -32 114 -98 114c-52 0 -109 -34 -135 -66z" />
    <glyph glyph-name="seven.tosf" 
d="M237 -67h-122l284 539h-332v100h452v-90z" />
    <glyph glyph-name="eight.tosf" 
d="M384 344c84 -36 143 -79 143 -176c0 -113 -103 -180 -247 -180c-153 0 -233 65 -233 164c0 88 50 139 137 177c-76 33 -115 78 -115 152c0 106 99 171 233 171c132 0 205 -60 205 -150c0 -78 -46 -119 -123 -158zM266 285c-69 -32 -108 -65 -108 -124
c0 -54 44 -85 125 -85c86 0 125 37 125 89c0 65 -73 94 -142 120zM304 381c53 32 96 63 96 114c0 47 -32 74 -104 74c-65 0 -110 -26 -110 -82c0 -55 58 -83 118 -106z" />
    <glyph glyph-name="nine.tosf" 
d="M45 78l101 25c16 -66 55 -95 113 -95c117 0 142 119 143 224c-37 -41 -100 -63 -169 -63c-114 0 -184 78 -184 199c0 145 96 223 230 223c183 0 232 -153 232 -324c0 -165 -45 -350 -259 -350c-108 0 -188 52 -207 161zM395 323c-2 69 -19 179 -123 179
c-70 0 -110 -46 -110 -124c0 -76 32 -121 97 -121c53 0 108 31 136 66z" />
    <glyph glyph-name="dollar.tosf" 
d="M391 451c-9 56 -30 85 -70 95v-184c89 -22 180 -56 180 -174c0 -105 -69 -169 -177 -184v-85h-88v85c-93 9 -173 51 -185 178l97 16c13 -66 30 -105 96 -115v192c-96 24 -172 61 -172 176c0 102 74 159 169 175v82h87v-80c88 -10 151 -58 162 -164zM394 173
c0 43 -27 66 -73 82v-170c49 11 73 43 73 88zM177 468c0 -41 22 -65 67 -83v161c-44 -10 -67 -40 -67 -78z" />
    <glyph glyph-name="Euro.tosf" 
d="M4 412h55c27 147 116 240 268 240c119 0 215 -61 224 -217l-104 -10c-10 92 -42 133 -124 133c-73 0 -131 -37 -150 -146h201l-14 -76h-194v-55h190l-15 -76h-166c17 -82 59 -122 138 -122c81 0 117 38 134 119l101 -19c-21 -147 -135 -195 -239 -195
c-162 0 -229 87 -250 217h-88l15 76h65v55h-61z" />
    <glyph glyph-name="cent.tosf" 
d="M264 632h84v-102c87 -13 154 -72 161 -171l-103 -15c-6 52 -23 82 -58 93v-309c37 10 56 38 66 89l96 -18c-14 -97 -79 -151 -162 -164v-108h-84v108c-123 19 -191 114 -191 242c0 143 77 229 191 251v104zM191 289c0 -83 18 -140 73 -159v304c-42 -15 -73 -55 -73 -145z
" />
    <glyph glyph-name="sterling.tosf" 
d="M29 93h57c34 35 55 69 55 120c0 21 -5 41 -12 59h-102v85h71c-13 27 -27 56 -27 103c0 111 91 192 233 192c128 0 201 -51 220 -184l-101 -20c-10 69 -33 114 -121 114c-68 0 -119 -29 -119 -103c0 -39 15 -72 30 -102h215v-85h-190c6 -17 10 -36 10 -55
c0 -51 -16 -87 -51 -124h146c80 0 104 29 116 104l98 -18c-12 -125 -76 -179 -206 -179h-322v93z" />
    <glyph glyph-name="yen.tosf" 
d="M352 291v-67h131v-77h-131v-147h-115v147h-131v77h131v67h-131v77h93l-165 264h125l137 -230h2l132 230h117l-161 -264h97v-77h-131z" />
    <glyph glyph-name="florin.tosf" 
d="M595 536l-94 -35c-11 38 -27 66 -65 66c-40 0 -63 -20 -74 -76l-20 -108h137l-14 -80h-137l-52 -269c-22 -114 -72 -165 -185 -165c-83 0 -134 45 -154 115l94 35c12 -37 28 -64 69 -64c38 0 59 18 70 75l52 273h-86l13 80h87l21 103c22 113 74 166 184 166
c85 0 132 -46 154 -116z" />
    <glyph glyph-name="currency" unicode="&#xa4;" 
d="M560 70l-69 -69l-89 89c-34 -23 -75 -35 -126 -35c-54 0 -97 14 -130 36c-11 -12 -81 -81 -89 -90l-65 68l93 92c-19 35 -28 77 -28 120c0 38 10 78 29 112l-91 90l69 70l87 -87c34 25 79 39 131 39c53 0 97 -12 131 -36l83 83l65 -68l-87 -87c18 -33 27 -71 27 -112
c0 -44 -11 -88 -33 -124zM280 145c79 0 119 60 119 136c0 82 -40 133 -121 133c-79 0 -119 -56 -119 -133c0 -76 36 -136 121 -136z" />
    <glyph glyph-name="section" unicode="&#xa7;" horiz-adv-x="556" 
d="M45 243c0 60 33 109 93 147c-34 28 -60 69 -60 132c0 121 101 187 222 187c117 0 201 -56 211 -182l-106 -14c-6 69 -34 111 -108 111c-69 0 -107 -35 -107 -87c0 -157 329 -67 329 -285c0 -57 -36 -110 -93 -148c34 -28 61 -69 61 -131c0 -121 -100 -187 -223 -187
c-122 0 -202 60 -211 186l103 13c7 -69 37 -110 112 -110c68 0 104 33 104 86c0 155 -327 54 -327 282zM154 266c0 -81 106 -86 198 -120c36 23 54 51 54 86c0 78 -105 81 -197 117c-34 -23 -55 -50 -55 -83z" />
    <glyph glyph-name="copyright" unicode="&#xa9;" horiz-adv-x="784" 
d="M734 332c0 -206 -139 -344 -343 -344c-226 0 -342 143 -342 329c0 215 154 343 344 343c212 0 341 -129 341 -328zM393 52c169 0 272 104 272 274c0 176 -113 270 -272 270c-156 0 -273 -102 -273 -278c0 -166 102 -266 273 -266zM491 270l61 -10
c-14 -104 -96 -129 -155 -129c-129 0 -180 83 -180 195c0 113 64 194 182 194c77 0 144 -37 149 -130l-65 -8c-5 55 -32 80 -86 80c-59 0 -107 -37 -107 -138c0 -73 29 -135 105 -135c61 0 85 30 96 81z" />
    <glyph glyph-name="registered" unicode="&#xae;" horiz-adv-x="457" 
d="M417 477c0 -113 -77 -189 -189 -189c-124 0 -188 78 -188 181c0 118 84 190 189 190c116 0 188 -72 188 -182zM372 474c0 93 -61 142 -143 142c-80 0 -143 -54 -143 -145c0 -88 55 -140 143 -140s143 54 143 143zM269 468l51 -85h-46l-44 73h-22v-73h-42v190h69
c54 0 69 -26 69 -55c0 -27 -15 -41 -35 -50zM208 488h14c22 0 38 5 38 28c0 20 -14 25 -33 25h-19v-53z" />
    <glyph glyph-name="trademark" unicode="&#x2122;" horiz-adv-x="842" 
d="M776 348h-62v256l-100 -256h-53l-97 257v-257h-63v376h80l109 -292l112 292h74v-376zM225 665v-317h-69v317h-124v59h318v-59h-125z" />
    <glyph glyph-name="ordfeminine" unicode="&#xaa;" horiz-adv-x="385" 
d="M326 506v-142c0 -27 11 -30 35 -26l3 -53c-14 -6 -34 -12 -54 -12c-39 0 -63 19 -67 42c-23 -25 -58 -43 -107 -43c-88 0 -103 60 -103 94c0 96 93 112 169 112c12 0 23 0 34 -1v17c0 38 -8 62 -55 62c-38 0 -52 -15 -59 -49l-77 13c10 64 52 103 144 103
s137 -33 137 -117zM237 364v57c-8 1 -19 1 -30 1c-36 0 -80 -9 -80 -46c0 -19 7 -38 43 -38c27 0 53 13 67 26z" />
    <glyph glyph-name="ordmasculine" unicode="&#xba;" horiz-adv-x="406" 
d="M199 272c-122 0 -169 74 -169 175c0 108 59 176 179 176c119 0 166 -70 166 -169c0 -110 -51 -182 -176 -182zM202 346c48 0 77 28 77 104c0 75 -24 100 -73 100c-50 0 -79 -31 -79 -101s21 -103 75 -103z" />
    <glyph glyph-name="guillemotleft" unicode="&#xab;" horiz-adv-x="447" 
d="M233 103h-97l-87 155l89 150h98l-86 -147zM403 103h-97l-87 155l89 150h98l-86 -147z" />
    <glyph glyph-name="guillemotright" unicode="&#xbb;" horiz-adv-x="447" 
d="M42 408h98l88 -154l-87 -151h-98l84 151zM212 408h98l88 -154l-87 -151h-98l84 151z" />
    <glyph glyph-name="guilsinglleft" unicode="&#x2039;" horiz-adv-x="279" 
d="M233 103h-97l-87 155l89 150h98l-86 -147z" />
    <glyph glyph-name="guilsinglright" unicode="&#x203a;" horiz-adv-x="279" 
d="M42 408h98l88 -154l-87 -151h-98l84 151z" />
    <glyph glyph-name="quoteleft" unicode="&#x2018;" horiz-adv-x="215" 
d="M202 774l-53 -224h-117l84 234z" />
    <glyph glyph-name="quoteright" unicode="&#x2019;" horiz-adv-x="215" 
d="M29 546l53 224h117l-84 -234z" />
    <glyph glyph-name="quotesinglbase" unicode="&#x201a;" horiz-adv-x="202" 
d="M5 -133l53 224h117l-84 -234z" />
    <glyph glyph-name="quotedblleft" unicode="&#x201c;" horiz-adv-x="381" 
d="M368 774l-53 -224h-117l84 234zM202 774l-53 -224h-117l84 234z" />
    <glyph glyph-name="quotedblright" unicode="&#x201d;" horiz-adv-x="381" 
d="M195 546l53 224h117l-84 -234zM29 546l53 224h117l-84 -234z" />
    <glyph glyph-name="quotedblbase" unicode="&#x201e;" horiz-adv-x="368" 
d="M5 -133l53 224h117l-84 -234zM171 -133l53 224h117l-84 -234z" />
    <glyph glyph-name="dagger" unicode="&#x2020;" horiz-adv-x="419" 
d="M399 466l-154 13l20 -562h-111l15 561l-149 -12v97l149 -13l-12 174h105l-13 -173l150 12v-97z" />
    <glyph glyph-name="daggerdbl" unicode="&#x2021;" horiz-adv-x="431" 
d="M405 466l-153 11l2 -314l151 12v-97l-149 13l12 -174h-105l13 173l-150 -12v97l150 -11l-1 314l-149 -12v97l149 -13l-12 174h105l-13 -173l150 12v-97z" />
    <glyph glyph-name="bullet" unicode="&#x2022;" horiz-adv-x="419" 
d="M352 280c0 -93 -51 -140 -143 -140c-91 0 -142 47 -142 140s51 139 142 139c92 0 143 -46 143 -139z" />
    <glyph glyph-name="periodcentered" unicode="&#xb7;" horiz-adv-x="212" 
d="M180 306c0 -45 -25 -70 -74 -70s-74 24 -74 70s25 70 74 70c48 0 74 -24 74 -70z" />
    <glyph glyph-name="ellipsis" unicode="&#x2026;" horiz-adv-x="676" 
d="M414 63c0 -49 -26 -75 -78 -75s-78 25 -78 75s26 76 78 76c51 0 78 -26 78 -76zM200 63c0 -49 -26 -75 -78 -75s-78 25 -78 75s26 76 78 76c51 0 78 -26 78 -76zM632 63c0 -49 -26 -75 -78 -75s-78 25 -78 75s26 76 78 76c51 0 78 -26 78 -76z" />
    <glyph glyph-name="paragraph" unicode="&#xb6;" horiz-adv-x="578" 
d="M494 724l1 -857h-89v779h-75v-779h-89v380c-137 10 -212 95 -212 230c0 181 126 247 279 247h185z" />
    <glyph glyph-name="uni00AD" unicode="&#xad;" horiz-adv-x="311" 
d="M291 242h-271v103h271v-103z" />
    <glyph glyph-name="endash" unicode="&#x2013;" horiz-adv-x="500" 
d="M499 238h-499v87h499v-87z" />
    <glyph glyph-name="emdash" unicode="&#x2014;" horiz-adv-x="1000" 
d="M999 238h-999v87h999v-87z" />
    <glyph glyph-name="hyphen.case" horiz-adv-x="315" 
d="M291 304h-271v103h271v-103z" />
    <glyph glyph-name="Agrave" unicode="&#xc0;" horiz-adv-x="696" 
d="M268 724h149l254 -724h-128l-68 198h-263l-66 -198h-119zM448 296l-105 320h-2l-106 -320h213zM338 767l-142 148h131l95 -137z" />
    <glyph glyph-name="Aacute" unicode="&#xc1;" horiz-adv-x="696" 
d="M268 724h149l254 -724h-128l-68 198h-263l-66 -198h-119zM448 296l-105 320h-2l-106 -320h213zM490 915l-142 -148l-84 11l96 137h130z" />
    <glyph glyph-name="Acircumflex" unicode="&#xc2;" horiz-adv-x="696" 
d="M268 724h149l254 -724h-128l-68 198h-263l-66 -198h-119zM448 296l-105 320h-2l-106 -320h213zM423 769l-79 76l-81 -78l-82 9l112 133h103l110 -133z" />
    <glyph glyph-name="Atilde" unicode="&#xc3;" horiz-adv-x="696" 
d="M268 724h149l254 -724h-128l-68 198h-263l-66 -198h-119zM448 296l-105 320h-2l-106 -320h213zM268 915c64 0 105 -45 150 -45c24 0 34 9 34 48l64 -3c10 -82 -26 -129 -87 -129c-65 0 -109 45 -153 45c-22 0 -36 -10 -33 -51l-66 3c-11 86 33 132 91 132z" />
    <glyph glyph-name="Adieresis" unicode="&#xc4;" horiz-adv-x="696" 
d="M268 724h149l254 -724h-128l-68 198h-263l-66 -198h-119zM448 296l-105 320h-2l-106 -320h213zM307 848c0 -44 -30 -70 -73 -70c-44 0 -74 26 -74 70c0 43 30 70 74 70c43 0 73 -27 73 -70zM527 848c0 -44 -30 -70 -73 -70c-45 0 -74 26 -74 70c0 43 29 70 74 70
c43 0 73 -27 73 -70z" />
    <glyph glyph-name="Aring" unicode="&#xc5;" horiz-adv-x="696" 
d="M459 801c0 -39 -14 -68 -39 -87l251 -714h-128l-68 198h-263l-66 -198h-119l238 716c-23 18 -36 45 -36 81c0 75 54 111 115 111c63 0 115 -34 115 -107zM448 296l-105 320h-2l-106 -320h213zM343 749c34 0 52 20 52 54c0 33 -19 50 -51 50c-30 0 -53 -18 -53 -53
c0 -33 20 -51 52 -51z" />
    <glyph glyph-name="Aringacute" unicode="&#x1fa;" horiz-adv-x="696" 
d="M459 801c0 -39 -14 -68 -39 -87l251 -714h-128l-68 198h-263l-66 -198h-119l238 716c-23 18 -36 45 -36 81c0 75 54 111 115 111c63 0 115 -34 115 -107zM448 296l-105 320h-2l-106 -320h213zM480 1082l-142 -148l-84 11l96 137h130zM343 749c34 0 52 20 52 54
c0 33 -19 50 -51 50c-30 0 -53 -18 -53 -53c0 -33 20 -51 52 -51z" />
    <glyph glyph-name="AE" unicode="&#xc6;" horiz-adv-x="1001" 
d="M621 307v-209h335v-98h-453v305h-201l-159 -305h-120l378 724h540v-98h-320v-223h301v-96h-301zM503 400v226h-41l-121 -226h162z" />
    <glyph glyph-name="AEacute" unicode="&#x1fc;" horiz-adv-x="1001" 
d="M621 307v-209h335v-98h-453v305h-201l-159 -305h-120l378 724h540v-98h-320v-223h301v-96h-301zM503 400v226h-41l-121 -226h162zM815 915l-142 -148l-84 11l96 137h130z" />
    <glyph glyph-name="Ccedilla" unicode="&#xc7;" horiz-adv-x="693" 
d="M274 -214l17 59c14 -6 32 -11 52 -11c32 0 50 15 50 41c0 32 -22 42 -70 43l10 72c-206 14 -288 155 -288 362c0 238 127 385 342 385c156 0 265 -79 276 -253l-108 -10c-12 109 -61 162 -169 162c-137 0 -221 -87 -221 -276c0 -196 76 -273 211 -273
c108 0 158 52 179 144l104 -20c-24 -153 -143 -214 -262 -222l-4 -27c42 -8 81 -30 81 -89c0 -66 -51 -105 -118 -105c-34 0 -63 9 -82 18z" />
    <glyph glyph-name="Egrave" unicode="&#xc8;" horiz-adv-x="578" 
d="M204 315v-217h336v-98h-453v724h438v-98h-321v-214h301v-97h-301zM302 767l-142 148h131l95 -137z" />
    <glyph glyph-name="Eacute" unicode="&#xc9;" horiz-adv-x="578" 
d="M204 315v-217h336v-98h-453v724h438v-98h-321v-214h301v-97h-301zM462 915l-142 -148l-84 11l96 137h130z" />
    <glyph glyph-name="Ecircumflex" unicode="&#xca;" horiz-adv-x="578" 
d="M204 315v-217h336v-98h-453v724h438v-98h-321v-214h301v-97h-301zM387 769l-79 76l-81 -78l-82 9l112 133h103l110 -133z" />
    <glyph glyph-name="Edieresis" unicode="&#xcb;" horiz-adv-x="578" 
d="M204 315v-217h336v-98h-453v724h438v-98h-321v-214h301v-97h-301zM271 848c0 -44 -30 -70 -73 -70c-44 0 -74 26 -74 70c0 43 30 70 74 70c43 0 73 -27 73 -70zM491 848c0 -44 -30 -70 -73 -70c-45 0 -74 26 -74 70c0 43 29 70 74 70c43 0 73 -27 73 -70z" />
    <glyph glyph-name="Igrave" unicode="&#xcc;" horiz-adv-x="291" 
d="M204 724v-724h-117v724h117zM140 767l-142 148h131l95 -137z" />
    <glyph glyph-name="Iacute" unicode="&#xcd;" horiz-adv-x="291" 
d="M204 724v-724h-117v724h117zM292 915l-142 -148l-84 11l96 137h130z" />
    <glyph glyph-name="Icircumflex" unicode="&#xce;" horiz-adv-x="291" 
d="M204 724v-724h-117v724h117zM225 769l-79 76l-81 -78l-82 9l112 133h103l110 -133z" />
    <glyph glyph-name="Idieresis" unicode="&#xcf;" horiz-adv-x="291" 
d="M204 724v-724h-117v724h117zM109 848c0 -44 -30 -70 -73 -70c-44 0 -74 26 -74 70c0 43 30 70 74 70c43 0 73 -27 73 -70zM329 848c0 -44 -30 -70 -73 -70c-45 0 -74 26 -74 70c0 43 29 70 74 70c43 0 73 -27 73 -70z" />
    <glyph glyph-name="Eth" unicode="&#xd0;" horiz-adv-x="726" 
d="M305 0h-218v327h-73v91h73v306h235c251 0 359 -135 359 -351c0 -222 -117 -373 -376 -373zM204 95h100c179 0 257 100 257 267c0 205 -88 267 -248 267h-109v-211h196v-91h-196v-232z" />
    <glyph glyph-name="Ntilde" unicode="&#xd1;" horiz-adv-x="745" 
d="M658 0h-138l-325 569v-569h-108v724h147l317 -566v566h107v-724zM306 915c64 0 105 -45 150 -45c24 0 34 9 34 48l64 -3c10 -82 -26 -129 -87 -129c-65 0 -109 45 -153 45c-22 0 -36 -10 -33 -51l-66 3c-11 86 33 132 91 132z" />
    <glyph glyph-name="Ograve" unicode="&#xd2;" horiz-adv-x="760" 
d="M375 -12c-230 0 -330 156 -330 372s119 377 345 377s325 -161 325 -362c0 -235 -113 -387 -340 -387zM380 88c126 0 215 82 215 277c0 184 -81 270 -208 270c-130 0 -221 -88 -221 -273c0 -188 85 -274 214 -274zM392 767l-142 148h131l95 -137z" />
    <glyph glyph-name="Oacute" unicode="&#xd3;" horiz-adv-x="760" 
d="M375 -12c-230 0 -330 156 -330 372s119 377 345 377s325 -161 325 -362c0 -235 -113 -387 -340 -387zM380 88c126 0 215 82 215 277c0 184 -81 270 -208 270c-130 0 -221 -88 -221 -273c0 -188 85 -274 214 -274zM526 915l-142 -148l-84 11l96 137h130z" />
    <glyph glyph-name="Ocircumflex" unicode="&#xd4;" horiz-adv-x="760" 
d="M375 -12c-230 0 -330 156 -330 372s119 377 345 377s325 -161 325 -362c0 -235 -113 -387 -340 -387zM380 88c126 0 215 82 215 277c0 184 -81 270 -208 270c-130 0 -221 -88 -221 -273c0 -188 85 -274 214 -274zM468 769l-79 76l-81 -78l-82 9l112 133h103l110 -133z
" />
    <glyph glyph-name="Otilde" unicode="&#xd5;" horiz-adv-x="760" 
d="M375 -12c-230 0 -330 156 -330 372s119 377 345 377s325 -161 325 -362c0 -235 -113 -387 -340 -387zM380 88c126 0 215 82 215 277c0 184 -81 270 -208 270c-130 0 -221 -88 -221 -273c0 -188 85 -274 214 -274zM313 915c64 0 105 -45 150 -45c24 0 34 9 34 48l64 -3
c10 -82 -26 -129 -87 -129c-65 0 -109 45 -153 45c-22 0 -36 -10 -33 -51l-66 3c-11 86 33 132 91 132z" />
    <glyph glyph-name="Odieresis" unicode="&#xd6;" horiz-adv-x="760" 
d="M375 -12c-230 0 -330 156 -330 372s119 377 345 377s325 -161 325 -362c0 -235 -113 -387 -340 -387zM380 88c126 0 215 82 215 277c0 184 -81 270 -208 270c-130 0 -221 -88 -221 -273c0 -188 85 -274 214 -274zM352 848c0 -44 -30 -70 -73 -70c-44 0 -74 26 -74 70
c0 43 30 70 74 70c43 0 73 -27 73 -70zM572 848c0 -44 -30 -70 -73 -70c-45 0 -74 26 -74 70c0 43 29 70 74 70c43 0 73 -27 73 -70z" />
    <glyph glyph-name="Oslash" unicode="&#xd8;" horiz-adv-x="760" 
d="M375 -12c-33 0 -62 3 -90 9l-28 -69h-113l45 107c-99 62 -144 180 -144 325c0 216 119 377 345 377c31 0 60 -4 87 -10l28 67h112l-44 -106c97 -62 142 -179 142 -313c0 -235 -113 -387 -340 -387zM380 88c126 0 215 82 215 277c0 100 -24 171 -67 215l-202 -486
c17 -4 35 -6 54 -6zM166 362c0 -102 25 -174 68 -218l202 486c-15 3 -32 5 -49 5c-130 0 -221 -88 -221 -273z" />
    <glyph glyph-name="Oslashacute" unicode="&#x1fe;" horiz-adv-x="760" 
d="M375 -12c-33 0 -62 3 -90 9l-28 -69h-113l45 107c-99 62 -144 180 -144 325c0 216 119 377 345 377c31 0 60 -4 87 -10l28 67h112l-44 -106c97 -62 142 -179 142 -313c0 -235 -113 -387 -340 -387zM380 88c126 0 215 82 215 277c0 100 -24 171 -67 215l-202 -486
c17 -4 35 -6 54 -6zM166 362c0 -102 25 -174 68 -218l202 486c-15 3 -32 5 -49 5c-130 0 -221 -88 -221 -273zM526 915l-142 -148l-84 11l96 137h130z" />
    <glyph glyph-name="Ugrave" unicode="&#xd9;" horiz-adv-x="711" 
d="M357 86c111 0 157 47 157 176v462h117v-474c0 -181 -107 -262 -280 -262c-191 0 -271 88 -271 265v471h117v-459c0 -126 48 -179 160 -179zM351 767l-142 148h131l95 -137z" />
    <glyph glyph-name="Uacute" unicode="&#xda;" horiz-adv-x="711" 
d="M357 86c111 0 157 47 157 176v462h117v-474c0 -181 -107 -262 -280 -262c-191 0 -271 88 -271 265v471h117v-459c0 -126 48 -179 160 -179zM513 915l-142 -148l-84 11l96 137h130z" />
    <glyph glyph-name="Ucircumflex" unicode="&#xdb;" horiz-adv-x="711" 
d="M357 86c111 0 157 47 157 176v462h117v-474c0 -181 -107 -262 -280 -262c-191 0 -271 88 -271 265v471h117v-459c0 -126 48 -179 160 -179zM435 769l-79 76l-81 -78l-82 9l112 133h103l110 -133z" />
    <glyph glyph-name="Udieresis" unicode="&#xdc;" horiz-adv-x="711" 
d="M357 86c111 0 157 47 157 176v462h117v-474c0 -181 -107 -262 -280 -262c-191 0 -271 88 -271 265v471h117v-459c0 -126 48 -179 160 -179zM319 848c0 -44 -30 -70 -73 -70c-44 0 -74 26 -74 70c0 43 30 70 74 70c43 0 73 -27 73 -70zM539 848c0 -44 -30 -70 -73 -70
c-45 0 -74 26 -74 70c0 43 29 70 74 70c43 0 73 -27 73 -70z" />
    <glyph glyph-name="Yacute" unicode="&#xdd;" horiz-adv-x="582" 
d="M355 279l1 -279h-118v277l-248 447h128l180 -336h2l174 336h118zM442 915l-142 -148l-84 11l96 137h130z" />
    <glyph glyph-name="Thorn" unicode="&#xde;" horiz-adv-x="618" 
d="M203 141v-141h-116v724h118v-122h134c185 0 241 -105 241 -215c0 -171 -100 -246 -280 -246h-97zM203 238h87c94 0 169 20 169 141c0 94 -56 127 -156 127h-100v-268z" />
    <glyph glyph-name="germandbls" unicode="&#xdf;" horiz-adv-x="660" 
d="M186 0h-115v528c0 177 106 239 250 239c150 0 233 -67 233 -185c0 -96 -58 -145 -114 -167v-4c96 -18 175 -66 175 -204c0 -122 -71 -218 -214 -218c-115 0 -164 59 -184 127l87 37c16 -39 39 -76 94 -76c64 0 99 41 99 132c0 114 -74 147 -164 147h-39v83h16
c96 0 128 60 128 123c0 86 -47 120 -121 120c-81 0 -131 -31 -131 -152v-530z" />
    <glyph glyph-name="agrave" unicode="&#xe0;" horiz-adv-x="550" 
d="M466 348v-239c0 -28 5 -40 31 -40c9 0 18 2 31 6l4 -68c-20 -10 -53 -17 -81 -17c-54 0 -78 21 -87 61c-35 -38 -92 -63 -164 -63c-130 0 -153 88 -153 139c0 134 114 178 253 178c24 0 39 -1 53 -2v39c0 63 -14 99 -90 99c-63 0 -84 -26 -95 -80l-101 18
c16 97 78 149 205 149c132 0 194 -51 194 -180zM354 122v102c-10 1 -22 2 -48 2c-58 0 -142 -7 -142 -83c0 -36 16 -69 77 -69c47 0 90 24 113 48zM281 572l-138 174h130l88 -164z" />
    <glyph glyph-name="aacute" unicode="&#xe1;" horiz-adv-x="550" 
d="M466 348v-239c0 -28 5 -40 31 -40c9 0 18 2 31 6l4 -68c-20 -10 -53 -17 -81 -17c-54 0 -78 21 -87 61c-35 -38 -92 -63 -164 -63c-130 0 -153 88 -153 139c0 134 114 178 253 178c24 0 39 -1 53 -2v39c0 63 -14 99 -90 99c-63 0 -84 -26 -95 -80l-101 18
c16 97 78 149 205 149c132 0 194 -51 194 -180zM354 122v102c-10 1 -22 2 -48 2c-58 0 -142 -7 -142 -83c0 -36 16 -69 77 -69c47 0 90 24 113 48zM399 746l-138 -174l-80 10l88 164h130z" />
    <glyph glyph-name="acircumflex" unicode="&#xe2;" horiz-adv-x="550" 
d="M466 348v-239c0 -28 5 -40 31 -40c9 0 18 2 31 6l4 -68c-20 -10 -53 -17 -81 -17c-54 0 -78 21 -87 61c-35 -38 -92 -63 -164 -63c-130 0 -153 88 -153 139c0 134 114 178 253 178c24 0 39 -1 53 -2v39c0 63 -14 99 -90 99c-63 0 -84 -26 -95 -80l-101 18
c16 97 78 149 205 149c132 0 194 -51 194 -180zM354 122v102c-10 1 -22 2 -48 2c-58 0 -142 -7 -142 -83c0 -36 16 -69 77 -69c47 0 90 24 113 48zM435 582l-81 -5l-83 105l-83 -107l-82 7l109 165h111z" />
    <glyph glyph-name="atilde" unicode="&#xe3;" horiz-adv-x="550" 
d="M466 348v-239c0 -28 5 -40 31 -40c9 0 18 2 31 6l4 -68c-20 -10 -53 -17 -81 -17c-54 0 -78 21 -87 61c-35 -38 -92 -63 -164 -63c-130 0 -153 88 -153 139c0 134 114 178 253 178c24 0 39 -1 53 -2v39c0 63 -14 99 -90 99c-63 0 -84 -26 -95 -80l-101 18
c16 97 78 149 205 149c132 0 194 -51 194 -180zM354 122v102c-10 1 -22 2 -48 2c-58 0 -142 -7 -142 -83c0 -36 16 -69 77 -69c47 0 90 24 113 48zM194 722c64 0 105 -45 150 -45c24 0 34 9 34 49l64 -4c10 -82 -26 -129 -87 -129c-65 0 -109 46 -153 46
c-22 0 -36 -11 -33 -52l-66 3c-10 86 33 132 91 132z" />
    <glyph glyph-name="adieresis" unicode="&#xe4;" horiz-adv-x="550" 
d="M466 348v-239c0 -28 5 -40 31 -40c9 0 18 2 31 6l4 -68c-20 -10 -53 -17 -81 -17c-54 0 -78 21 -87 61c-35 -38 -92 -63 -164 -63c-130 0 -153 88 -153 139c0 134 114 178 253 178c24 0 39 -1 53 -2v39c0 63 -14 99 -90 99c-63 0 -84 -26 -95 -80l-101 18
c16 97 78 149 205 149c132 0 194 -51 194 -180zM354 122v102c-10 1 -22 2 -48 2c-58 0 -142 -7 -142 -83c0 -36 16 -69 77 -69c47 0 90 24 113 48zM235 675c0 -44 -30 -71 -73 -71c-44 0 -74 27 -74 71c0 42 30 70 74 70c43 0 73 -28 73 -70zM455 675c0 -44 -30 -71 -73 -71
c-45 0 -74 27 -74 71c0 42 29 70 74 70c43 0 73 -28 73 -70z" />
    <glyph glyph-name="aring" unicode="&#xe5;" horiz-adv-x="550" 
d="M466 348v-239c0 -28 5 -40 31 -40c9 0 18 2 31 6l4 -68c-20 -10 -53 -17 -81 -17c-54 0 -78 21 -87 61c-35 -38 -92 -63 -164 -63c-130 0 -153 88 -153 139c0 134 114 178 253 178c24 0 39 -1 53 -2v39c0 63 -14 99 -90 99c-63 0 -84 -26 -95 -80l-101 18
c16 97 78 149 205 149c132 0 194 -51 194 -180zM354 122v102c-10 1 -22 2 -48 2c-58 0 -142 -7 -142 -83c0 -36 16 -69 77 -69c47 0 90 24 113 48zM380 674c0 -65 -44 -102 -109 -102s-109 36 -109 98c0 70 51 106 109 106c60 0 109 -33 109 -102zM270 626c30 0 47 18 47 48
s-17 46 -46 46c-28 0 -48 -16 -48 -47s17 -47 47 -47z" />
    <glyph glyph-name="aringacute" unicode="&#x1fb;" horiz-adv-x="550" 
d="M466 348v-239c0 -28 5 -40 31 -40c9 0 18 2 31 6l4 -68c-20 -10 -53 -17 -81 -17c-54 0 -78 21 -87 61c-35 -38 -92 -63 -164 -63c-130 0 -153 88 -153 139c0 134 114 178 253 178c24 0 39 -1 53 -2v39c0 63 -14 99 -90 99c-63 0 -84 -26 -95 -80l-101 18
c16 97 78 149 205 149c132 0 194 -51 194 -180zM354 122v102c-10 1 -22 2 -48 2c-58 0 -142 -7 -142 -83c0 -36 16 -69 77 -69c47 0 90 24 113 48zM380 667c0 -65 -44 -102 -109 -102s-109 36 -109 98c0 70 51 106 109 106c60 0 109 -33 109 -102zM270 619c30 0 47 18 47 48
s-17 46 -46 46c-28 0 -48 -16 -48 -47s17 -47 47 -47zM416 944l-142 -148l-84 11l96 137h130z" />
    <glyph glyph-name="ae" unicode="&#xe6;" horiz-adv-x="851" 
d="M591 -12c-93 0 -151 29 -188 78c-55 -57 -131 -78 -201 -78c-130 0 -155 88 -155 140c0 133 103 174 250 178c16 0 41 -1 56 -2v34c0 64 -15 103 -91 103c-62 0 -88 -26 -97 -80l-98 18c15 100 82 149 198 149c89 0 131 -26 158 -80c41 52 104 80 180 80
c141 0 203 -96 203 -231c0 -18 -1 -49 -3 -68h-335c3 -116 54 -146 130 -146c65 0 94 30 107 83l99 -23c-21 -98 -100 -155 -213 -155zM242 73c47 0 96 21 129 56c-11 30 -16 64 -18 101c-13 0 -31 1 -48 0c-78 -1 -141 -19 -141 -87c0 -37 18 -70 78 -70zM470 309h217
c2 89 -31 129 -100 129c-58 0 -115 -40 -117 -129z" />
    <glyph glyph-name="aeacute" unicode="&#x1fd;" horiz-adv-x="851" 
d="M591 -12c-93 0 -151 29 -188 78c-55 -57 -131 -78 -201 -78c-130 0 -155 88 -155 140c0 133 103 174 250 178c16 0 41 -1 56 -2v34c0 64 -15 103 -91 103c-62 0 -88 -26 -97 -80l-98 18c15 100 82 149 198 149c89 0 131 -26 158 -80c41 52 104 80 180 80
c141 0 203 -96 203 -231c0 -18 -1 -49 -3 -68h-335c3 -116 54 -146 130 -146c65 0 94 30 107 83l99 -23c-21 -98 -100 -155 -213 -155zM242 73c47 0 96 21 129 56c-11 30 -16 64 -18 101c-13 0 -31 1 -48 0c-78 -1 -141 -19 -141 -87c0 -37 18 -70 78 -70zM470 309h217
c2 89 -31 129 -100 129c-58 0 -115 -40 -117 -129zM573 746l-138 -174l-80 10l88 164h130z" />
    <glyph glyph-name="ccedilla" unicode="&#xe7;" horiz-adv-x="541" 
d="M187 -214l17 59c14 -6 32 -11 52 -11c32 0 50 15 50 41c0 32 -22 42 -70 43l10 72c-143 15 -203 120 -203 262c0 179 94 276 256 276c114 0 195 -67 204 -189l-106 -15c-8 68 -36 112 -103 112s-131 -34 -131 -171c0 -140 56 -183 128 -183c64 0 102 31 114 103l100 -20
c-16 -115 -96 -168 -195 -176l-4 -27c42 -8 81 -30 81 -89c0 -66 -51 -105 -118 -105c-34 0 -63 9 -82 18z" />
    <glyph glyph-name="egrave" unicode="&#xe8;" horiz-adv-x="547" 
d="M287 -12c-186 0 -244 128 -244 270c0 187 112 270 247 270c150 0 212 -95 212 -229c0 -21 -1 -45 -3 -69h-335c3 -109 55 -148 130 -148c66 0 94 31 106 84l98 -24c-20 -98 -99 -154 -211 -154zM166 310h217c0 88 -31 127 -100 127c-58 0 -112 -35 -117 -127zM295 572
l-138 174h130l88 -164z" />
    <glyph glyph-name="eacute" unicode="&#xe9;" horiz-adv-x="547" 
d="M287 -12c-186 0 -244 128 -244 270c0 187 112 270 247 270c150 0 212 -95 212 -229c0 -21 -1 -45 -3 -69h-335c3 -109 55 -148 130 -148c66 0 94 31 106 84l98 -24c-20 -98 -99 -154 -211 -154zM166 310h217c0 88 -31 127 -100 127c-58 0 -112 -35 -117 -127zM413 746
l-138 -174l-80 10l88 164h130z" />
    <glyph glyph-name="ecircumflex" unicode="&#xea;" horiz-adv-x="547" 
d="M287 -12c-186 0 -244 128 -244 270c0 187 112 270 247 270c150 0 212 -95 212 -229c0 -21 -1 -45 -3 -69h-335c3 -109 55 -148 130 -148c66 0 94 31 106 84l98 -24c-20 -98 -99 -154 -211 -154zM166 310h217c0 88 -31 127 -100 127c-58 0 -112 -35 -117 -127zM449 582
l-81 -5l-83 105l-83 -107l-82 7l109 165h111z" />
    <glyph glyph-name="edieresis" unicode="&#xeb;" horiz-adv-x="547" 
d="M287 -12c-186 0 -244 128 -244 270c0 187 112 270 247 270c150 0 212 -95 212 -229c0 -21 -1 -45 -3 -69h-335c3 -109 55 -148 130 -148c66 0 94 31 106 84l98 -24c-20 -98 -99 -154 -211 -154zM166 310h217c0 88 -31 127 -100 127c-58 0 -112 -35 -117 -127zM249 675
c0 -44 -30 -71 -73 -71c-44 0 -74 27 -74 71c0 42 30 70 74 70c43 0 73 -28 73 -70zM469 675c0 -44 -30 -71 -73 -71c-45 0 -74 27 -74 71c0 42 29 70 74 70c43 0 73 -28 73 -70z" />
    <glyph glyph-name="igrave" unicode="&#xec;" horiz-adv-x="257" 
d="M188 517v-517h-115v517h115zM130 572l-138 174h130l88 -164z" />
    <glyph glyph-name="iacute" unicode="&#xed;" horiz-adv-x="257" 
d="M188 517v-517h-115v517h115zM273 746l-138 -174l-80 10l88 164h130z" />
    <glyph glyph-name="icircumflex" unicode="&#xee;" horiz-adv-x="257" 
d="M188 517v-517h-115v517h115zM294 582l-81 -5l-83 105l-83 -107l-82 7l109 165h111z" />
    <glyph glyph-name="idieresis" unicode="&#xef;" horiz-adv-x="257" 
d="M188 517v-517h-115v517h115zM94 675c0 -44 -30 -71 -73 -71c-44 0 -74 27 -74 71c0 42 30 70 74 70c43 0 73 -28 73 -70zM314 675c0 -44 -30 -71 -73 -71c-45 0 -74 27 -74 71c0 42 29 70 74 70c43 0 73 -28 73 -70z" />
    <glyph glyph-name="eth" unicode="&#xf0;" horiz-adv-x="581" 
d="M41 245c0 145 75 264 225 264c47 0 93 -12 133 -35l4 3c-15 46 -38 86 -72 119l-91 -51l-44 70l73 41c-35 18 -86 32 -126 38l39 78c69 -10 127 -32 174 -64l98 59l50 -75l-77 -44c78 -87 108 -206 108 -332c0 -172 -57 -328 -255 -328c-163 0 -239 106 -239 257z
M160 249c0 -100 34 -172 125 -172c104 0 136 95 136 230c0 21 -2 43 -4 65c-26 27 -74 48 -126 48c-83 0 -131 -54 -131 -171z" />
    <glyph glyph-name="ntilde" unicode="&#xf1;" horiz-adv-x="583" 
d="M517 352v-352h-115v333c0 65 -24 99 -85 99c-52 0 -106 -32 -131 -55v-377h-115v517h102l5 -54c46 37 108 65 179 65c112 0 160 -59 160 -176zM217 722c64 0 105 -45 150 -45c24 0 34 9 34 49l64 -4c10 -82 -26 -129 -87 -129c-65 0 -109 46 -153 46
c-22 0 -36 -11 -33 -52l-66 3c-10 86 33 132 91 132z" />
    <glyph glyph-name="ograve" unicode="&#xf2;" horiz-adv-x="582" 
d="M287 -12c-182 0 -244 114 -244 268c0 166 86 272 257 272s239 -107 239 -260c0 -170 -74 -280 -252 -280zM293 77c79 0 126 52 126 185c0 129 -42 173 -123 173c-82 0 -133 -49 -133 -175s40 -183 130 -183zM307 572l-138 174h130l88 -164z" />
    <glyph glyph-name="oacute" unicode="&#xf3;" horiz-adv-x="582" 
d="M287 -12c-182 0 -244 114 -244 268c0 166 86 272 257 272s239 -107 239 -260c0 -170 -74 -280 -252 -280zM293 77c79 0 126 52 126 185c0 129 -42 173 -123 173c-82 0 -133 -49 -133 -175s40 -183 130 -183zM425 746l-138 -174l-80 10l88 164h130z" />
    <glyph glyph-name="ocircumflex" unicode="&#xf4;" horiz-adv-x="582" 
d="M287 -12c-182 0 -244 114 -244 268c0 166 86 272 257 272s239 -107 239 -260c0 -170 -74 -280 -252 -280zM293 77c79 0 126 52 126 185c0 129 -42 173 -123 173c-82 0 -133 -49 -133 -175s40 -183 130 -183zM461 582l-81 -5l-83 105l-83 -107l-82 7l109 165h111z" />
    <glyph glyph-name="otilde" unicode="&#xf5;" horiz-adv-x="582" 
d="M287 -12c-182 0 -244 114 -244 268c0 166 86 272 257 272s239 -107 239 -260c0 -170 -74 -280 -252 -280zM293 77c79 0 126 52 126 185c0 129 -42 173 -123 173c-82 0 -133 -49 -133 -175s40 -183 130 -183zM220 722c64 0 105 -45 150 -45c24 0 34 9 34 49l64 -4
c10 -82 -26 -129 -87 -129c-65 0 -109 46 -153 46c-22 0 -36 -11 -33 -52l-66 3c-10 86 33 132 91 132z" />
    <glyph glyph-name="odieresis" unicode="&#xf6;" horiz-adv-x="582" 
d="M287 -12c-182 0 -244 114 -244 268c0 166 86 272 257 272s239 -107 239 -260c0 -170 -74 -280 -252 -280zM293 77c79 0 126 52 126 185c0 129 -42 173 -123 173c-82 0 -133 -49 -133 -175s40 -183 130 -183zM261 675c0 -44 -30 -71 -73 -71c-44 0 -74 27 -74 71
c0 42 30 70 74 70c43 0 73 -28 73 -70zM481 675c0 -44 -30 -71 -73 -71c-45 0 -74 27 -74 71c0 42 29 70 74 70c43 0 73 -28 73 -70z" />
    <glyph glyph-name="oslash" unicode="&#xf8;" horiz-adv-x="582" 
d="M287 -12c-24 0 -45 2 -65 6l-29 -66h-106l45 102c-64 47 -89 128 -89 226c0 166 86 272 257 272c18 0 35 -1 51 -4l27 62h105l-42 -94c68 -43 98 -124 98 -224c0 -170 -74 -280 -252 -280zM293 77c79 0 126 52 126 185c0 57 -8 97 -24 124l-135 -306c10 -2 21 -3 33 -3z
M163 260c0 -49 6 -88 19 -117l129 291c-5 0 -10 1 -15 1c-82 0 -133 -49 -133 -175z" />
    <glyph glyph-name="oslashacute" unicode="&#x1ff;" horiz-adv-x="582" 
d="M287 -12c-24 0 -45 2 -65 6l-29 -66h-106l45 102c-64 47 -89 128 -89 226c0 166 86 272 257 272c18 0 35 -1 51 -4l27 62h105l-42 -94c68 -43 98 -124 98 -224c0 -170 -74 -280 -252 -280zM293 77c79 0 126 52 126 185c0 57 -8 97 -24 124l-135 -306c10 -2 21 -3 33 -3z
M163 260c0 -49 6 -88 19 -117l129 291c-5 0 -10 1 -15 1c-82 0 -133 -49 -133 -175zM425 746l-138 -174l-80 10l88 164h130z" />
    <glyph glyph-name="ugrave" unicode="&#xf9;" horiz-adv-x="580" 
d="M70 164v353h115v-333c0 -65 20 -98 81 -98c51 0 105 31 130 54v377h115v-517h-100l-8 57c-45 -41 -106 -68 -177 -68c-108 0 -156 59 -156 175zM289 572l-138 174h130l88 -164z" />
    <glyph glyph-name="uacute" unicode="&#xfa;" horiz-adv-x="580" 
d="M70 164v353h115v-333c0 -65 20 -98 81 -98c51 0 105 31 130 54v377h115v-517h-100l-8 57c-45 -41 -106 -68 -177 -68c-108 0 -156 59 -156 175zM430 746l-138 -174l-80 10l88 164h130z" />
    <glyph glyph-name="ucircumflex" unicode="&#xfb;" horiz-adv-x="580" 
d="M70 164v353h115v-333c0 -65 20 -98 81 -98c51 0 105 31 130 54v377h115v-517h-100l-8 57c-45 -41 -106 -68 -177 -68c-108 0 -156 59 -156 175zM456 582l-81 -5l-83 105l-83 -107l-82 7l109 165h111z" />
    <glyph glyph-name="udieresis" unicode="&#xfc;" horiz-adv-x="580" 
d="M70 164v353h115v-333c0 -65 20 -98 81 -98c51 0 105 31 130 54v377h115v-517h-100l-8 57c-45 -41 -106 -68 -177 -68c-108 0 -156 59 -156 175zM256 675c0 -44 -30 -71 -73 -71c-44 0 -74 27 -74 71c0 42 30 70 74 70c43 0 73 -28 73 -70zM476 675c0 -44 -30 -71 -73 -71
c-45 0 -74 27 -74 71c0 42 29 70 74 70c43 0 73 -28 73 -70z" />
    <glyph glyph-name="yacute" unicode="&#xfd;" horiz-adv-x="502" 
d="M197 -8l-194 525h124l127 -388h1l127 388h118c-69 -190 -149 -405 -216 -583c-42 -114 -88 -157 -180 -157c-39 0 -83 10 -104 20l11 86c22 -8 56 -16 81 -16c35 0 63 18 84 71zM416 746l-138 -174l-80 10l88 164h130z" />
    <glyph glyph-name="thorn" unicode="&#xfe;" horiz-adv-x="586" 
d="M187 379v-251c20 -16 66 -46 116 -46c87 0 119 73 119 187c0 119 -35 165 -111 165c-48 0 -98 -30 -124 -55zM72 -212v967h113v-288c44 40 96 61 166 61c109 0 191 -68 191 -257c0 -204 -98 -283 -214 -283c-62 0 -108 21 -144 50v-250h-112z" />
    <glyph glyph-name="ydieresis" unicode="&#xff;" horiz-adv-x="502" 
d="M197 -8l-194 525h124l127 -388h1l127 388h118c-69 -190 -149 -405 -216 -583c-42 -114 -88 -157 -180 -157c-39 0 -83 10 -104 20l11 86c22 -8 56 -16 81 -16c35 0 63 18 84 71zM219 675c0 -44 -30 -71 -73 -71c-44 0 -74 27 -74 71c0 42 30 70 74 70c43 0 73 -28 73 -70
zM439 675c0 -44 -30 -71 -73 -71c-45 0 -74 27 -74 71c0 42 29 70 74 70c43 0 73 -28 73 -70z" />
    <glyph glyph-name="Amacron" unicode="&#x100;" horiz-adv-x="696" 
d="M268 724h149l254 -724h-128l-68 198h-263l-66 -198h-119zM448 296l-105 320h-2l-106 -320h213zM500 790h-311v83h311v-83z" />
    <glyph glyph-name="amacron" unicode="&#x101;" horiz-adv-x="550" 
d="M466 348v-239c0 -28 5 -40 31 -40c9 0 18 2 31 6l4 -68c-20 -10 -53 -17 -81 -17c-54 0 -78 21 -87 61c-35 -38 -92 -63 -164 -63c-130 0 -153 88 -153 139c0 134 114 178 253 178c24 0 39 -1 53 -2v39c0 63 -14 99 -90 99c-63 0 -84 -26 -95 -80l-101 18
c16 97 78 149 205 149c132 0 194 -51 194 -180zM354 122v102c-10 1 -22 2 -48 2c-58 0 -142 -7 -142 -83c0 -36 16 -69 77 -69c47 0 90 24 113 48zM420 616h-299v83h299v-83z" />
    <glyph glyph-name="Abreve" unicode="&#x102;" horiz-adv-x="696" 
d="M268 724h149l254 -724h-128l-68 198h-263l-66 -198h-119zM448 296l-105 320h-2l-106 -320h213zM346 850c45 0 71 16 81 70l79 -6c-10 -95 -70 -139 -164 -139c-91 0 -145 42 -152 137l80 8c9 -52 32 -70 76 -70z" />
    <glyph glyph-name="abreve" unicode="&#x103;" horiz-adv-x="550" 
d="M466 348v-239c0 -28 5 -40 31 -40c9 0 18 2 31 6l4 -68c-20 -10 -53 -17 -81 -17c-54 0 -78 21 -87 61c-35 -38 -92 -63 -164 -63c-130 0 -153 88 -153 139c0 134 114 178 253 178c24 0 39 -1 53 -2v39c0 63 -14 99 -90 99c-63 0 -84 -26 -95 -80l-101 18
c16 97 78 149 205 149c132 0 194 -51 194 -180zM354 122v102c-10 1 -22 2 -48 2c-58 0 -142 -7 -142 -83c0 -36 16 -69 77 -69c47 0 90 24 113 48zM358 734l78 -6c-5 -105 -65 -157 -165 -157c-96 0 -151 48 -155 155l80 9c6 -67 30 -89 79 -89c50 0 77 20 83 88z" />
    <glyph glyph-name="Aogonek" unicode="&#x104;" horiz-adv-x="696" 
d="M654 -117l55 -27c-22 -58 -73 -88 -127 -88c-66 0 -106 33 -106 91c0 61 34 106 67 141l-68 198h-263l-66 -198h-119l241 724h149l254 -724c-70 -45 -103 -78 -103 -121c0 -24 12 -37 35 -37c21 0 37 13 51 41zM448 296l-105 320h-2l-106 -320h213z" />
    <glyph glyph-name="aogonek" unicode="&#x105;" horiz-adv-x="550" 
d="M498 -117l55 -27c-22 -58 -73 -88 -127 -88c-66 0 -106 33 -106 91c0 62 46 103 93 136c-28 8 -43 27 -49 56c-35 -38 -92 -63 -164 -63c-130 0 -153 88 -153 139c0 134 114 178 253 178c24 0 39 -1 53 -2v39c0 63 -14 99 -90 99c-63 0 -84 -26 -95 -80l-101 18
c16 97 78 149 205 149c132 0 194 -51 194 -180v-239c0 -28 5 -40 31 -40c9 0 18 2 31 6l4 -68c-61 -26 -120 -84 -120 -128c0 -24 12 -37 35 -37c21 0 37 13 51 41zM354 122v102c-10 1 -22 2 -48 2c-58 0 -142 -7 -142 -83c0 -36 16 -69 77 -69c47 0 90 24 113 48z" />
    <glyph glyph-name="Cacute" unicode="&#x106;" horiz-adv-x="693" 
d="M370 -12c-233 0 -325 145 -325 364c0 238 127 385 342 385c156 0 265 -79 276 -253l-108 -10c-12 109 -61 162 -169 162c-137 0 -221 -87 -221 -276c0 -196 76 -273 211 -273c108 0 158 52 179 144l104 -20c-25 -164 -161 -223 -289 -223zM524 915l-142 -148l-84 11
l96 137h130z" />
    <glyph glyph-name="cacute" unicode="&#x107;" horiz-adv-x="541" 
d="M285 -12c-171 0 -242 110 -242 264c0 179 94 276 256 276c114 0 195 -67 204 -189l-106 -15c-8 68 -36 112 -103 112s-131 -34 -131 -171c0 -140 56 -183 128 -183c64 0 102 31 114 103l100 -20c-17 -124 -109 -177 -220 -177zM423 746l-138 -174l-80 10l88 164h130z" />
    <glyph glyph-name="Ccircumflex" unicode="&#x108;" horiz-adv-x="693" 
d="M370 -12c-233 0 -325 145 -325 364c0 238 127 385 342 385c156 0 265 -79 276 -253l-108 -10c-12 109 -61 162 -169 162c-137 0 -221 -87 -221 -276c0 -196 76 -273 211 -273c108 0 158 52 179 144l104 -20c-25 -164 -161 -223 -289 -223zM457 769l-79 76l-81 -78l-82 9
l112 133h103l110 -133z" />
    <glyph glyph-name="ccircumflex" unicode="&#x109;" horiz-adv-x="541" 
d="M285 -12c-171 0 -242 110 -242 264c0 179 94 276 256 276c114 0 195 -67 204 -189l-106 -15c-8 68 -36 112 -103 112s-131 -34 -131 -171c0 -140 56 -183 128 -183c64 0 102 31 114 103l100 -20c-17 -124 -109 -177 -220 -177zM459 582l-81 -5l-83 105l-83 -107l-82 7
l109 165h111z" />
    <glyph glyph-name="Cdotaccent" unicode="&#x10a;" horiz-adv-x="693" 
d="M370 -12c-233 0 -325 145 -325 364c0 238 127 385 342 385c156 0 265 -79 276 -253l-108 -10c-12 109 -61 162 -169 162c-137 0 -221 -87 -221 -276c0 -196 76 -273 211 -273c108 0 158 52 179 144l104 -20c-25 -164 -161 -223 -289 -223zM452 854c0 -48 -28 -76 -75 -76
c-48 0 -75 28 -75 76s27 75 75 75c47 0 75 -27 75 -75z" />
    <glyph glyph-name="cdotaccent" unicode="&#x10b;" horiz-adv-x="541" 
d="M285 -12c-171 0 -242 110 -242 264c0 179 94 276 256 276c114 0 195 -67 204 -189l-106 -15c-8 68 -36 112 -103 112s-131 -34 -131 -171c0 -140 56 -183 128 -183c64 0 102 31 114 103l100 -20c-17 -124 -109 -177 -220 -177zM363 680c0 -49 -28 -76 -75 -76
c-48 0 -75 27 -75 76c0 48 27 75 75 75c47 0 75 -27 75 -75z" />
    <glyph glyph-name="Ccaron" unicode="&#x10c;" horiz-adv-x="693" 
d="M370 -12c-233 0 -325 145 -325 364c0 238 127 385 342 385c156 0 265 -79 276 -253l-108 -10c-12 109 -61 162 -169 162c-137 0 -221 -87 -221 -276c0 -196 76 -273 211 -273c108 0 158 52 179 144l104 -20c-25 -164 -161 -223 -289 -223zM298 911l79 -76l81 78l82 -9
l-112 -133h-103l-110 133z" />
    <glyph glyph-name="ccaron" unicode="&#x10d;" horiz-adv-x="541" 
d="M285 -12c-171 0 -242 110 -242 264c0 179 94 276 256 276c114 0 195 -67 204 -189l-106 -15c-8 68 -36 112 -103 112s-131 -34 -131 -171c0 -140 56 -183 128 -183c64 0 102 31 114 103l100 -20c-17 -124 -109 -177 -220 -177zM122 736l85 6l81 -105l84 106l79 -7
l-109 -164h-111z" />
    <glyph glyph-name="Dcaron" unicode="&#x10e;" horiz-adv-x="726" 
d="M305 0h-218v724h235c251 0 359 -135 359 -351c0 -222 -117 -373 -376 -373zM204 95h100c179 0 257 100 257 267c0 205 -88 267 -248 267h-109v-534zM251 911l79 -76l81 78l82 -9l-112 -133h-103l-110 133z" />
    <glyph glyph-name="dcaron" unicode="&#x10f;" horiz-adv-x="669" 
d="M514 755v-755h-96l-8 52h-2c-41 -39 -92 -64 -163 -64c-119 0 -200 75 -200 262c0 205 106 278 218 278c59 0 104 -15 139 -45v272h112zM399 134v260c-22 17 -63 40 -112 40c-90 0 -123 -75 -123 -183c0 -112 35 -170 118 -170c44 0 89 24 117 53zM562 563l33 192h112
l-63 -201z" />
    <glyph glyph-name="Dcroat" unicode="&#x110;" horiz-adv-x="726" 
d="M305 0h-218v327h-73v91h73v306h235c251 0 359 -135 359 -351c0 -222 -117 -373 -376 -373zM204 95h100c179 0 257 100 257 267c0 205 -88 267 -248 267h-109v-211h196v-91h-196v-232z" />
    <glyph glyph-name="dcroat" unicode="&#x111;" horiz-adv-x="583" 
d="M579 576h-65v-576h-96l-8 52h-2c-41 -39 -92 -64 -163 -64c-119 0 -200 73 -200 256c0 195 106 271 218 271c59 0 104 -15 139 -45v106h-184v83h184v96h112v-96h65v-83zM399 134v247c-22 17 -63 40 -112 40c-90 0 -123 -77 -123 -176c0 -108 35 -164 118 -164
c44 0 89 24 117 53z" />
    <glyph glyph-name="Emacron" unicode="&#x112;" horiz-adv-x="578" 
d="M204 315v-217h336v-98h-453v724h438v-98h-321v-214h301v-97h-301zM464 790h-311v83h311v-83z" />
    <glyph glyph-name="emacron" unicode="&#x113;" horiz-adv-x="547" 
d="M287 -12c-186 0 -244 128 -244 270c0 187 112 270 247 270c150 0 212 -95 212 -229c0 -21 -1 -45 -3 -69h-335c3 -109 55 -148 130 -148c66 0 94 31 106 84l98 -24c-20 -98 -99 -154 -211 -154zM166 310h217c0 88 -31 127 -100 127c-58 0 -112 -35 -117 -127zM434 616
h-299v83h299v-83z" />
    <glyph glyph-name="Ebreve" unicode="&#x114;" horiz-adv-x="578" 
d="M204 315v-217h336v-98h-453v724h438v-98h-321v-214h301v-97h-301zM310 850c45 0 71 16 81 70l79 -6c-10 -95 -70 -139 -164 -139c-91 0 -145 42 -152 137l80 8c9 -52 32 -70 76 -70z" />
    <glyph glyph-name="ebreve" unicode="&#x115;" horiz-adv-x="547" 
d="M287 -12c-186 0 -244 128 -244 270c0 187 112 270 247 270c150 0 212 -95 212 -229c0 -21 -1 -45 -3 -69h-335c3 -109 55 -148 130 -148c66 0 94 31 106 84l98 -24c-20 -98 -99 -154 -211 -154zM166 310h217c0 88 -31 127 -100 127c-58 0 -112 -35 -117 -127zM372 734
l78 -6c-5 -105 -65 -157 -165 -157c-96 0 -151 48 -155 155l80 9c6 -67 30 -89 79 -89c50 0 77 20 83 88z" />
    <glyph glyph-name="Edotaccent" unicode="&#x116;" horiz-adv-x="578" 
d="M204 315v-217h336v-98h-453v724h438v-98h-321v-214h301v-97h-301zM382 854c0 -48 -28 -76 -75 -76c-48 0 -75 28 -75 76s27 75 75 75c47 0 75 -27 75 -75z" />
    <glyph glyph-name="edotaccent" unicode="&#x117;" horiz-adv-x="547" 
d="M287 -12c-186 0 -244 128 -244 270c0 187 112 270 247 270c150 0 212 -95 212 -229c0 -21 -1 -45 -3 -69h-335c3 -109 55 -148 130 -148c66 0 94 31 106 84l98 -24c-20 -98 -99 -154 -211 -154zM166 310h217c0 88 -31 127 -100 127c-58 0 -112 -35 -117 -127zM360 680
c0 -49 -28 -76 -75 -76c-48 0 -75 27 -75 76c0 48 27 75 75 75c47 0 75 -27 75 -75z" />
    <glyph glyph-name="Eogonek" unicode="&#x118;" horiz-adv-x="578" 
d="M490 -117l55 -27c-22 -58 -73 -88 -127 -88c-66 0 -106 33 -106 91c0 61 42 106 87 141h-312v724h438v-98h-321v-214h301v-97h-301v-217h336v-98h-55c-48 -45 -81 -78 -81 -121c0 -24 12 -37 35 -37c21 0 37 13 51 41z" />
    <glyph glyph-name="eogonek" unicode="&#x119;" horiz-adv-x="547" 
d="M384 -117l55 -27c-22 -58 -73 -88 -127 -88c-66 0 -106 33 -106 91c0 54 33 96 72 129c-179 4 -235 130 -235 270c0 187 112 270 247 270c150 0 212 -95 212 -229c0 -21 -1 -45 -3 -69h-335c3 -109 55 -148 130 -148c66 0 94 31 106 84l98 -24
c-14 -66 -51 -106 -105 -140c-59 -37 -95 -78 -95 -123c0 -24 12 -37 35 -37c21 0 37 13 51 41zM166 310h217c0 88 -31 127 -100 127c-58 0 -112 -35 -117 -127z" />
    <glyph glyph-name="Ecaron" unicode="&#x11a;" horiz-adv-x="578" 
d="M204 315v-217h336v-98h-453v724h438v-98h-321v-214h301v-97h-301zM228 911l79 -76l81 78l82 -9l-112 -133h-103l-110 133z" />
    <glyph glyph-name="ecaron" unicode="&#x11b;" horiz-adv-x="547" 
d="M287 -12c-186 0 -244 128 -244 270c0 187 112 270 247 270c150 0 212 -95 212 -229c0 -21 -1 -45 -3 -69h-335c3 -109 55 -148 130 -148c66 0 94 31 106 84l98 -24c-20 -98 -99 -154 -211 -154zM166 310h217c0 88 -31 127 -100 127c-58 0 -112 -35 -117 -127zM120 736
l85 6l81 -105l84 106l79 -7l-109 -164h-111z" />
    <glyph glyph-name="Gcircumflex" unicode="&#x11c;" horiz-adv-x="737" 
d="M581 0l-14 94c-28 -63 -117 -106 -214 -106c-217 0 -308 151 -308 364c0 241 125 385 344 385c154 0 262 -70 275 -247l-109 -12c-10 102 -59 160 -169 160c-143 0 -220 -101 -220 -275c0 -205 81 -277 213 -277c116 0 175 76 175 155v47h-169v88h282v-376h-86zM465 769
l-79 76l-81 -78l-82 9l112 133h103l110 -133z" />
    <glyph glyph-name="gcircumflex" unicode="&#x11d;" horiz-adv-x="555" 
d="M271 528c60 0 110 -11 145 -41c18 42 48 71 86 71c17 0 26 -1 41 -6v-85c-32 2 -63 -2 -90 -10c27 -31 40 -72 40 -114c0 -117 -93 -185 -218 -185c-34 0 -61 2 -88 10c-13 -10 -25 -24 -25 -39c0 -18 9 -31 53 -34l147 -9c108 -7 172 -40 172 -135
c0 -135 -130 -177 -268 -177c-192 0 -240 64 -240 129c0 54 38 88 86 104v3c-38 13 -61 38 -61 78c0 47 35 77 73 106c-46 26 -76 77 -76 143c0 112 84 191 223 191zM385 342c0 65 -42 97 -111 97c-65 0 -114 -28 -114 -95c0 -60 33 -97 113 -97c66 0 112 36 112 95z
M416 -72c0 32 -15 50 -78 53l-159 8c-27 -19 -42 -39 -42 -67c0 -42 43 -61 140 -61c90 0 139 20 139 67zM445 582l-81 -5l-83 105l-83 -107l-82 7l109 165h111z" />
    <glyph glyph-name="Gbreve" unicode="&#x11e;" horiz-adv-x="737" 
d="M581 0l-14 94c-28 -63 -117 -106 -214 -106c-217 0 -308 151 -308 364c0 241 125 385 344 385c154 0 262 -70 275 -247l-109 -12c-10 102 -59 160 -169 160c-143 0 -220 -101 -220 -275c0 -205 81 -277 213 -277c116 0 175 76 175 155v47h-169v88h282v-376h-86zM388 850
c45 0 71 16 81 70l79 -6c-10 -95 -70 -139 -164 -139c-91 0 -145 42 -152 137l80 8c9 -52 32 -70 76 -70z" />
    <glyph glyph-name="gbreve" unicode="&#x11f;" horiz-adv-x="555" 
d="M271 528c60 0 110 -11 145 -41c18 42 48 71 86 71c17 0 26 -1 41 -6v-85c-32 2 -63 -2 -90 -10c27 -31 40 -72 40 -114c0 -117 -93 -185 -218 -185c-34 0 -61 2 -88 10c-13 -10 -25 -24 -25 -39c0 -18 9 -31 53 -34l147 -9c108 -7 172 -40 172 -135
c0 -135 -130 -177 -268 -177c-192 0 -240 64 -240 129c0 54 38 88 86 104v3c-38 13 -61 38 -61 78c0 47 35 77 73 106c-46 26 -76 77 -76 143c0 112 84 191 223 191zM385 342c0 65 -42 97 -111 97c-65 0 -114 -28 -114 -95c0 -60 33 -97 113 -97c66 0 112 36 112 95z
M416 -72c0 32 -15 50 -78 53l-159 8c-27 -19 -42 -39 -42 -67c0 -42 43 -61 140 -61c90 0 139 20 139 67zM360 734l78 -6c-5 -105 -65 -157 -165 -157c-96 0 -151 48 -155 155l80 9c6 -67 30 -89 79 -89c50 0 77 20 83 88z" />
    <glyph glyph-name="Gdotaccent" unicode="&#x120;" horiz-adv-x="737" 
d="M581 0l-14 94c-28 -63 -117 -106 -214 -106c-217 0 -308 151 -308 364c0 241 125 385 344 385c154 0 262 -70 275 -247l-109 -12c-10 102 -59 160 -169 160c-143 0 -220 -101 -220 -275c0 -205 81 -277 213 -277c116 0 175 76 175 155v47h-169v88h282v-376h-86zM460 854
c0 -48 -28 -76 -75 -76c-48 0 -75 28 -75 76s27 75 75 75c47 0 75 -27 75 -75z" />
    <glyph glyph-name="gdotaccent" unicode="&#x121;" horiz-adv-x="555" 
d="M271 528c60 0 110 -11 145 -41c18 42 48 71 86 71c17 0 26 -1 41 -6v-85c-32 2 -63 -2 -90 -10c27 -31 40 -72 40 -114c0 -117 -93 -185 -218 -185c-34 0 -61 2 -88 10c-13 -10 -25 -24 -25 -39c0 -18 9 -31 53 -34l147 -9c108 -7 172 -40 172 -135
c0 -135 -130 -177 -268 -177c-192 0 -240 64 -240 129c0 54 38 88 86 104v3c-38 13 -61 38 -61 78c0 47 35 77 73 106c-46 26 -76 77 -76 143c0 112 84 191 223 191zM385 342c0 65 -42 97 -111 97c-65 0 -114 -28 -114 -95c0 -60 33 -97 113 -97c66 0 112 36 112 95z
M416 -72c0 32 -15 50 -78 53l-159 8c-27 -19 -42 -39 -42 -67c0 -42 43 -61 140 -61c90 0 139 20 139 67zM348 680c0 -49 -28 -76 -75 -76c-48 0 -75 27 -75 76c0 48 27 75 75 75c47 0 75 -27 75 -75z" />
    <glyph glyph-name="Gcommaaccent" unicode="&#x122;" horiz-adv-x="737" 
d="M581 0l-14 94c-28 -63 -117 -106 -214 -106c-217 0 -308 151 -308 364c0 241 125 385 344 385c154 0 262 -70 275 -247l-109 -12c-10 102 -59 160 -169 160c-143 0 -220 -101 -220 -275c0 -205 81 -277 213 -277c116 0 175 76 175 155v47h-169v88h282v-376h-86zM281 -243
l42 175h114l-74 -187z" />
    <glyph glyph-name="gcommaaccent" unicode="&#x123;" horiz-adv-x="555" 
d="M271 528c60 0 110 -11 145 -41c18 42 48 71 86 71c17 0 26 -1 41 -6v-85c-32 2 -63 -2 -90 -10c27 -31 40 -72 40 -114c0 -117 -93 -185 -218 -185c-34 0 -61 2 -88 10c-13 -10 -25 -24 -25 -39c0 -18 9 -31 53 -34l147 -9c108 -7 172 -40 172 -135
c0 -135 -130 -177 -268 -177c-192 0 -240 64 -240 129c0 54 38 88 86 104v3c-38 13 -61 38 -61 78c0 47 35 77 73 106c-46 26 -76 77 -76 143c0 112 84 191 223 191zM385 342c0 65 -42 97 -111 97c-65 0 -114 -28 -114 -95c0 -60 33 -97 113 -97c66 0 112 36 112 95z
M416 -72c0 32 -15 50 -78 53l-159 8c-27 -19 -42 -39 -42 -67c0 -42 43 -61 140 -61c90 0 139 20 139 67zM360 744l-42 -174h-114l74 186z" />
    <glyph glyph-name="Hcircumflex" unicode="&#x124;" horiz-adv-x="730" 
d="M643 724v-724h-117v316h-322v-316h-117v724h117v-305h322v305h117zM445 769l-79 76l-81 -78l-82 9l112 133h103l110 -133z" />
    <glyph glyph-name="hcircumflex" unicode="&#x125;" horiz-adv-x="583" 
d="M517 352v-352h-115v333c0 65 -24 99 -85 99c-52 0 -106 -32 -131 -55v-377h-115v755h114v-289c45 36 101 62 173 62c111 0 159 -59 159 -176zM210 791l-79 76l-81 -78l-82 9l112 133h103l110 -133z" />
    <glyph glyph-name="Hbar" unicode="&#x126;" horiz-adv-x="730" 
d="M643 724v-114h73v-87h-73v-523h-117v316h-322v-316h-117v523h-73v87h73v114h117v-114h322v114h117zM204 419h322v104h-322v-104z" />
    <glyph glyph-name="hbar" unicode="&#x127;" horiz-adv-x="583" 
d="M517 339v-339h-115v320c0 65 -24 99 -85 99c-52 0 -106 -32 -131 -55v-364h-115v576h-63v83h63v96h114v-96h184v-83h-184v-123c45 36 101 62 173 62c111 0 159 -59 159 -176z" />
    <glyph glyph-name="Itilde" unicode="&#x128;" horiz-adv-x="291" 
d="M204 724v-724h-117v724h117zM70 915c64 0 105 -45 150 -45c24 0 34 9 34 48l64 -3c10 -82 -26 -129 -87 -129c-65 0 -109 45 -153 45c-22 0 -36 -10 -33 -51l-66 3c-11 86 33 132 91 132z" />
    <glyph glyph-name="itilde" unicode="&#x129;" horiz-adv-x="257" 
d="M188 517v-517h-115v517h115zM53 722c64 0 105 -45 150 -45c24 0 34 9 34 49l64 -4c10 -82 -26 -129 -87 -129c-65 0 -109 46 -153 46c-22 0 -36 -11 -33 -52l-66 3c-10 86 33 132 91 132z" />
    <glyph glyph-name="Imacron" unicode="&#x12a;" horiz-adv-x="291" 
d="M204 724v-724h-117v724h117zM302 790h-311v83h311v-83z" />
    <glyph glyph-name="imacron" unicode="&#x12b;" horiz-adv-x="257" 
d="M188 517v-517h-115v517h115zM279 616h-299v83h299v-83z" />
    <glyph glyph-name="Ibreve" unicode="&#x12c;" horiz-adv-x="291" 
d="M204 724v-724h-117v724h117zM148 850c45 0 71 16 81 70l79 -6c-10 -95 -70 -139 -164 -139c-91 0 -145 42 -152 137l80 8c9 -52 32 -70 76 -70z" />
    <glyph glyph-name="ibreve" unicode="&#x12d;" horiz-adv-x="257" 
d="M188 517v-517h-115v517h115zM217 734l78 -6c-5 -105 -65 -157 -165 -157c-96 0 -151 48 -155 155l80 9c6 -67 30 -89 79 -89c50 0 77 20 83 88z" />
    <glyph glyph-name="Iogonek" unicode="&#x12e;" horiz-adv-x="291" 
d="M194 -117l55 -27c-22 -58 -73 -88 -127 -88c-66 0 -106 33 -106 91c0 61 33 106 71 141v724h117v-724c-63 -45 -96 -78 -96 -121c0 -24 12 -37 35 -37c21 0 37 13 51 41z" />
    <glyph glyph-name="iogonek" unicode="&#x12f;" horiz-adv-x="257" 
d="M179 -117l55 -27c-22 -58 -73 -88 -127 -88c-66 0 -106 33 -106 91c0 61 35 103 72 141v517h115v-517c-62 -45 -95 -78 -95 -121c0 -24 12 -37 35 -37c21 0 37 13 51 41zM206 680c0 -49 -27 -76 -75 -76c-47 0 -75 27 -75 76c0 48 28 75 75 75c48 0 75 -27 75 -75z" />
    <glyph glyph-name="Idotaccent" unicode="&#x130;" horiz-adv-x="291" 
d="M204 724v-724h-117v724h117zM220 854c0 -48 -28 -76 -75 -76c-48 0 -75 28 -75 76s27 75 75 75c47 0 75 -27 75 -75z" />
    <glyph glyph-name="idotaccent" horiz-adv-x="257" 
d="M188 517v-517h-115v517h115zM206 680c0 -49 -27 -76 -75 -76c-47 0 -75 27 -75 76c0 48 28 75 75 75c48 0 75 -27 75 -75z" />
    <glyph glyph-name="dotlessi" unicode="&#x131;" horiz-adv-x="257" 
d="M188 517v-517h-115v517h115z" />
    <glyph glyph-name="IJ" unicode="&#x132;" horiz-adv-x="802" 
d="M204 724v-724h-117v724h117zM606 187v537h117v-534c0 -143 -81 -202 -211 -202c-120 0 -194 51 -200 183l113 18c6 -63 19 -104 90 -104c54 0 91 19 91 102z" />
    <glyph glyph-name="Jcircumflex" unicode="&#x134;" horiz-adv-x="511" 
d="M315 187v537h117v-534c0 -143 -81 -202 -211 -202c-120 0 -194 51 -200 183l113 18c6 -63 19 -104 90 -104c54 0 91 19 91 102zM454 769l-79 76l-81 -78l-82 9l112 133h103l110 -133z" />
    <glyph glyph-name="jcircumflex" unicode="&#x135;" horiz-adv-x="255" 
d="M25 -223c-41 0 -88 11 -107 23l10 88c20 -8 50 -17 78 -17c39 0 67 19 67 80v566h115v-573c0 -118 -63 -167 -163 -167zM295 582l-81 -5l-83 105l-83 -107l-82 7l109 165h111z" />
    <glyph glyph-name="jcircumflex.calt" horiz-adv-x="255" 
d="M45 -223c-20 0 -50 5 -62 10l8 90c14 -3 25 -5 35 -5c34 0 47 20 47 74v571h115v-573c0 -118 -54 -167 -143 -167zM295 582l-81 -5l-83 105l-83 -107l-82 7l109 165h111z" />
    <glyph glyph-name="Kcommaaccent" unicode="&#x136;" horiz-adv-x="655" 
d="M204 724v-338l307 338h127l-276 -307l283 -417h-137l-228 327l-76 -82v-245h-117v724h117zM250 -243l42 175h114l-74 -187z" />
    <glyph glyph-name="kcommaaccent" unicode="&#x137;" horiz-adv-x="544" 
d="M187 755v-447l201 209h129l-176 -186l189 -331h-126l-149 255l-68 -67v-188h-115v755h115zM194 -243l42 175h114l-74 -187z" />
    <glyph glyph-name="kgreenlandic" unicode="&#x138;" horiz-adv-x="544" 
d="M187 517v-209l201 209h129l-176 -186l189 -331h-126l-149 255l-68 -67v-188h-115v517h115z" />
    <glyph glyph-name="Lacute" unicode="&#x139;" horiz-adv-x="558" 
d="M204 724v-625h320v-99h-437v724h117zM293 915l-142 -148l-84 11l96 137h130z" />
    <glyph glyph-name="lacute" unicode="&#x13a;" horiz-adv-x="257" 
d="M188 755v-755h-115v755h115zM270 936l-142 -148l-84 11l96 137h130z" />
    <glyph glyph-name="Lcommaaccent" unicode="&#x13b;" horiz-adv-x="558" 
d="M204 724v-625h320v-99h-437v724h117zM219 -243l42 175h114l-74 -187z" />
    <glyph glyph-name="lcommaaccent" unicode="&#x13c;" horiz-adv-x="257" 
d="M188 755v-755h-115v755h115zM43 -243l42 175h114l-74 -187z" />
    <glyph glyph-name="Lcaron" unicode="&#x13d;" horiz-adv-x="558" 
d="M204 724v-625h320v-99h-437v724h117zM298 532l33 192h112l-63 -201z" />
    <glyph glyph-name="lcaron" unicode="&#x13e;" horiz-adv-x="343" 
d="M188 755v-755h-115v755h115zM236 563l33 192h112l-63 -201z" />
    <glyph glyph-name="Ldot" unicode="&#x13f;" horiz-adv-x="558" 
d="M204 724v-625h320v-99h-437v724h117zM500 403c0 -48 -28 -76 -75 -76c-48 0 -75 28 -75 76s27 75 75 75c47 0 75 -27 75 -75z" />
    <glyph glyph-name="ldot" unicode="&#x140;" horiz-adv-x="349" 
d="M188 755v-755h-115v755h115zM381 399c0 -49 -28 -76 -75 -76c-48 0 -75 27 -75 76c0 48 27 75 75 75c47 0 75 -27 75 -75z" />
    <glyph glyph-name="Lslash" unicode="&#x141;" horiz-adv-x="558" 
d="M204 724v-306l217 89v-100l-217 -88v-220h320v-99h-437v271l-87 -35v98l87 36v354h117z" />
    <glyph glyph-name="lslash" unicode="&#x142;" horiz-adv-x="288" 
d="M199 755v-278l79 39v-100l-79 -39v-377h-115v331l-74 -36v100l74 35v325h115z" />
    <glyph glyph-name="Nacute" unicode="&#x143;" horiz-adv-x="745" 
d="M658 0h-138l-325 569v-569h-108v724h147l317 -566v566h107v-724zM550 915l-142 -148l-84 11l96 137h130z" />
    <glyph glyph-name="nacute" unicode="&#x144;" horiz-adv-x="583" 
d="M517 352v-352h-115v333c0 65 -24 99 -85 99c-52 0 -106 -32 -131 -55v-377h-115v517h102l5 -54c46 37 108 65 179 65c112 0 160 -59 160 -176zM464 746l-138 -174l-80 10l88 164h130z" />
    <glyph glyph-name="Ncommaaccent" unicode="&#x145;" horiz-adv-x="745" 
d="M658 0h-138l-325 569v-569h-108v724h147l317 -566v566h107v-724zM285 -243l42 175h114l-74 -187z" />
    <glyph glyph-name="ncommaaccent" unicode="&#x146;" horiz-adv-x="583" 
d="M517 352v-352h-115v333c0 65 -24 99 -85 99c-52 0 -106 -32 -131 -55v-377h-115v517h102l5 -54c46 37 108 65 179 65c112 0 160 -59 160 -176zM203 -243l42 175h114l-74 -187z" />
    <glyph glyph-name="Ncaron" unicode="&#x147;" horiz-adv-x="745" 
d="M658 0h-138l-325 569v-569h-108v724h147l317 -566v566h107v-724zM310 911l79 -76l81 78l82 -9l-112 -133h-103l-110 133z" />
    <glyph glyph-name="ncaron" unicode="&#x148;" horiz-adv-x="583" 
d="M517 352v-352h-115v333c0 65 -24 99 -85 99c-52 0 -106 -32 -131 -55v-377h-115v517h102l5 -54c46 37 108 65 179 65c112 0 160 -59 160 -176zM145 736l85 6l81 -105l84 106l79 -7l-109 -164h-111z" />
    <glyph glyph-name="napostrophe" unicode="&#x149;" horiz-adv-x="593" 
d="M527 352v-352h-115v333c0 65 -24 99 -85 99c-52 0 -106 -32 -131 -55v-377h-115v517h102l5 -54c46 37 108 65 179 65c112 0 160 -59 160 -176zM-36 510l40 169h110l-72 -180z" />
    <glyph glyph-name="Eng" unicode="&#x14a;" horiz-adv-x="745" 
d="M658 -49c0 -118 -63 -174 -153 -174c-55 0 -110 12 -135 24l17 101c23 -8 57 -17 89 -17c33 0 56 12 56 73v43l-337 568v-569h-108v724h147l317 -531v531h107v-773z" />
    <glyph glyph-name="eng" unicode="&#x14b;" horiz-adv-x="583" 
d="M354 -223c-41 0 -88 11 -107 23l10 88c20 -8 50 -17 78 -17c39 0 67 19 67 80v382c0 65 -24 99 -85 99c-52 0 -106 -32 -131 -55v-377h-115v517h102l5 -54c46 37 108 65 179 65c112 0 160 -59 160 -176v-408c0 -118 -63 -167 -163 -167z" />
    <glyph glyph-name="Omacron" unicode="&#x14c;" horiz-adv-x="760" 
d="M375 -12c-230 0 -330 156 -330 372s119 377 345 377s325 -161 325 -362c0 -235 -113 -387 -340 -387zM380 88c126 0 215 82 215 277c0 184 -81 270 -208 270c-130 0 -221 -88 -221 -273c0 -188 85 -274 214 -274zM545 790h-311v83h311v-83z" />
    <glyph glyph-name="omacron" unicode="&#x14d;" horiz-adv-x="582" 
d="M287 -12c-182 0 -244 114 -244 268c0 166 86 272 257 272s239 -107 239 -260c0 -170 -74 -280 -252 -280zM293 77c79 0 126 52 126 185c0 129 -42 173 -123 173c-82 0 -133 -49 -133 -175s40 -183 130 -183zM446 616h-299v83h299v-83z" />
    <glyph glyph-name="Obreve" unicode="&#x14e;" horiz-adv-x="760" 
d="M375 -12c-230 0 -330 156 -330 372s119 377 345 377s325 -161 325 -362c0 -235 -113 -387 -340 -387zM380 88c126 0 215 82 215 277c0 184 -81 270 -208 270c-130 0 -221 -88 -221 -273c0 -188 85 -274 214 -274zM391 850c45 0 71 16 81 70l79 -6
c-10 -95 -70 -139 -164 -139c-91 0 -145 42 -152 137l80 8c9 -52 32 -70 76 -70z" />
    <glyph glyph-name="obreve" unicode="&#x14f;" horiz-adv-x="582" 
d="M287 -12c-182 0 -244 114 -244 268c0 166 86 272 257 272s239 -107 239 -260c0 -170 -74 -280 -252 -280zM293 77c79 0 126 52 126 185c0 129 -42 173 -123 173c-82 0 -133 -49 -133 -175s40 -183 130 -183zM384 734l78 -6c-5 -105 -65 -157 -165 -157
c-96 0 -151 48 -155 155l80 9c6 -67 30 -89 79 -89c50 0 77 20 83 88z" />
    <glyph glyph-name="Ohungarumlaut" unicode="&#x150;" horiz-adv-x="760" 
d="M375 -12c-230 0 -330 156 -330 372s119 377 345 377s325 -161 325 -362c0 -235 -113 -387 -340 -387zM380 88c126 0 215 82 215 277c0 184 -81 270 -208 270c-130 0 -221 -88 -221 -273c0 -188 85 -274 214 -274zM455 914l-107 -147l-79 13l60 134h126zM633 918
l-146 -151l-81 11l97 140h130z" />
    <glyph glyph-name="ohungarumlaut" unicode="&#x151;" horiz-adv-x="582" 
d="M287 -12c-182 0 -244 114 -244 268c0 166 86 272 257 272s239 -107 239 -260c0 -170 -74 -280 -252 -280zM293 77c79 0 126 52 126 185c0 129 -42 173 -123 173c-82 0 -133 -49 -133 -175s40 -183 130 -183zM365 745l-110 -173l-77 13l62 160h125zM542 748l-144 -176
l-80 10l94 166h130z" />
    <glyph glyph-name="OE" unicode="&#x152;" horiz-adv-x="1082" 
d="M1044 0h-440v94c-48 -67 -129 -106 -229 -106c-230 0 -330 156 -330 373c0 215 119 376 341 376c100 0 172 -37 218 -96v83h425v-98h-320v-214h301v-97h-301v-217h335v-98zM380 88c124 0 213 79 215 272c0 189 -79 275 -208 275c-130 0 -221 -86 -221 -273
c0 -190 85 -274 214 -274z" />
    <glyph glyph-name="oe" unicode="&#x153;" horiz-adv-x="915" 
d="M662 -12c-100 0 -159 43 -189 98c-35 -60 -95 -98 -191 -98c-177 0 -239 114 -239 268c0 166 86 272 252 272c94 0 148 -37 184 -97c38 62 104 97 186 97c143 0 205 -96 205 -230c0 -19 -1 -48 -3 -68h-335c3 -109 54 -148 130 -148c66 0 93 31 106 84l98 -24
c-21 -99 -102 -154 -204 -154zM293 77c79 0 126 50 126 185c0 129 -42 173 -123 173c-82 0 -133 -51 -133 -175c0 -127 40 -183 130 -183zM534 310h217c0 86 -31 127 -100 127c-58 0 -112 -35 -117 -127z" />
    <glyph glyph-name="Racute" unicode="&#x154;" horiz-adv-x="639" 
d="M451 321l173 -321h-127l-156 291h-138v-291h-116v724h262c180 0 236 -98 236 -200c0 -108 -54 -172 -134 -203zM203 385h113c85 0 148 28 148 131c0 86 -56 112 -151 112h-110v-243zM452 915l-142 -148l-84 11l96 137h130z" />
    <glyph glyph-name="racute" unicode="&#x155;" horiz-adv-x="376" 
d="M367 527v-115c-65 8 -138 -15 -181 -53v-359h-115v517h97l9 -77c41 58 93 88 169 88c6 0 14 -1 21 -1zM378 746l-138 -174l-80 10l88 164h130z" />
    <glyph glyph-name="Rcommaaccent" unicode="&#x156;" horiz-adv-x="639" 
d="M451 321l173 -321h-127l-156 291h-138v-291h-116v724h262c180 0 236 -98 236 -200c0 -108 -54 -172 -134 -203zM203 385h113c85 0 148 28 148 131c0 86 -56 112 -151 112h-110v-243zM244 -243l42 175h114l-74 -187z" />
    <glyph glyph-name="rcommaaccent" unicode="&#x157;" horiz-adv-x="376" 
d="M367 527v-115c-65 8 -138 -15 -181 -53v-359h-115v517h97l9 -77c41 58 93 88 169 88c6 0 14 -1 21 -1zM42 -243l42 175h114l-74 -187z" />
    <glyph glyph-name="Rcaron" unicode="&#x158;" horiz-adv-x="639" 
d="M451 321l173 -321h-127l-156 291h-138v-291h-116v724h262c180 0 236 -98 236 -200c0 -108 -54 -172 -134 -203zM203 385h113c85 0 148 28 148 131c0 86 -56 112 -151 112h-110v-243zM226 911l79 -76l81 78l82 -9l-112 -133h-103l-110 133z" />
    <glyph glyph-name="rcaron" unicode="&#x159;" horiz-adv-x="376" 
d="M367 527v-115c-65 8 -138 -15 -181 -53v-359h-115v517h97l9 -77c41 58 93 88 169 88c6 0 14 -1 21 -1zM60 736l85 6l81 -105l84 106l79 -7l-109 -164h-111z" />
    <glyph glyph-name="Sacute" unicode="&#x15a;" horiz-adv-x="599" 
d="M306 642c-95 0 -134 -40 -134 -98c0 -175 387 -75 387 -337c0 -157 -126 -219 -264 -219c-143 0 -254 51 -270 215l108 16c16 -74 47 -138 164 -138c72 0 145 24 145 110c0 183 -387 65 -387 339c0 131 109 207 252 207c127 0 232 -47 246 -208l-108 -13
c-10 69 -38 126 -139 126zM454 915l-142 -148l-84 11l96 137h130z" />
    <glyph glyph-name="sacute" unicode="&#x15b;" horiz-adv-x="493" 
d="M252 528c120 0 176 -57 196 -147l-100 -26c-12 51 -31 87 -98 87c-63 0 -89 -27 -89 -61c0 -48 44 -62 112 -74c89 -16 184 -37 184 -155c0 -107 -86 -164 -213 -164c-124 0 -195 50 -211 146l98 32c13 -49 34 -92 117 -92c57 0 97 18 97 62c0 52 -42 61 -108 74
c-84 17 -184 35 -184 158c0 108 91 160 199 160zM401 746l-138 -174l-80 10l88 164h130z" />
    <glyph glyph-name="Scircumflex" unicode="&#x15c;" horiz-adv-x="599" 
d="M306 642c-95 0 -134 -40 -134 -98c0 -175 387 -75 387 -337c0 -157 -126 -219 -264 -219c-143 0 -254 51 -270 215l108 16c16 -74 47 -138 164 -138c72 0 145 24 145 110c0 183 -387 65 -387 339c0 131 109 207 252 207c127 0 232 -47 246 -208l-108 -13
c-10 69 -38 126 -139 126zM387 769l-79 76l-81 -78l-82 9l112 133h103l110 -133z" />
    <glyph glyph-name="scircumflex" unicode="&#x15d;" horiz-adv-x="493" 
d="M252 528c120 0 176 -57 196 -147l-100 -26c-12 51 -31 87 -98 87c-63 0 -89 -27 -89 -61c0 -48 44 -62 112 -74c89 -16 184 -37 184 -155c0 -107 -86 -164 -213 -164c-124 0 -195 50 -211 146l98 32c13 -49 34 -92 117 -92c57 0 97 18 97 62c0 52 -42 61 -108 74
c-84 17 -184 35 -184 158c0 108 91 160 199 160zM416 582l-81 -5l-83 105l-83 -107l-82 7l109 165h111z" />
    <glyph glyph-name="Scedilla" unicode="&#x15e;" horiz-adv-x="599" 
d="M205 -214l17 59c14 -6 32 -11 52 -11c32 0 50 15 50 41c0 32 -22 42 -70 43l10 71c-128 8 -224 62 -239 214l108 16c16 -74 47 -138 164 -138c72 0 145 24 145 110c0 183 -387 65 -387 339c0 131 109 207 252 207c127 0 232 -47 246 -208l-108 -13
c-10 69 -38 126 -139 126c-95 0 -134 -40 -134 -98c0 -175 387 -75 387 -337c0 -145 -107 -208 -231 -218l-4 -27c42 -8 81 -30 81 -89c0 -66 -51 -105 -118 -105c-34 0 -63 9 -82 18z" />
    <glyph glyph-name="scedilla" unicode="&#x15f;" horiz-adv-x="493" 
d="M150 -214l17 59c14 -6 32 -11 52 -11c32 0 50 15 50 41c0 32 -22 42 -70 43l10 72c-103 9 -162 57 -176 144l98 32c13 -49 34 -92 117 -92c57 0 97 18 97 62c0 52 -42 61 -108 74c-84 17 -184 35 -184 158c0 108 91 160 199 160c120 0 176 -57 196 -147l-100 -26
c-12 51 -31 87 -98 87c-63 0 -89 -27 -89 -61c0 -48 44 -62 112 -74c89 -16 184 -37 184 -155c0 -99 -73 -155 -184 -163l-4 -27c42 -8 81 -30 81 -89c0 -66 -51 -105 -118 -105c-34 0 -63 9 -82 18z" />
    <glyph glyph-name="Scaron" unicode="&#x160;" horiz-adv-x="599" 
d="M306 642c-95 0 -134 -40 -134 -98c0 -175 387 -75 387 -337c0 -157 -126 -219 -264 -219c-143 0 -254 51 -270 215l108 16c16 -74 47 -138 164 -138c72 0 145 24 145 110c0 183 -387 65 -387 339c0 131 109 207 252 207c127 0 232 -47 246 -208l-108 -13
c-10 69 -38 126 -139 126zM228 911l79 -76l81 78l82 -9l-112 -133h-103l-110 133z" />
    <glyph glyph-name="scaron" unicode="&#x161;" horiz-adv-x="493" 
d="M252 528c120 0 176 -57 196 -147l-100 -26c-12 51 -31 87 -98 87c-63 0 -89 -27 -89 -61c0 -48 44 -62 112 -74c89 -16 184 -37 184 -155c0 -107 -86 -164 -213 -164c-124 0 -195 50 -211 146l98 32c13 -49 34 -92 117 -92c57 0 97 18 97 62c0 52 -42 61 -108 74
c-84 17 -184 35 -184 158c0 108 91 160 199 160zM87 736l85 6l81 -105l84 106l79 -7l-109 -164h-111z" />
    <glyph glyph-name="Scommaaccent" unicode="&#x218;" horiz-adv-x="599" 
d="M306 642c-95 0 -134 -40 -134 -98c0 -175 387 -75 387 -337c0 -157 -126 -219 -264 -219c-143 0 -254 51 -270 215l108 16c16 -74 47 -138 164 -138c72 0 145 24 145 110c0 183 -387 65 -387 339c0 131 109 207 252 207c127 0 232 -47 246 -208l-108 -13
c-10 69 -38 126 -139 126zM210 -243l42 175h114l-74 -187z" />
    <glyph glyph-name="scommaaccent" unicode="&#x219;" horiz-adv-x="493" 
d="M252 528c120 0 176 -57 196 -147l-100 -26c-12 51 -31 87 -98 87c-63 0 -89 -27 -89 -61c0 -48 44 -62 112 -74c89 -16 184 -37 184 -155c0 -107 -86 -164 -213 -164c-124 0 -195 50 -211 146l98 32c13 -49 34 -92 117 -92c57 0 97 18 97 62c0 52 -42 61 -108 74
c-84 17 -184 35 -184 158c0 108 91 160 199 160zM159 -243l42 175h114l-74 -187z" />
    <glyph glyph-name="uni0162" unicode="&#x162;" horiz-adv-x="571" 
d="M193 -214l17 59c14 -6 32 -11 52 -11c32 0 50 15 50 41c0 32 -22 42 -70 43l11 82h-25v626h-217v98h549v-98h-215v-626h-28l-5 -38c42 -8 81 -30 81 -89c0 -66 -51 -105 -118 -105c-34 0 -63 9 -82 18z" />
    <glyph glyph-name="uni0163" unicode="&#x163;" horiz-adv-x="392" 
d="M132 -214l17 59c14 -6 32 -11 52 -11c32 0 50 15 50 41c0 32 -22 42 -70 43l11 76c-66 14 -100 61 -100 150v288h-79v85h79v151l115 16v-167h140v-85h-140v-272c0 -51 13 -78 69 -78c31 0 67 12 88 24l19 -82c-25 -16 -76 -34 -128 -36l-4 -26c42 -8 81 -30 81 -89
c0 -66 -51 -105 -118 -105c-34 0 -63 9 -82 18z" />
    <glyph glyph-name="Tcaron" unicode="&#x164;" horiz-adv-x="571" 
d="M345 0h-117v626h-217v98h549v-98h-215v-626zM206 911l79 -76l81 78l82 -9l-112 -133h-103l-110 133z" />
    <glyph glyph-name="tcaron" unicode="&#x165;" horiz-adv-x="392" 
d="M364 106l19 -82c-26 -17 -82 -36 -137 -36c-102 0 -154 46 -154 156v288h-79v85h79v151l115 16v-167h140v-85h-140v-272c0 -51 13 -78 69 -78c31 0 67 12 88 24zM256 571l33 192h112l-63 -201z" />
    <glyph glyph-name="Tbar" unicode="&#x166;" horiz-adv-x="571" 
d="M345 0h-117v315h-138v89h138v222h-217v98h549v-98h-215v-222h136v-89h-136v-315z" />
    <glyph glyph-name="tbar" unicode="&#x167;" horiz-adv-x="392" 
d="M364 106l19 -82c-26 -17 -82 -36 -137 -36c-102 0 -154 46 -154 156v100h-79v84h79v104h-79v85h79v151l115 16v-167h140v-85h-140v-104h140v-84h-140v-84c0 -51 13 -78 69 -78c31 0 67 12 88 24z" />
    <glyph glyph-name="uni021A" unicode="&#x21a;" horiz-adv-x="571" 
d="M345 0h-117v626h-217v98h549v-98h-215v-626zM195 -243l42 175h114l-74 -187z" />
    <glyph glyph-name="uni021B" unicode="&#x21b;" horiz-adv-x="392" 
d="M364 106l19 -82c-26 -17 -82 -36 -137 -36c-102 0 -154 46 -154 156v288h-79v85h79v151l115 16v-167h140v-85h-140v-272c0 -51 13 -78 69 -78c31 0 67 12 88 24zM136 -243l42 175h114l-74 -187z" />
    <glyph glyph-name="Utilde" unicode="&#x168;" horiz-adv-x="711" 
d="M357 86c111 0 157 47 157 176v462h117v-474c0 -181 -107 -262 -280 -262c-191 0 -271 88 -271 265v471h117v-459c0 -126 48 -179 160 -179zM280 915c64 0 105 -45 150 -45c24 0 34 9 34 48l64 -3c10 -82 -26 -129 -87 -129c-65 0 -109 45 -153 45c-22 0 -36 -10 -33 -51
l-66 3c-11 86 33 132 91 132z" />
    <glyph glyph-name="utilde" unicode="&#x169;" horiz-adv-x="580" 
d="M70 164v353h115v-333c0 -65 20 -98 81 -98c51 0 105 31 130 54v377h115v-517h-100l-8 57c-45 -41 -106 -68 -177 -68c-108 0 -156 59 -156 175zM215 722c64 0 105 -45 150 -45c24 0 34 9 34 49l64 -4c10 -82 -26 -129 -87 -129c-65 0 -109 46 -153 46
c-22 0 -36 -11 -33 -52l-66 3c-10 86 33 132 91 132z" />
    <glyph glyph-name="Umacron" unicode="&#x16a;" horiz-adv-x="711" 
d="M357 86c111 0 157 47 157 176v462h117v-474c0 -181 -107 -262 -280 -262c-191 0 -271 88 -271 265v471h117v-459c0 -126 48 -179 160 -179zM512 790h-311v83h311v-83z" />
    <glyph glyph-name="umacron" unicode="&#x16b;" horiz-adv-x="580" 
d="M70 164v353h115v-333c0 -65 20 -98 81 -98c51 0 105 31 130 54v377h115v-517h-100l-8 57c-45 -41 -106 -68 -177 -68c-108 0 -156 59 -156 175zM441 616h-299v83h299v-83z" />
    <glyph glyph-name="Ubreve" unicode="&#x16c;" horiz-adv-x="711" 
d="M357 86c111 0 157 47 157 176v462h117v-474c0 -181 -107 -262 -280 -262c-191 0 -271 88 -271 265v471h117v-459c0 -126 48 -179 160 -179zM358 850c45 0 71 16 81 70l79 -6c-10 -95 -70 -139 -164 -139c-91 0 -145 42 -152 137l80 8c9 -52 32 -70 76 -70z" />
    <glyph glyph-name="ubreve" unicode="&#x16d;" horiz-adv-x="580" 
d="M70 164v353h115v-333c0 -65 20 -98 81 -98c51 0 105 31 130 54v377h115v-517h-100l-8 57c-45 -41 -106 -68 -177 -68c-108 0 -156 59 -156 175zM379 734l78 -6c-5 -105 -65 -157 -165 -157c-96 0 -151 48 -155 155l80 9c6 -67 30 -89 79 -89c50 0 77 20 83 88z" />
    <glyph glyph-name="Uring" unicode="&#x16e;" horiz-adv-x="711" 
d="M357 86c111 0 157 47 157 176v462h117v-474c0 -181 -107 -262 -280 -262c-191 0 -271 88 -271 265v471h117v-459c0 -126 48 -179 160 -179zM466 834c0 -67 -44 -104 -110 -104c-65 0 -110 36 -110 100c0 71 51 106 110 106c60 0 110 -33 110 -102zM355 784
c32 0 49 19 49 51s-18 48 -48 48c-29 0 -51 -17 -51 -50c0 -32 19 -49 50 -49z" />
    <glyph glyph-name="uring" unicode="&#x16f;" horiz-adv-x="580" 
d="M70 164v353h115v-333c0 -65 20 -98 81 -98c51 0 105 31 130 54v377h115v-517h-100l-8 57c-45 -41 -106 -68 -177 -68c-108 0 -156 59 -156 175zM401 674c0 -65 -44 -102 -109 -102s-109 36 -109 98c0 70 51 106 109 106c60 0 109 -33 109 -102zM291 626c30 0 47 18 47 48
s-17 46 -46 46c-28 0 -48 -16 -48 -47s17 -47 47 -47z" />
    <glyph glyph-name="Uhungarumlaut" unicode="&#x170;" horiz-adv-x="711" 
d="M357 86c111 0 157 47 157 176v462h117v-474c0 -181 -107 -262 -280 -262c-191 0 -271 88 -271 265v471h117v-459c0 -126 48 -179 160 -179zM422 914l-107 -147l-79 13l60 134h126zM600 918l-146 -151l-81 11l97 140h130z" />
    <glyph glyph-name="uhungarumlaut" unicode="&#x171;" horiz-adv-x="580" 
d="M70 164v353h115v-333c0 -65 20 -98 81 -98c51 0 105 31 130 54v377h115v-517h-100l-8 57c-45 -41 -106 -68 -177 -68c-108 0 -156 59 -156 175zM360 745l-110 -173l-77 13l62 160h125zM537 748l-144 -176l-80 10l94 166h130z" />
    <glyph glyph-name="Uogonek" unicode="&#x172;" horiz-adv-x="711" 
d="M493 -117l55 -27c-22 -58 -73 -88 -127 -88c-66 0 -106 33 -106 91c0 55 34 97 74 131c-12 -1 -25 -2 -38 -2c-191 0 -271 88 -271 265v471h117v-459c0 -126 48 -179 160 -179c111 0 157 47 157 176v462h117v-474c0 -121 -48 -188 -121 -237c-59 -40 -103 -89 -103 -134
c0 -24 12 -37 35 -37c21 0 37 13 51 41z" />
    <glyph glyph-name="uogonek" unicode="&#x173;" horiz-adv-x="580" 
d="M501 -117l55 -27c-22 -58 -73 -88 -127 -88c-66 0 -106 33 -106 91c0 61 43 107 88 141l-8 57c-45 -41 -106 -68 -177 -68c-108 0 -156 59 -156 175v353h115v-333c0 -65 20 -98 81 -98c51 0 105 31 130 54v377h115v-517c-63 -45 -96 -78 -96 -121c0 -24 12 -37 35 -37
c21 0 37 13 51 41z" />
    <glyph glyph-name="Wcircumflex" unicode="&#x174;" horiz-adv-x="919" 
d="M752 0h-149l-140 557h-2l-141 -557h-149l-158 724h123l115 -594h2l147 594h127l150 -599h2l109 599h117zM543 769l-79 76l-81 -78l-82 9l112 133h103l110 -133z" />
    <glyph glyph-name="wcircumflex" unicode="&#x175;" horiz-adv-x="781" 
d="M297 0h-137l-158 517h116l113 -398h1l104 398h116l104 -396h1l110 396h112l-158 -517h-132l-97 379h-2zM557 582l-81 -5l-83 105l-83 -107l-82 7l109 165h111z" />
    <glyph glyph-name="Wgrave" unicode="&#x1e80;" horiz-adv-x="919" 
d="M752 0h-149l-140 557h-2l-141 -557h-149l-158 724h123l115 -594h2l147 594h127l150 -599h2l109 599h117zM458 767l-142 148h131l95 -137z" />
    <glyph glyph-name="wgrave" unicode="&#x1e81;" horiz-adv-x="781" 
d="M297 0h-137l-158 517h116l113 -398h1l104 398h116l104 -396h1l110 396h112l-158 -517h-132l-97 379h-2zM403 572l-138 174h130l88 -164z" />
    <glyph glyph-name="Wacute" unicode="&#x1e82;" horiz-adv-x="919" 
d="M752 0h-149l-140 557h-2l-141 -557h-149l-158 724h123l115 -594h2l147 594h127l150 -599h2l109 599h117zM610 915l-142 -148l-84 11l96 137h130z" />
    <glyph glyph-name="wacute" unicode="&#x1e83;" horiz-adv-x="781" 
d="M297 0h-137l-158 517h116l113 -398h1l104 398h116l104 -396h1l110 396h112l-158 -517h-132l-97 379h-2zM528 746l-138 -174l-80 10l88 164h130z" />
    <glyph glyph-name="Wdieresis" unicode="&#x1e84;" horiz-adv-x="919" 
d="M752 0h-149l-140 557h-2l-141 -557h-149l-158 724h123l115 -594h2l147 594h127l150 -599h2l109 599h117zM427 848c0 -44 -30 -70 -73 -70c-44 0 -74 26 -74 70c0 43 30 70 74 70c43 0 73 -27 73 -70zM647 848c0 -44 -30 -70 -73 -70c-45 0 -74 26 -74 70
c0 43 29 70 74 70c43 0 73 -27 73 -70z" />
    <glyph glyph-name="wdieresis" unicode="&#x1e85;" horiz-adv-x="781" 
d="M297 0h-137l-158 517h116l113 -398h1l104 398h116l104 -396h1l110 396h112l-158 -517h-132l-97 379h-2zM357 675c0 -44 -30 -71 -73 -71c-44 0 -74 27 -74 71c0 42 30 70 74 70c43 0 73 -28 73 -70zM577 675c0 -44 -30 -71 -73 -71c-45 0 -74 27 -74 71c0 42 29 70 74 70
c43 0 73 -28 73 -70z" />
    <glyph glyph-name="Ygrave" unicode="&#x1ef2;" horiz-adv-x="582" 
d="M355 279l1 -279h-118v277l-248 447h128l180 -336h2l174 336h118zM287 767l-142 148h131l95 -137z" />
    <glyph glyph-name="ygrave" unicode="&#x1ef3;" horiz-adv-x="502" 
d="M197 -8l-194 525h124l127 -388h1l127 388h118c-69 -190 -149 -405 -216 -583c-42 -114 -88 -157 -180 -157c-39 0 -83 10 -104 20l11 86c22 -8 56 -16 81 -16c35 0 63 18 84 71zM248 572l-138 174h130l88 -164z" />
    <glyph glyph-name="Ycircumflex" unicode="&#x176;" horiz-adv-x="582" 
d="M355 279l1 -279h-118v277l-248 447h128l180 -336h2l174 336h118zM372 769l-79 76l-81 -78l-82 9l112 133h103l110 -133z" />
    <glyph glyph-name="ycircumflex" unicode="&#x177;" horiz-adv-x="502" 
d="M197 -8l-194 525h124l127 -388h1l127 388h118c-69 -190 -149 -405 -216 -583c-42 -114 -88 -157 -180 -157c-39 0 -83 10 -104 20l11 86c22 -8 56 -16 81 -16c35 0 63 18 84 71zM419 582l-81 -5l-83 105l-83 -107l-82 7l109 165h111z" />
    <glyph glyph-name="Ydieresis" unicode="&#x178;" horiz-adv-x="582" 
d="M355 279l1 -279h-118v277l-248 447h128l180 -336h2l174 336h118zM256 848c0 -44 -30 -70 -73 -70c-44 0 -74 26 -74 70c0 43 30 70 74 70c43 0 73 -27 73 -70zM476 848c0 -44 -30 -70 -73 -70c-45 0 -74 26 -74 70c0 43 29 70 74 70c43 0 73 -27 73 -70z" />
    <glyph glyph-name="Zacute" unicode="&#x179;" horiz-adv-x="589" 
d="M538 637l-365 -539h380v-98h-522v84l369 542h-359v98h497v-87zM431 915l-142 -148l-84 11l96 137h130z" />
    <glyph glyph-name="zacute" unicode="&#x17a;" horiz-adv-x="462" 
d="M426 434l-267 -340h279v-94h-409v82l269 345h-265v90h393v-83zM386 746l-138 -174l-80 10l88 164h130z" />
    <glyph glyph-name="Zdotaccent" unicode="&#x17b;" horiz-adv-x="589" 
d="M538 637l-365 -539h380v-98h-522v84l369 542h-359v98h497v-87zM359 854c0 -48 -28 -76 -75 -76c-48 0 -75 28 -75 76s27 75 75 75c47 0 75 -27 75 -75z" />
    <glyph glyph-name="zdotaccent" unicode="&#x17c;" horiz-adv-x="462" 
d="M426 434l-267 -340h279v-94h-409v82l269 345h-265v90h393v-83zM306 680c0 -49 -28 -76 -75 -76c-48 0 -75 27 -75 76c0 48 27 75 75 75c47 0 75 -27 75 -75z" />
    <glyph glyph-name="Zcaron" unicode="&#x17d;" horiz-adv-x="589" 
d="M538 637l-365 -539h380v-98h-522v84l369 542h-359v98h497v-87zM205 911l79 -76l81 78l82 -9l-112 -133h-103l-110 133z" />
    <glyph glyph-name="zcaron" unicode="&#x17e;" horiz-adv-x="462" 
d="M426 434l-267 -340h279v-94h-409v82l269 345h-265v90h393v-83zM66 736l85 6l81 -105l84 106l79 -7l-109 -164h-111z" />
    <glyph glyph-name="longs" unicode="&#x17f;" horiz-adv-x="291" 
d="M341 747l-4 -83c-20 7 -47 13 -71 13c-47 0 -80 -17 -80 -89v-588h-115v591c0 119 64 174 168 174c47 0 85 -10 102 -18z" />
    <glyph glyph-name="dotlessj" unicode="&#x237;" horiz-adv-x="255" 
d="M25 -223c-41 0 -88 11 -107 23l10 88c20 -8 50 -17 78 -17c39 0 67 19 67 80v566h115v-573c0 -118 -63 -167 -163 -167z" />
    <glyph glyph-name="s_t" unicode="&#xfb06;" horiz-adv-x="854" 
d="M826 104l19 -80c-26 -17 -82 -36 -137 -36c-102 0 -154 46 -154 156v524l115 16v-167h140v-85h-140v-274c0 -51 13 -78 69 -78c31 0 67 12 88 24zM252 528c120 0 176 -57 196 -147l-100 -26c-12 51 -31 87 -98 87c-63 0 -89 -27 -89 -61c0 -48 44 -62 112 -74
c89 -16 184 -37 184 -155c0 -107 -86 -164 -213 -164c-124 0 -195 50 -211 146l98 32c13 -49 34 -92 117 -92c57 0 97 18 97 62c0 52 -42 61 -108 74c-84 17 -184 35 -184 158c0 108 91 160 199 160z" />
    <glyph glyph-name="s_p" horiz-adv-x="1062" 
d="M549 -212v729h99l6 -55c46 43 105 66 173 66c109 0 191 -68 191 -257c0 -204 -98 -283 -214 -283c-62 0 -108 21 -144 50v-250h-111zM663 379v-251c20 -16 66 -46 116 -46c87 0 119 73 119 187c0 119 -36 165 -109 165c-49 0 -98 -29 -126 -55zM252 528
c120 0 176 -57 196 -147l-100 -26c-12 51 -31 87 -98 87c-63 0 -89 -27 -89 -61c0 -48 44 -62 112 -74c89 -16 184 -37 184 -155c0 -107 -86 -164 -213 -164c-124 0 -195 50 -211 146l98 32c13 -49 34 -92 117 -92c57 0 97 18 97 62c0 52 -42 61 -108 74
c-84 17 -184 35 -184 158c0 108 91 160 199 160z" />
    <glyph glyph-name="c_t" horiz-adv-x="904" 
d="M876 104l19 -80c-26 -17 -82 -36 -137 -36c-102 0 -154 46 -154 156v524l115 16v-167h140v-85h-140v-274c0 -51 13 -78 69 -78c31 0 67 12 88 24zM285 -12c-171 0 -242 110 -242 264c0 179 94 276 256 276c114 0 195 -67 204 -189l-106 -15c-8 68 -36 112 -103 112
s-131 -34 -131 -171c0 -140 56 -183 128 -183c64 0 102 31 114 103l100 -20c-17 -124 -109 -177 -220 -177z" />
    <glyph glyph-name="c_h" horiz-adv-x="1112" 
d="M1046 352v-352h-115v333c0 65 -24 99 -85 99c-52 0 -106 -32 -131 -55v-377h-115v755h114v-289c45 36 101 62 173 62c111 0 159 -59 159 -176zM285 -12c-171 0 -242 110 -242 264c0 179 94 276 256 276c114 0 195 -67 204 -189l-106 -15c-8 68 -36 112 -103 112
s-131 -34 -131 -171c0 -140 56 -183 128 -183c64 0 102 31 114 103l100 -20c-17 -124 -109 -177 -220 -177z" />
    <glyph glyph-name="c_k" horiz-adv-x="1070" 
d="M285 -12c-171 0 -242 110 -242 264c0 179 94 276 256 276c114 0 195 -67 204 -189l-106 -15c-8 68 -36 112 -103 112s-131 -34 -131 -171c0 -140 56 -183 128 -183c64 0 102 31 114 103l100 -20c-17 -124 -109 -177 -220 -177zM713 755v-447l201 209h129l-176 -186
l189 -331h-126l-149 255l-68 -67v-188h-115v755h115z" />
    <glyph glyph-name="T_h" horiz-adv-x="1061" 
d="M995 352v-352h-115v333c0 65 -24 99 -85 99c-52 0 -107 -32 -131 -55v-377h-115v626h-204v-626h-117v626h-217v98h538v31h114v-289c45 36 100 62 173 62c110 0 159 -59 159 -176z" />
    <glyph glyph-name="a.smcp" horiz-adv-x="577" 
d="M212 556h143l203 -556h-125l-50 136h-198l-46 -136h-117zM358 229l-74 224h-2l-75 -224h151z" />
    <glyph glyph-name="b.smcp" horiz-adv-x="522" 
d="M275 0h-205v556h224c136 0 175 -60 175 -136c0 -75 -53 -114 -112 -129v-2c93 -12 135 -60 135 -136c0 -114 -92 -153 -217 -153zM184 88h70c69 0 116 8 116 78c0 67 -56 71 -121 71h-65v-149zM184 322h52c58 0 120 11 120 78c0 68 -48 70 -116 70h-56v-148z" />
    <glyph glyph-name="c.smcp" horiz-adv-x="569" 
d="M303 -9c-189 0 -263 109 -263 281c0 178 98 294 276 294c128 0 217 -62 225 -200l-104 -10c-8 82 -45 117 -122 117c-98 0 -157 -60 -157 -195c0 -141 53 -194 151 -194c81 0 114 40 129 102l101 -17c-19 -131 -133 -178 -236 -178z" />
    <glyph glyph-name="d.smcp" horiz-adv-x="593" 
d="M254 0h-184v556h198c200 0 286 -104 286 -270c0 -170 -93 -286 -300 -286zM184 90h67c134 0 186 71 186 189c0 145 -60 186 -179 186h-74v-375z" />
    <glyph glyph-name="e.smcp" horiz-adv-x="480" 
d="M184 233v-138h261v-95h-375v556h361v-95h-247v-139h232v-89h-232z" />
    <glyph glyph-name="f.smcp" horiz-adv-x="456" 
d="M184 221v-221h-114v556h359v-95h-245v-148h225v-92h-225z" />
    <glyph glyph-name="g.smcp" horiz-adv-x="604" 
d="M464 0l-13 69c-26 -47 -94 -78 -167 -78c-173 0 -244 116 -244 278c0 181 96 297 277 297c126 0 215 -56 226 -195l-107 -10c-6 65 -36 112 -121 112c-105 0 -156 -70 -156 -194c0 -139 48 -198 151 -198c81 0 124 58 124 101v24h-113v83h226v-289h-83z" />
    <glyph glyph-name="h.smcp" horiz-adv-x="599" 
d="M529 556v-556h-114v231h-231v-231h-114v556h114v-228h231v228h114z" />
    <glyph glyph-name="i.smcp" horiz-adv-x="254" 
d="M184 556v-556h-114v556h114z" />
    <glyph glyph-name="j.smcp" horiz-adv-x="434" 
d="M255 150v406h115v-403c0 -110 -67 -162 -178 -162c-98 0 -166 38 -171 151l110 17c5 -47 13 -78 63 -78c38 0 61 16 61 69z" />
    <glyph glyph-name="k.smcp" horiz-adv-x="548" 
d="M184 556v-246l229 246h123l-214 -233l213 -323h-134l-160 238l-57 -60v-178h-114v556h114z" />
    <glyph glyph-name="l.smcp" horiz-adv-x="466" 
d="M184 556v-461h249v-95h-363v556h114z" />
    <glyph glyph-name="m.smcp" horiz-adv-x="743" 
d="M673 556v-556h-107v444h-3l-142 -444h-105l-138 445h-3v-445h-105v556h171l130 -418h3l129 418h170z" />
    <glyph glyph-name="n.smcp" horiz-adv-x="610" 
d="M540 0h-133l-232 406v-406h-105v556h139l227 -406v406h104v-556z" />
    <glyph glyph-name="o.smcp" horiz-adv-x="621" 
d="M307 -9c-189 0 -267 119 -267 285c0 165 95 290 279 290c185 0 263 -125 263 -280c0 -180 -90 -295 -275 -295zM311 85c90 0 153 52 153 195c0 134 -56 192 -147 192c-96 0 -159 -59 -159 -194c0 -139 59 -193 153 -193z" />
    <glyph glyph-name="p.smcp" horiz-adv-x="510" 
d="M183 181v-181h-113v556h213c148 0 192 -84 192 -172c0 -133 -77 -203 -225 -203h-67zM183 273h56c66 0 118 17 118 103c0 79 -48 88 -123 88h-51v-191z" />
    <glyph glyph-name="q.smcp" horiz-adv-x="621" 
d="M315 -9c-189 0 -267 119 -267 285c0 165 95 290 279 290c185 0 263 -125 263 -280c0 -92 -24 -166 -71 -218l59 -62l-62 -55l-65 67c-37 -18 -83 -27 -136 -27zM319 85c21 0 42 3 60 10l-90 94l63 58l92 -98c18 30 28 73 28 131c0 134 -56 192 -147 192
c-96 0 -159 -59 -159 -194c0 -139 59 -193 153 -193z" />
    <glyph glyph-name="r.smcp" horiz-adv-x="525" 
d="M379 241l132 -241h-123l-117 213h-88v-213h-113v556h220c143 0 190 -75 190 -155c0 -83 -41 -135 -101 -160zM183 302h72c59 0 107 18 107 85c0 61 -37 76 -105 76h-74v-161z" />
    <glyph glyph-name="s.smcp" horiz-adv-x="488" 
d="M246 477c-62 0 -91 -22 -91 -62c0 -125 301 -44 301 -250c0 -125 -104 -174 -218 -174c-105 0 -209 36 -220 176l105 14c10 -54 32 -101 118 -101c53 0 103 17 103 73c0 126 -303 34 -303 248c0 106 91 165 207 165c102 0 193 -36 202 -165l-105 -12c-5 52 -27 88 -99 88
z" />
    <glyph glyph-name="t.smcp" horiz-adv-x="485" 
d="M301 0h-115v461h-171v95h455v-95h-169v-461z" />
    <glyph glyph-name="u.smcp" horiz-adv-x="580" 
d="M291 86c84 0 111 36 111 129v341h115v-358c0 -145 -91 -207 -230 -207c-157 0 -224 67 -224 209v356h115v-338c0 -90 28 -132 113 -132z" />
    <glyph glyph-name="v.smcp" horiz-adv-x="537" 
d="M350 0h-155l-187 556h128l137 -448h4l135 448h118z" />
    <glyph glyph-name="w.smcp" horiz-adv-x="774" 
d="M635 0h-146l-98 396h-3l-98 -396h-150l-124 556h120l83 -436h3l107 436h123l109 -439h4l78 439h115z" />
    <glyph glyph-name="x.smcp" horiz-adv-x="531" 
d="M511 556l-178 -274l188 -282h-133l-128 193l-125 -193h-126l187 281l-178 275h130l120 -194l121 194h122z" />
    <glyph glyph-name="y.smcp" horiz-adv-x="493" 
d="M310 211v-211h-115v210l-199 346h125l131 -244h3l127 244h115z" />
    <glyph glyph-name="z.smcp" horiz-adv-x="486" 
d="M443 471l-275 -376h285v-95h-422v82l278 379h-271v95h405v-85z" />
    <glyph glyph-name="thorn.smcp" horiz-adv-x="500" 
d="M183 116v-116h-113v556h113v-85h91c149 0 191 -79 191 -175c0 -113 -74 -180 -215 -180h-67zM183 208h56c60 0 108 15 108 93c0 62 -44 78 -113 78h-51v-171z" />
    <glyph glyph-name="agrave.smcp" horiz-adv-x="577" 
d="M212 556h143l203 -556h-125l-50 136h-198l-46 -136h-117zM358 229l-74 224h-2l-75 -224h151zM276 607l-138 174h130l88 -164z" />
    <glyph glyph-name="aacute.smcp" horiz-adv-x="577" 
d="M212 556h143l203 -556h-125l-50 136h-198l-46 -136h-117zM358 229l-74 224h-2l-75 -224h151zM434 781l-138 -174l-80 10l88 164h130z" />
    <glyph glyph-name="acircumflex.smcp" horiz-adv-x="577" 
d="M212 556h143l203 -556h-125l-50 136h-198l-46 -136h-117zM358 229l-74 224h-2l-75 -224h151zM447 617l-81 -5l-83 105l-83 -107l-82 7l109 165h111z" />
    <glyph glyph-name="atilde.smcp" horiz-adv-x="577" 
d="M212 556h143l203 -556h-125l-50 136h-198l-46 -136h-117zM358 229l-74 224h-2l-75 -224h151zM206 757c64 0 105 -45 150 -45c24 0 34 9 34 49l64 -4c10 -82 -26 -129 -87 -129c-65 0 -109 46 -153 46c-22 0 -36 -11 -33 -52l-66 3c-10 86 33 132 91 132z" />
    <glyph glyph-name="adieresis.smcp" horiz-adv-x="577" 
d="M212 556h143l203 -556h-125l-50 136h-198l-46 -136h-117zM358 229l-74 224h-2l-75 -224h151zM247 710c0 -44 -30 -71 -73 -71c-44 0 -74 27 -74 71c0 42 30 70 74 70c43 0 73 -28 73 -70zM467 710c0 -44 -30 -71 -73 -71c-45 0 -74 27 -74 71c0 42 29 70 74 70
c43 0 73 -28 73 -70z" />
    <glyph glyph-name="aring.smcp" horiz-adv-x="577" 
d="M387 628c0 -33 -12 -58 -31 -75l202 -553h-125l-50 136h-198l-46 -136h-117l187 547c-24 17 -37 43 -37 77c0 69 50 105 108 105c59 0 107 -33 107 -101zM358 229l-74 224h-2l-75 -224h151zM279 581c29 0 46 18 46 47c0 30 -17 45 -45 45s-48 -15 -48 -46
c0 -30 17 -46 47 -46z" />
    <glyph glyph-name="aringacute.smcp" horiz-adv-x="577" 
d="M387 628c0 -33 -12 -58 -31 -75l202 -553h-125l-50 136h-198l-46 -136h-117l187 547c-24 17 -37 43 -37 77c0 69 50 105 108 105c59 0 107 -33 107 -101zM358 229l-74 224h-2l-75 -224h151zM442 889l-142 -148l-84 11l96 137h130zM279 581c29 0 46 18 46 47
c0 30 -17 45 -45 45s-48 -15 -48 -46c0 -30 17 -46 47 -46z" />
    <glyph glyph-name="ccedilla.smcp" horiz-adv-x="569" 
d="M199 -214l17 59c14 -6 32 -11 52 -11c32 0 50 15 50 41c0 32 -22 42 -70 43l11 76c-157 15 -219 120 -219 278c0 178 98 294 276 294c128 0 217 -62 225 -200l-104 -10c-8 82 -45 117 -122 117c-98 0 -157 -60 -157 -195c0 -141 53 -194 151 -194c81 0 114 40 129 102
l101 -17c-18 -123 -119 -172 -217 -177l-4 -30c42 -8 81 -30 81 -89c0 -66 -51 -105 -118 -105c-34 0 -63 9 -82 18z" />
    <glyph glyph-name="egrave.smcp" horiz-adv-x="480" 
d="M184 233v-138h261v-95h-375v556h361v-95h-247v-139h232v-89h-232zM265 607l-138 174h130l88 -164z" />
    <glyph glyph-name="eacute.smcp" horiz-adv-x="480" 
d="M184 233v-138h261v-95h-375v556h361v-95h-247v-139h232v-89h-232zM383 781l-138 -174l-80 10l88 164h130z" />
    <glyph glyph-name="ecircumflex.smcp" horiz-adv-x="480" 
d="M184 233v-138h261v-95h-375v556h361v-95h-247v-139h232v-89h-232zM419 617l-81 -5l-83 105l-83 -107l-82 7l109 165h111z" />
    <glyph glyph-name="edieresis.smcp" horiz-adv-x="480" 
d="M184 233v-138h261v-95h-375v556h361v-95h-247v-139h232v-89h-232zM219 710c0 -44 -30 -71 -73 -71c-44 0 -74 27 -74 71c0 42 30 70 74 70c43 0 73 -28 73 -70zM439 710c0 -44 -30 -71 -73 -71c-45 0 -74 27 -74 71c0 42 29 70 74 70c43 0 73 -28 73 -70z" />
    <glyph glyph-name="igrave.smcp" horiz-adv-x="254" 
d="M184 556v-556h-114v556h114zM111 607l-138 174h130l88 -164z" />
    <glyph glyph-name="iacute.smcp" horiz-adv-x="254" 
d="M184 556v-556h-114v556h114zM289 781l-138 -174l-80 10l88 164h130z" />
    <glyph glyph-name="icircumflex.smcp" horiz-adv-x="254" 
d="M184 556v-556h-114v556h114zM291 617l-81 -5l-83 105l-83 -107l-82 7l109 165h111z" />
    <glyph glyph-name="idieresis.smcp" horiz-adv-x="254" 
d="M184 556v-556h-114v556h114zM91 710c0 -44 -30 -71 -73 -71c-44 0 -74 27 -74 71c0 42 30 70 74 70c43 0 73 -28 73 -70zM311 710c0 -44 -30 -71 -73 -71c-45 0 -74 27 -74 71c0 42 29 70 74 70c43 0 73 -28 73 -70z" />
    <glyph glyph-name="eth.smcp" horiz-adv-x="593" 
d="M254 0h-184v237h-56v91h56v228h198c200 0 286 -104 286 -270c0 -170 -93 -286 -300 -286zM184 90h67c134 0 186 71 186 189c0 145 -60 186 -179 186h-74v-137h145v-91h-145v-147z" />
    <glyph glyph-name="ntilde.smcp" horiz-adv-x="610" 
d="M540 0h-133l-232 406v-406h-105v556h139l227 -406v406h104v-556zM233 757c64 0 105 -45 150 -45c24 0 34 9 34 49l64 -4c10 -82 -26 -129 -87 -129c-65 0 -109 46 -153 46c-22 0 -36 -11 -33 -52l-66 3c-10 86 33 132 91 132z" />
    <glyph glyph-name="ograve.smcp" horiz-adv-x="621" 
d="M307 -9c-189 0 -267 119 -267 285c0 165 95 290 279 290c185 0 263 -125 263 -280c0 -180 -90 -295 -275 -295zM311 85c90 0 153 52 153 195c0 134 -56 192 -147 192c-96 0 -159 -59 -159 -194c0 -139 59 -193 153 -193zM327 607l-138 174h130l88 -164z" />
    <glyph glyph-name="oacute.smcp" horiz-adv-x="621" 
d="M307 -9c-189 0 -267 119 -267 285c0 165 95 290 279 290c185 0 263 -125 263 -280c0 -180 -90 -295 -275 -295zM311 85c90 0 153 52 153 195c0 134 -56 192 -147 192c-96 0 -159 -59 -159 -194c0 -139 59 -193 153 -193zM445 781l-138 -174l-80 10l88 164h130z" />
    <glyph glyph-name="ocircumflex.smcp" horiz-adv-x="621" 
d="M307 -9c-189 0 -267 119 -267 285c0 165 95 290 279 290c185 0 263 -125 263 -280c0 -180 -90 -295 -275 -295zM311 85c90 0 153 52 153 195c0 134 -56 192 -147 192c-96 0 -159 -59 -159 -194c0 -139 59 -193 153 -193zM481 617l-81 -5l-83 105l-83 -107l-82 7l109 165
h111z" />
    <glyph glyph-name="otilde.smcp" horiz-adv-x="621" 
d="M307 -9c-189 0 -267 119 -267 285c0 165 95 290 279 290c185 0 263 -125 263 -280c0 -180 -90 -295 -275 -295zM311 85c90 0 153 52 153 195c0 134 -56 192 -147 192c-96 0 -159 -59 -159 -194c0 -139 59 -193 153 -193zM240 757c64 0 105 -45 150 -45c24 0 34 9 34 49
l64 -4c10 -82 -26 -129 -87 -129c-65 0 -109 46 -153 46c-22 0 -36 -11 -33 -52l-66 3c-10 86 33 132 91 132z" />
    <glyph glyph-name="odieresis.smcp" horiz-adv-x="621" 
d="M307 -9c-189 0 -267 119 -267 285c0 165 95 290 279 290c185 0 263 -125 263 -280c0 -180 -90 -295 -275 -295zM311 85c90 0 153 52 153 195c0 134 -56 192 -147 192c-96 0 -159 -59 -159 -194c0 -139 59 -193 153 -193zM281 710c0 -44 -30 -71 -73 -71
c-44 0 -74 27 -74 71c0 42 30 70 74 70c43 0 73 -28 73 -70zM501 710c0 -44 -30 -71 -73 -71c-45 0 -74 27 -74 71c0 42 29 70 74 70c43 0 73 -28 73 -70z" />
    <glyph glyph-name="oslash.smcp" horiz-adv-x="621" 
d="M307 -9c-31 0 -58 3 -83 9l-34 -67h-113l56 109c-65 50 -93 133 -93 234c0 165 95 290 279 290c28 0 53 -3 76 -8l30 58h112l-51 -100c66 -50 96 -135 96 -230c0 -180 -90 -295 -275 -295zM311 85c90 0 153 52 153 195c0 58 -11 102 -30 133l-165 -324c13 -3 27 -4 42 -4
zM158 278c0 -58 10 -100 28 -131l164 322c-11 2 -22 3 -33 3c-96 0 -159 -59 -159 -194z" />
    <glyph glyph-name="oslashacute.smcp" horiz-adv-x="621" 
d="M307 -9c-31 0 -58 3 -83 9l-34 -67h-113l56 109c-65 50 -93 133 -93 234c0 165 95 290 279 290c28 0 53 -3 76 -8l30 58h112l-51 -100c66 -50 96 -135 96 -230c0 -180 -90 -295 -275 -295zM311 85c90 0 153 52 153 195c0 58 -11 102 -30 133l-165 -324c13 -3 27 -4 42 -4
zM158 278c0 -58 10 -100 28 -131l164 322c-11 2 -22 3 -33 3c-96 0 -159 -59 -159 -194zM445 781l-138 -174l-80 10l88 164h130z" />
    <glyph glyph-name="ugrave.smcp" horiz-adv-x="580" 
d="M291 86c84 0 111 36 111 129v341h115v-358c0 -145 -91 -207 -230 -207c-157 0 -224 67 -224 209v356h115v-338c0 -90 28 -132 113 -132zM284 607l-138 174h130l88 -164z" />
    <glyph glyph-name="uacute.smcp" horiz-adv-x="580" 
d="M291 86c84 0 111 36 111 129v341h115v-358c0 -145 -91 -207 -230 -207c-157 0 -224 67 -224 209v356h115v-338c0 -90 28 -132 113 -132zM433 781l-138 -174l-80 10l88 164h130z" />
    <glyph glyph-name="ucircumflex.smcp" horiz-adv-x="580" 
d="M291 86c84 0 111 36 111 129v341h115v-358c0 -145 -91 -207 -230 -207c-157 0 -224 67 -224 209v356h115v-338c0 -90 28 -132 113 -132zM453 617l-81 -5l-83 105l-83 -107l-82 7l109 165h111z" />
    <glyph glyph-name="udieresis.smcp" horiz-adv-x="580" 
d="M291 86c84 0 111 36 111 129v341h115v-358c0 -145 -91 -207 -230 -207c-157 0 -224 67 -224 209v356h115v-338c0 -90 28 -132 113 -132zM253 710c0 -44 -30 -71 -73 -71c-44 0 -74 27 -74 71c0 42 30 70 74 70c43 0 73 -28 73 -70zM473 710c0 -44 -30 -71 -73 -71
c-45 0 -74 27 -74 71c0 42 29 70 74 70c43 0 73 -28 73 -70z" />
    <glyph glyph-name="yacute.smcp" horiz-adv-x="493" 
d="M310 211v-211h-115v210l-199 346h125l131 -244h3l127 244h115zM408 781l-138 -174l-80 10l88 164h130z" />
    <glyph glyph-name="ydieresis.smcp" horiz-adv-x="493" 
d="M310 211v-211h-115v210l-199 346h125l131 -244h3l127 244h115zM214 710c0 -44 -30 -71 -73 -71c-44 0 -74 27 -74 71c0 42 30 70 74 70c43 0 73 -28 73 -70zM434 710c0 -44 -30 -71 -73 -71c-45 0 -74 27 -74 71c0 42 29 70 74 70c43 0 73 -28 73 -70z" />
    <glyph glyph-name="amacron.smcp" horiz-adv-x="577" 
d="M212 556h143l203 -556h-125l-50 136h-198l-46 -136h-117zM358 229l-74 224h-2l-75 -224h151zM432 651h-299v83h299v-83z" />
    <glyph glyph-name="abreve.smcp" horiz-adv-x="577" 
d="M212 556h143l203 -556h-125l-50 136h-198l-46 -136h-117zM358 229l-74 224h-2l-75 -224h151zM370 769l78 -6c-5 -105 -65 -157 -165 -157c-96 0 -151 48 -155 155l80 9c6 -67 30 -89 79 -89c50 0 77 20 83 88z" />
    <glyph glyph-name="aogonek.smcp" horiz-adv-x="577" 
d="M534 -117l55 -27c-22 -58 -73 -88 -127 -88c-66 0 -106 33 -106 91c0 61 37 104 77 141l-50 136h-198l-46 -136h-117l190 556h143l203 -556c-62 -27 -110 -78 -110 -121c0 -24 12 -37 35 -37c21 0 37 13 51 41zM358 229l-74 224h-2l-75 -224h151z" />
    <glyph glyph-name="cacute.smcp" horiz-adv-x="569" 
d="M303 -9c-189 0 -263 109 -263 281c0 178 98 294 276 294c128 0 217 -62 225 -200l-104 -10c-8 82 -45 117 -122 117c-98 0 -157 -60 -157 -195c0 -141 53 -194 151 -194c81 0 114 40 129 102l101 -17c-19 -131 -133 -178 -236 -178zM443 781l-138 -174l-80 10l88 164h130
z" />
    <glyph glyph-name="ccircumflex.smcp" horiz-adv-x="569" 
d="M303 -9c-189 0 -263 109 -263 281c0 178 98 294 276 294c128 0 217 -62 225 -200l-104 -10c-8 82 -45 117 -122 117c-98 0 -157 -60 -157 -195c0 -141 53 -194 151 -194c81 0 114 40 129 102l101 -17c-19 -131 -133 -178 -236 -178zM479 617l-81 -5l-83 105l-83 -107
l-82 7l109 165h111z" />
    <glyph glyph-name="cdotaccent.smcp" horiz-adv-x="569" 
d="M303 -9c-189 0 -263 109 -263 281c0 178 98 294 276 294c128 0 217 -62 225 -200l-104 -10c-8 82 -45 117 -122 117c-98 0 -157 -60 -157 -195c0 -141 53 -194 151 -194c81 0 114 40 129 102l101 -17c-19 -131 -133 -178 -236 -178zM390 715c0 -49 -28 -76 -75 -76
c-48 0 -75 27 -75 76c0 48 27 75 75 75c47 0 75 -27 75 -75z" />
    <glyph glyph-name="ccaron.smcp" horiz-adv-x="569" 
d="M303 -9c-189 0 -263 109 -263 281c0 178 98 294 276 294c128 0 217 -62 225 -200l-104 -10c-8 82 -45 117 -122 117c-98 0 -157 -60 -157 -195c0 -141 53 -194 151 -194c81 0 114 40 129 102l101 -17c-19 -131 -133 -178 -236 -178zM150 771l85 6l81 -105l84 106l79 -7
l-109 -164h-111z" />
    <glyph glyph-name="dcaron.smcp" horiz-adv-x="593" 
d="M254 0h-184v556h198c200 0 286 -104 286 -270c0 -170 -93 -286 -300 -286zM184 90h67c134 0 186 71 186 189c0 145 -60 186 -179 186h-74v-375zM96 771l85 6l81 -105l84 106l79 -7l-109 -164h-111z" />
    <glyph glyph-name="dcroat.smcp" horiz-adv-x="593" 
d="M254 0h-184v237h-56v91h56v228h198c200 0 286 -104 286 -270c0 -170 -93 -286 -300 -286zM184 90h67c134 0 186 71 186 189c0 145 -60 186 -179 186h-74v-137h145v-91h-145v-147z" />
    <glyph glyph-name="emacron.smcp" horiz-adv-x="480" 
d="M184 233v-138h261v-95h-375v556h361v-95h-247v-139h232v-89h-232zM404 651h-299v83h299v-83z" />
    <glyph glyph-name="ebreve.smcp" horiz-adv-x="480" 
d="M184 233v-138h261v-95h-375v556h361v-95h-247v-139h232v-89h-232zM342 769l78 -6c-5 -105 -65 -157 -165 -157c-96 0 -151 48 -155 155l80 9c6 -67 30 -89 79 -89c50 0 77 20 83 88z" />
    <glyph glyph-name="edotaccent.smcp" horiz-adv-x="480" 
d="M184 233v-138h261v-95h-375v556h361v-95h-247v-139h232v-89h-232zM330 715c0 -49 -28 -76 -75 -76c-48 0 -75 27 -75 76c0 48 27 75 75 75c47 0 75 -27 75 -75z" />
    <glyph glyph-name="eogonek.smcp" horiz-adv-x="480" 
d="M402 -117l55 -27c-22 -58 -73 -88 -127 -88c-66 0 -106 33 -106 91c0 61 42 106 87 141h-241v556h361v-95h-247v-139h232v-89h-232v-138h261v-95h-48c-48 -45 -81 -78 -81 -121c0 -24 12 -37 35 -37c21 0 37 13 51 41z" />
    <glyph glyph-name="ecaron.smcp" horiz-adv-x="480" 
d="M184 233v-138h261v-95h-375v556h361v-95h-247v-139h232v-89h-232zM90 771l85 6l81 -105l84 106l79 -7l-109 -164h-111z" />
    <glyph glyph-name="gcircumflex.smcp" horiz-adv-x="604" 
d="M464 0l-13 69c-26 -47 -94 -78 -167 -78c-173 0 -244 116 -244 278c0 181 96 297 277 297c126 0 215 -56 226 -195l-107 -10c-6 65 -36 112 -121 112c-105 0 -156 -70 -156 -194c0 -139 48 -198 151 -198c81 0 124 58 124 101v24h-113v83h226v-289h-83zM478 617l-81 -5
l-83 105l-83 -107l-82 7l109 165h111z" />
    <glyph glyph-name="gbreve.smcp" horiz-adv-x="604" 
d="M464 0l-13 69c-26 -47 -94 -78 -167 -78c-173 0 -244 116 -244 278c0 181 96 297 277 297c126 0 215 -56 226 -195l-107 -10c-6 65 -36 112 -121 112c-105 0 -156 -70 -156 -194c0 -139 48 -198 151 -198c81 0 124 58 124 101v24h-113v83h226v-289h-83zM401 769l78 -6
c-5 -105 -65 -157 -165 -157c-96 0 -151 48 -155 155l80 9c6 -67 30 -89 79 -89c50 0 77 20 83 88z" />
    <glyph glyph-name="gdotaccent.smcp" horiz-adv-x="604" 
d="M464 0l-13 69c-26 -47 -94 -78 -167 -78c-173 0 -244 116 -244 278c0 181 96 297 277 297c126 0 215 -56 226 -195l-107 -10c-6 65 -36 112 -121 112c-105 0 -156 -70 -156 -194c0 -139 48 -198 151 -198c81 0 124 58 124 101v24h-113v83h226v-289h-83zM389 715
c0 -49 -28 -76 -75 -76c-48 0 -75 27 -75 76c0 48 27 75 75 75c47 0 75 -27 75 -75z" />
    <glyph glyph-name="gcommaaccent.smcp" horiz-adv-x="604" 
d="M464 0l-13 69c-26 -47 -94 -78 -167 -78c-173 0 -244 116 -244 278c0 181 96 297 277 297c126 0 215 -56 226 -195l-107 -10c-6 65 -36 112 -121 112c-105 0 -156 -70 -156 -194c0 -139 48 -198 151 -198c81 0 124 58 124 101v24h-113v83h226v-289h-83zM212 -243l42 175
h114l-74 -187z" />
    <glyph glyph-name="hcircumflex.smcp" horiz-adv-x="599" 
d="M529 556v-556h-114v231h-231v-231h-114v556h114v-228h231v228h114zM463 617l-81 -5l-83 105l-83 -107l-82 7l109 165h111z" />
    <glyph glyph-name="hbar.smcp" horiz-adv-x="599" 
d="M529 556v-76h57v-77h-57v-403h-114v231h-231v-231h-114v403h-57v77h57v76h114v-76h231v76h114zM184 328h231v75h-231v-75z" />
    <glyph glyph-name="itilde.smcp" horiz-adv-x="254" 
d="M184 556v-556h-114v556h114zM50 757c64 0 105 -45 150 -45c24 0 34 9 34 49l64 -4c10 -82 -26 -129 -87 -129c-65 0 -109 46 -153 46c-22 0 -36 -11 -33 -52l-66 3c-10 86 33 132 91 132z" />
    <glyph glyph-name="imacron.smcp" horiz-adv-x="254" 
d="M184 556v-556h-114v556h114zM276 651h-299v83h299v-83z" />
    <glyph glyph-name="ibreve.smcp" horiz-adv-x="254" 
d="M184 556v-556h-114v556h114zM214 769l78 -6c-5 -105 -65 -157 -165 -157c-96 0 -151 48 -155 155l80 9c6 -67 30 -89 79 -89c50 0 77 20 83 88z" />
    <glyph glyph-name="iogonek.smcp" horiz-adv-x="254" 
d="M173 -117l55 -27c-22 -58 -73 -88 -127 -88c-66 0 -106 33 -106 91c0 61 36 104 75 141v556h114v-556c-64 -45 -97 -78 -97 -121c0 -24 12 -37 35 -37c21 0 37 13 51 41z" />
    <glyph glyph-name="idotaccent.smcp" horiz-adv-x="254" 
d="M184 556v-556h-114v556h114zM202 715c0 -49 -28 -76 -75 -76c-48 0 -75 27 -75 76c0 48 27 75 75 75c47 0 75 -27 75 -75z" />
    <glyph glyph-name="dotlessi.smcp" horiz-adv-x="254" 
d="M184 556v-556h-114v556h114z" />
    <glyph glyph-name="jcircumflex.smcp" horiz-adv-x="434" 
d="M255 150v406h115v-403c0 -110 -67 -162 -178 -162c-98 0 -166 38 -171 151l110 17c5 -47 13 -78 63 -78c38 0 61 16 61 69zM475 617l-81 -5l-83 105l-83 -107l-82 7l109 165h111z" />
    <glyph glyph-name="kcommaaccent.smcp" horiz-adv-x="548" 
d="M184 556v-246l229 246h123l-214 -233l213 -323h-134l-160 238l-57 -60v-178h-114v556h114zM186 -243l42 175h114l-74 -187z" />
    <glyph glyph-name="kgreenlandic.smcp" horiz-adv-x="548" 
d="M184 556v-246l229 246h123l-214 -233l213 -323h-134l-160 238l-57 -60v-178h-114v556h114z" />
    <glyph glyph-name="lacute.smcp" horiz-adv-x="466" 
d="M184 556v-461h249v-95h-363v556h114zM276 781l-138 -174l-80 10l88 164h130z" />
    <glyph glyph-name="lcommaaccent.smcp" horiz-adv-x="466" 
d="M184 556v-461h249v-95h-363v556h114zM155 -243l42 175h114l-74 -187z" />
    <glyph glyph-name="lcaron.smcp" horiz-adv-x="466" 
d="M184 556v-461h249v-95h-363v556h114zM258 364l33 192h112l-63 -201z" />
    <glyph glyph-name="ldot.smcp" horiz-adv-x="466" 
d="M184 556v-461h249v-95h-363v556h114zM423 332c0 -47 -27 -73 -72 -73c-47 0 -73 26 -73 73s26 73 73 73c45 0 72 -26 72 -73z" />
    <glyph glyph-name="nacute.smcp" horiz-adv-x="610" 
d="M540 0h-133l-232 406v-406h-105v556h139l227 -406v406h104v-556zM469 781l-138 -174l-80 10l88 164h130z" />
    <glyph glyph-name="ncommaaccent.smcp" horiz-adv-x="610" 
d="M540 0h-133l-232 406v-406h-105v556h139l227 -406v406h104v-556zM214 -243l42 175h114l-74 -187z" />
    <glyph glyph-name="ncaron.smcp" horiz-adv-x="610" 
d="M540 0h-133l-232 406v-406h-105v556h139l227 -406v406h104v-556zM146 771l85 6l81 -105l84 106l79 -7l-109 -164h-111z" />
    <glyph glyph-name="napostrophe.smcp" horiz-adv-x="653" 
d="M583 0h-133l-232 406v-406h-105v556h139l227 -406v406h104v-556zM-15 534l40 169h110l-72 -180z" />
    <glyph glyph-name="eng.smcp" horiz-adv-x="583" 
d="M367 -223c-45 0 -92 13 -117 25l14 88c21 -8 52 -19 84 -19c45 0 77 19 77 80v46l-250 409v-406h-105v556h139l227 -377v377h104v-612c0 -118 -67 -167 -173 -167z" />
    <glyph glyph-name="omacron.smcp" horiz-adv-x="621" 
d="M307 -9c-189 0 -267 119 -267 285c0 165 95 290 279 290c185 0 263 -125 263 -280c0 -180 -90 -295 -275 -295zM311 85c90 0 153 52 153 195c0 134 -56 192 -147 192c-96 0 -159 -59 -159 -194c0 -139 59 -193 153 -193zM466 651h-299v83h299v-83z" />
    <glyph glyph-name="obreve.smcp" horiz-adv-x="621" 
d="M307 -9c-189 0 -267 119 -267 285c0 165 95 290 279 290c185 0 263 -125 263 -280c0 -180 -90 -295 -275 -295zM311 85c90 0 153 52 153 195c0 134 -56 192 -147 192c-96 0 -159 -59 -159 -194c0 -139 59 -193 153 -193zM404 769l78 -6c-5 -105 -65 -157 -165 -157
c-96 0 -151 48 -155 155l80 9c6 -67 30 -89 79 -89c50 0 77 20 83 88z" />
    <glyph glyph-name="ohungarumlaut.smcp" horiz-adv-x="621" 
d="M307 -9c-189 0 -267 119 -267 285c0 165 95 290 279 290c185 0 263 -125 263 -280c0 -180 -90 -295 -275 -295zM311 85c90 0 153 52 153 195c0 134 -56 192 -147 192c-96 0 -159 -59 -159 -194c0 -139 59 -193 153 -193zM385 780l-110 -173l-77 13l62 160h125zM562 783
l-144 -176l-80 10l94 166h130z" />
    <glyph glyph-name="racute.smcp" horiz-adv-x="525" 
d="M379 241l132 -241h-123l-117 213h-88v-213h-113v556h220c143 0 190 -75 190 -155c0 -83 -41 -135 -101 -160zM183 302h72c59 0 107 18 107 85c0 61 -37 76 -105 76h-74v-161zM387 781l-138 -174l-80 10l88 164h130z" />
    <glyph glyph-name="rcommaaccent.smcp" horiz-adv-x="525" 
d="M379 241l132 -241h-123l-117 213h-88v-213h-113v556h220c143 0 190 -75 190 -155c0 -83 -41 -135 -101 -160zM183 302h72c59 0 107 18 107 85c0 61 -37 76 -105 76h-74v-161zM184 -243l42 175h114l-74 -187z" />
    <glyph glyph-name="rcaron.smcp" horiz-adv-x="525" 
d="M379 241l132 -241h-123l-117 213h-88v-213h-113v556h220c143 0 190 -75 190 -155c0 -83 -41 -135 -101 -160zM183 302h72c59 0 107 18 107 85c0 61 -37 76 -105 76h-74v-161zM94 771l85 6l81 -105l84 106l79 -7l-109 -164h-111z" />
    <glyph glyph-name="sacute.smcp" horiz-adv-x="488" 
d="M246 477c-62 0 -91 -22 -91 -62c0 -125 301 -44 301 -250c0 -125 -104 -174 -218 -174c-105 0 -209 36 -220 176l105 14c10 -54 32 -101 118 -101c53 0 103 17 103 73c0 126 -303 34 -303 248c0 106 91 165 207 165c102 0 193 -36 202 -165l-105 -12c-5 52 -27 88 -99 88
zM381 781l-138 -174l-80 10l88 164h130z" />
    <glyph glyph-name="scircumflex.smcp" horiz-adv-x="488" 
d="M246 477c-62 0 -91 -22 -91 -62c0 -125 301 -44 301 -250c0 -125 -104 -174 -218 -174c-105 0 -209 36 -220 176l105 14c10 -54 32 -101 118 -101c53 0 103 17 103 73c0 126 -303 34 -303 248c0 106 91 165 207 165c102 0 193 -36 202 -165l-105 -12c-5 52 -27 88 -99 88
zM410 617l-81 -5l-83 105l-83 -107l-82 7l109 165h111z" />
    <glyph glyph-name="scedilla.smcp" horiz-adv-x="488" 
d="M146 -214l17 59c14 -6 32 -11 52 -11c32 0 50 15 50 41c0 32 -22 42 -70 43l10 74c-93 8 -177 49 -187 175l105 14c10 -54 32 -101 118 -101c53 0 103 17 103 73c0 126 -303 34 -303 248c0 106 91 165 207 165c102 0 193 -36 202 -165l-105 -12c-5 52 -27 88 -99 88
c-62 0 -91 -22 -91 -62c0 -125 301 -44 301 -250c0 -114 -86 -164 -187 -172l-4 -31c42 -8 81 -30 81 -89c0 -66 -51 -105 -118 -105c-34 0 -63 9 -82 18z" />
    <glyph glyph-name="tcaron.smcp" horiz-adv-x="485" 
d="M301 0h-115v461h-171v95h455v-95h-169v-461zM77 771l85 6l81 -105l84 106l79 -7l-109 -164h-111z" />
    <glyph glyph-name="tbar.smcp" horiz-adv-x="485" 
d="M301 0h-115v224h-117v91h117v146h-171v95h455v-95h-169v-146h115v-91h-115v-224z" />
    <glyph glyph-name="utilde.smcp" horiz-adv-x="580" 
d="M291 86c84 0 111 36 111 129v341h115v-358c0 -145 -91 -207 -230 -207c-157 0 -224 67 -224 209v356h115v-338c0 -90 28 -132 113 -132zM212 757c64 0 105 -45 150 -45c24 0 34 9 34 49l64 -4c10 -82 -26 -129 -87 -129c-65 0 -109 46 -153 46c-22 0 -36 -11 -33 -52
l-66 3c-10 86 33 132 91 132z" />
    <glyph glyph-name="umacron.smcp" horiz-adv-x="580" 
d="M291 86c84 0 111 36 111 129v341h115v-358c0 -145 -91 -207 -230 -207c-157 0 -224 67 -224 209v356h115v-338c0 -90 28 -132 113 -132zM438 651h-299v83h299v-83z" />
    <glyph glyph-name="ubreve.smcp" horiz-adv-x="580" 
d="M291 86c84 0 111 36 111 129v341h115v-358c0 -145 -91 -207 -230 -207c-157 0 -224 67 -224 209v356h115v-338c0 -90 28 -132 113 -132zM376 769l78 -6c-5 -105 -65 -157 -165 -157c-96 0 -151 48 -155 155l80 9c6 -67 30 -89 79 -89c50 0 77 20 83 88z" />
    <glyph glyph-name="uring.smcp" horiz-adv-x="580" 
d="M291 86c84 0 111 36 111 129v341h115v-358c0 -145 -91 -207 -230 -207c-157 0 -224 67 -224 209v356h115v-338c0 -90 28 -132 113 -132zM408 709c0 -65 -44 -102 -109 -102s-109 36 -109 98c0 70 51 106 109 106c60 0 109 -33 109 -102zM298 661c30 0 47 18 47 48
s-17 46 -46 46c-28 0 -48 -16 -48 -47s17 -47 47 -47z" />
    <glyph glyph-name="uhungarumlaut.smcp" horiz-adv-x="580" 
d="M291 86c84 0 111 36 111 129v341h115v-358c0 -145 -91 -207 -230 -207c-157 0 -224 67 -224 209v356h115v-338c0 -90 28 -132 113 -132zM357 780l-110 -173l-77 13l62 160h125zM534 783l-144 -176l-80 10l94 166h130z" />
    <glyph glyph-name="uogonek.smcp" horiz-adv-x="580" 
d="M406 -117l55 -27c-22 -58 -73 -88 -127 -88c-66 0 -106 33 -106 91c0 56 35 99 76 133c-5 0 -11 -1 -17 -1c-157 0 -224 67 -224 209v356h115v-338c0 -90 28 -132 113 -132c84 0 111 36 111 129v341h115v-358c0 -93 -37 -144 -93 -183c-59 -41 -104 -91 -104 -136
c0 -24 12 -37 35 -37c21 0 37 13 51 41z" />
    <glyph glyph-name="wcircumflex.smcp" horiz-adv-x="774" 
d="M635 0h-146l-98 396h-3l-98 -396h-150l-124 556h120l83 -436h3l107 436h123l109 -439h4l78 439h115zM555 617l-81 -5l-83 105l-83 -107l-82 7l109 165h111z" />
    <glyph glyph-name="ycircumflex.smcp" horiz-adv-x="493" 
d="M310 211v-211h-115v210l-199 346h125l131 -244h3l127 244h115zM414 617l-81 -5l-83 105l-83 -107l-82 7l109 165h111z" />
    <glyph glyph-name="zacute.smcp" horiz-adv-x="486" 
d="M443 471l-275 -376h285v-95h-422v82l278 379h-271v95h405v-85zM365 781l-138 -174l-80 10l88 164h130z" />
    <glyph glyph-name="zdotaccent.smcp" horiz-adv-x="486" 
d="M443 471l-275 -376h285v-95h-422v82l278 379h-271v95h405v-85zM312 715c0 -49 -28 -76 -75 -76c-48 0 -75 27 -75 76c0 48 27 75 75 75c47 0 75 -27 75 -75z" />
    <glyph glyph-name="scommaaccent.smcp" horiz-adv-x="488" 
d="M246 477c-62 0 -91 -22 -91 -62c0 -125 301 -44 301 -250c0 -125 -104 -174 -218 -174c-105 0 -209 36 -220 176l105 14c10 -54 32 -101 118 -101c53 0 103 17 103 73c0 126 -303 34 -303 248c0 106 91 165 207 165c102 0 193 -36 202 -165l-105 -12c-5 52 -27 88 -99 88
zM154 -243l42 175h114l-74 -187z" />
    <glyph glyph-name="uni021B.smcp" horiz-adv-x="485" 
d="M301 0h-115v461h-171v95h455v-95h-169v-461zM151 -243l42 175h114l-74 -187z" />
    <glyph glyph-name="wgrave.smcp" horiz-adv-x="774" 
d="M635 0h-146l-98 396h-3l-98 -396h-150l-124 556h120l83 -436h3l107 436h123l109 -439h4l78 439h115zM401 607l-138 174h130l88 -164z" />
    <glyph glyph-name="wacute.smcp" horiz-adv-x="774" 
d="M635 0h-146l-98 396h-3l-98 -396h-150l-124 556h120l83 -436h3l107 436h123l109 -439h4l78 439h115zM519 781l-138 -174l-80 10l88 164h130z" />
    <glyph glyph-name="wdieresis.smcp" horiz-adv-x="774" 
d="M635 0h-146l-98 396h-3l-98 -396h-150l-124 556h120l83 -436h3l107 436h123l109 -439h4l78 439h115zM355 710c0 -44 -30 -71 -73 -71c-44 0 -74 27 -74 71c0 42 30 70 74 70c43 0 73 -28 73 -70zM575 710c0 -44 -30 -71 -73 -71c-45 0 -74 27 -74 71c0 42 29 70 74 70
c43 0 73 -28 73 -70z" />
    <glyph glyph-name="ygrave.smcp" horiz-adv-x="493" 
d="M310 211v-211h-115v210l-199 346h125l131 -244h3l127 244h115zM244 607l-138 174h130l88 -164z" />
    <glyph glyph-name="uni0163.smcp" horiz-adv-x="485" 
d="M151 -214l17 59c14 -6 32 -11 52 -11c32 0 50 15 50 41c0 32 -22 42 -70 43l11 82h-25v461h-171v95h455v-95h-169v-461h-26l-5 -38c42 -8 81 -30 81 -89c0 -66 -51 -105 -118 -105c-34 0 -63 9 -82 18z" />
    <glyph glyph-name="lslash.smcp" horiz-adv-x="466" 
d="M184 556v-218l154 57v-90l-154 -57v-153h249v-95h-363v207l-68 -25v90l68 25v259h114z" />
    <glyph glyph-name="scaron.smcp" horiz-adv-x="488" 
d="M246 477c-62 0 -91 -22 -91 -62c0 -125 301 -44 301 -250c0 -125 -104 -174 -218 -174c-105 0 -209 36 -220 176l105 14c10 -54 32 -101 118 -101c53 0 103 17 103 73c0 126 -303 34 -303 248c0 106 91 165 207 165c102 0 193 -36 202 -165l-105 -12c-5 52 -27 88 -99 88
zM81 771l85 6l81 -105l84 106l79 -7l-109 -164h-111z" />
    <glyph glyph-name="zcaron.smcp" horiz-adv-x="486" 
d="M443 471l-275 -376h285v-95h-422v82l278 379h-271v95h405v-85zM72 771l85 6l81 -105l84 106l79 -7l-109 -164h-111z" />
    <glyph glyph-name="oe.smcp" horiz-adv-x="872" 
d="M837 0h-359v66c-36 -48 -101 -75 -179 -75c-180 0 -259 119 -259 285c0 165 94 290 273 290c75 0 129 -26 165 -69v59h345v-95h-247v-139h232v-89h-232v-138h261v-95zM310 85c93 0 154 53 154 194c0 133 -53 193 -148 193c-97 0 -158 -62 -158 -194
c0 -133 55 -193 152 -193z" />
    <glyph glyph-name="ae.smcp" horiz-adv-x="804" 
d="M510 228v-137h260v-91h-374v229h-148l-115 -229h-116l280 556h460v-91h-247v-149h232v-88h-232zM396 316v154h-33l-81 -154h114z" />
    <glyph glyph-name="aeacute.smcp" horiz-adv-x="804" 
d="M510 228v-137h260v-91h-374v229h-148l-115 -229h-116l280 556h460v-91h-247v-149h232v-88h-232zM396 316v154h-33l-81 -154h114zM672 781l-138 -174l-80 10l88 164h130z" />
    <glyph glyph-name="germandbls.smcp" horiz-adv-x="976" 
d="M734 477c-62 0 -91 -22 -91 -62c0 -125 301 -44 301 -250c0 -125 -104 -174 -218 -174c-105 0 -209 36 -220 176l105 14c10 -54 32 -101 118 -101c53 0 103 17 103 73c0 126 -303 34 -303 248c0 106 91 165 207 165c102 0 193 -36 202 -165l-105 -12c-5 52 -27 88 -99 88
zM246 477c-62 0 -91 -22 -91 -62c0 -125 301 -44 301 -250c0 -125 -104 -174 -218 -174c-105 0 -209 36 -220 176l105 14c10 -54 32 -101 118 -101c53 0 103 17 103 73c0 126 -303 34 -303 248c0 106 91 165 207 165c102 0 193 -36 202 -165l-105 -12c-5 52 -27 88 -99 88z
" />
    <glyph glyph-name="question.smcp" horiz-adv-x="433" 
d="M236 153h-109v139c91 7 160 28 160 116c0 47 -33 70 -79 70c-48 0 -77 -22 -90 -78l-104 15c13 93 80 152 200 152c98 0 190 -40 190 -161c0 -100 -63 -158 -168 -178v-75zM247 49c0 -39 -22 -59 -68 -59s-67 19 -67 59c0 39 21 60 67 60c45 0 68 -22 68 -60z" />
    <glyph glyph-name="exclam.smcp" horiz-adv-x="254" 
d="M174 154h-93l-15 402h122zM195 49c0 -38 -22 -59 -67 -59c-46 0 -69 19 -69 59c0 39 23 60 69 60c44 0 67 -21 67 -60z" />
    <glyph glyph-name="questiondown.smcp" horiz-adv-x="433" 
d="M197 404h109v-139c-91 -7 -160 -28 -160 -116c0 -47 33 -70 79 -70c48 0 77 22 90 78l104 -15c-13 -93 -80 -152 -200 -152c-98 0 -190 40 -190 161c0 100 63 158 168 178v75zM186 508c0 39 22 59 68 59s67 -19 67 -59c0 -39 -21 -60 -67 -60c-45 0 -68 22 -68 60z" />
    <glyph glyph-name="exclamdown.smcp" horiz-adv-x="254" 
d="M80 402h93l15 -402h-122zM59 507c0 38 22 59 67 59c46 0 69 -19 69 -59c0 -39 -23 -60 -69 -60c-44 0 -67 21 -67 60z" />
    <glyph glyph-name="ordmasculine.smcp" horiz-adv-x="406" 
d="M199 245c-122 0 -169 74 -169 175c0 108 59 176 179 176c119 0 166 -70 166 -169c0 -110 -51 -182 -176 -182zM202 319c48 0 77 28 77 104c0 75 -24 100 -73 100c-50 0 -79 -31 -79 -101s21 -103 75 -103z" />
    <glyph glyph-name="ordfeminine.smcp" horiz-adv-x="385" 
d="M326 479v-142c0 -27 11 -30 35 -26l3 -53c-14 -6 -34 -12 -54 -12c-39 0 -63 19 -67 42c-23 -25 -58 -43 -107 -43c-88 0 -103 60 -103 94c0 96 93 112 169 112c12 0 23 0 34 -1v17c0 38 -8 62 -55 62c-38 0 -52 -15 -59 -49l-77 13c10 64 52 103 144 103
s137 -33 137 -117zM237 337v57c-8 1 -19 1 -30 1c-36 0 -80 -9 -80 -46c0 -19 7 -38 43 -38c27 0 53 13 67 26z" />
    <glyph glyph-name="at.smcp" horiz-adv-x="678" 
d="M501 58l25 -61c-39 -27 -102 -41 -177 -41c-176 0 -314 94 -314 293c0 188 131 318 327 318c174 0 293 -99 293 -270c0 -134 -66 -196 -154 -196c-47 0 -82 19 -95 43c-23 -29 -53 -42 -91 -42c-75 0 -117 60 -117 144c0 100 53 174 136 174c30 0 53 -11 69 -27l6 22h63
v-208c0 -23 3 -45 34 -45c51 0 69 71 69 132c0 124 -69 204 -212 204c-178 0 -246 -122 -246 -245c0 -161 100 -228 238 -228c59 0 107 13 146 33zM398 195v149c-11 9 -30 18 -48 18c-42 0 -71 -32 -71 -106c0 -54 14 -94 57 -94c25 0 44 12 62 33z" />
    <glyph glyph-name="copyright.smcp" horiz-adv-x="757" 
d="M712 289c0 -199 -136 -333 -334 -333c-220 0 -333 138 -333 319c0 209 150 333 335 333c206 0 332 -125 332 -319zM380 19c163 0 262 101 262 264c0 171 -109 261 -262 261c-151 0 -262 -98 -262 -268c0 -159 97 -257 262 -257zM472 233l64 -11
c-14 -104 -96 -129 -153 -129c-126 0 -178 82 -178 192s64 190 180 190c75 0 141 -37 146 -130l-67 -8c-5 55 -29 77 -81 77c-55 0 -102 -36 -102 -131c0 -70 28 -128 100 -128c57 0 81 25 91 78z" />
    <glyph glyph-name="ampersand.smcp" horiz-adv-x="594" 
d="M426 451c0 -48 -23 -103 -138 -150c27 -48 73 -112 110 -152c21 37 30 87 31 142h93c1 -65 -11 -133 -50 -191c17 -12 35 -20 54 -20c11 0 22 2 33 6l13 -81c-17 -8 -42 -11 -64 -11c-44 0 -80 13 -117 38c-32 -24 -84 -41 -150 -41c-137 0 -202 71 -202 170
c0 75 40 126 119 161c-18 29 -30 70 -30 105c0 83 66 139 162 139c77 0 136 -35 136 -115zM249 67c27 0 55 7 74 19c-54 54 -94 115 -128 170c-31 -18 -51 -47 -51 -90c0 -63 45 -99 105 -99zM226 434c0 -25 10 -53 25 -81l24 12c44 22 62 50 62 80c0 28 -15 49 -52 49
c-36 0 -59 -21 -59 -60z" />
    <glyph glyph-name="parenleft.smcp" horiz-adv-x="298" 
d="M281 -71l-116 -1c-59 82 -117 195 -117 333s57 248 125 341h116c-70 -100 -122 -202 -122 -339c0 -141 55 -241 114 -334z" />
    <glyph glyph-name="parenright.smcp" horiz-adv-x="298" 
d="M17 601l116 1c59 -82 117 -195 117 -333s-57 -248 -125 -341h-116c70 100 122 202 122 339c0 141 -55 241 -114 334z" />
    <glyph glyph-name="bracketleft.smcp" horiz-adv-x="256" 
d="M227 -80h-171v700h171v-63l-64 -3v-567l64 -3v-64z" />
    <glyph glyph-name="bracketright.smcp" horiz-adv-x="256" 
d="M29 620h171v-700h-171v63l64 3v567l-64 3v64z" />
    <glyph glyph-name="braceleft.smcp" horiz-adv-x="280" 
d="M253 -12v-73h-46c-84 0 -123 23 -129 88c-1 8 -1 16 -1 26c1 42 12 103 12 142c0 45 -17 63 -54 63h-16v67h16c37 0 54 17 54 65c0 37 -11 101 -12 143c0 9 0 19 1 26c5 66 47 87 129 87h46v-73c-46 0 -64 -3 -64 -44c0 -33 12 -111 12 -151c0 -56 -25 -71 -66 -87
c44 -16 66 -31 66 -86c0 -39 -12 -116 -12 -147c0 -33 12 -46 49 -46h15z" />
    <glyph glyph-name="braceright.smcp" horiz-adv-x="280" 
d="M27 549v73h46c84 0 123 -23 129 -88c1 -8 1 -16 1 -26c-1 -42 -12 -103 -12 -142c0 -45 17 -63 54 -63h16v-67h-16c-37 0 -54 -17 -54 -65c0 -37 11 -101 12 -143c0 -9 0 -19 -1 -26c-5 -66 -47 -87 -129 -87h-46v73c46 0 64 3 64 44c0 33 -12 111 -12 151
c0 56 25 71 66 87c-44 16 -66 31 -66 86c0 39 12 116 12 147c0 33 -12 46 -49 46h-15z" />
    <glyph glyph-name="quoteleft.smcp" horiz-adv-x="216" 
d="M195 604l-49 -212h-117l81 222z" />
    <glyph glyph-name="quoteright.smcp" horiz-adv-x="216" 
d="M34 394l49 212h117l-81 -222z" />
    <glyph glyph-name="quotedblleft.smcp" horiz-adv-x="389" 
d="M200 604l-49 -212h-117l81 222zM367 604l-50 -212h-117l81 222z" />
    <glyph glyph-name="quotedblright.smcp" horiz-adv-x="381" 
d="M35 399l50 212h117l-81 -222zM200 399l50 212h117l-81 -222z" />
    <glyph glyph-name="asterisk.smcp" horiz-adv-x="473" 
d="M262 636l19 -131l120 30l17 -55l-114 -57l76 -116l-44 -34l-102 96l-101 -99l-44 36l75 116l-116 57l17 55l121 -27l22 129h54z" />
    <glyph glyph-name="hyphen.smcp" horiz-adv-x="319" 
d="M295 219h-271v103h271v-103z" />
    <glyph glyph-name="endash.smcp" horiz-adv-x="500" 
d="M499 228h-499v87h499v-87z" />
    <glyph glyph-name="emdash.smcp" horiz-adv-x="1000" 
d="M999 228h-999v87h999v-87z" />
    <glyph glyph-name="slash.smcp" horiz-adv-x="375" 
d="M138 -35h-105l202 610h104z" />
    <glyph glyph-name="backslash.smcp" horiz-adv-x="379" 
d="M344 -35h-105l-201 610h104z" />
    <glyph glyph-name="zero.smcp" horiz-adv-x="493" 
d="M244 -10c-167 0 -211 115 -211 289c0 167 58 287 220 287c166 0 207 -120 207 -280c0 -181 -50 -296 -216 -296zM247 75c78 0 95 70 95 206c0 124 -14 199 -92 199s-98 -74 -98 -203c0 -130 15 -202 95 -202z" />
    <glyph glyph-name="one.smcp" horiz-adv-x="387" 
d="M279 0h-112v427c-28 -16 -101 -26 -129 -26l-6 88c75 6 133 25 173 67h74v-556z" />
    <glyph glyph-name="two.smcp" horiz-adv-x="461" 
d="M235 566c113 0 178 -53 178 -142c0 -76 -49 -138 -149 -235l-90 -95v-3h248v-91h-376v88l133 146c72 80 119 129 119 183c0 41 -25 65 -73 65c-60 0 -81 -33 -90 -84l-99 15c15 110 96 153 199 153z" />
    <glyph glyph-name="three.smcp" horiz-adv-x="475" 
d="M26 130l102 19c7 -44 28 -76 88 -76c57 0 97 30 97 90s-40 83 -107 83h-61v83h42c75 0 115 34 115 89c0 37 -17 66 -75 66c-57 0 -76 -30 -87 -76l-98 19c21 105 104 140 196 140c113 0 176 -55 176 -133c0 -77 -59 -118 -114 -134v-3c78 -16 127 -61 127 -138
c0 -103 -85 -169 -210 -169c-92 0 -177 37 -191 140z" />
    <glyph glyph-name="four.smcp" horiz-adv-x="487" 
d="M400 0h-109v119h-270v76l242 361h137v-350h69v-87h-69v-119zM123 206h169v252z" />
    <glyph glyph-name="five.smcp" horiz-adv-x="473" 
d="M59 260l21 296h311v-95h-228l-16 -144c27 21 64 39 118 39c87 0 162 -54 162 -166c0 -123 -87 -200 -214 -200c-92 0 -175 36 -191 142l102 20c7 -45 29 -77 91 -77c52 0 100 33 100 106c0 64 -39 90 -86 90c-41 0 -73 -18 -97 -41z" />
    <glyph glyph-name="six.smcp" horiz-adv-x="495" 
d="M450 434l-102 -22c-9 55 -35 72 -72 72c-89 0 -115 -87 -117 -195c30 28 75 54 136 54c95 0 159 -61 159 -166c0 -123 -85 -187 -202 -187c-162 0 -202 122 -202 264c0 135 43 312 233 312c79 0 148 -28 167 -132zM164 212c2 -66 14 -140 91 -140c55 0 86 38 86 100
c0 57 -26 89 -77 89c-43 0 -75 -22 -100 -49z" />
    <glyph glyph-name="seven.smcp" horiz-adv-x="433" 
d="M187 0h-119l228 461h-267v95h385v-84z" />
    <glyph glyph-name="eight.smcp" horiz-adv-x="466" 
d="M326 297c62 -27 116 -61 116 -141c0 -95 -80 -165 -220 -165c-131 0 -198 62 -198 145c0 74 50 116 118 145c-64 30 -97 72 -97 135c0 96 85 151 201 151c109 0 180 -50 180 -131c0 -58 -34 -103 -100 -139zM215 240c-50 -27 -84 -53 -84 -96s33 -74 96 -74
c64 0 98 35 98 76c0 56 -60 75 -110 94zM251 332c40 23 74 59 74 96c0 39 -33 60 -83 60c-51 0 -84 -24 -84 -63c0 -41 34 -67 93 -93z" />
    <glyph glyph-name="nine.smcp" horiz-adv-x="494" 
d="M38 120l99 27c13 -55 40 -77 87 -77c83 0 110 73 113 187c-29 -27 -76 -51 -135 -51c-97 0 -160 58 -160 167c0 128 87 193 202 193c161 0 201 -122 201 -272c0 -143 -32 -304 -231 -304c-83 0 -157 29 -176 130zM332 336c-3 70 -15 149 -94 149c-53 0 -85 -37 -85 -104
c0 -63 26 -94 80 -94c37 0 74 21 99 49z" />
    <glyph glyph-name="dollar.smcp" horiz-adv-x="447" 
d="M306 393c-5 34 -17 57 -44 68v-143c64 -17 153 -46 153 -159c0 -93 -62 -148 -150 -162v-62h-83v60c-72 8 -151 46 -163 155l97 15c7 -46 25 -79 73 -87v156c-72 20 -151 46 -151 155c0 90 60 137 144 159v64h84v-65c73 -8 132 -47 139 -142zM307 144c0 34 -16 53 -45 67
v-128c28 10 45 31 45 61zM145 403c0 -31 15 -48 44 -61v121c-33 -10 -44 -34 -44 -60z" />
    <glyph glyph-name="Euro.smcp" horiz-adv-x="515" 
d="M44 368h30c28 141 118 198 233 198c107 0 183 -51 188 -173l-97 -10c-6 58 -28 99 -91 99c-69 0 -106 -42 -121 -114h159l-12 -70h-156v-49h149l-13 -70h-129c14 -73 51 -104 115 -104c60 0 83 40 98 92l96 -22c-24 -114 -103 -154 -200 -154c-107 0 -197 46 -222 188
h-59l13 70h40v15c0 12 0 23 1 34h-34z" />
    <glyph glyph-name="cent.smcp" horiz-adv-x="431" 
d="M184 570h98v-80c73 -13 115 -56 121 -133l-98 -14c-6 45 -24 69 -68 69s-84 -19 -84 -120c0 -80 24 -127 87 -127c42 0 66 19 74 65l91 -16c-11 -76 -61 -119 -129 -131v-83h-97v83c-100 20 -139 98 -139 200c0 116 53 185 144 205v82z" />
    <glyph glyph-name="sterling.smcp" horiz-adv-x="475" 
d="M29 80h44c37 31 59 66 59 105c0 18 -5 34 -15 54h-77v82h53c-12 19 -29 51 -29 93c0 85 67 152 193 152c98 0 163 -40 175 -147l-97 -12c-6 48 -23 80 -80 80c-53 0 -86 -28 -86 -74c0 -34 16 -65 31 -92h162v-82h-138c6 -17 9 -31 9 -44c0 -44 -16 -82 -53 -115h100
c66 0 84 27 93 82l91 -16c-9 -101 -62 -146 -176 -146h-259v80z" />
    <glyph glyph-name="yen.smcp" horiz-adv-x="451" 
d="M82 179h92v59h-92v73h52l-139 245h125l111 -234h3l107 234h115l-130 -245h57v-73h-94v-59h94v-73h-94v-106h-115v106h-92v73z" />
    <glyph glyph-name="florin.smcp" horiz-adv-x="454" 
d="M158 344l17 84c19 90 62 138 158 138c80 0 119 -43 136 -101l-86 -24c-8 29 -20 50 -48 50c-30 0 -46 -16 -55 -60l-16 -87h107l-16 -80h-104l-55 -277c-18 -90 -59 -133 -153 -133c-80 0 -126 40 -140 96l87 29c10 -32 22 -49 51 -49c27 0 41 15 50 63l53 271h-71l14 80
h71z" />
    <glyph glyph-name="afii61352.smcp" horiz-adv-x="836" 
d="M476 0h-119l-194 421v-421h-93v556h125l188 -420v420h93v-556zM547 192v66h237v-66h-237zM662 289c-95 0 -133 58 -133 135c0 80 48 135 138 135c91 0 130 -54 130 -130c0 -84 -42 -140 -135 -140zM664 351c33 0 53 20 53 75c0 52 -17 73 -51 73c-35 0 -57 -20 -57 -74
c0 -53 20 -74 55 -74z" />
    <glyph glyph-name="percent.smcp" horiz-adv-x="756" 
d="M178 208c-104 0 -138 65 -138 142c0 91 46 151 144 151c99 0 138 -55 138 -140c0 -92 -48 -153 -144 -153zM270 -12h-101l314 514h101zM181 269c42 0 56 27 56 88c0 55 -13 82 -55 82c-41 0 -56 -31 -56 -84c0 -58 13 -86 55 -86zM572 -10c-104 0 -138 66 -138 142
c0 91 46 152 145 152s138 -55 138 -141c0 -92 -49 -153 -145 -153zM576 51c41 0 55 28 55 89c0 54 -12 82 -55 82c-41 0 -56 -31 -56 -84c0 -58 13 -87 56 -87z" />
    <glyph glyph-name="perthousand.smcp" horiz-adv-x="1065" 
d="M178 208c-104 0 -138 65 -138 142c0 91 46 151 144 151c99 0 138 -55 138 -140c0 -92 -48 -153 -144 -153zM270 -12h-101l314 514h101zM181 269c42 0 56 27 56 88c0 55 -13 82 -55 82c-41 0 -56 -31 -56 -84c0 -58 13 -86 55 -86zM572 -10c-104 0 -138 66 -138 142
c0 91 46 152 145 152s138 -55 138 -141c0 -92 -49 -153 -145 -153zM576 51c41 0 55 28 55 89c0 54 -12 82 -55 82c-41 0 -56 -31 -56 -84c0 -58 13 -87 56 -87zM881 -10c-104 0 -138 66 -138 142c0 91 46 152 145 152s138 -55 138 -141c0 -92 -49 -153 -145 -153zM885 51
c41 0 55 28 55 89c0 54 -12 82 -54 82c-41 0 -57 -31 -57 -84c0 -58 14 -87 56 -87z" />
    <glyph glyph-name="circumflex" unicode="&#x2c6;" horiz-adv-x="500" 
d="M414 582l-81 -5l-83 105l-83 -107l-82 7l109 165h111z" />
    <glyph glyph-name="caron" unicode="&#x2c7;" horiz-adv-x="500" 
d="M85 736l85 6l81 -105l84 106l79 -7l-109 -164h-111z" />
    <glyph glyph-name="uni02C9" unicode="&#x2c9;" horiz-adv-x="500" 
d="M398 610h-299v83h299v-83z" />
    <glyph glyph-name="breve" unicode="&#x2d8;" horiz-adv-x="500" 
d="M337 734l78 -6c-5 -105 -65 -157 -165 -157c-96 0 -151 48 -155 155l80 9c6 -67 30 -89 79 -89c50 0 77 20 83 88z" />
    <glyph glyph-name="dieresis" unicode="&#xa8;" horiz-adv-x="500" 
d="M214 675c0 -44 -30 -71 -73 -71c-44 0 -74 27 -74 71c0 42 30 70 74 70c43 0 73 -28 73 -70zM434 675c0 -44 -30 -71 -73 -71c-45 0 -74 27 -74 71c0 42 29 70 74 70c43 0 73 -28 73 -70z" />
    <glyph glyph-name="macron" unicode="&#xaf;" horiz-adv-x="500" 
d="M399 616h-299v83h299v-83z" />
    <glyph glyph-name="degree" unicode="&#xb0;" horiz-adv-x="291" 
d="M146 579c32 0 52 23 52 56c0 34 -21 55 -52 55c-30 0 -53 -21 -53 -58c0 -32 20 -53 53 -53zM260 635c0 -70 -46 -115 -114 -115c-69 0 -115 44 -115 112c0 74 51 116 115 116c65 0 114 -41 114 -113z" />
    <glyph glyph-name="acute" unicode="&#xb4;" horiz-adv-x="500" 
d="M378 746l-138 -174l-80 10l88 164h130z" />
    <glyph glyph-name="grave" unicode="`" horiz-adv-x="500" 
d="M260 572l-138 174h130l88 -164z" />
    <glyph glyph-name="cedilla" unicode="&#xb8;" horiz-adv-x="500" 
d="M134 -214l17 59c14 -6 32 -11 52 -11c32 0 50 15 50 41c0 32 -22 42 -70 43l16 112l63 -8l-9 -60c42 -8 81 -30 81 -89c0 -66 -51 -105 -118 -105c-34 0 -63 9 -82 18z" />
    <glyph glyph-name="dotaccent" unicode="&#x2d9;" horiz-adv-x="500" 
d="M325 680c0 -49 -28 -76 -75 -76c-48 0 -75 27 -75 76c0 48 27 75 75 75c47 0 75 -27 75 -75z" />
    <glyph glyph-name="ring" unicode="&#x2da;" horiz-adv-x="500" 
d="M359 674c0 -65 -44 -102 -109 -102s-109 36 -109 98c0 70 51 106 109 106c60 0 109 -33 109 -102zM249 626c30 0 47 18 47 48s-17 46 -46 46c-28 0 -48 -16 -48 -47s17 -47 47 -47z" />
    <glyph glyph-name="ogonek" unicode="&#x2db;" horiz-adv-x="500" 
d="M319 -117l55 -27c-22 -58 -73 -88 -127 -88c-66 0 -106 33 -106 91c0 74 64 126 118 163l63 -15c-52 -49 -89 -83 -89 -128c0 -24 12 -37 35 -37c21 0 37 13 51 41z" />
    <glyph glyph-name="tilde" unicode="&#x2dc;" horiz-adv-x="500" 
d="M173 722c64 0 105 -45 150 -45c24 0 34 9 34 49l64 -4c10 -82 -26 -129 -87 -129c-65 0 -109 46 -153 46c-22 0 -36 -11 -33 -52l-66 3c-10 86 33 132 91 132z" />
    <glyph glyph-name="hungarumlaut" unicode="&#x2dd;" horiz-adv-x="500" 
d="M318 745l-110 -173l-77 13l62 160h125zM495 748l-144 -176l-80 10l94 166h130z" />
    <glyph glyph-name="perthousand" unicode="&#x2030;" horiz-adv-x="1032" 
d="M187 412c-108 0 -145 68 -145 158c0 104 53 167 152 167c102 0 145 -61 145 -158c0 -103 -53 -167 -152 -167zM178 -15h-104l439 739h103zM190 478c47 0 63 36 63 99c0 58 -14 93 -61 93s-63 -41 -63 -95c0 -60 14 -97 61 -97zM507 -12c-108 0 -145 68 -145 158
c0 104 53 167 152 167c102 0 145 -61 145 -158c0 -103 -53 -167 -152 -167zM511 54c46 0 62 36 62 99c0 58 -14 93 -61 93c-46 0 -63 -41 -63 -95c0 -60 15 -97 62 -97zM838 -12c-108 0 -145 68 -145 158c0 104 53 167 152 167c102 0 145 -61 145 -158
c0 -103 -53 -167 -152 -167zM842 54c46 0 62 36 62 99c0 58 -14 93 -61 93c-46 0 -63 -41 -63 -95c0 -60 15 -97 62 -97z" />
    <glyph glyph-name="percent" unicode="%" horiz-adv-x="813" 
d="M612 -12c-122 0 -163 82 -163 176c0 112 56 187 171 187c116 0 162 -69 162 -174c0 -113 -57 -189 -170 -189zM616 59c56 0 73 42 73 114c0 64 -16 106 -71 106c-56 0 -75 -48 -75 -109c0 -68 17 -111 73 -111zM229 -15h-104l439 739h103zM185 375
c-122 0 -163 82 -163 176c0 112 56 187 171 187c116 0 162 -69 162 -174c0 -113 -57 -189 -170 -189zM189 446c56 0 73 42 73 114c0 64 -16 106 -71 106c-56 0 -75 -48 -75 -109c0 -68 17 -111 73 -111z" />
    <glyph glyph-name="fraction" unicode="&#x2044;" horiz-adv-x="163" 
d="M-48 -12h-107l356 736h105z" />
    <glyph glyph-name="zerosuperior" unicode="&#x2070;" horiz-adv-x="416" 
d="M206 342c-123 0 -169 82 -169 233c0 149 55 230 175 230c127 0 167 -81 167 -226c0 -156 -47 -237 -173 -237zM208 420c51 0 64 45 64 156c0 108 -11 150 -62 150s-65 -41 -65 -152c0 -108 11 -154 63 -154z" />
    <glyph glyph-name="onesuperior" unicode="&#xb9;" horiz-adv-x="305" 
d="M238 347h-103v334c-21 -10 -78 -18 -99 -18l-5 80c57 4 105 20 136 52h71v-448z" />
    <glyph glyph-name="twosuperior" unicode="&#xb2;" horiz-adv-x="393" 
d="M199 805c96 0 144 -44 144 -116c0 -70 -40 -115 -123 -193l-54 -59v-3h184v-85h-302v84l100 107c66 70 92 101 92 143c0 32 -19 45 -50 45c-39 0 -56 -23 -62 -64l-88 13c10 90 77 128 159 128z" />
    <glyph glyph-name="threesuperior" unicode="&#xb3;" horiz-adv-x="384" 
d="M31 458l90 16c6 -37 22 -56 63 -56c36 0 64 19 64 63c0 46 -25 63 -72 63h-47v70h30c54 0 83 28 83 68c0 28 -13 47 -51 47c-39 0 -54 -18 -62 -53l-87 17c17 85 85 112 159 112c91 0 142 -40 142 -107c0 -63 -45 -94 -87 -108v-2c62 -13 96 -47 96 -110
c0 -85 -69 -136 -166 -136c-74 0 -144 29 -155 116z" />
    <glyph glyph-name="foursuperior" unicode="&#x2074;" horiz-adv-x="404" 
d="M332 349h-100v98h-208v70l183 280h125v-271h52v-79h-52v-98zM113 526h120v183z" />
    <glyph glyph-name="fivesuperior" unicode="&#x2075;" horiz-adv-x="399" 
d="M55 557l17 240h249v-83h-176l-12 -106v-7c22 19 51 34 92 34c69 0 124 -40 124 -137c0 -99 -71 -156 -169 -156c-75 0 -143 29 -155 116l89 17c5 -35 24 -57 65 -57c37 0 68 24 68 76c0 51 -29 67 -60 67c-27 0 -48 -12 -65 -27z" />
    <glyph glyph-name="sixsuperior" unicode="&#x2076;" horiz-adv-x="421" 
d="M377 697l-90 -20c-7 41 -24 54 -52 54c-57 0 -82 -63 -82 -150c20 22 58 42 104 42c69 0 122 -40 122 -127c0 -107 -70 -154 -162 -154c-129 0 -162 102 -162 220c0 105 36 243 187 243c63 0 119 -24 135 -108zM157 522c2 -59 13 -105 64 -105c36 0 56 26 56 71
c0 43 -14 67 -51 67c-27 0 -55 -17 -69 -33z" />
    <glyph glyph-name="sevensuperior" unicode="&#x2077;" horiz-adv-x="365" 
d="M165 349h-108l178 365h-202v83h309v-75z" />
    <glyph glyph-name="eightsuperior" unicode="&#x2078;" horiz-adv-x="403" 
d="M279 595c56 -23 95 -53 95 -120c0 -72 -66 -133 -178 -133c-109 0 -165 49 -165 117c0 61 39 93 94 116c-49 19 -77 57 -77 107c0 80 72 123 160 123c97 0 153 -40 153 -104c0 -46 -28 -82 -82 -106zM181 543c-35 -19 -54 -40 -54 -71c0 -34 23 -57 72 -57
c42 0 67 22 67 53c0 40 -39 58 -85 75zM220 623c28 16 49 40 49 68c0 29 -22 45 -59 45c-36 0 -57 -18 -57 -46c0 -30 26 -50 67 -67z" />
    <glyph glyph-name="ninesuperior" unicode="&#x2079;" horiz-adv-x="420" 
d="M41 451l90 24c8 -38 24 -59 60 -59c55 0 80 52 81 144c-20 -19 -59 -38 -103 -38c-72 0 -125 42 -125 131c0 105 74 152 165 152c125 0 159 -97 159 -221c0 -108 -28 -242 -180 -242c-72 0 -132 26 -147 109zM265 619c-4 61 -11 112 -63 112c-36 0 -55 -27 -55 -72
c0 -43 16 -71 53 -71c25 0 48 13 65 31z" />
    <glyph glyph-name="parenleftsuperior" unicode="&#x207d;" horiz-adv-x="270" 
d="M248 276h-103c-48 64 -96 156 -96 268c0 110 46 198 103 274h102c-55 -77 -100 -158 -100 -272c0 -115 46 -197 94 -270z" />
    <glyph glyph-name="parenrightsuperior" unicode="&#x207e;" horiz-adv-x="305" 
d="M20 818h104c50 -66 99 -161 99 -272s-45 -196 -100 -270h-101c50 71 96 149 96 269c0 109 -45 194 -98 273z" />
    <glyph glyph-name="hyphensuperior" horiz-adv-x="219" 
d="M195 496h-175v83h175v-83z" />
    <glyph glyph-name="commasuperior" horiz-adv-x="191" 
d="M4 277l42 161h102l-64 -169z" />
    <glyph glyph-name="periodsuperior" horiz-adv-x="204" 
d="M164 398c0 -36 -19 -56 -61 -56c-43 0 -63 19 -63 56s20 57 63 57c41 0 61 -20 61 -57z" />
    <glyph glyph-name="minussuperior" unicode="&#x207b;" horiz-adv-x="439" 
d="M345 531h-250v76h250v-76z" />
    <glyph glyph-name="plussuperior" unicode="&#x207a;" horiz-adv-x="439" 
d="M259 439h-80v89h-87v76h87v86h80v-86h88v-76h-88v-89z" />
    <glyph glyph-name="equalsuperior" unicode="&#x207c;" horiz-adv-x="442" 
d="M346 448h-250v76h250v-76zM346 568h-250v77h250v-77z" />
    <glyph glyph-name="a.sup" horiz-adv-x="385" 
d="M326 576v-142c0 -27 11 -30 35 -26l3 -53c-14 -6 -34 -12 -54 -12c-39 0 -63 19 -67 42c-23 -25 -58 -43 -107 -43c-88 0 -103 60 -103 94c0 96 93 112 169 112c12 0 23 0 34 -1v17c0 38 -8 62 -55 62c-38 0 -52 -15 -59 -49l-77 13c10 64 52 103 144 103
s137 -33 137 -117zM237 434v57c-8 1 -19 1 -30 1c-36 0 -80 -9 -80 -46c0 -19 7 -38 43 -38c27 0 53 13 67 26z" />
    <glyph glyph-name="b.sup" horiz-adv-x="409" 
d="M127 350h-79v489h91v-181c27 20 64 35 109 35c71 0 129 -43 129 -167c0 -132 -63 -184 -146 -184c-44 0 -75 15 -98 36h-2zM140 592v-153c13 -10 39 -26 69 -26c50 0 71 38 71 111c0 61 -17 97 -67 97c-27 0 -57 -15 -73 -29z" />
    <glyph glyph-name="c.sup" horiz-adv-x="377" 
d="M197 342c-116 0 -167 72 -167 171c0 116 65 180 178 180c83 0 136 -48 143 -129l-84 -12c-4 45 -20 69 -62 69c-41 0 -78 -20 -78 -102c0 -80 29 -103 75 -103c40 0 66 21 73 65l77 -14c-12 -83 -75 -125 -155 -125z" />
    <glyph glyph-name="d.sup" horiz-adv-x="407" 
d="M360 839v-489h-77l-6 33l-1 1c-25 -26 -60 -42 -106 -42c-82 0 -138 52 -138 170c0 134 74 181 148 181c40 0 69 -11 92 -30v176h88zM269 440v162c-14 10 -37 20 -64 20c-56 0 -77 -44 -77 -108c0 -66 22 -101 72 -101c26 0 51 11 69 27z" />
    <glyph glyph-name="e.sup" horiz-adv-x="380" 
d="M200 342c-129 0 -170 84 -170 176c0 121 77 175 170 175c105 0 149 -62 149 -153c0 -11 -1 -31 -2 -43h-219c1 -66 29 -86 76 -86c40 0 59 18 66 50l76 -17c-13 -64 -66 -102 -146 -102zM129 553h124c2 51 -19 72 -58 72c-32 0 -65 -19 -66 -72z" />
    <glyph glyph-name="f.sup" horiz-adv-x="251" 
d="M257 834l-4 -64c-13 5 -31 9 -47 9c-32 0 -54 -10 -54 -56v-36h93v-65h-93v-272h-93v272h-48v65h48v43c0 80 49 116 123 116c35 0 63 -7 75 -12z" />
    <glyph glyph-name="g.sup" horiz-adv-x="387" 
d="M189 693c40 0 72 -6 95 -23c14 30 36 49 63 49c11 0 23 -2 34 -6v-59c-21 2 -48 -1 -67 -6c20 -21 28 -47 28 -75c0 -75 -62 -121 -150 -121c-24 0 -42 3 -60 8c-7 -7 -16 -14 -16 -24c0 -11 7 -19 35 -20l100 -5c74 -4 118 -27 118 -95c0 -83 -83 -112 -183 -112
c-129 0 -166 38 -166 82c0 34 23 56 55 65v1c-27 8 -40 25 -40 52c0 32 24 53 51 73c-28 16 -50 42 -50 95c0 73 57 121 153 121zM258 573c0 40 -24 56 -65 56c-39 0 -70 -14 -70 -55c0 -37 21 -55 68 -55c41 0 67 17 67 54zM279 300c0 18 -9 29 -48 31l-102 6
c-15 -10 -25 -22 -25 -38c0 -26 35 -34 90 -34c52 0 85 9 85 35z" />
    <glyph glyph-name="h.sup" horiz-adv-x="404" 
d="M360 572v-222h-92v211c0 39 -16 57 -52 57c-30 0 -62 -17 -76 -30v-238h-93v489h92v-184c28 23 63 38 112 38c75 0 109 -44 109 -121z" />
    <glyph glyph-name="i.sup" horiz-adv-x="188" 
d="M141 687v-337h-92v337h92zM153 791c0 -34 -22 -55 -58 -55s-57 21 -57 55s21 54 57 54s58 -20 58 -54z" />
    <glyph glyph-name="j.sup" horiz-adv-x="187" 
d="M22 205c-33 0 -66 9 -79 17l7 73c13 -6 34 -12 55 -12c25 0 44 10 44 51v353h93v-368c0 -81 -45 -114 -120 -114zM153 794c0 -35 -21 -55 -57 -55c-37 0 -57 20 -57 55c0 34 20 54 57 54c36 0 57 -20 57 -54z" />
    <glyph glyph-name="k.sup" horiz-adv-x="386" 
d="M141 839v-279l123 127h103l-117 -121l126 -216h-101l-96 159l-38 -37v-122h-93v489h93z" />
    <glyph glyph-name="l.sup" horiz-adv-x="188" 
d="M142 839v-489h-93v489h93z" />
    <glyph glyph-name="m.sup" horiz-adv-x="590" 
d="M140 588v-238h-93v337h79l5 -35c28 22 63 41 109 41c43 0 73 -13 89 -44c27 25 65 44 112 44c71 0 104 -37 104 -112v-231h-92v212c0 35 -10 55 -43 55c-23 0 -53 -14 -67 -28v-239h-92v212c0 35 -9 55 -42 55c-25 0 -55 -15 -69 -29z" />
    <glyph glyph-name="n.sup" horiz-adv-x="404" 
d="M360 579v-229h-92v210c0 39 -16 58 -52 58c-30 0 -62 -18 -76 -31v-237h-93v337h82l5 -37c28 24 68 43 115 43c77 0 111 -37 111 -114z" />
    <glyph glyph-name="o.sup" horiz-adv-x="406" 
d="M199 342c-122 0 -169 74 -169 175c0 108 59 176 179 176c119 0 166 -70 166 -169c0 -110 -51 -182 -176 -182zM202 416c48 0 77 28 77 104c0 75 -24 100 -73 100c-50 0 -79 -31 -79 -101s21 -103 75 -103z" />
    <glyph glyph-name="p.sup" horiz-adv-x="408" 
d="M48 212v475h79l5 -38c31 29 71 44 113 44c74 0 131 -43 131 -167c0 -133 -65 -184 -143 -184c-43 0 -73 12 -95 30v-160h-90zM139 589v-151c12 -9 40 -25 69 -25c52 0 72 41 72 111c0 72 -22 96 -67 96c-27 0 -57 -16 -74 -31z" />
    <glyph glyph-name="q.sup" horiz-adv-x="407" 
d="M360 687v-475h-88v165c-27 -20 -59 -35 -104 -35c-81 0 -136 49 -136 171c0 133 74 180 149 180c39 0 72 -13 94 -38l9 32h76zM269 440v158c-15 11 -40 24 -66 24c-54 0 -75 -42 -75 -107c0 -64 20 -99 72 -99c26 0 51 9 69 24z" />
    <glyph glyph-name="r.sup" horiz-adv-x="271" 
d="M261 693v-86c-45 5 -91 -8 -121 -32v-225h-93v337h79l7 -53c27 39 66 61 128 59z" />
    <glyph glyph-name="s.sup" horiz-adv-x="346" 
d="M177 693c81 0 122 -34 137 -92l-74 -20c-9 31 -23 49 -64 49c-36 0 -49 -13 -49 -32c0 -29 27 -33 70 -41c64 -12 124 -26 124 -104c0 -74 -65 -111 -151 -111c-88 0 -134 37 -146 96l75 24c8 -28 23 -54 74 -54c35 0 55 8 55 33c0 28 -25 33 -67 41
c-57 11 -123 26 -123 104c0 72 63 107 139 107z" />
    <glyph glyph-name="t.sup" horiz-adv-x="283" 
d="M259 433l13 -66c-17 -11 -57 -25 -99 -25c-72 0 -109 31 -109 105v177h-53v63h53v98l92 12v-110h95v-63h-95v-159c0 -31 9 -48 44 -48c21 0 45 8 59 16z" />
    <glyph glyph-name="u.sup" horiz-adv-x="402" 
d="M46 456v231h93v-213c0 -39 12 -58 48 -58c30 0 61 18 75 31v240h93v-337h-79l-7 38c-28 -27 -68 -45 -115 -45c-73 0 -108 38 -108 113z" />
    <glyph glyph-name="v.sup" horiz-adv-x="367" 
d="M237 350h-107l-126 337h100l81 -253h2l82 253h94z" />
    <glyph glyph-name="w.sup" horiz-adv-x="551" 
d="M218 350h-109l-105 337h93l68 -248h2l65 248h92l65 -246h1l67 246h90l-106 -337h-104l-61 233h-1z" />
    <glyph glyph-name="x.sup" horiz-adv-x="363" 
d="M348 687l-115 -165l119 -172h-99l-76 110l-72 -110h-92l116 170l-118 167h101l72 -110l75 110h89z" />
    <glyph glyph-name="y.sup" horiz-adv-x="359" 
d="M137 344l-132 343h99l78 -242h2l76 242h96c-45 -120 -95 -249 -137 -360c-33 -88 -62 -122 -134 -122c-27 0 -60 7 -75 14l9 69c17 -5 39 -9 54 -9c31 0 46 13 64 65z" />
    <glyph glyph-name="z.sup" horiz-adv-x="324" 
d="M295 623l-167 -201h176v-72h-280v64l170 204h-168v69h269v-64z" />
    <glyph glyph-name="zeroinferior" unicode="&#x2080;" horiz-adv-x="416" 
d="M206 -154c-123 0 -169 82 -169 233c0 149 55 230 175 230c127 0 167 -81 167 -226c0 -156 -47 -237 -173 -237zM208 -76c51 0 64 45 64 156c0 108 -11 150 -62 150s-65 -41 -65 -152c0 -108 11 -154 63 -154z" />
    <glyph glyph-name="oneinferior" unicode="&#x2081;" horiz-adv-x="305" 
d="M238 -149h-103v334c-21 -10 -78 -18 -99 -18l-5 80c57 4 105 20 136 52h71v-448z" />
    <glyph glyph-name="twoinferior" unicode="&#x2082;" horiz-adv-x="393" 
d="M199 309c96 0 144 -44 144 -116c0 -70 -40 -115 -123 -193l-54 -59v-3h184v-85h-302v84l100 107c66 70 92 101 92 143c0 32 -19 45 -50 45c-39 0 -56 -23 -62 -64l-88 13c10 90 77 128 159 128z" />
    <glyph glyph-name="threeinferior" unicode="&#x2083;" horiz-adv-x="384" 
d="M31 -38l90 16c6 -37 22 -56 63 -56c36 0 64 19 64 63c0 46 -25 63 -72 63h-47v70h30c54 0 83 28 83 68c0 28 -13 47 -51 47c-39 0 -54 -18 -62 -53l-87 17c17 85 85 112 159 112c91 0 142 -40 142 -107c0 -63 -45 -94 -87 -108v-2c62 -13 96 -47 96 -110
c0 -85 -69 -136 -166 -136c-74 0 -144 29 -155 116z" />
    <glyph glyph-name="fourinferior" unicode="&#x2084;" horiz-adv-x="404" 
d="M332 -147h-100v98h-208v70l183 280h125v-271h52v-79h-52v-98zM113 30h120v183z" />
    <glyph glyph-name="fiveinferior" unicode="&#x2085;" horiz-adv-x="399" 
d="M55 61l17 240h249v-83h-176l-12 -106v-7c22 19 51 34 92 34c69 0 124 -40 124 -137c0 -99 -71 -156 -169 -156c-75 0 -143 29 -155 116l89 17c5 -35 24 -57 65 -57c37 0 68 24 68 76c0 51 -29 67 -60 67c-27 0 -48 -12 -65 -27z" />
    <glyph glyph-name="sixinferior" unicode="&#x2086;" horiz-adv-x="421" 
d="M377 201l-90 -20c-7 41 -24 54 -52 54c-57 0 -82 -63 -82 -150c20 22 58 42 104 42c69 0 122 -40 122 -127c0 -107 -70 -154 -162 -154c-129 0 -162 102 -162 220c0 105 36 243 187 243c63 0 119 -24 135 -108zM157 26c2 -59 13 -105 64 -105c36 0 56 26 56 71
c0 43 -14 67 -51 67c-27 0 -55 -17 -69 -33z" />
    <glyph glyph-name="seveninferior" unicode="&#x2087;" horiz-adv-x="365" 
d="M165 -147h-108l178 365h-202v83h309v-75z" />
    <glyph glyph-name="eightinferior" unicode="&#x2088;" horiz-adv-x="403" 
d="M279 99c56 -23 95 -53 95 -120c0 -72 -66 -133 -178 -133c-109 0 -165 49 -165 117c0 61 39 93 94 116c-49 19 -77 57 -77 107c0 80 72 123 160 123c97 0 153 -40 153 -104c0 -46 -28 -82 -82 -106zM181 47c-35 -19 -54 -40 -54 -71c0 -34 23 -57 72 -57
c42 0 67 22 67 53c0 40 -39 58 -85 75zM220 127c28 16 49 40 49 68c0 29 -22 45 -59 45c-36 0 -57 -18 -57 -46c0 -30 26 -50 67 -67z" />
    <glyph glyph-name="nineinferior" unicode="&#x2089;" horiz-adv-x="420" 
d="M41 -45l90 24c8 -38 24 -59 60 -59c55 0 80 52 81 144c-20 -19 -59 -38 -103 -38c-72 0 -125 42 -125 131c0 105 74 152 165 152c125 0 159 -97 159 -221c0 -108 -28 -242 -180 -242c-72 0 -132 26 -147 109zM265 123c-4 61 -11 112 -63 112c-36 0 -55 -27 -55 -72
c0 -43 16 -71 53 -71c25 0 48 13 65 31z" />
    <glyph glyph-name="parenleftinferior" unicode="&#x208d;" horiz-adv-x="270" 
d="M248 -220h-103c-48 64 -96 156 -96 268c0 110 46 198 103 274h102c-55 -77 -100 -158 -100 -272c0 -115 46 -197 94 -270z" />
    <glyph glyph-name="parenrightinferior" unicode="&#x208e;" horiz-adv-x="305" 
d="M20 322h104c50 -66 99 -161 99 -272s-45 -196 -100 -270h-101c50 71 96 149 96 269c0 109 -45 194 -98 273z" />
    <glyph glyph-name="hypheninferior" horiz-adv-x="219" 
d="M195 0h-175v83h175v-83z" />
    <glyph glyph-name="commainferior" horiz-adv-x="191" 
d="M4 -219l42 161h102l-64 -169z" />
    <glyph glyph-name="periodinferior" horiz-adv-x="204" 
d="M164 -98c0 -36 -19 -56 -61 -56c-43 0 -63 19 -63 56s20 57 63 57c41 0 61 -20 61 -57z" />
    <glyph glyph-name="minusinferior" horiz-adv-x="439" 
d="M345 35h-250v76h250v-76z" />
    <glyph glyph-name="plusinferior" horiz-adv-x="439" 
d="M259 -57h-80v89h-87v76h87v86h80v-86h88v-76h-88v-89z" />
    <glyph glyph-name="equalinferior" horiz-adv-x="442" 
d="M346 -48h-250v76h250v-76zM346 72h-250v77h250v-77z" />
    <glyph glyph-name="a.sinf" horiz-adv-x="385" 
d="M326 80v-142c0 -27 11 -30 35 -26l3 -53c-14 -6 -34 -12 -54 -12c-39 0 -63 19 -67 42c-23 -25 -58 -43 -107 -43c-88 0 -103 60 -103 94c0 96 93 112 169 112c12 0 23 0 34 -1v17c0 38 -8 62 -55 62c-38 0 -52 -15 -59 -49l-77 13c10 64 52 103 144 103
s137 -33 137 -117zM237 -62v57c-8 1 -19 1 -30 1c-36 0 -80 -9 -80 -46c0 -19 7 -38 43 -38c27 0 53 13 67 26z" />
    <glyph glyph-name="b.sinf" horiz-adv-x="409" 
d="M127 -146h-79v489h91v-181c27 20 64 35 109 35c71 0 129 -43 129 -167c0 -132 -63 -184 -146 -184c-44 0 -75 15 -98 36h-2zM140 96v-153c13 -10 39 -26 69 -26c50 0 71 38 71 111c0 61 -17 97 -67 97c-27 0 -57 -15 -73 -29z" />
    <glyph glyph-name="c.sinf" horiz-adv-x="377" 
d="M197 -154c-116 0 -167 72 -167 171c0 116 65 180 178 180c83 0 136 -48 143 -129l-84 -12c-4 45 -20 69 -62 69c-41 0 -78 -20 -78 -102c0 -80 29 -103 75 -103c40 0 66 21 73 65l77 -14c-12 -83 -75 -125 -155 -125z" />
    <glyph glyph-name="d.sinf" horiz-adv-x="407" 
d="M360 343v-489h-77l-6 33l-1 1c-25 -26 -60 -42 -106 -42c-82 0 -138 52 -138 170c0 134 74 181 148 181c40 0 69 -11 92 -30v176h88zM269 -56v162c-14 10 -37 20 -64 20c-56 0 -77 -44 -77 -108c0 -66 22 -101 72 -101c26 0 51 11 69 27z" />
    <glyph glyph-name="e.sinf" horiz-adv-x="380" 
d="M200 -154c-129 0 -170 84 -170 176c0 121 77 175 170 175c105 0 149 -62 149 -153c0 -11 -1 -31 -2 -43h-219c1 -66 29 -86 76 -86c40 0 59 18 66 50l76 -17c-13 -64 -66 -102 -146 -102zM129 57h124c2 51 -19 72 -58 72c-32 0 -65 -19 -66 -72z" />
    <glyph glyph-name="f.sinf" horiz-adv-x="251" 
d="M257 338l-4 -64c-13 5 -31 9 -47 9c-32 0 -54 -10 -54 -56v-36h93v-65h-93v-272h-93v272h-48v65h48v43c0 80 49 116 123 116c35 0 63 -7 75 -12z" />
    <glyph glyph-name="g.sinf" horiz-adv-x="387" 
d="M189 197c40 0 72 -6 95 -23c14 30 36 49 63 49c11 0 23 -2 34 -6v-59c-21 2 -48 -1 -67 -6c20 -21 28 -47 28 -75c0 -75 -62 -121 -150 -121c-24 0 -42 3 -60 8c-7 -7 -16 -14 -16 -24c0 -11 7 -19 35 -20l100 -5c74 -4 118 -27 118 -95c0 -83 -83 -112 -183 -112
c-129 0 -166 38 -166 82c0 34 23 56 55 65v1c-27 8 -40 25 -40 52c0 32 24 53 51 73c-28 16 -50 42 -50 95c0 73 57 121 153 121zM258 77c0 40 -24 56 -65 56c-39 0 -70 -14 -70 -55c0 -37 21 -55 68 -55c41 0 67 17 67 54zM279 -196c0 18 -9 29 -48 31l-102 6
c-15 -10 -25 -22 -25 -38c0 -26 35 -34 90 -34c52 0 85 9 85 35z" />
    <glyph glyph-name="h.sinf" horiz-adv-x="404" 
d="M360 76v-222h-92v211c0 39 -16 57 -52 57c-30 0 -62 -17 -76 -30v-238h-93v489h92v-184c28 23 63 38 112 38c75 0 109 -44 109 -121z" />
    <glyph glyph-name="i.sinf" horiz-adv-x="188" 
d="M141 191v-337h-92v337h92zM153 295c0 -34 -22 -55 -58 -55s-57 21 -57 55s21 54 57 54s58 -20 58 -54z" />
    <glyph glyph-name="j.sinf" horiz-adv-x="187" 
d="M22 -291c-33 0 -66 9 -79 17l7 73c13 -6 34 -12 55 -12c25 0 44 10 44 51v353h93v-368c0 -81 -45 -114 -120 -114zM153 298c0 -35 -21 -55 -57 -55c-37 0 -57 20 -57 55c0 34 20 54 57 54c36 0 57 -20 57 -54z" />
    <glyph glyph-name="k.sinf" horiz-adv-x="386" 
d="M141 343v-279l123 127h103l-117 -121l126 -216h-101l-96 159l-38 -37v-122h-93v489h93z" />
    <glyph glyph-name="l.sinf" horiz-adv-x="188" 
d="M142 343v-489h-93v489h93z" />
    <glyph glyph-name="m.sinf" horiz-adv-x="590" 
d="M140 92v-238h-93v337h79l5 -35c28 22 63 41 109 41c43 0 73 -13 89 -44c27 25 65 44 112 44c71 0 104 -37 104 -112v-231h-92v212c0 35 -10 55 -43 55c-23 0 -53 -14 -67 -28v-239h-92v212c0 35 -9 55 -42 55c-25 0 -55 -15 -69 -29z" />
    <glyph glyph-name="n.sinf" horiz-adv-x="404" 
d="M360 83v-229h-92v210c0 39 -16 58 -52 58c-30 0 -62 -18 -76 -31v-237h-93v337h82l5 -37c28 24 68 43 115 43c77 0 111 -37 111 -114z" />
    <glyph glyph-name="o.sinf" horiz-adv-x="406" 
d="M199 -154c-122 0 -169 74 -169 175c0 108 59 176 179 176c119 0 166 -70 166 -169c0 -110 -51 -182 -176 -182zM202 -80c48 0 77 28 77 104c0 75 -24 100 -73 100c-50 0 -79 -31 -79 -101s21 -103 75 -103z" />
    <glyph glyph-name="p.sinf" horiz-adv-x="408" 
d="M48 -284v475h79l5 -38c31 29 71 44 113 44c74 0 131 -43 131 -167c0 -133 -65 -184 -143 -184c-43 0 -73 12 -95 30v-160h-90zM139 93v-151c12 -9 40 -25 69 -25c52 0 72 41 72 111c0 72 -22 96 -67 96c-27 0 -57 -16 -74 -31z" />
    <glyph glyph-name="q.sinf" horiz-adv-x="407" 
d="M360 191v-475h-88v165c-27 -20 -59 -35 -104 -35c-81 0 -136 49 -136 171c0 133 74 180 149 180c39 0 72 -13 94 -38l9 32h76zM269 -56v158c-15 11 -40 24 -66 24c-54 0 -75 -42 -75 -107c0 -64 20 -99 72 -99c26 0 51 9 69 24z" />
    <glyph glyph-name="r.sinf" horiz-adv-x="271" 
d="M261 197v-86c-45 5 -91 -8 -121 -32v-225h-93v337h79l7 -53c27 39 66 61 128 59z" />
    <glyph glyph-name="s.sinf" horiz-adv-x="346" 
d="M177 197c81 0 122 -34 137 -92l-74 -20c-9 31 -23 49 -64 49c-36 0 -49 -13 -49 -32c0 -29 27 -33 70 -41c64 -12 124 -26 124 -104c0 -74 -65 -111 -151 -111c-88 0 -134 37 -146 96l75 24c8 -28 23 -54 74 -54c35 0 55 8 55 33c0 28 -25 33 -67 41
c-57 11 -123 26 -123 104c0 72 63 107 139 107z" />
    <glyph glyph-name="t.sinf" horiz-adv-x="283" 
d="M259 -63l13 -66c-17 -11 -57 -25 -99 -25c-72 0 -109 31 -109 105v177h-53v63h53v98l92 12v-110h95v-63h-95v-159c0 -31 9 -48 44 -48c21 0 45 8 59 16z" />
    <glyph glyph-name="u.sinf" horiz-adv-x="402" 
d="M46 -40v231h93v-213c0 -39 12 -58 48 -58c30 0 61 18 75 31v240h93v-337h-79l-7 38c-28 -27 -68 -45 -115 -45c-73 0 -108 38 -108 113z" />
    <glyph glyph-name="v.sinf" horiz-adv-x="367" 
d="M237 -146h-107l-126 337h100l81 -253h2l82 253h94z" />
    <glyph glyph-name="w.sinf" horiz-adv-x="551" 
d="M218 -146h-109l-105 337h93l68 -248h2l65 248h92l65 -246h1l67 246h90l-106 -337h-104l-61 233h-1z" />
    <glyph glyph-name="x.sinf" horiz-adv-x="363" 
d="M348 191l-115 -165l119 -172h-99l-76 110l-72 -110h-92l116 170l-118 167h101l72 -110l75 110h89z" />
    <glyph glyph-name="y.sinf" horiz-adv-x="359" 
d="M137 -152l-132 343h99l78 -242h2l76 242h96c-45 -120 -95 -249 -137 -360c-33 -88 -62 -122 -134 -122c-27 0 -60 7 -75 14l9 69c17 -5 39 -9 54 -9c31 0 46 13 64 65z" />
    <glyph glyph-name="z.sinf" horiz-adv-x="324" 
d="M295 127l-167 -201h176v-72h-280v64l170 204h-168v69h269v-64z" />
    <glyph glyph-name="zero.num" horiz-adv-x="416" 
d="M206 274c-123 0 -169 82 -169 233c0 149 55 230 175 230c127 0 167 -81 167 -226c0 -156 -47 -237 -173 -237zM208 352c51 0 64 45 64 156c0 108 -11 150 -62 150s-65 -41 -65 -152c0 -108 11 -154 63 -154z" />
    <glyph glyph-name="one.num" horiz-adv-x="305" 
d="M238 279h-103v334c-21 -10 -78 -18 -99 -18l-5 80c57 4 105 20 136 52h71v-448z" />
    <glyph glyph-name="two.num" horiz-adv-x="393" 
d="M199 737c96 0 144 -44 144 -116c0 -70 -40 -115 -123 -193l-54 -59v-3h184v-85h-302v84l100 107c66 70 92 101 92 143c0 32 -19 45 -50 45c-39 0 -56 -23 -62 -64l-88 13c10 90 77 128 159 128z" />
    <glyph glyph-name="three.num" horiz-adv-x="384" 
d="M31 390l90 16c6 -37 22 -56 63 -56c36 0 64 19 64 63c0 46 -25 63 -72 63h-47v70h30c54 0 83 28 83 68c0 28 -13 47 -51 47c-39 0 -54 -18 -62 -53l-87 17c17 85 85 112 159 112c91 0 142 -40 142 -107c0 -63 -45 -94 -87 -108v-2c62 -13 96 -47 96 -110
c0 -85 -69 -136 -166 -136c-74 0 -144 29 -155 116z" />
    <glyph glyph-name="four.num" horiz-adv-x="404" 
d="M332 281h-100v98h-208v70l183 280h125v-271h52v-79h-52v-98zM113 458h120v183z" />
    <glyph glyph-name="five.num" horiz-adv-x="399" 
d="M55 489l17 240h249v-83h-176l-12 -106v-7c22 19 51 34 92 34c69 0 124 -40 124 -137c0 -99 -71 -156 -169 -156c-75 0 -143 29 -155 116l89 17c5 -35 24 -57 65 -57c37 0 68 24 68 76c0 51 -29 67 -60 67c-27 0 -48 -12 -65 -27z" />
    <glyph glyph-name="six.num" horiz-adv-x="421" 
d="M377 629l-90 -20c-7 41 -24 54 -52 54c-57 0 -82 -63 -82 -150c20 22 58 42 104 42c69 0 122 -40 122 -127c0 -107 -70 -154 -162 -154c-129 0 -162 102 -162 220c0 105 36 243 187 243c63 0 119 -24 135 -108zM157 454c2 -59 13 -105 64 -105c36 0 56 26 56 71
c0 43 -14 67 -51 67c-27 0 -55 -17 -69 -33z" />
    <glyph glyph-name="seven.num" horiz-adv-x="365" 
d="M165 281h-108l178 365h-202v83h309v-75z" />
    <glyph glyph-name="eight.num" horiz-adv-x="403" 
d="M279 527c56 -23 95 -53 95 -120c0 -72 -66 -133 -178 -133c-109 0 -165 49 -165 117c0 61 39 93 94 116c-49 19 -77 57 -77 107c0 80 72 123 160 123c97 0 153 -40 153 -104c0 -46 -28 -82 -82 -106zM181 475c-35 -19 -54 -40 -54 -71c0 -34 23 -57 72 -57
c42 0 67 22 67 53c0 40 -39 58 -85 75zM220 555c28 16 49 40 49 68c0 29 -22 45 -59 45c-36 0 -57 -18 -57 -46c0 -30 26 -50 67 -67z" />
    <glyph glyph-name="nine.num" horiz-adv-x="420" 
d="M41 383l90 24c8 -38 24 -59 60 -59c55 0 80 52 81 144c-20 -19 -59 -38 -103 -38c-72 0 -125 42 -125 131c0 105 74 152 165 152c125 0 159 -97 159 -221c0 -108 -28 -242 -180 -242c-72 0 -132 26 -147 109zM265 551c-4 61 -11 112 -63 112c-36 0 -55 -27 -55 -72
c0 -43 16 -71 53 -71c25 0 48 13 65 31z" />
    <glyph glyph-name="parenleft.ordn" horiz-adv-x="270" 
d="M248 208h-103c-48 64 -96 156 -96 268c0 110 46 198 103 274h102c-55 -77 -100 -158 -100 -272c0 -115 46 -197 94 -270z" />
    <glyph glyph-name="parenright.ordn" horiz-adv-x="305" 
d="M20 750h104c50 -66 99 -161 99 -272s-45 -196 -100 -270h-101c50 71 96 149 96 269c0 109 -45 194 -98 273z" />
    <glyph glyph-name="hyphen.ordn" horiz-adv-x="219" 
d="M195 428h-175v83h175v-83z" />
    <glyph glyph-name="comma.ordn" horiz-adv-x="191" 
d="M4 209l42 161h102l-64 -169z" />
    <glyph glyph-name="period.ordn" horiz-adv-x="204" 
d="M164 330c0 -36 -19 -56 -61 -56c-43 0 -63 19 -63 56s20 57 63 57c41 0 61 -20 61 -57z" />
    <glyph glyph-name="minus.ordn" horiz-adv-x="439" 
d="M345 463h-250v76h250v-76z" />
    <glyph glyph-name="plus.ordn" horiz-adv-x="439" 
d="M259 371h-80v89h-87v76h87v86h80v-86h88v-76h-88v-89z" />
    <glyph glyph-name="equal.ordn" horiz-adv-x="442" 
d="M346 380h-250v76h250v-76zM346 500h-250v77h250v-77z" />
    <glyph glyph-name="a.ordn" horiz-adv-x="385" 
d="M326 508v-142c0 -27 11 -30 35 -26l3 -53c-14 -6 -34 -12 -54 -12c-39 0 -63 19 -67 42c-23 -25 -58 -43 -107 -43c-88 0 -103 60 -103 94c0 96 93 112 169 112c12 0 23 0 34 -1v17c0 38 -8 62 -55 62c-38 0 -52 -15 -59 -49l-77 13c10 64 52 103 144 103
s137 -33 137 -117zM237 366v57c-8 1 -19 1 -30 1c-36 0 -80 -9 -80 -46c0 -19 7 -38 43 -38c27 0 53 13 67 26z" />
    <glyph glyph-name="b.ordn" horiz-adv-x="409" 
d="M127 282h-79v489h91v-181c27 20 64 35 109 35c71 0 129 -43 129 -167c0 -132 -63 -184 -146 -184c-44 0 -75 15 -98 36h-2zM140 524v-153c13 -10 39 -26 69 -26c50 0 71 38 71 111c0 61 -17 97 -67 97c-27 0 -57 -15 -73 -29z" />
    <glyph glyph-name="c.ordn" horiz-adv-x="377" 
d="M197 274c-116 0 -167 72 -167 171c0 116 65 180 178 180c83 0 136 -48 143 -129l-84 -12c-4 45 -20 69 -62 69c-41 0 -78 -20 -78 -102c0 -80 29 -103 75 -103c40 0 66 21 73 65l77 -14c-12 -83 -75 -125 -155 -125z" />
    <glyph glyph-name="d.ordn" horiz-adv-x="407" 
d="M360 771v-489h-77l-6 33l-1 1c-25 -26 -60 -42 -106 -42c-82 0 -138 52 -138 170c0 134 74 181 148 181c40 0 69 -11 92 -30v176h88zM269 372v162c-14 10 -37 20 -64 20c-56 0 -77 -44 -77 -108c0 -66 22 -101 72 -101c26 0 51 11 69 27z" />
    <glyph glyph-name="e.ordn" horiz-adv-x="380" 
d="M200 274c-129 0 -170 84 -170 176c0 121 77 175 170 175c105 0 149 -62 149 -153c0 -11 -1 -31 -2 -43h-219c1 -66 29 -86 76 -86c40 0 59 18 66 50l76 -17c-13 -64 -66 -102 -146 -102zM129 485h124c2 51 -19 72 -58 72c-32 0 -65 -19 -66 -72z" />
    <glyph glyph-name="f.ordn" horiz-adv-x="251" 
d="M257 766l-4 -64c-13 5 -31 9 -47 9c-32 0 -54 -10 -54 -56v-36h93v-65h-93v-272h-93v272h-48v65h48v43c0 80 49 116 123 116c35 0 63 -7 75 -12z" />
    <glyph glyph-name="g.ordn" horiz-adv-x="387" 
d="M189 625c40 0 72 -6 95 -23c14 30 36 49 63 49c11 0 23 -2 34 -6v-59c-21 2 -48 -1 -67 -6c20 -21 28 -47 28 -75c0 -75 -62 -121 -150 -121c-24 0 -42 3 -60 8c-7 -7 -16 -14 -16 -24c0 -11 7 -19 35 -20l100 -5c74 -4 118 -27 118 -95c0 -83 -83 -112 -183 -112
c-129 0 -166 38 -166 82c0 34 23 56 55 65v1c-27 8 -40 25 -40 52c0 32 24 53 51 73c-28 16 -50 42 -50 95c0 73 57 121 153 121zM258 505c0 40 -24 56 -65 56c-39 0 -70 -14 -70 -55c0 -37 21 -55 68 -55c41 0 67 17 67 54zM279 232c0 18 -9 29 -48 31l-102 6
c-15 -10 -25 -22 -25 -38c0 -26 35 -34 90 -34c52 0 85 9 85 35z" />
    <glyph glyph-name="h.ordn" horiz-adv-x="404" 
d="M360 504v-222h-92v211c0 39 -16 57 -52 57c-30 0 -62 -17 -76 -30v-238h-93v489h92v-184c28 23 63 38 112 38c75 0 109 -44 109 -121z" />
    <glyph glyph-name="i.ordn" horiz-adv-x="188" 
d="M141 619v-337h-92v337h92zM153 723c0 -34 -22 -55 -58 -55s-57 21 -57 55s21 54 57 54s58 -20 58 -54z" />
    <glyph glyph-name="j.ordn" horiz-adv-x="187" 
d="M22 137c-33 0 -66 9 -79 17l7 73c13 -6 34 -12 55 -12c25 0 44 10 44 51v353h93v-368c0 -81 -45 -114 -120 -114zM153 726c0 -35 -21 -55 -57 -55c-37 0 -57 20 -57 55c0 34 20 54 57 54c36 0 57 -20 57 -54z" />
    <glyph glyph-name="k.ordn" horiz-adv-x="386" 
d="M141 771v-279l123 127h103l-117 -121l126 -216h-101l-96 159l-38 -37v-122h-93v489h93z" />
    <glyph glyph-name="l.ordn" horiz-adv-x="188" 
d="M142 771v-489h-93v489h93z" />
    <glyph glyph-name="m.ordn" horiz-adv-x="590" 
d="M140 520v-238h-93v337h79l5 -35c28 22 63 41 109 41c43 0 73 -13 89 -44c27 25 65 44 112 44c71 0 104 -37 104 -112v-231h-92v212c0 35 -10 55 -43 55c-23 0 -53 -14 -67 -28v-239h-92v212c0 35 -9 55 -42 55c-25 0 -55 -15 -69 -29z" />
    <glyph glyph-name="n.ordn" horiz-adv-x="404" 
d="M360 511v-229h-92v210c0 39 -16 58 -52 58c-30 0 -62 -18 -76 -31v-237h-93v337h82l5 -37c28 24 68 43 115 43c77 0 111 -37 111 -114z" />
    <glyph glyph-name="o.ordn" horiz-adv-x="406" 
d="M199 274c-122 0 -169 74 -169 175c0 108 59 176 179 176c119 0 166 -70 166 -169c0 -110 -51 -182 -176 -182zM202 348c48 0 77 28 77 104c0 75 -24 100 -73 100c-50 0 -79 -31 -79 -101s21 -103 75 -103z" />
    <glyph glyph-name="p.ordn" horiz-adv-x="408" 
d="M48 144v475h79l5 -38c31 29 71 44 113 44c74 0 131 -43 131 -167c0 -133 -65 -184 -143 -184c-43 0 -73 12 -95 30v-160h-90zM139 521v-151c12 -9 40 -25 69 -25c52 0 72 41 72 111c0 72 -22 96 -67 96c-27 0 -57 -16 -74 -31z" />
    <glyph glyph-name="q.ordn" horiz-adv-x="407" 
d="M360 619v-475h-88v165c-27 -20 -59 -35 -104 -35c-81 0 -136 49 -136 171c0 133 74 180 149 180c39 0 72 -13 94 -38l9 32h76zM269 372v158c-15 11 -40 24 -66 24c-54 0 -75 -42 -75 -107c0 -64 20 -99 72 -99c26 0 51 9 69 24z" />
    <glyph glyph-name="r.ordn" horiz-adv-x="271" 
d="M261 625v-86c-45 5 -91 -8 -121 -32v-225h-93v337h79l7 -53c27 39 66 61 128 59z" />
    <glyph glyph-name="s.ordn" horiz-adv-x="346" 
d="M177 625c81 0 122 -34 137 -92l-74 -20c-9 31 -23 49 -64 49c-36 0 -49 -13 -49 -32c0 -29 27 -33 70 -41c64 -12 124 -26 124 -104c0 -74 -65 -111 -151 -111c-88 0 -134 37 -146 96l75 24c8 -28 23 -54 74 -54c35 0 55 8 55 33c0 28 -25 33 -67 41
c-57 11 -123 26 -123 104c0 72 63 107 139 107z" />
    <glyph glyph-name="t.ordn" horiz-adv-x="283" 
d="M259 365l13 -66c-17 -11 -57 -25 -99 -25c-72 0 -109 31 -109 105v177h-53v63h53v98l92 12v-110h95v-63h-95v-159c0 -31 9 -48 44 -48c21 0 45 8 59 16z" />
    <glyph glyph-name="u.ordn" horiz-adv-x="402" 
d="M46 388v231h93v-213c0 -39 12 -58 48 -58c30 0 61 18 75 31v240h93v-337h-79l-7 38c-28 -27 -68 -45 -115 -45c-73 0 -108 38 -108 113z" />
    <glyph glyph-name="v.ordn" horiz-adv-x="367" 
d="M237 282h-107l-126 337h100l81 -253h2l82 253h94z" />
    <glyph glyph-name="w.ordn" horiz-adv-x="551" 
d="M218 282h-109l-105 337h93l68 -248h2l65 248h92l65 -246h1l67 246h90l-106 -337h-104l-61 233h-1z" />
    <glyph glyph-name="x.ordn" horiz-adv-x="363" 
d="M348 619l-115 -165l119 -172h-99l-76 110l-72 -110h-92l116 170l-118 167h101l72 -110l75 110h89z" />
    <glyph glyph-name="y.ordn" horiz-adv-x="359" 
d="M137 276l-132 343h99l78 -242h2l76 242h96c-45 -120 -95 -249 -137 -360c-33 -88 -62 -122 -134 -122c-27 0 -60 7 -75 14l9 69c17 -5 39 -9 54 -9c31 0 46 13 64 65z" />
    <glyph glyph-name="z.ordn" horiz-adv-x="324" 
d="M295 555l-167 -201h176v-72h-280v64l170 204h-168v69h269v-64z" />
    <glyph glyph-name="zero.denom" horiz-adv-x="416" 
d="M206 -7c-123 0 -169 82 -169 233c0 149 55 230 175 230c127 0 167 -81 167 -226c0 -156 -47 -237 -173 -237zM208 71c51 0 64 45 64 156c0 108 -11 150 -62 150s-65 -41 -65 -152c0 -108 11 -154 63 -154z" />
    <glyph glyph-name="one.denom" horiz-adv-x="305" 
d="M238 -2h-103v334c-21 -10 -78 -18 -99 -18l-5 80c57 4 105 20 136 52h71v-448z" />
    <glyph glyph-name="two.denom" horiz-adv-x="393" 
d="M199 456c96 0 144 -44 144 -116c0 -70 -40 -115 -123 -193l-54 -59v-3h184v-85h-302v84l100 107c66 70 92 101 92 143c0 32 -19 45 -50 45c-39 0 -56 -23 -62 -64l-88 13c10 90 77 128 159 128z" />
    <glyph glyph-name="three.denom" horiz-adv-x="384" 
d="M31 109l90 16c6 -37 22 -56 63 -56c36 0 64 19 64 63c0 46 -25 63 -72 63h-47v70h30c54 0 83 28 83 68c0 28 -13 47 -51 47c-39 0 -54 -18 -62 -53l-87 17c17 85 85 112 159 112c91 0 142 -40 142 -107c0 -63 -45 -94 -87 -108v-2c62 -13 96 -47 96 -110
c0 -85 -69 -136 -166 -136c-74 0 -144 29 -155 116z" />
    <glyph glyph-name="four.denom" horiz-adv-x="404" 
d="M332 0h-100v98h-208v70l183 280h125v-271h52v-79h-52v-98zM113 177h120v183z" />
    <glyph glyph-name="five.denom" horiz-adv-x="399" 
d="M55 208l17 240h249v-83h-176l-12 -106v-7c22 19 51 34 92 34c69 0 124 -40 124 -137c0 -99 -71 -156 -169 -156c-75 0 -143 29 -155 116l89 17c5 -35 24 -57 65 -57c37 0 68 24 68 76c0 51 -29 67 -60 67c-27 0 -48 -12 -65 -27z" />
    <glyph glyph-name="six.denom" horiz-adv-x="421" 
d="M377 348l-90 -20c-7 41 -24 54 -52 54c-57 0 -82 -63 -82 -150c20 22 58 42 104 42c69 0 122 -40 122 -127c0 -107 -70 -154 -162 -154c-129 0 -162 102 -162 220c0 105 36 243 187 243c63 0 119 -24 135 -108zM157 173c2 -59 13 -105 64 -105c36 0 56 26 56 71
c0 43 -14 67 -51 67c-27 0 -55 -17 -69 -33z" />
    <glyph glyph-name="seven.denom" horiz-adv-x="365" 
d="M165 0h-108l178 365h-202v83h309v-75z" />
    <glyph glyph-name="eight.denom" horiz-adv-x="403" 
d="M279 246c56 -23 95 -53 95 -120c0 -72 -66 -133 -178 -133c-109 0 -165 49 -165 117c0 61 39 93 94 116c-49 19 -77 57 -77 107c0 80 72 123 160 123c97 0 153 -40 153 -104c0 -46 -28 -82 -82 -106zM181 194c-35 -19 -54 -40 -54 -71c0 -34 23 -57 72 -57
c42 0 67 22 67 53c0 40 -39 58 -85 75zM220 274c28 16 49 40 49 68c0 29 -22 45 -59 45c-36 0 -57 -18 -57 -46c0 -30 26 -50 67 -67z" />
    <glyph glyph-name="nine.denom" horiz-adv-x="420" 
d="M41 102l90 24c8 -38 24 -59 60 -59c55 0 80 52 81 144c-20 -19 -59 -38 -103 -38c-72 0 -125 42 -125 131c0 105 74 152 165 152c125 0 159 -97 159 -221c0 -108 -28 -242 -180 -242c-72 0 -132 26 -147 109zM265 270c-4 61 -11 112 -63 112c-36 0 -55 -27 -55 -72
c0 -43 16 -71 53 -71c25 0 48 13 65 31z" />
    <glyph glyph-name="onehalf" unicode="&#xbd;" horiz-adv-x="945" 
d="M315 -12h-107l356 736h105zM267 279h-103v334c-21 -10 -78 -18 -99 -18l-5 80c57 4 105 20 136 52h71v-448zM735 456c96 0 144 -44 144 -116c0 -70 -40 -115 -123 -193l-54 -59v-3h184v-85h-302v84l100 107c66 70 92 101 92 143c0 32 -19 45 -50 45
c-39 0 -56 -23 -62 -64l-88 13c10 90 77 128 159 128z" />
    <glyph glyph-name="onethird" unicode="&#x2153;" horiz-adv-x="945" 
d="M320 -12h-107l356 736h105zM261 279h-103v334c-21 -10 -78 -18 -99 -18l-5 80c57 4 105 20 136 52h71v-448zM576 109l90 16c6 -37 22 -56 63 -56c36 0 64 19 64 63c0 46 -25 63 -72 63h-47v70h30c54 0 83 28 83 68c0 28 -13 47 -51 47c-39 0 -54 -18 -62 -53l-87 17
c17 85 85 112 159 112c91 0 142 -40 142 -107c0 -63 -45 -94 -87 -108v-2c62 -13 96 -47 96 -110c0 -85 -69 -136 -166 -136c-74 0 -144 29 -155 116z" />
    <glyph glyph-name="twothirds" unicode="&#x2154;" horiz-adv-x="945" 
d="M361 -12h-107l356 736h105zM194 737c96 0 144 -44 144 -116c0 -70 -40 -115 -123 -193l-54 -59v-3h184v-85h-302v84l100 107c66 70 92 101 92 143c0 32 -19 45 -50 45c-39 0 -56 -23 -62 -64l-88 13c10 90 77 128 159 128zM599 109l90 16c6 -37 22 -56 63 -56
c36 0 64 19 64 63c0 46 -25 63 -72 63h-47v70h30c54 0 83 28 83 68c0 28 -13 47 -51 47c-39 0 -54 -18 -62 -53l-87 17c17 85 85 112 159 112c91 0 142 -40 142 -107c0 -63 -45 -94 -87 -108v-2c62 -13 96 -47 96 -110c0 -85 -69 -136 -166 -136c-74 0 -144 29 -155 116z
" />
    <glyph glyph-name="onequarter" unicode="&#xbc;" horiz-adv-x="945" 
d="M325 -12h-107l356 736h105zM261 279h-103v334c-21 -10 -78 -18 -99 -18l-5 80c57 4 105 20 136 52h71v-448zM838 0h-100v98h-208v70l183 280h125v-271h52v-79h-52v-98zM619 177h120v183z" />
    <glyph glyph-name="threequarters" unicode="&#xbe;" horiz-adv-x="945" 
d="M359 -12h-107l356 736h105zM856 0h-100v98h-208v70l183 280h125v-271h52v-79h-52v-98zM637 177h120v183zM45 390l90 16c6 -37 22 -56 63 -56c36 0 64 19 64 63c0 46 -25 63 -72 63h-47v70h30c54 0 83 28 83 68c0 28 -13 47 -51 47c-39 0 -54 -18 -62 -53l-87 17
c17 85 85 112 159 112c91 0 142 -40 142 -107c0 -63 -45 -94 -87 -108v-2c62 -13 96 -47 96 -110c0 -85 -69 -136 -166 -136c-74 0 -144 29 -155 116z" />
    <glyph glyph-name="partialdiff" unicode="&#x2202;" horiz-adv-x="564" 
d="M395 363c1 11 3 25 3 39c0 97 -28 181 -124 181c-53 0 -110 -25 -146 -52l-47 74c53 38 131 69 209 69c179 0 221 -147 221 -294c0 -174 -46 -392 -260 -392c-135 0 -209 75 -209 200c0 136 78 224 202 224c69 0 119 -24 151 -49zM390 276c-26 22 -71 52 -124 52
c-80 0 -107 -63 -107 -136c0 -60 26 -115 95 -115c104 0 128 113 136 199z" />
    <glyph glyph-name="Omega" unicode="&#x2126;" horiz-adv-x="829" 
d="M563 132v-34h181v-98h-266v180c68 27 162 93 162 237c0 154 -84 221 -214 221c-129 0 -222 -77 -222 -235c0 -123 69 -188 153 -223v-180h-268v98h182v34c-123 46 -187 148 -187 277c0 193 130 328 344 328c228 0 331 -124 331 -307c0 -146 -91 -248 -196 -298z" />
    <glyph glyph-name="Delta" unicode="&#x2206;" horiz-adv-x="688" 
d="M670 0h-652l253 724h141zM332 608l-173 -511h345l-168 511h-4z" />
    <glyph glyph-name="product" unicode="&#x220f;" horiz-adv-x="779" 
d="M664 724v-885h-117v787h-316v-787h-117v885h550z" />
    <glyph glyph-name="summation" unicode="&#x2211;" horiz-adv-x="627" 
d="M370 280l-217 -350h415v-106h-550v79l230 371l-216 373v77h534v-98h-390z" />
    </font>
</defs>
</svg>
