<?xml version="1.0" standalone="no"?>
<!DOCTYPE svg PUBLIC "-//W3C//DTD SVG 1.1//EN" "http://www.w3.org/Graphics/SVG/1.1/DTD/svg11.dtd" >
<svg xmlns="http://www.w3.org/2000/svg" xmlns:xlink="http://www.w3.org/1999/xlink" version="1.1">
<metadata>
Created by FontForge 20170910 at Wed Nov 23 01:43:52 2011
 By Jimmy Wärting
Copyright (c) Mark Simonson, 2010. All rights reserved.
</metadata>
<defs>
<font id="ProximaNovaSoft-Bold" horiz-adv-x="524" >
  <font-face 
    font-family="Proxima Nova Soft"
    font-weight="700"
    font-stretch="normal"
    units-per-em="2048"
    panose-1="2 0 5 6 3 0 0 2 0 4"
    ascent="1587"
    descent="-461"
    x-height="989"
    cap-height="1378"
    bbox="-197 -401.008 2144 1841"
    underline-thickness="40"
    underline-position="-271"
    unicode-range="U+0020-FB04"
  />
<missing-glyph horiz-adv-x="989" 
d="M135 -106v1568q0 31 23.5 54.5t54.5 23.5h563q31 0 54.5 -23.5t23.5 -54.5v-1568q0 -31 -23.5 -54.5t-54.5 -23.5h-563q-31 0 -54.5 23.5t-23.5 54.5zM199 -123h589v1602h-589v-1602z" />
    <glyph glyph-name=".notdef" horiz-adv-x="989" 
d="M135 -106v1568q0 31 23.5 54.5t54.5 23.5h563q31 0 54.5 -23.5t23.5 -54.5v-1568q0 -31 -23.5 -54.5t-54.5 -23.5h-563q-31 0 -54.5 23.5t-23.5 54.5zM199 -123h589v1602h-589v-1602z" />
    <glyph glyph-name=".null" horiz-adv-x="0" 
 />
    <glyph glyph-name="nonmarkingreturn" horiz-adv-x="682" 
 />
    <glyph glyph-name="space" unicode=" " 
 />
    <glyph glyph-name="exclam" unicode="!" 
d="M98 143q0 68 48.5 117t116 49t116.5 -49t49 -117q0 -66 -49 -114.5t-116.5 -48.5t-116 48.5t-48.5 114.5zM111 1229q0 63 44 106t109 43q63 0 105.5 -43t42.5 -106q0 -2 -31 -684q-2 -47 -36 -80t-85 -33q-47 0 -81 33t-36 80q-4 90 -12 260t-14 288t-6 136z" />
    <glyph glyph-name="quotedbl" unicode="&#x22;" horiz-adv-x="831" 
d="M90 1245q0 57 41 99t100 42q57 0 99.5 -41.5t42.5 -99.5q0 -39 -74 -434q-10 -55 -70 -55q-23 0 -42 15t-23 40q-74 395 -74 434zM461 1245q0 57 42 99t99 42t98 -40.5t41 -100.5q0 -41 -73 -436q-10 -53 -70 -53q-23 0 -41 15t-22 38q-74 395 -74 436z" />
    <glyph glyph-name="numbersign" unicode="#" horiz-adv-x="1265" 
d="M61 432q0 33 25 56.5t57 23.5h146l110 340h-94q-33 0 -56.5 24.5t-23.5 59.5q0 33 23.5 56.5t56.5 23.5h152l98 301q20 59 86 59q41 0 66.5 -26.5t25.5 -61.5q0 -10 -4 -26l-80 -246h193l98 299q20 61 88 61q41 0 66.5 -25.5t25.5 -62.5q0 -12 -4 -28l-84 -244h94
q33 0 56.5 -24.5t23.5 -59.5q0 -33 -23.5 -56.5t-56.5 -23.5h-149l-113 -340h103q33 0 56.5 -24.5t23.5 -59.5q0 -33 -24 -57.5t-56 -24.5h-158l-98 -297q-18 -61 -88 -61q-41 0 -67 25.5t-26 62.5q0 18 5 28l83 242h-194l-100 -299q-20 -61 -88 -61q-39 -2 -65 25.5
t-26 62.5q0 18 5 28l81 244h-88q-35 0 -58.5 24.5t-23.5 61.5zM481 512h191l112 340h-192z" />
    <glyph glyph-name="dollar" unicode="$" horiz-adv-x="1257" 
d="M96 223q0 55 40 95t95 40q43 0 80 -24q106 -74 234 -96v323q-76 18 -128 35.5t-116.5 51.5t-103.5 74t-66 104.5t-27 144.5q0 160 119 275.5t322 135.5v109q0 39 28.5 66.5t71.5 27.5q39 0 66.5 -27.5t27.5 -66.5v-113q109 -12 211.5 -51t143.5 -98q20 -31 20 -64
q0 -57 -45 -95t-100 -38q-18 0 -39 6q-27 8 -92.5 39t-98.5 39v-289q76 -18 129.5 -36.5t118 -52t104 -74.5t67.5 -105.5t28 -144.5q0 -176 -115 -293t-332 -139v-105q0 -39 -27.5 -66.5t-66.5 -27.5q-43 0 -71.5 27.5t-28.5 66.5v103q-135 12 -259 59t-169 119
q-21 34 -21 65zM401 995q0 -76 144 -116v249q-68 -8 -106 -44t-38 -89zM739 238q72 14 112 54t40 89q0 82 -152 131v-274z" />
    <glyph glyph-name="percent" unicode="%" horiz-adv-x="1550" 
d="M53 1042q0 147 96.5 245.5t249.5 98.5q156 0 252.5 -98t96.5 -246q0 -145 -96.5 -240t-252.5 -95q-154 0 -250 95t-96 240zM238 1042q0 -78 46 -127t115 -49q72 0 117 48.5t45 127.5q0 84 -45 133.5t-116.5 49.5t-116.5 -49.5t-45 -133.5zM311 51q0 18 11 35l806 1264
q18 29 54 28q27 0 47 -19.5t20 -45.5q0 -16 -10 -33l-807 -1264q-18 -29 -53 -28q-29 0 -48.5 18t-19.5 45zM805 313q0 147 96 245.5t250 98.5t251 -98t97 -246q0 -145 -97 -241.5t-251 -96.5t-250 96.5t-96 241.5zM989 313q0 -82 45 -130t117 -48t118 48t46 130
q0 84 -46 133.5t-118 49.5t-117 -49.5t-45 -133.5z" />
    <glyph glyph-name="ampersand" unicode="&#x26;" horiz-adv-x="1323" 
d="M49 371q0 141 79 233t214 160q-90 170 -90 295q0 139 110.5 233t280.5 94q152 0 255 -78.5t103 -209.5q0 -74 -26.5 -133.5t-80.5 -104.5t-102.5 -72.5t-125.5 -64.5q41 -55 233 -287q49 76 90 170q12 29 40 47.5t61 18.5q47 0 79.5 -34t32.5 -77q0 -23 -16 -61
q-35 -80 -144 -226q8 -10 35 -35.5t40 -41t25.5 -41t12.5 -50.5q0 -47 -34 -83.5t-83 -36.5q-63 0 -166 116q-168 -127 -372 -127q-197 0 -324 103t-127 293zM326 395q0 -96 61.5 -155.5t149.5 -59.5q100 0 196 70q-170 186 -289 354q-118 -84 -118 -209zM512 1053
q0 -72 59 -185q100 47 152.5 96.5t52.5 118.5q0 53 -34.5 84t-86.5 31q-61 0 -102 -42t-41 -103z" />
    <glyph glyph-name="quotesingle" unicode="'" horiz-adv-x="460" 
d="M90 1245q0 57 41 99t100 42q57 0 99.5 -41.5t42.5 -99.5q0 -39 -74 -434q-10 -55 -70 -55q-23 0 -42 15t-23 40q-74 395 -74 434z" />
    <glyph glyph-name="parenleft" unicode="(" horiz-adv-x="608" 
d="M84 498q0 217 72.5 443t195.5 396q29 37 80 37q49 0 81 -35.5t32 -81.5q0 -29 -13 -53q-168 -340 -167 -706q0 -369 167 -701q12 -27 13 -55q0 -47 -33 -84t-80 -37q-53 0 -80 39q-123 168 -195.5 393.5t-72.5 444.5z" />
    <glyph glyph-name="parenright" unicode=")" horiz-adv-x="608" 
d="M63 -258q0 29 13 55q168 332 168 701q0 367 -168 706q-12 25 -13 53q0 45 32 81t79 36q55 0 82 -37q123 -172 196.5 -397t73.5 -442q0 -219 -73.5 -444.5t-196.5 -393.5q-27 -39 -80 -39q-47 0 -80 37t-33 84z" />
    <glyph glyph-name="asterisk" unicode="*" horiz-adv-x="718" 
d="M63 934q0 37 33 53l154 80l-154 80q-33 16 -33 51q0 29 19.5 47.5t44.5 18.5q16 0 31 -9l147 -94l-8 176q-2 25 17.5 43.5t47.5 18.5q23 0 42.5 -18.5t17.5 -43.5l-8 -176l145 92q16 10 33 11q23 0 42 -17.5t19 -46.5q0 -37 -30 -53l-154 -80l154 -80q31 -16 30 -51
q0 -27 -18.5 -45.5t-44.5 -18.5q-16 0 -31 9l-145 94l8 -176q2 -25 -17.5 -43.5t-46 -18.5t-45 18.5t-16.5 43.5l8 176l-149 -94q-14 -10 -31 -11q-23 0 -42.5 18.5t-19.5 45.5z" />
    <glyph glyph-name="plus" unicode="+" horiz-adv-x="1032" 
d="M47 694q0 33 23.5 55.5t56.5 22.5h301v326q0 35 26.5 60.5t65.5 25.5q35 0 60.5 -25.5t25.5 -60.5v-326h301q33 0 55.5 -22.5t22.5 -55.5q0 -37 -22.5 -60.5t-55.5 -23.5h-301v-340q0 -37 -25.5 -62.5t-64.5 -25.5q-37 0 -62.5 25.5t-25.5 62.5v340h-301
q-35 0 -57.5 23.5t-22.5 60.5z" />
    <glyph glyph-name="comma" unicode="," 
d="M96 145q0 68 47 116t113 48q76 0 130 -56t54 -153q0 -197 -166 -346q-20 -20 -53 -20q-29 0 -53.5 18.5t-24.5 46.5q0 27 21 45q90 74 110 160q-18 -6 -38 -6q-59 0 -99.5 40.5t-40.5 106.5z" />
    <glyph glyph-name="hyphen" unicode="-" horiz-adv-x="614" 
d="M49 498q0 45 32 76.5t77 31.5h299q45 0 76.5 -31.5t31.5 -76.5q0 -47 -31.5 -80t-76.5 -33h-299q-45 0 -77 33t-32 80z" />
    <glyph glyph-name="period" unicode="." 
d="M96 143.5q0 67.5 49.5 116.5t117 49t116.5 -49t49 -116.5t-49 -117t-116.5 -49.5t-117 49.5t-49.5 117z" />
    <glyph glyph-name="slash" unicode="/" horiz-adv-x="673" 
d="M29 33q0 12 6 28l432 1297q20 61 88 61q37 0 62.5 -25.5t25.5 -62.5q0 -10 -4 -26l-432 -1297q-18 -61 -88 -61q-39 0 -64.5 25.5t-25.5 60.5z" />
    <glyph glyph-name="zero" unicode="0" horiz-adv-x="1269" 
d="M70 682q0 184 57 340t189.5 260t318.5 104t317 -104t189.5 -260t58.5 -340t-58.5 -340t-189.5 -261.5t-317 -105.5t-318.5 105.5t-189.5 261.5t-57 340zM365 682q0 -203 65.5 -326t204.5 -123t203.5 123t64.5 326t-64.5 324.5t-203.5 121.5t-204.5 -121.5t-65.5 -324.5z
" />
    <glyph glyph-name="one" unicode="1" horiz-adv-x="841" 
d="M61 921.5q0 49.5 37 86.5l316 319q49 49 123 49q70 0 120 -48t50 -118v-1079q0 -59 -43 -101t-105 -42q-59 0 -101 43t-42 100v860l-154 -157q-33 -33 -80 -33q-49 0 -85 35.5t-36 85z" />
    <glyph glyph-name="two" unicode="2" horiz-adv-x="1228" 
d="M84 141q0 78 61 123q395 293 534.5 431.5t139.5 254.5q0 84 -65.5 131t-155.5 47q-158 0 -281 -84q-39 -27 -84 -26q-51 0 -89 38t-38 93q0 31 19 59q47 76 189.5 127t277.5 51q225 0 373.5 -118.5t148.5 -317.5q0 -168 -132 -328.5t-415 -365.5h445q51 0 88 -37t37 -88
q0 -55 -37 -93t-88 -38h-791q-55 0 -96 41t-41 100z" />
    <glyph glyph-name="three" unicode="3" horiz-adv-x="1202" 
d="M72 211q0 53 41 91t92 38q39 0 71 -21q145 -86 293 -86q123 0 190.5 48.5t67.5 126.5q0 82 -65.5 119.5t-208.5 37.5q-80 -10 -131 25t-51 104q0 55 36.5 91t96.5 36q301 -14 301 146q0 78 -70.5 119.5t-183.5 41.5q-143 0 -264 -77q-29 -20 -70 -21q-49 0 -88 36t-39 87
q0 55 43 88q182 145 449 145q240 0 378 -100t138 -270q0 -123 -88 -206t-211 -105q121 -12 220 -99.5t99 -228.5q0 -178 -147.5 -290t-390.5 -112q-154 0 -299.5 51.5t-192.5 129.5q-16 26 -16 55z" />
    <glyph glyph-name="four" unicode="4" horiz-adv-x="1222" 
d="M41 442q0 53 27 95l456 720q35 55 96.5 88t127.5 33q98 16 172.5 -27.5t74.5 -136.5v-675h64q51 0 88 -38t37 -91q0 -51 -37 -89t-88 -38h-64v-152q0 -59 -43 -101t-104 -42q-57 0 -100 43t-43 100v152h-515q-61 0 -105 45.5t-44 113.5zM336 539h369v569z" />
    <glyph glyph-name="five" unicode="5" horiz-adv-x="1245" 
d="M137 201q0 55 42 93t97 38q37 0 76 -23q123 -76 273 -76q117 0 185.5 58.5t68.5 144.5q0 92 -65.5 147.5t-180.5 55.5q-131 0 -230 -66q-51 -35 -112 -34q-68 0 -108 38.5t-40 100.5v524q0 68 48.5 116t115.5 48h662q51 0 88 -38t37 -91q0 -51 -37 -89t-88 -38h-535v-334
q115 115 301 115q182 0 310.5 -121t128.5 -321q0 -217 -150 -345.5t-397 -128.5q-145 0 -286.5 45.5t-186.5 120.5q-17 29 -17 60z" />
    <glyph glyph-name="six" unicode="6" horiz-adv-x="1245" 
d="M70 680q0 317 170 511.5t467 194.5q113 0 217 -32.5t139 -96.5q14 -29 14 -55q0 -55 -41 -91t-92 -36q-33 0 -59 15q-76 39 -178 38q-150 0 -246 -111.5t-96 -275.5q0 -18 2 -28q51 74 147 125t203 51q195 0 330 -118t135 -327q0 -203 -145.5 -336t-377.5 -133
q-295 0 -442 197t-147 508zM367 510q10 -115 77.5 -196t198.5 -81q111 0 177.5 61.5t66.5 139.5q0 100 -74 152.5t-180 52.5q-164 0 -266 -129z" />
    <glyph glyph-name="seven" unicode="7" horiz-adv-x="1116" 
d="M37 1241q0 51 38 88t89 37h782q55 0 98 -42t43 -105q0 -33 -12 -58l-475 -1085q-16 -39 -54 -63.5t-83 -24.5q-63 0 -104.5 43t-41.5 100q0 29 13 55l407 924h-573q-53 0 -90 38t-37 93z" />
    <glyph glyph-name="eight" unicode="8" horiz-adv-x="1241" 
d="M72 354q0 119 82 212t211 139q-270 94 -271 321q0 178 157 269t370 91q135 0 249.5 -34.5t195.5 -119.5t81 -206q0 -225 -273 -321q129 -45 212 -138.5t83 -212.5q0 -180 -159.5 -279.5t-388.5 -99.5q-231 0 -390 98.5t-159 280.5zM367 391q0 -74 72.5 -120t181.5 -46
q106 0 179.5 46t73.5 120q0 76 -82.5 123t-170.5 59q-88 -12 -171 -59t-83 -123zM389 981q0 -68 74 -109t158 -53q84 12 156.5 53t72.5 109q0 72 -63.5 114t-166 42t-167 -42t-64.5 -114z" />
    <glyph glyph-name="nine" unicode="9" horiz-adv-x="1245" 
d="M61 920q0 203 145.5 336t377.5 133q295 0 442.5 -197t147.5 -508q0 -317 -170 -512t-467 -195q-113 0 -217.5 33t-139.5 94q-16 29 -16 58q0 55 42 91t93 36q33 0 59 -15q76 -39 179 -38q150 0 246 111.5t96 275.5q0 18 -2 28q-51 -74 -147.5 -125t-203.5 -51
q-195 0 -330 118t-135 327zM356 930q0 -100 74 -152.5t180 -52.5q164 0 267 129q-10 115 -78 195.5t-199 80.5q-111 0 -177.5 -61t-66.5 -139z" />
    <glyph glyph-name="colon" unicode=":" horiz-adv-x="514" 
d="M96 143.5q0 67.5 49.5 116.5t117 49t116.5 -49t49 -116.5t-49 -117t-116.5 -49.5t-117 49.5t-49.5 117zM96 837.5q0 67.5 49.5 117t117 49.5t116.5 -49.5t49 -117t-49 -116.5t-116.5 -49t-117 49t-49.5 116.5z" />
    <glyph glyph-name="semicolon" unicode=";" 
d="M96 145q0 68 47 116t113 48q76 0 130 -56t54 -153q0 -197 -166 -346q-20 -20 -53 -20q-29 0 -53.5 18.5t-24.5 46.5q0 27 21 45q90 74 110 160q-18 -6 -38 -6q-59 0 -99.5 40.5t-40.5 106.5zM96 838q0 68 49.5 117t117 49t116.5 -49.5t49 -116.5q0 -66 -49 -116
t-116.5 -50t-117 50t-49.5 116z" />
    <glyph glyph-name="less" unicode="&#x3c;" horiz-adv-x="1032" 
d="M47 688q0 84 78 119l739 332q16 6 33 6q35 0 60.5 -24.5t25.5 -63.5q0 -57 -51 -80l-686 -293l686 -291q51 -23 51 -80q0 -39 -26.5 -62.5t-59.5 -23.5q-16 0 -33 6l-739 330q-78 35 -78 125z" />
    <glyph glyph-name="equal" unicode="=" horiz-adv-x="1032" 
d="M47 494q0 33 22.5 55t55.5 22h782q33 0 55.5 -22.5t22.5 -54.5q0 -35 -22.5 -58.5t-55.5 -23.5h-782q-33 0 -55.5 23.5t-22.5 58.5zM47 879q0 33 23.5 56t56.5 23h778q33 0 56.5 -23.5t23.5 -55.5q0 -35 -23.5 -59.5t-56.5 -24.5h-778q-33 0 -56.5 24.5t-23.5 59.5z" />
    <glyph glyph-name="greater" unicode="&#x3e;" horiz-adv-x="1032" 
d="M47 1057q-2 39 25.5 63.5t62.5 24.5q16 0 33 -6l739 -332q78 -35 78 -119q0 -90 -78 -125l-739 -330q-16 -6 -33 -6q-33 0 -59.5 24.5t-26.5 61.5q0 57 51 80l686 291l-686 293q-53 23 -53 80z" />
    <glyph glyph-name="question" unicode="?" horiz-adv-x="933" 
d="M61 1169q0 31 13 56q39 76 159.5 118.5t233.5 42.5q197 0 311.5 -89t114.5 -234q0 -82 -35 -147.5t-86 -106.5t-101 -76t-85 -75t-35 -87q0 -14 3 -29.5t3 -25.5q0 -43 -30.5 -75.5t-84.5 -32.5q-61 0 -103 50t-42 140q0 82 47 147.5t102.5 98.5t102.5 78t47 90
q0 51 -40 83.5t-120 32.5q-88 0 -168 -53q-37 -25 -86 -24q-51 0 -86 32.5t-35 85.5zM297 143.5q0 67.5 49 116.5t116.5 49t117 -49t49.5 -116.5t-49.5 -117t-117 -49.5t-116.5 49.5t-49 117z" />
    <glyph glyph-name="at" unicode="@" horiz-adv-x="1603" 
d="M72 500q0 213 113.5 400t302 297t397.5 110q287 0 466 -182.5t179 -444.5q0 -238 -127 -372t-279 -134q-88 0 -138 45t-60 113q-55 -72 -135 -115t-162 -43q-145 0 -231.5 96.5t-86.5 247.5q0 203 141.5 352.5t321.5 149.5q88 0 154.5 -38t101.5 -99l6 28q8 39 40 64.5
t73 25.5q47 0 80 -31.5t33 -76.5q0 -16 -2 -23l-80 -378q-6 -37 -6 -50q0 -92 75 -92q72 0 132.5 85t60.5 245q0 244 -154.5 395.5t-410.5 151.5q-291 0 -508 -218t-217 -505q0 -242 164.5 -406t412.5 -164q182 0 344 95q6 4 19 4q14 0 27.5 -11.5t13.5 -25.5q0 -18 -17 -29
q-188 -111 -395 -110q-279 0 -464 185.5t-185 457.5zM549 539q0 -80 46 -130.5t124 -50.5q129 0 227 134l51 239q-51 104 -166 105q-119 0 -200.5 -90t-81.5 -207z" />
    <glyph glyph-name="A" unicode="A" horiz-adv-x="1400" 
d="M55 143q0 33 11 56l399 1026q27 70 88 111.5t135 41.5q10 1 20 1q69 0 130 -38q70 -43 98 -116l397 -1026q10 -31 10 -56q0 -59 -44 -107t-111 -48q-47 0 -86 26.5t-55 69.5l-54 147h-585l-56 -147q-16 -45 -56 -70.5t-87 -25.5q-66 0 -110 47t-44 108zM487 487h426
l-213 588z" />
    <glyph glyph-name="B" unicode="B" horiz-adv-x="1357" 
d="M135 164v1038q0 68 48 116t116 48h555q186 0 289.5 -101.5t103.5 -246.5q0 -125 -67.5 -209t-167.5 -104q111 -16 186.5 -112.5t75.5 -223.5q0 -160 -104.5 -264.5t-292.5 -104.5h-578q-68 0 -116 48t-48 116zM426 252h375q82 0 129 42t47 116q0 68 -47 113.5t-129 45.5
h-375v-317zM426 819h365q74 0 116.5 41t42.5 106.5t-44 107.5t-115 42h-365v-297z" />
    <glyph glyph-name="C" unicode="C" horiz-adv-x="1406" 
d="M70 682q0 311 207.5 509t519.5 198q309 0 497 -226q29 -35 29 -80q0 -55 -41 -93t-98 -38q-63 0 -107 47q-125 131 -280 131q-186 0 -307 -126.5t-121 -321.5t120.5 -322t307.5 -127q164 0 280 129q43 47 111 48q55 0 94 -37t39 -90q0 -49 -29 -80q-186 -227 -495 -228
q-311 0 -519 198t-208 509z" />
    <glyph glyph-name="D" unicode="D" horiz-adv-x="1470" 
d="M135 164v1038q0 68 48 116t116 48h375q322 0 523.5 -188.5t201.5 -495.5t-201 -494.5t-524 -187.5h-375q-68 0 -116 48t-48 116zM426 256h248q197 0 312.5 123t115.5 303q0 188 -112.5 308t-315.5 120h-248v-854z" />
    <glyph glyph-name="E" unicode="E" horiz-adv-x="1193" 
d="M135 164v1038q0 68 48 116t116 48h690q51 0 88 -38t37 -91q0 -51 -37 -89t-88 -38h-563v-289h549q51 0 88 -38t37 -91q0 -51 -37 -89t-88 -38h-549v-309h563q51 0 88 -37t37 -88q0 -55 -37 -93t-88 -38h-690q-68 0 -116 48t-48 116z" />
    <glyph glyph-name="F" unicode="F" horiz-adv-x="1169" 
d="M135 131v1071q0 68 48 116t116 48h690q51 0 88 -38t37 -91q0 -51 -37 -89t-88 -38h-563v-289h549q51 0 88 -38t37 -91q0 -51 -37 -89t-88 -38h-549v-434q0 -59 -43 -101t-104 -42q-57 0 -100.5 43t-43.5 100z" />
    <glyph glyph-name="G" unicode="G" horiz-adv-x="1474" 
d="M70 682q0 317 209.5 512t517.5 195q299 0 485 -201q35 -39 35 -88q0 -53 -41 -92t-96 -39q-57 0 -99 41q-125 121 -284 120q-186 0 -307 -126.5t-121 -321.5t120.5 -322t307.5 -127q86 0 165.5 31t124.5 74v164h-247q-53 0 -89 36.5t-36 92.5q0 53 35.5 89t89.5 36h374
q68 0 116 -48.5t48 -115.5v-232q0 -119 -89 -209t-219 -134t-273 -44q-307 0 -517 197t-210 512z" />
    <glyph glyph-name="H" unicode="H" horiz-adv-x="1497" 
d="M135 131v1104q0 59 43 101t105 42q57 0 100 -42t43 -101v-406h645v406q0 59 43 101t107 42q57 0 100 -42t43 -101v-1102q0 -59 -43 -102t-104 -43q-59 0 -102.5 43t-43.5 102v440h-645v-442q0 -59 -43 -101t-104 -42q-57 0 -100.5 43t-43.5 100z" />
    <glyph glyph-name="I" unicode="I" horiz-adv-x="561" 
d="M135 131v1104q0 59 43 101t105 42q57 0 100 -42t43 -101v-1104q0 -59 -43 -101t-104 -42q-57 0 -100.5 43t-43.5 100z" />
    <glyph glyph-name="J" unicode="J" horiz-adv-x="995" 
d="M37 152q0 53 40 91t91 38q16 0 35 -7q14 -4 43.5 -15t57.5 -18.5t52 -7.5q96 0 154.5 59.5t58.5 160.5v782q0 59 43 101t105 42q57 0 100 -42t43 -101v-786q0 -233 -131 -353.5t-350 -120.5q-96 0 -192.5 28t-133.5 89q-16 27 -16 60z" />
    <glyph glyph-name="K" unicode="K" horiz-adv-x="1302" 
d="M135 131v1104q0 59 43 101t105 42q57 0 100 -42t43 -101v-479l451 569q37 49 104 49q55 0 97 -39t42 -94q0 -49 -30 -86l-365 -430l412 -514q29 -39 28 -82q0 -55 -41 -98t-100 -43q-70 0 -111 55l-381 504l-106 -127v-289q0 -59 -43 -101t-104 -42q-57 0 -100.5 43
t-43.5 100z" />
    <glyph glyph-name="L" unicode="L" horiz-adv-x="1071" 
d="M135 164v1071q0 59 43 101t105 42q57 0 100 -42t43 -101v-979h465q51 0 88 -37t37 -88q0 -55 -37 -93t-88 -38h-592q-68 0 -116 48t-48 116z" />
    <glyph glyph-name="M" unicode="M" horiz-adv-x="1751" 
d="M135 131v1071q0 68 48 116t116 48q31 3 59 3q181 0 238 -136l278 -692l279 692q25 61 78 97t121 36q30 5 57 5q71 0 128 -31q79 -42 79 -138v-1069q0 -59 -43 -102t-105 -43q-59 0 -102 43t-43 102v823l-369 -915q-20 -53 -82 -53q-57 0 -77 53l-369 915v-825
q0 -59 -43 -101t-104 -42q-57 0 -100.5 43t-43.5 100z" />
    <glyph glyph-name="N" unicode="N" horiz-adv-x="1492" 
d="M135 131v1061q0 74 55.5 130t135.5 56q102 0 159 -80l582 -790v727q0 59 43 101t104 42q59 0 101.5 -42t42.5 -101v-1071q0 -72 -52.5 -124t-127.5 -52q-90 0 -146 73l-606 830v-760q0 -59 -43 -101t-104 -42q-57 0 -100.5 43t-43.5 100z" />
    <glyph glyph-name="O" unicode="O" horiz-adv-x="1566" 
d="M70 682q0 307 201.5 507t510.5 200q311 0 513 -199t202 -508t-201.5 -508t-513.5 -199q-309 0 -510.5 200t-201.5 507zM369 682q0 -195 113.5 -322t300 -127t301 127t114.5 322t-114.5 321.5t-301 126.5t-300 -126.5t-113.5 -321.5z" />
    <glyph glyph-name="P" unicode="P" horiz-adv-x="1277" 
d="M135 131v1071q0 68 48 116t116 48h475q215 0 337 -126t122 -314q0 -186 -123 -313.5t-336 -127.5h-348v-354q0 -59 -43 -101t-104 -42q-57 0 -100.5 43t-43.5 100zM426 741h309q88 0 144.5 50.5t56.5 134.5t-56.5 134t-144.5 50h-309v-369z" />
    <glyph glyph-name="Q" unicode="Q" horiz-adv-x="1566" 
d="M70 682q0 307 201.5 507t510.5 200q311 0 513 -199t202 -508q0 -289 -178 -483l24 -29q29 -35 29 -82q0 -51 -38 -91t-93 -40q-59 0 -100 47l-35 39q-152 -68 -324 -68q-309 0 -510.5 200t-201.5 507zM369 682q0 -195 113.5 -322t299.5 -127q72 0 144 23l-76 88
q-29 31 -29 80q0 51 38 91t93 40q59 0 99 -45l77 -90q70 115 70 262q0 195 -114.5 321.5t-301 126.5t-300 -126.5t-113.5 -321.5z" />
    <glyph glyph-name="R" unicode="R" horiz-adv-x="1316" 
d="M135 131v1071q0 68 48 116t116 48h475q211 0 335 -123t124 -317q0 -168 -87 -272.5t-212 -133.5l188 -319q18 -33 19 -70q0 -55 -41 -99t-103 -44q-84 0 -125 73l-233 424h-213v-354q0 -59 -43 -101t-104 -42q-57 0 -100.5 43t-43.5 100zM426 741h305q90 0 147.5 50.5
t57.5 134.5t-57.5 134t-147.5 50h-305v-369z" />
    <glyph glyph-name="S" unicode="S" horiz-adv-x="1228" 
d="M78 223q0 57 42 96t95 39q47 0 78 -22q154 -106 342 -107q113 0 175 44t62 108q0 55 -58 92t-145 53.5t-189.5 47t-189.5 69.5t-145.5 123t-58.5 205q0 176 141.5 295.5t376.5 119.5q131 0 273.5 -40.5t195.5 -110.5q25 -31 25 -70q0 -55 -45 -93t-101 -38q-39 0 -73 21
q-137 78 -301 78q-92 0 -143.5 -37t-51.5 -101q0 -49 58.5 -82.5t145.5 -50t188.5 -48.5t188.5 -72t145 -125t58 -203q0 -197 -140 -318t-406 -121q-160 0 -313.5 49.5t-207.5 129.5q-22 32 -22 69z" />
    <glyph glyph-name="T" unicode="T" horiz-adv-x="1191" 
d="M39 1241q0 51 38 88t89 37h862q51 0 88 -38t37 -91q0 -51 -37 -89t-88 -38h-285v-977q0 -59 -43 -102t-104 -43q-59 0 -102 43t-43 102v977h-285q-53 0 -90 38t-37 93z" />
    <glyph glyph-name="U" unicode="U" horiz-adv-x="1501" 
d="M135 545v688q0 59 43 102t107 43q59 0 102 -43t43 -102v-678q0 -147 84 -234.5t237.5 -87.5t236.5 87.5t83 234.5v678q0 59 44 102t108 43q59 0 102 -43t43 -102v-686q0 -264 -156.5 -418t-459.5 -154t-460 155t-157 415z" />
    <glyph glyph-name="V" unicode="V" horiz-adv-x="1400" 
d="M53 1227q0 59 44 105t110 46q49 0 89 -27.5t56 -72.5l348 -963l347 963q14 45 55 72.5t88 27.5q68 0 112 -45t44 -106q0 -27 -11 -53l-397 -1033q-27 -70 -89.5 -111.5t-133.5 -41.5h-29q-72 0 -134.5 42t-88.5 111l-400 1033q-10 20 -10 53z" />
    <glyph glyph-name="W" unicode="W" horiz-adv-x="1880" 
d="M43 1239q0 61 44 106.5t112 45.5q53 0 95 -33t56 -86l217 -893l234 893q12 47 52 76.5t91 29.5q47 0 85 -29.5t50 -76.5l234 -893l213 891q12 53 56 87t99 34q68 0 112 -45.5t44 -106.5q0 -23 -6 -41l-305 -1067q-18 -63 -71.5 -103t-117.5 -40h-4q-68 0 -119 40t-67 103
l-207 807l-205 -807q-14 -61 -67.5 -102t-116.5 -41h-4q-66 0 -119 40t-72 103l-307 1069q-6 19 -6 39z" />
    <glyph glyph-name="X" unicode="X" horiz-adv-x="1368" 
d="M117 127q0 43 24 80l348 493l-323 463q-23 31 -23 74q0 55 40 97t102 42q76 0 121 -63l278 -414l274 412q43 66 121 65q59 0 102.5 -41t43.5 -96q0 -43 -25 -78l-321 -459l348 -493q25 -37 24 -80q0 -51 -40 -96t-101 -45q-74 0 -117 61l-309 451l-311 -453
q-41 -59 -115 -59q-57 0 -99 39t-42 100z" />
    <glyph glyph-name="Y" unicode="Y" horiz-adv-x="1320" 
d="M96 1243q0 51 40 92t100 41q78 0 118 -65l308 -494l301 492q41 68 120 67q61 0 100.5 -40t39.5 -93q0 -39 -21 -72l-395 -612v-428q0 -59 -43 -101t-105 -42q-57 0 -100 43t-43 100v428l-399 615q-21 28 -21 69z" />
    <glyph glyph-name="Z" unicode="Z" horiz-adv-x="1212" 
d="M74 164q0 53 30 96l627 850h-530q-53 0 -90 38t-37 93q0 51 38 88t89 37h772q59 0 104 -46t45 -114q0 -59 -35 -106l-620 -844h547q51 0 88 -37t37 -88q0 -55 -37 -93t-88 -38h-781q-63 0 -111 47t-48 117z" />
    <glyph glyph-name="bracketleft" unicode="[" horiz-adv-x="573" 
d="M96 -225v1450q0 68 48.5 116t115.5 48h207q35 0 59.5 -26t24.5 -63q0 -35 -24.5 -60.5t-59.5 -25.5h-184v-1429h184q35 0 59.5 -25.5t24.5 -60.5q0 -37 -24.5 -62.5t-59.5 -25.5h-207q-68 0 -116 48t-48 116z" />
    <glyph glyph-name="backslash" unicode="\" horiz-adv-x="673" 
d="M31 1331q0 35 25.5 61.5t64.5 26.5q66 0 86 -61l432 -1297q4 -20 4 -28q0 -33 -25.5 -59.5t-64.5 -26.5q-68 0 -86 61l-432 1297q-4 8 -4 26z" />
    <glyph glyph-name="bracketright" unicode="]" horiz-adv-x="573" 
d="M23 -301q0 35 25.5 60.5t60.5 25.5h182v1429h-182q-35 0 -60.5 26t-25.5 65q0 35 25.5 59.5t60.5 24.5h204q68 0 116 -48.5t48 -115.5v-1450q0 -68 -48 -116t-116 -48h-204q-35 0 -60.5 25.5t-25.5 62.5z" />
    <glyph glyph-name="asciicircum" unicode="^" horiz-adv-x="903" 
d="M82 754q0 18 8 34l238 510q37 80 129 80q84 0 123 -80l235 -510q6 -14 6 -32q0 -33 -24.5 -59.5t-63.5 -26.5q-57 0 -80 51l-202 467l-201 -467q-23 -51 -80 -51q-37 0 -62.5 24.5t-25.5 59.5z" />
    <glyph glyph-name="underscore" unicode="_" horiz-adv-x="1155" 
d="M-18 -168q0 35 25.5 60.5t60.5 25.5h1022q35 0 59.5 -25.5t24.5 -60.5q0 -37 -25 -62.5t-59 -25.5h-1022q-35 0 -60.5 25.5t-25.5 62.5z" />
    <glyph glyph-name="grave" unicode="`" horiz-adv-x="514" 
d="M113 1366q0 31 23.5 55.5t56 24.5t57.5 -25l170 -182q18 -18 18 -45t-20.5 -47.5t-46.5 -20.5q-23 0 -43 17l-191 168q-24 20 -24 55z" />
    <glyph glyph-name="a" unicode="a" horiz-adv-x="1112" 
d="M66 303q0 160 103 240t241 80q211 0 313 -121v133q0 76 -59.5 121t-157.5 45q-125 0 -221 -64q-25 -14 -47 -14q-37 0 -68 28.5t-31 71.5q0 27 15 51q41 66 165.5 103t231.5 37q190 0 311 -88t121 -287v-522q0 -53 -37 -91t-90 -38h-20q-16 0 -39 7t-48.5 34.5
t-25.5 72.5q-106 -127 -313 -127q-133 0 -238.5 87t-105.5 241zM328 297q0 -68 53 -106.5t133 -38.5q145 0 209 86v122q-63 86 -209 86q-80 0 -133 -39.5t-53 -109.5z" />
    <glyph glyph-name="b" unicode="b" horiz-adv-x="1200" 
d="M129 117v1134q0 53 38 90t95 37q53 0 90 -37.5t37 -89.5v-389q117 152 305 152q193 0 316 -141.5t123 -378.5q0 -242 -123 -380.5t-316 -138.5q-184 0 -305 152v-10q0 -53 -38 -91t-93 -38q-53 0 -91 38t-38 91zM389 317q33 -47 96.5 -78.5t126.5 -31.5q113 0 182.5 79
t69.5 208t-69.5 208.5t-182.5 79.5q-63 0 -126.5 -32.5t-96.5 -81.5v-351z" />
    <glyph glyph-name="c" unicode="c" horiz-adv-x="1021" 
d="M66 496q0 227 147 372.5t377 145.5q117 0 212 -38t128 -97q12 -23 12 -48q0 -49 -38 -79.5t-85 -30.5q-39 0 -71 20q-66 41 -146 41q-119 0 -193.5 -78.5t-74.5 -207.5t74.5 -209t193.5 -80q80 0 148 43q33 20 69 20q49 0 87 -31.5t38 -80.5q0 -53 -41 -84
q-123 -98 -313 -99q-229 0 -376.5 146t-147.5 375z" />
    <glyph glyph-name="d" unicode="d" horiz-adv-x="1200" 
d="M66 494q0 238 122.5 379t315.5 141q188 0 305 -152v387q0 53 38 91t95 38q53 0 91 -37.5t38 -91.5v-1132q0 -53 -38 -91t-95 -38q-53 0 -91 37.5t-38 91.5v10q-121 -152 -305 -152q-193 0 -315.5 138.5t-122.5 380.5zM334 494q0 -127 69.5 -207t180.5 -80q66 0 129 31.5
t96 80.5v351q-33 49 -96.5 80.5t-128.5 31.5q-111 0 -180.5 -79.5t-69.5 -208.5z" />
    <glyph glyph-name="e" unicode="e" horiz-adv-x="1132" 
d="M66 496q0 219 144 368.5t368 149.5q166 0 287.5 -89t174.5 -245q29 -90 29 -150q0 -47 -35 -82.5t-86 -35.5h-610q12 -98 88 -164t197 -66q100 0 192 49q25 12 51 13q43 0 77 -30t34 -75q0 -78 -129 -121t-254 -43q-229 0 -378.5 144t-149.5 377zM334 588h487
q-6 84 -66.5 151.5t-176.5 67.5q-111 0 -172.5 -66.5t-71.5 -152.5z" />
    <glyph glyph-name="f" unicode="f" horiz-adv-x="669" 
d="M10 879q0 45 34 77.5t79 32.5h63v53q0 158 92.5 251t241.5 93q104 0 169 -33.5t65 -86.5q0 -45 -27 -72t-61 -27q-14 0 -42 7.5t-53 7.5q-55 0 -88.5 -36t-33.5 -104v-53h102q45 0 78 -33.5t33 -81.5q0 -45 -33 -78.5t-78 -33.5h-102v-645q0 -53 -38 -91t-96 -38
q-53 0 -91 37.5t-38 91.5v645h-63q-47 0 -80 34t-33 83z" />
    <glyph glyph-name="g" unicode="g" horiz-adv-x="1198" 
d="M66 510q0 238 121.5 371t314.5 133q184 0 305 -152v10q0 53 38 91t95 38q53 0 91 -37.5t38 -91.5v-804q0 -135 -48 -231.5t-130 -145.5t-169 -70.5t-187 -21.5q-113 0 -227.5 30.5t-155.5 91.5q-16 27 -17 58q0 47 32 77.5t77 30.5q29 0 55 -14q100 -61 236 -61
q111 0 191.5 58t80.5 191v101q-123 -156 -305 -156q-193 0 -314.5 132t-121.5 372zM334 510q0 -125 68.5 -198.5t181.5 -73.5q63 0 126.5 32.5t96.5 79.5v320q-33 49 -95.5 80.5t-127.5 31.5q-113 0 -181.5 -73.5t-68.5 -198.5z" />
    <glyph glyph-name="h" unicode="h" horiz-adv-x="1187" 
d="M129 117v1134q0 53 38 90t95 37q53 0 90 -37.5t37 -89.5v-391q53 63 144.5 108.5t203.5 45.5q160 0 241 -82t81 -230v-585q0 -53 -38 -91t-93 -38q-53 0 -91 37.5t-38 91.5v485q0 98 -47 139t-138 41q-137 0 -225 -116v-549q0 -53 -38 -91t-93 -38q-53 0 -91 38t-38 91z
" />
    <glyph glyph-name="i" unicode="i" horiz-adv-x="518" 
d="M102 1251.5q0 63.5 46.5 108.5t109.5 45q66 0 111 -45t45 -108.5t-45 -109.5t-111 -46q-63 0 -109.5 46t-46.5 109.5zM129 117v757q0 53 38 90t95 37q53 0 90 -37.5t37 -89.5v-757q0 -53 -38 -91t-93 -38q-53 0 -91 38t-38 91z" />
    <glyph glyph-name="j" unicode="j" horiz-adv-x="518" 
d="M-197 -281q0 43 31 74t72 31q14 0 38.5 -6t49.5 -6q61 0 98 41t37 120v901q0 53 38 90t95 37q53 0 90 -37.5t37 -89.5v-901q0 -174 -89 -274t-263 -100q-234 -1 -234 120zM102 1251.5q0 63.5 46.5 108.5t109.5 45q66 0 111 -45t45 -108.5t-45 -109.5t-111 -46
q-63 0 -109.5 46t-46.5 109.5z" />
    <glyph glyph-name="k" unicode="k" horiz-adv-x="1095" 
d="M129 117v1134q0 53 38 90t95 37q53 0 90 -37.5t37 -89.5v-702l350 414q35 41 88 41q49 0 86 -37t37 -86q0 -43 -28 -78l-230 -262l260 -348q25 -33 25 -74q0 -49 -37 -90t-92 -41q-72 0 -109 55l-231 338l-119 -127v-137q0 -53 -38 -91t-93 -38q-53 0 -91 38t-38 91z" />
    <glyph glyph-name="l" unicode="l" horiz-adv-x="518" 
d="M129 117v1134q0 53 38 90t95 37q53 0 90 -37.5t37 -89.5v-1134q0 -53 -38 -91t-93 -38q-53 0 -91 38t-38 91z" />
    <glyph glyph-name="m" unicode="m" horiz-adv-x="1744" 
d="M129 117v757q0 53 38 90t95 37q53 0 90 -37.5t37 -89.5v-14q37 53 129 103.5t195 50.5q215 0 274 -180q47 74 140.5 127t199.5 53q139 0 215 -75t76 -224v-598q0 -53 -38 -91t-95 -38q-53 0 -91 37.5t-38 91.5v508q0 158 -148 157q-63 0 -117.5 -34.5t-86.5 -79.5v-551
q0 -53 -38 -91t-96 -38q-53 0 -91 37.5t-38 91.5v508q0 158 -147 157q-61 0 -116.5 -34.5t-88.5 -81.5v-549q0 -53 -38 -91t-93 -38q-53 0 -91 38t-38 91z" />
    <glyph glyph-name="n" unicode="n" horiz-adv-x="1185" 
d="M129 117v757q0 53 38 90t95 37q53 0 90 -37.5t37 -89.5v-14q129 154 346 154q160 0 241 -84t81 -232v-581q0 -53 -38 -91t-93 -38q-53 0 -91 37.5t-38 91.5v481q0 184 -183 184q-141 0 -225 -116v-549q0 -53 -38 -91t-93 -38q-53 0 -91 38t-38 91z" />
    <glyph glyph-name="o" unicode="o" horiz-adv-x="1175" 
d="M66 495.5q0 219.5 142 369t379.5 149.5t381 -149.5t143.5 -369t-143.5 -370t-381 -150.5t-379.5 150.5t-142 370zM336 496q0 -123 67.5 -206t184.5 -83t185.5 83t68.5 206q0 121 -68.5 203.5t-185.5 82.5t-184.5 -82.5t-67.5 -203.5z" />
    <glyph glyph-name="p" unicode="p" horiz-adv-x="1193" 
d="M129 -262v1136q0 53 38 90t95 37q53 0 90 -37.5t37 -89.5v-10q117 150 305 150q195 0 317 -138.5t122 -380t-122 -381t-317 -139.5q-186 0 -305 152v-389q0 -53 -38 -90t-93 -37q-53 0 -91 37t-38 90zM389 319q33 -47 97.5 -79.5t125.5 -32.5q113 0 181.5 80t68.5 209
q0 127 -68.5 206.5t-181.5 79.5q-63 0 -126.5 -32.5t-96.5 -79.5v-351z" />
    <glyph glyph-name="q" unicode="q" horiz-adv-x="1193" 
d="M61 495.5q0 241.5 122 380t317 138.5q188 0 305 -150v8q0 53 38 91t95 38q53 0 91 -37.5t38 -91.5v-1132q0 -53 -38 -91t-95 -38q-53 0 -91 38t-38 91v387q-119 -152 -305 -152q-195 0 -317 139.5t-122 381zM332 496q0 -129 69.5 -209t180.5 -80q61 0 125.5 32.5
t97.5 79.5v351q-33 47 -96.5 79.5t-126.5 32.5q-111 0 -180.5 -79.5t-69.5 -206.5z" />
    <glyph glyph-name="r" unicode="r" horiz-adv-x="737" 
d="M129 117v757q0 53 38 90t95 37q53 0 90 -37.5t37 -89.5v-20q106 143 213 143q55 0 85 -29.5t30 -76.5q0 -55 -35 -90t-90 -43q-135 -18 -203 -105v-536q0 -53 -37 -91t-90 -38h-4q-53 0 -91 38t-38 91z" />
    <glyph glyph-name="s" unicode="s" horiz-adv-x="976" 
d="M70 162q0 45 32.5 76.5t75.5 31.5q31 0 53 -14q137 -80 267 -80q82 0 124 28.5t42 78.5q0 37 -44.5 60.5t-109 33.5t-141 30.5t-141 49t-108.5 91t-44 154.5q0 131 108.5 221.5t296.5 90.5q106 0 214 -33t147 -88q16 -23 16 -51q0 -41 -30.5 -70t-71.5 -29q-27 0 -49 13
q-102 59 -224 59q-70 0 -112.5 -27.5t-42.5 -70.5q0 -33 43 -54.5t108.5 -31.5t141 -31.5t141 -51.5t108.5 -95.5t43 -159.5q0 -139 -113.5 -228.5t-314.5 -89.5q-111 0 -232.5 35t-164.5 96q-18 25 -18 56z" />
    <glyph glyph-name="t" unicode="t" horiz-adv-x="692" 
d="M4 879q0 45 34 77.5t79 32.5h63v154q0 53 38 91t95 38q53 0 91 -38t38 -91v-154h103q45 0 77.5 -33.5t32.5 -81.5q0 -45 -32.5 -78.5t-77.5 -33.5h-103v-447q0 -53 28 -80.5t62 -27.5h23q53 0 84 -32t31 -81q0 -119 -209 -119q-137 0 -209 70t-72 201v516h-63
q-47 0 -80 34t-33 83z" />
    <glyph glyph-name="u" unicode="u" horiz-adv-x="1185" 
d="M129 287v587q0 53 38 90t95 37q53 0 90 -37.5t37 -89.5v-485q0 -182 182 -182q137 0 226 112v555q0 53 37.5 90t95.5 37q53 0 90 -37.5t37 -89.5v-757q0 -53 -38 -91t-93 -38q-53 0 -91 37.5t-38 91.5v8q-133 -150 -348 -150q-160 0 -240 82.5t-80 229.5z" />
    <glyph glyph-name="v" unicode="v" horiz-adv-x="1050" 
d="M43 872q0 49 38 88t95 39q86 0 117 -79l231 -619l232 617q14 37 47 59t71 22q57 0 94.5 -38.5t37.5 -90.5q0 -27 -9 -45l-288 -714q-23 -55 -73 -89t-108 -34h-4q-59 0 -110.5 33.5t-71.5 89.5l-289 714q-10 24 -10 47z" />
    <glyph glyph-name="w" unicode="w" horiz-adv-x="1574" 
d="M39 877q0 49 37 86.5t94 37.5q43 0 78 -25.5t45 -66.5l162 -585l186 573q16 47 57 75.5t93 28.5q47 0 88 -29.5t55 -74.5l186 -573l162 585q10 41 46 66.5t79 25.5q55 0 92 -36.5t37 -87.5q0 -18 -6 -37l-221 -725q-16 -55 -64.5 -91t-105.5 -36h-4q-59 0 -107.5 34.5
t-64.5 92.5l-175 559l-174 -559q-16 -55 -65 -91t-107 -36h-4q-57 0 -106 35.5t-66 91.5l-221 725q-6 19 -6 37z" />
    <glyph glyph-name="x" unicode="x" horiz-adv-x="1032" 
d="M98 106q0 37 21 66l231 336l-211 309q-20 29 -20 66q0 45 34.5 80.5t86.5 35.5q63 0 100 -53l176 -262l172 260q35 55 103 55q51 0 85.5 -35.5t34.5 -80.5q0 -37 -20 -66l-213 -309l233 -336q20 -29 21 -66q0 -45 -33 -81.5t-86 -36.5q-66 0 -98 51l-199 295l-203 -297
q-35 -49 -94 -49q-49 0 -85 35.5t-36 82.5z" />
    <glyph glyph-name="y" unicode="y" horiz-adv-x="1050" 
d="M43 872q0 51 37 90t94 39q39 0 73 -23.5t48 -62.5l229 -614l230 614q14 39 49 62.5t76 23.5q55 0 91 -37.5t36 -89.5q0 -29 -9 -47l-399 -989q-96 -240 -340 -239q-70 0 -115 31.5t-45 84.5q0 47 35 81t88 34q23 0 33 2q74 14 98 70l37 84l-338 843q-8 18 -8 43z" />
    <glyph glyph-name="z" unicode="z" horiz-adv-x="980" 
d="M74 133q0 43 28 82l430 547h-346q-47 0 -79.5 33.5t-32.5 83.5q0 45 33.5 77.5t78.5 32.5h584q47 0 86 -37t39 -90q0 -49 -27 -82l-436 -553h363q45 0 77.5 -32.5t32.5 -77.5q0 -49 -32.5 -83t-77.5 -34h-592q-51 0 -90 39t-39 94z" />
    <glyph glyph-name="braceleft" unicode="{" horiz-adv-x="589" 
d="M-6 499.5q0 32.5 15.5 50t53.5 42.5q49 31 50 119v350q0 145 94 236.5t223 91.5h37q49 0 74.5 -25t25.5 -61q0 -39 -25.5 -64t-74.5 -25h-37q-53 0 -90 -42t-37 -109v-379q0 -143 -94 -184q94 -41 94 -185v-376q0 -68 37 -111t90 -43h37q49 0 74.5 -24.5t25.5 -63.5
q0 -37 -25.5 -61.5t-74.5 -24.5h-37q-129 0 -223 90t-94 236v352q0 88 -50 119q-39 25 -54 42t-15 49.5z" />
    <glyph glyph-name="bar" unicode="|" horiz-adv-x="442" 
d="M135 33v1302q0 35 25.5 59.5t64.5 24.5q33 0 58.5 -25.5t25.5 -58.5v-1302q0 -35 -25.5 -60.5t-62.5 -25.5q-35 0 -60.5 25.5t-25.5 60.5z" />
    <glyph glyph-name="braceright" unicode="}" horiz-adv-x="589" 
d="M23 -303q0 39 25.5 63.5t74.5 24.5h37q53 0 90 43t37 111v376q0 143 94 185q-94 41 -94 184v379q0 68 -37 109.5t-90 41.5h-37q-49 0 -74.5 25t-25.5 64q0 37 25.5 61.5t74.5 24.5h37q129 0 223 -91.5t94 -236.5v-350q0 -88 49 -119q39 -25 54.5 -42.5t15.5 -50
t-15.5 -50t-54.5 -41.5q-49 -31 -49 -119v-352q0 -145 -94 -235.5t-223 -90.5h-37q-49 0 -74.5 24.5t-25.5 61.5z" />
    <glyph glyph-name="asciitilde" unicode="~" horiz-adv-x="1044" 
d="M61 952q25 186 92.5 299t204.5 113q74 0 124 -37t73 -90t39 -107.5t37.5 -91.5t54.5 -37q90 0 121 279q2 33 27.5 54.5t60.5 21.5q41 0 64.5 -28t23.5 -68q-10 -90 -28.5 -158t-52.5 -130.5t-88 -95t-128 -32.5q-90 0 -145.5 56t-72.5 124t-44 124t-66 56
q-84 0 -118 -272q-4 -35 -30 -56.5t-58 -21.5q-45 0 -68 28.5t-23 69.5z" />
    <glyph glyph-name="uni00A0" unicode="&#xa0;" 
 />
    <glyph glyph-name="exclamdown" unicode="&#xa1;" 
d="M94 848q0 66 49.5 115t117 49t115.5 -49.5t48 -114.5q0 -68 -48 -117t-115.5 -49t-117 49t-49.5 117zM111 -238q0 2 30 684q2 47 36 80t85 33q47 0 81 -32.5t36 -80.5q4 -90 12 -260t14.5 -287.5t6.5 -136.5q0 -63 -44 -106t-110 -43q-63 0 -105 43t-42 106z" />
    <glyph glyph-name="cent" unicode="&#xa2;" horiz-adv-x="1021" 
d="M66 496q0 201 117.5 341t310.5 169v59q0 39 27.5 65.5t68.5 26.5q39 0 65.5 -26.5t26.5 -65.5v-57q86 -12 155.5 -48t94.5 -86q10 -25 10 -43q0 -49 -38 -79.5t-85 -30.5q-12 0 -33 4q-16 6 -50 22.5t-54 22.5v-551q16 4 51 21.5t53 23.5q16 6 33 6q49 0 87 -31.5
t38 -80.5q0 -20 -10 -45q-25 -49 -95.5 -84t-156.5 -47v-95q0 -39 -26.5 -65.5t-65.5 -26.5q-41 0 -68.5 26.5t-27.5 65.5v97q-193 29 -310.5 169t-117.5 343zM334 495.5q0 -96.5 43 -167t117 -101.5v535q-74 -31 -117 -100.5t-43 -166z" />
    <glyph glyph-name="sterling" unicode="&#xa3;" horiz-adv-x="1126" 
d="M35 637q0 33 24.5 56.5t57.5 23.5h69q-94 129 -94 246q0 186 151.5 304.5t346.5 118.5q143 0 263 -48t151 -126q8 -29 8 -45q0 -55 -37 -89t-90 -34q-29 0 -51 9q-27 10 -92.5 53t-116.5 43q-92 0 -153.5 -53.5t-61.5 -139.5q0 -29 4 -54t18 -55t20.5 -41t31 -48
t26.5 -41h227q33 0 56.5 -24.5t23.5 -59.5q0 -33 -23.5 -57.5t-56.5 -24.5h-164q0 -6 1 -19.5t1 -19.5q0 -70 -36.5 -131.5t-94.5 -95.5q43 14 101 14q61 0 140 -34t128 -34q23 0 66 10.5t63 10.5q51 0 91 -37t40 -92q0 -150 -272 -150q-96 0 -206 45t-165 45
q-70 0 -166 -43q-20 -10 -51 -10q-45 0 -77 32t-32 77q0 63 60 102q154 100 153 219q0 51 -24 111h-176q-35 0 -58.5 24.5t-23.5 61.5z" />
    <glyph glyph-name="currency" unicode="&#xa4;" horiz-adv-x="1275" 
d="M82 1128q0 41 31.5 75t76.5 34q47 0 78 -31l90 -90q123 70 279 70q152 0 278 -70l91 90q31 31 75 31q43 0 77 -31.5t34 -77t-31 -75.5l-84 -84q84 -129 84 -287q0 -162 -86 -289l84 -82q33 -33 33 -73q0 -43 -33 -76t-78 -33t-75 31l-88 86q-121 -70 -281 -70t-283 72
l-84 -86q-31 -31 -77 -31q-43 0 -76 32t-33 75q0 45 31 75l84 84q-82 127 -82 285t82 285l-86 88q-31 30 -31 73zM377 682q0 -115 69.5 -193.5t190.5 -78.5q123 0 192.5 77.5t69.5 194.5q0 115 -69.5 192.5t-192.5 77.5q-121 0 -190.5 -77.5t-69.5 -192.5z" />
    <glyph glyph-name="yen" unicode="&#xa5;" horiz-adv-x="1320" 
d="M37 317q0 33 22.5 55.5t55.5 22.5h401v164h-399q-35 0 -57.5 23.5t-22.5 60.5q0 33 23.5 55.5t56.5 22.5h293l-293 453q-20 29 -21 69q0 51 39 92t98 41q78 0 121 -65l308 -494l301 492q41 68 120 67q61 0 100.5 -40t39.5 -93q0 -39 -21 -72l-291 -450h299
q33 0 55.5 -23.5t22.5 -58.5q0 -33 -22.5 -56.5t-55.5 -23.5h-403v-164h403q33 0 55.5 -23.5t22.5 -58.5q0 -33 -22.5 -55t-55.5 -22h-403v-105q0 -59 -43 -101t-105 -42q-57 0 -100 43t-43 100v105h-401q-33 0 -55.5 23t-22.5 58z" />
    <glyph glyph-name="brokenbar" unicode="&#xa6;" horiz-adv-x="442" 
d="M135 33v502q0 35 25.5 59t64.5 24q33 0 58.5 -24.5t25.5 -58.5v-502q0 -35 -25.5 -60.5t-62.5 -25.5q-35 0 -60.5 25.5t-25.5 60.5zM135 834v501q0 35 25.5 59.5t64.5 24.5q33 0 58.5 -25.5t25.5 -58.5v-501q0 -35 -25.5 -60.5t-62.5 -25.5q-35 0 -60.5 25.5t-25.5 60.5z
" />
    <glyph glyph-name="section" unicode="&#xa7;" horiz-adv-x="991" 
d="M72 20q0 41 28.5 71t65.5 30q33 0 55 -17q131 -90 264 -90q82 0 130.5 31t48.5 88q0 45 -44.5 74t-109 42t-141 35.5t-141 50t-108.5 89t-44 151.5q0 96 59.5 162t140.5 94q-201 76 -200 259q0 127 113.5 211.5t291.5 84.5q147 0 262 -47t115 -116q0 -39 -27.5 -67
t-66.5 -28q-29 0 -49 15q-100 61 -223 61q-76 0 -120 -29.5t-44 -80.5q0 -47 60.5 -73t146.5 -43t172 -43t146 -93.5t60 -173.5q0 -176 -170 -262q170 -74 170 -252q0 -150 -118.5 -235t-309.5 -85q-119 0 -234.5 38t-158.5 95q-20 22 -20 53zM328 614q0 -66 55 -95.5
t156 -51.5q119 51 118 151q0 109 -170 148q-88 -20 -123.5 -57.5t-35.5 -94.5z" />
    <glyph glyph-name="dieresis" unicode="&#xa8;" horiz-adv-x="604" 
d="M-53 1251q0 57 41 97.5t98 40.5t97 -40t40 -97.5t-40 -98.5t-97 -41t-98 40t-41 99zM379 1251.5q0 57.5 41 97.5t98 40t98 -40t41 -97.5t-41 -98.5t-98 -41t-98 41t-41 98.5z" />
    <glyph glyph-name="copyright" unicode="&#xa9;" horiz-adv-x="1593" 
d="M90 684q0 293 207 500t500 207t499.5 -207t206.5 -500t-206.5 -500t-499.5 -207t-500 208t-207 499zM164 684q0 -260 186.5 -446.5t446.5 -186.5t446.5 186.5t186.5 446.5q0 262 -186.5 447.5t-446.5 185.5t-446.5 -186.5t-186.5 -446.5zM381 686q0 184 124 307t302 123
q164 0 274 -104q12 -12 13 -29q0 -18 -13.5 -31.5t-32 -13.5t-30.5 12q-88 84 -211 84q-137 0 -234.5 -98t-97.5 -250q0 -150 97.5 -251t234.5 -101q125 0 215 86q10 12 28.5 12t32 -12t13.5 -31q0 -16 -13 -29q-115 -109 -276 -108q-178 0 -302 124t-124 310z" />
    <glyph glyph-name="ordfeminine" unicode="&#xaa;" horiz-adv-x="788" 
d="M63 864q0 98 68 152.5t158 54.5q139 0 209 -78v82q0 51 -39 81t-103 30q-70 0 -145 -49q-16 -10 -33 -11q-27 0 -49.5 20.5t-22.5 51.5q0 18 11 35q29 45 115.5 69.5t156.5 24.5q129 0 213 -59.5t84 -196.5v-323q0 -39 -26.5 -66t-65.5 -27q-37 -6 -66.5 16.5t-29.5 59.5
v2q-74 -82 -209 -82q-90 0 -158 56.5t-68 156.5zM250 864q0 -45 33.5 -70.5t83.5 -25.5q88 0 131 59v74q-43 55 -131 55q-49 0 -83 -24.5t-34 -67.5z" />
    <glyph glyph-name="guillemotleft" unicode="&#xab;" horiz-adv-x="1079" 
d="M125 495.5q0 69.5 47 122.5l203 226q25 27 61 26q35 0 62.5 -25.5t27.5 -62.5q0 -35 -20 -57l-205 -227l205 -230q20 -23 20 -59q0 -35 -24.5 -63.5t-63.5 -28.5t-63 28l-205 230q-45 51 -45 120.5zM514 495.5q0 69.5 47 122.5l203 226q25 27 61 26q35 0 62.5 -25.5
t27.5 -62.5q0 -35 -20 -57l-205 -227l205 -230q20 -23 20 -59q0 -35 -24.5 -63.5t-63.5 -28.5t-63 28l-205 230q-45 51 -45 120.5z" />
    <glyph glyph-name="logicalnot" unicode="&#xac;" horiz-adv-x="1054" 
d="M47 879q0 33 23.5 56t56.5 23h682q68 0 116 -48t48 -115v-314q0 -35 -24.5 -58.5t-59.5 -23.5q-33 0 -57.5 23.5t-24.5 58.5v314h-680q-33 0 -56.5 24.5t-23.5 59.5z" />
    <glyph glyph-name="uni00AD" unicode="&#xad;" horiz-adv-x="614" 
d="M49 498q0 45 32 76.5t77 31.5h299q45 0 76.5 -31.5t31.5 -76.5q0 -47 -31.5 -80t-76.5 -33h-299q-45 0 -77 33t-32 80z" />
    <glyph glyph-name="registered" unicode="&#xae;" horiz-adv-x="1011" 
d="M72 952.5q0 180.5 127 307t307 126.5q182 0 308 -125.5t126 -308.5q0 -180 -127 -307t-307 -127t-307 127t-127 307.5zM137 952q0 -152 107.5 -260t261.5 -108q152 0 260 108.5t108 259.5q0 154 -108.5 261.5t-259.5 107.5q-154 0 -261.5 -107.5t-107.5 -261.5zM340 723
v412q0 29 19.5 47t48.5 18h135q66 0 114 -42t48 -109q0 -72 -46.5 -110t-80.5 -38l102 -149q8 -10 8 -24.5t-11 -25t-26 -10.5q-20 0 -33 21l-122 186h-86v-176q0 -33 -37 -33q-33 0 -33 33zM410 963h133q35 0 62.5 24.5t27.5 61.5q0 39 -27.5 64.5t-62.5 25.5h-133v-176z
" />
    <glyph glyph-name="macron" unicode="&#xaf;" horiz-adv-x="743" 
d="M0 1227q0 29 21.5 50t50.5 21h600q29 0 50 -21.5t21 -49.5q0 -33 -21.5 -54.5t-49.5 -21.5h-600q-29 0 -50.5 21.5t-21.5 54.5z" />
    <glyph glyph-name="degree" unicode="&#xb0;" horiz-adv-x="636" 
d="M41 1108q0 115 81 196.5t195.5 81.5t195.5 -81.5t81 -196.5t-81 -194.5t-195.5 -79.5t-195.5 79.5t-81 194.5zM184 1108q0 -55 38 -94t95 -39q55 0 95.5 39t40.5 94q0 57 -40 97t-96 40q-57 0 -95 -40t-38 -97z" />
    <glyph glyph-name="plusminus" unicode="&#xb1;" horiz-adv-x="1032" 
d="M47 82q0 33 22.5 55.5t55.5 22.5h782q33 0 55.5 -22.5t22.5 -55.5q0 -35 -22.5 -58.5t-55.5 -23.5h-782q-33 0 -55.5 23.5t-22.5 58.5zM47 750q0 33 22.5 55t55.5 22h303v330q0 35 26.5 60.5t65.5 25.5q35 0 60.5 -25.5t25.5 -60.5v-330h301q33 0 55.5 -22.5t22.5 -54.5
q0 -35 -22.5 -58.5t-55.5 -23.5h-301v-342q0 -37 -25.5 -62.5t-64.5 -25.5q-37 0 -62.5 25.5t-25.5 62.5v342h-303q-33 0 -55.5 23.5t-22.5 58.5z" />
    <glyph glyph-name="uni00B2" unicode="&#xb2;" horiz-adv-x="813" 
d="M82 946q0 49 41 78q244 168 329 251t85 148q0 55 -39 84t-101 29q-92 0 -174 -57q-23 -16 -51 -17q-33 0 -55.5 21.5t-22.5 56.5q0 25 15 45q31 51 123 80t169 29q145 0 237.5 -67.5t92.5 -188.5q0 -96 -83 -191.5t-269 -226.5h295q31 0 53.5 -22.5t22.5 -53.5
q0 -35 -22.5 -58.5t-53.5 -23.5h-514q-33 0 -55.5 23.5t-22.5 60.5z" />
    <glyph glyph-name="uni00B3" unicode="&#xb3;" horiz-adv-x="813" 
d="M82 995q0 35 25.5 58.5t58.5 23.5q23 0 45 -12q86 -59 186 -59q72 0 111 26.5t39 69.5q0 100 -180 100h-31q-31 0 -52.5 19.5t-21.5 56.5t21.5 56.5t52.5 19.5h29q168 0 167 92q0 90 -149 90q-96 0 -170 -53q-20 -14 -47 -15q-29 0 -50.5 21.5t-21.5 54.5q0 20 12 41
q31 45 115 77t182 32q154 0 240 -60.5t86 -163.5q0 -72 -53 -123t-129 -63q72 -6 134 -58t62 -136q0 -109 -93 -175.5t-247 -66.5q-117 0 -219 42t-102 105z" />
    <glyph glyph-name="acute" unicode="&#xb4;" horiz-adv-x="514" 
d="M76 1194q0 27 18 45l170 182q23 25 55 25q31 0 56.5 -23.5t25.5 -56.5q0 -35 -24 -55l-191 -168q-20 -16 -43 -17q-27 0 -47 19.5t-20 48.5z" />
    <glyph glyph-name="uni00B5" unicode="&#xb5;" horiz-adv-x="1214" 
d="M129 -262v1136q0 53 38 90t95 37q53 0 90 -37.5t37 -89.5v-485q0 -184 184 -184q133 0 224 114v555q0 53 37.5 90t95.5 37q53 0 90 -37.5t37 -89.5v-577q0 -37 20.5 -60.5t45 -35t45 -38t20.5 -67.5q0 -55 -33 -89t-94 -34q-82 0 -153.5 42t-98.5 137
q-45 -78 -118 -127.5t-159 -49.5q-100 0 -143 58v-295q0 -53 -38 -90t-93 -37q-53 0 -91 37t-38 90z" />
    <glyph glyph-name="paragraph" unicode="&#xb6;" horiz-adv-x="919" 
d="M55 1013.5q0 145.5 103.5 249t249.5 103.5h290q51 0 89 -38t38 -89v-1395q0 -25 -19.5 -43t-46 -18t-45 18.5t-18.5 42.5v1395h-159v-1395q0 -25 -19.5 -43t-46.5 -18t-45 18.5t-18 42.5v818q-145 0 -249 103t-104 248.5z" />
    <glyph glyph-name="periodcentered" unicode="&#xb7;" 
d="M96 500q0 68 49.5 117t117 49t116.5 -49.5t49 -116.5q0 -66 -49 -115t-116.5 -49t-117 49t-49.5 115z" />
    <glyph glyph-name="cedilla" unicode="&#xb8;" horiz-adv-x="452" 
d="M6 -307q0 25 17.5 41t39.5 16q12 0 25 -6q66 -35 129 -35q45 0 76 17.5t31 50.5q0 53 -60 53q-16 0 -40.5 -12.5t-41.5 -12.5q-29 0 -48 19.5t-19 44.5q0 6 4 22l43 115q20 59 76 60q20 0 34.5 -12.5t14.5 -33.5q0 -16 -6 -30l-39 -94q35 20 73 20q57 0 97.5 -40
t40.5 -103q0 -80 -65.5 -127t-162.5 -47q-82 0 -150.5 24.5t-68.5 69.5z" />
    <glyph glyph-name="uni00B9" unicode="&#xb9;" horiz-adv-x="585" 
d="M37 1395q0 33 24 57l209 207q33 33 80 33t80 -31t33 -76v-637q0 -41 -28.5 -69.5t-72.5 -28.5q-41 0 -69.5 28.5t-28.5 69.5v482l-92 -95q-23 -23 -53 -22q-33 0 -57.5 23.5t-24.5 58.5z" />
    <glyph glyph-name="ordmasculine" unicode="&#xba;" horiz-adv-x="829" 
d="M61 989q0 141 97.5 239.5t255.5 98.5q160 0 257 -98.5t97 -239.5t-97.5 -239.5t-256.5 -98.5q-158 0 -255.5 98.5t-97.5 239.5zM256 989q0 -86 42 -136t115.5 -50t116.5 50t43 136q0 84 -42 133t-117 49q-74 0 -116 -48t-42 -134z" />
    <glyph glyph-name="guillemotright" unicode="&#xbb;" horiz-adv-x="1079" 
d="M162 209q0 35 22 59l205 230l-205 227q-20 23 -20 55q0 35 25.5 62.5t62.5 27.5q39 0 63 -26l203 -226q47 -53 47 -122.5t-45 -120.5l-205 -230q-25 -29 -63 -28q-35 0 -62.5 27.5t-27.5 64.5zM551 209q0 35 22 59l205 230l-205 227q-20 23 -20 55q0 35 25.5 62.5
t62.5 27.5q39 0 64 -26l202 -226q47 -53 47 -122.5t-45 -120.5l-204 -230q-25 -29 -64 -28q-35 0 -62.5 27.5t-27.5 64.5z" />
    <glyph glyph-name="onequarter" unicode="&#xbc;" horiz-adv-x="1705" 
d="M37 1079q0 33 24 58l209 206q33 33 80 33t80 -30.5t33 -75.5v-637q0 -41 -28.5 -69.5t-72.5 -28.5q-41 0 -69.5 28.5t-28.5 69.5v481l-92 -94q-23 -23 -53 -23q-33 0 -57.5 23.5t-24.5 58.5zM328 51q0 18 10 35l807 1264q18 29 53 28q27 0 47.5 -19.5t20.5 -45.5
q0 -16 -11 -33l-806 -1264q-18 -29 -54 -28q-29 0 -48 18t-19 45zM938 264q0 29 14 51l279 437q49 80 145 79q70 0 120 -48t50 -113v-340h47q29 0 51.5 -22.5t22.5 -51.5q0 -33 -22.5 -56.5t-51.5 -23.5h-47v-92q0 -41 -28.5 -68.5t-69.5 -27.5q-39 0 -67.5 28.5t-28.5 67.5
v92h-334q-33 0 -56.5 25.5t-23.5 62.5zM1145 330h207v323z" />
    <glyph glyph-name="onehalf" unicode="&#xbd;" horiz-adv-x="1775" 
d="M37 1079q0 33 24 58l209 206q33 33 80 33t80 -30.5t33 -75.5v-637q0 -41 -28.5 -69.5t-72.5 -28.5q-41 0 -69.5 28.5t-28.5 69.5v481l-92 -94q-23 -23 -53 -23q-33 0 -57.5 23.5t-24.5 58.5zM328 51q0 18 10 35l807 1264q18 29 53 28q27 0 47.5 -19.5t20.5 -45.5
q0 -16 -11 -33l-806 -1264q-18 -29 -54 -28q-29 0 -48 18t-19 45zM1042 84q0 49 41 78q244 168 329 251t85 148q0 55 -39 84t-100 29q-92 0 -174 -58q-23 -16 -51 -16q-33 0 -55.5 21.5t-22.5 56.5q0 70 104.5 111.5t202.5 41.5q145 0 237.5 -67.5t92.5 -188.5
q0 -96 -83 -191t-270 -226h295q31 0 53.5 -22.5t22.5 -53.5q0 -35 -22.5 -58.5t-53.5 -23.5h-514q-33 0 -55.5 23.5t-22.5 60.5z" />
    <glyph glyph-name="threequarters" unicode="&#xbe;" horiz-adv-x="1886" 
d="M82 680q0 35 25.5 58.5t58.5 23.5q23 0 45 -12q86 -59 186 -60q72 0 111 26.5t39 69.5q0 100 -180 101h-31q-31 0 -52.5 19.5t-21.5 56t21.5 56t52.5 19.5h29q168 0 167 92q0 90 -149 91q-96 0 -170 -54q-20 -14 -47 -14q-29 0 -50.5 21.5t-21.5 54.5q0 59 93.5 104
t215.5 45q154 0 240 -60.5t86 -162.5q0 -72 -53 -123t-129 -63q72 -6 134 -58.5t62 -136.5q0 -109 -93 -175.5t-247 -66.5q-117 0 -219 42.5t-102 105.5zM506 51q0 18 10 35l807 1264q18 29 53 28q27 0 47.5 -19.5t20.5 -45.5q0 -16 -10 -33l-807 -1264q-18 -29 -54 -28
q-29 0 -48 18t-19 45zM1118 264q0 29 15 51l278 437q49 80 145 79q70 0 120 -48t50 -113v-340h48q29 0 51 -22.5t22 -51.5q0 -33 -22.5 -56.5t-50.5 -23.5h-48v-92q0 -41 -28.5 -68.5t-69.5 -27.5q-39 0 -67.5 28.5t-28.5 67.5v92h-334q-33 0 -56.5 25.5t-23.5 62.5z
M1325 330h207v323z" />
    <glyph glyph-name="questiondown" unicode="&#xbf;" horiz-adv-x="815" 
d="M41 -74q0 82 35 147.5t86 106.5t101 76t85 75t35 87q0 14 -3 29.5t-3 23.5q0 45 30.5 78t84.5 33q61 0 103 -50.5t42 -140.5q0 -82 -47 -147.5t-102.5 -98t-102.5 -77.5t-47 -91q0 -51 40 -83.5t120 -32.5q51 0 132 39t122 39q51 0 85.5 -33t34.5 -86q0 -70 -71.5 -121
t-161.5 -73.5t-172 -22.5q-197 0 -311.5 89t-114.5 234zM305 845.5q0 67.5 49 117t117 49.5t117 -49.5t49 -117t-49 -116.5t-117 -49t-117 49t-49 116.5z" />
    <glyph glyph-name="Agrave" unicode="&#xc0;" horiz-adv-x="1400" 
d="M55 143q0 33 11 56l399 1026q27 70 88 111.5t135 41.5q80 6 149.5 -37t98.5 -116l397 -1026q10 -31 10 -56q0 -59 -44 -107t-111 -48q-47 0 -86 26.5t-55 69.5l-54 147h-585l-56 -147q-16 -45 -56 -70.5t-87 -25.5q-66 0 -110 47t-44 108zM430 1708q0 31 23.5 55.5
t56.5 24.5t57 -25l170 -182q18 -18 18.5 -45t-20 -47.5t-47.5 -20.5q-23 0 -43 17l-190 168q-25 22 -25 55zM487 487h426l-213 588z" />
    <glyph glyph-name="Aacute" unicode="&#xc1;" horiz-adv-x="1400" 
d="M55 143q0 33 11 56l399 1026q27 70 88 111.5t135 41.5q80 6 149.5 -37t98.5 -116l397 -1026q10 -31 10 -56q0 -59 -44 -107t-111 -48q-47 0 -86 26.5t-55 69.5l-54 147h-585l-56 -147q-16 -45 -56 -70.5t-87 -25.5q-66 0 -110 47t-44 108zM487 487h426l-213 588z
M647 1536q0 27 19 45l170 182q20 25 55 25q31 0 56.5 -23.5t25.5 -56.5t-25 -55l-190 -168q-20 -16 -43 -17q-27 0 -47.5 19.5t-20.5 48.5z" />
    <glyph glyph-name="Acircumflex" unicode="&#xc2;" horiz-adv-x="1400" 
d="M55 143q0 33 11 56l399 1026q27 70 88 111.5t135 41.5q80 6 149.5 -37t98.5 -116l397 -1026q10 -31 10 -56q0 -59 -44 -107t-111 -48q-47 0 -86 26.5t-55 69.5l-54 147h-585l-56 -147q-16 -45 -56 -70.5t-87 -25.5q-66 0 -110 47t-44 108zM440 1534q0 23 13 37l82 127
q57 90 167 90q104 0 164 -90l84 -127q10 -12 11 -35q0 -25 -19.5 -47.5t-50.5 -22.5q-33 0 -51 27l-140 170l-137 -170q-23 -25 -51.5 -25t-50 19.5t-21.5 46.5zM487 487h426l-213 588z" />
    <glyph glyph-name="Atilde" unicode="&#xc3;" horiz-adv-x="1400" 
d="M55 143q0 33 11 56l399 1026q27 70 88 111.5t135 41.5q80 6 149.5 -37t98.5 -116l397 -1026q10 -31 10 -56q0 -59 -44 -107t-111 -48q-47 0 -86 26.5t-55 69.5l-54 147h-585l-56 -147q-16 -45 -56 -70.5t-87 -25.5q-66 0 -110 47t-44 108zM371 1542q0 72 52 146.5
t165 74.5q45 0 83 -21.5t57.5 -47t46 -47t50.5 -21.5q51 0 68 72q6 29 29.5 47t50 18t43 -19.5t16.5 -45.5q0 -72 -51 -146.5t-164 -74.5q-59 0 -102 34.5t-75 69.5t-62 35q-51 0 -68 -74q-6 -29 -29.5 -47t-52.5 -18q-25 0 -41 19t-16 46zM487 487h426l-213 588z" />
    <glyph glyph-name="Adieresis" unicode="&#xc4;" horiz-adv-x="1400" 
d="M55 143q0 33 11 56l399 1026q27 70 88 111.5t135 41.5q80 6 149.5 -37t98.5 -116l397 -1026q10 -31 10 -56q0 -59 -44 -107t-111 -48q-47 0 -86 26.5t-55 69.5l-54 147h-585l-56 -147q-16 -45 -56 -70.5t-87 -25.5q-66 0 -110 47t-44 108zM346 1593.5q0 57.5 41 97.5
t98.5 40t97.5 -40t40 -97.5t-40 -98.5t-98 -41q-59 0 -99 41t-40 98.5zM487 487h426l-213 588zM778 1593.5q0 57.5 41 97.5t98.5 40t98.5 -40t41 -97.5t-41 -98.5t-98.5 -41t-98.5 41t-41 98.5z" />
    <glyph glyph-name="Aring" unicode="&#xc5;" horiz-adv-x="1400" 
d="M55 143q0 33 11 56l399 1026q27 70 88 111.5t135 41.5q80 6 149.5 -37t98.5 -116l397 -1026q10 -31 10 -56q0 -59 -44 -107t-111 -48q-47 0 -86 26.5t-55 69.5l-54 147h-585l-56 -147q-16 -45 -56 -70.5t-87 -25.5q-66 0 -110 47t-44 108zM487 487h426l-213 588z
M487 1624q0 88 63.5 152.5t152 64.5t150.5 -64.5t62 -152.5q0 -90 -62 -152.5t-150.5 -62.5t-152 63.5t-63.5 151.5zM606 1624q0 -39 29 -67.5t67.5 -28.5t66.5 28.5t28 67.5q0 41 -28 68.5t-66.5 27.5t-67.5 -28.5t-29 -67.5z" />
    <glyph glyph-name="AE" unicode="&#xc6;" horiz-adv-x="1982" 
d="M86 129q0 41 20 76l621 1022q39 63 107.5 101t142.5 38h807q51 0 88 -38t37 -91q0 -51 -37 -89t-88 -38h-561v-289h546q51 0 88 -38t37 -91q0 -51 -36.5 -89t-88.5 -38h-546v-309h561q51 0 88 -37t37 -88q0 -55 -37 -93t-88 -38h-690q-68 0 -116 48t-48 116v67h-481
l-105 -180q-37 -66 -117 -65q-59 0 -100 43t-41 100zM588 487h342v588z" />
    <glyph glyph-name="Ccedilla" unicode="&#xc7;" horiz-adv-x="1406" 
d="M70 682q0 311 207.5 509t519.5 198q309 0 497 -226q29 -35 29 -80q0 -55 -41 -93t-98 -38q-63 0 -107 47q-125 131 -280 131q-186 0 -307 -126.5t-121 -321.5t120.5 -322t307.5 -127q164 0 280 129q43 47 111 48q55 0 94 -38t39 -89q0 -49 -29 -80q-176 -211 -461 -226
l-32 -81q35 20 73 20q57 0 97.5 -40t40.5 -103q0 -80 -65.5 -127t-162.5 -47q-82 0 -150.5 24.5t-68.5 69.5q0 25 17.5 41t40.5 16q12 0 24 -6q66 -35 129 -35q45 0 76 17.5t31 50.5q0 53 -60 53q-16 0 -40.5 -12.5t-41.5 -12.5q-29 0 -48 19.5t-19 44.5q0 6 4 22l33 91
q-279 29 -459 221t-180 479z" />
    <glyph glyph-name="Egrave" unicode="&#xc8;" horiz-adv-x="1193" 
d="M135 164v1038q0 68 48 116t116 48h690q51 0 88 -38t37 -91q0 -51 -37 -89t-88 -38h-563v-289h549q51 0 88 -38t37 -91q0 -51 -37 -89t-88 -38h-549v-309h563q51 0 88 -37t37 -88q0 -55 -37 -93t-88 -38h-690q-68 0 -116 48t-48 116zM344 1708q0 31 23.5 55.5t56.5 24.5
t57 -25l170 -182q18 -18 18.5 -45t-20 -47.5t-47.5 -20.5q-23 0 -43 17l-190 168q-25 22 -25 55z" />
    <glyph glyph-name="Eacute" unicode="&#xc9;" horiz-adv-x="1193" 
d="M135 164v1038q0 68 48 116t116 48h690q51 0 88 -38t37 -91q0 -51 -37 -89t-88 -38h-563v-289h549q51 0 88 -38t37 -91q0 -51 -37 -89t-88 -38h-549v-309h563q51 0 88 -37t37 -88q0 -55 -37 -93t-88 -38h-690q-68 0 -116 48t-48 116zM563 1536q0 27 19 45l170 182
q23 25 55 25q31 0 56.5 -23.5t25.5 -56.5t-25 -55l-190 -168q-20 -16 -43 -17q-27 0 -47.5 19.5t-20.5 48.5z" />
    <glyph glyph-name="Ecircumflex" unicode="&#xca;" horiz-adv-x="1193" 
d="M135 164v1038q0 68 48 116t116 48h690q51 0 88 -38t37 -91q0 -51 -37 -89t-88 -38h-563v-289h549q51 0 88 -38t37 -91q0 -51 -37 -89t-88 -38h-549v-309h563q51 0 88 -37t37 -88q0 -55 -37 -93t-88 -38h-690q-68 0 -116 48t-48 116zM356 1534q0 23 13 37l82 127
q57 90 167 90q104 0 164 -90l84 -127q10 -12 11 -35q0 -25 -19.5 -47.5t-50.5 -22.5q-33 0 -51 27l-140 170l-137 -170q-20 -25 -51 -25q-29 0 -50.5 19.5t-21.5 46.5z" />
    <glyph glyph-name="Edieresis" unicode="&#xcb;" horiz-adv-x="1193" 
d="M135 164v1038q0 68 48 116t116 48h690q51 0 88 -38t37 -91q0 -51 -37 -89t-88 -38h-563v-289h549q51 0 88 -38t37 -91q0 -51 -37 -89t-88 -38h-549v-309h563q51 0 88 -37t37 -88q0 -55 -37 -93t-88 -38h-690q-68 0 -116 48t-48 116zM264 1593.5q0 57.5 41 97.5t98.5 40
t97.5 -40t40 -97.5t-40 -98.5t-98 -41q-59 0 -99 41t-40 98.5zM696 1593.5q0 57.5 41 97.5t98.5 40t98.5 -40t41 -97.5t-41 -98.5t-98.5 -41t-98.5 41t-41 98.5z" />
    <glyph glyph-name="Igrave" unicode="&#xcc;" horiz-adv-x="561" 
d="M12 1708q0 31 23.5 55.5t56.5 24.5t58 -25l169 -182q18 -18 18.5 -45t-20 -47.5t-47.5 -20.5q-23 0 -43 17l-190 168q-25 22 -25 55zM135 131v1104q0 59 43 101t105 42q57 0 100 -42t43 -101v-1104q0 -59 -43 -101t-104 -42q-57 0 -100.5 43t-43.5 100z" />
    <glyph glyph-name="Iacute" unicode="&#xcd;" horiz-adv-x="561" 
d="M135 131v1104q0 59 43 101t105 42q57 0 100 -42t43 -101v-1104q0 -59 -43 -101t-104 -42q-57 0 -100.5 43t-43.5 100zM229 1536q0 27 19 45l170 182q20 25 55 25q31 0 56.5 -23.5t25.5 -56.5t-25 -55l-190 -168q-20 -16 -43 -17q-27 0 -47.5 19.5t-20.5 48.5z" />
    <glyph glyph-name="Icircumflex" unicode="&#xce;" horiz-adv-x="561" 
d="M20 1534q0 23 13 37l82 127q57 90 168 90q104 0 163 -90l84 -127q10 -12 11 -35q0 -25 -19.5 -47.5t-50.5 -22.5q-33 0 -51 27l-139 170l-138 -170q-20 -25 -51 -25q-29 0 -50.5 19.5t-21.5 46.5zM135 131v1104q0 59 43 101t105 42q57 0 100 -42t43 -101v-1104
q0 -59 -43 -101t-104 -42q-57 0 -100.5 43t-43.5 100z" />
    <glyph glyph-name="Idieresis" unicode="&#xcf;" horiz-adv-x="561" 
d="M-72 1593.5q0 57.5 41 97.5t98.5 40t97.5 -40t40 -97.5t-40 -98.5t-97 -41q-59 0 -99.5 41t-40.5 98.5zM135 131v1104q0 59 43 101t105 42q57 0 100 -42t43 -101v-1104q0 -59 -43 -101t-104 -42q-57 0 -100.5 43t-43.5 100zM360 1593.5q0 57.5 41 97.5t98.5 40t98.5 -40
t41 -97.5t-41 -98.5t-98.5 -41t-98.5 41t-41 98.5z" />
    <glyph glyph-name="Eth" unicode="&#xd0;" horiz-adv-x="1519" 
d="M4 678q0 43 31 73.5t76 30.5h75v420q0 68 48.5 116t115.5 48h375q322 0 523.5 -188.5t201.5 -495.5t-200.5 -494.5t-524.5 -187.5h-375q-68 0 -116 48t-48 116v403h-75q-45 0 -76 32t-31 79zM477 256h248q197 0 312.5 123t115.5 303q0 188 -112.5 308t-315.5 120h-248
v-328h213q43 0 74 -31.5t31 -76.5t-31 -76t-74 -31h-213v-311z" />
    <glyph glyph-name="Ntilde" unicode="&#xd1;" horiz-adv-x="1492" 
d="M135 131v1061q0 74 55.5 130t135.5 56q102 0 159 -80l582 -790v727q0 59 43 101t104 42q59 0 101.5 -42t42.5 -101v-1071q0 -72 -52.5 -124t-127.5 -52q-90 0 -146 73l-606 830v-760q0 -59 -43 -101t-104 -42q-57 0 -100.5 43t-43.5 100zM414 1542q0 72 52 146.5
t165 74.5q45 0 83 -21.5t57.5 -47t46 -47t50.5 -21.5q51 0 68 72q6 29 29.5 47t50 18t43 -19.5t16.5 -45.5q0 -72 -51 -146.5t-164 -74.5q-59 0 -102 34.5t-75 69.5t-62 35q-51 0 -68 -74q-6 -29 -29.5 -47t-52.5 -18q-25 0 -41 19t-16 46z" />
    <glyph glyph-name="Ograve" unicode="&#xd2;" horiz-adv-x="1566" 
d="M70 682q0 307 201.5 507t510.5 200q311 0 513 -199t202 -508t-201.5 -508t-513.5 -199q-309 0 -510.5 200t-201.5 507zM369 682q0 -195 113.5 -322t300 -127t301 127t114.5 322t-114.5 321.5t-301 126.5t-300 -126.5t-113.5 -321.5zM514 1708q0 31 23.5 55.5t56.5 24.5
t57 -25l170 -182q18 -18 18.5 -45t-20 -47.5t-47.5 -20.5q-23 0 -43 17l-190 168q-25 22 -25 55z" />
    <glyph glyph-name="Oacute" unicode="&#xd3;" horiz-adv-x="1566" 
d="M70 682q0 307 201.5 507t510.5 200q311 0 513 -199t202 -508t-201.5 -508t-513.5 -199q-309 0 -510.5 200t-201.5 507zM369 682q0 -195 113.5 -322t300 -127t301 127t114.5 322t-114.5 321.5t-301 126.5t-300 -126.5t-113.5 -321.5zM729 1536q0 27 19 45l170 182
q20 25 55 25q31 0 56.5 -23.5t25.5 -56.5t-25 -55l-190 -168q-20 -16 -43 -17q-27 0 -47.5 19.5t-20.5 48.5z" />
    <glyph glyph-name="Ocircumflex" unicode="&#xd4;" horiz-adv-x="1566" 
d="M70 682q0 307 201.5 507t510.5 200q311 0 513 -199t202 -508t-201.5 -508t-513.5 -199q-309 0 -510.5 200t-201.5 507zM369 682q0 -195 113.5 -322t300 -127t301 127t114.5 322t-114.5 321.5t-301 126.5t-300 -126.5t-113.5 -321.5zM526 1534q0 23 13 37l82 127
q57 90 167 90q104 0 164 -90l84 -127q10 -12 11 -35q0 -25 -19.5 -47.5t-50.5 -22.5q-33 0 -51 27l-140 170l-137 -170q-23 -25 -51.5 -25t-50 19.5t-21.5 46.5z" />
    <glyph glyph-name="Otilde" unicode="&#xd5;" horiz-adv-x="1566" 
d="M70 682q0 307 201.5 507t510.5 200q311 0 513 -199t202 -508t-201.5 -508t-513.5 -199q-309 0 -510.5 200t-201.5 507zM369 682q0 -195 113.5 -322t300 -127t301 127t114.5 322t-114.5 321.5t-301 126.5t-300 -126.5t-113.5 -321.5zM453 1542q0 72 52 146.5t165 74.5
q45 0 83 -21.5t57 -47t46 -47t51 -21.5q51 0 68 72q6 29 29.5 47t50 18t43 -19.5t16.5 -45.5q0 -72 -51 -146.5t-164 -74.5q-59 0 -102 34.5t-75 69.5t-63 35q-51 0 -67 -74q-6 -29 -29.5 -47t-52.5 -18q-25 0 -41 19t-16 46z" />
    <glyph glyph-name="Odieresis" unicode="&#xd6;" horiz-adv-x="1566" 
d="M70 682q0 307 201.5 507t510.5 200q311 0 513 -199t202 -508t-201.5 -508t-513.5 -199q-309 0 -510.5 200t-201.5 507zM369 682q0 -195 113.5 -322t300 -127t301 127t114.5 322t-114.5 321.5t-301 126.5t-300 -126.5t-113.5 -321.5zM430 1593.5q0 57.5 41 97.5t98.5 40
t97.5 -40t40 -97.5t-40 -98.5t-97.5 -41t-98.5 41t-41 98.5zM862 1593.5q0 57.5 41 97.5t98.5 40t98.5 -40t41 -97.5t-41 -98.5t-98.5 -41t-98.5 41t-41 98.5z" />
    <glyph glyph-name="multiply" unicode="&#xd7;" horiz-adv-x="1032" 
d="M135 385q0 31 23 53l243 246l-241 242q-25 25 -25 55q0 33 23.5 58.5t56.5 25.5q35 0 59 -25l242 -243l244 245q23 23 53 23q33 0 58.5 -23.5t25.5 -58.5q0 -33 -23 -55l-243 -244l243 -246q23 -27 23 -55q0 -35 -25.5 -57.5t-56.5 -22.5q-33 0 -55 23l-244 243
l-242 -243q-23 -23 -55.5 -23t-58 24.5t-25.5 57.5z" />
    <glyph glyph-name="Oslash" unicode="&#xd8;" horiz-adv-x="1566" 
d="M70 682q0 307 201.5 507t510.5 200q193 0 355 -84l30 38q25 31 66 31q33 0 59.5 -22.5t26.5 -57.5q0 -23 -16 -45l-29 -39q223 -203 223 -528q0 -309 -201.5 -508t-513.5 -199q-211 0 -376 97l-41 -54q-27 -33 -64 -32q-35 0 -60.5 24.5t-25.5 57.5q0 25 16 51l41 53
q-202 199 -202 510zM369 682q0 -162 80 -281l522 686q-90 43 -189 43q-186 0 -299.5 -126.5t-113.5 -321.5zM569 289q94 -55 213 -56q186 0 301 127t115 322q0 180 -98 301z" />
    <glyph glyph-name="Ugrave" unicode="&#xd9;" horiz-adv-x="1501" 
d="M135 545v688q0 59 43 102t107 43q59 0 102 -43t43 -102v-678q0 -147 84 -234.5t237.5 -87.5t236.5 87.5t83 234.5v678q0 59 44 102t108 43q59 0 102 -43t43 -102v-686q0 -264 -156.5 -418t-459.5 -154t-460 155t-157 415zM481 1708q0 31 23.5 55.5t56.5 24.5t57 -25
l170 -182q18 -18 18.5 -45t-20 -47.5t-47.5 -20.5q-23 0 -43 17l-190 168q-25 22 -25 55z" />
    <glyph glyph-name="Uacute" unicode="&#xda;" horiz-adv-x="1501" 
d="M135 545v688q0 59 43 102t107 43q59 0 102 -43t43 -102v-678q0 -147 84 -234.5t237.5 -87.5t236.5 87.5t83 234.5v678q0 59 44 102t108 43q59 0 102 -43t43 -102v-686q0 -264 -156.5 -418t-459.5 -154t-460 155t-157 415zM698 1536q0 27 19 45l170 182q23 25 55 25
q31 0 56.5 -23.5t25.5 -56.5t-25 -55l-190 -168q-20 -16 -43 -17q-27 0 -47.5 19.5t-20.5 48.5z" />
    <glyph glyph-name="Ucircumflex" unicode="&#xdb;" horiz-adv-x="1501" 
d="M135 545v688q0 59 43 102t107 43q59 0 102 -43t43 -102v-678q0 -147 84 -234.5t237.5 -87.5t236.5 87.5t83 234.5v678q0 59 44 102t108 43q59 0 102 -43t43 -102v-686q0 -264 -156.5 -418t-459.5 -154t-460 155t-157 415zM498 1534q0 23 12 37l82 127q57 90 168 90
q104 0 164 -90l84 -127q10 -12 10 -35q0 -25 -19.5 -47.5t-50.5 -22.5q-33 0 -51 27l-139 170l-137 -170q-23 -25 -51.5 -25t-50 19.5t-21.5 46.5z" />
    <glyph glyph-name="Udieresis" unicode="&#xdc;" horiz-adv-x="1501" 
d="M135 545v688q0 59 43 102t107 43q59 0 102 -43t43 -102v-678q0 -147 84 -234.5t237.5 -87.5t236.5 87.5t83 234.5v678q0 59 44 102t108 43q59 0 102 -43t43 -102v-686q0 -264 -156.5 -418t-459.5 -154t-460 155t-157 415zM401 1593.5q0 57.5 41 97.5t98.5 40t97.5 -40
t40 -97.5t-40 -98.5t-97.5 -41t-98.5 41t-41 98.5zM834 1593.5q0 57.5 40.5 97.5t98 40t98.5 -40t41 -97.5t-41 -98.5t-98.5 -41t-98 41t-40.5 98.5z" />
    <glyph glyph-name="Yacute" unicode="&#xdd;" horiz-adv-x="1320" 
d="M96 1243q0 51 40 92t100 41q78 0 118 -65l308 -494l301 492q41 68 120 67q61 0 100.5 -40t39.5 -93q0 -39 -21 -72l-395 -612v-428q0 -59 -43 -101t-105 -42q-57 0 -100 43t-43 100v428l-399 615q-21 28 -21 69zM606 1536q0 27 19 45l170 182q20 25 55 25
q31 0 56.5 -23.5t25.5 -56.5t-25 -55l-190 -168q-20 -16 -43 -17q-27 0 -47.5 19.5t-20.5 48.5z" />
    <glyph glyph-name="Thorn" unicode="&#xde;" horiz-adv-x="1277" 
d="M135 131v1104q0 59 43 101t105 42q57 0 100 -42t43 -101v-90h348q215 0 337 -127t122 -316q0 -186 -123 -311t-336 -125h-348v-135q0 -59 -43 -101t-104 -42q-57 0 -100.5 43t-43.5 100zM426 522h305q90 0 147.5 49.5t57.5 133t-58.5 134t-146.5 50.5h-305v-367z" />
    <glyph glyph-name="germandbls" unicode="&#xdf;" horiz-adv-x="1316" 
d="M129 117v856q0 176 127 294.5t342 118.5q170 0 296 -81.5t126 -214.5q0 -78 -42 -138.5t-93 -90.5t-93 -69.5t-42 -78.5t55 -59.5t134 -36t157 -43t133 -98t55 -181.5q0 -139 -112.5 -229.5t-299.5 -90.5q-115 0 -219 36t-143 95q-18 29 -18 58q0 43 28.5 72.5t69.5 29.5
q29 0 57 -16q106 -72 225 -72q78 0 120 31t42 76q0 43 -55 68.5t-134 43t-157 45t-133 93t-55 170.5q0 59 25.5 108t63.5 81t74.5 57.5t62.5 51t26 50.5q0 47 -47.5 74.5t-110.5 27.5q-88 0 -146.5 -49t-58.5 -133v-856q0 -53 -38 -91t-93 -38q-53 0 -91 38t-38 91z" />
    <glyph glyph-name="agrave" unicode="&#xe0;" horiz-adv-x="1112" 
d="M66 303q0 160 103 240t241 80q211 0 313 -121v133q0 76 -59.5 121t-157.5 45q-125 0 -221 -64q-25 -14 -47 -14q-37 0 -68 28.5t-31 71.5q0 27 15 51q41 66 165.5 103t231.5 37q190 0 311 -88t121 -287v-522q0 -53 -37 -91t-90 -38h-20q-16 0 -39 7t-48.5 34.5
t-25.5 72.5q-106 -127 -313 -127q-133 0 -238.5 87t-105.5 241zM279 1366q0 31 23.5 55.5t56 24.5t57.5 -25l170 -182q18 -18 18 -45t-20.5 -47.5t-46.5 -20.5q-23 0 -43 17l-191 168q-24 20 -24 55zM328 297q0 -68 53 -106.5t133 -38.5q145 0 209 86v122q-63 86 -209 86
q-80 0 -133 -39.5t-53 -109.5z" />
    <glyph glyph-name="aacute" unicode="&#xe1;" horiz-adv-x="1112" 
d="M66 303q0 160 103 240t241 80q211 0 313 -121v133q0 76 -59.5 121t-157.5 45q-125 0 -221 -64q-25 -14 -47 -14q-37 0 -68 28.5t-31 71.5q0 27 15 51q41 66 165.5 103t231.5 37q190 0 311 -88t121 -287v-522q0 -53 -37 -91t-90 -38h-20q-16 0 -39 7t-48.5 34.5
t-25.5 72.5q-106 -127 -313 -127q-133 0 -238.5 87t-105.5 241zM328 297q0 -68 53 -106.5t133 -38.5q145 0 209 86v122q-63 86 -209 86q-80 0 -133 -39.5t-53 -109.5zM496 1194q0 27 18 45l170 182q20 25 55 25q31 0 56.5 -23.5t25.5 -56.5q0 -35 -24 -55l-191 -168
q-20 -16 -43 -17q-27 0 -47 19.5t-20 48.5z" />
    <glyph glyph-name="acircumflex" unicode="&#xe2;" horiz-adv-x="1112" 
d="M66 303q0 160 103 240t241 80q211 0 313 -121v133q0 76 -59.5 121t-157.5 45q-125 0 -221 -64q-25 -14 -47 -14q-37 0 -68 28.5t-31 71.5q0 27 15 51q41 66 165.5 103t231.5 37q190 0 311 -88t121 -287v-522q0 -53 -37 -91t-90 -38h-20q-16 0 -39 7t-48.5 34.5
t-25.5 72.5q-106 -127 -313 -127q-133 0 -238.5 87t-105.5 241zM293 1192q0 20 12 37l82 127q57 90 168 90q104 0 164 -90l84 -127q10 -12 10 -35q0 -25 -19.5 -47.5t-50.5 -22.5q-33 0 -51 27l-139 170l-137 -170q-23 -25 -51.5 -25t-50 19.5t-21.5 46.5zM328 297
q0 -68 53 -106.5t133 -38.5q145 0 209 86v122q-63 86 -209 86q-80 0 -133 -39.5t-53 -109.5z" />
    <glyph glyph-name="atilde" unicode="&#xe3;" horiz-adv-x="1112" 
d="M66 303q0 160 103 240t241 80q211 0 313 -121v133q0 76 -59.5 121t-157.5 45q-125 0 -221 -64q-25 -14 -47 -14q-37 0 -68 28.5t-31 71.5q0 27 15 51q41 66 165.5 103t231.5 37q190 0 311 -88t121 -287v-522q0 -53 -37 -91t-90 -38h-20q-16 0 -39 7t-48.5 34.5
t-25.5 72.5q-106 -127 -313 -127q-133 0 -238.5 87t-105.5 241zM221 1200q0 72 52.5 146.5t164.5 74.5q57 0 100.5 -34.5t75 -68.5t62.5 -34q51 0 67 72q6 29 30 47t50.5 18t43 -19.5t16.5 -45.5q0 -72 -51.5 -146.5t-163.5 -74.5q-59 0 -102.5 34.5t-75 69.5t-62.5 35
q-51 0 -68 -74q-6 -29 -29.5 -47t-51.5 -18q-25 0 -41.5 19t-16.5 46zM328 297q0 -68 53 -106.5t133 -38.5q145 0 209 86v122q-63 86 -209 86q-80 0 -133 -39.5t-53 -109.5z" />
    <glyph glyph-name="adieresis" unicode="&#xe4;" horiz-adv-x="1112" 
d="M66 303q0 160 103 240t241 80q211 0 313 -121v133q0 76 -59.5 121t-157.5 45q-125 0 -221 -64q-25 -14 -47 -14q-37 0 -68 28.5t-31 71.5q0 27 15 51q41 66 165.5 103t231.5 37q190 0 311 -88t121 -287v-522q0 -53 -37 -91t-90 -38h-20q-16 0 -39 7t-48.5 34.5
t-25.5 72.5q-106 -127 -313 -127q-133 0 -238.5 87t-105.5 241zM197 1251q0 57 41 97.5t98 40.5t97 -40t40 -97.5t-40 -98.5t-97 -41t-98 40t-41 99zM328 297q0 -68 53 -106.5t133 -38.5q145 0 209 86v122q-63 86 -209 86q-80 0 -133 -39.5t-53 -109.5zM629 1251.5
q0 57.5 41 97.5t98 40t98 -40t41 -97.5t-41 -98.5t-98 -41t-98 41t-41 98.5z" />
    <glyph glyph-name="aring" unicode="&#xe5;" horiz-adv-x="1112" 
d="M66 303q0 160 103 240t241 80q211 0 313 -121v133q0 76 -59.5 121t-157.5 45q-125 0 -221 -64q-25 -14 -47 -14q-37 0 -68 28.5t-31 71.5q0 27 15 51q41 66 165.5 103t231.5 37q190 0 311 -88t121 -287v-522q0 -53 -37 -91t-90 -38h-20q-16 0 -39 7t-48.5 34.5
t-25.5 72.5q-106 -127 -313 -127q-133 0 -238.5 87t-105.5 241zM328 297q0 -68 53 -106.5t133 -38.5q145 0 209 86v122q-63 86 -209 86q-80 0 -133 -39.5t-53 -109.5zM340 1302.5q0 88.5 63.5 153t151.5 64.5t150.5 -64.5t62.5 -152.5q0 -90 -62.5 -153t-150.5 -63
t-151.5 63.5t-63.5 152zM459 1302.5q0 -38.5 28.5 -67.5t67.5 -29t66.5 29t27.5 68q0 41 -27.5 68.5t-66.5 27.5t-67.5 -29t-28.5 -67.5z" />
    <glyph glyph-name="ae" unicode="&#xe6;" horiz-adv-x="1781" 
d="M66 299q0 156 102 240t256 84q223 0 338 -119v133q0 74 -64.5 119t-171.5 45q-135 0 -239 -66q-25 -14 -49 -14q-37 0 -67 28.5t-30 71.5q0 29 15 51q41 68 168 105t233 37q260 0 346 -170q129 170 359 170q156 0 269.5 -88t160.5 -244q27 -84 26 -147q0 -51 -35.5 -87
t-87.5 -36h-571q14 -96 84 -160t182 -64q90 0 172 43q25 12 56 13q41 0 74.5 -29t33.5 -72q0 -25 -14 -49q-37 -57 -144.5 -88t-195.5 -31q-256 0 -381 181q-63 -80 -173 -130.5t-239 -50.5q-176 0 -294.5 83t-118.5 241zM328 313.5q0 -63.5 56 -98.5t140 -35q94 0 166 52.5
t72 113.5v12q-78 88 -232 88q-88 0 -145 -34.5t-57 -98zM1020 588h450q-4 84 -60 151.5t-165 67.5q-102 0 -159.5 -66.5t-65.5 -152.5z" />
    <glyph glyph-name="ccedilla" unicode="&#xe7;" horiz-adv-x="1021" 
d="M66 496q0 227 147 372.5t377 145.5q117 0 212 -38t128 -97q12 -23 12 -48q0 -49 -38 -79.5t-85 -30.5q-39 0 -71 20q-66 41 -146 41q-119 0 -193.5 -78.5t-74.5 -207.5t74.5 -209t193.5 -80q80 0 148 43q33 20 69 20q49 0 87 -31.5t38 -80.5q0 -27 -12 -47
q-29 -51 -110 -87t-179 -47l-33 -81q35 20 74 20q57 0 97 -40t40 -103q0 -80 -65.5 -127t-161.5 -47q-82 0 -150.5 24.5t-68.5 69.5q0 25 17.5 41t39.5 16q12 0 25 -6q66 -35 129 -35q45 0 75.5 17.5t30.5 50.5q0 53 -59 53q-16 0 -41 -12.5t-41 -12.5q-29 0 -48.5 19.5
t-19.5 44.5q0 6 4 22l33 89q-203 23 -328.5 164t-125.5 352z" />
    <glyph glyph-name="egrave" unicode="&#xe8;" horiz-adv-x="1132" 
d="M66 496q0 219 144 368.5t368 149.5q166 0 287.5 -89t174.5 -245q29 -90 29 -150q0 -47 -35 -82.5t-86 -35.5h-610q12 -98 88 -164t197 -66q100 0 192 49q25 12 51 13q43 0 77 -30t34 -75q0 -78 -129 -121t-254 -43q-229 0 -378.5 144t-149.5 377zM307 1366
q0 31 23.5 55.5t56.5 24.5t57 -25l170 -182q18 -18 18.5 -45t-20 -47.5t-47.5 -20.5q-23 0 -43 17l-190 168q-25 20 -25 55zM334 588h487q-6 84 -66.5 151.5t-176.5 67.5q-111 0 -172.5 -66.5t-71.5 -152.5z" />
    <glyph glyph-name="eacute" unicode="&#xe9;" horiz-adv-x="1132" 
d="M66 496q0 219 144 368.5t368 149.5q166 0 287.5 -89t174.5 -245q29 -90 29 -150q0 -47 -35 -82.5t-86 -35.5h-610q12 -98 88 -164t197 -66q100 0 192 49q25 12 51 13q43 0 77 -30t34 -75q0 -78 -129 -121t-254 -43q-229 0 -378.5 144t-149.5 377zM334 588h487
q-6 84 -66.5 151.5t-176.5 67.5q-111 0 -172.5 -66.5t-71.5 -152.5zM524 1194q0 27 19 45l170 182q20 25 55 25q31 0 56.5 -23.5t25.5 -56.5q0 -35 -25 -55l-190 -168q-20 -16 -43 -17q-27 0 -47.5 19.5t-20.5 48.5z" />
    <glyph glyph-name="ecircumflex" unicode="&#xea;" horiz-adv-x="1132" 
d="M66 496q0 219 144 368.5t368 149.5q166 0 287.5 -89t174.5 -245q29 -90 29 -150q0 -47 -35 -82.5t-86 -35.5h-610q12 -98 88 -164t197 -66q100 0 192 49q25 12 51 13q43 0 77 -30t34 -75q0 -78 -129 -121t-254 -43q-229 0 -378.5 144t-149.5 377zM317 1192q0 20 13 37
l82 127q57 90 168 90q104 0 163 -90l84 -127q10 -12 11 -35q0 -25 -19.5 -47.5t-50.5 -22.5q-33 0 -51 27l-139 170l-138 -170q-23 -25 -51.5 -25t-50 19.5t-21.5 46.5zM334 588h487q-6 84 -66.5 151.5t-176.5 67.5q-111 0 -172.5 -66.5t-71.5 -152.5z" />
    <glyph glyph-name="edieresis" unicode="&#xeb;" horiz-adv-x="1132" 
d="M66 496q0 219 144 368.5t368 149.5q166 0 287.5 -89t174.5 -245q29 -90 29 -150q0 -47 -35 -82.5t-86 -35.5h-610q12 -98 88 -164t197 -66q100 0 192 49q25 12 51 13q43 0 77 -30t34 -75q0 -78 -129 -121t-254 -43q-229 0 -378.5 144t-149.5 377zM225 1251q0 57 41 97.5
t98.5 40.5t97.5 -40t40 -97.5t-40 -98.5t-97.5 -41t-98.5 40t-41 99zM334 588h487q-6 84 -66.5 151.5t-176.5 67.5q-111 0 -172.5 -66.5t-71.5 -152.5zM657 1251.5q0 57.5 41 97.5t98.5 40t98.5 -40t41 -97.5t-41 -98.5t-98.5 -41t-98.5 41t-41 98.5z" />
    <glyph glyph-name="igrave" unicode="&#xec;" horiz-adv-x="518" 
d="M-10 1366q0 31 23.5 55.5t56 24.5t57.5 -25l170 -182q18 -18 18 -45t-20.5 -47.5t-46.5 -20.5q-23 0 -43 17l-191 168q-24 20 -24 55zM129 117v757q0 53 38 90t95 37q53 0 90 -37.5t37 -89.5v-757q0 -53 -38 -91t-93 -38q-53 0 -91 38t-38 91z" />
    <glyph glyph-name="iacute" unicode="&#xed;" horiz-adv-x="518" 
d="M129 117v757q0 53 38 90t95 37q53 0 90 -37.5t37 -89.5v-757q0 -53 -38 -91t-93 -38q-53 0 -91 38t-38 91zM205 1194q0 27 18 45l170 182q20 25 56 25q31 0 56 -23.5t25 -56.5q0 -35 -24 -55l-191 -168q-20 -16 -43 -17q-27 0 -47 19.5t-20 48.5z" />
    <glyph glyph-name="icircumflex" unicode="&#xee;" horiz-adv-x="518" 
d="M-2 1192q0 20 12 37l82 127q57 90 168 90q104 0 164 -90l84 -127q10 -12 10 -35q0 -25 -19.5 -47.5t-49.5 -22.5q-33 0 -52 27l-139 170l-137 -170q-23 -25 -51.5 -25t-50 19.5t-21.5 46.5zM129 117v757q0 53 38 90t95 37q53 0 90 -37.5t37 -89.5v-757q0 -53 -38 -91
t-93 -38q-53 0 -91 38t-38 91z" />
    <glyph glyph-name="idieresis" unicode="&#xef;" horiz-adv-x="518" 
d="M-94 1251q0 57 41 97.5t98 40.5t97 -40t40 -97.5t-40 -98.5t-97 -41t-98 40t-41 99zM129 117v757q0 53 38 90t95 37q53 0 90 -37.5t37 -89.5v-757q0 -53 -38 -91t-93 -38q-53 0 -91 38t-38 91zM338 1251.5q0 57.5 41 97.5t98.5 40t98 -40t40.5 -97.5t-40.5 -98.5t-98 -41
t-98.5 41t-41 98.5z" />
    <glyph glyph-name="eth" unicode="&#xf0;" horiz-adv-x="1175" 
d="M66 459q0 211 125.5 347t312.5 136q209 0 327 -190q-74 166 -321 340l-252 -111q-12 -6 -27 -6q-25 0 -45 19.5t-20 47.5q0 45 41 62l172 76q-86 45 -86 120q2 53 40 89t87 36q59 0 227 -129l166 74q12 4 23 4q25 0 45 -18.5t20 -46.5q0 -41 -37 -58l-104 -47
q352 -313 352 -688q0 -244 -141.5 -392.5t-382.5 -148.5q-233 0 -377.5 135.5t-144.5 348.5zM336 458.5q0 -106.5 67.5 -179t184.5 -72.5t185.5 72.5t68.5 179t-68.5 179.5t-185.5 73t-184.5 -73t-67.5 -179.5z" />
    <glyph glyph-name="ntilde" unicode="&#xf1;" horiz-adv-x="1185" 
d="M129 117v757q0 53 38 90t95 37q53 0 90 -37.5t37 -89.5v-14q129 154 346 154q160 0 241 -84t81 -232v-581q0 -53 -38 -91t-93 -38q-53 0 -91 37.5t-38 91.5v481q0 184 -183 184q-141 0 -225 -116v-549q0 -53 -38 -91t-93 -38q-53 0 -91 38t-38 91zM264 1200
q0 72 52.5 146.5t164.5 74.5q57 0 100.5 -34.5t75 -68.5t62.5 -34q51 0 67 72q6 29 30 47t50.5 18t43 -19.5t16.5 -45.5q0 -72 -51.5 -146.5t-163.5 -74.5q-59 0 -102.5 34.5t-75 69.5t-62.5 35q-51 0 -68 -74q-6 -29 -29.5 -47t-51.5 -18q-25 0 -41.5 19t-16.5 46z" />
    <glyph glyph-name="ograve" unicode="&#xf2;" horiz-adv-x="1175" 
d="M66 495.5q0 219.5 142 369t379.5 149.5t381 -149.5t143.5 -369t-143.5 -370t-381 -150.5t-379.5 150.5t-142 370zM317 1366q0 31 24 55.5t56.5 24.5t57.5 -25l170 -182q18 -18 18 -45t-20.5 -47.5t-47.5 -20.5q-23 0 -43 17l-190 168q-25 20 -25 55zM336 496
q0 -123 67.5 -206t184.5 -83t185.5 83t68.5 206q0 121 -68.5 203.5t-185.5 82.5t-184.5 -82.5t-67.5 -203.5z" />
    <glyph glyph-name="oacute" unicode="&#xf3;" horiz-adv-x="1175" 
d="M66 495.5q0 219.5 142 369t379.5 149.5t381 -149.5t143.5 -369t-143.5 -370t-381 -150.5t-379.5 150.5t-142 370zM336 496q0 -123 67.5 -206t184.5 -83t185.5 83t68.5 206q0 121 -68.5 203.5t-185.5 82.5t-184.5 -82.5t-67.5 -203.5zM535 1194q0 27 18 45l170 182
q23 25 55 25q31 0 56.5 -23.5t25.5 -56.5q0 -35 -24 -55l-191 -168q-20 -16 -43 -17q-27 0 -47 19.5t-20 48.5z" />
    <glyph glyph-name="ocircumflex" unicode="&#xf4;" horiz-adv-x="1175" 
d="M66 495.5q0 219.5 142 369t379.5 149.5t381 -149.5t143.5 -369t-143.5 -370t-381 -150.5t-379.5 150.5t-142 370zM326 1192q0 20 12 37l82 127q57 90 168 90q104 0 164 -90l84 -127q10 -12 10 -35q0 -25 -19.5 -47.5t-50.5 -22.5q-33 0 -51 27l-139 170l-137 -170
q-23 -25 -51.5 -25t-50 19.5t-21.5 46.5zM336 496q0 -123 67.5 -206t184.5 -83t185.5 83t68.5 206q0 121 -68.5 203.5t-185.5 82.5t-184.5 -82.5t-67.5 -203.5z" />
    <glyph glyph-name="otilde" unicode="&#xf5;" horiz-adv-x="1175" 
d="M66 495.5q0 219.5 142 369t379.5 149.5t381 -149.5t143.5 -369t-143.5 -370t-381 -150.5t-379.5 150.5t-142 370zM258 1200q0 72 52 146.5t165 74.5q57 0 100 -34.5t75 -68.5t63 -34q51 0 67 72q6 29 30 47t50.5 18t43 -19.5t16.5 -45.5q0 -72 -51.5 -146.5t-163.5 -74.5
q-59 0 -102.5 34.5t-75 69.5t-62.5 35q-51 0 -68 -74q-6 -29 -29.5 -47t-52.5 -18q-25 0 -41 19t-16 46zM336 496q0 -123 67.5 -206t184.5 -83t185.5 83t68.5 206q0 121 -68.5 203.5t-185.5 82.5t-184.5 -82.5t-67.5 -203.5z" />
    <glyph glyph-name="odieresis" unicode="&#xf6;" horiz-adv-x="1175" 
d="M66 495.5q0 219.5 142 369t379.5 149.5t381 -149.5t143.5 -369t-143.5 -370t-381 -150.5t-379.5 150.5t-142 370zM233 1251q0 57 41 97.5t98.5 40.5t97.5 -40t40 -97.5t-40 -98.5t-97.5 -41t-98.5 40t-41 99zM336 496q0 -123 67.5 -206t184.5 -83t185.5 83t68.5 206
q0 121 -68.5 203.5t-185.5 82.5t-184.5 -82.5t-67.5 -203.5zM666 1251.5q0 57.5 41 97.5t98 40t98 -40t41 -97.5t-41 -98.5t-98 -41t-98 41t-41 98.5z" />
    <glyph glyph-name="divide" unicode="&#xf7;" horiz-adv-x="1046" 
d="M47 694q0 33 23.5 55.5t56.5 22.5h795q33 0 55 -22.5t22 -55.5q0 -37 -22.5 -60.5t-54.5 -23.5h-795q-35 0 -57.5 23.5t-22.5 60.5zM397 321.5q0 51.5 37 88t88 36.5t88 -36.5t37 -88t-37 -88t-88 -36.5t-88 36.5t-37 88zM397 1057q0 51 37 87t88 36t88 -36t37 -87
q0 -53 -37 -90t-88 -37t-88 37t-37 90z" />
    <glyph glyph-name="oslash" unicode="&#xf8;" horiz-adv-x="1175" 
d="M66 496q0 219 142 368.5t380 149.5q166 0 289 -78l36 43q14 20 45 20q25 0 45.5 -17t20.5 -42q0 -20 -14 -39l-37 -43q139 -145 139 -362q0 -219 -143.5 -370t-380.5 -151q-174 0 -297 82l-43 -51q-18 -20 -45 -20q-25 0 -43.5 18.5t-18.5 43t15 38.5l43 51
q-133 146 -133 359zM336 496q0 -86 35 -156l346 408q-57 35 -129 34q-117 0 -184.5 -82.5t-67.5 -203.5zM451 246q53 -39 137 -39q117 0 185.5 83t68.5 206q0 90 -41 161z" />
    <glyph glyph-name="ugrave" unicode="&#xf9;" horiz-adv-x="1185" 
d="M129 287v587q0 53 38 90t95 37q53 0 90 -37.5t37 -89.5v-485q0 -182 182 -182q137 0 226 112v555q0 53 37.5 90t95.5 37q53 0 90 -37.5t37 -89.5v-757q0 -53 -38 -91t-93 -38q-53 0 -91 37.5t-38 91.5v8q-133 -150 -348 -150q-160 0 -240 82.5t-80 229.5zM322 1366
q0 31 23.5 55.5t56 24.5t57.5 -25l170 -182q18 -18 18 -45t-20.5 -47.5t-46.5 -20.5q-23 0 -43 17l-191 168q-24 20 -24 55z" />
    <glyph glyph-name="uacute" unicode="&#xfa;" horiz-adv-x="1185" 
d="M129 287v587q0 53 38 90t95 37q53 0 90 -37.5t37 -89.5v-485q0 -182 182 -182q137 0 226 112v555q0 53 37.5 90t95.5 37q53 0 90 -37.5t37 -89.5v-757q0 -53 -38 -91t-93 -38q-53 0 -91 37.5t-38 91.5v8q-133 -150 -348 -150q-160 0 -240 82.5t-80 229.5zM537 1194
q0 27 18 45l170 182q20 25 55 25q31 0 56.5 -23.5t25.5 -56.5q0 -35 -24 -55l-191 -168q-20 -16 -43 -17q-27 0 -47 19.5t-20 48.5z" />
    <glyph glyph-name="ucircumflex" unicode="&#xfb;" horiz-adv-x="1185" 
d="M129 287v587q0 53 38 90t95 37q53 0 90 -37.5t37 -89.5v-485q0 -182 182 -182q137 0 226 112v555q0 53 37.5 90t95.5 37q53 0 90 -37.5t37 -89.5v-757q0 -53 -38 -91t-93 -38q-53 0 -91 37.5t-38 91.5v8q-133 -150 -348 -150q-160 0 -240 82.5t-80 229.5zM332 1192
q0 20 12 37l82 127q57 90 168 90q104 0 164 -90l84 -127q10 -12 10 -35q0 -25 -19.5 -47.5t-50.5 -22.5q-33 0 -51 27l-139 170l-137 -170q-20 -25 -52 -25q-29 0 -50 19.5t-21 46.5z" />
    <glyph glyph-name="udieresis" unicode="&#xfc;" horiz-adv-x="1185" 
d="M129 287v587q0 53 38 90t95 37q53 0 90 -37.5t37 -89.5v-485q0 -182 182 -182q137 0 226 112v555q0 53 37.5 90t95.5 37q53 0 90 -37.5t37 -89.5v-757q0 -53 -38 -91t-93 -38q-53 0 -91 37.5t-38 91.5v8q-133 -150 -348 -150q-160 0 -240 82.5t-80 229.5zM238 1251
q0 57 40.5 97.5t98 40.5t97.5 -40t40 -97.5t-40 -98.5t-97.5 -41t-98 40t-40.5 99zM670 1251.5q0 57.5 41 97.5t98 40t98 -40t41 -97.5t-41 -98.5t-98 -41t-98 41t-41 98.5z" />
    <glyph glyph-name="yacute" unicode="&#xfd;" horiz-adv-x="1050" 
d="M43 872q0 51 37 90t94 39q39 0 73 -23.5t48 -62.5l229 -614l230 614q14 39 49 62.5t76 23.5q55 0 91 -37.5t36 -89.5q0 -29 -9 -47l-399 -989q-96 -240 -340 -239q-70 0 -115 31.5t-45 84.5q0 47 35 81t88 34q23 0 33 2q74 14 98 70l37 84l-338 843q-8 18 -8 43z
M469 1194q0 27 18 45l170 182q23 25 56 25q31 0 56.5 -23.5t25.5 -56.5q0 -35 -25 -55l-190 -168q-20 -16 -43 -17q-27 0 -47.5 19.5t-20.5 48.5z" />
    <glyph glyph-name="thorn" unicode="&#xfe;" horiz-adv-x="1193" 
d="M129 -262v1513q0 53 38 90t95 37q53 0 90 -37.5t37 -89.5v-387q117 150 305 150q195 0 317 -138.5t122 -380t-122 -381t-317 -139.5q-186 0 -305 152v-389q0 -53 -38 -90t-93 -37q-53 0 -91 37t-38 90zM389 319q33 -47 97.5 -79.5t125.5 -32.5q113 0 181.5 80t68.5 209
q0 127 -68.5 206.5t-181.5 79.5q-63 0 -126.5 -32.5t-96.5 -79.5v-351z" />
    <glyph glyph-name="ydieresis" unicode="&#xff;" horiz-adv-x="1050" 
d="M43 872q0 51 37 90t94 39q39 0 73 -23.5t48 -62.5l229 -614l230 614q14 39 49 62.5t76 23.5q55 0 91 -37.5t36 -89.5q0 -29 -9 -47l-399 -989q-96 -240 -340 -239q-70 0 -115 31.5t-45 84.5q0 47 35 81t88 34q23 0 33 2q74 14 98 70l37 84l-338 843q-8 18 -8 43z
M170 1251q0 57 41 97.5t98.5 40.5t97 -40t39.5 -97.5t-39.5 -98.5t-97.5 -41q-59 0 -99 40t-40 99zM602 1251.5q0 57.5 41 97.5t98.5 40t98.5 -40t41 -97.5t-41 -98.5t-98.5 -41t-98.5 41t-41 98.5z" />
    <glyph glyph-name="OE" unicode="&#x152;" horiz-adv-x="2220" 
d="M70 682q0 309 192.5 506.5t491.5 197.5q119 0 232.5 -47t178.5 -133q0 66 47.5 113t112.5 47h694q51 0 88 -38t37 -91q0 -51 -36.5 -89t-88.5 -38h-561v-289h547q51 0 88 -38t37 -91q0 -51 -37 -89t-88 -38h-547v-309h561q51 0 88 -37t37 -88q0 -55 -36.5 -93t-88.5 -38
h-696q-66 0 -112 47t-46 113q-66 -88 -179.5 -136.5t-231.5 -48.5q-299 0 -491.5 199t-192.5 508zM369 682q0 -195 115.5 -322t310.5 -127q125 0 223 62.5t147 175.5v422q-49 115 -146 175t-224 60q-195 0 -310.5 -124.5t-115.5 -321.5z" />
    <glyph glyph-name="oe" unicode="&#x153;" horiz-adv-x="1906" 
d="M66 495.5q0 219.5 142 369t380 149.5q229 0 387 -221q141 221 379 221q168 0 288.5 -89t172.5 -245q29 -90 28 -145q0 -51 -35.5 -87t-87.5 -36h-606q14 -98 89 -164t196 -66q100 0 190 47q25 12 51 13q43 0 77 -29t34 -74q0 -29 -18 -53q-41 -53 -153 -82t-210 -29
q-246 0 -397 220q-152 -219 -385 -220q-238 0 -380 150.5t-142 370zM336 496q0 -129 69.5 -210t182.5 -81q115 0 184.5 81t69.5 210q0 127 -70 206.5t-184 79.5q-113 0 -182.5 -79.5t-69.5 -206.5zM1110 588h487q-6 84 -67.5 151.5t-177.5 67.5q-111 0 -172.5 -66.5
t-69.5 -152.5z" />
    <glyph glyph-name="Ydieresis" unicode="&#x178;" horiz-adv-x="1320" 
d="M96 1243q0 51 40 92t100 41q78 0 118 -65l308 -494l301 492q41 68 120 67q61 0 100.5 -40t39.5 -93q0 -39 -21 -72l-395 -612v-428q0 -59 -43 -101t-105 -42q-57 0 -100 43t-43 100v428l-399 615q-21 28 -21 69zM307 1593.5q0 57.5 41 97.5t98.5 40t97.5 -40t40 -97.5
t-40 -98.5t-97.5 -41t-98.5 41t-41 98.5zM739 1593.5q0 57.5 41 97.5t98.5 40t98.5 -40t41 -97.5t-41 -98.5t-98.5 -41t-98.5 41t-41 98.5z" />
    <glyph glyph-name="circumflex" unicode="&#x2c6;" horiz-adv-x="614" 
d="M45 1192q0 20 12 37l82 127q57 90 168 90q104 0 164 -90l84 -127q10 -12 10 -35q0 -25 -19.5 -47.5t-49.5 -22.5q-33 0 -52 27l-139 170l-137 -170q-20 -25 -51 -25q-29 0 -50.5 19.5t-21.5 46.5z" />
    <glyph glyph-name="tilde" unicode="&#x2dc;" horiz-adv-x="669" 
d="M4 1200q0 72 52.5 146.5t164.5 74.5q57 0 100.5 -34.5t75 -68.5t62.5 -34q51 0 67 72q6 29 30 47t50.5 18t43 -19.5t16.5 -45.5q0 -72 -51.5 -146.5t-163.5 -74.5q-59 0 -102.5 34.5t-75 69.5t-62.5 35q-51 0 -68 -74q-6 -29 -29.5 -47t-52.5 -18q-25 0 -41 19t-16 46z
" />
    <glyph glyph-name="uni2000" unicode="&#x2000;" horiz-adv-x="919" 
 />
    <glyph glyph-name="uni2001" unicode="&#x2001;" horiz-adv-x="1841" 
 />
    <glyph glyph-name="uni2002" unicode="&#x2002;" horiz-adv-x="919" 
 />
    <glyph glyph-name="uni2003" unicode="&#x2003;" horiz-adv-x="1841" 
 />
    <glyph glyph-name="uni2004" unicode="&#x2004;" horiz-adv-x="612" 
 />
    <glyph glyph-name="uni2005" unicode="&#x2005;" horiz-adv-x="458" 
 />
    <glyph glyph-name="uni2006" unicode="&#x2006;" horiz-adv-x="305" 
 />
    <glyph glyph-name="uni2007" unicode="&#x2007;" horiz-adv-x="305" 
 />
    <glyph glyph-name="uni2008" unicode="&#x2008;" horiz-adv-x="229" 
 />
    <glyph glyph-name="uni2009" unicode="&#x2009;" horiz-adv-x="366" 
 />
    <glyph glyph-name="uni200A" unicode="&#x200a;" horiz-adv-x="100" 
 />
    <glyph glyph-name="uni2010" unicode="&#x2010;" horiz-adv-x="614" 
d="M49 498q0 45 32 76.5t77 31.5h299q45 0 76.5 -31.5t31.5 -76.5q0 -47 -31.5 -80t-76.5 -33h-299q-45 0 -77 33t-32 80z" />
    <glyph glyph-name="uni2011" unicode="&#x2011;" horiz-adv-x="614" 
d="M49 498q0 45 32 76.5t77 31.5h299q45 0 76.5 -31.5t31.5 -76.5q0 -47 -31.5 -80t-76.5 -33h-299q-45 0 -77 33t-32 80z" />
    <glyph glyph-name="figuredash" unicode="&#x2012;" horiz-adv-x="614" 
d="M49 498q0 45 32 76.5t77 31.5h299q45 0 76.5 -31.5t31.5 -76.5q0 -47 -31.5 -80t-76.5 -33h-299q-45 0 -77 33t-32 80z" />
    <glyph glyph-name="endash" unicode="&#x2013;" horiz-adv-x="1214" 
d="M49 498q0 45 32 76.5t77 31.5h899q45 0 76.5 -31.5t31.5 -76.5q0 -47 -31.5 -80t-76.5 -33h-899q-45 0 -77 33t-32 80z" />
    <glyph glyph-name="emdash" unicode="&#x2014;" horiz-adv-x="1705" 
d="M49 498q0 45 32 76.5t77 31.5h1390q45 0 77 -31.5t32 -76.5q0 -47 -32 -80t-77 -33h-1390q-45 0 -77 33t-32 80z" />
    <glyph glyph-name="quoteleft" unicode="&#x2018;" horiz-adv-x="522" 
d="M80 1008q0 197 166 346q20 20 55 20t54.5 -21.5t19.5 -45.5q0 -29 -19 -43q-90 -74 -110 -160q18 6 39 6q59 0 99 -41t40 -106q0 -68 -47 -116t-113 -48q-76 0 -130 56.5t-54 152.5z" />
    <glyph glyph-name="quoteright" unicode="&#x2019;" horiz-adv-x="522" 
d="M96 1223q0 68 47 115.5t113 47.5q76 0 130 -56t54 -152q0 -197 -166 -347q-20 -20 -55 -20q-33 0 -53.5 21.5t-20.5 46t19 43.5q90 74 110 159q-18 -6 -38 -6q-59 0 -99.5 41t-40.5 107z" />
    <glyph glyph-name="quotesinglbase" unicode="&#x201a;" 
d="M96 145q0 68 47 116t113 48q76 0 130 -56t54 -153q0 -197 -166 -346q-20 -20 -55 -20q-33 0 -53.5 21.5t-20.5 46t19 42.5q90 74 110 160q-18 -6 -38 -6q-59 0 -99.5 40.5t-40.5 106.5z" />
    <glyph glyph-name="quotedblleft" unicode="&#x201c;" horiz-adv-x="940" 
d="M80 1008q0 197 166 346q20 20 55 20t54.5 -21.5t19.5 -45.5q0 -29 -19 -43q-90 -74 -110 -160q18 6 39 6q59 0 99 -41t40 -106q0 -68 -47 -116t-113 -48q-76 0 -130 56.5t-54 152.5zM496 1008q0 197 166 346q20 20 55 20q33 0 53.5 -22.5t20.5 -44.5q0 -29 -19 -43
q-90 -74 -110 -160q18 6 38 6q59 0 99.5 -41t40.5 -106q0 -68 -47.5 -116t-112.5 -48q-76 0 -130 56.5t-54 152.5z" />
    <glyph glyph-name="quotedblright" unicode="&#x201d;" horiz-adv-x="940" 
d="M98 1223q0 68 47.5 115.5t112.5 47.5q76 0 130 -56t54 -152q0 -197 -166 -347q-23 -20 -55 -20q-35 0 -54.5 21.5t-19.5 46t19 43.5q90 74 110 159q-18 -6 -38 -6q-59 0 -99.5 41t-40.5 107zM514 1223q0 68 47 115.5t113 47.5q76 0 130 -56t54 -152q0 -197 -166 -347
q-23 -20 -55 -20q-35 0 -54.5 20.5t-19.5 47.5q0 25 19 43q90 74 110 159q-18 -6 -39 -6q-59 0 -99 41t-40 107z" />
    <glyph glyph-name="quotedblbase" unicode="&#x201e;" horiz-adv-x="940" 
d="M96 145q0 68 47 116t113 48q76 0 130 -56t54 -153q0 -197 -166 -346q-23 -20 -55 -20q-35 0 -54.5 21.5t-19.5 46t19 42.5q90 74 110 160q-18 -6 -38 -6q-59 0 -99.5 40.5t-40.5 106.5zM514 145q0 68 47 116t113 48q76 0 130 -56t54 -153q0 -197 -166 -346
q-23 -20 -55 -20q-35 0 -54.5 21.5t-19.5 46t19 42.5q90 74 110 160q-18 -6 -39 -6q-59 0 -99 40.5t-40 106.5z" />
    <glyph glyph-name="bullet" unicode="&#x2022;" horiz-adv-x="733" 
d="M125 496q0 102 70.5 172.5t173 70.5t173 -70.5t70.5 -172.5q0 -100 -71.5 -171t-172 -71t-172 71t-71.5 171z" />
    <glyph glyph-name="ellipsis" unicode="&#x2026;" horiz-adv-x="1572" 
d="M96 143q0 68 48.5 117t116 49t116.5 -49t49 -117q0 -66 -49 -114.5t-116.5 -48.5t-116 48.5t-48.5 114.5zM621 143q0 68 48 117t115.5 49t116.5 -49t49 -117q0 -66 -49 -114.5t-116.5 -48.5t-115.5 48.5t-48 114.5zM1145 143q0 68 48 117t115.5 49t117 -49t49.5 -117
q0 -66 -49.5 -114.5t-117 -48.5t-115.5 48.5t-48 114.5z" />
    <glyph glyph-name="uni202F" unicode="&#x202f;" horiz-adv-x="366" 
 />
    <glyph glyph-name="guilsinglleft" unicode="&#x2039;" horiz-adv-x="690" 
d="M125 495.5q0 69.5 47 122.5l203 226q25 27 61 26q35 0 62.5 -25.5t27.5 -62.5q0 -35 -20 -57l-205 -227l205 -230q20 -23 20 -59q0 -35 -24.5 -63.5t-63.5 -28.5t-63 28l-205 230q-45 51 -45 120.5z" />
    <glyph glyph-name="guilsinglright" unicode="&#x203a;" horiz-adv-x="690" 
d="M162 209q0 35 22 59l205 230l-205 227q-20 23 -20 55q0 35 25.5 62.5t62.5 27.5q39 0 63 -26l203 -226q47 -53 47 -122.5t-45 -120.5l-205 -230q-25 -29 -63 -28q-35 0 -62.5 27.5t-27.5 64.5z" />
    <glyph glyph-name="uni205F" unicode="&#x205f;" horiz-adv-x="458" 
 />
    <glyph glyph-name="Euro" unicode="&#x20ac;" horiz-adv-x="1452" 
d="M31 543q0 31 22.5 53t52.5 22h13q-2 20 -2 64q0 47 2 70h-13q-31 0 -53 23.5t-22 55.5q0 29 22.5 51.5t52.5 22.5h44q68 221 256 352.5t438 131.5q309 0 497 -226q29 -35 29 -80q0 -55 -41 -93t-98 -38q-63 0 -107 47q-125 131 -280 131q-125 0 -223.5 -60t-153.5 -165
h440q29 0 51.5 -22.5t22.5 -55.5q0 -31 -22.5 -53t-51.5 -22h-487q-4 -23 -4 -70q0 -23 4 -64h485q31 0 53.5 -23.5t22.5 -55.5q0 -31 -22.5 -53.5t-53.5 -22.5h-440q53 -106 153.5 -168t225.5 -62q164 0 280 129q43 47 111 48q55 0 94 -38t39 -89q0 -49 -29 -80
q-186 -227 -495 -228q-250 0 -439.5 132.5t-257.5 355.5h-41q-31 0 -53 23.5t-22 56.5z" />
    <glyph glyph-name="trademark" unicode="&#x2122;" horiz-adv-x="929" 
d="M23 1339.5q0 10.5 7 18.5t17 8h287q10 0 17 -8t7 -18.5t-7 -18.5t-17 -8h-115v-383q0 -27 -28.5 -27t-28.5 27v383h-115q-10 0 -17 8t-7 18.5zM420 930v403q0 18 14.5 31.5t34.5 13.5q33 0 45 -28l125 -312l123 310q14 31 47 30q20 0 34.5 -13t14.5 -32v-403
q0 -27 -28.5 -27t-28.5 27v358l-142 -344q-6 -16 -20 -16t-21 16l-141 344v-358q0 -27 -28.5 -27t-28.5 27z" />
    <glyph glyph-name="uniE000" unicode="&#xe000;" horiz-adv-x="1000" 
d="M0 1000h1000v-1000h-1000v1000z" />
    <glyph glyph-name="uniFB01" unicode="&#xfb01;" horiz-adv-x="1187" 
d="M10 879q0 45 34 77.5t79 32.5h63v53q0 158 93.5 251t240.5 93q166 0 166 -104q0 -41 -24.5 -70.5t-65.5 -29.5h-23q-55 0 -89.5 -36t-34.5 -104v-53h102q45 0 78 -33.5t33 -81.5q0 -45 -33 -78.5t-78 -33.5h-102v-645q0 -53 -38 -91t-96 -38q-53 0 -91 37.5t-38 91.5v645
h-63q-47 0 -80 34t-33 83zM772 1251.5q0 63.5 46 108.5t110 45q66 0 110.5 -45t44.5 -108.5t-46 -109.5t-109.5 -46t-109.5 46t-46 109.5zM799 117v757q0 53 37.5 90t95.5 37q51 0 89 -37.5t38 -89.5v-757q0 -53 -38 -91t-93 -38q-53 0 -91 38t-38 91z" />
    <glyph glyph-name="uniFB02" unicode="&#xfb02;" horiz-adv-x="1187" 
d="M10 879q0 45 34 77.5t79 32.5h63v53q0 158 93.5 251t240.5 93q166 0 166 -104q0 -41 -24.5 -70.5t-65.5 -29.5h-23q-55 0 -89.5 -36t-34.5 -104v-53h102q45 0 78 -33.5t33 -81.5q0 -45 -33 -78.5t-78 -33.5h-102v-645q0 -53 -38 -91t-96 -38q-53 0 -91 37.5t-38 91.5v645
h-63q-47 0 -80 34t-33 83zM799 117v1134q0 53 37.5 90t95.5 37q51 0 89 -37.5t38 -89.5v-1134q0 -53 -38 -91t-93 -38q-53 0 -91 38t-38 91z" />
    <glyph glyph-name="uniFB03" unicode="&#xfb03;" horiz-adv-x="1857" 
d="M1441 1251.5q0 63.5 46.5 108.5t109.5 45q66 0 111 -45t45 -108.5t-45 -109.5t-111 -46q-63 0 -109.5 46t-46.5 109.5zM1468 117v757q0 53 38 90t95 37q53 0 90 -37.5t37 -89.5v-757q0 -53 -38 -91t-93 -38q-53 0 -91 38t-38 91zM680 879q0 45 34 77.5t79 32.5h63v53
q0 158 92.5 251t241.5 93q104 0 169 -33.5t65 -86.5q0 -45 -27 -72t-61 -27q-14 0 -42 7.5t-53 7.5q-55 0 -88.5 -36t-33.5 -104v-53h102q45 0 78 -33.5t33 -81.5q0 -45 -33 -78.5t-78 -33.5h-102v-645q0 -53 -38 -91t-96 -38q-53 0 -91 37.5t-38 91.5v645h-63q-47 0 -80 34
t-33 83zM10 879q0 45 34 77.5t79 32.5h63v53q0 158 92.5 251t241.5 93q104 0 169 -33.5t65 -86.5q0 -45 -27 -72t-61 -27q-14 0 -42 7.5t-53 7.5q-55 0 -88.5 -36t-33.5 -104v-53h102q45 0 78 -33.5t33 -81.5q0 -45 -33 -78.5t-78 -33.5h-102v-645q0 -53 -38 -91t-96 -38
q-53 0 -91 37.5t-38 91.5v645h-63q-47 0 -80 34t-33 83z" />
    <glyph glyph-name="uniFB04" unicode="&#xfb04;" horiz-adv-x="1857" 
d="M1468 117v1134q0 53 38 90t95 37q53 0 90 -37.5t37 -89.5v-1134q0 -53 -38 -91t-93 -38q-53 0 -91 38t-38 91zM680 879q0 45 34 77.5t79 32.5h63v53q0 158 92.5 251t241.5 93q104 0 169 -33.5t65 -86.5q0 -45 -27 -72t-61 -27q-14 0 -42 7.5t-53 7.5q-55 0 -88.5 -36
t-33.5 -104v-53h102q45 0 78 -33.5t33 -81.5q0 -45 -33 -78.5t-78 -33.5h-102v-645q0 -53 -38 -91t-96 -38q-53 0 -91 37.5t-38 91.5v645h-63q-47 0 -80 34t-33 83zM10 879q0 45 34 77.5t79 32.5h63v53q0 158 92.5 251t241.5 93q104 0 169 -33.5t65 -86.5q0 -45 -27 -72
t-61 -27q-14 0 -42 7.5t-53 7.5q-55 0 -88.5 -36t-33.5 -104v-53h102q45 0 78 -33.5t33 -81.5q0 -45 -33 -78.5t-78 -33.5h-102v-645q0 -53 -38 -91t-96 -38q-53 0 -91 37.5t-38 91.5v645h-63q-47 0 -80 34t-33 83z" />
    </font>
</defs>
</svg>
